<svg xmlns="http://www.w3.org/2000/svg" width="366.618" height="208.122" viewBox="0 0 366.618 208.122">
  <g id="Grupo_893369" data-name="Grupo 893369" transform="translate(-1027.626 -779.558)">
    <rect id="Rectángulo_300679" data-name="Rectángulo 300679" width="346.286" height="184.937" transform="translate(1035.64 779.558)" fill="#f5fafe"/>
    <g id="Grupo_890009" data-name="Grupo 890009" transform="translate(1351.781 833.174)">
      <path id="Trazado_606751" data-name="Trazado 606751" d="M391.662,299.169a3.283,3.283,0,1,0-3.284,3.284,3.284,3.284,0,0,0,3.284-3.284" transform="translate(-377.648 -257.378)" fill="#e0e0e0"/>
      <path id="Trazado_606752" data-name="Trazado 606752" d="M403.581,274.375a2.043,2.043,0,1,0-2.043,2.044,2.043,2.043,0,0,0,2.043-2.044" transform="translate(-399.495 -250.065)" fill="#e0e0e0"/>
      <path id="Trazado_606753" data-name="Trazado 606753" d="M390.3,253.2a1.873,1.873,0,1,0-2.375,1.174A1.873,1.873,0,0,0,390.3,253.2" transform="translate(-377.457 -243.358)" fill="#e0e0e0"/>
      <path id="Trazado_606754" data-name="Trazado 606754" d="M365.983,347.69a3.052,3.052,0,1,0,3.052-3.053,3.052,3.052,0,0,0-3.052,3.053" transform="translate(-344.894 -272.515)" fill="#e0e0e0"/>
      <path id="Trazado_606755" data-name="Trazado 606755" d="M368.292,382.673a2.191,2.191,0,1,0,2.191-2.191,2.19,2.19,0,0,0-2.191,2.191" transform="translate(-347.072 -283.644)" fill="#e0e0e0"/>
      <path id="Trazado_606756" data-name="Trazado 606756" d="M365.723,419.412a1.556,1.556,0,1,0,1.556-1.556,1.556,1.556,0,0,0-1.556,1.556" transform="translate(-341.461 -295.246)" fill="#e0e0e0"/>
      <path id="Trazado_606757" data-name="Trazado 606757" d="M379.154,347.69a3.053,3.053,0,1,0,3.052-3.053,3.053,3.053,0,0,0-3.052,3.053" transform="translate(-367.147 -272.515)" fill="#e0e0e0"/>
      <path id="Trazado_606758" data-name="Trazado 606758" d="M396.253,379.5a2.19,2.19,0,1,0,2.191-2.191,2.191,2.191,0,0,0-2.191,2.191" transform="translate(-394.312 -282.657)" fill="#e0e0e0"/>
      <path id="Trazado_606759" data-name="Trazado 606759" d="M385.73,414.891a1.556,1.556,0,1,0,1.17-1.862,1.555,1.555,0,0,0-1.17,1.862" transform="translate(-375.199 -293.735)" fill="#e0e0e0"/>
      <path id="Trazado_606760" data-name="Trazado 606760" d="M368.025,320.461a5.049,5.049,0,1,0,5.049-5.049,5.049,5.049,0,0,0-5.049,5.049" transform="translate(-352.337 -263.441)" fill="#e0e0e0"/>
      <path id="Trazado_606761" data-name="Trazado 606761" d="M370.64,290.035a3.283,3.283,0,1,0,3.284-3.284,3.284,3.284,0,0,0-3.284,3.284" transform="translate(-353.224 -254.542)" fill="#e0e0e0"/>
      <path id="Trazado_606762" data-name="Trazado 606762" d="M354.639,299.169a3.283,3.283,0,1,0,3.284-3.284,3.284,3.284,0,0,0-3.284,3.284" transform="translate(-326.19 -257.378)" fill="#e0e0e0"/>
      <path id="Trazado_606763" data-name="Trazado 606763" d="M343.837,325.08a2.043,2.043,0,1,0,2.044-2.043,2.043,2.043,0,0,0-2.044,2.043" transform="translate(-305.46 -265.807)" fill="#e0e0e0"/>
      <path id="Trazado_606764" data-name="Trazado 606764" d="M357.272,346.408a1.873,1.873,0,1,0,2.375-1.174,1.873,1.873,0,0,0-2.375,1.174" transform="translate(-327.653 -272.669)" fill="#e0e0e0"/>
      <path id="Trazado_606765" data-name="Trazado 606765" d="M388.862,277.669s5.234,11.792,7.359,14.318a11.755,11.755,0,0,0,3.841-2.3s-6.264-11.973-7.339-14Z" transform="translate(-388.645 -251.107)" fill="#f5f5f5"/>
      <path id="Trazado_606766" data-name="Trazado 606766" d="M387.272,266.009c.079-.247,8.279-12.669,8.279-12.669l3.6,2.479-7.839,12.931Z" transform="translate(-386.637 -244.168)" fill="#f5f5f5"/>
      <path id="Trazado_606767" data-name="Trazado 606767" d="M390.827,248.417s-5.308-5.971-1.594-8.01,4.707,5,4.372,7.019l-2.933,1.106" transform="translate(-381.595 -240.04)" fill="#f5f5f5"/>
      <path id="Trazado_606768" data-name="Trazado 606768" d="M358.823,432.259h25.829a8.178,8.178,0,0,0-8.177-8.177H367a8.177,8.177,0,0,0-8.177,8.177" transform="translate(-352.522 -297.181)" fill="#e0e0e0"/>
      <path id="Trazado_606769" data-name="Trazado 606769" d="M375.929,328.265c-.079,0-.143,14.846-.143,33.155s.064,33.158.143,33.158.143-14.843.143-33.158-.064-33.155-.143-33.155" transform="translate(-355.639 -267.43)" fill="#e0e0e0"/>
      <path id="Trazado_606770" data-name="Trazado 606770" d="M377.923,325.109s3.026,4.9,2.191,14.606H364.256s-.983-11.537,2.773-14.875Z" transform="translate(-351.795 -266.368)" fill="#f5f5f5"/>
      <path id="Trazado_606771" data-name="Trazado 606771" d="M372.553,352.773h-7.275l.685,20.52h4.982Z" transform="translate(-344.873 -275.04)" fill="#f5f5f5"/>
      <path id="Trazado_606772" data-name="Trazado 606772" d="M370.664,384.573l1.505,23.552-3.637.689-3.255-23.552Z" transform="translate(-344.49 -284.913)" fill="#f5f5f5"/>
      <path id="Trazado_606773" data-name="Trazado 606773" d="M369.2,422.729a3.029,3.029,0,0,0-2.975-3c-2.929-.11-3.255,3-3.255,3Z" transform="translate(-339.934 -295.827)" fill="#f5f5f5"/>
      <path id="Trazado_606774" data-name="Trazado 606774" d="M395.2,352.561l-6.614-3.028-7.92,18.943,4.53,2.073Z" transform="translate(-378.125 -274.034)" fill="#f5f5f5"/>
      <path id="Trazado_606775" data-name="Trazado 606775" d="M390.721,380.482l6.71,22.625-3.393,1.481-8.416-22.236Z" transform="translate(-383.78 -283.644)" fill="#f5f5f5"/>
      <path id="Trazado_606776" data-name="Trazado 606776" d="M392.567,417.408c-.189.315-8.95,3.6-8.95,3.6s-2.081-1.853,4.475-4.837l1.4-.645a2.077,2.077,0,0,1,2.826,1.191Z" transform="translate(-377.316 -294.461)" fill="#f5f5f5"/>
      <path id="Trazado_606777" data-name="Trazado 606777" d="M380.275,293.736c.241.057-.206,12.976-3.037,17.769,0,0-10.187-.33-10.435,0s-3.545-11.243-3.245-17.461a32,32,0,0,1,16.717-.308" transform="translate(-351.453 -256.422)" fill="#f5f5f5"/>
      <path id="Trazado_606778" data-name="Trazado 606778" d="M371.913,265.06s6.506.141,5.3,8.415-2.54,8.274-2.578,8.485-8.171-.565-8.171-.565-4.454-16.689,5.445-16.335" transform="translate(-349.817 -247.805)" fill="#f5f5f5"/>
      <path id="Trazado_606779" data-name="Trazado 606779" d="M355.353,316.287s-5.234-11.792-7.359-14.318a11.754,11.754,0,0,0-3.841,2.3s6.264,11.973,7.339,14Z" transform="translate(-313.107 -259.267)" fill="#f5f5f5"/>
      <path id="Trazado_606780" data-name="Trazado 606780" d="M356.638,328.346c-.079.248-8.279,12.669-8.279,12.669l-3.6-2.479L352.6,325.6Z" transform="translate(-314.81 -266.607)" fill="#f5f5f5"/>
      <path id="Trazado_606781" data-name="Trazado 606781" d="M355.589,349.649s5.308,5.971,1.594,8.01-4.708-5-4.372-7.019l2.933-1.107" transform="translate(-322.183 -274.033)" fill="#f5f5f5"/>
    </g>
    <g id="Grupo_890010" data-name="Grupo 890010" transform="translate(1009.741 666.011)">
      <g id="Desk" transform="translate(43.137 132.083)">
        <g id="Grupo_54625" data-name="Grupo 54625" transform="translate(96.236 100.323)">
          <g id="Grupo_54622" data-name="Grupo 54622" transform="translate(3.181 0)">
            <rect id="Rectángulo_29403" data-name="Rectángulo 29403" width="74.989" height="82.355" transform="translate(0 5.47) rotate(-4.183)" fill="#263238"/>
          </g>
          <g id="Grupo_54623" data-name="Grupo 54623" transform="translate(9.279 17.214)">
            <path id="Trazado_117001" data-name="Trazado 117001" d="M270.21,355.794l-1.1-24.28-65.323,6.128,2.493,25.224Z" transform="translate(-203.788 -331.514)" fill="#455a64"/>
          </g>
          <g id="Grupo_54624" data-name="Grupo 54624" transform="translate(0 73.044)">
            <path id="Trazado_117002" data-name="Trazado 117002" d="M279.7,423.064l-83.72,5.626a5.3,5.3,0,0,1-5.64-4.93h0a5.3,5.3,0,0,1,4.929-5.64l83.72-5.625a5.3,5.3,0,0,1,5.64,4.929h0A5.3,5.3,0,0,1,279.7,423.064Z" transform="translate(-190.33 -412.482)" fill="#455a64"/>
          </g>
        </g>
        <g id="Grupo_54628" data-name="Grupo 54628">
          <g id="Grupo_54626" data-name="Grupo 54626">
            <rect id="Rectángulo_29404" data-name="Rectángulo 29404" width="278.614" height="126.209" fill="#ebebeb"/>
          </g>
          <g id="Grupo_54627" data-name="Grupo 54627" transform="translate(0 126.209)">
            <path id="Trazado_117003" data-name="Trazado 117003" d="M50.763,344.091l7.2,3.753,264.516-.251,6.9-3.5Z" transform="translate(-50.763 -344.091)" fill="#e0e0e0"/>
          </g>
        </g>
      </g>
      <g id="Character" transform="translate(112.429 161.388)">
        <g id="Grupo_54734" data-name="Grupo 54734">
          <g id="Grupo_54674" data-name="Grupo 54674" transform="translate(5.786)">
            <g id="Grupo_54649" data-name="Grupo 54649">
              <g id="Grupo_54629" data-name="Grupo 54629">
                <path id="Trazado_117004" data-name="Trazado 117004" d="M160.142,288.552l-.5-85h130.6V289.43Z" transform="translate(-159.646 -203.555)" fill="#455a64"/>
              </g>
              <g id="Grupo_54648" data-name="Grupo 54648" transform="translate(3.73 3.516)">
                <g id="Grupo_54630" data-name="Grupo 54630" transform="translate(0.246 9.558)">
                  <path id="Trazado_117005" data-name="Trazado 117005" d="M188.883,278.258c5.054-.263,10.2.927,15.245,1.508l-2.709-.718a16.285,16.285,0,0,1,18.114-17.605c3.592.42,7.126,2.034,10.693,1.434,6.54-1.1,9.9-8.885,16.109-11.217,7.937-2.982,17.182,3.987,25.008.726,3.171-1.322,5.476-4.12,8.421-5.889,2.522-1.515,6.175-1.954,8.3-.211V228.021c-2.093,4.045-7.24,6.01-11.878,5.626-4.922-.408-9.4-2.873-13.674-5.329s-8.672-5.015-13.57-5.644c-6.966-.894-13.722,2.218-20.48,4.121-6.1,1.719-12.673,2.462-18.761.7-.2-.059-.4-.136-.6-.2a10.331,10.331,0,0,1-2.541,1.806c-5.182,2.512-12.1-.856-16.831,2.426-2.835,1.966-3.821,5.651-5.9,8.4-3.841,5.076-13.093,6.542-18.412,2.984V284.9l.019,5.434,2.788,0A26.922,26.922,0,0,1,188.883,278.258Zm80-37.455a2.781,2.781,0,0,1,1.061-.508c.05-.015.1-.042.148-.054l-.056.026a3.155,3.155,0,1,1-.847.394Z" transform="translate(-165.412 -222.516)" fill="#fafafa"/>
                </g>
                <g id="Grupo_54631" data-name="Grupo 54631" transform="translate(36.193 32.199)">
                  <path id="Trazado_117006" data-name="Trazado 117006" d="M304.25,256.48c-2.126-1.743-5.78-1.3-8.3.211-2.945,1.769-5.25,4.567-8.421,5.889-7.826,3.261-17.071-3.708-25.008-.726-6.208,2.332-9.569,10.116-16.109,11.217-3.567.6-7.1-1.014-10.693-1.434A16.285,16.285,0,0,0,217.6,289.242l2.709.718c3.937.454,7.818.537,11.557-.727,10.773-3.642,16.638-17.358,27.935-18.663,6.264-.723,12.518,2.762,18.734,1.7,5.043-.859,9.058-4.516,13.225-7.485,4.1-2.917,8.186-5.694,12.838-3.989v-3.992A4.158,4.158,0,0,0,304.25,256.48Z" transform="translate(-217.544 -255.352)" fill="#ece9f4"/>
                </g>
                <g id="Grupo_54633" data-name="Grupo 54633" transform="translate(3.053 37.126)">
                  <g id="Grupo_54632" data-name="Grupo 54632">
                    <path id="Trazado_117007" data-name="Trazado 117007" d="M276.842,267.007c-4.166,2.968-8.181,6.626-13.224,7.485-6.216,1.058-12.471-2.426-18.735-1.7-11.3,1.3-17.162,15.021-27.935,18.663-3.739,1.264-7.62,1.18-11.557.727-5.049-.581-10.191-1.771-15.245-1.508a26.923,26.923,0,0,0-20.665,12.081l2.741,0a20.483,20.483,0,0,1,9.927-5.569,20.081,20.081,0,0,1,16.2,3.122c1.059.756,2.057,1.623,3.059,2.477l20.559.021c.908-.513,1.819-1.023,2.748-1.495,3.723-1.891,7.976-3.2,12.061-2.336a10.532,10.532,0,0,1,6.3,3.853l22.013.023a6.045,6.045,0,0,1,3.556-3.132c1.66-.507,3.576-.315,5-1.314,1.653-1.164,1.962-3.426,2.637-5.332A12.269,12.269,0,0,1,289.68,285.4V263.018C285.029,261.313,280.938,264.09,276.842,267.007Zm-19.457,31.408a6.924,6.924,0,0,1-6.893-11.983l-.547.254a6.273,6.273,0,0,1,2.036-1.061,6,6,0,0,1,.717-.219l-.123.058a6.94,6.94,0,0,1,4.81,12.951Zm24.42-24.97A1.852,1.852,0,0,1,280,270.216l-.187.087a1.7,1.7,0,0,1,.647-.31c.031-.01.059-.025.09-.033l-.034.016a1.859,1.859,0,0,1,1.289,3.469Z" transform="translate(-169.482 -262.497)" fill="#1565c0"/>
                  </g>
                </g>
                <g id="Grupo_54634" data-name="Grupo 54634" transform="translate(98.657 59.843)">
                  <path id="Trazado_117008" data-name="Trazado 117008" d="M319.321,303.3c-.674,1.906-.984,4.168-2.637,5.332-1.42,1-3.336.807-5,1.314a6.045,6.045,0,0,0-3.556,3.132l24.594.026V295.628A12.269,12.269,0,0,0,319.321,303.3Z" transform="translate(-308.133 -295.443)" fill="#ece9f4"/>
                </g>
                <g id="Grupo_54635" data-name="Grupo 54635" transform="translate(5.793 71.268)">
                  <path id="Trazado_117009" data-name="Trazado 117009" d="M183.384,312.559a20.483,20.483,0,0,0-9.927,5.569l29.184.03c-1-.854-2-1.72-3.059-2.477A20.081,20.081,0,0,0,183.384,312.559Z" transform="translate(-173.457 -312.012)" fill="#ece9f4"/>
                </g>
                <g id="Grupo_54636" data-name="Grupo 54636" transform="translate(55.537 73.332)">
                  <path id="Trazado_117010" data-name="Trazado 117010" d="M260.408,315.277c-4.085-.866-8.338.445-12.061,2.336-.929.472-1.84.982-2.748,1.495l21.106.022A10.532,10.532,0,0,0,260.408,315.277Z" transform="translate(-245.598 -315.005)" fill="#e8505b"/>
                </g>
                <g id="Grupo_54637" data-name="Grupo 54637" transform="translate(43.859 0.007)">
                  <path id="Trazado_117011" data-name="Trazado 117011" d="M246.63,214.8c-3.675.272-7.6-.36-10.87,1.343-2.926,1.525-4.7,4.627-7.1,6.868.2.069.4.145.6.2,6.088,1.762,12.66,1.02,18.761-.7,6.757-1.9,13.513-5.016,20.48-4.121,4.9.629,9.3,3.186,13.571,5.643s8.752,4.921,13.674,5.329c4.637.385,9.784-1.58,11.877-5.625V208.689h0l-52.786-.025C254.581,212.3,250.281,214.532,246.63,214.8Z" transform="translate(-228.662 -208.664)" fill="#1565c0"/>
                </g>
                <g id="Grupo_54639" data-name="Grupo 54639" transform="translate(80.966 59.926)">
                  <path id="Trazado_117013" data-name="Trazado 117013" d="M287.657,295.73l.123-.058a6,6,0,0,0-.717.219,6.273,6.273,0,0,0-2.036,1.061l.547-.254a6.87,6.87,0,1,0,2.083-.968Z" transform="translate(-282.478 -295.563)" fill="#ece9f4"/>
                </g>
                <g id="Grupo_54642" data-name="Grupo 54642" transform="translate(112.701 44.56)">
                  <path id="Trazado_117015" data-name="Trazado 117015" d="M331.929,274.113a1.962,1.962,0,0,0-2.042-.789l.034-.016c-.031.008-.059.023-.09.033a1.7,1.7,0,0,0-.647.31l.187-.087a1.853,1.853,0,1,0,2.558.55Z" transform="translate(-328.502 -273.279)" fill="#e8505b"/>
                </g>
                <g id="Grupo_54643" data-name="Grupo 54643">
                  <path id="Trazado_117016" data-name="Trazado 117016" d="M183.713,235.62c2.082-2.751,3.068-6.436,5.9-8.4,4.733-3.281,11.649.086,16.831-2.426a10.332,10.332,0,0,0,2.541-1.806c2.394-2.24,4.173-5.343,7.1-6.868,3.268-1.7,7.195-1.071,10.869-1.343,3.652-.27,7.877-2.479,8.138-6.114H165.055l.1,29.856c.046.032.1.057.144.088C170.62,242.162,179.872,240.7,183.713,235.62Z" transform="translate(-165.055 -208.655)" fill="#ece9f4"/>
                </g>
              </g>
            </g>
            <g id="Grupo_54663" data-name="Grupo 54663" transform="translate(33.131 19.682)">
              <g id="Grupo_54651" data-name="Grupo 54651" transform="translate(0.789 1.082)">
                <g id="Grupo_54650" data-name="Grupo 54650">
                  <path id="Trazado_117019" data-name="Trazado 117019" d="M267.757,252.613l-4.844-18.875.059.035L208.948,247.52h0l.052-.087,4.795,18.887-.084-.05,54.049-13.658L213.741,266.4l-.067.017-.017-.068c-1.509-5.939-3.128-12.31-4.8-18.886l-.018-.07.07-.018h0l54.035-13.7.047-.012.012.047Z" transform="translate(-208.839 -233.668)" fill="#263238"/>
                </g>
              </g>
              <g id="Grupo_54652" data-name="Grupo 54652" transform="translate(58.781 18.959)">
                <rect id="Rectángulo_29405" data-name="Rectángulo 29405" width="1.443" height="1.443" transform="matrix(0.969, -0.246, 0.246, 0.969, 0, 0.355)" fill="#455a64"/>
              </g>
              <g id="Grupo_54653" data-name="Grupo 54653" transform="translate(4.797 32.875)">
                <rect id="Rectángulo_29406" data-name="Rectángulo 29406" width="1.443" height="1.443" transform="matrix(0.969, -0.246, 0.246, 0.969, 0, 0.355)" fill="#455a64"/>
              </g>
              <g id="Grupo_54654" data-name="Grupo 54654" transform="translate(53.966 0)">
                <rect id="Rectángulo_29407" data-name="Rectángulo 29407" width="1.443" height="1.443" transform="matrix(0.969, -0.246, 0.246, 0.969, 0, 0.355)" fill="#455a64"/>
              </g>
              <g id="Grupo_54655" data-name="Grupo 54655" transform="translate(26.73 6.918)">
                <rect id="Rectángulo_29408" data-name="Rectángulo 29408" width="1.443" height="1.443" transform="matrix(0.969, -0.246, 0.246, 0.969, 0, 0.355)" fill="#455a64"/>
              </g>
              <g id="Grupo_54656" data-name="Grupo 54656" transform="translate(31.545 25.877)">
                <rect id="Rectángulo_29409" data-name="Rectángulo 29409" width="1.443" height="1.443" transform="matrix(0.969, -0.246, 0.246, 0.969, 0, 0.355)" fill="#455a64"/>
              </g>
              <g id="Grupo_54657" data-name="Grupo 54657" transform="translate(2.318 23.114)">
                <rect id="Rectángulo_29410" data-name="Rectángulo 29410" width="1.443" height="1.443" transform="matrix(0.969, -0.246, 0.246, 0.969, 0, 0.355)" fill="#455a64"/>
              </g>
              <g id="Grupo_54658" data-name="Grupo 54658" transform="translate(56.351 9.389)">
                <rect id="Rectángulo_29411" data-name="Rectángulo 29411" width="1.443" height="1.443" transform="translate(0 0.355) rotate(-14.25)" fill="#455a64"/>
              </g>
              <g id="Grupo_54659" data-name="Grupo 54659" transform="translate(0 13.988)">
                <rect id="Rectángulo_29412" data-name="Rectángulo 29412" width="1.443" height="1.443" transform="translate(0 0.355) rotate(-14.253)" fill="#455a64"/>
              </g>
              <g id="Grupo_54662" data-name="Grupo 54662" transform="translate(4.587 15.749)">
                <g id="Grupo_54661" data-name="Grupo 54661">
                  <path id="Trazado_117024" data-name="Trazado 117024" d="M268.38,254.939c.01.039-12.079,3.142-27,6.932s-27.025,6.831-27.036,6.793,12.076-3.141,27-6.932S268.37,254.9,268.38,254.939Z" transform="translate(-214.347 -254.938)" fill="#263238"/>
                </g>
              </g>
            </g>
            <g id="Grupo_54665" data-name="Grupo 54665" transform="translate(130.604 14.405)">
              <g id="Grupo_54664" data-name="Grupo 54664">
                <path id="Trazado_117025" data-name="Trazado 117025" d="M422.933,245.928a5.181,5.181,0,0,0,1.083-.845,5.461,5.461,0,0,0,1.336-3.616,6.183,6.183,0,0,0-.541-2.762,5.935,5.935,0,0,0-2.2-2.487,8.491,8.491,0,0,0-7.9-.4c-2.869,1.145-5.433,3.422-8.256,5.7a24.584,24.584,0,0,1-4.73,3.1,14.579,14.579,0,0,1-5.847,1.32,15.441,15.441,0,0,1-11.53-5.04,13.811,13.811,0,0,1-3.228-5.981,9.273,9.273,0,0,1,.792-6.9,7.7,7.7,0,0,1,2.455-2.585,5.737,5.737,0,0,1,3.384-.976,4.993,4.993,0,0,1,3.157,1.443,6.881,6.881,0,0,1,1.671,2.979,8.549,8.549,0,0,1-.694,6.475,9.038,9.038,0,0,1-4.891,3.909,12.042,12.042,0,0,1-5.973.452,19.521,19.521,0,0,1-5.344-1.854c-3.267-1.645-6-3.672-8.664-5.22a22.3,22.3,0,0,0-7.655-3.077,11.634,11.634,0,0,0-6.144.617,9.063,9.063,0,0,0-3.265,2.177l-.4.444-.263.343c-.142.185-.223.274-.223.274s.06-.1.192-.3l.251-.356.391-.459a8.936,8.936,0,0,1,3.265-2.258,11.711,11.711,0,0,1,6.228-.686,22.375,22.375,0,0,1,7.752,3.056c2.686,1.542,5.428,3.557,8.669,5.173a19.27,19.27,0,0,0,5.265,1.809,11.742,11.742,0,0,0,5.81-.454,8.706,8.706,0,0,0,4.7-3.768,8.216,8.216,0,0,0,.653-6.206,6.534,6.534,0,0,0-1.584-2.825,4.64,4.64,0,0,0-2.926-1.338,5.379,5.379,0,0,0-3.17.921,7.331,7.331,0,0,0-2.34,2.465,8.924,8.924,0,0,0-.754,6.632,13.47,13.47,0,0,0,3.143,5.829A15.118,15.118,0,0,0,395.87,245.6a14.266,14.266,0,0,0,5.717-1.275,24.366,24.366,0,0,0,4.679-3.045c2.819-2.255,5.416-4.547,8.346-5.7a8.7,8.7,0,0,1,8.105.47,6.1,6.1,0,0,1,2.249,2.584,6.3,6.3,0,0,1,.525,2.837,5.477,5.477,0,0,1-1.424,3.661,2.629,2.629,0,0,1-.454.4,1.738,1.738,0,0,1-.365.239C423.042,245.881,422.933,245.928,422.933,245.928Z" transform="translate(-349.056 -224.446)" fill="#263238"/>
              </g>
            </g>
            <g id="Grupo_54669" data-name="Grupo 54669" transform="translate(116.431 48.077)" opacity="0.3">
              <g id="Grupo_54668" data-name="Grupo 54668">
                <path id="Trazado_117027" data-name="Trazado 117027" d="M331.929,274.113a1.962,1.962,0,0,0-2.042-.789l.034-.016c-.031.008-.059.023-.09.033a1.7,1.7,0,0,0-.647.31l.187-.087a1.853,1.853,0,1,0,2.558.55Z" transform="translate(-328.502 -273.279)"/>
              </g>
            </g>
            <g id="Grupo_54673" data-name="Grupo 54673" transform="translate(59.267 76.848)" opacity="0.3">
              <g id="Grupo_54672" data-name="Grupo 54672">
                <path id="Trazado_117029" data-name="Trazado 117029" d="M260.408,315.277c-4.085-.866-8.338.445-12.061,2.336-.929.472-1.84.982-2.748,1.495l21.106.022A10.532,10.532,0,0,0,260.408,315.277Z" transform="translate(-245.598 -315.005)"/>
              </g>
            </g>
          </g>
          <g id="Grupo_54678" data-name="Grupo 54678" transform="translate(40.604 104.038)">
            <g id="Grupo_54675" data-name="Grupo 54675">
              <path id="Trazado_117030" data-name="Trazado 117030" d="M210.989,365.089c1.9-3.4,6.268-4.6,10.16-4.462s7.73,1.254,11.621,1.072c8.892-.416,16.6-7.51,25.5-7.254,5.343.153,10.559,2.988,15.812,2,1.269-.239,2.772-.636,3.7.258a2.347,2.347,0,0,1,.081,2.924,6.317,6.317,0,0,1-2.51,1.895c-13.581,6.86-29.3,7.53-44.4,9.426-3.863.485-7.793,1.058-11.628.383s-7.641-2.848-9.184-6.423" transform="translate(-210.142 -354.438)" fill="#b9dbcf"/>
            </g>
          </g>
          <g id="Grupo_54733" data-name="Grupo 54733" transform="translate(0 37.545)">
            <g id="Grupo_54684" data-name="Grupo 54684" transform="translate(98.143)">
              <g id="Grupo_54679" data-name="Grupo 54679" transform="translate(3.287)">
                <path id="Trazado_117032" data-name="Trazado 117032" d="M345.788,313.037l-24.622-43.423-2.007-3.881a5.84,5.84,0,0,0-4.707-3.137l-3.975-.329s.293-4.606-1.858-4.241c-1.386.234-6.4,4.543-5.426,5.81s3.822-2,3.822-2l1.085,8.056s-7.551-4.394-8.768-4.137a1.137,1.137,0,0,0-.305,2.166,21.253,21.253,0,0,1,8.669,9.3l-.021.012,17.442,38.95-5.962,4.762,7.078,18.513,14.915-10.206A11.566,11.566,0,0,0,345.788,313.037Z" transform="translate(-298.356 -258.005)" fill="#ffbe9d"/>
              </g>
              <g id="Grupo_54683" data-name="Grupo 54683" transform="translate(0 3.338)">
                <g id="Grupo_54680" data-name="Grupo 54680" transform="translate(0 0)">
                  <rect id="Rectángulo_29413" data-name="Rectángulo 29413" width="0.811" height="0.144" transform="matrix(0.887, 0.462, -0.462, 0.887, 0.067, 0)" fill="#263238"/>
                </g>
                <g id="Grupo_54681" data-name="Grupo 54681" transform="translate(0.488 0.239)">
                  <path id="Trazado_117033" data-name="Trazado 117033" d="M294.515,263.192l3.095.086,17.61,9.689a1.327,1.327,0,0,1,.533,1.785h0a1.328,1.328,0,0,1-1.8.549l-17.48-9.34-2.124-2.416A.212.212,0,0,1,294.515,263.192Z" transform="translate(-294.297 -263.192)" fill="#263238"/>
                </g>
                <g id="Grupo_54682" data-name="Grupo 54682" transform="translate(17.689 8.655)">
                  <path id="Trazado_117034" data-name="Trazado 117034" d="M321.2,275.784l-1.249,2.4-.714-.372L320.5,275.4Z" transform="translate(-319.242 -275.397)" fill="#455a64"/>
                </g>
              </g>
            </g>
            <g id="Grupo_54685" data-name="Grupo 54685" transform="translate(0 6.878)">
              <path id="Trazado_117035" data-name="Trazado 117035" d="M198.276,274.367c-1.237-.125-5.907,4.038-5.907,4.038l-2.309-8.323s3.095.279,3.926-1.086-7.561-1.234-7.754-.309a12.161,12.161,0,0,0,.485,3.436l-3.18.613a6.245,6.245,0,0,0-5.02,5.407L178,282.586l.089.037-24.6,41.1a15.692,15.692,0,0,0,3.179,19.911l24.647,17.509,9.2-20.049-18.219-11.969,20.87-40.268s4.7-11.785,5.656-12.369A1.132,1.132,0,0,0,198.276,274.367Z" transform="translate(-151.255 -267.981)" fill="#ffbe9d"/>
            </g>
            <g id="Grupo_54686" data-name="Grupo 54686" transform="translate(20.571 59.686)">
              <path id="Trazado_117036" data-name="Trazado 117036" d="M293.582,367.463l-.29-2.862a12.489,12.489,0,0,0-4.738-8.586h0a12.49,12.49,0,0,1-4.794-10.262l.04-1.187-12.6,7.739a27.03,27.03,0,0,0-3.751,3.054l-.028-.061s-26.918.443-65.965,6.151l-14.8-5.353,1.276,1a11.469,11.469,0,0,1-3.371,10.285h0a12.49,12.49,0,0,0-3.468,9.172l.121,2.875s8.83,5.76,15.262,7.923c.079.027.159.046.238.07a76.835,76.835,0,0,0,34.321,6.555c24.043-.981,43.8-13.781,46.4-15.529C283.528,375.3,293.582,367.463,293.582,367.463Z" transform="translate(-181.088 -344.566)" fill="#d5f2e8"/>
            </g>
            <g id="Grupo_54701" data-name="Grupo 54701" transform="translate(36.256 68.614)">
              <g id="Grupo_54688" data-name="Grupo 54688" transform="translate(0 7.955)">
                <g id="Grupo_54687" data-name="Grupo 54687">
                  <path id="Trazado_117037" data-name="Trazado 117037" d="M208.522,369.052a1.205,1.205,0,0,1,.264.206c.167.141.4.363.7.653a18.954,18.954,0,0,1,2.255,2.7,16.381,16.381,0,0,1,2.244,4.717,14.931,14.931,0,0,1,.531,6.369,11.377,11.377,0,0,1-.969,3.192,20.167,20.167,0,0,1-1.589,2.658,13.891,13.891,0,0,1-3.679,3.706,11.981,11.981,0,0,1-3.186,1.5,9.221,9.221,0,0,1-.925.243,1.184,1.184,0,0,1-.33.052c-.009-.035.437-.143,1.211-.427a13.023,13.023,0,0,0,3.087-1.578,14.045,14.045,0,0,0,3.55-3.685,20.564,20.564,0,0,0,1.542-2.62,11.167,11.167,0,0,0,.932-3.1,14.887,14.887,0,0,0-.494-6.224,16.722,16.722,0,0,0-2.137-4.667,22.1,22.1,0,0,0-2.145-2.746A12.053,12.053,0,0,1,208.522,369.052Z" transform="translate(-203.837 -369.051)" fill="#263238"/>
                </g>
              </g>
              <g id="Grupo_54690" data-name="Grupo 54690" transform="translate(0.019 23.434)" opacity="0.2">
                <g id="Grupo_54689" data-name="Grupo 54689">
                  <path id="Trazado_117038" data-name="Trazado 117038" d="M277.223,397.283c1.947-1.393.98-4.223-1.185-5.245s-4.719-.4-6.995.339c-7.347,2.4-14.287,5.919-21.624,8.347s-15.358,3.732-22.773,1.556c-5.164-1.516-8.64-4.909-13.986-4.3-2.431.277-3.2,3.37-6.8,4.119a78.861,78.861,0,0,0,16.167,5.078,75.038,75.038,0,0,0,20.172,1.261,89.879,89.879,0,0,0,20.385-4.094A101.859,101.859,0,0,0,277.223,397.283Z" transform="translate(-203.865 -391.5)"/>
                </g>
              </g>
              <g id="Grupo_54691" data-name="Grupo 54691" transform="translate(4.58 7.592)" opacity="0.2">
                <path id="Trazado_117039" data-name="Trazado 117039" d="M216.41,379.012s.638-6.535-3.3-10.488l-2.631.394S213.94,371.411,216.41,379.012Z" transform="translate(-210.479 -368.524)"/>
              </g>
              <g id="Grupo_54694" data-name="Grupo 54694" transform="translate(19.818)">
                <g id="Grupo_54692" data-name="Grupo 54692" transform="translate(3.196)">
                  <path id="Trazado_117040" data-name="Trazado 117040" d="M237.222,358.238c-.136.358,1.333,15.467,1.333,15.467s7.661,10.693,19.708.283l1.454-16.475Z" transform="translate(-237.213 -357.514)" fill="#ffbe9d"/>
                </g>
                <g id="Grupo_54693" data-name="Grupo 54693" transform="translate(0 5.553)" opacity="0.2">
                  <path id="Trazado_117041" data-name="Trazado 117041" d="M237.116,376.206s-3.551-5.9-4.538-10.282l2.92-.356.714.819Z" transform="translate(-232.578 -365.567)"/>
                </g>
              </g>
              <g id="Grupo_54696" data-name="Grupo 54696" transform="translate(68.145 1.925)">
                <g id="Grupo_54695" data-name="Grupo 54695">
                  <path id="Trazado_117042" data-name="Trazado 117042" d="M322.159,378.849a1.367,1.367,0,0,1-.293.207c-.2.125-.5.3-.889.513a14.05,14.05,0,0,1-3.53,1.361,9,9,0,0,1-2.623.212,12.4,12.4,0,0,1-2.953-.622,13.116,13.116,0,0,1-5.667-3.854,12.551,12.551,0,0,1-1.927-3.019A21.512,21.512,0,0,1,303.2,370.5a14.317,14.317,0,0,1-.419-5.592,8.455,8.455,0,0,1,1.327-3.536,5.7,5.7,0,0,1,.634-.812c.158-.174.244-.262.254-.254a1.412,1.412,0,0,1-.2.3,7.54,7.54,0,0,0-.572.841,8.758,8.758,0,0,0-1.194,3.5,14.461,14.461,0,0,0,.489,5.473A21.816,21.816,0,0,0,304.6,373.5a12.393,12.393,0,0,0,1.878,2.929c3.147,3.667,7.881,4.987,10.918,4.25a15.3,15.3,0,0,0,3.519-1.238C321.713,379.06,322.145,378.824,322.159,378.849Z" transform="translate(-302.665 -360.305)" fill="#263238"/>
                </g>
              </g>
              <g id="Grupo_54698" data-name="Grupo 54698" transform="translate(9.627 16.653)">
                <g id="Grupo_54697" data-name="Grupo 54697">
                  <path id="Trazado_117043" data-name="Trazado 117043" d="M278.647,381.666a.585.585,0,0,1-.136.09l-.414.233-1.611.867c-.7.376-1.558.833-2.587,1.3s-2.172,1.059-3.5,1.576c-1.312.545-2.746,1.153-4.33,1.691-1.563.6-3.274,1.112-5.071,1.662a92.323,92.323,0,0,1-11.948,2.582,95.65,95.65,0,0,1-12.2.878l-2.747-.025c-.89,0-1.753-.077-2.588-.109-1.671-.06-3.221-.219-4.636-.351-1.417-.108-2.686-.323-3.806-.461s-2.078-.308-2.859-.452l-1.8-.332-.466-.094a.53.53,0,0,1-.157-.045.574.574,0,0,1,.163.008l.472.06,1.808.265c.784.122,1.742.273,2.863.39s2.389.317,3.8.407c1.413.117,2.959.26,4.626.306.832.026,1.693.1,2.58.091l2.738.01a99.024,99.024,0,0,0,12.147-.9,95.489,95.489,0,0,0,11.907-2.545c1.793-.54,3.5-1.043,5.064-1.625,1.582-.525,3.017-1.117,4.332-1.645,1.327-.5,2.475-1.075,3.508-1.523s1.9-.883,2.61-1.24l1.64-.805.431-.2A.536.536,0,0,1,278.647,381.666Z" transform="translate(-217.799 -381.665)" fill="#263238"/>
                </g>
              </g>
              <g id="Grupo_54700" data-name="Grupo 54700" transform="translate(30.818 1.036)" opacity="0.2">
                <g id="Grupo_54699" data-name="Grupo 54699">
                  <path id="Trazado_117044" data-name="Trazado 117044" d="M248.847,378.4a4.816,4.816,0,0,0,4.581,6.555,5.558,5.558,0,0,1,2.129.078c.807.314,1.254,1.152,1.787,1.836a6.375,6.375,0,0,0,11.4-3.635,2.241,2.241,0,0,1,.325-1.41c.692-.8,1.933-.023,2.87.465,2.38,1.24,5.578,0,6.89-2.338a7.427,7.427,0,0,0-.61-7.618,12.008,12.008,0,0,0-6.522-4.452c-1.647-.5-3.446-.8-4.734-1.947-1.858-1.647-2.027-4.439-2.063-6.921" transform="translate(-248.532 -359.016)"/>
                </g>
              </g>
            </g>
            <g id="Grupo_54732" data-name="Grupo 54732" transform="translate(53.149 32.01)">
              <g id="Grupo_54702" data-name="Grupo 54702">
                <path id="Trazado_117045" data-name="Trazado 117045" d="M262.183,314.56c1.686,3.693,2.563,5.827,2.821,9.767a29.487,29.487,0,0,1-5.07,19.094h0c-2.871,4.372-11.459,9.823-14,10.557s-12.662-5.563-14.708-12.648-4.672-11.385-1.19-23.763c3.568-12.687,20.661-13.14,20.661-13.14s11.479.008,13.58,6.659S262.183,314.56,262.183,314.56Z" transform="translate(-228.335 -304.428)" fill="#263238"/>
              </g>
              <g id="Grupo_54703" data-name="Grupo 54703" transform="translate(8.4 21.047)">
                <path id="Trazado_117046" data-name="Trazado 117046" d="M247.885,338.247a8.2,8.2,0,0,0-5.953,12.792c1.417,2.065,3.752,3.448,4.85,5.7,1.007,2.063.8,4.5.315,6.75a30.6,30.6,0,0,0-1.18,6.766c.033,2.3,1.036,4.764,3.113,5.742s5.113-.4,5.12-2.691c-.7,3.635,3.5,7.2,6.973,5.933s4.385-6.7,1.511-9.03c2.542.6,5.391.6,7.569-.845s3.282-4.649,1.8-6.8c-1.756-2.544-5.76-2.313-7.976-4.468-1.831-1.78-1.933-4.627-2.067-7.178-.194-3.669-.742-7.434-2.615-10.6s-5.331-5.6-9-5.352" transform="translate(-240.517 -334.952)" fill="#263238"/>
              </g>
              <g id="Grupo_54705" data-name="Grupo 54705" transform="translate(17.859 23.558)">
                <g id="Grupo_54704" data-name="Grupo 54704">
                  <path id="Trazado_117047" data-name="Trazado 117047" d="M258.741,374.281a1.735,1.735,0,0,1-.366-.17,3.034,3.034,0,0,1-.42-.252,4.469,4.469,0,0,1-.54-.4,8.3,8.3,0,0,1-2.431-3.473,11.07,11.07,0,0,1-.69-2.871,13.763,13.763,0,0,1,.106-3.386,34.937,34.937,0,0,1,2.223-7.388,34.631,34.631,0,0,0,2.2-7.316,13.515,13.515,0,0,0,.106-3.308,10.956,10.956,0,0,0-.667-2.8,8.4,8.4,0,0,0-2.337-3.419c-.758-.64-1.274-.865-1.253-.9a1.713,1.713,0,0,1,.37.163,2.973,2.973,0,0,1,.425.244,4.5,4.5,0,0,1,.547.387,8.223,8.223,0,0,1,2.485,3.434,10.952,10.952,0,0,1,.727,2.862,13.546,13.546,0,0,1-.074,3.388,33.775,33.775,0,0,1-2.2,7.4,35.889,35.889,0,0,0-2.231,7.308,13.685,13.685,0,0,0-.137,3.308,11.024,11.024,0,0,0,.631,2.811,8.465,8.465,0,0,0,2.283,3.457C258.252,374.009,258.763,374.244,258.741,374.281Z" transform="translate(-254.236 -338.593)" fill="#fafafa"/>
                </g>
              </g>
              <g id="Grupo_54707" data-name="Grupo 54707" transform="translate(19.08 22.851)">
                <g id="Grupo_54706" data-name="Grupo 54706">
                  <path id="Trazado_117048" data-name="Trazado 117048" d="M269.657,371.206a1.773,1.773,0,0,1-.428.1,6.77,6.77,0,0,1-1.256.058,7.376,7.376,0,0,1-6.98-7.77,13.386,13.386,0,0,1,.964-3.944,42.361,42.361,0,0,0,1.437-4.054,17.761,17.761,0,0,0,.33-8.185,14.092,14.092,0,0,0-2.826-6.053,12.87,12.87,0,0,0-3.411-2.989c-.929-.55-1.5-.759-1.48-.794a1.931,1.931,0,0,1,.414.139,8.763,8.763,0,0,1,1.136.534,12.314,12.314,0,0,1,3.537,2.948,14.113,14.113,0,0,1,2.955,6.146,17.854,17.854,0,0,1-.308,8.347,41.121,41.121,0,0,1-1.455,4.085,13.24,13.24,0,0,0-.963,3.839,7.265,7.265,0,0,0,2.529,5.927,7.439,7.439,0,0,0,4.131,1.685A13.3,13.3,0,0,0,269.657,371.206Z" transform="translate(-256.007 -337.568)" fill="#455a64"/>
                </g>
              </g>
              <g id="Grupo_54709" data-name="Grupo 54709" transform="translate(14.791 19.961)">
                <g id="Grupo_54708" data-name="Grupo 54708">
                  <path id="Trazado_117049" data-name="Trazado 117049" d="M257.3,335.238a9.509,9.509,0,0,0-1.212-.94,4.007,4.007,0,0,0-5.918,2.207,9.591,9.591,0,0,0-.3,1.5c-.021,0-.063-.145-.081-.421a3.561,3.561,0,0,1,.139-1.161,4.106,4.106,0,0,1,6.293-2.347,3.534,3.534,0,0,1,.865.786C257.255,335.087,257.32,335.226,257.3,335.238Z" transform="translate(-249.786 -333.377)" fill="#e8505b"/>
                </g>
              </g>
              <g id="Grupo_54711" data-name="Grupo 54711" transform="translate(11.748 22.465)">
                <g id="Grupo_54710" data-name="Grupo 54710">
                  <path id="Trazado_117050" data-name="Trazado 117050" d="M249.368,364.5c-.008.009-.094-.057-.25-.19a8.552,8.552,0,0,1-.641-.628,11.742,11.742,0,0,1-1.879-2.717,11.1,11.1,0,0,1-1.225-4.745,6.4,6.4,0,0,1,.6-2.867,11.616,11.616,0,0,1,1.876-2.5,7,7,0,0,0,1.621-2.511,4.74,4.74,0,0,0-.092-2.735c-.513-1.725-1.423-3.182-1.59-4.612a4.386,4.386,0,0,1,.565-3.229,2.341,2.341,0,0,1,.66-.622,1.018,1.018,0,0,1,.285-.134,3.614,3.614,0,0,0-.831.836,4.363,4.363,0,0,0-.429,3.109c.185,1.363,1.1,2.775,1.656,4.558a5.038,5.038,0,0,1,.112,2.931,7.266,7.266,0,0,1-1.688,2.648,11.516,11.516,0,0,0-1.829,2.418,6.135,6.135,0,0,0-.587,2.713,11.142,11.142,0,0,0,1.123,4.633,12.918,12.918,0,0,0,1.756,2.736C249.078,364.183,249.389,364.48,249.368,364.5Z" transform="translate(-245.372 -337.009)" fill="#455a64"/>
                </g>
              </g>
              <g id="Grupo_54713" data-name="Grupo 54713" transform="translate(20.815 22.103)">
                <g id="Grupo_54712" data-name="Grupo 54712">
                  <path id="Trazado_117051" data-name="Trazado 117051" d="M268.049,357.277a5.493,5.493,0,0,1,.044-.985c.047-.632.111-1.546.139-2.675a23.7,23.7,0,0,0-1.237-8.658,14.4,14.4,0,0,0-5.207-6.877,15.078,15.078,0,0,0-3.265-1.595.71.71,0,0,1,.254.036,6.082,6.082,0,0,1,.71.186,10.025,10.025,0,0,1,2.441,1.162,14.106,14.106,0,0,1,5.4,6.964,22.4,22.4,0,0,1,1.154,8.791c-.061,1.137-.163,2.052-.254,2.681A4.877,4.877,0,0,1,268.049,357.277Z" transform="translate(-258.522 -336.483)" fill="#455a64"/>
                </g>
              </g>
              <g id="Grupo_54715" data-name="Grupo 54715" transform="translate(19.201 15.357)">
                <g id="Grupo_54714" data-name="Grupo 54714">
                  <path id="Trazado_117052" data-name="Trazado 117052" d="M261.058,334.794a9.089,9.089,0,0,1,.024-1.62,8.449,8.449,0,0,0-.569-3.752,4.266,4.266,0,0,0-2.754-2.384,9.951,9.951,0,0,0-1.577-.212,2.743,2.743,0,0,1,1.638-.035,4.292,4.292,0,0,1,3.019,2.483,7.745,7.745,0,0,1,.5,3.916A6.122,6.122,0,0,1,261.058,334.794Z" transform="translate(-256.182 -326.7)" fill="#455a64"/>
                </g>
              </g>
              <g id="Grupo_54717" data-name="Grupo 54717" transform="translate(18.759 9.593)">
                <g id="Grupo_54716" data-name="Grupo 54716">
                  <path id="Trazado_117053" data-name="Trazado 117053" d="M261.973,319.384a6.728,6.728,0,0,1-.949-.358,5.468,5.468,0,0,0-4.608.4,6.681,6.681,0,0,1-.872.517c-.031-.029.208-.357.737-.732a4.887,4.887,0,0,1,4.84-.422C261.707,319.069,262,319.35,261.973,319.384Z" transform="translate(-255.541 -318.34)" fill="#f5f5f5"/>
                </g>
              </g>
              <g id="Grupo_54719" data-name="Grupo 54719" transform="translate(19.05 6.572)">
                <g id="Grupo_54718" data-name="Grupo 54718">
                  <path id="Trazado_117054" data-name="Trazado 117054" d="M270.419,318a16.446,16.446,0,0,0-1.762-1.756,8.553,8.553,0,0,0-10.975.14,16.554,16.554,0,0,0-1.717,1.8,2.112,2.112,0,0,1,.327-.6,7.543,7.543,0,0,1,1.224-1.4,8.48,8.48,0,0,1,11.3-.144,7.564,7.564,0,0,1,1.26,1.363A2.13,2.13,0,0,1,270.419,318Z" transform="translate(-255.963 -313.959)" fill="#455a64"/>
                </g>
              </g>
              <g id="Grupo_54721" data-name="Grupo 54721" transform="translate(18.841 0.898)">
                <g id="Grupo_54720" data-name="Grupo 54720">
                  <path id="Trazado_117055" data-name="Trazado 117055" d="M266.437,305.753c.007.064-.888.114-2.251.523a11.982,11.982,0,0,0-7.825,7.268c-.509,1.329-.625,2.217-.689,2.205a1.932,1.932,0,0,1,.041-.627,9.761,9.761,0,0,1,.409-1.664,11.407,11.407,0,0,1,8-7.426,9.644,9.644,0,0,1,1.69-.285A1.908,1.908,0,0,1,266.437,305.753Z" transform="translate(-255.66 -305.731)" fill="#f5f5f5"/>
                </g>
              </g>
              <g id="Grupo_54723" data-name="Grupo 54723" transform="translate(16.686 0.844)">
                <g id="Grupo_54722" data-name="Grupo 54722">
                  <path id="Trazado_117056" data-name="Trazado 117056" d="M254.663,305.653c.046.041-.379.492-.846,1.352a7.362,7.362,0,0,0,.069,7.259c.483.85.916,1.294.872,1.336a3.656,3.656,0,0,1-1.089-1.2,6.984,6.984,0,0,1-.071-7.519A3.648,3.648,0,0,1,254.663,305.653Z" transform="translate(-252.535 -305.652)" fill="#455a64"/>
                </g>
              </g>
              <g id="Grupo_54725" data-name="Grupo 54725" transform="translate(9.271 3.412)">
                <g id="Grupo_54724" data-name="Grupo 54724">
                  <path id="Trazado_117057" data-name="Trazado 117057" d="M241.81,309.377a11.547,11.547,0,0,0,.53,1.776,7.673,7.673,0,0,0,2.932,3.252,16.1,16.1,0,0,0,4.135,1.705,12.106,12.106,0,0,1,1.8.548,8.226,8.226,0,0,1-1.862-.3,13.834,13.834,0,0,1-4.264-1.647,7.35,7.35,0,0,1-2.975-3.458,4.743,4.743,0,0,1-.317-1.362A1.224,1.224,0,0,1,241.81,309.377Z" transform="translate(-241.78 -309.377)" fill="#455a64"/>
                </g>
              </g>
              <g id="Grupo_54727" data-name="Grupo 54727" transform="translate(5.811 12.337)">
                <g id="Grupo_54726" data-name="Grupo 54726">
                  <path id="Trazado_117058" data-name="Trazado 117058" d="M245.5,343.541a1.267,1.267,0,0,1-.338-.08,9.039,9.039,0,0,1-.939-.331,12.632,12.632,0,0,1-3.143-1.881,12.187,12.187,0,0,1-3.337-4.281,10.973,10.973,0,0,1-.8-6.574,10.012,10.012,0,0,1,3.223-5.774,9.738,9.738,0,0,1,4.945-2.216,8.831,8.831,0,0,1,3.653.246,6.421,6.421,0,0,1,.934.352,1.266,1.266,0,0,1,.307.163c-.017.039-.447-.174-1.277-.379a9.213,9.213,0,0,0-3.579-.13,9.643,9.643,0,0,0-4.765,2.215,9.79,9.79,0,0,0-3.087,5.59,10.781,10.781,0,0,0,.747,6.372,12.223,12.223,0,0,0,3.2,4.223A13.7,13.7,0,0,0,244.281,343C245.058,343.364,245.514,343.506,245.5,343.541Z" transform="translate(-236.763 -322.32)" fill="#455a64"/>
                </g>
              </g>
              <g id="Grupo_54729" data-name="Grupo 54729" transform="translate(1.221 11.074)">
                <g id="Grupo_54728" data-name="Grupo 54728">
                  <path id="Trazado_117059" data-name="Trazado 117059" d="M242.52,350.253a2.3,2.3,0,0,1-.43-.2c-.279-.138-.685-.349-1.187-.66a23,23,0,0,1-3.957-3.051,23.524,23.524,0,0,1-6.129-9.981,15.129,15.129,0,0,1-.707-4.67,10.014,10.014,0,0,1,1.2-4.57,11.862,11.862,0,0,1,2.775-3.419,13.616,13.616,0,0,1,6.739-3.008,17.8,17.8,0,0,1,5-.06c.586.072,1.037.157,1.34.223a2.3,2.3,0,0,1,.459.12,2.329,2.329,0,0,1-.471-.048c-.306-.043-.758-.1-1.342-.156a18.931,18.931,0,0,0-4.939.172,13.533,13.533,0,0,0-6.566,3.009,10.57,10.57,0,0,0-3.833,7.748,14.925,14.925,0,0,0,.685,4.561,23.672,23.672,0,0,0,1.636,4,24.071,24.071,0,0,0,4.334,5.9,24.975,24.975,0,0,0,3.853,3.114C241.956,349.925,242.539,350.218,242.52,350.253Z" transform="translate(-230.107 -320.488)" fill="#455a64"/>
                </g>
              </g>
              <g id="Grupo_54731" data-name="Grupo 54731" transform="translate(19.063 12.18)">
                <g id="Grupo_54730" data-name="Grupo 54730">
                  <path id="Trazado_117060" data-name="Trazado 117060" d="M267.215,343.354a18.28,18.28,0,0,0,1.836-3.972,14.1,14.1,0,0,0,.563-4.682,13.136,13.136,0,0,0-1.52-5.535,13.361,13.361,0,0,0-7.837-6.6,6.847,6.847,0,0,0-3.149-.159c-.736.163-1.109.372-1.125.339-.006-.011.084-.066.263-.161a4.518,4.518,0,0,1,.83-.314,6.633,6.633,0,0,1,3.244.05,11.823,11.823,0,0,1,4.3,2.166A13.972,13.972,0,0,1,268.412,329a13.194,13.194,0,0,1,1.533,5.687,13.866,13.866,0,0,1-.651,4.772,13.2,13.2,0,0,1-1.372,2.941,7.434,7.434,0,0,1-.5.723C267.294,343.282,267.224,343.362,267.215,343.354Z" transform="translate(-255.983 -322.092)" fill="#455a64"/>
                </g>
              </g>
            </g>
          </g>
        </g>
      </g>
      <g id="Windows" transform="translate(17.885 124.356)">
        <g id="Grupo_54795" data-name="Grupo 54795" transform="translate(244.464 76.647)">
          <g id="Grupo_54766" data-name="Grupo 54766">
            <rect id="Rectángulo_29427" data-name="Rectángulo 29427" width="62.044" height="24.12" transform="translate(0.086 0.086)" fill="#fafafa"/>
            <path id="Trazado_117066" data-name="Trazado 117066" d="M430.9,285.3H368.679V261.007H430.9Zm-62.045-.172h61.872V261.179H368.851Z" transform="translate(-368.679 -261.007)" fill="#222221"/>
          </g>
          <g id="Grupo_54767" data-name="Grupo 54767" transform="translate(0.086 0.086)">
            <rect id="Rectángulo_29428" data-name="Rectángulo 29428" width="62.044" height="5.169" fill="#263238"/>
          </g>
          <g id="Grupo_54776" data-name="Grupo 54776" transform="translate(3.364 11.524)">
            <g id="Grupo_54771" data-name="Grupo 54771">
              <g id="Grupo_54768" data-name="Grupo 54768" transform="translate(0.219 0.182)">
                <rect id="Rectángulo_29429" data-name="Rectángulo 29429" width="6.13" height="6.13" fill="#f5f5f5"/>
              </g>
              <g id="Grupo_54770" data-name="Grupo 54770">
                <g id="Grupo_54769" data-name="Grupo 54769">
                  <path id="Trazado_117067" data-name="Trazado 117067" d="M379.906,284.032a2.929,2.929,0,0,1-.035-.472c-.011-.348-.025-.766-.041-1.263-.029-1.078-.064-2.59-.079-4.394l.155.155-6.129.025c-.04.039.339-.34.179-.179h0v.832c0,.276,0,.549,0,.82q0,.81,0,1.585c-.006,1.025-.012,1.994-.018,2.891l-.155-.155c1.8.015,3.317.05,4.394.079l1.263.041a2.922,2.922,0,0,1,.472.035,14.988,14.988,0,0,1-1.636.077c-1.067.029-2.62.063-4.494.079h-.154v-.157c-.005-.9-.012-1.867-.018-2.891q0-.774,0-1.585V277.9h0c-.161.16.219-.22.18-.181l6.129.024h.157v.154c-.016,1.873-.05,3.426-.079,4.494A14.955,14.955,0,0,1,379.906,284.032Z" transform="translate(-373.557 -277.72)" fill="#263238"/>
                </g>
              </g>
            </g>
            <g id="Grupo_54775" data-name="Grupo 54775" transform="translate(0.216 0.179)">
              <g id="Grupo_54772" data-name="Grupo 54772" transform="translate(0.003 0.003)">
                <line id="Línea_1592" data-name="Línea 1592" x1="6.13" y2="6.13" fill="#fafafa"/>
              </g>
              <g id="Grupo_54774" data-name="Grupo 54774">
                <g id="Grupo_54773" data-name="Grupo 54773">
                  <path id="Trazado_117068" data-name="Trazado 117068" d="M373.874,284.113a52.448,52.448,0,0,1,6.13-6.13,52.3,52.3,0,0,1-6.13,6.13Z" transform="translate(-373.871 -277.98)" fill="#e8505b"/>
                </g>
              </g>
            </g>
          </g>
          <g id="Grupo_54778" data-name="Grupo 54778" transform="translate(11.559 11.706)">
            <g id="Grupo_54777" data-name="Grupo 54777">
              <rect id="Rectángulo_29430" data-name="Rectángulo 29430" width="6.13" height="6.13" fill="#263238"/>
            </g>
          </g>
          <g id="Grupo_54780" data-name="Grupo 54780" transform="translate(19.536 11.706)">
            <g id="Grupo_54779" data-name="Grupo 54779">
              <rect id="Rectángulo_29431" data-name="Rectángulo 29431" width="6.13" height="6.13" fill="#455a64"/>
            </g>
          </g>
          <g id="Grupo_54782" data-name="Grupo 54782" transform="translate(27.512 11.706)">
            <g id="Grupo_54781" data-name="Grupo 54781">
              <rect id="Rectángulo_29432" data-name="Rectángulo 29432" width="6.13" height="6.13" fill="#26aab7"/>
            </g>
          </g>
          <g id="Grupo_54784" data-name="Grupo 54784" transform="translate(35.489 11.706)">
            <g id="Grupo_54783" data-name="Grupo 54783">
              <rect id="Rectángulo_29433" data-name="Rectángulo 29433" width="6.13" height="6.13" fill="#e8505b"/>
            </g>
          </g>
          <g id="Grupo_54786" data-name="Grupo 54786" transform="translate(35.489 11.706)" opacity="0.5">
            <g id="Grupo_54785" data-name="Grupo 54785">
              <rect id="Rectángulo_29434" data-name="Rectángulo 29434" width="6.13" height="6.13" fill="#ffd947"/>
            </g>
          </g>
          <g id="Grupo_54788" data-name="Grupo 54788" transform="translate(43.465 11.706)">
            <g id="Grupo_54787" data-name="Grupo 54787">
              <rect id="Rectángulo_29435" data-name="Rectángulo 29435" width="6.13" height="6.13" fill="#1565c0"/>
            </g>
          </g>
          <g id="Grupo_54792" data-name="Grupo 54792" transform="translate(51.442 11.706)">
            <g id="Grupo_54791" data-name="Grupo 54791">
              <rect id="Rectángulo_29437" data-name="Rectángulo 29437" width="6.13" height="6.13" fill="#167377"/>
            </g>
          </g>
        </g>
        <g id="Grupo_54816" data-name="Grupo 54816" transform="translate(0 2.428)">
          <g id="Grupo_54809" data-name="Grupo 54809">
            <g id="Grupo_54800" data-name="Grupo 54800">
              <g id="Grupo_54799" data-name="Grupo 54799">
                <g id="Grupo_54796" data-name="Grupo 54796" transform="translate(0.18 0.18)">
                  <rect id="Rectángulo_29439" data-name="Rectángulo 29439" width="86.756" height="60.417" fill="#fff"/>
                </g>
                <g id="Grupo_54798" data-name="Grupo 54798">
                  <g id="Grupo_54797" data-name="Grupo 54797">
                    <path id="Trazado_117069" data-name="Trazado 117069" d="M190.721,142.663s-.01-.38-.016-1.1-.009-1.8-.016-3.2c-.008-2.8-.021-6.915-.037-12.172-.018-10.508-.044-25.593-.076-43.943l.145.145-86.749.034h-.007l.179-.179c-.006,21.593-.011,42.1-.016,60.417l-.163-.163,62.535.081,17.835.044,4.741.019,1.225.01c.276,0,.421.01.421.01s-.132.007-.4.01l-1.206.01-4.709.02-17.8.043-62.642.081H103.8v-.164c0-18.317-.01-38.823-.016-60.417v-.18h.187l86.749.035h.145v.145c-.032,18.388-.057,33.5-.076,44.033-.016,5.243-.028,9.342-.037,12.14-.008,1.385-.013,2.446-.017,3.17S190.721,142.663,190.721,142.663Z" transform="translate(-103.785 -82.066)" fill="#263238"/>
                  </g>
                </g>
              </g>
            </g>
            <g id="Grupo_54802" data-name="Grupo 54802" transform="translate(0.18 0.18)">
              <g id="Grupo_54801" data-name="Grupo 54801">
                <rect id="Rectángulo_29440" data-name="Rectángulo 29440" width="86.756" height="7.55" fill="#263238"/>
              </g>
            </g>
            <g id="Grupo_54804" data-name="Grupo 54804" transform="translate(3.079 3.224)">
              <g id="Grupo_54803" data-name="Grupo 54803">
                <path id="Trazado_117070" data-name="Trazado 117070" d="M110.062,87.688a.906.906,0,1,1-.905-.946A.926.926,0,0,1,110.062,87.688Z" transform="translate(-108.251 -86.742)" fill="#fff"/>
              </g>
            </g>
            <g id="Grupo_54806" data-name="Grupo 54806" transform="translate(6.751 3.224)">
              <g id="Grupo_54805" data-name="Grupo 54805">
                <path id="Trazado_117071" data-name="Trazado 117071" d="M115.386,87.688a.906.906,0,1,1-.905-.946A.926.926,0,0,1,115.386,87.688Z" transform="translate(-113.576 -86.742)" fill="#fff"/>
              </g>
            </g>
            <g id="Grupo_54808" data-name="Grupo 54808" transform="translate(10.422 3.224)">
              <g id="Grupo_54807" data-name="Grupo 54807">
                <path id="Trazado_117072" data-name="Trazado 117072" d="M120.71,87.688a.906.906,0,1,1-.905-.946A.926.926,0,0,1,120.71,87.688Z" transform="translate(-118.9 -86.742)" fill="#fff"/>
              </g>
            </g>
          </g>
          <g id="Grupo_54810" data-name="Grupo 54810" transform="translate(8.428 15.129)">
            <rect id="Rectángulo_29441" data-name="Rectángulo 29441" width="12.365" height="29.663" fill="#fb8c00"/>
          </g>
          <g id="Grupo_54811" data-name="Grupo 54811" transform="translate(27.494 15.129)">
            <rect id="Rectángulo_29442" data-name="Rectángulo 29442" width="12.365" height="29.663" fill="#ebebeb"/>
          </g>
          <g id="Grupo_54812" data-name="Grupo 54812" transform="translate(46.559 15.129)">
            <rect id="Rectángulo_29443" data-name="Rectángulo 29443" width="12.365" height="29.663" fill="#fafafa"/>
          </g>
          <g id="Grupo_54813" data-name="Grupo 54813" transform="translate(65.625 15.362)">
            <rect id="Rectángulo_29444" data-name="Rectángulo 29444" width="12.365" height="29.663" fill="#e0e0e0"/>
          </g>
          <g id="Grupo_54814" data-name="Grupo 54814" transform="translate(6.996 48.066)">
            <rect id="Rectángulo_29445" data-name="Rectángulo 29445" width="74.941" height="6.778" fill="#26aab7"/>
          </g>
          <g id="Grupo_54815" data-name="Grupo 54815" transform="translate(76.236 53.455)">
            <path id="Trazado_117073" data-name="Trazado 117073" d="M214.348,159.589l1.612,8.161,1.326-2.277,2.848,4.068,1.424-.915-2.848-4.068,2.614-.383Z" transform="translate(-214.348 -159.589)" fill="#263238"/>
          </g>
        </g>
        <g id="Grupo_54838" data-name="Grupo 54838" transform="translate(77.133 20.86)">
          <g id="Grupo_54820" data-name="Grupo 54820">
            <g id="Grupo_54817" data-name="Grupo 54817" transform="translate(0.179 0.179)">
              <rect id="Rectángulo_29446" data-name="Rectángulo 29446" width="38.187" height="65.498" fill="#fafafa"/>
            </g>
            <g id="Grupo_54819" data-name="Grupo 54819">
              <g id="Grupo_54818" data-name="Grupo 54818">
                <path id="Trazado_117074" data-name="Trazado 117074" d="M164.371,245.778s-.007-.112-.01-.323-.006-.53-.01-.935c0-.831-.012-2.042-.021-3.611-.01-3.156-.026-7.745-.045-13.533-.02-11.57-.048-27.923-.081-47.095l.167.167-38.182.012h0l.18-.179c-.016,24.985-.03,47.9-.041,65.5l-.139-.139,27.84.074,7.649.035,2,.015c.453,0,.694.014.694.014s-.221.01-.665.015l-1.978.015-7.618.035-27.925.074h-.139v-.139c-.011-17.6-.026-40.513-.041-65.5V180.1h.184l38.182.012h.167v.167c-.033,19.218-.061,35.608-.081,47.205-.019,5.772-.034,10.349-.046,13.5-.008,1.556-.015,2.755-.02,3.577,0,.4-.008.7-.01.916S164.371,245.778,164.371,245.778Z" transform="translate(-126.005 -180.101)" fill="#222221"/>
              </g>
            </g>
          </g>
          <g id="Grupo_54821" data-name="Grupo 54821" transform="translate(0.179 0.179)">
            <rect id="Rectángulo_29447" data-name="Rectángulo 29447" width="38.187" height="5.519" fill="#263238"/>
          </g>
          <g id="Grupo_54837" data-name="Grupo 54837" transform="translate(4.363 12.585)">
            <g id="Grupo_54822" data-name="Grupo 54822" transform="translate(4.993 0.001)">
              <path id="Trazado_117075" data-name="Trazado 117075" d="M139.574,198.354l.462,6.115,1.709-2.23,2.855-.119Z" transform="translate(-139.574 -198.354)" fill="#263238"/>
            </g>
            <g id="Grupo_54824" data-name="Grupo 54824" transform="translate(21.494)">
              <g id="Grupo_54823" data-name="Grupo 54823">
                <path id="Trazado_117076" data-name="Trazado 117076" d="M163.507,198.354c-.006-.01.121.078.361.25l1.044.75c.9.645,2.2,1.577,3.683,2.685l.231.172-.288.012-2.756.12-.1,0,.081-.042-1.713,2.226-.163.212-.019-.266c-.131-1.811-.217-3.368-.276-4.446-.026-.479-.049-.893-.068-1.251-.015-.287-.022-.436-.017-.426s.023.18.053.483c.035.367.075.791.123,1.283.1,1.088.25,2.589.388,4.343l-.183-.054,1.7-2.233.03-.04.05,0,.1,0,2.757-.11-.057.185c-1.435-1.082-2.651-2.034-3.535-2.724l-1.042-.813C163.65,198.473,163.513,198.364,163.507,198.354Z" transform="translate(-163.505 -198.353)" fill="#263238"/>
              </g>
            </g>
            <g id="Grupo_54826" data-name="Grupo 54826" transform="translate(3.882 17.707)">
              <g id="Grupo_54825" data-name="Grupo 54825">
                <path id="Trazado_117077" data-name="Trazado 117077" d="M137.964,232.934c-.043-.041,1.859-2.068,4.247-4.525s4.36-4.417,4.4-4.376-1.858,2.067-4.247,4.526S138.006,232.975,137.964,232.934Z" transform="translate(-137.963 -224.032)" fill="#263238"/>
              </g>
            </g>
            <g id="Grupo_54828" data-name="Grupo 54828" transform="translate(19.221 16.317)">
              <g id="Grupo_54827" data-name="Grupo 54827">
                <path id="Trazado_117078" data-name="Trazado 117078" d="M171.381,227.8a10.843,10.843,0,0,0-.21-1.362,5.7,5.7,0,0,0-1.992-3.08,5.409,5.409,0,0,0-2.312-1.06,5.335,5.335,0,0,0-2.892.257,5.4,5.4,0,0,0-2.518,1.971,5.7,5.7,0,0,0,0,6.546,5.4,5.4,0,0,0,2.518,1.971,5.328,5.328,0,0,0,2.892.257,5.389,5.389,0,0,0,2.312-1.06,5.7,5.7,0,0,0,1.993-3.08,10.9,10.9,0,0,0,.209-1.362,4.677,4.677,0,0,1-.128,1.381,5.686,5.686,0,0,1-1.979,3.18,5.516,5.516,0,0,1-7.99-1.167,5.891,5.891,0,0,1,0-6.789,5.576,5.576,0,0,1,2.62-2.036,5.456,5.456,0,0,1,5.369.869,5.688,5.688,0,0,1,1.98,3.18A4.677,4.677,0,0,1,171.381,227.8Z" transform="translate(-160.209 -222.017)" fill="#263238"/>
              </g>
            </g>
            <g id="Grupo_54830" data-name="Grupo 54830" transform="translate(18.698 36.642)">
              <g id="Grupo_54829" data-name="Grupo 54829">
                <path id="Trazado_117079" data-name="Trazado 117079" d="M166.2,251.5a.7.7,0,0,1,.137.1l.4.33,1.5,1.291.049.041-.043.05-6.413,7.371-.026.03-.039.006-.772.117-1.391.21-.151.023.03-.149c.174-.877.342-1.724.5-2.526l.006-.027.017-.02c1.738-2.045,3.255-3.788,4.355-5A11.469,11.469,0,0,1,166.2,251.5a1.22,1.22,0,0,1-.128.123c-.078.083-.2.2-.35.37-.3.327-.73.818-1.267,1.436-1.072,1.238-2.567,3-4.294,5.05l.022-.046-.492,2.528-.121-.127,1.39-.211.772-.117-.064.035,6.477-7.315.005.091-1.438-1.321-.383-.361A1.031,1.031,0,0,1,166.2,251.5Z" transform="translate(-159.45 -251.494)" fill="#263238"/>
              </g>
            </g>
            <g id="Grupo_54832" data-name="Grupo 54832" transform="translate(2.394 36.257)">
              <g id="Grupo_54831" data-name="Grupo 54831">
                <path id="Trazado_117080" data-name="Trazado 117080" d="M144.89,260.257a1.326,1.326,0,0,1-.01-.18l-.011-.5q-.009-.724-.025-1.884c-.012-1.659-.028-3.937-.048-6.647l.094.094-8.953.014c-.025.023.2-.2.107-.106V252.3q0,.623,0,1.233,0,1.22,0,2.383c0,1.544-.008,3-.011,4.341l-.092-.092,6.463.048,1.829.024.488.011a1.254,1.254,0,0,1,.174.01.79.79,0,0,1-.154.01l-.47.01-1.807.024-6.522.048h-.092v-.094c0-1.34-.007-2.8-.011-4.341q0-1.162,0-2.383,0-.61,0-1.233v-1.254c-.1.1.13-.133.108-.109l8.953.014h.094v.094c-.019,2.735-.036,5.033-.048,6.707q-.016,1.147-.025,1.862l-.011.485A.85.85,0,0,1,144.89,260.257Z" transform="translate(-135.805 -250.934)" fill="#263238"/>
              </g>
            </g>
            <g id="Grupo_54834" data-name="Grupo 54834" transform="translate(0 36.258)">
              <g id="Grupo_54833" data-name="Grupo 54833">
                <path id="Trazado_117081" data-name="Trazado 117081" d="M136.216,251.045a17.572,17.572,0,0,1-3.883,0,17.572,17.572,0,0,1,3.883,0Z" transform="translate(-132.333 -250.937)" fill="#263238"/>
              </g>
            </g>
            <g id="Grupo_54836" data-name="Grupo 54836" transform="translate(2.418 33.767)">
              <g id="Grupo_54835" data-name="Grupo 54835">
                <path id="Trazado_117082" data-name="Trazado 117082" d="M135.948,251.694a22.25,22.25,0,0,1,0-4.37,22.25,22.25,0,0,1,0,4.37Z" transform="translate(-135.84 -247.324)" fill="#263238"/>
              </g>
            </g>
          </g>
        </g>
        <g id="Grupo_54839" data-name="Grupo 54839" transform="translate(18.261 40.555)">
          <rect id="Rectángulo_29448" data-name="Rectángulo 29448" width="50.56" height="50.56" fill="#f5f5f5"/>
        </g>
        <g id="Grupo_54848" data-name="Grupo 54848" transform="translate(67.154 95.497)">
          <g id="Grupo_54840" data-name="Grupo 54840" transform="translate(0 2.11)">
            <circle id="Elipse_4023" data-name="Elipse 4023" cx="9.477" cy="9.477" r="9.477" transform="translate(0 13.403) rotate(-45)" fill="#e0e0e0"/>
          </g>
          <g id="Grupo_54847" data-name="Grupo 54847" transform="translate(2.611 0)">
            <g id="Grupo_54841" data-name="Grupo 54841" transform="translate(0)">
              <circle id="Elipse_4024" data-name="Elipse 4024" cx="8.285" cy="8.285" r="8.285" transform="translate(0 11.716) rotate(-45)" fill="#fafafa"/>
            </g>
            <g id="Grupo_54842" data-name="Grupo 54842" transform="translate(3.728 3.728)">
              <circle id="Elipse_4025" data-name="Elipse 4025" cx="7.988" cy="7.988" r="7.988" fill="#ffd947"/>
            </g>
            <g id="Grupo_54843" data-name="Grupo 54843" transform="translate(5.599 5.599)">
              <path id="Trazado_117083" data-name="Trazado 117083" d="M129.557,308.7a6.118,6.118,0,1,1,6.118-6.117A6.124,6.124,0,0,1,129.557,308.7Zm0-12.2a6.082,6.082,0,1,0,6.083,6.082A6.089,6.089,0,0,0,129.557,296.5Z" transform="translate(-123.439 -296.465)" fill="#263238"/>
            </g>
            <g id="Grupo_54845" data-name="Grupo 54845" transform="translate(7.523 6.036)" opacity="0.2">
              <g id="Grupo_54844" data-name="Grupo 54844">
                <path id="Trazado_117084" data-name="Trazado 117084" d="M131.073,297.2a3.957,3.957,0,1,0,3.028,4.248,3.558,3.558,0,0,0-.559-2.338,3.705,3.705,0,0,0-2.469-1.911" transform="translate(-126.229 -297.099)"/>
              </g>
            </g>
            <g id="Grupo_54846" data-name="Grupo 54846" transform="translate(10.22 16.873)">
              <path id="Trazado_117085" data-name="Trazado 117085" d="M130.141,312.816l.453.622,2.436-.076.468-.546Z" transform="translate(-130.141 -312.816)" fill="#263238"/>
            </g>
          </g>
        </g>
        <g id="Grupo_54851" data-name="Grupo 54851" transform="translate(238.054 107.063)">
          <g id="Grupo_54849" data-name="Grupo 54849" transform="translate(0)">
            <circle id="Elipse_4026" data-name="Elipse 4026" cx="5.058" cy="5.058" r="5.058" fill="#263238"/>
          </g>
          <g id="Grupo_54850" data-name="Grupo 54850" transform="translate(3.21 3.21)">
            <path id="Trazado_117086" data-name="Trazado 117086" d="M367.735,311.622a1.848,1.848,0,1,1-1.848-1.848A1.848,1.848,0,0,1,367.735,311.622Z" transform="translate(-364.038 -309.774)" fill="#455a64"/>
          </g>
        </g>
        <g id="Grupo_54955" data-name="Grupo 54955" transform="translate(10.182 48.293)">
          <g id="Grupo_54950" data-name="Grupo 54950" transform="translate(1.602 1.946)">
            <g id="Grupo_54853" data-name="Grupo 54853" transform="translate(46.056 47.846)">
              <g id="Grupo_54852" data-name="Grupo 54852">
                <path id="Trazado_117087" data-name="Trazado 117087" d="M98.025,292.268c0-.094.439-.17.979-.17s.98.077.98.17-.439.17-.98.17S98.025,292.362,98.025,292.268Z" transform="translate(-98.025 -292.098)" fill="#263238"/>
              </g>
            </g>
            <g id="Grupo_54855" data-name="Grupo 54855" transform="translate(42.139 47.846)">
              <g id="Grupo_54854" data-name="Grupo 54854">
                <path id="Trazado_117088" data-name="Trazado 117088" d="M92.343,292.268c0-.094.439-.17.979-.17s.98.077.98.17-.439.17-.98.17S92.343,292.362,92.343,292.268Z" transform="translate(-92.343 -292.098)" fill="#263238"/>
              </g>
            </g>
            <g id="Grupo_54857" data-name="Grupo 54857" transform="translate(38.221 47.846)">
              <g id="Grupo_54856" data-name="Grupo 54856">
                <path id="Trazado_117089" data-name="Trazado 117089" d="M86.661,292.268c0-.094.439-.17.98-.17s.979.077.979.17-.439.17-.979.17S86.661,292.362,86.661,292.268Z" transform="translate(-86.661 -292.098)" fill="#263238"/>
              </g>
            </g>
            <g id="Grupo_54859" data-name="Grupo 54859" transform="translate(34.303 47.846)">
              <g id="Grupo_54858" data-name="Grupo 54858">
                <path id="Trazado_117090" data-name="Trazado 117090" d="M80.98,292.268c0-.094.439-.17.979-.17s.98.077.98.17-.439.17-.98.17S80.98,292.362,80.98,292.268Z" transform="translate(-80.98 -292.098)" fill="#263238"/>
              </g>
            </g>
            <g id="Grupo_54861" data-name="Grupo 54861" transform="translate(30.386 47.846)">
              <g id="Grupo_54860" data-name="Grupo 54860" transform="translate(0)">
                <path id="Trazado_117091" data-name="Trazado 117091" d="M75.3,292.268c0-.094.439-.17.979-.17s.98.077.98.17-.439.17-.98.17S75.3,292.362,75.3,292.268Z" transform="translate(-75.298 -292.098)" fill="#263238"/>
              </g>
            </g>
            <g id="Grupo_54863" data-name="Grupo 54863" transform="translate(26.468 47.846)">
              <g id="Grupo_54862" data-name="Grupo 54862">
                <path id="Trazado_117092" data-name="Trazado 117092" d="M69.616,292.268c0-.094.439-.17.98-.17s.979.077.979.17-.439.17-.979.17S69.616,292.362,69.616,292.268Z" transform="translate(-69.616 -292.098)" fill="#263238"/>
              </g>
            </g>
            <g id="Grupo_54865" data-name="Grupo 54865" transform="translate(22.55 47.846)">
              <g id="Grupo_54864" data-name="Grupo 54864">
                <path id="Trazado_117093" data-name="Trazado 117093" d="M63.934,292.268c0-.094.439-.17.98-.17s.979.077.979.17-.439.17-.979.17S63.934,292.362,63.934,292.268Z" transform="translate(-63.934 -292.098)" fill="#263238"/>
              </g>
            </g>
            <g id="Grupo_54867" data-name="Grupo 54867" transform="translate(18.632 47.846)">
              <g id="Grupo_54866" data-name="Grupo 54866">
                <path id="Trazado_117094" data-name="Trazado 117094" d="M58.253,292.268c0-.094.439-.17.979-.17s.98.077.98.17-.439.17-.98.17S58.253,292.362,58.253,292.268Z" transform="translate(-58.253 -292.098)" fill="#263238"/>
              </g>
            </g>
            <g id="Grupo_54869" data-name="Grupo 54869" transform="translate(14.715 47.846)">
              <g id="Grupo_54868" data-name="Grupo 54868">
                <path id="Trazado_117095" data-name="Trazado 117095" d="M52.571,292.268c0-.094.439-.17.979-.17s.98.077.98.17-.439.17-.98.17S52.571,292.362,52.571,292.268Z" transform="translate(-52.571 -292.098)" fill="#263238"/>
              </g>
            </g>
            <g id="Grupo_54871" data-name="Grupo 54871" transform="translate(10.797 47.846)">
              <g id="Grupo_54870" data-name="Grupo 54870">
                <path id="Trazado_117096" data-name="Trazado 117096" d="M46.889,292.268c0-.094.439-.17.98-.17s.979.077.979.17-.439.17-.979.17S46.889,292.362,46.889,292.268Z" transform="translate(-46.889 -292.098)" fill="#263238"/>
              </g>
            </g>
            <g id="Grupo_54873" data-name="Grupo 54873" transform="translate(6.879 47.846)">
              <g id="Grupo_54872" data-name="Grupo 54872">
                <path id="Trazado_117097" data-name="Trazado 117097" d="M41.208,292.268c0-.094.438-.17.979-.17s.979.077.979.17-.439.17-.979.17S41.208,292.362,41.208,292.268Z" transform="translate(-41.208 -292.098)" fill="#263238"/>
              </g>
            </g>
            <g id="Grupo_54875" data-name="Grupo 54875" transform="translate(2.962 47.846)">
              <g id="Grupo_54874" data-name="Grupo 54874">
                <path id="Trazado_117098" data-name="Trazado 117098" d="M35.526,292.268c0-.094.439-.17.979-.17s.98.077.98.17-.439.17-.98.17S35.526,292.362,35.526,292.268Z" transform="translate(-35.526 -292.098)" fill="#263238"/>
              </g>
            </g>
            <g id="Grupo_54877" data-name="Grupo 54877" transform="translate(0 46.889)">
              <g id="Grupo_54876" data-name="Grupo 54876">
                <path id="Trazado_117099" data-name="Trazado 117099" d="M31.4,290.711c.094,0,.17.439.17.98l0,.147-.168-.168c.472.012.833.083.833.168s-.361.155-.833.168l-.165,0,0-.172v-.147C31.231,291.15,31.307,290.711,31.4,290.711Z" transform="translate(-31.231 -290.711)" fill="#263238"/>
              </g>
            </g>
            <g id="Grupo_54879" data-name="Grupo 54879" transform="translate(0 42.972)">
              <g id="Grupo_54878" data-name="Grupo 54878">
                <path id="Trazado_117100" data-name="Trazado 117100" d="M31.4,285.03c.094,0,.17.439.17.979s-.077.98-.17.98-.17-.439-.17-.98S31.307,285.03,31.4,285.03Z" transform="translate(-31.231 -285.03)" fill="#263238"/>
              </g>
            </g>
            <g id="Grupo_54881" data-name="Grupo 54881" transform="translate(0 39.054)">
              <g id="Grupo_54880" data-name="Grupo 54880">
                <path id="Trazado_117101" data-name="Trazado 117101" d="M31.4,279.348c.094,0,.17.438.17.979s-.077.98-.17.98-.17-.439-.17-.98S31.307,279.348,31.4,279.348Z" transform="translate(-31.231 -279.348)" fill="#263238"/>
              </g>
            </g>
            <g id="Grupo_54883" data-name="Grupo 54883" transform="translate(0 35.136)">
              <g id="Grupo_54882" data-name="Grupo 54882">
                <path id="Trazado_117102" data-name="Trazado 117102" d="M31.4,273.666c.094,0,.17.439.17.98s-.077.979-.17.979-.17-.439-.17-.979S31.307,273.666,31.4,273.666Z" transform="translate(-31.231 -273.666)" fill="#263238"/>
              </g>
            </g>
            <g id="Grupo_54885" data-name="Grupo 54885" transform="translate(0 31.219)">
              <g id="Grupo_54884" data-name="Grupo 54884">
                <path id="Trazado_117103" data-name="Trazado 117103" d="M31.4,267.985c.094,0,.17.439.17.979s-.077.979-.17.979-.17-.438-.17-.979S31.307,267.985,31.4,267.985Z" transform="translate(-31.231 -267.985)" fill="#263238"/>
              </g>
            </g>
            <g id="Grupo_54887" data-name="Grupo 54887" transform="translate(0 27.301)">
              <g id="Grupo_54886" data-name="Grupo 54886">
                <path id="Trazado_117104" data-name="Trazado 117104" d="M31.4,262.3c.094,0,.17.439.17.979s-.077.98-.17.98-.17-.439-.17-.98S31.307,262.3,31.4,262.3Z" transform="translate(-31.231 -262.303)" fill="#263238"/>
              </g>
            </g>
            <g id="Grupo_54889" data-name="Grupo 54889" transform="translate(0 23.383)">
              <g id="Grupo_54888" data-name="Grupo 54888">
                <path id="Trazado_117105" data-name="Trazado 117105" d="M31.4,256.621c.094,0,.17.439.17.979s-.077.98-.17.98-.17-.439-.17-.98S31.307,256.621,31.4,256.621Z" transform="translate(-31.231 -256.621)" fill="#263238"/>
              </g>
            </g>
            <g id="Grupo_54891" data-name="Grupo 54891" transform="translate(0 19.465)">
              <g id="Grupo_54890" data-name="Grupo 54890">
                <path id="Trazado_117106" data-name="Trazado 117106" d="M31.4,250.939c.094,0,.17.439.17.98s-.077.979-.17.979-.17-.439-.17-.979S31.307,250.939,31.4,250.939Z" transform="translate(-31.231 -250.939)" fill="#263238"/>
              </g>
            </g>
            <g id="Grupo_54893" data-name="Grupo 54893" transform="translate(0 15.548)">
              <g id="Grupo_54892" data-name="Grupo 54892">
                <path id="Trazado_117107" data-name="Trazado 117107" d="M31.4,245.258c.094,0,.17.439.17.979s-.077.979-.17.979-.17-.438-.17-.979S31.307,245.258,31.4,245.258Z" transform="translate(-31.231 -245.258)" fill="#263238"/>
              </g>
            </g>
            <g id="Grupo_54895" data-name="Grupo 54895" transform="translate(0 11.63)">
              <g id="Grupo_54894" data-name="Grupo 54894">
                <path id="Trazado_117108" data-name="Trazado 117108" d="M31.4,239.576c.094,0,.17.439.17.979s-.077.98-.17.98-.17-.439-.17-.98S31.307,239.576,31.4,239.576Z" transform="translate(-31.231 -239.576)" fill="#263238"/>
              </g>
            </g>
            <g id="Grupo_54897" data-name="Grupo 54897" transform="translate(0 7.712)">
              <g id="Grupo_54896" data-name="Grupo 54896">
                <path id="Trazado_117109" data-name="Trazado 117109" d="M31.4,233.894c.094,0,.17.439.17.979s-.077.98-.17.98-.17-.439-.17-.98S31.307,233.894,31.4,233.894Z" transform="translate(-31.231 -233.894)" fill="#263238"/>
              </g>
            </g>
            <g id="Grupo_54899" data-name="Grupo 54899" transform="translate(0 3.794)">
              <g id="Grupo_54898" data-name="Grupo 54898">
                <path id="Trazado_117110" data-name="Trazado 117110" d="M31.4,228.212c.094,0,.17.439.17.98s-.077.979-.17.979-.17-.439-.17-.979S31.307,228.212,31.4,228.212Z" transform="translate(-31.231 -228.212)" fill="#263238"/>
              </g>
            </g>
            <g id="Grupo_54901" data-name="Grupo 54901" transform="translate(0 0.032)">
              <g id="Grupo_54900" data-name="Grupo 54900">
                <path id="Trazado_117111" data-name="Trazado 117111" d="M31.694,222.894c0,.048-.112.09-.294.121l.121-.121a4.26,4.26,0,0,1,.049.686c0,.541-.077.98-.17.98s-.17-.439-.17-.98a4.35,4.35,0,0,1,.048-.686l.024-.138.1.017C31.582,222.8,31.694,222.846,31.694,222.894Z" transform="translate(-31.231 -222.756)" fill="#263238"/>
              </g>
            </g>
            <g id="Grupo_54903" data-name="Grupo 54903" transform="translate(2.422)">
              <g id="Grupo_54902" data-name="Grupo 54902">
                <path id="Trazado_117112" data-name="Trazado 117112" d="M36.7,222.879c0,.094-.439.17-.979.17s-.98-.077-.98-.17.439-.17.98-.17S36.7,222.786,36.7,222.879Z" transform="translate(-34.743 -222.709)" fill="#263238"/>
              </g>
            </g>
            <g id="Grupo_54905" data-name="Grupo 54905" transform="translate(6.34)">
              <g id="Grupo_54904" data-name="Grupo 54904">
                <path id="Trazado_117113" data-name="Trazado 117113" d="M42.384,222.879c0,.094-.439.17-.979.17s-.98-.077-.98-.17.439-.17.98-.17S42.384,222.786,42.384,222.879Z" transform="translate(-40.425 -222.709)" fill="#263238"/>
              </g>
            </g>
            <g id="Grupo_54907" data-name="Grupo 54907" transform="translate(10.257)">
              <g id="Grupo_54906" data-name="Grupo 54906">
                <path id="Trazado_117114" data-name="Trazado 117114" d="M48.066,222.879c0,.094-.439.17-.98.17s-.979-.077-.979-.17.439-.17.979-.17S48.066,222.786,48.066,222.879Z" transform="translate(-46.107 -222.709)" fill="#263238"/>
              </g>
            </g>
            <g id="Grupo_54909" data-name="Grupo 54909" transform="translate(14.175)">
              <g id="Grupo_54908" data-name="Grupo 54908">
                <path id="Trazado_117115" data-name="Trazado 117115" d="M53.748,222.879c0,.094-.439.17-.98.17s-.979-.077-.979-.17.439-.17.979-.17S53.748,222.786,53.748,222.879Z" transform="translate(-51.789 -222.709)" fill="#263238"/>
              </g>
            </g>
            <g id="Grupo_54911" data-name="Grupo 54911" transform="translate(18.093)">
              <g id="Grupo_54910" data-name="Grupo 54910">
                <path id="Trazado_117116" data-name="Trazado 117116" d="M59.429,222.879c0,.094-.439.17-.979.17s-.98-.077-.98-.17.439-.17.98-.17S59.429,222.786,59.429,222.879Z" transform="translate(-57.47 -222.709)" fill="#263238"/>
              </g>
            </g>
            <g id="Grupo_54913" data-name="Grupo 54913" transform="translate(22.01)">
              <g id="Grupo_54912" data-name="Grupo 54912">
                <path id="Trazado_117117" data-name="Trazado 117117" d="M65.111,222.879c0,.094-.439.17-.979.17s-.98-.077-.98-.17.439-.17.98-.17S65.111,222.786,65.111,222.879Z" transform="translate(-63.152 -222.709)" fill="#263238"/>
              </g>
            </g>
            <g id="Grupo_54915" data-name="Grupo 54915" transform="translate(25.928)">
              <g id="Grupo_54914" data-name="Grupo 54914">
                <path id="Trazado_117118" data-name="Trazado 117118" d="M70.793,222.879c0,.094-.439.17-.98.17s-.979-.077-.979-.17.439-.17.979-.17S70.793,222.786,70.793,222.879Z" transform="translate(-68.834 -222.709)" fill="#263238"/>
              </g>
            </g>
            <g id="Grupo_54917" data-name="Grupo 54917" transform="translate(29.846)">
              <g id="Grupo_54916" data-name="Grupo 54916" transform="translate(0)">
                <path id="Trazado_117119" data-name="Trazado 117119" d="M76.475,222.879c0,.094-.439.17-.98.17s-.979-.077-.979-.17.439-.17.979-.17S76.475,222.786,76.475,222.879Z" transform="translate(-74.516 -222.709)" fill="#263238"/>
              </g>
            </g>
            <g id="Grupo_54919" data-name="Grupo 54919" transform="translate(33.764)">
              <g id="Grupo_54918" data-name="Grupo 54918">
                <path id="Trazado_117120" data-name="Trazado 117120" d="M82.156,222.879c0,.094-.439.17-.979.17s-.98-.077-.98-.17.439-.17.98-.17S82.156,222.786,82.156,222.879Z" transform="translate(-80.197 -222.709)" fill="#263238"/>
              </g>
            </g>
            <g id="Grupo_54921" data-name="Grupo 54921" transform="translate(37.681)">
              <g id="Grupo_54920" data-name="Grupo 54920">
                <path id="Trazado_117121" data-name="Trazado 117121" d="M87.838,222.879c0,.094-.439.17-.979.17s-.98-.077-.98-.17.439-.17.98-.17S87.838,222.786,87.838,222.879Z" transform="translate(-85.879 -222.709)" fill="#263238"/>
              </g>
            </g>
            <g id="Grupo_54923" data-name="Grupo 54923" transform="translate(41.599)">
              <g id="Grupo_54922" data-name="Grupo 54922">
                <path id="Trazado_117122" data-name="Trazado 117122" d="M93.52,222.879c0,.094-.439.17-.98.17s-.979-.077-.979-.17.439-.17.979-.17S93.52,222.786,93.52,222.879Z" transform="translate(-91.561 -222.709)" fill="#263238"/>
              </g>
            </g>
            <g id="Grupo_54925" data-name="Grupo 54925" transform="translate(45.517)">
              <g id="Grupo_54924" data-name="Grupo 54924">
                <path id="Trazado_117123" data-name="Trazado 117123" d="M99.2,222.879c0,.094-.439.17-.979.17s-.979-.077-.979-.17.438-.17.979-.17S99.2,222.786,99.2,222.879Z" transform="translate(-97.243 -222.709)" fill="#263238"/>
              </g>
            </g>
            <g id="Grupo_54927" data-name="Grupo 54927" transform="translate(47.845 1.59)">
              <g id="Grupo_54926" data-name="Grupo 54926">
                <path id="Trazado_117124" data-name="Trazado 117124" d="M100.789,226.974c-.094,0-.17-.438-.17-.98s.077-.979.17-.979.17.439.17.979S100.883,226.974,100.789,226.974Z" transform="translate(-100.619 -225.015)" fill="#263238"/>
              </g>
            </g>
            <g id="Grupo_54929" data-name="Grupo 54929" transform="translate(47.845 5.508)">
              <g id="Grupo_54928" data-name="Grupo 54928">
                <path id="Trazado_117125" data-name="Trazado 117125" d="M100.789,232.655c-.094,0-.17-.439-.17-.979s.077-.979.17-.979.17.438.17.979S100.883,232.655,100.789,232.655Z" transform="translate(-100.619 -230.697)" fill="#263238"/>
              </g>
            </g>
            <g id="Grupo_54931" data-name="Grupo 54931" transform="translate(47.845 9.425)">
              <g id="Grupo_54930" data-name="Grupo 54930">
                <path id="Trazado_117126" data-name="Trazado 117126" d="M100.789,238.337c-.094,0-.17-.439-.17-.979s.077-.98.17-.98.17.439.17.98S100.883,238.337,100.789,238.337Z" transform="translate(-100.619 -236.378)" fill="#263238"/>
              </g>
            </g>
            <g id="Grupo_54933" data-name="Grupo 54933" transform="translate(47.845 13.343)">
              <g id="Grupo_54932" data-name="Grupo 54932">
                <path id="Trazado_117127" data-name="Trazado 117127" d="M100.789,244.019c-.094,0-.17-.439-.17-.979s.077-.98.17-.98.17.439.17.98S100.883,244.019,100.789,244.019Z" transform="translate(-100.619 -242.06)" fill="#263238"/>
              </g>
            </g>
            <g id="Grupo_54935" data-name="Grupo 54935" transform="translate(47.845 17.261)">
              <g id="Grupo_54934" data-name="Grupo 54934">
                <path id="Trazado_117128" data-name="Trazado 117128" d="M100.789,249.7c-.094,0-.17-.439-.17-.98s.077-.979.17-.979.17.439.17.979S100.883,249.7,100.789,249.7Z" transform="translate(-100.619 -247.742)" fill="#263238"/>
              </g>
            </g>
            <g id="Grupo_54937" data-name="Grupo 54937" transform="translate(47.845 21.178)">
              <g id="Grupo_54936" data-name="Grupo 54936">
                <path id="Trazado_117129" data-name="Trazado 117129" d="M100.789,255.382c-.094,0-.17-.439-.17-.979s.077-.98.17-.98.17.439.17.98S100.883,255.382,100.789,255.382Z" transform="translate(-100.619 -253.423)" fill="#263238"/>
              </g>
            </g>
            <g id="Grupo_54939" data-name="Grupo 54939" transform="translate(47.845 25.096)">
              <g id="Grupo_54938" data-name="Grupo 54938">
                <path id="Trazado_117130" data-name="Trazado 117130" d="M100.789,261.064c-.094,0-.17-.439-.17-.979s.077-.98.17-.98.17.439.17.98S100.883,261.064,100.789,261.064Z" transform="translate(-100.619 -259.105)" fill="#263238"/>
              </g>
            </g>
            <g id="Grupo_54941" data-name="Grupo 54941" transform="translate(47.845 29.014)">
              <g id="Grupo_54940" data-name="Grupo 54940">
                <path id="Trazado_117131" data-name="Trazado 117131" d="M100.789,266.746c-.094,0-.17-.439-.17-.98s.077-.979.17-.979.17.439.17.979S100.883,266.746,100.789,266.746Z" transform="translate(-100.619 -264.787)" fill="#263238"/>
              </g>
            </g>
            <g id="Grupo_54943" data-name="Grupo 54943" transform="translate(47.845 32.932)">
              <g id="Grupo_54942" data-name="Grupo 54942">
                <path id="Trazado_117132" data-name="Trazado 117132" d="M100.789,272.427c-.094,0-.17-.438-.17-.979s.077-.979.17-.979.17.438.17.979S100.883,272.427,100.789,272.427Z" transform="translate(-100.619 -270.469)" fill="#263238"/>
              </g>
            </g>
            <g id="Grupo_54945" data-name="Grupo 54945" transform="translate(47.845 36.849)">
              <g id="Grupo_54944" data-name="Grupo 54944">
                <path id="Trazado_117133" data-name="Trazado 117133" d="M100.789,278.109c-.094,0-.17-.439-.17-.979s.077-.98.17-.98.17.439.17.98S100.883,278.109,100.789,278.109Z" transform="translate(-100.619 -276.15)" fill="#263238"/>
              </g>
            </g>
            <g id="Grupo_54947" data-name="Grupo 54947" transform="translate(47.845 40.767)">
              <g id="Grupo_54946" data-name="Grupo 54946">
                <path id="Trazado_117134" data-name="Trazado 117134" d="M100.789,283.791c-.094,0-.17-.439-.17-.979s.077-.98.17-.98.17.439.17.98S100.883,283.791,100.789,283.791Z" transform="translate(-100.619 -281.832)" fill="#263238"/>
              </g>
            </g>
            <g id="Grupo_54949" data-name="Grupo 54949" transform="translate(47.845 44.685)">
              <g id="Grupo_54948" data-name="Grupo 54948">
                <path id="Trazado_117135" data-name="Trazado 117135" d="M100.789,289.473c-.094,0-.17-.439-.17-.98s.077-.979.17-.979.17.439.17.979S100.883,289.473,100.789,289.473Z" transform="translate(-100.619 -287.514)" fill="#263238"/>
              </g>
            </g>
          </g>
          <g id="Grupo_54951" data-name="Grupo 54951" transform="translate(47.845 47.706)">
            <rect id="Rectángulo_29449" data-name="Rectángulo 29449" width="3.544" height="3.543" fill="#263238"/>
          </g>
          <g id="Grupo_54952" data-name="Grupo 54952" transform="translate(0 48.19)">
            <rect id="Rectángulo_29450" data-name="Rectángulo 29450" width="3.544" height="3.543" fill="#263238"/>
          </g>
          <g id="Grupo_54953" data-name="Grupo 54953" transform="translate(47.845)">
            <rect id="Rectángulo_29451" data-name="Rectángulo 29451" width="3.544" height="3.543" fill="#263238"/>
          </g>
          <g id="Grupo_54954" data-name="Grupo 54954" transform="translate(0 0.345)">
            <rect id="Rectángulo_29452" data-name="Rectángulo 29452" width="3.544" height="3.543" fill="#263238"/>
          </g>
        </g>
      </g>
    </g>
    <g id="Grupo_890011" data-name="Grupo 890011" transform="translate(1192.712 792.923)">
      <g id="Grupo_54742" data-name="Grupo 54742">
        <g id="Grupo_54739" data-name="Grupo 54739" transform="translate(0.18 0.179)">
          <rect id="Rectángulo_29415" data-name="Rectángulo 29415" width="64.56" height="25.098" fill="#fafafa"/>
        </g>
        <g id="Grupo_54741" data-name="Grupo 54741">
          <g id="Grupo_54740" data-name="Grupo 54740">
            <path id="Trazado_117062" data-name="Trazado 117062" d="M411.116,175.126s-.009-.157-.013-.452-.008-.738-.013-1.3c-.007-1.151-.017-2.828-.031-4.988-.016-4.329-.039-10.587-.068-18.357l.125.124-64.556.055h0l.179-.179c0,8.775,0,17.255-.007,25.1l-.172-.172,46.242.081,13.449.048,3.607.022.936.011c.212,0,.325.01.325.01s-.1.008-.3.011l-.916.01-3.571.022-13.41.048-46.359.081h-.172v-.173c0-7.843,0-16.323-.008-25.1v-.179h.184l64.556.055h.125v.124c-.028,7.8-.052,14.085-.068,18.432-.013,2.149-.023,3.815-.03,4.96-.006.554-.01.98-.014,1.28S411.116,175.126,411.116,175.126Z" transform="translate(-346.376 -149.849)" fill="#263238"/>
          </g>
        </g>
      </g>
      <g id="Grupo_54743" data-name="Grupo 54743" transform="translate(0.18 0.179)">
        <rect id="Rectángulo_29416" data-name="Rectángulo 29416" width="64.56" height="5.378" fill="#263238"/>
      </g>
      <g id="Grupo_54744" data-name="Grupo 54744" transform="translate(7.852 9.658)">
        <rect id="Rectángulo_29417" data-name="Rectángulo 29417" width="6.34" height="6.34" fill="#263238"/>
      </g>
      <g id="Grupo_54745" data-name="Grupo 54745" transform="translate(11.692 13.498)">
        <rect id="Rectángulo_29418" data-name="Rectángulo 29418" width="6.34" height="6.34" fill="#263238"/>
      </g>
      <g id="Grupo_54746" data-name="Grupo 54746" transform="translate(22.964 9.658)">
        <rect id="Rectángulo_29419" data-name="Rectángulo 29419" width="6.34" height="6.34" fill="#263238"/>
      </g>
      <g id="Grupo_54750" data-name="Grupo 54750" transform="translate(26.585 13.315)">
        <g id="Grupo_54747" data-name="Grupo 54747" transform="translate(0.219 0.183)">
          <rect id="Rectángulo_29420" data-name="Rectángulo 29420" width="6.34" height="6.34" fill="#f5f5f5"/>
        </g>
        <g id="Grupo_54749" data-name="Grupo 54749">
          <g id="Grupo_54748" data-name="Grupo 54748">
            <path id="Trazado_117063" data-name="Trazado 117063" d="M391.491,175.683a3.059,3.059,0,0,1-.036-.488c-.011-.357-.024-.789-.041-1.305-.029-1.115-.063-2.68-.079-4.547l.155.155-6.34.024.179-.179v1.71q0,.838,0,1.638c-.006,1.061-.012,2.063-.018,2.991l-.155-.155c1.867.015,3.432.05,4.547.079l1.305.041a3.037,3.037,0,0,1,.488.036,1.82,1.82,0,0,1-.424.035l-1.27.041c-1.1.029-2.71.064-4.646.079H385v-.157c-.006-.928-.012-1.931-.018-2.991q0-.8,0-1.638v-1.71c-.161.16.218-.219.18-.181l6.34.025h.157v.155c-.015,1.936-.05,3.541-.079,4.645-.016.5-.029.923-.041,1.271A1.813,1.813,0,0,1,391.491,175.683Z" transform="translate(-384.931 -169.16)" fill="#263238"/>
          </g>
        </g>
      </g>
      <g id="Grupo_54760" data-name="Grupo 54760" transform="translate(36.846 9.476)">
        <g id="Grupo_54754" data-name="Grupo 54754">
          <g id="Grupo_54751" data-name="Grupo 54751" transform="translate(0.219 0.182)">
            <rect id="Rectángulo_29421" data-name="Rectángulo 29421" width="6.34" height="6.34" fill="#f5f5f5"/>
          </g>
          <g id="Grupo_54753" data-name="Grupo 54753">
            <g id="Grupo_54752" data-name="Grupo 54752">
              <path id="Trazado_117064" data-name="Trazado 117064" d="M406.372,170.114a3.036,3.036,0,0,1-.036-.488c-.011-.357-.024-.789-.041-1.305-.029-1.115-.063-2.68-.079-4.547l.155.155-6.34.025c-.04.039.339-.34.179-.179h0v.861c0,.285,0,.567,0,.847,0,.559,0,1.106,0,1.639-.006,1.06-.012,2.063-.018,2.99l-.155-.155c1.867.015,3.432.05,4.547.079l1.305.04a3.059,3.059,0,0,1,.488.036,1.819,1.819,0,0,1-.424.035l-1.27.041c-1.1.029-2.71.064-4.646.079h-.154v-.157c-.005-.927-.012-1.931-.018-2.99,0-.533,0-1.081,0-1.639v-1.708h0c-.161.16.218-.22.18-.181l6.34.024h.156v.154c-.015,1.936-.05,3.541-.079,4.646-.016.5-.03.923-.041,1.27A1.821,1.821,0,0,1,406.372,170.114Z" transform="translate(-399.812 -163.592)" fill="#263238"/>
            </g>
          </g>
        </g>
        <g id="Grupo_54758" data-name="Grupo 54758" transform="translate(3.84 3.839)">
          <g id="Grupo_54755" data-name="Grupo 54755" transform="translate(0.219 0.183)">
            <rect id="Rectángulo_29422" data-name="Rectángulo 29422" width="6.34" height="6.34" fill="#f5f5f5"/>
          </g>
          <g id="Grupo_54757" data-name="Grupo 54757">
            <g id="Grupo_54756" data-name="Grupo 54756">
              <path id="Trazado_117065" data-name="Trazado 117065" d="M411.94,175.683a3.062,3.062,0,0,1-.036-.488c-.011-.357-.025-.789-.041-1.305-.029-1.115-.064-2.68-.079-4.547l.155.155-6.339.024.179-.179v.862c0,.285,0,.568,0,.848q0,.838,0,1.638c-.006,1.061-.012,2.063-.018,2.991l-.155-.155c1.867.015,3.432.05,4.547.079l1.305.041a3.048,3.048,0,0,1,.488.036,1.82,1.82,0,0,1-.424.035l-1.271.041c-1.1.029-2.71.064-4.645.079h-.154v-.157c-.006-.928-.011-1.931-.018-2.991q0-.8,0-1.638v-1.71l.181-.181,6.339.025h.156v.155c-.015,1.936-.05,3.541-.079,4.645-.016.5-.03.923-.041,1.271A1.815,1.815,0,0,1,411.94,175.683Z" transform="translate(-405.381 -169.16)" fill="#263238"/>
            </g>
          </g>
        </g>
        <g id="Grupo_54759" data-name="Grupo 54759" transform="translate(4.059 4.022)">
          <rect id="Rectángulo_29423" data-name="Rectángulo 29423" width="2.5" height="2.5" fill="#263238"/>
        </g>
      </g>
      <g id="Grupo_54764" data-name="Grupo 54764" transform="translate(50.028 9.658)">
        <g id="Grupo_54761" data-name="Grupo 54761">
          <rect id="Rectángulo_29424" data-name="Rectángulo 29424" width="6.34" height="6.34" fill="#263238"/>
        </g>
        <g id="Grupo_54762" data-name="Grupo 54762" transform="translate(3.84 3.84)">
          <rect id="Rectángulo_29425" data-name="Rectángulo 29425" width="6.34" height="6.34" fill="#263238"/>
        </g>
        <g id="Grupo_54763" data-name="Grupo 54763" transform="translate(3.84 3.84)">
          <rect id="Rectángulo_29426" data-name="Rectángulo 29426" width="2.5" height="2.5" fill="#fafafa"/>
        </g>
      </g>
    </g>
  </g>
</svg>
