<svg xmlns="http://www.w3.org/2000/svg" xmlns:xlink="http://www.w3.org/1999/xlink" width="527.353" height="511.209" viewBox="0 0 527.353 511.209">
  <defs>
    <clipPath id="clip-path">
      <rect id="Rectángulo_10045" data-name="Rectángulo 10045" width="527.353" height="511.209" transform="translate(22.354 -18.522)" fill="none"/>
    </clipPath>
  </defs>
  <g id="Grupo_893380" data-name="Grupo 893380" transform="translate(-180 -6449.936)">
    <rect id="Rectángulo_301032" data-name="Rectángulo 301032" width="422.186" height="415.389" transform="translate(244 6493.982)" fill="#f5fafe"/>
    <g id="Grupo_890177" data-name="Grupo 890177" transform="translate(157.646 6468.46)">
      <g id="Grupo_890178" data-name="Grupo 890178" transform="translate(0 0)">
        <g id="Grupo_67766" data-name="Grupo 67766" transform="translate(0 -0.002)">
          <g id="Grupo_67765" data-name="Grupo 67765" clip-path="url(#clip-path)">
            <rect id="Rectángulo_10012" data-name="Rectángulo 10012" width="359.767" height="407.074" transform="translate(65.531 12.613)" fill="#fff" stroke="#283841" stroke-miterlimit="10" stroke-width="0.15"/>
            <path id="Trazado_139980" data-name="Trazado 139980" d="M100.553,16.385S118.542,55.043,121.6,62.7s-1.147,16.083-6.5,21.823a37.11,37.11,0,0,1-10.342,8.034c-1.147.767-13.395,19.523-17.989,33.684s-6.508,26.03-20.282,30.244-34.451-5.748-38.278-22.2S33.564,102.889,43.906,96s17.6-13.395,20.282-17.989,7.654-26.8,12.248-39.045,17.989-24.876,24.117-22.583" transform="translate(180.159 106.243)" fill="#89767a"/>
            <path id="Trazado_139991" data-name="Trazado 139991" d="M126.846,18.639c-1.048-4.154-14.632-7.229-16.03-6.591-.266.121-.592,1.055-.949,2.491a15.99,15.99,0,0,0-2.27-.372c-1.39-.053-2.5,7.282-2.5,7.282s-.114,12.529.372,15.6L80.329,80.973l-42.887-21.3c-3.2,12.385,17.45,32.857,17.45,32.857s28.445,8.937,33.51,6.219,26.212-59.836,26.212-59.836a61.963,61.963,0,0,0,5.672-5.1c1.967-2.157,7.609-11.018,6.561-15.172" transform="translate(244.638 78.885)" fill="#e8e8e8"/>
            <path id="Trazado_139992" data-name="Trazado 139992" d="M38.788,77.016l33.3,13.061L99.938,36.1l8.953-23.858" transform="translate(255.745 80.737)" fill="none" stroke="#d2d5d0" stroke-miterlimit="10" stroke-width="0.15"/>
            <path id="Trazado_139993" data-name="Trazado 139993" d="M49,23.984a3.274,3.274,0,1,0-1.625,4.336A3.268,3.268,0,0,0,49,23.984" transform="translate(281.817 145.472)" fill="#d2d5d0"/>
            <path id="Trazado_139994" data-name="Trazado 139994" d="M52.615,16.8a3.274,3.274,0,1,0-1.625,4.336A3.268,3.268,0,0,0,52.615,16.8" transform="translate(305.679 98.099)" fill="#d2d5d0"/>
            <path id="Trazado_139995" data-name="Trazado 139995" d="M54.087,15.2a3.273,3.273,0,1,0-3.273,3.273A3.273,3.273,0,0,0,54.087,15.2" transform="translate(313.456 78.668)" fill="#d2d5d0"/>
            <path id="Trazado_139996" data-name="Trazado 139996" d="M130.171,7.314c-8,.251-12.81,2.453-15.392,4.169-7.768-2.87-17.29-3.531-24.716-.964a22.759,22.759,0,0,0-13.638,11.4,30.366,30.366,0,0,0-2.612,7.495,45.526,45.526,0,0,0-.866,6.371c-.03.372-.038.737-.046,1.109l.008.349c0,.258.008.516.015.782l.03.425c.015.235.03.478.053.714.015.152.038.3.053.44.03.243.053.478.091.714.023.152.046.3.076.456.038.243.068.478.114.714.03.152.068.3.1.456.046.243.091.478.152.714.03.152.068.3.106.456l.182.721c.038.152.083.3.129.456l.2.721c.046.152.1.3.144.448.076.243.152.486.235.729.046.144.1.289.152.44.084.243.167.486.258.729l.159.433c.091.243.182.486.281.729l.182.44c.091.235.19.471.289.706l.19.433c.1.235.205.471.311.706.061.144.129.281.19.418.106.235.22.471.327.7l.2.425.327.668.22.433c.114.213.22.433.334.645.076.144.152.281.22.418.114.213.228.425.342.63l.228.425c.114.2.228.395.342.6.076.137.159.273.235.418.114.19.22.38.334.562l.251.425c.106.175.213.349.311.524l.273.433c.1.159.2.319.3.471s.182.3.273.44l.281.433c.1.152.2.3.289.44.091.129.175.258.258.387.1.152.205.3.3.448l.22.319c.106.159.213.311.319.463.068.091.129.182.19.273l.334.456.152.213c.121.159.235.319.349.471l.114.152c.122.159.235.311.349.456l.091.114c.121.152.235.3.349.448l.053.053c.121.152.235.3.349.425l.03.038c.114.137.228.266.334.387.182.205.349.387.494.532,2.855,2.855,2.043,7.745.41,9.788-.114.137-.213.258-.311.395-.494-1.055-.767-1.655-.767-1.655C79.189,72.169,65.795,84.8,61.2,97.053S51.633,131.5,48.953,136.1c-2.6,4.442-9.507,10.684-19.318,17.328a86.4,86.4,0,0,0,43.677,26.068c5.391-13.258,15.194-28.171,16.212-28.855a37.249,37.249,0,0,0,10.335-8.034c5.361-5.748,9.568-14.169,6.508-21.823-1.276-3.182-5.141-11.747-9.211-20.654,1.23-5.285,4.245-17.45,6.766-21.55a42.864,42.864,0,0,1,4.89-6.925s16.713,4.89,19.561,2.445,7.745-17.526,7.745-17.526,5.71-2.445,4.89-5.3-6.925-4.078-7.335-8.968c-.091-1.147-.144-2.179-.167-3.091a9.2,9.2,0,0,0,2.058.038c4.146-.418,2.9-5.391,1.663-7.464s3.728-4.564,6.629-8.71S143.445,6.9,130.171,7.314" transform="translate(195.395 48.158)" fill="#ad9fa1"/>
            <path id="Trazado_139997" data-name="Trazado 139997" d="M40.526,13.533S45.09,7.724,58.363,7.314,74.954,18.924,72.046,23.07s-7.882,6.637-6.637,8.71,2.491,7.054-1.655,7.472-6.637-1.663-7.054-5.4-10.783-19.9-16.174-20.32" transform="translate(267.203 48.158)" fill="#89767a"/>
            <path id="Trazado_139998" data-name="Trazado 139998" d="M96.1,33.164s-.813-7.745-7.745-15.893S64.308,5.038,52.492,9.116s-16.3,13.448-17.116,25.271S45.559,61.693,48.415,64.548s2.035,7.745.41,9.78-2.445,3.265-2.445,3.265l12.635,23.638s4.07-18.748,7.335-24.048a42.786,42.786,0,0,1,4.89-6.933S87.953,75.14,90.8,72.7,98.546,55.17,98.546,55.17s5.7-2.445,4.89-5.293S96.511,45.8,96.1,40.91a37.954,37.954,0,0,1,0-7.745" transform="translate(232.966 49.56)" fill="#ad9fa1"/>
            <path id="Trazado_139999" data-name="Trazado 139999" d="M88.363,17.267C81.43,9.112,64.307,5.042,52.492,9.112s-16.3,13.455-17.115,25.271c-.8,11.588,9.757,26.691,12.863,29.971,2.969.129,9.947-1.238,15.255-15.293,0,0,4.48.813,7.753-4.488,3.258-5.3-.418-10.593,4.062-16.705,3.736-5.08,14.184-4.252,17.632-3.827a37.494,37.494,0,0,0-4.579-6.773" transform="translate(232.966 49.557)" fill="#89767a"/>
            <path id="Trazado_140000" data-name="Trazado 140000" d="M51.091,20.687s-5.7-11-10.6-8.148-1.625,11.815.82,15.483S49.868,26.8,49.868,26.8" transform="translate(250.26 79.563)" fill="#ad9fa1"/>
            <path id="Trazado_140001" data-name="Trazado 140001" d="M105.5,11.01l-18.672,53.5L62.1,121.524l-31.793,53.5" transform="translate(199.818 72.595)" fill="none" stroke="#d2d5d0" stroke-miterlimit="10" stroke-width="0.15"/>
            <path id="Trazado_140002" data-name="Trazado 140002" d="M46.323,13.852a3.273,3.273,0,1,0-3.273,3.273,3.273,3.273,0,0,0,3.273-3.273" transform="translate(262.265 69.754)" fill="#d2d5d0"/>
            <path id="Trazado_140003" data-name="Trazado 140003" d="M43.863,20.9a3.273,3.273,0,1,0-3.273,3.273A3.273,3.273,0,0,0,43.863,20.9" transform="translate(246.052 116.204)" fill="#d2d5d0"/>
            <path id="Trazado_140004" data-name="Trazado 140004" d="M40.614,28.406a3.277,3.277,0,1,0-3.28,3.273,3.28,3.28,0,0,0,3.28-3.273" transform="translate(224.577 165.714)" fill="#d2d5d0"/>
            <path id="Trazado_140005" data-name="Trazado 140005" d="M36.421,35.451a3.273,3.273,0,1,0-3.273,3.273,3.273,3.273,0,0,0,3.273-3.273" transform="translate(196.977 212.164)" fill="#d2d5d0"/>
            <path id="Trazado_140006" data-name="Trazado 140006" d="M151.651,27.105S88.7,14.69,83.873,15.556c-3.933.7-35.7,22.226-47.276,30.138,0,0-15.285,6.439-17.108,9.8s4.321,8.884,4.321,8.884a5.75,5.75,0,0,0,3.28,4.4c2.87,1.124,12.544-6.257,12.78-8.3.167-1.412,2.521-4.951,3.971-7.009,10.608-5.034,43.335-19.135,43.335-19.135S143.261,52.171,149.889,48.8s12.552-16.705,1.762-21.694" transform="translate(126.251 102.281)" fill="#e8e8e8"/>
            <path id="Trazado_140007" data-name="Trazado 140007" d="M146.754,30.625,79.712,16.607l-42.2,25.886L19.762,57.164" transform="translate(130.3 109.501)" fill="none" stroke="#d2d5d0" stroke-miterlimit="10" stroke-width="0.15"/>
            <path id="Trazado_140008" data-name="Trazado 140008" d="M42.206,22.859a3.276,3.276,0,1,0-4.442,1.314,3.277,3.277,0,0,0,4.442-1.314" transform="translate(237.724 118.828)" fill="#d2d5d0"/>
            <path id="Trazado_140009" data-name="Trazado 140009" d="M33.227,21.082A3.276,3.276,0,1,0,28.785,22.4a3.277,3.277,0,0,0,4.442-1.314" transform="translate(178.522 107.111)" fill="#d2d5d0"/>
            <path id="Trazado_140010" data-name="Trazado 140010" d="M27.819,24.422a3.276,3.276,0,1,0-4.442,1.314,3.277,3.277,0,0,0,4.442-1.314" transform="translate(142.865 129.133)" fill="#d2d5d0"/>
            <path id="Trazado_140011" data-name="Trazado 140011" d="M25.5,26.291A3.276,3.276,0,1,0,21.058,27.6,3.277,3.277,0,0,0,25.5,26.291" transform="translate(127.575 141.456)" fill="#d2d5d0"/>
            <path id="Trazado_140012" data-name="Trazado 140012" d="M119.962,43.6s-6.842-21.451-21.14-31.581S72.845,13.275,63.49,17.049,47.878,12.2,40.8,6.525,19.144,10.382,25.029,29.753,56.914,53.095,68.881,47.878s19.3-15.832,29.576-13.63,18.232,12.005,18.232,12.005Z" transform="translate(156.005 32.295)" fill="#e8e8e8"/>
            <path id="Trazado_140013" data-name="Trazado 140013" d="M103.311,27.548,78.344,8.466,39.815,24.42l-14.5-18.1" transform="translate(166.892 41.654)" fill="none" stroke="#d2d5d0" stroke-miterlimit="10" stroke-width="0.15"/>
            <path id="Trazado_140014" data-name="Trazado 140014" d="M32.939,13.11A3.272,3.272,0,1,0,28.5,14.424a3.271,3.271,0,0,0,4.442-1.314" transform="translate(176.639 54.526)" fill="#d2d5d0"/>
            <path id="Trazado_140015" data-name="Trazado 140015" d="M31.059,10.725a3.272,3.272,0,1,0-4.442,1.314,3.277,3.277,0,0,0,4.442-1.314" transform="translate(164.243 38.801)" fill="#d2d5d0"/>
            <path id="Trazado_140016" data-name="Trazado 140016" d="M38.014,11.009a3.272,3.272,0,1,0-4.442,1.314,3.271,3.271,0,0,0,4.442-1.314" transform="translate(210.1 40.674)" fill="#d2d5d0"/>
            <path id="Trazado_140017" data-name="Trazado 140017" d="M41.3,13.522a3.272,3.272,0,1,0-4.442,1.314A3.277,3.277,0,0,0,41.3,13.522" transform="translate(231.779 57.243)" fill="#d2d5d0"/>
            <path id="Trazado_140018" data-name="Trazado 140018" d="M65.542,36.549S22.73,91.761,23.087,98.367s6.4,15.9,16.736,11.838,48.7-27.655,61.347-44.011S88.5,15.128,65.542,36.549" transform="translate(152.206 196.258)" fill="#e8e8e8"/>
            <path id="Trazado_140019" data-name="Trazado 140019" d="M39.17,28.9s45.75.9,81.636,14.8,35.438,17.047,34.087,22.431S141.438,75.1,98.376,76.45,41.858,74.2,27.955,56.259" transform="translate(184.318 190.551)" fill="#89767a"/>
            <path id="Trazado_140020" data-name="Trazado 140020" d="M125.355,71.045S111.937,62.016,96.735,58.09s-44.277-13.3-45.621-14.207S36.5,31.954,34.841,32.637s-24.276,29.4-24.428,31.4-.213,3,3.933,1.291,4.974-2.043,7.047-2.9,23.843-6.9,23.843-6.9,55.546,32.424,62.987,35.188a33.18,33.18,0,0,0,15.1,1.5,21.127,21.127,0,0,0,8.117-4.738" transform="translate(68.353 214.993)" fill="#e8e8e8"/>
            <path id="Trazado_140021" data-name="Trazado 140021" d="M70.88,50.527c-2.245-.7-4.416-1.39-6.723-2.132-7.006-2.252-12.478-4.132-13.042-4.512-1.344-.9-14.617-11.929-16.273-11.246s-24.276,29.4-24.428,31.4-.22,3,3.933,1.291,4.974-2.05,7.047-2.9,23.836-6.9,23.836-6.9,7.115,4.154,16.592,9.613a30.7,30.7,0,0,1,9.059-14.61" transform="translate(68.352 214.993)" fill="#e8e8e8"/>
            <path id="Trazado_140022" data-name="Trazado 140022" d="M39.694,51.5l8.429-9.932c-4.389-3.463-12.051-9.439-13.281-8.93-1.663.683-24.276,29.4-24.428,31.4s-.22,3.007,3.933,1.3,4.974-2.05,7.047-2.908,23.836-6.9,23.836-6.9l.281.167c-1.367-2.726-5.817-4.192-5.817-4.192" transform="translate(68.352 214.993)" fill="#ddd7d7"/>
            <path id="Trazado_140023" data-name="Trazado 140023" d="M164.253,33.207l-44.095,43.95L46.791,43.185,26.577,49.29l-16.2,10.79" transform="translate(68.392 218.949)" fill="none" stroke="#d2d5d0" stroke-miterlimit="10" stroke-width="0.15"/>
            <path id="Trazado_140024" data-name="Trazado 140024" d="M30.457,43.148A3.273,3.273,0,1,0,26.1,44.719a3.279,3.279,0,0,0,4.359-1.572" transform="translate(159.689 253.71)" fill="#d2d5d0"/>
            <path id="Trazado_140025" data-name="Trazado 140025" d="M21.125,38.91a3.273,3.273,0,1,0-4.359,1.572,3.279,3.279,0,0,0,4.359-1.572" transform="translate(98.159 225.767)" fill="#d2d5d0"/>
            <path id="Trazado_140026" data-name="Trazado 140026" d="M18.313,39.563a3.273,3.273,0,1,0-4.359,1.572,3.279,3.279,0,0,0,4.359-1.572" transform="translate(79.619 230.073)" fill="#d2d5d0"/>
            <path id="Trazado_140027" data-name="Trazado 140027" d="M16.4,40.919a3.273,3.273,0,1,0-4.359,1.572A3.279,3.279,0,0,0,16.4,40.919" transform="translate(67.032 239.014)" fill="#d2d5d0"/>
            <path id="Trazado_140028" data-name="Trazado 140028" d="M85.39,139.12c2.931-.972,10.54-.934,15.764-2.483-5.217-5.444-9.507-9.955-9.507-9.955S79.771,45.478,77.356,39.2s-6.788-8-12.453-5.725l-25.1,13.3S85.5,138.3,85.39,139.12" transform="translate(262.463 214.393)" fill="#e8e8e8"/>
            <path id="Trazado_140029" data-name="Trazado 140029" d="M56.966,74.5c2.931-.972,10.54-.934,15.764-2.483-5.217-5.444-9.507-9.955-9.507-9.955s-1.352-8.284-3.273-19.75a29.042,29.042,0,0,1-15.832,5.718C51.051,62.006,57.012,74.155,56.966,74.5" transform="translate(290.887 279.008)" fill="#ad9fa1"/>
            <path id="Trazado_140030" data-name="Trazado 140030" d="M53.077,72.636c2.688-.463,30.176-12.628,33.7-15.923S94.529,46.948,90.786,46,83.1,48.512,76.761,49.545s-26.1-4.708-26.1-4.708c-1.321,4.047,4.556,10.745,4.556,10.745L45.81,57.875S50.389,73.1,53.077,72.636" transform="translate(302.043 295.63)" fill="#ddd7d7"/>
            <path id="Trazado_140031" data-name="Trazado 140031" d="M198.222,140.158l-20.6,8.406-21.869-6.3L129.267,54.8,29.573,30.79" transform="translate(194.988 203.015)" fill="none" stroke="#d2d5d0" stroke-miterlimit="10" stroke-width="0.15"/>
            <path id="Trazado_140032" data-name="Trazado 140032" d="M52.305,48.312a3.273,3.273,0,1,0-3.273,3.273,3.273,3.273,0,0,0,3.273-3.273" transform="translate(301.713 296.962)" fill="#d2d5d0"/>
            <path id="Trazado_140033" data-name="Trazado 140033" d="M48.816,36.795a3.273,3.273,0,1,0-3.273,3.273,3.273,3.273,0,0,0,3.273-3.273" transform="translate(278.709 221.026)" fill="#d2d5d0"/>
            <path id="Trazado_140034" data-name="Trazado 140034" d="M35.688,33.633a3.273,3.273,0,1,0-3.273,3.273,3.273,3.273,0,0,0,3.273-3.273" transform="translate(192.151 200.177)" fill="#d2d5d0"/>
            <path id="Trazado_140035" data-name="Trazado 140035" d="M55.184,49.143a3.273,3.273,0,1,0-3.273,3.273,3.273,3.273,0,0,0,3.273-3.273" transform="translate(320.696 302.441)" fill="#d2d5d0"/>
            <path id="Trazado_140036" data-name="Trazado 140036" d="M57.676,48.146A3.273,3.273,0,1,0,54.4,51.418a3.273,3.273,0,0,0,3.273-3.273" transform="translate(337.126 295.867)" fill="#d2d5d0"/>
            <line id="Línea_466" data-name="Línea 466" x2="322.848" transform="translate(89.571 406.827)" fill="none" stroke="#283841" stroke-miterlimit="10" stroke-width="0.15"/>
            <path id="Trazado_140037" data-name="Trazado 140037" d="M121.275,25.231S105.017,9.657,87.606,7.6,65.395,21.108,58.979,28.9s-16.03,3.2-24.959,1.6S16.835,44.237,31.27,58.437s39.159,5.27,47.178-5.034,9.385-23.129,19.469-26.114,21.755,1.838,21.755,1.838Z" transform="translate(154.456 48.875)" fill="#283841"/>
            <path id="Trazado_140038" data-name="Trazado 140038" d="M121.275,25.231S105.017,9.657,87.606,7.6,65.395,21.108,58.979,28.9s-16.03,3.2-24.959,1.6S16.835,44.237,31.27,58.437s39.159,5.27,47.178-5.034,9.385-23.129,19.469-26.114,21.755,1.838,21.755,1.838Z" transform="translate(154.456 48.875)" fill="none" stroke="#283841" stroke-miterlimit="10" stroke-width="0.15"/>
            <path id="Trazado_140039" data-name="Trazado 140039" d="M103.524,13.541,72.475,8.712,46.255,41.143,24.865,32.168" transform="translate(163.942 57.442)" fill="none" stroke="#d2d5d0" stroke-miterlimit="10" stroke-width="0.15"/>
            <path id="Trazado_140040" data-name="Trazado 140040" d="M33.8,15.825A3.273,3.273,0,1,0,30.523,19.1,3.273,3.273,0,0,0,33.8,15.825" transform="translate(179.67 82.762)" fill="#d2d5d0"/>
            <path id="Trazado_140041" data-name="Trazado 140041" d="M31,14.628A3.273,3.273,0,1,0,27.732,17.9,3.273,3.273,0,0,0,31,14.628" transform="translate(161.268 74.87)" fill="#d2d5d0"/>
            <path id="Trazado_140042" data-name="Trazado 140042" d="M37.256,11.554a3.277,3.277,0,1,0-3.28,3.273,3.28,3.28,0,0,0,3.28-3.273" transform="translate(202.437 54.602)" fill="#d2d5d0"/>
            <path id="Trazado_140043" data-name="Trazado 140043" d="M41.339,12.19a3.273,3.273,0,1,0-3.273,3.273,3.273,3.273,0,0,0,3.273-3.273" transform="translate(229.404 58.795)" fill="#d2d5d0"/>
            <path id="Trazado_140044" data-name="Trazado 140044" d="M40.434,29.718,70.67,66.85l42.493-30.624S125.411,16.7,126.937,16.7s12.635,8.421,11.868,12.635-9.568,9.947-12.248,11.094a61.07,61.07,0,0,1-7.274,2.3S76.411,85.985,70.67,86.365,42.727,66.85,42.727,66.85,32.392,39.673,40.434,29.718" transform="translate(246.399 110.131)" fill="#fff"/>
            <path id="Trazado_140045" data-name="Trazado 140045" d="M40.434,29.718,70.67,66.85l42.493-30.624S125.411,16.7,126.937,16.7s12.635,8.421,11.868,12.635-9.568,9.947-12.248,11.094a61.07,61.07,0,0,1-7.274,2.3S76.411,85.985,70.67,86.365,42.727,66.85,42.727,66.85,32.392,39.673,40.434,29.718Z" transform="translate(246.399 110.131)" fill="none" stroke="#283841" stroke-miterlimit="10" stroke-width="0.15"/>
            <path id="Trazado_140046" data-name="Trazado 140046" d="M47.149,37.353c0-1.557,6.219-14.929,6.219-14.929s4.047-6.227,5.293-5.6,8.4,5.915,7.464,7.464-7.153-.926-7.153-.926,3.728,6.53-1.245,11.193" transform="translate(310.871 110.614)" fill="#fff"/>
            <path id="Trazado_140047" data-name="Trazado 140047" d="M47.149,37.353c0-1.557,6.219-14.929,6.219-14.929s4.047-6.227,5.293-5.6,8.4,5.915,7.464,7.464-7.153-.926-7.153-.926,3.728,6.53-1.245,11.193" transform="translate(310.871 110.614)" fill="none" stroke="#283841" stroke-miterlimit="10" stroke-width="0.15"/>
            <line id="Línea_467" data-name="Línea 467" x2="6.842" y2="5.908" transform="translate(371.398 135.832)" fill="none" stroke="#283841" stroke-miterlimit="10" stroke-width="0.15"/>
            <path id="Trazado_140048" data-name="Trazado 140048" d="M36.9,33.343,71.865,73.079l47.694-37.618L137.571,17.45" transform="translate(243.279 115.056)" fill="none" stroke="#d2d5d0" stroke-miterlimit="10" stroke-width="0.15"/>
            <path id="Trazado_140049" data-name="Trazado 140049" d="M47.618,27.618a3.273,3.273,0,1,0-3.273,3.273,3.273,3.273,0,0,0,3.273-3.273" transform="translate(270.803 160.518)" fill="#d2d5d0"/>
            <path id="Trazado_140050" data-name="Trazado 140050" d="M53.884,22.574a3.273,3.273,0,1,0-3.273,3.273,3.273,3.273,0,0,0,3.273-3.273" transform="translate(312.124 127.261)" fill="#d2d5d0"/>
            <path id="Trazado_140051" data-name="Trazado 140051" d="M40.526,13.533S45.09,7.724,58.363,7.314,74.954,18.924,72.046,23.07s-7.882,6.637-6.637,8.71,2.491,7.054-1.655,7.472-6.637-1.663-7.054-5.4-10.783-19.9-16.174-20.32" transform="translate(267.203 48.158)" fill="#283841"/>
            <path id="Trazado_140052" data-name="Trazado 140052" d="M40.526,13.533S45.09,7.724,58.363,7.314,74.954,18.924,72.046,23.07s-7.882,6.637-6.637,8.71,2.491,7.054-1.655,7.472-6.637-1.663-7.054-5.4S45.917,13.951,40.526,13.533Z" transform="translate(267.203 48.158)" fill="none" stroke="#283841" stroke-miterlimit="10" stroke-width="0.15"/>
            <path id="Trazado_140053" data-name="Trazado 140053" d="M96.1,33.164s-.813-7.745-7.745-15.893S64.308,5.038,52.492,9.116s-16.3,13.448-17.116,25.271S45.559,61.693,48.415,64.548s2.035,7.745.41,9.78-2.445,3.265-2.445,3.265l12.635,23.638s4.07-18.748,7.335-24.048a42.786,42.786,0,0,1,4.89-6.933S87.953,75.14,90.8,72.7,98.546,55.17,98.546,55.17s5.7-2.445,4.89-5.293S96.511,45.8,96.1,40.91a37.954,37.954,0,0,1,0-7.745" transform="translate(232.966 49.56)" fill="#fff"/>
            <path id="Trazado_140054" data-name="Trazado 140054" d="M96.1,33.164s-.813-7.745-7.745-15.893S64.308,5.038,52.492,9.116s-16.3,13.448-17.116,25.271S45.559,61.693,48.415,64.548s2.035,7.745.41,9.78-2.445,3.265-2.445,3.265l12.635,23.638s4.07-18.748,7.335-24.048a42.786,42.786,0,0,1,4.89-6.933S87.953,75.14,90.8,72.7,98.546,55.17,98.546,55.17s5.7-2.445,4.89-5.293S96.511,45.8,96.1,40.91A37.954,37.954,0,0,1,96.1,33.164Z" transform="translate(232.966 49.56)" fill="none" stroke="#283841" stroke-miterlimit="10" stroke-width="0.15"/>
            <path id="Trazado_140055" data-name="Trazado 140055" d="M45.039,14.609c0,1.466-.592,2.658-1.329,2.658s-1.329-1.192-1.329-2.658.592-2.658,1.329-2.658,1.329,1.192,1.329,2.658" transform="translate(279.434 78.8)" fill="#283841"/>
            <path id="Trazado_140056" data-name="Trazado 140056" d="M41.914,11.888a5.422,5.422,0,0,1,6.644.888" transform="translate(276.355 73.327)" fill="none" stroke="#283841" stroke-miterlimit="10" stroke-width="0.15"/>
            <path id="Trazado_140057" data-name="Trazado 140057" d="M48.28,16.993s-5.125.509-6.151-3.075" transform="translate(277.773 91.769)" fill="none" stroke="#283841" stroke-miterlimit="10" stroke-width="0.15"/>
            <path id="Trazado_140058" data-name="Trazado 140058" d="M88.363,17.267C81.43,9.112,64.307,5.042,52.492,9.112s-16.3,13.455-17.115,25.271c-.8,11.588,9.757,26.691,12.863,29.971,2.969.129,9.947-1.238,15.255-15.293,0,0,4.48.813,7.753-4.488,3.258-5.3-.418-10.593,4.062-16.705,3.736-5.08,14.184-4.252,17.632-3.827a37.494,37.494,0,0,0-4.579-6.773" transform="translate(232.966 49.557)" fill="#283841"/>
            <path id="Trazado_140059" data-name="Trazado 140059" d="M88.363,17.267C81.43,9.112,64.307,5.042,52.492,9.112s-16.3,13.455-17.115,25.271c-.8,11.588,9.757,26.691,12.863,29.971,2.969.129,9.947-1.238,15.255-15.293,0,0,4.48.813,7.753-4.488,3.258-5.3-.418-10.593,4.062-16.705,3.736-5.08,14.184-4.252,17.632-3.827A37.494,37.494,0,0,0,88.363,17.267Z" transform="translate(232.966 49.557)" fill="none" stroke="#283841" stroke-miterlimit="10" stroke-width="0.15"/>
            <path id="Trazado_140060" data-name="Trazado 140060" d="M51.091,20.687s-5.7-11-10.6-8.148-1.625,11.815.82,15.483S49.868,26.8,49.868,26.8" transform="translate(250.26 79.563)" fill="#fff"/>
            <path id="Trazado_140061" data-name="Trazado 140061" d="M51.091,20.687s-5.7-11-10.6-8.148-1.625,11.815.82,15.483S49.868,26.8,49.868,26.8" transform="translate(250.26 79.563)" fill="none" stroke="#283841" stroke-miterlimit="10" stroke-width="0.15"/>
            <path id="Trazado_140062" data-name="Trazado 140062" d="M100.553,16.385S118.542,55.043,121.6,62.7s-1.147,16.083-6.5,21.823a37.11,37.11,0,0,1-10.342,8.034c-1.147.767-13.395,19.523-17.989,33.684s-6.508,26.03-20.282,30.244-34.451-5.748-38.278-22.2S33.564,102.889,43.906,96s17.6-13.395,20.282-17.989,7.654-26.8,12.248-39.045,17.989-24.876,24.117-22.583" transform="translate(180.159 106.243)" fill="#283841"/>
            <path id="Trazado_140063" data-name="Trazado 140063" d="M100.553,16.385S118.542,55.043,121.6,62.7s-1.147,16.083-6.5,21.823a37.11,37.11,0,0,1-10.342,8.034c-1.147.767-13.395,19.523-17.989,33.684s-6.508,26.03-20.282,30.244-34.451-5.748-38.278-22.2S33.564,102.889,43.906,96s17.6-13.395,20.282-17.989,7.654-26.8,12.248-39.045S94.425,14.092,100.553,16.385Z" transform="translate(180.159 106.243)" fill="none" stroke="#283841" stroke-miterlimit="10" stroke-width="0.15"/>
            <path id="Trazado_140064" data-name="Trazado 140064" d="M99.859,84.52c5.361-5.741,9.568-14.162,6.508-21.816S85.31,16.385,85.31,16.385C79.189,14.092,65.795,26.72,61.2,38.968S51.633,73.419,48.953,78.013c-2.6,4.45-9.507,10.691-19.318,17.336a86.363,86.363,0,0,0,43.677,26.06C78.7,108.159,88.5,93.238,89.524,92.562A37.357,37.357,0,0,0,99.859,84.52" transform="translate(195.395 106.243)" fill="#e8e8e8"/>
            <path id="Trazado_140065" data-name="Trazado 140065" d="M99.859,84.52c5.361-5.741,9.568-14.162,6.508-21.816S85.31,16.385,85.31,16.385C79.189,14.092,65.795,26.72,61.2,38.968S51.633,73.419,48.953,78.013c-2.6,4.45-9.507,10.691-19.318,17.336a86.363,86.363,0,0,0,43.677,26.06C78.7,108.159,88.5,93.238,89.524,92.562A37.357,37.357,0,0,0,99.859,84.52Z" transform="translate(195.395 106.243)" fill="none" stroke="#283841" stroke-miterlimit="10" stroke-width="0.15"/>
            <path id="Trazado_140066" data-name="Trazado 140066" d="M35.356,20.779s5.551,22.2,9.082,27.754" transform="translate(233.116 137.006)" fill="none" stroke="#283841" stroke-miterlimit="10" stroke-width="0.15"/>
            <path id="Trazado_140067" data-name="Trazado 140067" d="M34.692,20.979s5.05,13.121,7.062,19.173" transform="translate(228.738 138.325)" fill="none" stroke="#283841" stroke-miterlimit="10" stroke-width="0.15"/>
            <path id="Trazado_140068" data-name="Trazado 140068" d="M30.9,28.206S49.067,31.236,67.74,26.7" transform="translate(203.762 176.013)" fill="none" stroke="#283841" stroke-miterlimit="10" stroke-width="0.15"/>
            <path id="Trazado_140069" data-name="Trazado 140069" d="M32.166,31.248S54.84,30.071,69,25.7" transform="translate(212.083 169.432)" fill="none" stroke="#283841" stroke-miterlimit="10" stroke-width="0.15"/>
            <path id="Trazado_140070" data-name="Trazado 140070" d="M105.5,11.01l-18.672,53.5L62.1,121.524l-31.793,53.5" transform="translate(199.818 72.595)" fill="none" stroke="#d2d5d0" stroke-miterlimit="10" stroke-width="0.15"/>
            <path id="Trazado_140071" data-name="Trazado 140071" d="M46.323,13.852a3.273,3.273,0,1,0-3.273,3.273,3.273,3.273,0,0,0,3.273-3.273" transform="translate(262.265 69.754)" fill="#d2d5d0"/>
            <path id="Trazado_140072" data-name="Trazado 140072" d="M43.863,20.9a3.273,3.273,0,1,0-3.273,3.273A3.273,3.273,0,0,0,43.863,20.9" transform="translate(246.052 116.204)" fill="#d2d5d0"/>
            <path id="Trazado_140073" data-name="Trazado 140073" d="M40.614,28.406a3.277,3.277,0,1,0-3.28,3.273,3.28,3.28,0,0,0,3.28-3.273" transform="translate(224.577 165.714)" fill="#d2d5d0"/>
            <path id="Trazado_140074" data-name="Trazado 140074" d="M36.421,35.451a3.273,3.273,0,1,0-3.273,3.273,3.273,3.273,0,0,0,3.273-3.273" transform="translate(196.977 212.164)" fill="#d2d5d0"/>
            <path id="Trazado_140075" data-name="Trazado 140075" d="M38.664,44.305s-15.248,68.181-12.111,74.013,12.559,11.663,20.183,3.584S79.03,76.152,83.518,55.969,50.327,15.146,38.664,44.305" transform="translate(172.266 196.681)" fill="#283841"/>
            <path id="Trazado_140076" data-name="Trazado 140076" d="M38.664,44.305s-15.248,68.181-12.111,74.013,12.559,11.663,20.183,3.584S79.03,76.152,83.518,55.969,50.327,15.146,38.664,44.305Z" transform="translate(172.266 196.681)" fill="none" stroke="#283841" stroke-miterlimit="10" stroke-width="0.15"/>
            <path id="Trazado_140077" data-name="Trazado 140077" d="M87.532,39.828S74.077,48.8,64.653,61.355,35.5,97.242,34.158,98.138s-16.6,8.975-16.6,10.767S35.5,142.544,37.294,143.44s2.688,1.352,2.688-3.136V132.68c0-2.248,2.7-24.671,2.7-24.671S93.812,68.987,99.2,63.155s11.215-17.5,11.215-17.5" transform="translate(115.773 262.603)" fill="#283841"/>
            <path id="Trazado_140078" data-name="Trazado 140078" d="M87.532,39.828S74.077,48.8,64.653,61.355,35.5,97.242,34.158,98.138s-16.6,8.975-16.6,10.767S35.5,142.544,37.294,143.44s2.688,1.352,2.688-3.136V132.68c0-2.248,2.7-24.671,2.7-24.671S64.083,91.674,80.9,78.37c8.8-6.962,16.4-13.157,18.3-15.215,5.384-5.832,11.215-17.5,11.215-17.5" transform="translate(115.773 262.603)" fill="none" stroke="#283841" stroke-miterlimit="10" stroke-width="0.15"/>
            <path id="Trazado_140079" data-name="Trazado 140079" d="M47.819,45.434C40.924,53.726,34.872,60.7,34.151,61.183c-1.344.9-16.592,8.975-16.592,10.767s17.936,33.639,19.735,34.535,2.688,1.344,2.688-3.136V95.725c0-2.248,2.688-24.671,2.688-24.671s6.553-5,15.21-11.686A30.653,30.653,0,0,1,47.819,45.434" transform="translate(115.773 299.566)" fill="#fff"/>
            <path id="Trazado_140080" data-name="Trazado 140080" d="M47.819,45.434C40.924,53.726,34.872,60.7,34.151,61.183c-1.344.9-16.592,8.975-16.592,10.767s17.936,33.639,19.735,34.535,2.688,1.344,2.688-3.136V95.725c0-2.248,2.688-24.671,2.688-24.671s6.553-5,15.21-11.686A30.653,30.653,0,0,1,47.819,45.434Z" transform="translate(115.773 299.566)" fill="none" stroke="#283841" stroke-miterlimit="10" stroke-width="0.15"/>
            <path id="Trazado_140081" data-name="Trazado 140081" d="M36.846,59.335,30.87,47.755C26,50.5,17.559,55.31,17.559,56.647c0,1.792,17.943,33.639,19.735,34.535s2.688,1.344,2.688-3.136V80.414c0-2.24,2.7-24.671,2.7-24.671l.258-.19c-3.037.228-6.09,3.782-6.09,3.782" transform="translate(115.773 314.869)" fill="#fff"/>
            <path id="Trazado_140082" data-name="Trazado 140082" d="M36.846,59.335,30.87,47.755C26,50.5,17.559,55.31,17.559,56.647c0,1.792,17.943,33.639,19.735,34.535s2.688,1.344,2.688-3.136V80.414c0-2.24,2.7-24.671,2.7-24.671l.258-.19C39.9,55.781,36.846,59.335,36.846,59.335Z" transform="translate(115.773 314.869)" fill="none" stroke="#283841" stroke-miterlimit="10" stroke-width="0.15"/>
            <path id="Trazado_140083" data-name="Trazado 140083" d="M101.622,33.207,80.429,91.745,24.413,146.751l-4.541,23.722,4.541,16.652" transform="translate(131.022 218.949)" fill="none" stroke="#d2d5d0" stroke-miterlimit="10" stroke-width="0.15"/>
            <path id="Trazado_140084" data-name="Trazado 140084" d="M33.761,43.758a3.273,3.273,0,1,0-3.273,3.273,3.273,3.273,0,0,0,3.273-3.273" transform="translate(179.446 266.935)" fill="#d2d5d0"/>
            <path id="Trazado_140085" data-name="Trazado 140085" d="M26.584,51a3.273,3.273,0,1,0-3.273,3.273A3.273,3.273,0,0,0,26.584,51" transform="translate(132.125 314.698)" fill="#d2d5d0"/>
            <path id="Trazado_140086" data-name="Trazado 140086" d="M26.02,54.126A3.273,3.273,0,1,0,22.748,57.4a3.273,3.273,0,0,0,3.273-3.273" transform="translate(128.406 335.296)" fill="#d2d5d0"/>
            <path id="Trazado_140087" data-name="Trazado 140087" d="M26.552,56.119a3.273,3.273,0,1,0-3.273,3.273,3.273,3.273,0,0,0,3.273-3.273" transform="translate(131.907 348.436)" fill="#d2d5d0"/>
            <path id="Trazado_140088" data-name="Trazado 140088" d="M39.17,28.9s45.75.9,81.636,14.8,35.438,17.047,34.087,22.431S141.438,75.1,98.376,76.45,41.858,74.2,27.955,56.259" transform="translate(184.318 190.551)" fill="#283841"/>
            <path id="Trazado_140090" data-name="Trazado 140090" d="M88.2,41.674,46.485,109.407s-15.248,4.48-14.8,7.176,8.968,28.7,10.767,33.191,6.28,10.768,8.52,7.624.448-8.072,1.792-14.352,6.728-28.711,6.728-28.711,64.149-63.245,68.181-68.621,4.04-8.975-.9-12.559" transform="translate(208.85 218.599)" fill="#283841"/>
            <path id="Trazado_140091" data-name="Trazado 140091" d="M88.2,41.674,46.485,109.407s-15.248,4.48-14.8,7.176,8.968,28.7,10.767,33.191,6.28,10.768,8.52,7.624.448-8.072,1.792-14.352,6.728-28.711,6.728-28.711,64.149-63.245,68.181-68.621,4.04-8.975-.9-12.559" transform="translate(208.85 218.599)" fill="none" stroke="#283841" stroke-miterlimit="10" stroke-width="0.15"/>
            <path id="Trazado_140092" data-name="Trazado 140092" d="M59.743,40.361,46.485,61.881s-15.248,4.488-14.8,7.183,8.968,28.7,10.767,33.191,6.28,10.767,8.52,7.624.448-8.072,1.792-14.351,6.728-28.711,6.728-28.711,5.839-5.756,14.1-13.941c-9.241-2.111-12.628-8.444-13.85-12.514" transform="translate(208.85 266.118)" fill="#fff"/>
            <path id="Trazado_140093" data-name="Trazado 140093" d="M59.743,40.361,46.485,61.881s-15.248,4.488-14.8,7.183,8.968,28.7,10.767,33.191,6.28,10.767,8.52,7.624.448-8.072,1.792-14.351,6.728-28.711,6.728-28.711,5.839-5.756,14.1-13.941C64.352,50.764,60.966,44.431,59.743,40.361Z" transform="translate(208.85 266.118)" fill="none" stroke="#283841" stroke-miterlimit="10" stroke-width="0.15"/>
            <path id="Trazado_140094" data-name="Trazado 140094" d="M31.685,50.372c.448,2.688,8.968,28.711,10.767,33.191s6.28,10.767,8.52,7.624.448-8.072,1.792-14.351,6.728-28.7,6.728-28.7c-4.032-1.352-10.76,4.48-10.76,4.48L46.485,43.2s-15.248,4.488-14.8,7.176" transform="translate(208.85 284.81)" fill="#fff"/>
            <path id="Trazado_140095" data-name="Trazado 140095" d="M31.685,50.372c.448,2.688,8.968,28.711,10.767,33.191s6.28,10.767,8.52,7.624.448-8.072,1.792-14.351,6.728-28.7,6.728-28.7c-4.032-1.352-10.76,4.48-10.76,4.48L46.485,43.2S31.237,47.684,31.685,50.372Z" transform="translate(208.85 284.81)" fill="none" stroke="#283841" stroke-miterlimit="10" stroke-width="0.15"/>
            <path id="Trazado_140096" data-name="Trazado 140096" d="M29.309,30.748,131.25,53.46,70.184,129.151l-5.551,25.233,1.944,18.877" transform="translate(193.243 202.736)" fill="none" stroke="#d2d5d0" stroke-miterlimit="10" stroke-width="0.15"/>
            <path id="Trazado_140097" data-name="Trazado 140097" d="M35.356,33.524A3.273,3.273,0,1,0,32.084,36.8a3.273,3.273,0,0,0,3.273-3.273" transform="translate(189.962 199.459)" fill="#d2d5d0"/>
            <path id="Trazado_140098" data-name="Trazado 140098" d="M48.649,36.581a3.273,3.273,0,1,0-3.273,3.273,3.273,3.273,0,0,0,3.273-3.273" transform="translate(277.601 219.615)" fill="#d2d5d0"/>
            <path id="Trazado_140099" data-name="Trazado 140099" d="M40.939,46.682a3.273,3.273,0,1,0-3.273,3.273,3.273,3.273,0,0,0,3.273-3.273" transform="translate(226.773 286.214)" fill="#d2d5d0"/>
            <path id="Trazado_140100" data-name="Trazado 140100" d="M40.075,49.872A3.273,3.273,0,1,0,36.8,53.145a3.273,3.273,0,0,0,3.273-3.273" transform="translate(221.076 307.247)" fill="#d2d5d0"/>
            <path id="Trazado_140101" data-name="Trazado 140101" d="M40.407,52.432A3.273,3.273,0,1,0,37.135,55.7a3.273,3.273,0,0,0,3.273-3.273" transform="translate(223.265 324.126)" fill="#d2d5d0"/>
            <path id="Trazado_140102" data-name="Trazado 140102" d="M124.979,17.182s-61.241,19.135-65.068,22.2c-3.128,2.5-20.768,36.577-27.162,49.053,0,0-10.35,12.954-10.35,16.781s8.034,5.741,8.034,5.741a5.745,5.745,0,0,0,4.974,2.3c3.068-.387,8.041-11.489,7.274-13.4-.524-1.321-.144-5.551.144-8.049,6.918-9.492,28.946-37.5,28.946-37.5s57.8-11.1,62.008-17.229,3.068-20.669-8.8-19.9" transform="translate(147.692 113.1)" fill="#fff"/>
            <path id="Trazado_140103" data-name="Trazado 140103" d="M124.979,17.182s-61.241,19.135-65.068,22.2c-3.128,2.5-20.768,36.577-27.162,49.053,0,0-10.35,12.954-10.35,16.781s8.034,5.741,8.034,5.741a5.745,5.745,0,0,0,4.974,2.3c3.068-.387,8.041-11.489,7.274-13.4-.524-1.321-.144-5.551.144-8.049,6.918-9.492,28.946-37.5,28.946-37.5s57.8-11.1,62.008-17.229S136.847,16.415,124.979,17.182Z" transform="translate(147.692 113.1)" fill="none" stroke="#283841" stroke-miterlimit="10" stroke-width="0.15"/>
            <path id="Trazado_140104" data-name="Trazado 140104" d="M122.385,18.453,56.778,38.135,32.054,81.03l-8.6,21.36" transform="translate(154.669 121.672)" fill="none" stroke="#d2d5d0" stroke-miterlimit="10" stroke-width="0.15"/>
            <path id="Trazado_140105" data-name="Trazado 140105" d="M42.6,21.295a3.273,3.273,0,1,0-3.273,3.273A3.273,3.273,0,0,0,42.6,21.295" transform="translate(237.724 118.828)" fill="#d2d5d0"/>
            <path id="Trazado_140106" data-name="Trazado 140106" d="M33.863,24.02a3.273,3.273,0,1,0-3.273,3.273,3.273,3.273,0,0,0,3.273-3.273" transform="translate(180.111 136.795)" fill="#d2d5d0"/>
            <path id="Trazado_140107" data-name="Trazado 140107" d="M30.7,29.536a3.273,3.273,0,1,0-3.273,3.273A3.273,3.273,0,0,0,30.7,29.536" transform="translate(159.29 173.164)" fill="#d2d5d0"/>
            <path id="Trazado_140108" data-name="Trazado 140108" d="M29.56,32.285a3.273,3.273,0,1,0-3.273,3.273,3.273,3.273,0,0,0,3.273-3.273" transform="translate(151.74 191.289)" fill="#d2d5d0"/>
            <path id="Trazado_607202" data-name="Trazado 607202" d="M0,0H359.767V17.6H0Z" transform="translate(65.531 12.613)" fill="#12263f"/>
            <rect id="Rectángulo_10014" data-name="Rectángulo 10014" width="359.767" height="17.601" transform="translate(65.531 12.613)" fill="none" stroke="#283841" stroke-linecap="round" stroke-linejoin="round" stroke-width="0.15"/>
            <path id="Trazado_140109" data-name="Trazado 140109" d="M17.078,5.915a3.736,3.736,0,1,1-3.736-3.736,3.733,3.733,0,0,1,3.736,3.736" transform="translate(63.336 14.369)" fill="#d2d5d0"/>
            <path id="Trazado_140110" data-name="Trazado 140110" d="M17.078,5.915a3.736,3.736,0,1,1-3.736-3.736A3.733,3.733,0,0,1,17.078,5.915Z" transform="translate(63.336 14.369)" fill="none" stroke="#283841" stroke-linecap="round" stroke-linejoin="round" stroke-width="0.15"/>
            <path id="Trazado_140111" data-name="Trazado 140111" d="M18.568,5.915a3.736,3.736,0,1,1-3.736-3.736,3.733,3.733,0,0,1,3.736,3.736" transform="translate(73.16 14.369)" fill="#d2d5d0"/>
            <path id="Trazado_140112" data-name="Trazado 140112" d="M18.568,5.915a3.736,3.736,0,1,1-3.736-3.736A3.733,3.733,0,0,1,18.568,5.915Z" transform="translate(73.16 14.369)" fill="none" stroke="#283841" stroke-linecap="round" stroke-linejoin="round" stroke-width="0.15"/>
            <path id="Trazado_140113" data-name="Trazado 140113" d="M20.059,5.915a3.736,3.736,0,1,1-3.736-3.736,3.733,3.733,0,0,1,3.736,3.736" transform="translate(82.991 14.369)" fill="#d2d5d0"/>
            <path id="Trazado_140114" data-name="Trazado 140114" d="M20.059,5.915a3.736,3.736,0,1,1-3.736-3.736A3.733,3.733,0,0,1,20.059,5.915Z" transform="translate(82.991 14.369)" fill="none" stroke="#283841" stroke-linecap="round" stroke-linejoin="round" stroke-width="0.15"/>
            <rect id="Rectángulo_10015" data-name="Rectángulo 10015" width="109.117" height="150.486" transform="translate(29.712 326.529)" fill="#e8e8e8"/>
            <rect id="Rectángulo_10016" data-name="Rectángulo 10016" width="109.117" height="150.486" transform="translate(29.712 326.529)" fill="none" stroke="#283841" stroke-linecap="round" stroke-linejoin="round" stroke-width="0.15"/>
            <path id="Trazado_607220" data-name="Trazado 607220" d="M0,0H109.117V32.447H0Z" transform="translate(29.712 326.529)" fill="#455a64"/>
            <rect id="Rectángulo_10018" data-name="Rectángulo 10018" width="109.117" height="32.447" transform="translate(29.712 326.529)" fill="none" stroke="#283841" stroke-linecap="round" stroke-linejoin="round" stroke-width="0.15"/>
            <ellipse id="Elipse_5677" data-name="Elipse 5677" cx="4.837" cy="4.837" rx="4.837" ry="4.837" transform="translate(39.711 340.164)" fill="none" stroke="#fff" stroke-linecap="round" stroke-linejoin="round" stroke-width="0.15"/>
            <line id="Línea_468" data-name="Línea 468" x1="4.837" y2="5.376" transform="translate(35.948 348.764)" fill="none" stroke="#fff" stroke-linecap="round" stroke-linejoin="round" stroke-width="0.15"/>
            <line id="Línea_469" data-name="Línea 469" x2="106.786" transform="translate(30.271 358.706)" fill="none" stroke="#283841" stroke-linecap="round" stroke-linejoin="round" stroke-width="0.15"/>
            <rect id="Rectángulo_10019" data-name="Rectángulo 10019" width="109.117" height="13.205" transform="translate(29.712 323.226)" fill="#12263f"/>
            <rect id="Rectángulo_10020" data-name="Rectángulo 10020" width="109.117" height="13.205" transform="translate(29.712 323.226)" fill="none" stroke="#283841" stroke-linecap="round" stroke-linejoin="round" stroke-width="0.15"/>
            <path id="Trazado_140115" data-name="Trazado 140115" d="M9.076,48.986a3.535,3.535,0,1,1-3.539-3.539,3.537,3.537,0,0,1,3.539,3.539" transform="translate(35.586 281.129)" fill="#806e73"/>
            <path id="Trazado_140116" data-name="Trazado 140116" d="M9.076,48.986a3.535,3.535,0,1,1-3.539-3.539A3.537,3.537,0,0,1,9.076,48.986Z" transform="translate(35.586 281.129)" fill="#e8e8e8" stroke="#283841" stroke-linecap="round" stroke-linejoin="round" stroke-width="0.15"/>
            <path id="Trazado_140117" data-name="Trazado 140117" d="M10.628,48.986A3.535,3.535,0,1,1,7.09,45.447a3.537,3.537,0,0,1,3.539,3.539" transform="translate(45.819 281.129)" fill="#806e73"/>
            <path id="Trazado_140118" data-name="Trazado 140118" d="M10.628,48.986A3.535,3.535,0,1,1,7.09,45.447,3.537,3.537,0,0,1,10.628,48.986Z" transform="translate(45.819 281.129)" fill="#e8e8e8" stroke="#283841" stroke-linecap="round" stroke-linejoin="round" stroke-width="0.15"/>
            <path id="Trazado_140119" data-name="Trazado 140119" d="M12.18,48.986a3.535,3.535,0,1,1-3.539-3.539,3.537,3.537,0,0,1,3.539,3.539" transform="translate(56.052 281.129)" fill="#806e73"/>
            <path id="Trazado_140120" data-name="Trazado 140120" d="M12.18,48.986a3.535,3.535,0,1,1-3.539-3.539A3.537,3.537,0,0,1,12.18,48.986Z" transform="translate(56.052 281.129)" fill="#e8e8e8" stroke="#283841" stroke-linecap="round" stroke-linejoin="round" stroke-width="0.15"/>
            <line id="Línea_470" data-name="Línea 470" x2="106.786" transform="translate(30.271 381.197)" fill="none" stroke="#283841" stroke-linecap="round" stroke-linejoin="round" stroke-width="0.15"/>
            <path id="Trazado_140121" data-name="Trazado 140121" d="M12.216,54.8,2.049,50.678v8.246Z" transform="translate(35.861 315.617)" fill="#26aab7"/>
            <line id="Línea_471" data-name="Línea 471" x2="106.786" transform="translate(30.271 403.689)" fill="none" stroke="#283841" stroke-linecap="round" stroke-linejoin="round" stroke-width="0.15"/>
            <path id="Trazado_140122" data-name="Trazado 140122" d="M12.216,57.763,2.049,53.64v8.246Z" transform="translate(35.861 335.146)" fill="#26aab7"/>
            <line id="Línea_472" data-name="Línea 472" x2="106.786" transform="translate(30.271 426.18)" fill="none" stroke="#283841" stroke-linecap="round" stroke-linejoin="round" stroke-width="0.15"/>
            <path id="Trazado_140123" data-name="Trazado 140123" d="M12.216,60.725,2.049,56.6v8.246Z" transform="translate(35.861 354.676)" fill="#26aab7"/>
            <path id="Trazado_607205" data-name="Trazado 607205" d="M0,0H106.786" transform="translate(30.271 448.672)" fill="none" stroke="#283841" stroke-linecap="round" stroke-width="0.15"/>
            <path id="Trazado_140124" data-name="Trazado 140124" d="M12.216,63.687,2.049,59.564V67.81Z" transform="translate(35.861 374.206)" fill="#26aab7"/>
            <line id="Línea_474" data-name="Línea 474" x2="106.786" transform="translate(30.271 471.164)" fill="none" stroke="#283841" stroke-linecap="round" stroke-linejoin="round" stroke-width="0.15"/>
            <path id="Trazado_140125" data-name="Trazado 140125" d="M12.216,66.649,2.049,62.526v8.246Z" transform="translate(35.861 393.735)" fill="#26aab7"/>
            <line id="Línea_475" data-name="Línea 475" x2="61.856" transform="translate(59.323 369.951)" fill="none" stroke="#fff" stroke-linecap="round" stroke-linejoin="round" stroke-width="0.15"/>
            <line id="Línea_476" data-name="Línea 476" x2="61.856" transform="translate(59.323 392.647)" fill="none" stroke="#fff" stroke-linecap="round" stroke-linejoin="round" stroke-width="0.15"/>
            <line id="Línea_477" data-name="Línea 477" x2="61.856" transform="translate(59.323 415.342)" fill="none" stroke="#fff" stroke-linecap="round" stroke-linejoin="round" stroke-width="0.15"/>
            <line id="Línea_478" data-name="Línea 478" x2="61.856" transform="translate(59.323 438.363)" fill="none" stroke="#fff" stroke-linecap="round" stroke-linejoin="round" stroke-width="0.15"/>
            <line id="Línea_479" data-name="Línea 479" x2="61.856" transform="translate(59.323 460.733)" fill="none" stroke="#fff" stroke-linecap="round" stroke-linejoin="round" stroke-width="0.15"/>
            <rect id="Rectángulo_10021" data-name="Rectángulo 10021" width="351.361" height="69.586" transform="translate(168.528 441.054)" fill="#e8e8e8"/>
            <rect id="Rectángulo_10022" data-name="Rectángulo 10022" width="351.361" height="69.586" transform="translate(168.528 441.054)" fill="none" stroke="#283841" stroke-linecap="round" stroke-linejoin="round" stroke-width="0.15"/>
            <line id="Línea_480" data-name="Línea 480" y2="3.136" transform="translate(222.999 442.333)" fill="none" stroke="#fff" stroke-linecap="round" stroke-linejoin="round" stroke-width="0.15"/>
            <line id="Línea_481" data-name="Línea 481" y2="3.136" transform="translate(229.559 442.333)" fill="none" stroke="#fff" stroke-linecap="round" stroke-linejoin="round" stroke-width="0.15"/>
            <line id="Línea_482" data-name="Línea 482" y2="3.136" transform="translate(236.119 442.333)" fill="none" stroke="#fff" stroke-linecap="round" stroke-linejoin="round" stroke-width="0.15"/>
            <line id="Línea_483" data-name="Línea 483" y2="3.136" transform="translate(242.678 442.333)" fill="none" stroke="#fff" stroke-linecap="round" stroke-linejoin="round" stroke-width="0.15"/>
            <line id="Línea_484" data-name="Línea 484" y2="3.136" transform="translate(249.238 442.333)" fill="none" stroke="#fff" stroke-linecap="round" stroke-linejoin="round" stroke-width="0.15"/>
            <line id="Línea_485" data-name="Línea 485" y2="3.136" transform="translate(255.798 442.333)" fill="none" stroke="#fff" stroke-linecap="round" stroke-linejoin="round" stroke-width="0.15"/>
            <line id="Línea_486" data-name="Línea 486" y2="3.136" transform="translate(262.357 442.333)" fill="none" stroke="#fff" stroke-linecap="round" stroke-linejoin="round" stroke-width="0.15"/>
            <line id="Línea_487" data-name="Línea 487" y2="3.136" transform="translate(268.917 442.333)" fill="none" stroke="#fff" stroke-linecap="round" stroke-linejoin="round" stroke-width="0.15"/>
            <line id="Línea_488" data-name="Línea 488" y2="3.136" transform="translate(275.476 442.333)" fill="none" stroke="#fff" stroke-linecap="round" stroke-linejoin="round" stroke-width="0.15"/>
            <line id="Línea_489" data-name="Línea 489" y2="3.136" transform="translate(282.036 442.333)" fill="none" stroke="#fff" stroke-linecap="round" stroke-linejoin="round" stroke-width="0.15"/>
            <line id="Línea_490" data-name="Línea 490" y2="3.136" transform="translate(288.595 442.333)" fill="none" stroke="#fff" stroke-linecap="round" stroke-linejoin="round" stroke-width="0.15"/>
            <line id="Línea_491" data-name="Línea 491" y2="3.136" transform="translate(295.155 442.333)" fill="none" stroke="#fff" stroke-linecap="round" stroke-linejoin="round" stroke-width="0.15"/>
            <line id="Línea_492" data-name="Línea 492" y2="3.136" transform="translate(301.715 442.333)" fill="none" stroke="#fff" stroke-linecap="round" stroke-linejoin="round" stroke-width="0.15"/>
            <line id="Línea_493" data-name="Línea 493" y2="3.136" transform="translate(308.274 442.333)" fill="none" stroke="#fff" stroke-linecap="round" stroke-linejoin="round" stroke-width="0.15"/>
            <line id="Línea_494" data-name="Línea 494" y2="3.136" transform="translate(314.834 442.333)" fill="none" stroke="#fff" stroke-linecap="round" stroke-linejoin="round" stroke-width="0.15"/>
            <line id="Línea_495" data-name="Línea 495" y2="3.136" transform="translate(321.393 442.333)" fill="none" stroke="#fff" stroke-linecap="round" stroke-linejoin="round" stroke-width="0.15"/>
            <line id="Línea_496" data-name="Línea 496" y2="3.136" transform="translate(327.953 442.333)" fill="none" stroke="#fff" stroke-linecap="round" stroke-linejoin="round" stroke-width="0.15"/>
            <line id="Línea_497" data-name="Línea 497" y2="3.136" transform="translate(334.512 442.333)" fill="none" stroke="#fff" stroke-linecap="round" stroke-linejoin="round" stroke-width="0.15"/>
            <line id="Línea_498" data-name="Línea 498" y2="3.136" transform="translate(341.072 442.333)" fill="none" stroke="#fff" stroke-linecap="round" stroke-linejoin="round" stroke-width="0.15"/>
            <line id="Línea_499" data-name="Línea 499" y2="3.136" transform="translate(347.631 442.333)" fill="none" stroke="#fff" stroke-linecap="round" stroke-linejoin="round" stroke-width="0.15"/>
            <line id="Línea_500" data-name="Línea 500" y2="3.136" transform="translate(354.191 442.333)" fill="none" stroke="#fff" stroke-linecap="round" stroke-linejoin="round" stroke-width="0.15"/>
            <line id="Línea_501" data-name="Línea 501" y2="3.136" transform="translate(360.75 442.333)" fill="none" stroke="#fff" stroke-linecap="round" stroke-linejoin="round" stroke-width="0.15"/>
            <line id="Línea_502" data-name="Línea 502" y2="3.136" transform="translate(367.31 442.333)" fill="none" stroke="#fff" stroke-linecap="round" stroke-linejoin="round" stroke-width="0.15"/>
            <line id="Línea_503" data-name="Línea 503" y2="3.136" transform="translate(373.869 442.333)" fill="none" stroke="#fff" stroke-linecap="round" stroke-linejoin="round" stroke-width="0.15"/>
            <line id="Línea_504" data-name="Línea 504" y2="3.136" transform="translate(380.429 442.333)" fill="none" stroke="#fff" stroke-linecap="round" stroke-linejoin="round" stroke-width="0.15"/>
            <line id="Línea_505" data-name="Línea 505" y2="3.136" transform="translate(386.988 442.333)" fill="none" stroke="#fff" stroke-linecap="round" stroke-linejoin="round" stroke-width="0.15"/>
            <line id="Línea_506" data-name="Línea 506" y2="3.136" transform="translate(393.978 442.333)" fill="none" stroke="#fff" stroke-linecap="round" stroke-linejoin="round" stroke-width="0.15"/>
            <line id="Línea_507" data-name="Línea 507" y2="3.136" transform="translate(400.968 442.333)" fill="none" stroke="#fff" stroke-linecap="round" stroke-linejoin="round" stroke-width="0.15"/>
            <line id="Línea_508" data-name="Línea 508" y2="3.136" transform="translate(407.958 442.333)" fill="none" stroke="#fff" stroke-linecap="round" stroke-linejoin="round" stroke-width="0.15"/>
            <line id="Línea_509" data-name="Línea 509" y2="3.136" transform="translate(414.948 442.333)" fill="none" stroke="#fff" stroke-linecap="round" stroke-linejoin="round" stroke-width="0.15"/>
            <line id="Línea_510" data-name="Línea 510" y2="3.136" transform="translate(421.938 442.333)" fill="none" stroke="#fff" stroke-linecap="round" stroke-linejoin="round" stroke-width="0.15"/>
            <line id="Línea_511" data-name="Línea 511" y2="3.136" transform="translate(428.927 442.333)" fill="none" stroke="#fff" stroke-linecap="round" stroke-linejoin="round" stroke-width="0.15"/>
            <line id="Línea_512" data-name="Línea 512" y2="3.136" transform="translate(435.917 442.333)" fill="none" stroke="#fff" stroke-linecap="round" stroke-linejoin="round" stroke-width="0.15"/>
            <line id="Línea_513" data-name="Línea 513" y2="3.136" transform="translate(442.907 442.333)" fill="none" stroke="#fff" stroke-linecap="round" stroke-linejoin="round" stroke-width="0.15"/>
            <line id="Línea_514" data-name="Línea 514" y2="3.136" transform="translate(449.897 442.333)" fill="none" stroke="#fff" stroke-linecap="round" stroke-linejoin="round" stroke-width="0.15"/>
            <line id="Línea_515" data-name="Línea 515" y2="3.136" transform="translate(456.886 442.333)" fill="none" stroke="#fff" stroke-linecap="round" stroke-linejoin="round" stroke-width="0.15"/>
            <line id="Línea_516" data-name="Línea 516" y2="3.136" transform="translate(463.876 442.333)" fill="none" stroke="#fff" stroke-linecap="round" stroke-linejoin="round" stroke-width="0.15"/>
            <line id="Línea_517" data-name="Línea 517" y2="3.136" transform="translate(470.866 442.333)" fill="none" stroke="#fff" stroke-linecap="round" stroke-linejoin="round" stroke-width="0.15"/>
            <line id="Línea_518" data-name="Línea 518" y2="3.136" transform="translate(477.855 442.333)" fill="none" stroke="#fff" stroke-linecap="round" stroke-linejoin="round" stroke-width="0.15"/>
            <line id="Línea_519" data-name="Línea 519" y2="3.136" transform="translate(484.845 442.333)" fill="none" stroke="#fff" stroke-linecap="round" stroke-linejoin="round" stroke-width="0.15"/>
            <line id="Línea_520" data-name="Línea 520" y2="3.136" transform="translate(491.835 442.333)" fill="none" stroke="#fff" stroke-linecap="round" stroke-linejoin="round" stroke-width="0.15"/>
            <line id="Línea_521" data-name="Línea 521" y2="3.136" transform="translate(498.825 442.333)" fill="none" stroke="#fff" stroke-linecap="round" stroke-linejoin="round" stroke-width="0.15"/>
            <line id="Línea_522" data-name="Línea 522" y2="3.136" transform="translate(505.814 442.333)" fill="none" stroke="#fff" stroke-linecap="round" stroke-linejoin="round" stroke-width="0.15"/>
            <line id="Línea_523" data-name="Línea 523" y2="3.136" transform="translate(512.804 442.333)" fill="none" stroke="#fff" stroke-linecap="round" stroke-linejoin="round" stroke-width="0.15"/>
            <line id="Línea_524" data-name="Línea 524" y2="3.136" transform="translate(526.783 442.333)" fill="none" stroke="#fff" stroke-linecap="round" stroke-linejoin="round" stroke-width="0.15"/>
            <line id="Línea_525" data-name="Línea 525" y2="3.136" transform="translate(457.63 442.333)" fill="none" stroke="#fff" stroke-linecap="round" stroke-linejoin="round" stroke-width="0.15"/>
            <line id="Línea_526" data-name="Línea 526" y2="3.136" transform="translate(464.619 442.333)" fill="none" stroke="#fff" stroke-linecap="round" stroke-linejoin="round" stroke-width="0.15"/>
            <line id="Línea_527" data-name="Línea 527" y2="3.136" transform="translate(471.609 442.333)" fill="none" stroke="#fff" stroke-linecap="round" stroke-linejoin="round" stroke-width="0.15"/>
            <line id="Línea_528" data-name="Línea 528" y2="3.136" transform="translate(478.599 442.333)" fill="none" stroke="#fff" stroke-linecap="round" stroke-linejoin="round" stroke-width="0.15"/>
            <line id="Línea_529" data-name="Línea 529" y2="3.136" transform="translate(485.588 442.333)" fill="none" stroke="#fff" stroke-linecap="round" stroke-linejoin="round" stroke-width="0.15"/>
            <line id="Línea_530" data-name="Línea 530" y2="3.136" transform="translate(492.578 442.333)" fill="none" stroke="#fff" stroke-linecap="round" stroke-linejoin="round" stroke-width="0.15"/>
            <line id="Línea_531" data-name="Línea 531" y2="3.136" transform="translate(499.568 442.333)" fill="none" stroke="#fff" stroke-linecap="round" stroke-linejoin="round" stroke-width="0.15"/>
            <line id="Línea_532" data-name="Línea 532" y2="3.136" transform="translate(506.558 442.333)" fill="none" stroke="#fff" stroke-linecap="round" stroke-linejoin="round" stroke-width="0.15"/>
            <line id="Línea_533" data-name="Línea 533" y2="3.136" transform="translate(513.547 442.333)" fill="none" stroke="#fff" stroke-linecap="round" stroke-linejoin="round" stroke-width="0.15"/>
            <rect id="Rectángulo_10023" data-name="Rectángulo 10023" width="303.697" height="6.348" transform="translate(216.275 447.744)" fill="#d2d5d0"/>
            <rect id="Rectángulo_10024" data-name="Rectángulo 10024" width="183.578" height="6.348" transform="translate(260.278 460.774)" fill="#fb8c00"/>
            <rect id="Rectángulo_10025" data-name="Rectángulo 10025" width="12.932" height="6.348" transform="translate(460.918 460.774)" fill="#283841"/>
            <rect id="Rectángulo_10026" data-name="Rectángulo 10026" width="88.539" height="6.348" transform="translate(216.275 473.971)" fill="#d2d5d0"/>
            <rect id="Rectángulo_10027" data-name="Rectángulo 10027" width="88.539" height="6.348" transform="translate(408.554 473.971)" fill="#d2d5d0"/>
            <rect id="Rectángulo_10028" data-name="Rectángulo 10028" width="351.361" height="62.896" transform="translate(168.528 447.744)" fill="none" stroke="#283841" stroke-linecap="round" stroke-linejoin="round" stroke-width="0.15"/>
            <rect id="Rectángulo_10029" data-name="Rectángulo 10029" width="47.747" height="62.896" transform="translate(168.528 447.744)" fill="none" stroke="#283841" stroke-linecap="round" stroke-linejoin="round" stroke-width="0.15"/>
            <line id="Línea_534" data-name="Línea 534" x2="351.475" transform="translate(168.494 454.09)" fill="none" stroke="#283841" stroke-linecap="round" stroke-linejoin="round" stroke-width="0.15"/>
            <line id="Línea_535" data-name="Línea 535" x2="351.475" transform="translate(168.494 460.773)" fill="none" stroke="#283841" stroke-linecap="round" stroke-linejoin="round" stroke-width="0.15"/>
            <path id="Trazado_607203" data-name="Trazado 607203" d="M0,0H351.475" transform="translate(168.494 467.456)" fill="none" stroke="#283841" stroke-linecap="round" stroke-width="0.15"/>
            <line id="Línea_537" data-name="Línea 537" x2="351.475" transform="translate(168.494 474.138)" fill="none" stroke="#283841" stroke-linecap="round" stroke-linejoin="round" stroke-width="0.15"/>
            <line id="Línea_538" data-name="Línea 538" x2="351.475" transform="translate(168.494 480.821)" fill="none" stroke="#283841" stroke-linecap="round" stroke-linejoin="round" stroke-width="0.15"/>
            <path id="Trazado_140126" data-name="Trazado 140126" d="M35.343,63.272,33.62,64.555,32,63.272V58.26h3.341Z" transform="translate(211.003 384.136)" fill="#fff"/>
            <path id="Trazado_140127" data-name="Trazado 140127" d="M35.343,63.272,33.62,64.555,32,63.272V58.26h3.341Z" transform="translate(211.003 384.136)" fill="none" stroke="#283841" stroke-linecap="round" stroke-linejoin="round" stroke-width="0.15"/>
            <path id="Trazado_140128" data-name="Trazado 140128" d="M50.654,63.272,48.93,64.555l-1.617-1.283V58.26h3.341Z" transform="translate(311.952 384.136)" fill="#fff"/>
            <path id="Trazado_140129" data-name="Trazado 140129" d="M50.654,63.272,48.93,64.555l-1.617-1.283V58.26h3.341Z" transform="translate(311.952 384.136)" fill="none" stroke="#283841" stroke-linecap="round" stroke-linejoin="round" stroke-width="0.15"/>
            <path id="Trazado_140130" data-name="Trazado 140130" d="M65.965,63.272l-1.724,1.283-1.617-1.283V58.26h3.341Z" transform="translate(412.901 384.136)" fill="#fff"/>
            <path id="Trazado_140131" data-name="Trazado 140131" d="M65.965,63.272l-1.724,1.283-1.617-1.283V58.26h3.341Z" transform="translate(412.901 384.136)" fill="none" stroke="#283841" stroke-linecap="round" stroke-linejoin="round" stroke-width="0.15"/>
            <line id="Línea_539" data-name="Línea 539" y2="32.568" transform="translate(244.62 448.694)" fill="none" stroke="#283841" stroke-linecap="round" stroke-linejoin="round" stroke-width="0.15"/>
            <rect id="Rectángulo_10030" data-name="Rectángulo 10030" width="12.552" height="2.855" transform="translate(200.754 449.316)" fill="#12263f"/>
            <rect id="Rectángulo_10031" data-name="Rectángulo 10031" width="12.552" height="2.855" transform="translate(200.754 455.876)" fill="#12263f"/>
            <rect id="Rectángulo_10032" data-name="Rectángulo 10032" width="12.552" height="2.855" transform="translate(200.754 462.437)" fill="#12263f"/>
            <rect id="Rectángulo_10033" data-name="Rectángulo 10033" width="12.552" height="2.855" transform="translate(200.754 468.998)" fill="#12263f"/>
            <rect id="Rectángulo_10035" data-name="Rectángulo 10035" width="7.7" height="2.855" transform="translate(190.769 449.316)" fill="#12263f"/>
            <rect id="Rectángulo_10036" data-name="Rectángulo 10036" width="7.7" height="2.855" transform="translate(190.769 455.876)" fill="#12263f"/>
            <rect id="Rectángulo_10037" data-name="Rectángulo 10037" width="7.7" height="2.855" transform="translate(190.769 462.437)" fill="#12263f"/>
            <rect id="Rectángulo_10038" data-name="Rectángulo 10038" width="7.7" height="2.855" transform="translate(190.769 468.998)" fill="#12263f"/>
            <rect id="Rectángulo_10039" data-name="Rectángulo 10039" width="7.7" height="2.855" transform="translate(190.769 475.558)" fill="#12263f"/>
            <rect id="Rectángulo_10040" data-name="Rectángulo 10040" width="123.225" height="161.731" transform="translate(379.236 165.642)" fill="#e8e8e8"/>
            <rect id="Rectángulo_10041" data-name="Rectángulo 10041" width="123.225" height="161.731" transform="translate(379.236 165.642)" fill="none" stroke="#283841" stroke-linecap="round" stroke-linejoin="round" stroke-width="0.15"/>
            <path id="Trazado_607204" data-name="Trazado 607204" d="M0,0H123.225V13.2H0Z" transform="translate(379.236 162.339)" fill="#12263f"/>
            <rect id="Rectángulo_10043" data-name="Rectángulo 10043" width="123.225" height="13.205" transform="translate(379.236 162.339)" fill="none" stroke="#283841" stroke-linecap="round" stroke-linejoin="round" stroke-width="0.15"/>
            <rect id="Rectángulo_10044" data-name="Rectángulo 10044" width="50.321" height="46.365" rx="0.521" transform="translate(413.624 186.852)" fill="none" stroke="#283841" stroke-linecap="round" stroke-linejoin="round" stroke-width="0.15"/>
            <path id="Trazado_140132" data-name="Trazado 140132" d="M69.833,32.434a5.372,5.372,0,1,1-5.368-5.369,5.368,5.368,0,0,1,5.368,5.369" transform="translate(389.59 178.452)" fill="#d2d5d0"/>
            <path id="Trazado_140133" data-name="Trazado 140133" d="M69.833,32.434a5.372,5.372,0,1,1-5.368-5.369A5.368,5.368,0,0,1,69.833,32.434Z" transform="translate(389.59 178.452)" fill="none" stroke="#283841" stroke-linecap="round" stroke-linejoin="round" stroke-width="0.15"/>
            <line id="Línea_540" data-name="Línea 540" x1="73.512" transform="translate(406.115 252.665)" fill="none" stroke="#283841" stroke-linecap="round" stroke-linejoin="round" stroke-width="0.15"/>
            <line id="Línea_541" data-name="Línea 541" x1="73.512" transform="translate(406.115 269.628)" fill="none" stroke="#283841" stroke-linecap="round" stroke-linejoin="round" stroke-width="0.15"/>
            <line id="Línea_542" data-name="Línea 542" x1="73.512" transform="translate(406.115 286.592)" fill="none" stroke="#283841" stroke-linecap="round" stroke-linejoin="round" stroke-width="0.15"/>
            <line id="Línea_543" data-name="Línea 543" x1="73.512" transform="translate(406.115 303.555)" fill="none" stroke="#283841" stroke-linecap="round" stroke-linejoin="round" stroke-width="0.15"/>
            <path id="Trazado_140134" data-name="Trazado 140134" d="M69.85,37.935a5.372,5.372,0,1,1-5.369-5.368,5.368,5.368,0,0,1,5.369,5.368" transform="translate(389.702 214.729)" fill="#d2d5d0"/>
            <path id="Trazado_140135" data-name="Trazado 140135" d="M69.85,37.935a5.372,5.372,0,1,1-5.369-5.368A5.368,5.368,0,0,1,69.85,37.935Z" transform="translate(389.702 214.729)" fill="none" stroke="#283841" stroke-linecap="round" stroke-linejoin="round" stroke-width="0.15"/>
            <path id="Trazado_140136" data-name="Trazado 140136" d="M66.425,42.254a5.372,5.372,0,1,1-5.368-5.368,5.368,5.368,0,0,1,5.368,5.368" transform="translate(367.12 243.206)" fill="#d2d5d0"/>
            <path id="Trazado_140137" data-name="Trazado 140137" d="M66.425,42.254a5.372,5.372,0,1,1-5.368-5.368A5.368,5.368,0,0,1,66.425,42.254Z" transform="translate(367.12 243.206)" fill="none" stroke="#283841" stroke-linecap="round" stroke-linejoin="round" stroke-width="0.15"/>
            <path id="Trazado_140138" data-name="Trazado 140138" d="M71.191,44.564a5.372,5.372,0,1,1-5.369-5.369,5.368,5.368,0,0,1,5.369,5.369" transform="translate(398.544 258.43)" fill="#d2d5d0"/>
            <path id="Trazado_140139" data-name="Trazado 140139" d="M71.191,44.564a5.372,5.372,0,1,1-5.369-5.369A5.368,5.368,0,0,1,71.191,44.564Z" transform="translate(398.544 258.43)" fill="none" stroke="#283841" stroke-linecap="round" stroke-linejoin="round" stroke-width="0.15"/>
            <path id="Trazado_140140" data-name="Trazado 140140" d="M69.85,40.1a5.372,5.372,0,1,1-5.369-5.368A5.368,5.368,0,0,1,69.85,40.1" transform="translate(389.702 228.971)" fill="#d2d5d0"/>
            <path id="Trazado_140141" data-name="Trazado 140141" d="M69.85,40.1a5.372,5.372,0,1,1-5.369-5.368A5.368,5.368,0,0,1,69.85,40.1Z" transform="translate(389.702 228.971)" fill="none" stroke="#283841" stroke-linecap="round" stroke-linejoin="round" stroke-width="0.15"/>
            <path id="Trazado_140142" data-name="Trazado 140142" d="M58.051,25.36a3.535,3.535,0,1,1-3.539-3.539,3.537,3.537,0,0,1,3.539,3.539" transform="translate(336.144 143.876)" fill="#e8e8e8"/>
            <path id="Trazado_140143" data-name="Trazado 140143" d="M58.051,25.36a3.535,3.535,0,1,1-3.539-3.539A3.537,3.537,0,0,1,58.051,25.36Z" transform="translate(336.144 143.876)" fill="none" stroke="#283841" stroke-linecap="round" stroke-linejoin="round" stroke-width="0.15"/>
            <path id="Trazado_140144" data-name="Trazado 140144" d="M59.61,25.36a3.538,3.538,0,1,1-3.546-3.539A3.539,3.539,0,0,1,59.61,25.36" transform="translate(346.37 143.876)" fill="#806e73"/>
            <path id="Trazado_140145" data-name="Trazado 140145" d="M59.61,25.36a3.538,3.538,0,1,1-3.546-3.539A3.539,3.539,0,0,1,59.61,25.36Z" transform="translate(346.37 143.876)" fill="#e8e8e8" stroke="#283841" stroke-linecap="round" stroke-linejoin="round" stroke-width="0.15"/>
            <path id="Trazado_140146" data-name="Trazado 140146" d="M61.154,25.36a3.535,3.535,0,1,1-3.539-3.539,3.537,3.537,0,0,1,3.539,3.539" transform="translate(356.603 143.876)" fill="#e8e8e8"/>
            <path id="Trazado_140147" data-name="Trazado 140147" d="M61.154,25.36a3.535,3.535,0,1,1-3.539-3.539A3.537,3.537,0,0,1,61.154,25.36Z" transform="translate(356.603 143.876)" fill="none" stroke="#283841" stroke-linecap="round" stroke-linejoin="round" stroke-width="0.15"/>
          </g>
        </g>
      </g>
    </g>
    <g id="Grupo_890179" data-name="Grupo 890179" transform="translate(180 6562.585)">
      <rect id="Rectángulo_301033" data-name="Rectángulo 301033" width="123.368" height="129.268" fill="#455a64"/>
      <path id="Trazado_607208" data-name="Trazado 607208" d="M0,0H123.368V11.9H0Z" fill="#fb8c00"/>
      <path id="Trazado_607206" data-name="Trazado 607206" d="M7.093,8.137,3.079,4.123l.377-.375L7.47,7.762Z" fill="#263238"/>
      <path id="Trazado_607207" data-name="Trazado 607207" d="M3.456,8.137l-.378-.375L7.093,3.748l.377.375Z" fill="#263238"/>
      <rect id="Rectángulo_301035" data-name="Rectángulo 301035" width="0.531" height="3.37" transform="translate(114.945 5.951) rotate(-45)" fill="#263238"/>
      <rect id="Rectángulo_301036" data-name="Rectángulo 301036" width="3.369" height="0.531" transform="translate(114.946 5.95) rotate(-45)" fill="#263238"/>
      <rect id="Rectángulo_301037" data-name="Rectángulo 301037" width="0.531" height="3.37" transform="translate(117.573 5.951) rotate(-44.988)" fill="#263238"/>
      <rect id="Rectángulo_301038" data-name="Rectángulo 301038" width="3.369" height="0.531" transform="translate(117.573 5.95) rotate(-45)" fill="#263238"/>
      <rect id="Rectángulo_301039" data-name="Rectángulo 301039" width="112.429" height="21.195" transform="translate(5.469 18.19)" fill="#37474f"/>
      <rect id="Rectángulo_301040" data-name="Rectángulo 301040" width="13.332" height="13.332" transform="translate(10.459 22.079)" fill="#dee4f0"/>
      <rect id="Rectángulo_301041" data-name="Rectángulo 301041" width="1.106" height="13.332" transform="translate(31.365 22.079)" fill="#263238"/>
      <rect id="Rectángulo_301042" data-name="Rectángulo 301042" width="64.624" height="3.658" transform="translate(42.116 26.958)" fill="#263238"/>
      <rect id="Rectángulo_301043" data-name="Rectángulo 301043" width="112.429" height="21.195" transform="translate(5.469 39.385)" fill="#455a64"/>
      <rect id="Rectángulo_301044" data-name="Rectángulo 301044" width="13.332" height="13.332" transform="translate(10.459 43.274)" fill="#b2ebf2"/>
      <rect id="Rectángulo_301045" data-name="Rectángulo 301045" width="1.106" height="13.332" transform="translate(31.365 43.274)" fill="#37474f"/>
      <rect id="Rectángulo_301046" data-name="Rectángulo 301046" width="64.624" height="3.658" transform="translate(42.116 48.153)" fill="#37474f"/>
      <rect id="Rectángulo_301047" data-name="Rectángulo 301047" width="112.429" height="21.195" transform="translate(5.469 60.58)" fill="#37474f"/>
      <rect id="Rectángulo_301048" data-name="Rectángulo 301048" width="13.332" height="13.332" transform="translate(10.459 64.469)" fill="#fb8c00"/>
      <rect id="Rectángulo_301049" data-name="Rectángulo 301049" width="1.106" height="13.332" transform="translate(31.365 64.469)" fill="#263238"/>
      <rect id="Rectángulo_301050" data-name="Rectángulo 301050" width="64.624" height="3.658" transform="translate(42.116 69.348)" fill="#263238"/>
      <rect id="Rectángulo_301051" data-name="Rectángulo 301051" width="112.429" height="21.195" transform="translate(5.469 81.774)" fill="#455a64"/>
      <rect id="Rectángulo_301052" data-name="Rectángulo 301052" width="13.332" height="13.332" transform="translate(10.459 85.664)" fill="#26aab7"/>
      <rect id="Rectángulo_301053" data-name="Rectángulo 301053" width="1.106" height="13.332" transform="translate(31.365 85.664)" fill="#37474f"/>
      <rect id="Rectángulo_301054" data-name="Rectángulo 301054" width="64.624" height="3.658" transform="translate(42.116 90.543)" fill="#37474f"/>
      <rect id="Rectángulo_301055" data-name="Rectángulo 301055" width="112.429" height="21.195" transform="translate(5.469 102.969)" fill="#37474f"/>
      <rect id="Rectángulo_301056" data-name="Rectángulo 301056" width="13.332" height="13.332" transform="translate(10.459 106.859)" fill="#a6a6a6"/>
      <rect id="Rectángulo_301057" data-name="Rectángulo 301057" width="1.106" height="13.332" transform="translate(31.365 106.859)" fill="#263238"/>
      <rect id="Rectángulo_301058" data-name="Rectángulo 301058" width="64.624" height="3.658" transform="translate(42.116 111.738)" fill="#263238"/>
    </g>
    <g id="Grupo_890180" data-name="Grupo 890180" transform="translate(475 6846.032)">
      <rect id="Rectángulo_301059" data-name="Rectángulo 301059" width="182.914" height="26.478" transform="translate(0 11.901)" fill="#455a64"/>
      <path id="Trazado_607216" data-name="Trazado 607216" d="M0,0H182.914V11.9H0Z" transform="translate(0 -0.001)" fill="#fb8c00"/>
      <path id="Trazado_607209" data-name="Trazado 607209" d="M7.093,8.137,3.079,4.123l.377-.376L7.47,7.762Z" fill="#263238"/>
      <path id="Trazado_607210" data-name="Trazado 607210" d="M3.456,8.137l-.378-.375L7.093,3.747l.377.376Z" fill="#263238"/>
      <rect id="Rectángulo_301061" data-name="Rectángulo 301061" width="0.531" height="3.37" transform="matrix(0.707, -0.707, 0.707, 0.707, 174.493, 5.95)" fill="#263238"/>
      <rect id="Rectángulo_301062" data-name="Rectángulo 301062" width="3.369" height="0.531" transform="translate(174.492 5.95) rotate(-45)" fill="#263238"/>
      <rect id="Rectángulo_301063" data-name="Rectángulo 301063" width="0.531" height="3.37" transform="matrix(0.707, -0.707, 0.707, 0.707, 177.12, 5.95)" fill="#263238"/>
      <rect id="Rectángulo_301064" data-name="Rectángulo 301064" width="3.369" height="0.531" transform="translate(177.12 5.95) rotate(-45)" fill="#263238"/>
      <path id="Trazado_607211" data-name="Trazado 607211" d="M84.938,31.659V18.622L97.975,25.14Z" fill="#fff"/>
      <path id="Trazado_607212" data-name="Trazado 607212" d="M121.8,31.659V18.622l13.037,6.518Z" fill="#fff"/>
      <rect id="Rectángulo_301065" data-name="Rectángulo 301065" width="1.138" height="13.037" transform="translate(119.109 18.622)" fill="#fff"/>
      <path id="Trazado_607213" data-name="Trazado 607213" d="M61.112,18.622V31.659L48.075,25.141Z" fill="#fff"/>
      <rect id="Rectángulo_301066" data-name="Rectángulo 301066" width="1.138" height="13.037" transform="translate(62.667 18.621)" fill="#fff"/>
      <path id="Trazado_607214" data-name="Trazado 607214" d="M27.986,18.622V31.659L14.949,25.141Z" fill="#fff"/>
      <rect id="Rectángulo_301067" data-name="Rectángulo 301067" width="1.138" height="13.037" transform="translate(13.81 18.621)" fill="#fff"/>
      <path id="Trazado_607215" data-name="Trazado 607215" d="M154.928,31.659V18.622l13.037,6.518Z" fill="#fff"/>
      <rect id="Rectángulo_301068" data-name="Rectángulo 301068" width="1.138" height="13.037" transform="translate(167.966 18.622)" fill="#fff"/>
    </g>
    <g id="Grupo_890181" data-name="Grupo 890181" transform="translate(550.887 6547.774)">
      <rect id="Rectángulo_301069" data-name="Rectángulo 301069" width="75.226" height="26.478" transform="translate(0 11.901)" fill="#ebebeb"/>
      <rect id="Rectángulo_301070" data-name="Rectángulo 301070" width="75.226" height="11.902" transform="translate(0 -0.001)" fill="#dbdbdb"/>
      <path id="Trazado_607217" data-name="Trazado 607217" d="M7.093,8.136,3.079,4.122l.377-.375L7.47,7.761Z" fill="#fff"/>
      <path id="Trazado_607218" data-name="Trazado 607218" d="M3.456,8.136l-.377-.375L7.093,3.747l.377.375Z" fill="#fff"/>
      <rect id="Rectángulo_301071" data-name="Rectángulo 301071" width="0.531" height="3.37" transform="matrix(0.707, -0.707, 0.707, 0.707, 66.804, 5.95)" fill="#fff"/>
      <rect id="Rectángulo_301072" data-name="Rectángulo 301072" width="3.369" height="0.531" transform="translate(66.804 5.95) rotate(-45)" fill="#fff"/>
      <rect id="Rectángulo_301073" data-name="Rectángulo 301073" width="0.531" height="3.37" transform="matrix(0.707, -0.707, 0.707, 0.707, 69.43, 5.95)" fill="#fff"/>
      <path id="Trazado_607219" data-name="Trazado 607219" d="M69.806,6.325,69.43,5.95l2.383-2.383.375.376Z" fill="#fff"/>
      <rect id="Rectángulo_301074" data-name="Rectángulo 301074" width="11.378" height="11.378" transform="translate(8.04 19.19)" fill="#fff"/>
      <rect id="Rectángulo_301075" data-name="Rectángulo 301075" width="11.378" height="11.378" transform="translate(23.962 19.19)" fill="#dbdbdb"/>
      <rect id="Rectángulo_301076" data-name="Rectángulo 301076" width="11.378" height="11.378" transform="translate(39.885 19.19)" fill="#c7c7c7"/>
      <rect id="Rectángulo_301077" data-name="Rectángulo 301077" width="11.378" height="11.378" transform="translate(55.808 19.19)" fill="#a6a6a6"/>
    </g>
  </g>
</svg>
