<svg id="conversacion" xmlns="http://www.w3.org/2000/svg" width="110" height="110" viewBox="0 0 110 110">
  <path id="Trazado_143895" data-name="Trazado 143895" d="M63.782,39.434l-9.614-9.614V18.594A8.594,8.594,0,0,0,45.574,10H18.594A8.594,8.594,0,0,0,10,18.594V37.5a8.594,8.594,0,0,0,8.594,8.594H45.574a8.6,8.6,0,0,0,8.373-6.66Z" transform="translate(-7.852 -7.852)" fill="#26aab7"/>
  <path id="Trazado_143896" data-name="Trazado 143896" d="M251.667,340.66l9.614,9.614V361.5a8.594,8.594,0,0,0,8.594,8.594h26.981a8.594,8.594,0,0,0,8.594-8.594V342.594A8.594,8.594,0,0,0,296.856,334H269.875a8.6,8.6,0,0,0-8.373,6.66Z" transform="translate(-197.598 -262.242)" fill="#b2ebf2"/>
  <path id="Trazado_143897" data-name="Trazado 143897" d="M45.079,376.426H27.8a17.8,17.8,0,0,0-17.8,17.8V403.4H62.879v-9.179A17.8,17.8,0,0,0,45.079,376.426Z" transform="translate(-7.852 -295.553)" fill="#636363"/>
  <path id="Trazado_143898" data-name="Trazado 143898" d="M106.882,376.426l-9.863,9.863-9.863-9.863Z" transform="translate(-68.431 -295.553)" fill="#fff"/>
  <path id="Trazado_143899" data-name="Trazado 143899" d="M87.772,232.1h14.41v7.151a6.716,6.716,0,0,1-6.716,6.716H78.916v-5.011A8.857,8.857,0,0,1,87.772,232.1Z" transform="translate(-61.961 -182.232)" fill="#091946"/>
  <path id="Trazado_143900" data-name="Trazado 143900" d="M102.182,296.642v5.508a11.633,11.633,0,0,1-11.633,11.633h0A11.633,11.633,0,0,1,78.915,302.15v-5.508Z" transform="translate(-61.961 -232.91)" fill="#ffcdac"/>
  <path id="Trazado_143901" data-name="Trazado 143901" d="M290.953,154.329H273.674a17.8,17.8,0,0,0-17.8,17.8v9.179h52.879v-9.179A17.8,17.8,0,0,0,290.953,154.329Z" transform="translate(-200.901 -121.172)" fill="#1565c0"/>
  <path id="Trazado_143902" data-name="Trazado 143902" d="M352.755,154.329l-9.863,9.863-9.863-9.863Z" transform="translate(-261.48 -121.172)" fill="#fff"/>
  <path id="Trazado_143903" data-name="Trazado 143903" d="M333.645,10h14.41v7.151a6.716,6.716,0,0,1-6.716,6.716H324.789V18.857A8.856,8.856,0,0,1,333.645,10Z" transform="translate(-255.01 -7.852)" fill="#ffc870"/>
  <path id="Trazado_143904" data-name="Trazado 143904" d="M348.055,74.546v5.508a11.633,11.633,0,0,1-11.633,11.633h0a11.633,11.633,0,0,1-11.633-11.633V74.546Z" transform="translate(-255.009 -58.53)" fill="#ffcdac"/>
  <path id="Trazado_143905" data-name="Trazado 143905" d="M39.041,253.189a2.148,2.148,0,0,0-.474-.078,13.73,13.73,0,0,0,3.8-9.491v-11.3a2.171,2.171,0,0,0-.024-.3c.014-.2.024-.409.024-.617v-7.151a2.148,2.148,0,0,0-2.148-2.148H25.811a11.017,11.017,0,0,0-11,11V243.62a13.729,13.729,0,0,0,3.8,9.49,2.144,2.144,0,0,0-.474.078A19.975,19.975,0,0,0,0,273.053v9.179a2.148,2.148,0,0,0,2.148,2.148H55.027a2.148,2.148,0,0,0,2.148-2.148v-9.179A19.975,19.975,0,0,0,39.041,253.189ZM19.1,240.261h14.4a8.808,8.808,0,0,0,4.568-1.271v4.63a9.485,9.485,0,1,1-18.97,0ZM33.264,257.4l-4.676,4.676L23.912,257.4ZM19.1,233.1a6.716,6.716,0,0,1,6.708-6.708H38.073v5a4.573,4.573,0,0,1-4.568,4.568H19.1V233.1Zm33.776,46.982H4.3v-4.3h8.916a2.148,2.148,0,1,0,0-4.3H4.375a15.678,15.678,0,0,1,13.59-13.958l9.1,9.1a2.148,2.148,0,0,0,3.038,0l9.1-9.1a15.672,15.672,0,0,1,13.668,15.521v7.031Z" transform="translate(0 -174.381)"/>
  <path id="Trazado_143906" data-name="Trazado 143906" d="M284.914,31.092a2.149,2.149,0,0,0-.475-.078,13.73,13.73,0,0,0,3.8-9.491V10.22a2.168,2.168,0,0,0-.024-.3c.014-.2.024-.409.024-.617V2.148A2.148,2.148,0,0,0,286.093,0h-14.41a11.017,11.017,0,0,0-11,11V21.523a13.73,13.73,0,0,0,3.8,9.491,2.152,2.152,0,0,0-.475.078,19.975,19.975,0,0,0-18.134,19.865v9.179a2.148,2.148,0,0,0,2.148,2.148h17.286a2.148,2.148,0,1,0,0-4.3H250.169v-7.03a15.671,15.671,0,0,1,13.668-15.521l9.1,9.1a2.148,2.148,0,0,0,3.038,0l9.1-9.1a15.672,15.672,0,0,1,13.669,15.521v7.03H282.924a2.148,2.148,0,1,0,0,4.3H300.9a2.148,2.148,0,0,0,2.148-2.148V50.957A19.975,19.975,0,0,0,284.914,31.092Zm-19.939-9.568V18.164h14.4a8.81,8.81,0,0,0,4.568-1.271v4.63a9.485,9.485,0,0,1-18.97,0Zm0-10.519A6.716,6.716,0,0,1,271.683,4.3h12.262v5a4.573,4.573,0,0,1-4.568,4.568h-14.4V11Zm9.485,28.976-4.676-4.676h9.352Z" transform="translate(-193.048)"/>
  <path id="Trazado_143907" data-name="Trazado 143907" d="M372.607,273.567a2.148,2.148,0,1,0-1.519.629A2.161,2.161,0,0,0,372.607,273.567Z" transform="translate(-289.676 -211.914)"/>
  <path id="Trazado_143908" data-name="Trazado 143908" d="M10.742,40.391H37.723a10.682,10.682,0,0,0,9.94-6.66h8.268a2.149,2.149,0,0,0,1.519-3.668l-8.985-8.985V10.742A10.754,10.754,0,0,0,37.723,0H10.742A10.754,10.754,0,0,0,0,10.742V29.648A10.754,10.754,0,0,0,10.742,40.391ZM4.3,10.742A6.453,6.453,0,0,1,10.742,4.3H37.723a6.453,6.453,0,0,1,6.445,6.445V21.968a2.149,2.149,0,0,0,.629,1.519l5.947,5.947H46.1A2.149,2.149,0,0,0,44,31.1a6.41,6.41,0,0,1-6.279,4.993H10.742A6.453,6.453,0,0,1,4.3,29.648Z"/>
  <path id="Trazado_143909" data-name="Trazado 143909" d="M289,324H262.023a10.682,10.682,0,0,0-9.94,6.66h-8.268a2.149,2.149,0,0,0-1.519,3.668l8.985,8.985v10.336a10.754,10.754,0,0,0,10.742,10.742H289a10.754,10.754,0,0,0,10.742-10.742V334.742A10.754,10.754,0,0,0,289,324Zm6.445,29.648A6.453,6.453,0,0,1,289,360.094H262.023a6.453,6.453,0,0,1-6.445-6.445V342.423a2.148,2.148,0,0,0-.629-1.519L249,334.957h4.649a2.149,2.149,0,0,0,2.094-1.667,6.41,6.41,0,0,1,6.279-4.993H289a6.453,6.453,0,0,1,6.445,6.445Z" transform="translate(-189.746 -254.391)"/>
  <path id="Trazado_143910" data-name="Trazado 143910" d="M386.034,389.092l-5.711,5.711-2.656-2.656a2.149,2.149,0,0,0-3.039,3.039l4.175,4.175a2.148,2.148,0,0,0,3.038,0l7.23-7.23a2.148,2.148,0,1,0-3.038-3.039Z" transform="translate(-293.648 -305.004)"/>
  <path id="Trazado_143911" data-name="Trazado 143911" d="M91.143,43.63a2.148,2.148,0,0,0,2.148-2.148,3.152,3.152,0,1,1,3.845,3.076,3.608,3.608,0,0,0-2.842,3.537v1.146a2.148,2.148,0,1,0,4.3,0v-.625a7.45,7.45,0,1,0-9.6-7.135A2.149,2.149,0,0,0,91.143,43.63Z" transform="translate(-69.874 -26.72)"/>
  <path id="Trazado_143912" data-name="Trazado 143912" d="M115.818,133.09a2.149,2.149,0,1,0,1.519.629A2.161,2.161,0,0,0,115.818,133.09Z" transform="translate(-89.249 -104.496)"/>
  <path id="Trazado_143913" data-name="Trazado 143913" d="M93.648,452a2.149,2.149,0,1,0,1.519.63A2.165,2.165,0,0,0,93.648,452Z" transform="translate(-71.842 -354.891)"/>
</svg>
