<svg xmlns="http://www.w3.org/2000/svg" xmlns:xlink="http://www.w3.org/1999/xlink" width="110" height="110" viewBox="0 0 110 110">
  <defs>
    <clipPath id="clip-path">
      <rect id="Rectángulo_296229" data-name="Rectángulo 296229" width="110" height="110" transform="translate(494.668 1851)" fill="#a6daff"/>
    </clipPath>
  </defs>
  <g id="Enmascarar_grupo_876721" data-name="Enmascarar grupo 876721" transform="translate(-494.668 -1851)" clip-path="url(#clip-path)">
    <g id="observacion" transform="translate(492.895 1849.227)">
      <g id="Grupo_882413" data-name="Grupo 882413">
        <g id="Grupo_882397" data-name="Grupo 882397">
          <path id="Trazado_599347" data-name="Trazado 599347" d="M70.968,17.742a28.227,28.227,0,0,0-13.732,3.531,4.01,4.01,0,0,1-.461.018A8.844,8.844,0,0,1,47.9,12.419,8.767,8.767,0,0,1,49.677,7.1a8.323,8.323,0,0,1,.816-.958,8.909,8.909,0,0,1,6.281-2.59A19.373,19.373,0,0,1,68.8,7.7a19.654,19.654,0,0,1,6.866,10.432A27.417,27.417,0,0,0,70.968,17.742Z" fill="#b27946"/>
        </g>
        <g id="Grupo_882398" data-name="Grupo 882398">
          <path id="Trazado_599348" data-name="Trazado 599348" d="M56.774,21.29a4.01,4.01,0,0,0,.461-.018,28.689,28.689,0,0,0-10.45,9.953,31.209,31.209,0,0,1-4.2-2.839,32.394,32.394,0,0,1-20.226,7.1H19.516v3.548H17.742A8.865,8.865,0,0,0,11.6,41.5,23.432,23.432,0,0,1,32.326,7.1H49.677A8.767,8.767,0,0,0,47.9,12.419a8.844,8.844,0,0,0,8.871,8.871Z" fill="#b27946"/>
        </g>
        <g id="Grupo_882399" data-name="Grupo 882399">
          <path id="Trazado_599349" data-name="Trazado 599349" d="M67.419,110H3.548v-9.066A16.229,16.229,0,0,1,18.292,84.789l15.418-1.4,8.871,10.645,8.871-10.645,15.418,1.4a16.229,16.229,0,0,1,14.744,16.145V110Z" fill="#ffe0f0"/>
        </g>
        <g id="Grupo_882400" data-name="Grupo 882400">
          <path id="Trazado_599350" data-name="Trazado 599350" d="M50.494,76.663l.958,6.724L42.581,94.032,33.71,83.387l.958-6.724a22.912,22.912,0,0,0,7.913,1.4,22.513,22.513,0,0,0,7.913-1.419Z" fill="#f0d0b4"/>
        </g>
        <g id="Grupo_882401" data-name="Grupo 882401">
          <path id="Trazado_599351" data-name="Trazado 599351" d="M58.531,71.642a23.169,23.169,0,0,1-8.037,5,22.513,22.513,0,0,1-7.913,1.419A23.044,23.044,0,0,1,19.6,56.774,14.67,14.67,0,0,1,19.516,55V35.484h2.839a32.394,32.394,0,0,0,20.226-7.1,31.209,31.209,0,0,0,4.2,2.839,28.472,28.472,0,0,0-.408,29.1H35.484V62.1a7.077,7.077,0,0,0,13.768,2.324A28.22,28.22,0,0,0,58.531,71.642Z" fill="#f0d0b4"/>
        </g>
        <g id="Grupo_882402" data-name="Grupo 882402">
          <path id="Trazado_599352" data-name="Trazado 599352" d="M11.6,41.5a8.865,8.865,0,0,1,6.139-2.466h1.774V55a14.67,14.67,0,0,0,.089,1.774H17.742A8.872,8.872,0,0,1,11.6,41.5Z" fill="#f0d0b4"/>
        </g>
        <g id="Grupo_882403" data-name="Grupo 882403">
          <path id="Trazado_599353" data-name="Trazado 599353" d="M49.252,64.421A7.077,7.077,0,0,1,35.484,62.1V60.323H46.377A26.54,26.54,0,0,0,49.252,64.421Z" fill="#ff826e"/>
        </g>
        <g id="Grupo_882404" data-name="Grupo 882404">
          <circle id="Elipse_7966" data-name="Elipse 7966" cx="3.548" cy="3.548" r="3.548" transform="translate(28.387 42.581)" fill="#838f9b"/>
        </g>
        <g id="Grupo_882405" data-name="Grupo 882405">
          <path id="Trazado_599354" data-name="Trazado 599354" d="M108.155,74.445a6.273,6.273,0,1,1-8.871,8.871L86.119,70.152a28.986,28.986,0,0,0,8.871-8.871Z" fill="#26aab7"/>
        </g>
        <g id="Grupo_882406" data-name="Grupo 882406">
          <path id="Trazado_599355" data-name="Trazado 599355" d="M58.531,71.642a28.22,28.22,0,0,1-9.279-7.221,26.54,26.54,0,0,1-2.874-4.1,28.472,28.472,0,0,1,.408-29.1,28.689,28.689,0,0,1,10.45-9.953,28.227,28.227,0,0,1,13.732-3.531,27.417,27.417,0,0,1,4.7.39A28.413,28.413,0,0,1,94.99,61.281a28.986,28.986,0,0,1-8.871,8.871,28.421,28.421,0,0,1-27.589,1.49Z" fill="#fb8c00"/>
        </g>
        <g id="Grupo_882407" data-name="Grupo 882407">
          <path id="Trazado_599356" data-name="Trazado 599356" d="M91,49.163a4.344,4.344,0,0,0,1.242-2.608,21.277,21.277,0,0,1-42.545,0,4.344,4.344,0,0,0,1.242,2.608,25.874,25.874,0,0,0,18.381,7.611h3.3A25.969,25.969,0,0,0,91,49.163Z" fill="#e6e9ed"/>
        </g>
        <g id="Grupo_882408" data-name="Grupo 882408">
          <path id="Trazado_599357" data-name="Trazado 599357" d="M92.24,45.7A4.344,4.344,0,0,0,91,43.1a25.874,25.874,0,0,0-18.381-7.611h-3.3A25.969,25.969,0,0,0,50.937,43.1,4.344,4.344,0,0,0,49.7,45.7a21.277,21.277,0,0,1,42.545,0Z" fill="#e6e9ed"/>
        </g>
        <g id="Grupo_882409" data-name="Grupo 882409">
          <path id="Trazado_599358" data-name="Trazado 599358" d="M50.937,43.1a25.969,25.969,0,0,1,18.381-7.611h1.65a10.645,10.645,0,1,0,0,21.29h-1.65a25.874,25.874,0,0,1-18.381-7.611A4.344,4.344,0,0,1,49.7,46.555a5.117,5.117,0,0,1,0-.852A4.344,4.344,0,0,1,50.937,43.1Z" fill="#ccd1d9"/>
        </g>
        <g id="Grupo_882410" data-name="Grupo 882410">
          <path id="Trazado_599359" data-name="Trazado 599359" d="M82.571,37.453A26.056,26.056,0,0,1,91,43.1,4.344,4.344,0,0,1,92.24,45.7a5.12,5.12,0,0,1,0,.852A4.344,4.344,0,0,1,91,49.163a25.969,25.969,0,0,1-18.381,7.611h-1.65a10.645,10.645,0,1,0,0-21.29h1.65A25.935,25.935,0,0,1,82.571,37.453Z" fill="#ccd1d9"/>
        </g>
        <g id="Grupo_882411" data-name="Grupo 882411">
          <path id="Trazado_599360" data-name="Trazado 599360" d="M70.968,35.484A10.645,10.645,0,1,1,60.323,46.129,10.654,10.654,0,0,1,70.968,35.484Z" fill="#fffae7"/>
        </g>
        <g id="Grupo_882412" data-name="Grupo 882412">
          <circle id="Elipse_7967" data-name="Elipse 7967" cx="3.548" cy="3.548" r="3.548" transform="translate(67.419 42.581)" fill="#4fc1e9"/>
        </g>
      </g>
      <g id="Grupo_882414" data-name="Grupo 882414">
        <path id="Trazado_599361" data-name="Trazado 599361" d="M37.258,46.129a5.323,5.323,0,1,0-5.323,5.323A5.329,5.329,0,0,0,37.258,46.129ZM31.935,47.9a1.774,1.774,0,1,1,1.774-1.774A1.777,1.777,0,0,1,31.935,47.9Z"/>
        <path id="Trazado_599362" data-name="Trazado 599362" d="M70.968,40.806a5.323,5.323,0,1,0,5.323,5.323A5.329,5.329,0,0,0,70.968,40.806Zm0,7.1a1.774,1.774,0,1,1,1.774-1.774A1.777,1.777,0,0,1,70.968,47.9Z"/>
        <path id="Trazado_599363" data-name="Trazado 599363" d="M70.968,23.065A23.065,23.065,0,1,0,94.032,46.129,23.091,23.091,0,0,0,70.968,23.065ZM89.749,47.9a24.117,24.117,0,0,1-8.818,5.608,12.325,12.325,0,0,0,0-14.765,24.125,24.125,0,0,1,8.818,5.608,2.51,2.51,0,0,1,0,3.548Zm-38.3-1.774a2.528,2.528,0,0,1,.735-1.774A24.117,24.117,0,0,1,61,38.747a12.325,12.325,0,0,0,0,14.765A24.125,24.125,0,0,1,52.186,47.9a2.528,2.528,0,0,1-.735-1.774Zm10.645,0A8.871,8.871,0,1,1,70.968,55,8.881,8.881,0,0,1,62.1,46.129Zm8.871-19.516A19.529,19.529,0,0,1,89.2,39.242,27.547,27.547,0,0,0,72.616,33.71H69.321a27.556,27.556,0,0,0-16.59,5.532A19.529,19.529,0,0,1,70.968,26.613Zm0,39.032A19.529,19.529,0,0,1,52.731,53.016,27.547,27.547,0,0,0,69.32,58.548h3.295A27.556,27.556,0,0,0,89.2,53.016,19.529,19.529,0,0,1,70.968,65.645Z"/>
        <path id="Trazado_599364" data-name="Trazado 599364" d="M109.416,73.2,97.192,60.974A30.114,30.114,0,0,0,77.041,16.582,21.279,21.279,0,0,0,56.774,1.774a10.615,10.615,0,0,0-7.913,3.548H32.317A25.132,25.132,0,0,0,9.5,41.177a10.638,10.638,0,0,0,8.243,17.371h.284A24.887,24.887,0,0,0,32.718,77.786l-.566,3.962L18.134,83.022a17.988,17.988,0,0,0-16.36,17.914v10.839H83.387V100.936a17.988,17.988,0,0,0-16.36-17.914L53.009,81.748l-.568-3.976a24.8,24.8,0,0,0,6.394-4.05,29.944,29.944,0,0,0,26.977-1.368L98.037,84.579a8.047,8.047,0,1,0,11.38-11.38ZM56.774,5.323a17.74,17.74,0,0,1,16.3,10.752c-.7-.048-1.4-.106-2.11-.106a30.182,30.182,0,0,0-4.3.342,10.618,10.618,0,0,0,.754-3.891V10.645H63.871v1.774a7.1,7.1,0,0,1-2.083,4.987,30.064,30.064,0,0,0-4.982,2.108h-.032a7.1,7.1,0,1,1,0-14.192ZM32.317,8.871H46.75a10.6,10.6,0,0,0,5.89,13.358,30.337,30.337,0,0,0-6.346,6.605A29.836,29.836,0,0,1,43.688,27l-1.107-.887L41.472,27A30.719,30.719,0,0,1,22.35,33.71H17.742v3.548A10.559,10.559,0,0,0,12.3,38.773a21.615,21.615,0,0,1,20.02-29.9ZM10.645,47.9a7.1,7.1,0,0,1,7.1-7.1V55A7.1,7.1,0,0,1,10.645,47.9ZM66.708,86.556a14.437,14.437,0,0,1,13.131,14.38v7.29H69.194V97.581H65.645v10.645H19.516V97.581H15.968v10.645H5.323v-7.29A14.437,14.437,0,0,1,18.453,86.558l14.488-1.318,9.639,11.566L52.22,85.239Zm-17.125-3.7-7,8.4-7-8.4.557-3.9a24.193,24.193,0,0,0,12.893.007Zm-7-6.566A21.314,21.314,0,0,1,21.29,55V37.258H22.35a34.3,34.3,0,0,0,20.233-6.637c.585.428,1.2.837,1.826,1.237a29.966,29.966,0,0,0-.894,26.691h-9.8V62.1a8.85,8.85,0,0,0,15.927,5.335,30.373,30.373,0,0,0,5.8,4.5A21.129,21.129,0,0,1,42.581,76.29Zm4.632-11.64A5.3,5.3,0,0,1,37.258,62.1h8.168A30.44,30.44,0,0,0,47.213,64.65ZM44.355,46.129A26.613,26.613,0,1,1,70.968,72.742,26.643,26.643,0,0,1,44.355,46.129Zm59.372,37.258a4.473,4.473,0,0,1-3.181-1.316l-11.7-11.7A30.379,30.379,0,0,0,95.2,64l11.7,11.7a4.5,4.5,0,0,1-3.181,7.679Z"/>
      </g>
    </g>
  </g>
</svg>
