<svg xmlns="http://www.w3.org/2000/svg" width="128.485" height="128.484" viewBox="0 0 128.485 128.484">
  <g id="problema" transform="translate(-1 -1)">
    <g id="Grupo_86212" data-name="Grupo 86212" transform="translate(54.881 3.072)">
      <path id="Trazado_148653" data-name="Trazado 148653" d="M38,31.013V8.217A6.209,6.209,0,0,1,44.217,2h22.8v8.289h2.072a6.217,6.217,0,1,1,0,12.434H67.013v8.289H58.723a6.217,6.217,0,1,0-12.434,0Z" transform="translate(-15.204 -2)" fill="#fb0"/>
      <path id="Trazado_148654" data-name="Trazado 148654" d="M67.013,77.013h-22.8V68.723a6.217,6.217,0,0,1,0-12.434V48h8.289A6.217,6.217,0,1,0,64.94,48H73.23V70.8A6.209,6.209,0,0,1,67.013,77.013Z" transform="translate(-15.204 47.327)" fill="#fb0"/>
      <path id="Trazado_148655" data-name="Trazado 148655" d="M27,51.217h8.289a6.217,6.217,0,0,1,12.434,0h8.289v8.289a6.217,6.217,0,0,0,0,12.434V80.23h-22.8A6.209,6.209,0,0,1,27,74.013Z" transform="translate(-27 44.11)" fill="#fb0"/>
      <path id="Trazado_148656" data-name="Trazado 148656" d="M27,60.94V40.217A6.209,6.209,0,0,1,33.217,34h22.8v8.289a6.217,6.217,0,0,1,0,12.434v8.289H47.723a6.217,6.217,0,0,0-12.434,0H27Z" transform="translate(-27 32.315)" fill="#fb0"/>
    </g>
    <path id="Trazado_148657" data-name="Trazado 148657" d="M81.3,38.651A18.651,18.651,0,0,1,63.977,57.24l-7.543,6.279V56.224A18.646,18.646,0,1,1,81.3,38.651Z" transform="translate(46.11 20.374)" fill="#fffae7"/>
    <path id="Trazado_148658" data-name="Trazado 148658" d="M29.506,34V84.772a7.261,7.261,0,0,1-7.253,7.253A7.288,7.288,0,0,1,15,84.772V42.289h6.217V34Z" transform="translate(15.013 35.387)" fill="#636363"/>
    <path id="Trazado_148659" data-name="Trazado 148659" d="M22.506,38V80.483a7.261,7.261,0,0,1-7.253,7.253A7.288,7.288,0,0,1,8,80.483V38Z" transform="translate(7.506 39.676)" fill="#636363"/>
    <path id="Trazado_148660" data-name="Trazado 148660" d="M28.723,24V53.013H8V42.651H19.4a5.181,5.181,0,1,0,0-10.362H8V24Z" transform="translate(7.506 24.664)" fill="#e6e9ed"/>
    <path id="Trazado_148661" data-name="Trazado 148661" d="M14.434,55.881h11.4a5.181,5.181,0,1,1,0,10.362H10.289A8.287,8.287,0,0,1,2,57.953V51.736A20.731,20.731,0,0,1,22.723,31.013h8.289l22.8-2.072V7.181a5.181,5.181,0,1,1,10.362,0V31.8a8.279,8.279,0,0,1-7.46,8.248L43.447,41.374v26.94H35.157V47.591H14.434Z" transform="translate(1.072 1.072)" fill="#1565c0"/>
    <circle id="Elipse_4357" data-name="Elipse 4357" cx="12.434" cy="12.434" r="12.434" transform="translate(17.579 7.217)" fill="#f0d0b4"/>
    <path id="Trazado_148662" data-name="Trazado 148662" d="M75.736,64.085a4.145,4.145,0,1,1-8.289,0V62.013H59.157V57.6a8.289,8.289,0,0,0,0-16.052V33H34.289A8.3,8.3,0,0,0,26,41.289V86.881a8.3,8.3,0,0,0,8.289,8.289H79.881a8.3,8.3,0,0,0,8.289-8.289V62.013H75.736Zm-45.591-22.8a4.149,4.149,0,0,1,4.145-4.145H55.013v8.289h2.072a4.145,4.145,0,1,1,0,8.289H55.013v8.289H50.6a8.289,8.289,0,0,0-16.052,0H30.145Zm4.145,49.736a4.149,4.149,0,0,1-4.145-4.145V66.157h8.289V64.085a4.145,4.145,0,0,1,8.289,0v2.072h8.289v4.408a8.289,8.289,0,0,0,0,16.052v4.408ZM79.618,66.157h4.408V86.881a4.149,4.149,0,0,1-4.145,4.145H59.157V82.736H57.085a4.145,4.145,0,0,1,0-8.289h2.072V66.157h4.408a8.289,8.289,0,0,0,16.052,0Z" transform="translate(26.808 34.315)"/>
    <path id="Trazado_148663" data-name="Trazado 148663" d="M49.434,32.085a4.145,4.145,0,1,1,8.289,0v2.072H70.157V25.868a8.289,8.289,0,0,0,0-16.579V1H45.289A8.3,8.3,0,0,0,37,9.289V34.157H49.434Zm-3.881-2.072H41.145V9.289a4.149,4.149,0,0,1,4.145-4.145H66.013v8.289h4.145a4.145,4.145,0,0,1,0,8.289H66.013v8.289H61.6a8.289,8.289,0,0,0-16.052,0Z" transform="translate(38.604 0)"/>
    <path id="Trazado_148664" data-name="Trazado 148664" d="M56.217,23A6.225,6.225,0,0,0,50,29.217v2.072h4.145V29.217a2.072,2.072,0,1,1,4.145,0v.356a2.079,2.079,0,0,1-.607,1.465l-1.716,1.716a6.171,6.171,0,0,0-1.822,4.4v2.429h4.145V37.15a2.079,2.079,0,0,1,.607-1.465l1.716-1.716a6.171,6.171,0,0,0,1.822-4.4v-.356A6.225,6.225,0,0,0,56.217,23Z" transform="translate(52.544 23.591)"/>
    <path id="Trazado_148665" data-name="Trazado 148665" d="M52,33h4.145v4.145H52Z" transform="translate(54.689 34.315)"/>
    <path id="Trazado_148666" data-name="Trazado 148666" d="M63.723,19a20.712,20.712,0,0,0-8.289,39.7V69.016l10.44-8.7A20.714,20.714,0,0,0,63.723,19ZM64.9,56.242l-.667.046-4.654,3.879V55.825l-1.38-.487a16.583,16.583,0,1,1,6.7.9Z" transform="translate(45.038 19.302)"/>
    <path id="Trazado_148667" data-name="Trazado 148667" d="M44,58h4.145v4.145H44Z" transform="translate(46.11 61.123)"/>
    <path id="Trazado_148668" data-name="Trazado 148668" d="M48,58h4.145v4.145H48Z" transform="translate(50.4 61.123)"/>
    <path id="Trazado_148669" data-name="Trazado 148669" d="M29,51h4.145v4.145H29Z" transform="translate(30.025 53.617)"/>
    <path id="Trazado_148670" data-name="Trazado 148670" d="M29,55h4.145v4.145H29Z" transform="translate(30.025 57.906)"/>
    <path id="Trazado_148671" data-name="Trazado 148671" d="M41,5h4.145V9.145H41Z" transform="translate(42.893 4.289)"/>
    <path id="Trazado_148672" data-name="Trazado 148672" d="M45,5h4.145V9.145H45Z" transform="translate(47.183 4.289)"/>
    <path id="Trazado_148673" data-name="Trazado 148673" d="M30,37h4.145v4.145H30Z" transform="translate(31.098 38.604)"/>
    <path id="Trazado_148674" data-name="Trazado 148674" d="M34,37h4.145v4.145H34Z" transform="translate(35.387 38.604)"/>
    <path id="Trazado_148675" data-name="Trazado 148675" d="M67.315,32.873V8.253a7.253,7.253,0,0,0-14.506,0V28.121L40.9,29.209a14.506,14.506,0,1,0-20.676,1.113A22.812,22.812,0,0,0,1,52.808v6.217A10.373,10.373,0,0,0,11.362,69.387h2.072v50.772a9.287,9.287,0,0,0,16.579,5.79,9.287,9.287,0,0,0,16.579-5.79V44.322l11.394-1.14a10.331,10.331,0,0,0,9.33-10.31ZM19.651,19.651A10.362,10.362,0,1,1,30.013,30.013,10.373,10.373,0,0,1,19.651,19.651ZM26.9,69.387a7.253,7.253,0,1,0,0-14.506H17.579V50.736H34.157V75.6H17.579V69.387ZM22.76,125.34a5.185,5.185,0,0,1-5.181-5.181V79.749H27.94v40.411A5.185,5.185,0,0,1,22.76,125.34Zm14.506,0a5.185,5.185,0,0,1-5.181-5.181V79.749H38.3V71.459h4.145v48.7A5.185,5.185,0,0,1,37.266,125.34Zm5.181-84.769V67.315H38.3V46.591H13.434v8.289H9.289v4.145H26.9a3.109,3.109,0,1,1,0,6.217H11.362a6.225,6.225,0,0,1-6.217-6.217V52.808A18.671,18.671,0,0,1,23.8,34.157l6.1-.006c.039,0,.077.006.116.006s.079-.006.12-.006l2.141,0L56.953,31.9V8.253a3.109,3.109,0,1,1,6.217,0V32.873a6.2,6.2,0,0,1-5.6,6.186Z" transform="translate(0)"/>
  </g>
</svg>
