<svg xmlns="http://www.w3.org/2000/svg" width="124.014" height="124.014" viewBox="0 0 124.014 124.014">
  <g id="Grupo_890206" data-name="Grupo 890206" transform="translate(-168.154 -469.15)">
    <path id="Trazado_137314" data-name="Trazado 137314" d="M219.64,487.279l4-2v6l6.981,1.161a5.993,5.993,0,0,1,5.02,5.92v12.921h-32V498.361a5.992,5.992,0,0,1,5.02-5.92l6.981-1.161v-4l.2-.96a8.047,8.047,0,0,0,3.8.96Zm0,0" transform="translate(8.521 3.873)" fill="#ffc200"/>
    <path id="Trazado_137315" data-name="Trazado 137315" d="M188.995,487.279l4-2v6l6.981,1.161a5.993,5.993,0,0,1,5.02,5.92v12.921h-32V498.361a5.992,5.992,0,0,1,5.02-5.92l6.981-1.161v-4l.2-.96a8.056,8.056,0,0,0,3.8.96Zm0,0" transform="translate(1.162 3.873)" fill="#6bbcb1"/>
    <path id="Trazado_137316" data-name="Trazado 137316" d="M226.092,478.764v4a8,8,0,0,1-16,0v-4a8,8,0,1,1,16,0Zm0,0" transform="translate(10.07 0.387)" fill="#f0d0b4"/>
    <path id="Trazado_137317" data-name="Trazado 137317" d="M195.446,478.764v4a8,8,0,0,1-16,0v-4a8,8,0,1,1,16,0Zm0,0" transform="translate(2.711 0.387)" fill="#f0d0b4"/>
    <path id="Trazado_137318" data-name="Trazado 137318" d="M251.776,506.247H169.767v76.008H289.781V506.247Zm0,0" transform="translate(0.387 8.909)" fill="#e6e9ed"/>
    <rect id="Rectángulo_9607" data-name="Rectángulo 9607" width="8.001" height="8.001" transform="translate(254.164 477.151)" fill="#6bbcb1"/>
    <rect id="Rectángulo_9608" data-name="Rectángulo 9608" width="12.001" height="8.001" transform="translate(252.163 493.153)" fill="#6bbcb1"/>
    <path id="Trazado_137319" data-name="Trazado 137319" d="M269.385,544.727v-8l-4.639-.92a20.2,20.2,0,0,0-2.181-5.281l2.62-3.94-5.66-5.66-3.941,2.619a20.291,20.291,0,0,0-4.2-1.879h-12a20.331,20.331,0,0,0-4.2,1.879l-3.94-2.619-5.66,5.66,2.62,3.94a20.2,20.2,0,0,0-2.181,5.281l-4.639.92v8l4.639.92a20.2,20.2,0,0,0,2.181,5.281l-2.62,3.94,5.66,5.661,3.94-2.62a20.165,20.165,0,0,0,5.282,2.18l.92,4.641h8l.92-4.641a20.138,20.138,0,0,0,5.281-2.18l3.941,2.62,5.66-5.661-2.62-3.94a20.2,20.2,0,0,0,2.181-5.281Zm-12.06-2.94a4.558,4.558,0,0,1-.081.76c0,.04-.02.081-.02.12-.041.279-.1.559-.16.82a11.705,11.705,0,0,1-1,2.721c-.12.2-.22.4-.34.6a8,8,0,0,1-.559.861,11.992,11.992,0,0,1-2.84,2.84,7.807,7.807,0,0,1-.861.561c-.2.12-.4.22-.6.34a11.648,11.648,0,0,1-2.721,1c-.259.061-.539.12-.82.16-.04,0-.079.021-.12.021a4.668,4.668,0,0,1-.76.081,9.2,9.2,0,0,1-1.06.06,12.011,12.011,0,0,1-12-12,9.217,9.217,0,0,1,.06-1.059,4.556,4.556,0,0,1,.081-.761c0-.04.02-.081.02-.12.041-.279.1-.559.16-.818a11.7,11.7,0,0,1,1-2.722c.12-.2.22-.4.34-.6a7.971,7.971,0,0,1,.559-.861,11.789,11.789,0,0,1,3.781-3.44h12c.22.12.44.26.661.4.358.24.7.5,1.039.781.26.219.5.44.74.681a7.153,7.153,0,0,1,.64.7,2.864,2.864,0,0,1,.381.46,9.942,9.942,0,0,1,.9,1.342c.12.18.22.358.319.538.181.361.34.722.481,1.08.1.221.179.46.259.681a12.69,12.69,0,0,1,.521,2.62,9.947,9.947,0,0,1,.06,1.1,9.221,9.221,0,0,1-.06,1.06Zm0,0" transform="translate(12.782 12.433)" fill="#ffc200"/>
    <rect id="Rectángulo_9609" data-name="Rectángulo 9609" width="12.001" height="40.005" transform="translate(252.163 501.154)" fill="#aab2bd"/>
    <path id="Trazado_137320" data-name="Trazado 137320" d="M247.9,527.215v6l-6,8-6-8v-6Zm0,0" transform="translate(16.268 13.944)" fill="#6bbcb1"/>
    <path id="Trazado_137321" data-name="Trazado 137321" d="M243.445,548.464a9.988,9.988,0,0,1-8.144-15.788l-3.259-2.32a13.989,13.989,0,0,0,19.511,19.51l-2.32-3.259a9.923,9.923,0,0,1-5.788,1.858Zm0,0" transform="translate(14.718 14.698)"/>
    <path id="Trazado_137322" data-name="Trazado 137322" d="M274.166,513.155v-6a8.009,8.009,0,0,0-8-8v-8h-6v-4h4v-12h-12v12h4v4h-6v22h-4V502.238a7.975,7.975,0,0,0-6.686-7.892l-5.315-.887v-2.307H234.1a9.967,9.967,0,0,0,4.061-8v-4a10,10,0,1,0-20,0v4a9.968,9.968,0,0,0,4.063,8h-.062v2.307l-5.315.887a7.972,7.972,0,0,0-6.686,7.892v10.917h-2V502.238a7.975,7.975,0,0,0-6.687-7.892l-5.315-.887v-2.307H196.1a9.967,9.967,0,0,0,4.061-8v-4a10,10,0,1,0-20,0v4a9.965,9.965,0,0,0,4.063,8h-.062v2.307l-5.315.887a7.971,7.971,0,0,0-6.686,7.892v10.917h-4v80.009H292.168V513.155Zm-18-34h4v4h-4Zm6,16v4h-8v-4Zm11.46,48.822a17.888,17.888,0,0,1,1.968,4.748l.31,1.221,4.264.852v4.724l-4.264.851-.31,1.223a17.947,17.947,0,0,1-1.968,4.748l-.644,1.081,2.411,3.622-3.338,3.338-3.622-2.412-1.081.645a17.908,17.908,0,0,1-4.749,1.968l-1.223.31-.851,4.266H255.8l-.852-4.264-1.222-.311a17.934,17.934,0,0,1-4.749-1.968l-1.083-.644-3.622,2.412-3.338-3.338,2.413-3.622-.645-1.083a17.847,17.847,0,0,1-1.968-4.748l-.311-1.221-4.265-.852V550.8l4.264-.852.31-1.221a17.939,17.939,0,0,1,1.968-4.75l.644-1.081-2.411-3.622,3.338-3.338,3.622,2.412,1.081-.644c.381-.226.788-.4,1.184-.594v10.719l8,10.669,8-10.669v-.649a9.948,9.948,0,0,1,.144,11.77l3.259,2.32a13.945,13.945,0,0,0-3.4-19.567v-4.6c.4.2.8.368,1.184.594l1.081.644,3.622-2.411,3.338,3.337-2.411,3.622Zm-19.46-.816h8v3.333l-4,5.333-4-5.333Zm8-4h-8v-36h8Zm-40-60.007a6,6,0,0,1,12,0v4a6,6,0,0,1-12,0Zm-8,23.086a3.989,3.989,0,0,1,3.342-3.947l8.659-1.444v-3.9a10,10,0,0,0,4,0v3.9l8.659,1.442a3.991,3.991,0,0,1,3.342,3.949v10.917h-28Zm-30-23.086a6,6,0,1,1,12,0v4a6,6,0,0,1-12,0Zm-8,23.086a3.99,3.99,0,0,1,3.342-3.947l8.66-1.444v-3.9a10,10,0,0,0,4,0v3.9l8.659,1.442a3.991,3.991,0,0,1,3.342,3.949v10.917h-28Zm112.013,86.925H172.155V517.156h78.009V532.7a21.509,21.509,0,0,0-2.114.946l-4.287-2.857-7.974,7.974,2.859,4.287a21.931,21.931,0,0,0-1.436,3.462l-5.049,1.013V558.8l5.049,1.013a21.556,21.556,0,0,0,1.436,3.462l-2.859,4.286,7.974,7.975,4.287-2.86a21.89,21.89,0,0,0,3.462,1.437l1.014,5.049H263.8l1.012-5.049a21.676,21.676,0,0,0,3.462-1.437l4.287,2.86,7.974-7.975-2.859-4.286a21.979,21.979,0,0,0,1.436-3.462l5.049-1.014V547.52l-5.049-1.013a21.559,21.559,0,0,0-1.436-3.462l2.859-4.286-7.974-7.974-4.287,2.856a21.529,21.529,0,0,0-2.114-.946V503.155a4,4,0,0,1,4,4v14a6.008,6.008,0,0,0,6,6h4v-4h-4a2,2,0,0,1-2-2v-4h14Zm0,0" transform="translate(0 0)"/>
    <rect id="Rectángulo_9610" data-name="Rectángulo 9610" width="4" height="4" transform="translate(228.161 523.156)"/>
    <rect id="Rectángulo_9611" data-name="Rectángulo 9611" width="4" height="4" transform="translate(220.16 523.156)"/>
    <rect id="Rectángulo_9612" data-name="Rectángulo 9612" width="4" height="4" transform="translate(212.159 523.156)"/>
    <path id="Trazado_137323" data-name="Trazado 137323" d="M214.729,539.389l5.118-10.237h10.766v-4H217.374l-2.882,5.764L207.77,519.15H174.6v4h30.844Zm0,0" transform="translate(1.549 12.007)"/>
    <rect id="Rectángulo_9613" data-name="Rectángulo 9613" width="30.003" height="4" transform="translate(176.155 539.158)"/>
    <rect id="Rectángulo_9614" data-name="Rectángulo 9614" width="30.003" height="4" transform="translate(176.155 547.159)"/>
    <path id="Trazado_137324" data-name="Trazado 137324" d="M219.449,554.507h-4v10h-4v-16h-4v16h-4v-26h-4v26h-4v-16h-4v16h-4v-10h-4v10h-4v4h44.005v-4h-4Zm0,0" transform="translate(2.711 16.655)"/>
    <rect id="Rectángulo_9615" data-name="Rectángulo 9615" width="4" height="4" transform="translate(280.167 581.163)"/>
    <rect id="Rectángulo_9616" data-name="Rectángulo 9616" width="4" height="4" transform="translate(272.166 581.163)"/>
    <rect id="Rectángulo_9617" data-name="Rectángulo 9617" width="4" height="4" transform="translate(264.165 581.163)"/>
  </g>
</svg>
