<svg xmlns="http://www.w3.org/2000/svg" xmlns:xlink="http://www.w3.org/1999/xlink" width="158" height="155.422" viewBox="0 0 158 155.422">
  <defs>
    <clipPath id="clip-path">
      <rect id="Rectángulo_301135" data-name="Rectángulo 301135" width="138" height="138" fill="#12263f"/>
    </clipPath>
  </defs>
  <g id="Grupo_885889" data-name="Grupo 885889" transform="translate(21.964 22.925)">
    <rect id="Rectángulo_49533" data-name="Rectángulo 49533" width="119.8" height="111.233" transform="translate(16.236 21.265)" fill="#ffde96"/>
    <g id="Grupo_890245" data-name="Grupo 890245" transform="translate(-21.964 -22.925)">
      <g id="Grupo_890245-2" data-name="Grupo 890245" clip-path="url(#clip-path)">
        <path id="Trazado_607223" data-name="Trazado 607223" d="M138,14.107V48.453c-1.739,3.8-4.726,5.118-8.835,4.966-5.88-.218-11.775-.055-18.037-.055V56.94q0,20.955,0,41.91-.026,19.575-.11,39.15H0V27.6a28.565,28.565,0,0,0,2.309-1.878Q12.518,15.558,22.678,5.344C24.383,3.626,25.963,1.785,27.6,0h83.413V9.018c6.51,0,12.418.178,18.31-.06,4.181-.169,7.072,1.259,8.677,5.149M106.63,53.364h-3.442q-25.44,0-50.88,0c-5.271,0-7.613-2.359-7.621-7.673q-.024-14.1,0-28.2c0-6.6,1.884-8.464,8.594-8.467q24.827-.013,49.654,0h3.647V4.524H31.146V31.237H4.534V133.453h102.1ZM91.184,13.418c-12.867,0-25.733.045-38.6-.039-2.584-.017-3.659.757-3.624,3.5q.182,14.243,0,28.489c-.033,2.824,1.055,3.728,3.8,3.72,25.631-.066,51.261-.036,76.892-.043,3.522,0,4.005-.5,4.009-4.141q.019-13.632,0-27.265c0-3.87-.345-4.216-4.193-4.219q-19.147-.014-38.293,0M26.649,26.651V8.554L8.5,26.651Z" fill="#12263f"/>
        <path id="Trazado_607226" data-name="Trazado 607226" d="M86.067,161H97.08v4.158a6.4,6.4,0,0,1-1.317.253c-10.015-.021-20.038.18-30.042-.152-17.367-.578-32.385-16.085-32.786-33.484C32.506,113.177,43.559,99.088,61.783,95c19.159-4.3,39.838,10.774,41.8,30.291,1.535,15.236-4.48,26.711-17.519,35.7m-17.616.029a31.151,31.151,0,1,0,.12-62.3c-16.566-.25-30.85,13.753-31.416,29.926-.616,17.617,13.86,32.824,31.3,32.376" transform="translate(-12.73 -36.449)" fill="#12263f"/>
        <rect id="Rectángulo_301130" data-name="Rectángulo 301130" width="3.939" height="4.05" transform="translate(9.225 35.732)" fill="#12263f"/>
        <rect id="Rectángulo_301131" data-name="Rectángulo 301131" width="4.022" height="3.962" transform="translate(17.98 35.77)" fill="#12263f"/>
        <rect id="Rectángulo_301132" data-name="Rectángulo 301132" width="4.03" height="3.947" transform="translate(9.179 44.896)" fill="#12263f"/>
        <rect id="Rectángulo_301133" data-name="Rectángulo 301133" width="3.965" height="3.938" transform="translate(89.144 124.848)" fill="#12263f"/>
        <rect id="Rectángulo_301134" data-name="Rectángulo 301134" width="3.885" height="3.957" transform="translate(98.328 124.826)" fill="#12263f"/>
        <path id="Trazado_607227" data-name="Trazado 607227" d="M131.168,29.243h4.155V49.78l6.655-8.613,6.7,8.767V29.286h4.3V55.219c-6.478,2.528-7.722-3.483-10.958-6.622-3.3,2.7-4.3,9.171-10.854,6.616Z" transform="translate(-50.718 -11.307)" fill="#12263f"/>
        <path id="Trazado_607228" data-name="Trazado 607228" d="M87.2,46.848H91.22c.2,3.573,2.307,4.69,5.564,4.4,1.521-.132,3.063,0,4.593-.048,1.983-.064,3.337-.927,3.462-3.076.134-2.287-1.239-3.454-3.272-3.663-2.123-.218-4.285-.041-6.428-.079-4.569-.08-7.9-3.176-8.048-7.458a7.9,7.9,0,0,1,7.383-7.918,45.275,45.275,0,0,1,7.651.023c4.519.424,7.235,3.9,6.769,8.512h-3.769c-.24-3.684-2.6-4.588-5.886-4.294-1.419.128-2.866-.066-4.285.059-2.1.185-3.541,1.4-3.454,3.528.086,2.09,1.454,3.26,3.681,3.227,2.042-.03,4.091-.092,6.126.031,4.98.3,8.039,3.568,7.868,8.273-.158,4.353-3.261,7.051-8.231,7.126-1.94.029-3.881.042-5.821,0-5.118-.125-7.883-3.064-7.928-8.642" transform="translate(-33.674 -11.159)" fill="#12263f"/>
        <path id="Trazado_607229" data-name="Trazado 607229" d="M178.585,55.478h-4.223V29.28H196.23v4.1H178.747v6.755h13.068v4.309h-13.23Z" transform="translate(-67.42 -11.322)" fill="#12263f"/>
        <path id="Trazado_607230" data-name="Trazado 607230" d="M93.979,134.77c.318-5.076.027-10.043,1.079-14.707,1.221-5.41,6.886-8.184,12.571-7.169a10.983,10.983,0,0,1,8.724,11.055,10.847,10.847,0,0,1-10.116,10.757c-3.831.342-7.716.064-12.257.064m4.772-4.026c3.187-.25,5.984-.148,8.616-.757,3.3-.764,5.016-3.941,4.519-7.329a6.325,6.325,0,0,0-6.539-5.6c-3.471,0-6.148,2.1-6.541,5.571a76.781,76.781,0,0,0-.055,8.118" transform="translate(-36.339 -43.572)" fill="#12263f"/>
        <path id="Trazado_607231" data-name="Trazado 607231" d="M73.022,134.469c-4.747,0-9.162.483-13.423-.118-5.781-.816-9.279-6.223-8.615-12.121.607-5.387,5.571-9.534,11.294-9.434a10.8,10.8,0,0,1,10.7,10.049c.222,3.849.042,7.722.042,11.625M68.74,130.55c0-2.418.05-4.436-.01-6.449-.127-4.207-2.9-7.02-6.818-7a6.6,6.6,0,0,0-6.65,6.179,6.806,6.806,0,0,0,6.641,7.238c2.107.161,4.237.028,6.837.028" transform="translate(-19.682 -43.613)" fill="#12263f"/>
        <path id="Trazado_607232" data-name="Trazado 607232" d="M94.634,155.668c4.751.24,9.293-.018,13.628.808,5.853,1.116,8.972,6.417,8.105,12.423a10.762,10.762,0,0,1-10.9,9.1A10.465,10.465,0,0,1,94.7,168.136c-.322-3.925-.061-7.9-.061-12.468m4.219,4.566c0,2.538-.138,4.767.03,6.972.312,4.1,3.12,6.606,7.009,6.461a6.608,6.608,0,0,0,6.339-6.535,6.837,6.837,0,0,0-6.744-6.877c-2.025-.118-4.063-.021-6.634-.021" transform="translate(-36.553 -60.192)" fill="#12263f"/>
        <path id="Trazado_607233" data-name="Trazado 607233" d="M72.938,156c0,4.6.452,8.913-.108,13.1-.8,6-6.454,9.73-12.545,8.954-5.392-.688-9.453-5.694-9.3-11.464a10.994,10.994,0,0,1,10.624-10.557c3.659-.158,7.329-.029,11.329-.029m-4.168,4.36c-2.588,0-4.81-.144-7.008.031a6.694,6.694,0,0,0,.355,13.384c3.745-.051,6.508-2.872,6.642-6.864.067-2.023.012-4.05.012-6.551" transform="translate(-19.713 -60.302)" fill="#12263f"/>
      </g>
    </g>
  </g>
</svg>
