<svg xmlns="http://www.w3.org/2000/svg" xmlns:xlink="http://www.w3.org/1999/xlink" width="170" height="155.444" viewBox="0 0 170 155.444">
  <defs>
    <clipPath id="clip-path">
      <rect id="Rectángulo_301151" data-name="Rectángulo 301151" width="129" height="129" fill="#12263f"/>
    </clipPath>
  </defs>
  <g id="Grupo_890261" data-name="Grupo 890261" transform="translate(33.964 22.946)">
    <rect id="Rectángulo_49533" data-name="Rectángulo 49533" width="119.8" height="111.233" transform="translate(16.236 21.265)" fill="#ffde96"/>
    <g id="Grupo_890264" data-name="Grupo 890264" transform="translate(-33.964 -23.345)">
      <g id="Grupo_890264-2" data-name="Grupo 890264" transform="translate(0 0.398)" clip-path="url(#clip-path)">
        <path id="Trazado_607247" data-name="Trazado 607247" d="M129.155,13.2V45.348c-1.628,3.56-4.423,4.79-8.269,4.647-5.5-.2-11.02-.052-16.881-.052v3.347q0,19.612,0,39.224-.024,18.32-.1,36.641H0V25.831a26.734,26.734,0,0,0,2.161-1.758Q11.716,14.561,21.225,5c1.6-1.608,3.074-3.331,4.607-5H103.9V8.44c6.093,0,11.622.167,17.136-.056,3.913-.158,6.619,1.178,8.121,4.819M99.8,49.944H96.575q-23.809,0-47.619,0c-4.933,0-7.125-2.208-7.133-7.182q-.022-13.2,0-26.391c0-6.175,1.763-7.922,8.043-7.924q23.236-.012,46.472,0h3.413V4.234H29.15v25H4.243V124.9H99.8ZM85.34,12.558c-12.042,0-24.084.042-36.126-.036-2.418-.016-3.424.708-3.391,3.274q.17,13.33,0,26.663c-.031,2.643.987,3.489,3.559,3.482,23.988-.061,47.976-.033,71.964-.04,3.3,0,3.748-.471,3.752-3.876q.018-12.758,0-25.517c0-3.622-.323-3.946-3.925-3.948q-17.92-.013-35.839,0m-60.4,12.385V8.005L7.955,24.943Z" transform="translate(0 -0.359)" fill="#12263f"/>
        <rect id="Rectángulo_301146" data-name="Rectángulo 301146" width="3.687" height="3.791" transform="translate(8.633 33.083)" fill="#12263f"/>
        <rect id="Rectángulo_301147" data-name="Rectángulo 301147" width="3.764" height="3.708" transform="translate(16.828 33.118)" fill="#12263f"/>
        <rect id="Rectángulo_301148" data-name="Rectángulo 301148" width="3.772" height="3.694" transform="translate(8.591 41.66)" fill="#12263f"/>
        <rect id="Rectángulo_301149" data-name="Rectángulo 301149" width="3.711" height="3.685" transform="translate(83.431 116.487)" fill="#12263f"/>
        <rect id="Rectángulo_301150" data-name="Rectángulo 301150" width="3.636" height="3.704" transform="translate(92.027 116.467)" fill="#12263f"/>
        <path id="Trazado_607248" data-name="Trazado 607248" d="M186.839,44.6a19.245,19.245,0,0,1-2.086-.013,2.2,2.2,0,0,1-2.048-2.233,2.09,2.09,0,0,1,2.188-2.053c1.424-.052,2.852-.073,4.276-.035a2.1,2.1,0,0,1,2.212,2.192c.019,2.314.03,4.638-.145,6.943a6.123,6.123,0,0,1-5.621,5.826,26.753,26.753,0,0,1-5.735.009,6.366,6.366,0,0,1-5.757-6.461q-.1-6.281,0-12.565a6.377,6.377,0,0,1,6.678-6.623c2.673-.042,5.347-.027,8.021,0,1.594.015,2.5.847,2.468,2.175-.03,1.308-.966,2.135-2.527,2.15-2.584.025-5.169,0-7.753.013-1.711.009-2.488.712-2.5,2.4q-.053,6.082,0,12.165c.013,1.684.786,2.431,2.467,2.48,1.247.037,2.5.053,3.742-.012a2.082,2.082,0,0,0,2.218-2.294c.033-1.113.008-2.228,0-3.342a7.224,7.224,0,0,0-.1-.721" transform="translate(-74.151 -12.952)" fill="#12263f"/>
        <path id="Trazado_607249" data-name="Trazado 607249" d="M102.969,29.6c1.336,0,2.674-.028,4.01.007a2.084,2.084,0,0,1,2.31,2.054,2.137,2.137,0,0,1-2.274,2.255c-2.316.05-4.633.01-6.95.025-2.164.014-3.522,1.223-3.541,3.125-.019,1.881,1.355,3.174,3.5,3.218,1.823.037,3.649-.083,5.33.875a7.526,7.526,0,0,1-3.387,14.161c-2.4.07-4.811.036-7.217.012-1.633-.017-2.641-.913-2.605-2.236.035-1.3.96-2.082,2.565-2.1,2.317-.021,4.635.037,6.95-.024a3.137,3.137,0,0,0,3.229-2.626,3.04,3.04,0,0,0-2.137-3.543,10.293,10.293,0,0,0-2.513-.162c-4.458-.029-7.539-2.665-8.062-6.923a7.471,7.471,0,0,1,6.655-8.071c1.375-.085,2.76-.014,4.142-.014V29.6" transform="translate(-39.243 -12.962)" fill="#12263f"/>
        <path id="Trazado_607250" data-name="Trazado 607250" d="M140.214,47.183c2.065-5.162,4.043-10.11,6.024-15.057.149-.371.293-.746.464-1.107a2.162,2.162,0,1,1,4.023,1.577c-.279.842-.651,1.654-.981,2.48q-3.636,9.1-7.266,18.2c-.437,1.1-1.04,2.17-2.332,1.961a2.957,2.957,0,0,1-1.967-1.475c-2.913-7.017-5.722-14.077-8.524-21.14a2.158,2.158,0,1,1,4.027-1.515c2.059,5.063,4.085,10.139,6.127,15.209.082.2.184.4.405.865" transform="translate(-55.15 -12.944)" fill="#12263f"/>
        <path id="Trazado_607251" data-name="Trazado 607251" d="M87.778,149.83c-.035-7.482-8.245-15.754-16.012-16.151-.025.519-.052,1.041-.076,1.563-.091,2.017-.91,2.849-2.918,2.868-2.65.026-5.3.013-7.951.006-2.569-.007-3.33-.76-3.387-3.321-.007-.338-.031-.676-.047-1.01-6.719-.009-15.378,7.092-16.072,16.045.49,0,.968-.007,1.447,0,2.178.04,2.969.761,3,2.887q.062,4.2,0,8.392c-.03,2.1-.882,2.9-3.01,2.915-2.748.019-5.5.025-8.245,0-2.075-.018-2.961-.9-2.984-2.972-.029-2.552-.011-5.1-.007-7.656,0-2.909.643-3.553,3.52-3.568.387,0,.774,0,1.3,0A24.381,24.381,0,0,1,45.546,133.4H43.77c-3.19,0-6.384.08-9.568-.06a3.185,3.185,0,0,1-2.255-1.251,2.54,2.54,0,0,1,.115-2.391,3.679,3.679,0,0,1,2.512-1.04c6.969-.079,13.938-.041,20.908-.04h1.958c0-.759-.027-1.379.005-2,.1-1.9.932-2.7,2.9-2.712q4.2-.03,8.392.005c2.143.017,2.879.766,2.956,2.935.018.529,0,1.06,0,1.767h1.9c7.019,0,14.037-.031,21.055.044a3.437,3.437,0,0,1,2.4.978,2.609,2.609,0,0,1,.167,2.4A3.11,3.11,0,0,1,95,133.342c-3.184.145-6.377.063-9.568.065H83.62A24.308,24.308,0,0,1,92.8,149.85c.824,0,1.637-.028,2.448.006a2.132,2.132,0,0,1,2.292,2.19c.076,3.236.089,6.477,0,9.712a2.22,2.22,0,0,1-2.423,2.254c-3.042.046-6.086.056-9.128,0a2.406,2.406,0,0,1-2.612-2.579q-.091-4.489,0-8.98c.037-1.772.922-2.565,2.673-2.623.576-.02,1.154,0,1.726,0m-51.329,9.235h4.379V154.7H36.449Zm30.325-30.248h-4.49c0,1.309-.05,2.523.037,3.728a1.116,1.116,0,0,0,.78.746c1.195.085,2.4.036,3.673.036ZM92.68,154.709H88.3v4.461H92.68Z" transform="translate(-13.422 -53.138)" fill="#12263f"/>
      </g>
    </g>
  </g>
</svg>
