<svg xmlns="http://www.w3.org/2000/svg" xmlns:xlink="http://www.w3.org/1999/xlink" width="295" height="276.391" viewBox="0 0 295 276.391">
  <defs>
    <clipPath id="clip-path">
      <rect id="Rect치ngulo_301344" data-name="Rect치ngulo 301344" width="295" height="276.339" fill="none"/>
    </clipPath>
  </defs>
  <g id="Grupo_893448" data-name="Grupo 893448" transform="translate(-180 -11501)">
    <rect id="Rect치ngulo_301345" data-name="Rect치ngulo 301345" width="244" height="251" transform="translate(231 11501)" fill="#f5fafe"/>
    <g id="Grupo_890306" data-name="Grupo 890306" transform="translate(180 11501.052)">
      <g id="Grupo_890305" data-name="Grupo 890305" clip-path="url(#clip-path)">
        <path id="Trazado_607672" data-name="Trazado 607672" d="M140.368,109.179a.38.38,0,0,0,.341-.547l-2.8-5.715a.38.38,0,1,0-.683.334l2.8,5.715a.379.379,0,0,0,.341.213" transform="translate(1.82 1.363)"/>
        <path id="Trazado_607673" data-name="Trazado 607673" d="M146.758,109.492a.38.38,0,0,0,.378-.342l.621-6.333a.38.38,0,0,0-.756-.075l-.622,6.333a.38.38,0,0,0,.341.415l.038,0" transform="translate(1.942 1.359)"/>
        <path id="Trazado_607674" data-name="Trazado 607674" d="M235.779,146.573a.374.374,0,0,0,.088-.01l6.191-1.47a.38.38,0,0,0-.175-.74l-6.192,1.47a.38.38,0,0,0,.088.75" transform="translate(3.123 1.915)"/>
        <path id="Trazado_607675" data-name="Trazado 607675" d="M240.106,154.758a.38.38,0,0,0,.12-.741l-6.04-2a.38.38,0,0,0-.239.721l6.04,2a.378.378,0,0,0,.12.019" transform="translate(3.101 2.017)"/>
        <path id="Trazado_607676" data-name="Trazado 607676" d="M22.9,136.791a.38.38,0,0,0,.229-.683l-5.079-3.834a.38.38,0,0,0-.458.607l5.079,3.833a.38.38,0,0,0,.229.077" transform="translate(0.231 1.754)"/>
        <path id="Trazado_607677" data-name="Trazado 607677" d="M28.739,134.187a.385.385,0,0,0,.138-.025.381.381,0,0,0,.217-.492l-2.307-5.931a.38.38,0,0,0-.708.276l2.306,5.931a.381.381,0,0,0,.355.242" transform="translate(0.346 1.692)"/>
        <path id="Trazado_607678" data-name="Trazado 607678" d="M0,116.525a4.267,4.267,0,1,1,4.267,4.267A4.272,4.272,0,0,1,0,116.525m.76,0a3.507,3.507,0,1,0,3.507-3.507A3.511,3.511,0,0,0,.76,116.525" transform="translate(0 1.49)"/>
        <path id="Trazado_607679" data-name="Trazado 607679" d="M175.811,212.1a4.267,4.267,0,1,1,4.267,4.267,4.272,4.272,0,0,1-4.267-4.267m.76,0a3.507,3.507,0,1,0,3.507-3.507,3.511,3.511,0,0,0-3.507,3.507" transform="translate(2.333 2.758)"/>
        <path id="Trazado_607680" data-name="Trazado 607680" d="M90.285,202.362c.414-1.06-.435-2.384-1.9-2.956s-2.985-.176-3.4.884.435,2.384,1.9,2.957,2.985.176,3.4-.885" transform="translate(1.126 2.642)"/>
        <path id="Trazado_607681" data-name="Trazado 607681" d="M86.752,203.6a3.818,3.818,0,0,1-1.834-1.443,2.07,2.07,0,0,1,1.286-3.289,3.827,3.827,0,0,1,2.327.184c1.655.647,2.6,2.195,2.113,3.448a2.188,2.188,0,0,1-1.566,1.284,3.348,3.348,0,0,1-.843.1,4.092,4.092,0,0,1-1.483-.289m3.184-1.376c.337-.863-.416-1.969-1.682-2.464a3.063,3.063,0,0,0-1.858-.156,1.317,1.317,0,0,0-.838,2.143,3.272,3.272,0,0,0,3.33,1.3,1.45,1.45,0,0,0,1.049-.825" transform="translate(1.121 2.637)"/>
        <path id="Trazado_607682" data-name="Trazado 607682" d="M77.1,197.54c.414-1.06-.435-2.384-1.9-2.956s-2.985-.176-3.4.884.435,2.384,1.9,2.956,2.985.177,3.4-.884" transform="translate(0.951 2.578)"/>
        <path id="Trazado_607683" data-name="Trazado 607683" d="M73.565,198.783a3.826,3.826,0,0,1-1.834-1.444,2.183,2.183,0,0,1-.279-2c.49-1.254,2.236-1.747,3.891-1.1a3.816,3.816,0,0,1,1.834,1.444,2.069,2.069,0,0,1-1.286,3.289,3.4,3.4,0,0,1-.843.1,4.092,4.092,0,0,1-1.483-.289m-1.405-3.172a1.45,1.45,0,0,0,.211,1.317,3.275,3.275,0,0,0,3.33,1.3,1.452,1.452,0,0,0,1.049-.825h0a1.45,1.45,0,0,0-.211-1.317,3.061,3.061,0,0,0-1.471-1.146,3.358,3.358,0,0,0-1.218-.238,1.7,1.7,0,0,0-1.689.907" transform="translate(0.946 2.573)"/>
        <path id="Trazado_607684" data-name="Trazado 607684" d="M85.062,201.7a.38.38,0,0,0,.375-.32,105.4,105.4,0,0,1,4.2-17.064.381.381,0,0,0-.24-.482c-.033-.011-3.424-1.145-6.784-2.25-7.019-2.309-7.023-2.3-7.254-2.072a.379.379,0,0,0-.1.169L72.1,191.556a17.312,17.312,0,0,0-.8,4.772.38.38,0,1,0,.76-.014,16.729,16.729,0,0,1,.776-4.563l3.069-11.52c1.536.437,8.2,2.636,12.894,4.205a106.248,106.248,0,0,0-4.107,16.826A.38.38,0,0,0,85,201.7a.3.3,0,0,0,.06.005" transform="translate(0.946 2.381)"/>
        <path id="Trazado_607685" data-name="Trazado 607685" d="M89.309,184.151l-.924,2.484-13.467-4.379.739-2.485Z" transform="translate(0.994 2.385)"/>
        <path id="Trazado_607686" data-name="Trazado 607686" d="M88.272,187,74.8,182.622a.381.381,0,0,1-.246-.47l.739-2.485a.38.38,0,0,1,.48-.253l13.653,4.38a.38.38,0,0,1,.24.494l-.924,2.484a.379.379,0,0,1-.357.247.4.4,0,0,1-.118-.018m-12.357-6.745-.523,1.758,12.768,4.152.659-1.77Z" transform="translate(0.989 2.38)"/>
        <path id="Trazado_607687" data-name="Trazado 607687" d="M59.772,160.846a6.21,6.21,0,0,1,4.526-6.708,11.747,11.747,0,0,1,1.168-.2,6.743,6.743,0,0,0,1.662-.371c1.754-.725,2.519-2.922,2.5-4.779a29.4,29.4,0,0,0-.769-5.5l-.11-.538c-1.585-7.81-.33-14.4,3.731-19.572a22.852,22.852,0,0,1,9.957-7.16,30.794,30.794,0,0,1,4.839-1.391,11.58,11.58,0,0,1,.276-3.034c1.088-4.775,3.331-6.259,5.706-7.831a16.419,16.419,0,0,0,4.754-4.247.38.38,0,0,1,.615.447,17.289,17.289,0,0,1-4.95,4.434c-2.342,1.549-4.364,2.887-5.383,7.364a10.639,10.639,0,0,0-.249,2.754,7.827,7.827,0,0,1,5.71,1.244c1.627,1.185,2.7,3.426,1.582,4.982-1.021,1.426-3.238,1.318-4.709.4a7.54,7.54,0,0,1-3.292-5.752,32.123,32.123,0,0,0-4.647,1.346,22.056,22.056,0,0,0-9.611,6.912c-3.917,4.993-5.123,11.37-3.584,18.951l.109.537a29.922,29.922,0,0,1,.785,5.642c.02,1.957-.744,4.568-2.969,5.489a7.407,7.407,0,0,1-1.849.422c-.381.053-.741.1-1.092.187a5.422,5.422,0,0,0-3.953,5.859.381.381,0,0,1-.321.432.538.538,0,0,1-.056,0,.381.381,0,0,1-.376-.325M88.1,115.271a6.867,6.867,0,0,0,2.927,5.228c1.178.737,2.924.869,3.688-.2.842-1.177-.076-2.955-1.411-3.925a6.384,6.384,0,0,0-3.89-1.194,10.462,10.462,0,0,0-1.314.088" transform="translate(0.792 1.318)"/>
        <path id="Trazado_607688" data-name="Trazado 607688" d="M155.482,200.908h.024a.379.379,0,0,0,.272-.14,30.038,30.038,0,0,1,11.005-8.7,20.2,20.2,0,0,1,6.782-1.787,23.059,23.059,0,0,0,6.285-1.473c4.206-1.631,6.131-3.605,8.568-6.1a52.485,52.485,0,0,1,8.068-7.016,28.967,28.967,0,0,1,8.732-4.534,16.124,16.124,0,0,0,6.29-3.481c4.685-3.95,6.07-7.583,7.537-11.43,1.326-3.48,2.7-7.079,6.746-11.117a19.776,19.776,0,0,1,8.994-5.393,24.505,24.505,0,0,0,10-5.753,33.477,33.477,0,0,0,8.145-11.316c1.609-3.26,3.13-6.339,6.923-9.333,5.383-4.25,12.807-6.24,22.069-5.911a.38.38,0,1,0,.027-.759c-9.447-.334-17.038,1.709-22.568,6.074-3.927,3.1-5.484,6.255-7.132,9.594a32.427,32.427,0,0,1-7.973,11.088,23.845,23.845,0,0,1-9.738,5.6,20.418,20.418,0,0,0-9.288,5.575c-4.163,4.153-5.564,7.83-6.92,11.384-1.431,3.752-2.781,7.3-7.316,11.12a15.306,15.306,0,0,1-6.042,3.34,29.658,29.658,0,0,0-8.929,4.635,53.765,53.765,0,0,0-8.173,7.106c-2.466,2.528-4.248,4.354-8.3,5.927a22.415,22.415,0,0,1-6.1,1.427,21.112,21.112,0,0,0-7,1.849,30.659,30.659,0,0,0-11.024,8.594c-1.161-1.082-2.42-2.086-3.746-3.145a47.386,47.386,0,0,1-6.053-5.442c-3.836-4.313-9.307-8.167-17.187-12.1,4.937-4.224,9.243-6.657,13.518-7.641a26.314,26.314,0,0,1,6.284-.711,19.6,19.6,0,0,0,5.417-.663c5.211-1.405,7.492-4.357,10.133-7.774a38.341,38.341,0,0,1,8.82-8.851,26.452,26.452,0,0,1,11.9-4.761c3.479-.637,6.483-1.188,10.057-4.788,3.326-3.349,4.046-6.2,4.809-9.213a20.426,20.426,0,0,1,4.715-9.612c3.412-3.94,6.3-4.955,9.654-6.129a28.685,28.685,0,0,0,10.977-6.236,31.606,31.606,0,0,0,7.869-10.887c1.611-3.254,3.132-6.327,7-9.563,5.367-4.491,12.522-6.964,21.264-7.351a.38.38,0,0,0-.033-.76c-8.913.4-16.22,2.928-21.718,7.529-3.991,3.339-5.547,6.482-7.194,9.809a30.967,30.967,0,0,1-7.695,10.658,27.7,27.7,0,0,1-10.722,6.084c-3.308,1.16-6.432,2.257-9.977,6.349a21.071,21.071,0,0,0-4.877,9.923c-.737,2.912-1.433,5.662-4.611,8.864-3.407,3.43-6.3,3.961-9.654,4.576a27.087,27.087,0,0,0-12.2,4.887,39.015,39.015,0,0,0-8.985,9.007c-2.662,3.445-4.764,6.166-9.728,7.505a18.659,18.659,0,0,1-5.232.635,27.346,27.346,0,0,0-6.443.732c-4.525,1.042-9.062,3.642-14.278,8.181a.38.38,0,0,0,.082.627c8.066,3.978,13.616,7.848,17.468,12.179a47.984,47.984,0,0,0,6.148,5.53c1.427,1.139,2.775,2.216,3.992,3.382a.382.382,0,0,0,.263.105" transform="translate(1.69 1.119)"/>
        <path id="Trazado_607689" data-name="Trazado 607689" d="M154.861,196.353a.38.38,0,0,1-.016-.537c.707-.755,1.45-1.475,2.206-2.142a.38.38,0,0,1,.5.569c-.738.653-1.463,1.356-2.154,2.093a.381.381,0,0,1-.538.016m4.508-4.067a.38.38,0,0,1,.087-.53,29.635,29.635,0,0,1,2.593-1.663.38.38,0,0,1,.375.662,28.662,28.662,0,0,0-2.524,1.617.372.372,0,0,1-.222.072.381.381,0,0,1-.309-.158m5.238-3.066a.38.38,0,0,1,.2-.5,20.865,20.865,0,0,1,2.914-1.023.379.379,0,1,1,.2.733,20.6,20.6,0,0,0-2.809.988.365.365,0,0,1-.151.032.379.379,0,0,1-.349-.231m5.815-1.662a.38.38,0,0,1,.329-.424c.215-.027.429-.055.642-.08.746-.089,1.516-.183,2.342-.339a.381.381,0,0,1,.14.749c-.849.159-1.632.254-2.39.346-.213.026-.425.052-.637.079a.394.394,0,0,1-.049,0,.382.382,0,0,1-.377-.333m5.955-1.125a.379.379,0,0,1,.236-.482c.289-.1.586-.209.882-.323.665-.257,1.295-.534,1.874-.822a.38.38,0,1,1,.338.68c-.6.3-1.251.585-1.937.85-.3.119-.61.231-.909.333a.378.378,0,0,1-.483-.236m5.446-2.633a.381.381,0,0,1,.082-.532,21.435,21.435,0,0,0,2.267-1.935.38.38,0,0,1,.527.547,22.276,22.276,0,0,1-2.345,2,.383.383,0,0,1-.531-.083m4.483-4.079a.38.38,0,0,1-.006-.537c.61-.621,1.345-1.363,2.178-2.14a.38.38,0,1,1,.519.555c-.822.768-1.549,1.5-2.153,2.117a.378.378,0,0,1-.537.005m4.419-4.16a.381.381,0,0,1,.052-.535c.764-.629,1.578-1.261,2.418-1.874a.38.38,0,1,1,.449.613c-.829.6-1.63,1.226-2.383,1.846a.383.383,0,0,1-.535-.051m4.875-3.62a.379.379,0,0,1,.112-.525c.931-.6,1.8-1.114,2.64-1.561a.38.38,0,1,1,.357.672c-.826.438-1.671.936-2.584,1.527a.377.377,0,0,1-.525-.112m5.333-2.875a.379.379,0,0,1,.219-.489c.629-.242,1.2-.431,1.744-.613.384-.129.756-.252,1.126-.387a.38.38,0,0,1,.259.714c-.376.137-.754.262-1.144.393-.54.18-1.1.367-1.713.6a.379.379,0,0,1-.49-.22m5.622-2.243a.381.381,0,0,1,.121-.524,19.739,19.739,0,0,0,2.264-1.676l.122-.1a.38.38,0,0,1,.493.579l-.125.105a20.634,20.634,0,0,1-2.352,1.74.371.371,0,0,1-.2.058.378.378,0,0,1-.322-.178m4.684-3.832a.381.381,0,0,1-.022-.537,20.211,20.211,0,0,0,1.853-2.33.38.38,0,0,1,.628.428,21.022,21.022,0,0,1-1.922,2.417.38.38,0,0,1-.537.022m3.5-4.935a.381.381,0,0,1-.173-.51c.5-1.005.9-2,1.2-2.755a.38.38,0,1,1,.707.278c-.3.768-.712,1.782-1.221,2.814a.381.381,0,0,1-.509.173m2.328-5.606a.379.379,0,0,1-.213-.493c.433-1.093.824-1.987,1.23-2.809a.38.38,0,1,1,.681.335c-.4.816-.773,1.665-1.2,2.752a.38.38,0,0,1-.354.241.376.376,0,0,1-.14-.026m2.65-5.453a.379.379,0,0,1-.11-.526,25.149,25.149,0,0,1,1.838-2.47.38.38,0,1,1,.582.489,24.379,24.379,0,0,0-1.783,2.4.38.38,0,0,1-.526.11m3.82-4.7a.38.38,0,0,1,.009-.537,24,24,0,0,1,2.34-2,.38.38,0,1,1,.454.61,23.4,23.4,0,0,0-2.266,1.94.377.377,0,0,1-.264.106.381.381,0,0,1-.273-.115m4.807-3.669a.381.381,0,0,1,.165-.512,22.615,22.615,0,0,1,2.844-1.19.38.38,0,0,1,.252.717,21.768,21.768,0,0,0-2.751,1.149.372.372,0,0,1-.172.042.381.381,0,0,1-.338-.207m5.647-2.2a.38.38,0,0,1,.224-.488,22.612,22.612,0,0,0,2.728-1.207.38.38,0,1,1,.355.673,23.329,23.329,0,0,1-2.818,1.246.381.381,0,0,1-.488-.224m5.4-2.735a.379.379,0,0,1,.088-.53,29.914,29.914,0,0,0,2.342-1.868.38.38,0,0,1,.5.571c-.809.71-1.617,1.355-2.4,1.915a.38.38,0,0,1-.53-.088M244,129.749a.381.381,0,0,1-.012-.538,29.811,29.811,0,0,0,1.964-2.264.38.38,0,1,1,.6.468c-.617.788-1.294,1.57-2.013,2.321a.382.382,0,0,1-.537.012m3.791-4.732a.379.379,0,0,1-.121-.523c.5-.794.97-1.624,1.485-2.613a.38.38,0,1,1,.674.351c-.525,1.008-1.006,1.855-1.515,2.666a.379.379,0,0,1-.524.12m2.893-5.337a.379.379,0,0,1-.17-.51c.43-.865.9-1.791,1.432-2.7a.38.38,0,0,1,.658.382c-.521.894-.985,1.808-1.409,2.661a.378.378,0,0,1-.51.171m3.045-5.245a.38.38,0,0,1-.067-.533,20.166,20.166,0,0,1,2.078-2.286.38.38,0,1,1,.522.551,19.5,19.5,0,0,0-2,2.2.378.378,0,0,1-.533.066m4.3-4.255a.38.38,0,0,1,.085-.531A25.153,25.153,0,0,1,260.721,108a.38.38,0,0,1,.367.666,24.364,24.364,0,0,0-2.526,1.6.381.381,0,0,1-.531-.085m5.264-3.013a.379.379,0,0,1,.208-.5,29.7,29.7,0,0,1,2.905-1.014.38.38,0,0,1,.214.73,29.174,29.174,0,0,0-2.831.988.38.38,0,0,1-.5-.208m5.8-1.791a.379.379,0,0,1,.3-.446c.976-.193,2-.352,3.032-.472a.38.38,0,1,1,.088.755c-1.016.119-2.016.275-2.973.463a.366.366,0,0,1-.074.007.38.38,0,0,1-.372-.307m6.024-.768a.379.379,0,0,1,.362-.4c.783-.037,1.591-.057,2.4-.057.222,0,.44,0,.662,0a.38.38,0,0,1-.005.76h0q-.321,0-.637,0c-.792-.007-1.6.018-2.379.056H275.5a.379.379,0,0,1-.379-.362" transform="translate(2.053 1.382)"/>
        <path id="Trazado_607690" data-name="Trazado 607690" d="M131.744,179.481a.381.381,0,0,1,.1-.528c.191-.129.389-.264.594-.4.482-.329,1.029-.7,1.609-1.082a.38.38,0,0,1,.416.636c-.574.374-1.093.73-1.6,1.073l-.6.407a.385.385,0,0,1-.213.065.381.381,0,0,1-.315-.167m4.785-3.079a.38.38,0,0,1,.153-.516,27.374,27.374,0,0,1,2.785-1.316.38.38,0,0,1,.285.705,26.4,26.4,0,0,0-2.708,1.28.38.38,0,0,1-.515-.153m5.6-2.339a.381.381,0,0,1,.27-.466,26.064,26.064,0,0,1,3.014-.638.38.38,0,0,1,.109.752,25.213,25.213,0,0,0-2.927.621.416.416,0,0,1-.1.013.382.382,0,0,1-.368-.282m8.1-.481c-.367,0-.716-.011-1.085-.023-.213-.007-.429-.014-.649-.018a.381.381,0,0,1,.008-.761h.008c.225.005.443.012.658.019.367.012.71.029,1.071.023a12.131,12.131,0,0,0,1.262-.061.38.38,0,1,1,.077.756,12.754,12.754,0,0,1-1.339.065Zm3.912-.974a.381.381,0,0,1,.253-.474,20.33,20.33,0,0,0,2.782-1.059.38.38,0,0,1,.324.688,21.128,21.128,0,0,1-2.886,1.1.381.381,0,0,1-.474-.253m5.509-2.492a.381.381,0,0,1,.091-.53,19.805,19.805,0,0,0,2.289-1.9.38.38,0,0,1,.526.549,20.543,20.543,0,0,1-2.377,1.974.378.378,0,0,1-.529-.091m4.485-4.072a.379.379,0,0,1-.031-.536c.555-.625,1.12-1.285,1.718-1.983l.264-.309a.38.38,0,0,1,.578.5l-.265.308c-.6.7-1.167,1.363-1.728,1.993a.379.379,0,0,1-.536.031m3.982-4.587a.381.381,0,0,1-.03-.537c.713-.8,1.39-1.533,2.07-2.241a.38.38,0,1,1,.548.526c-.673.7-1.345,1.429-2.051,2.221a.38.38,0,0,1-.537.031m4.187-4.4a.38.38,0,0,1,.011-.537l.272-.258a20.274,20.274,0,0,1,2.084-1.736.38.38,0,0,1,.445.617,19.355,19.355,0,0,0-2.006,1.67l-.268.256a.384.384,0,0,1-.263.105.379.379,0,0,1-.275-.118m4.854-3.6a.379.379,0,0,1,.181-.506,17.487,17.487,0,0,1,2.91-1.063.38.38,0,0,1,.2.734,16.718,16.718,0,0,0-2.785,1.016.385.385,0,0,1-.162.036.38.38,0,0,1-.344-.218m5.79-1.758a.378.378,0,0,1,.314-.436c.406-.066.812-.128,1.214-.188.587-.088,1.194-.18,1.782-.284a.38.38,0,0,1,.132.749c-.6.1-1.209.2-1.8.287-.4.061-.8.122-1.207.186a.436.436,0,0,1-.062.005.38.38,0,0,1-.374-.319m5.965-1.123a.381.381,0,0,1,.242-.48,12.908,12.908,0,0,0,2.678-1.219.38.38,0,0,1,.393.651,13.633,13.633,0,0,1-2.834,1.291.368.368,0,0,1-.119.019.38.38,0,0,1-.361-.261m5.24-2.96a.38.38,0,0,1,.012-.537q.16-.152.319-.313c.621-.625,1.2-1.256,1.723-1.877a.38.38,0,1,1,.582.488c-.535.637-1.129,1.285-1.765,1.924-.11.112-.223.221-.333.327a.381.381,0,0,1-.537-.013m3.95-4.6a.381.381,0,0,1-.11-.526,23.762,23.762,0,0,0,1.469-2.6.38.38,0,0,1,.683.333,24.5,24.5,0,0,1-1.516,2.683.38.38,0,0,1-.318.172.384.384,0,0,1-.208-.062m2.77-5.392a.38.38,0,0,1-.214-.493c.187-.474.372-.954.559-1.441.174-.457.353-.919.538-1.391a.38.38,0,1,1,.707.278c-.184.47-.362.931-.536,1.385-.188.49-.373.972-.562,1.449a.38.38,0,0,1-.492.214m2.259-5.64a.38.38,0,0,1-.188-.5c.437-.952.887-1.848,1.376-2.739a.38.38,0,1,1,.667.367c-.481.873-.923,1.753-1.351,2.688a.381.381,0,0,1-.347.222.376.376,0,0,1-.157-.034m2.936-5.3a.379.379,0,0,1-.064-.533,12.4,12.4,0,0,1,2.208-2.2.38.38,0,0,1,.462.6,11.647,11.647,0,0,0-2.073,2.07.378.378,0,0,1-.533.063m4.643-3.8a.38.38,0,0,1,.2-.5c.954-.418,1.95-.749,2.888-1.053a.38.38,0,0,1,.233.723c-.919.3-1.894.621-2.816,1.025a.37.37,0,0,1-.152.032.38.38,0,0,1-.349-.228m5.723-2.025a.379.379,0,0,1,.226-.487,25.891,25.891,0,0,0,2.747-1.181.38.38,0,1,1,.343.678,26.5,26.5,0,0,1-2.828,1.217.391.391,0,0,1-.131.023.379.379,0,0,1-.357-.249m5.443-2.658a.38.38,0,0,1,.1-.528,25.733,25.733,0,0,0,2.364-1.83.38.38,0,0,1,.5.574,26.451,26.451,0,0,1-2.434,1.885.382.382,0,0,1-.214.066.377.377,0,0,1-.314-.166m4.656-3.883a.38.38,0,0,1-.005-.537c.715-.73,1.391-1.48,2.008-2.231a.38.38,0,1,1,.587.482c-.63.768-1.321,1.536-2.053,2.281a.38.38,0,0,1-.537.005m3.9-4.646a.381.381,0,0,1-.1-.528c.527-.782,1.027-1.6,1.576-2.561a.38.38,0,1,1,.661.375c-.558.983-1.069,1.812-1.606,2.61a.378.378,0,0,1-.315.168.385.385,0,0,1-.213-.065m3.079-5.231a.381.381,0,0,1-.155-.515c.431-.8.935-1.733,1.49-2.665a.38.38,0,1,1,.654.388c-.546.919-1.047,1.843-1.473,2.637a.382.382,0,0,1-.515.155m3.1-5.219a.38.38,0,0,1-.085-.53,30.458,30.458,0,0,1,1.917-2.4.38.38,0,0,1,.57.5c-.674.763-1.286,1.529-1.871,2.342a.38.38,0,0,1-.531.086m3.956-4.6a.381.381,0,0,1,.025-.537,24.212,24.212,0,0,1,2.409-1.928.38.38,0,1,1,.436.623,23.35,23.35,0,0,0-2.333,1.866.38.38,0,0,1-.537-.024m4.909-3.558a.38.38,0,0,1,.159-.514,26.752,26.752,0,0,1,2.807-1.274.38.38,0,0,1,.274.709,25.921,25.921,0,0,0-2.727,1.237.38.38,0,0,1-.513-.159m5.623-2.278a.38.38,0,0,1,.268-.466c.957-.26,1.966-.486,3-.671a.38.38,0,0,1,.134.748c-1.009.18-2,.4-2.932.657a.377.377,0,0,1-.1.013.381.381,0,0,1-.367-.281m5.964-1.145a.381.381,0,0,1,.339-.417c.969-.1,2-.175,3.054-.222a.38.38,0,1,1,.033.759c-1.043.047-2.055.121-3.009.219a.259.259,0,0,1-.04,0,.38.38,0,0,1-.378-.34" transform="translate(1.747 1.154)"/>
        <path id="Trazado_607691" data-name="Trazado 607691" d="M46.959,140.371A24.811,24.811,0,1,0,63.1,171.528a24.812,24.812,0,0,0-16.138-31.157" transform="translate(0.194 1.847)" fill="#fff"/>
        <path id="Trazado_607692" data-name="Trazado 607692" d="M31.831,188.034a25.191,25.191,0,0,1,15.248-48.02l-.116.362.116-.362a25.191,25.191,0,1,1-15.248,48.02M16.17,156.63a24.422,24.422,0,1,0,23.3-17.039,24.459,24.459,0,0,0-23.3,17.039" transform="translate(0.189 1.842)"/>
        <path id="Trazado_607693" data-name="Trazado 607693" d="M25.627,164.167a4.386,4.386,0,1,0-2.852-5.507,4.386,4.386,0,0,0,2.852,5.507" transform="translate(0.299 2.065)"/>
        <path id="Trazado_607694" data-name="Trazado 607694" d="M25.517,164.534h0a4.738,4.738,0,1,1,1.448.226,4.771,4.771,0,0,1-1.448-.226m.113-.362h0Zm-2.489-5.393a4.007,4.007,0,1,0,3.82-2.794,4.011,4.011,0,0,0-3.82,2.794" transform="translate(0.294 2.06)"/>
        <path id="Trazado_607695" data-name="Trazado 607695" d="M50.014,171.911a4.386,4.386,0,1,0-2.852-5.507,4.386,4.386,0,0,0,2.852,5.507" transform="translate(0.623 2.167)"/>
        <path id="Trazado_607696" data-name="Trazado 607696" d="M49.9,172.279a4.735,4.735,0,1,1,1.448.226,4.737,4.737,0,0,1-1.448-.226m-.4-8.1a4.006,4.006,0,1,0,3.055-.26,4.03,4.03,0,0,0-1.217-.19,3.99,3.99,0,0,0-1.838.451" transform="translate(0.618 2.162)"/>
        <path id="Trazado_607697" data-name="Trazado 607697" d="M39.456,177.381a4.386,4.386,0,1,0-5.507,2.852,4.386,4.386,0,0,0,5.507-2.852" transform="translate(0.41 2.278)"/>
        <path id="Trazado_607698" data-name="Trazado 607698" d="M33.839,180.6a4.764,4.764,0,1,1,1.439.224,4.737,4.737,0,0,1-1.439-.224m-.4-8.1a4,4,0,1,0,3.055-.261,3.984,3.984,0,0,0-3.055.261" transform="translate(0.405 2.273)"/>
        <path id="Trazado_607699" data-name="Trazado 607699" d="M47.2,152.993a4.386,4.386,0,1,0-5.507,2.853,4.386,4.386,0,0,0,5.507-2.853" transform="translate(0.513 1.954)"/>
        <path id="Trazado_607700" data-name="Trazado 607700" d="M41.583,156.213a4.735,4.735,0,1,1,1.448.226,4.734,4.734,0,0,1-1.448-.226m-.4-8.1a4,4,0,1,0,3.055-.261,4.035,4.035,0,0,0-1.218-.189,3.985,3.985,0,0,0-1.837.451" transform="translate(0.508 1.949)"/>
        <path id="Trazado_607701" data-name="Trazado 607701" d="M21.485,173.51a.116.116,0,0,0,.058-.014l36.2-18.752a.125.125,0,0,0,.055-.17.128.128,0,0,0-.171-.055l-36.2,18.752a.127.127,0,0,0,.058.239" transform="translate(0.283 2.05)"/>
        <path id="Trazado_607702" data-name="Trazado 607702" d="M48.846,182.348a.116.116,0,0,0,.058-.014.126.126,0,0,0,.055-.17l-18.752-36.2a.127.127,0,1,0-.225.117l18.752,36.2a.127.127,0,0,0,.112.069" transform="translate(0.398 1.936)"/>
        <path id="Trazado_607703" data-name="Trazado 607703" d="M99.192,143.614c1.245,6.935-1.9,14.706-8.119,18.024-3.384,1.807-7.336,2.242-10.854,3.772s-6.824,4.875-6.257,8.669c.377,2.521,2.7,8.009-4.32,12.532-5.789,3.731-1.972,18.43,18.268,21.7,6.2,1,1.643-3.243,7.629-5.144,5.912-1.878,10.872-6.162,14.351-11.3a51.16,51.16,0,0,0,7-17.13c1.631-6.954,2.36-14.467-.353-21.075S106.8,141.8,99.192,143.614" transform="translate(0.891 1.901)"/>
        <path id="Trazado_607704" data-name="Trazado 607704" d="M87.856,208.693c-13.519-2.185-19.669-9.426-20.826-14.964-.669-3.195.255-6.043,2.412-7.433,5.917-3.814,4.945-8.345,4.364-11.054-.085-.4-.166-.774-.215-1.1-.6-4.035,2.936-7.532,6.481-9.074a38.234,38.234,0,0,1,4.891-1.621,29.514,29.514,0,0,0,5.936-2.138c5.864-3.13,9.2-10.541,7.925-17.622a.379.379,0,0,1,.286-.437,13.881,13.881,0,0,1,10.8,1.917,17.991,17.991,0,0,1,6.983,8.36c2.332,5.679,2.449,12.45.371,21.307-1.656,7.051-3.962,12.7-7.051,17.257a28.475,28.475,0,0,1-14.55,11.445c-2.662.845-3.071,2.119-3.432,3.242-.4,1.245-.828,2.072-2.7,2.072a10.628,10.628,0,0,1-1.669-.157m11.776-64.782c1.154,7.286-2.328,14.839-8.376,18.067a30.025,30.025,0,0,1-6.088,2.2,37.6,37.6,0,0,0-4.793,1.587c-3.288,1.43-6.577,4.626-6.033,8.264.046.3.12.652.207,1.055.621,2.9,1.663,7.754-4.7,11.852-1.885,1.215-2.682,3.759-2.079,6.639,1.109,5.3,7.065,12.245,20.2,14.369,2.926.472,3.141-.192,3.528-1.4.376-1.169.89-2.77,3.925-3.735a27.71,27.71,0,0,0,14.15-11.147c3.037-4.482,5.306-10.045,6.941-17,2.04-8.695,1.934-15.318-.334-20.844-2.181-5.313-7.578-10.177-13.949-10.177a12.651,12.651,0,0,0-2.606.273" transform="translate(0.887 1.896)"/>
        <path id="Trazado_607705" data-name="Trazado 607705" d="M123.034,127.05c-2.053,10.009,9.174,24.194,13.274,33.554,1.332,3.042,3.269,5.811,4.364,8.946a27.91,27.91,0,0,1,.986,11.71c-.673,7.432-2.905,15.056-8.13,20.383s-13.97,7.649-20.417,3.891c-5.657-3.3-8.24-10.382-7.884-16.92s3.146-12.675,6.09-18.524c7.073-14.051,2.106-30.925,11.718-43.042" transform="translate(1.396 1.686)"/>
        <path id="Trazado_607706" data-name="Trazado 607706" d="M112.924,205.869c-5.306-3.092-8.476-9.871-8.073-17.269.365-6.721,3.228-12.91,6.129-18.674,3.151-6.26,3.9-13.174,4.62-19.859.917-8.483,1.783-16.5,7.139-23.248a.381.381,0,0,1,.671.313c-1.437,7,3.808,16.179,8.435,24.274,1.868,3.267,3.632,6.352,4.813,9.052.553,1.262,1.226,2.5,1.877,3.7a36.459,36.459,0,0,1,2.5,5.27c1.127,3.228,1.446,7,1.005,11.87-.809,8.931-3.58,15.867-8.238,20.614a19.349,19.349,0,0,1-13.566,5.83,14.471,14.471,0,0,1-7.313-1.877m3.433-55.72c-.73,6.752-1.484,13.735-4.7,20.118-2.865,5.692-5.692,11.8-6.049,18.374-.387,7.115,2.633,13.62,7.7,16.571,5.875,3.424,14.453,1.777,19.954-3.829,4.531-4.62,7.231-11.4,8.023-20.151.431-4.758.124-8.428-.966-11.551a35.924,35.924,0,0,0-2.45-5.159c-.658-1.214-1.339-2.47-1.9-3.761-1.165-2.661-2.919-5.729-4.777-8.978-4.379-7.661-9.3-16.276-8.732-23.311-4.439,6.335-5.247,13.8-6.1,21.677" transform="translate(1.391 1.681)"/>
        <path id="Trazado_607707" data-name="Trazado 607707" d="M109.386,178.188c.183-5.336.094-10.6-.121-14.589a23.841,23.841,0,0,1,6.857-2.212,4,4,0,0,1,3.1.405c.515.4,2.956-1.748,3.208-1.155,1.738,4.073,3.506,13.885,5.244,17.958.134.313,8.3,1.431,8.43,1.747.566,1.326-3.605,6.681-4.027,6.962-22.271,14.807-34.289-7.367-34.289-7.367s5.333-.55,11.6-1.749" transform="translate(1.297 2.13)" fill="#fff"/>
        <path id="Trazado_607708" data-name="Trazado 607708" d="M112.6,192.211c-9.822-2.442-15.1-11.992-15.148-12.088a.38.38,0,0,1,.295-.559c.053-.005,5.219-.543,11.272-1.686.153-4.7.105-9.875-.131-14.253a.38.38,0,0,1,.21-.36,24.135,24.135,0,0,1,6.966-2.248,4.408,4.408,0,0,1,3.352.453,5.446,5.446,0,0,0,1.289-.633c.852-.5,1.354-.774,1.743-.646a.534.534,0,0,1,.33.3,73.617,73.617,0,0,1,2.641,9.034,76.317,76.317,0,0,0,2.553,8.8c.482.163,2.485.509,3.971.765,4.241.733,4.381.8,4.509,1.1.687,1.61-3.683,7.106-4.166,7.427-5.166,3.434-10.182,5.161-14.975,5.161a19.443,19.443,0,0,1-4.711-.576m19.214-12.365c-4.224-.729-4.365-.8-4.492-1.1a73.665,73.665,0,0,1-2.641-9.036,77.1,77.1,0,0,0-2.54-8.774,7.652,7.652,0,0,0-1.052.553c-.92.538-1.647.964-2.1.6a3.72,3.72,0,0,0-2.8-.329,23.347,23.347,0,0,0-6.525,2.067c.231,4.44.271,9.662.108,14.372a.382.382,0,0,1-.309.361c-5.02.96-9.487,1.509-11.047,1.687,1.21,1.961,6.146,9.174,14.371,11.219,5.962,1.482,12.381-.025,19.074-4.475.594-.466,4.059-5.2,3.923-6.391-.52-.167-2.495-.508-3.967-.762" transform="translate(1.292 2.125)"/>
        <path id="Trazado_607709" data-name="Trazado 607709" d="M129.976,126.89c1.21,4.835,2.19,10.022,5.19,14.126,1.635,2.238,6.6,14.944-2.15,22.585a21.232,21.232,0,0,1-17.739,4.9c-4.641-.788-11.977-6.041-13.845-13.4-2.757,2.086-6.645,1.21-7.784-1.561a4.121,4.121,0,0,1,2.224-4.96,3.7,3.7,0,0,1,3.089-.15,45.68,45.68,0,0,0-2.973-10.86c1.985-5.27,6.844-9.485,12.153-12.566a22.471,22.471,0,0,1,5.59-2.463c5.685-1.468,15-.613,16.245,4.353" transform="translate(1.24 1.617)" fill="#fff"/>
        <path id="Trazado_607710" data-name="Trazado 607710" d="M115.218,168.876c-4.571-.775-11.855-5.754-14.007-13.157a5.948,5.948,0,0,1-4.679.717,4.781,4.781,0,0,1-3.23-2.751,4.308,4.308,0,0,1,.216-3.273,3.984,3.984,0,0,1,2.237-2.191,3.913,3.913,0,0,1,2.745-.308,44.809,44.809,0,0,0-2.856-10.2.381.381,0,0,1-.005-.28c2.236-5.937,7.933-10.216,12.317-12.761a23.114,23.114,0,0,1,5.686-2.5c4.026-1.041,10.278-.973,13.933,1.2a5.59,5.59,0,0,1,2.775,3.428c.147.588.291,1.181.435,1.777,1.034,4.264,2.1,8.673,4.692,12.217,2,2.735,6.529,15.464-2.206,23.094a21.26,21.26,0,0,1-14.149,5.318,23.236,23.236,0,0,1-3.9-.333m14.394-41.889a4.857,4.857,0,0,0-2.426-2.959c-3.48-2.069-9.477-2.12-13.355-1.119a22.4,22.4,0,0,0-5.495,2.424C104.093,127.8,98.6,131.91,96.4,137.566a45.977,45.977,0,0,1,2.938,10.808.38.38,0,0,1-.478.423,3.341,3.341,0,0,0-2.863.146,3.225,3.225,0,0,0-1.79,1.784,3.532,3.532,0,0,0-.2,2.67,4.026,4.026,0,0,0,2.728,2.307,5.206,5.206,0,0,0,4.476-.9.38.38,0,0,1,.6.21c1.848,7.28,9.179,12.377,13.54,13.118a20.731,20.731,0,0,0,17.425-4.808c8.915-7.788,3.218-20.534,2.093-22.074-2.68-3.666-3.767-8.15-4.817-12.486-.145-.595-.288-1.186-.435-1.772" transform="translate(1.235 1.612)"/>
        <path id="Trazado_607711" data-name="Trazado 607711" d="M105.375,148.464h0c-1.058-4.167,1.158-8.337,4.939-9.3s7.717,1.65,8.775,5.816a8.173,8.173,0,0,1-.642,5.836,6.712,6.712,0,0,1-4.3,3.459,6.379,6.379,0,0,1-1.589.2,7.685,7.685,0,0,1-7.186-6.014m5.125-8.56c-3.374.856-5.343,4.613-4.388,8.374s4.478,6.123,7.851,5.266a5.962,5.962,0,0,0,3.811-3.08,7.406,7.406,0,0,0,.579-5.293,6.927,6.927,0,0,0-6.448-5.441,5.7,5.7,0,0,0-1.4.175m-4.759,8.466h0Z" transform="translate(1.395 1.844)"/>
        <path id="Trazado_607712" data-name="Trazado 607712" d="M127.205,146.932a8.373,8.373,0,0,1-2.705-10.659,6.716,6.716,0,0,1,4.3-3.461c3.782-.96,7.718,1.649,8.775,5.816a8.169,8.169,0,0,1-.641,5.835,6.714,6.714,0,0,1-4.3,3.461,6.5,6.5,0,0,1-1.6.2,6.879,6.879,0,0,1-3.824-1.195m1.777-13.383a5.966,5.966,0,0,0-3.811,3.079,7.614,7.614,0,0,0,2.455,9.672,5.864,5.864,0,0,0,8.629-2.191,7.4,7.4,0,0,0,.578-5.294,6.926,6.926,0,0,0-6.447-5.441,5.7,5.7,0,0,0-1.4.175" transform="translate(1.64 1.76)"/>
        <path id="Trazado_607713" data-name="Trazado 607713" d="M80.637,114.3a12.589,12.589,0,1,1,13.578,11.515A12.589,12.589,0,0,1,80.637,114.3" transform="translate(1.069 1.336)"/>
        <path id="Trazado_607714" data-name="Trazado 607714" d="M80.264,114.34h0A12.969,12.969,0,1,1,94.251,126.2q-.54.044-1.071.044A12.986,12.986,0,0,1,80.264,114.34m11.924-13.23a12.2,12.2,0,1,0,1.009-.042c-.333,0-.671.013-1.009.042m-11.548,13.2h0Z" transform="translate(1.064 1.331)"/>
        <path id="Trazado_607715" data-name="Trazado 607715" d="M99.621,148.852c1.145-5.783,1.648-9.82.4-15.814,13.537,2.151,24.348-.962,34.688-5.518a20.912,20.912,0,0,0-3.837-7.078c-3.463-3.43-7.155-6.124-14.616-6.447-5.228-.227-11.732.82-16.265,3.417-4.5,2.579-7.59,6.789-9.705,11.215A22.079,22.079,0,0,0,88.753,141.4c.679,3.7,2.519,5.89,5.437,8.773a4.246,4.246,0,0,1,2.377-1.8,5.287,5.287,0,0,1,3.053.478" transform="translate(1.173 1.512)"/>
        <path id="Trazado_607716" data-name="Trazado 607716" d="M93.928,150.448c-2.7-2.664-4.816-5.016-5.544-8.975a22.329,22.329,0,0,1,1.567-13.005c2.5-5.24,5.82-9.069,9.859-11.382,5-2.865,11.791-3.669,16.47-3.466,7.957.345,11.707,3.429,14.868,6.558a21.382,21.382,0,0,1,3.939,7.252.38.38,0,0,1-.215.443c-9.033,3.981-20.164,7.748-34.363,5.629,1.165,6.022.522,10.217-.51,15.43a.379.379,0,0,1-.188.258.383.383,0,0,1-.319.023,4.971,4.971,0,0,0-2.847-.461,3.719,3.719,0,0,0-2.072,1.57l-.085.1a.382.382,0,0,1-.274.135H94.2a.381.381,0,0,1-.267-.109m5.411-2.1c.993-5.076,1.563-9.226.318-15.226a.38.38,0,0,1,.432-.452c14.1,2.241,25.181-1.422,34.172-5.358a20.953,20.953,0,0,0-3.649-6.592c-3.054-3.025-6.679-6.006-14.365-6.338-4.576-.2-11.2.582-16.06,3.366-3.9,2.234-7.115,5.952-9.551,11.05a21.854,21.854,0,0,0-1.5,12.541c.611,3.325,2.122,5.366,5.038,8.28A4.059,4.059,0,0,1,96.5,148a4.417,4.417,0,0,1,.813-.077,5.925,5.925,0,0,1,2.023.419" transform="translate(1.168 1.507)"/>
        <path id="Trazado_607717" data-name="Trazado 607717" d="M120.39,159.835a3.858,3.858,0,0,0,3.519-1.852.38.38,0,0,0-.668-.364,3.144,3.144,0,0,1-2.936,1.455,6.128,6.128,0,0,1-4.074-1.72.38.38,0,0,0-.521.553,6.88,6.88,0,0,0,4.581,1.926h.1" transform="translate(1.534 2.087)"/>
        <path id="Trazado_607718" data-name="Trazado 607718" d="M112.566,146.83a1.192,1.192,0,1,1,1.431.8,1.162,1.162,0,0,1-1.431-.8" transform="translate(1.493 1.929)"/>
        <path id="Trazado_607719" data-name="Trazado 607719" d="M129.07,141.279a1.191,1.191,0,1,1,1.431.8,1.161,1.161,0,0,1-1.431-.8" transform="translate(1.712 1.856)"/>
        <path id="Trazado_607720" data-name="Trazado 607720" d="M125.5,150.366a.383.383,0,0,0,.256-.1l1.27-1.159a.889.889,0,0,0-.2-1.61,6.578,6.578,0,0,1-3.095-4.868.38.38,0,0,0-.756.078,7.34,7.34,0,0,0,3.45,5.436.8.8,0,0,1,.266.21,1.187,1.187,0,0,1-.182.193l-1.27,1.159a.38.38,0,0,0,.256.661" transform="translate(1.632 1.888)"/>
        <path id="Trazado_607721" data-name="Trazado 607721" d="M117.731,142.5a.378.378,0,0,0,.337-.206,4.9,4.9,0,0,1,3.652-2.51c.783-.1,1.692.108,1.915.7a.38.38,0,1,0,.711-.267,2.453,2.453,0,0,0-2.723-1.188,5.681,5.681,0,0,0-4.23,2.915.38.38,0,0,0,.163.512.384.384,0,0,0,.174.043" transform="translate(1.557 1.844)"/>
        <path id="Trazado_607722" data-name="Trazado 607722" d="M99.843,148.268a.371.371,0,0,0,.139-.026l5.427-2.131a.38.38,0,0,0-.278-.707L99.7,147.534a.38.38,0,0,0,.139.734" transform="translate(1.32 1.929)"/>
        <path id="Trazado_607723" data-name="Trazado 607723" d="M100.35,152.4a.374.374,0,0,0,.143-.028.38.38,0,0,0,.209-.5,10.534,10.534,0,0,1-.772-4.2.38.38,0,0,0-.371-.389.376.376,0,0,0-.389.371,11.3,11.3,0,0,0,.829,4.506.379.379,0,0,0,.352.236" transform="translate(1.316 1.954)"/>
        <path id="Trazado_607724" data-name="Trazado 607724" d="M89.389,224.936C84.116,221.872,75.372,211,77.766,202.194c1.275-4.692,3.526-21.587,28.16-23.167.5,7.854,8.154,11.4,13.043,11.982,2.662.318,12.7.02,12.7-11.633,6.647.365,15.041,1.392,27.961,6.538,9.788,3.9,26.481,6.478,26.481,6.478s16.876-21.59,22.936-30.444c3.327-4.861,9.331,15.283,13.045,6.778.563-1.29-17.286,34.41-18.736,37.109-7.582,14.11-42.581,5.18-49.354,5.18.663,9.831-3.533,15.647-6.951,18.629-1.055,22.7,4.495,38.4,4.495,38.4s-31.041,11.534-63.181,2.04c-2.466-.729,6.155-20.6,1.024-45.149" transform="translate(1.026 2.139)" fill="#26aab7"/>
        <path id="Trazado_607725" data-name="Trazado 607725" d="M88.261,270.454c-1.171-.346-.772-2.532.1-7.323,1.4-7.674,4-21.938.693-37.948-5.321-3.2-14.106-14.053-11.651-23.084.088-.327.182-.715.289-1.153.688-2.844,1.97-8.139,5.957-12.8,4.852-5.665,12.34-8.861,22.256-9.5a.38.38,0,0,1,.4.356c.51,8.059,8.536,11.13,12.708,11.628,2,.237,6.135-.033,8.985-2.563,2.184-1.938,3.291-4.864,3.291-8.694a.381.381,0,0,1,.119-.277.4.4,0,0,1,.282-.1c6.655.367,15.195,1.433,28.081,6.564,9.031,3.6,24.178,6.1,26.179,6.421,1.627-2.084,17.089-21.928,22.784-30.248a1.834,1.834,0,0,1,1.5-.933h.007c1.527,0,3.069,2.211,4.855,4.769,1.647,2.359,3.511,5.032,4.932,4.893a1.794,1.794,0,0,0,1.223-.947c.136-.266.247-.483.331-.646.219-.424.352-.678.688-.521a.386.386,0,0,1,.173.531,7.436,7.436,0,0,1-.538,1.025c-1.253,2.458-4.539,9-7.738,15.364-4.783,9.517-9.727,19.359-10.473,20.746-6.173,11.486-29.88,8.054-42.617,6.21-2.9-.421-5.253-.761-6.667-.821.546,10.087-4.066,15.827-6.983,18.419-1.005,22.269,4.426,37.941,4.481,38.1a.38.38,0,0,1-.225.483,105.973,105.973,0,0,1-19.617,4.6,116.843,116.843,0,0,1-16.547,1.2,96.524,96.524,0,0,1-27.259-3.751m58.415-40.824a.381.381,0,0,1,.13-.269c2.841-2.479,7.506-8.157,6.821-18.317a.385.385,0,0,1,.1-.286.38.38,0,0,1,.278-.121,66.4,66.4,0,0,1,7.18.838c12.552,1.817,35.918,5.2,41.839-5.818.741-1.378,5.906-11.658,10.464-20.727,2.142-4.264,4.205-8.369,5.736-11.406.446-.885.847-1.679,1.192-2.36a1.914,1.914,0,0,1-.313.058c-1.865.185-3.692-2.438-5.63-5.214-1.453-2.083-3.1-4.444-4.231-4.444h0a1.118,1.118,0,0,0-.874.6c-6,8.763-22.781,30.247-22.951,30.463a.38.38,0,0,1-.357.142c-.167-.026-16.848-2.631-26.565-6.5-12.528-4.989-20.908-6.1-27.443-6.489-.077,3.863-1.268,6.842-3.542,8.861-3.757,3.335-8.995,2.818-9.578,2.749a18.116,18.116,0,0,1-8.352-3.339,12,12,0,0,1-5-8.616C83.3,181.02,79.891,195.1,78.432,201.124c-.108.447-.2.841-.295,1.174-2.28,8.389,6.116,19.215,11.447,22.314a.379.379,0,0,1,.181.251c3.389,16.221.758,30.651-.656,38.4-.379,2.078-.678,3.719-.779,4.874-.131,1.485.134,1.582.145,1.585,16.529,4.883,32.759,4.072,43.462,2.532a108.243,108.243,0,0,0,19.135-4.44c-.806-2.483-5.355-17.548-4.4-38.187" transform="translate(1.021 2.134)"/>
        <path id="Trazado_607726" data-name="Trazado 607726" d="M218.6,108.539l-72.466,3.371,9.552,70.22,72.835-1.339Z" transform="translate(1.939 1.44)" fill="#fff"/>
        <path id="Trazado_607727" data-name="Trazado 607727" d="M155.318,182.185l-9.552-70.22a.38.38,0,0,1,.36-.431l72.466-3.371a.381.381,0,0,1,.394.327l9.921,72.252a.38.38,0,0,1-.37.432L155.7,182.514H155.7a.379.379,0,0,1-.377-.328m62.962-73.246-71.7,3.336,9.45,69.473,72.07-1.324Z" transform="translate(1.934 1.435)"/>
        <path id="Trazado_607728" data-name="Trazado 607728" d="M138.832,198.826c3.763,5.229,7.2,3.041,7.94,1.644,3.449-6.475,5.368-11.259,5.935-11.582,2.823-1.606,5.3-7.122,6.036-7.3a27.2,27.2,0,0,1,3.019-.723c2.12,2.374,3.852,2.784,4.305,2.012.844-1.44-2.8-4.353-3.159-4.489a9.678,9.678,0,0,0-5.511-.121c1.663-.2,3.662-.766,5.6.227.355.181,1.8,1.852,3.164,2.875,1.208.9,2.731.315,1.838-1.254-.214-.375-3.625-4.094-3.841-4.288-.906-.822-5.023-1.3-7.2-.584,2.113-.41,6.723.015,7.175.571a30.294,30.294,0,0,0,4.292,3.622c1.521,1.273,2.182.069,1.549-1.151-.365-.7-3.558-4.663-4.785-5.427-1.165-.727-5.751-1.317-8.377-1.417a10.706,10.706,0,0,1,5.454-3.571c.543-.193,6.956,1.5,6.522-1.168-.139-.856-4.97-1.489-7.425-1.156-2.942.4-4.829,1.828-7.956,3.409-1.864.942-6.931,8.646-8.44,12.147-2.362,5.481-4.928,7.585-7.179,9.837-2.129,2.129-.314,6,1.043,7.883" transform="translate(1.815 2.195)" fill="#fff"/>
        <path id="Trazado_607729" data-name="Trazado 607729" d="M138.528,199.053c-1.457-2.026-3.308-6.068-1-8.374.254-.255.513-.508.774-.763a24.956,24.956,0,0,0,6.324-8.956c1.529-3.546,6.633-11.332,8.618-12.336.767-.387,1.452-.762,2.115-1.125a16.352,16.352,0,0,1,5.961-2.321c2.041-.277,7.632.118,7.852,1.472a1.428,1.428,0,0,1-.359,1.287c-.98,1.007-3.608.655-5.348.422a9.287,9.287,0,0,0-1.083-.114,10.657,10.657,0,0,0-4.777,2.867c2.529.164,6.614.7,7.792,1.433,1.285.8,4.521,4.8,4.921,5.576a1.645,1.645,0,0,1-.127,2.037c-.231.184-.888.514-2-.413a2.032,2.032,0,0,1,.14.193c.657,1.154.117,1.765-.065,1.925a1.673,1.673,0,0,1-1.733.16,1.428,1.428,0,0,1-.136,1.057,1.12,1.12,0,0,1-.887.534c-1,.1-2.454-.768-3.892-2.333a14.258,14.258,0,0,0-1.779.417c-.308.088-.627.178-.984.264a10.866,10.866,0,0,0-1.253,1.763c-1.2,1.875-2.847,4.442-4.69,5.49a25.734,25.734,0,0,0-1.884,3.613c-.958,2-2.269,4.73-3.918,7.826a3.89,3.89,0,0,1-3.079,1.859q-.128.009-.264.009c-1.311,0-3.209-.646-5.241-3.469m23.522-18.433c1.557,1.745,2.8,2.294,3.387,2.236a.347.347,0,0,0,.306-.163.766.766,0,0,0,.02-.625,3.274,3.274,0,0,0-.5-.931c-.591-.51-1.158-1.073-1.605-1.517a9.483,9.483,0,0,0-.83-.778,4.557,4.557,0,0,0-1.083-.391,6.915,6.915,0,0,0-.953-.127,12.4,12.4,0,0,0-2.467.2c-.3.047-.594.091-.878.125a.38.38,0,0,1-.117-.75,14.449,14.449,0,0,1,3.146-.351,6.293,6.293,0,0,1,1.633.2,7.521,7.521,0,0,1,.939.287,11,11,0,0,1,2.768,2.57c.193.164.386.32.577.463a1.21,1.21,0,0,0,1.373.217c.194-.17.158-.536-.092-.977-.153-.249-1.935-2.227-3-3.382a9.14,9.14,0,0,1-.823-.858c-.432-.379-4.642-.872-6.817-.449a.38.38,0,0,1-.191-.734c2.324-.768,6.563-.252,7.574.663.058.053.367.38.788.836a35.889,35.889,0,0,0,3.31,2.648c.092.067.148.108.158.117.524.44.9.523,1.041.41s.215-.539-.073-1.094a28.757,28.757,0,0,0-4.648-5.28c-.994-.619-5.293-1.249-8.19-1.359a.381.381,0,0,1-.285-.615,11.11,11.11,0,0,1,5.627-3.694,3.879,3.879,0,0,1,1.419.084c1.394.187,3.988.536,4.7-.2a.656.656,0,0,0,.156-.612c-.381-.527-4.464-1.208-7-.864a15.786,15.786,0,0,0-5.7,2.235c-.668.366-1.359.744-2.136,1.137-1.678.847-6.711,8.355-8.263,11.958a25.617,25.617,0,0,1-6.49,9.2c-.26.253-.517.5-.769.757-1.949,1.95-.144,5.689,1.082,7.393,1.969,2.737,3.713,3.219,4.837,3.146a3.137,3.137,0,0,0,2.459-1.459c1.641-3.082,2.949-5.807,3.9-7.8,1.351-2.818,1.8-3.72,2.179-3.937,1.7-.965,3.348-3.542,4.441-5.249.906-1.412,1.29-1.99,1.694-2.087.35-.083.668-.173.975-.26a14.5,14.5,0,0,1,2.078-.469.478.478,0,0,1,.054,0,.382.382,0,0,1,.284.127m.347-12.381h0" transform="translate(1.81 2.191)"/>
        <path id="Trazado_607730" data-name="Trazado 607730" d="M224.167,154.8c-.434-3.889-.835-8.136-1.295-8.6-2.3-2.3-3.228-8.272-3.888-8.635a27.433,27.433,0,0,0-2.72-1.5c-2.672,1.728-4.452,1.665-4.684.8-.433-1.612,3.856-3.455,4.234-3.492a9.681,9.681,0,0,1,5.347,1.344c-1.55-.634-3.329-1.708-5.459-1.265-.389.081-2.223,1.311-3.813,1.935-1.4.55-2.717-.421-1.44-1.7.305-.306,4.58-2.988,4.839-3.119,1.091-.552,5.189.074,7.1,1.344-1.928-.955-6.487-1.766-7.071-1.349a30.313,30.313,0,0,1-5.1,2.356c-1.8.825-2.122-.511-1.19-1.519.538-.582,4.666-3.556,6.051-3.968,1.317-.391,5.9.253,8.453.853a10.709,10.709,0,0,0-4.313-4.888c-.473-.328-7.105-.4-5.98-2.853.361-.788,5.187-.12,7.467.851,2.731,1.163,4.173,3.042,6.769,5.394,1.549,1.4,3.368,8.324,2.647,12.066-.77,4-5.457,20.376-5.953,15.934" transform="translate(2.767 1.595)" fill="#fff"/>
        <path id="Trazado_607731" data-name="Trazado 607731" d="M224.486,155.946c-.572-.022-.66-.8-.692-1.094-.057-.516-.113-1.038-.17-1.556-.312-2.847-.7-6.391-1.015-6.813-1.513-1.512-2.42-4.423-3.081-6.548a10.85,10.85,0,0,0-.742-2.033c-.321-.177-.6-.35-.879-.516a14.669,14.669,0,0,0-1.605-.873c-1.8,1.127-3.425,1.584-4.37,1.219a1.116,1.116,0,0,1-.713-.75,1.432,1.432,0,0,1,.148-1.056,1.667,1.667,0,0,1-1.628-.614c-.132-.2-.491-.933.449-1.872a1.7,1.7,0,0,1,.183-.149c-1.316.6-1.86.107-2.033-.131a1.643,1.643,0,0,1,.416-2c.59-.637,4.77-3.641,6.221-4.072,1.332-.4,5.412.17,7.893.681a10.647,10.647,0,0,0-3.846-4.029,10.142,10.142,0,0,0-1.074-.177c-1.739-.234-4.368-.59-5.047-1.821a1.43,1.43,0,0,1,0-1.336c.57-1.247,6.066-.147,7.961.66a16.341,16.341,0,0,1,5.133,3.817c.543.524,1.1,1.068,1.742,1.645,1.693,1.535,3.5,8.586,2.765,12.419-.33,1.716-1.4,5.826-2.627,9.73-2.182,6.967-2.932,7.27-3.329,7.27l-.057,0m5.266-17.14c.711-3.692-1.147-10.462-2.529-11.713-.646-.586-1.212-1.132-1.758-1.662a15.8,15.8,0,0,0-4.9-3.665c-2.357-1-6.476-1.428-6.981-1.021a.664.664,0,0,0-.012.633c.494.895,3.088,1.246,4.484,1.435a3.9,3.9,0,0,1,1.389.295,11.1,11.1,0,0,1,4.446,5.053.379.379,0,0,1-.06.393.386.386,0,0,1-.377.125c-2.822-.663-7.134-1.193-8.257-.859a28.668,28.668,0,0,0-5.879,3.862c-.426.459-.467.889-.362,1.035s.489.164,1.112-.12l.181-.07a35.935,35.935,0,0,0,3.9-1.677c.527-.327.913-.563.983-.6,1.217-.614,5.44.011,7.479,1.367a.38.38,0,0,1-.379.658,17.719,17.719,0,0,0-6.6-1.406c-.029.009-.057.02-.083.03a9.2,9.2,0,0,1-1.024.612c-1.33.832-3.576,2.267-3.789,2.467-.359.359-.49.7-.35.919a1.211,1.211,0,0,0,1.382.155c.221-.087.45-.187.679-.295a11,11,0,0,1,3.35-1.744,6.846,6.846,0,0,1,.983-.027,6.233,6.233,0,0,1,1.624.236,14.515,14.515,0,0,1,2.944,1.171.381.381,0,0,1-.312.694c-.264-.109-.535-.229-.814-.354a12.038,12.038,0,0,0-2.39-.865,6.706,6.706,0,0,0-.827-.113,4.6,4.6,0,0,0-1.206.087,9.564,9.564,0,0,0-1.008.531c-.548.31-1.243.7-1.949,1.038a3.313,3.313,0,0,0-.732.766.766.766,0,0,0-.146.608c.01.039.044.157.253.237.552.214,1.894.011,3.859-1.257a.377.377,0,0,1,.358-.03,14.637,14.637,0,0,1,1.879,1c.275.166.556.338.871.511.365.2.583.858,1.08,2.461.6,1.935,1.514,4.859,2.894,6.239.45.448.707,2.453,1.234,7.266.055.519.113,1.04.17,1.555a2.749,2.749,0,0,0,.044.284c1.206-1.508,4.42-12.413,5.159-16.246m-10.743-15.072,0,0,0,0" transform="translate(2.762 1.59)"/>
        <path id="Trazado_607732" data-name="Trazado 607732" d="M174.584,134.454l.069,15.632,16.994-8Z" transform="translate(2.317 1.784)"/>
        <path id="Trazado_607733" data-name="Trazado 607733" d="M174.658,150.471a.379.379,0,0,1-.38-.378l-.07-15.632a.381.381,0,0,1,.536-.349l17.062,7.633a.38.38,0,0,1,.006.691l-16.994,8a.377.377,0,0,1-.161.036m.313-15.424.064,14.446,15.706-7.392Z" transform="translate(2.312 1.779)"/>
        <path id="Trazado_607734" data-name="Trazado 607734" d="M148.41,115.936a.379.379,0,0,1,.364-.4l.55-.023a.38.38,0,1,1,.032.759l-.55.023h-.016a.379.379,0,0,1-.38-.364m3.588-.151a.38.38,0,0,1,.364-.4l3.037-.128a.38.38,0,1,1,.032.759l-3.038.129h-.016a.379.379,0,0,1-.379-.364m6.075-.256a.38.38,0,0,1,.364-.4l3.037-.128a.385.385,0,0,1,.4.363.381.381,0,0,1-.364.4l-3.038.128h-.016a.38.38,0,0,1-.379-.364m6.075-.256a.38.38,0,0,1,.364-.4l3.037-.128a.38.38,0,1,1,.032.759l-3.037.128h-.017a.381.381,0,0,1-.379-.364m6.075-.257a.38.38,0,0,1,.364-.4l3.038-.128a.38.38,0,1,1,.031.759l-3.037.128H170.6a.381.381,0,0,1-.38-.365m6.075-.256a.38.38,0,0,1,.364-.4l3.038-.129a.38.38,0,0,1,.031.76l-3.037.128h-.016a.381.381,0,0,1-.38-.365m6.075-.255a.381.381,0,0,1,.364-.4l3.038-.129a.38.38,0,0,1,.032.76l-3.038.128h-.016a.381.381,0,0,1-.38-.364m6.075-.257a.38.38,0,0,1,.364-.4l3.038-.129a.38.38,0,0,1,.032.76l-3.038.128h-.016a.381.381,0,0,1-.38-.365m6.076-.256a.38.38,0,0,1,.364-.4l3.037-.129a.38.38,0,0,1,.032.76l-3.038.128H194.9a.379.379,0,0,1-.379-.364m6.075-.256a.379.379,0,0,1,.364-.4L204,113.21a.38.38,0,0,1,.032.76l-3.038.128h-.016a.379.379,0,0,1-.379-.364m6.075-.256a.379.379,0,0,1,.364-.4l3.037-.129a.38.38,0,1,1,.032.76l-3.037.128h-.016a.38.38,0,0,1-.38-.364m6.075-.256a.38.38,0,0,1,.364-.4l3.037-.129a.38.38,0,1,1,.032.759l-3.037.129h-.016a.38.38,0,0,1-.38-.364" transform="translate(1.969 1.495)"/>
        <path id="Trazado_607735" data-name="Trazado 607735" d="M172.026,176.152a.38.38,0,0,1,.375-.385l2.851-.04h.005a.38.38,0,0,1,.005.76l-2.851.04h-.005a.38.38,0,0,1-.38-.375m5.891-.081a.38.38,0,0,1,.375-.385l3.04-.043a.381.381,0,0,1,.01.761l-3.04.042H178.3a.38.38,0,0,1-.38-.375m6.08-.084a.38.38,0,0,1,.375-.385l3.04-.043a.391.391,0,0,1,.385.375.381.381,0,0,1-.375.386l-3.04.042h-.005a.38.38,0,0,1-.38-.375m6.08-.084a.379.379,0,0,1,.375-.385l3.04-.042h.005a.38.38,0,0,1,.005.76l-3.04.042h-.005a.38.38,0,0,1-.38-.375m6.08-.084a.379.379,0,0,1,.374-.385l3.04-.042a.385.385,0,0,1,.385.375.379.379,0,0,1-.375.385l-3.039.042h-.005a.38.38,0,0,1-.38-.375m6.079-.083a.381.381,0,0,1,.375-.386l3.04-.042a.388.388,0,0,1,.385.375.379.379,0,0,1-.375.385l-3.04.042h-.005a.38.38,0,0,1-.38-.374m6.08-.085a.381.381,0,0,1,.375-.385l3.04-.042h.005a.38.38,0,0,1,.005.76l-3.04.042h-.005a.38.38,0,0,1-.38-.375m6.08-.083a.38.38,0,0,1,.375-.385l3.04-.043a.384.384,0,0,1,.385.375.38.38,0,0,1-.375.385l-3.04.043h-.005a.38.38,0,0,1-.38-.375m6.08-.084a.38.38,0,0,1,.375-.385l3.04-.043a.387.387,0,0,1,.385.375.38.38,0,0,1-.375.385l-3.04.043h-.005a.38.38,0,0,1-.38-.375" transform="translate(2.283 2.323)"/>
        <path id="Trazado_607736" data-name="Trazado 607736" d="M114.317,211.95a.472.472,0,0,0,.055,0c1.167-.135,19.172-16.1,24.292-21.06a.38.38,0,1,0-.528-.546c-6.138,5.943-22.5,20.228-23.874,20.851-1.679-.075-17.071-11.858-22.882-16.307a.38.38,0,1,0-.462.6c12.9,9.876,21.826,16.462,23.4,16.462" transform="translate(1.204 2.524)"/>
        <path id="Trazado_607737" data-name="Trazado 607737" d="M117.174,238.845a7.723,7.723,0,0,0,2.451-.363c5.251-1.753,21.621-24.449,27-31.908l.621-.86c1.324-1.832,2.655-5.681,1.595-7.849a.38.38,0,1,0-.682.333c.882,1.8-.317,5.394-1.529,7.071l-.621.86c-14.338,19.878-23.3,30.521-26.625,31.632-5.215,1.74-16.311-3.585-32.979-15.829a.38.38,0,0,0-.45.612c14.88,10.931,25.148,16.3,31.218,16.3" transform="translate(1.138 2.623)"/>
        <path id="Trazado_607738" data-name="Trazado 607738" d="M143.7,205.091a.127.127,0,0,0,.017-.252c-3.029-.418-5.31-2.774-7.572-5.36a.127.127,0,0,0-.178-.012.128.128,0,0,0-.012.179c2.3,2.623,4.613,5.013,7.728,5.444h.017" transform="translate(1.804 2.646)"/>
        <path id="Trazado_607739" data-name="Trazado 607739" d="M141.959,207.337a.127.127,0,0,0,.027-.25,7.033,7.033,0,0,1-3.366-1.8.128.128,0,0,0-.179,0,.127.127,0,0,0,0,.179,7.27,7.27,0,0,0,3.487,1.868.127.127,0,0,0,.027,0" transform="translate(1.836 2.723)"/>
        <path id="Trazado_607740" data-name="Trazado 607740" d="M114.66,267.8a151.721,151.721,0,0,0,33.649-4.035.126.126,0,0,0,.093-.153.123.123,0,0,0-.152-.093c-7.583,1.82-34.111,7.289-57.07,1.295a.126.126,0,1,0-.064.244A94,94,0,0,0,114.66,267.8" transform="translate(1.208 3.496)"/>
        <path id="Trazado_607741" data-name="Trazado 607741" d="M149.521,120.383h.006l68.507-3.286a.128.128,0,0,0,.121-.134.12.12,0,0,0-.133-.12l-68.507,3.286a.128.128,0,0,0-.121.134.126.126,0,0,0,.127.12" transform="translate(1.982 1.55)"/>
        <path id="Trazado_607742" data-name="Trazado 607742" d="M167.176,172.595h0l56.784-1.105a.128.128,0,0,0,.125-.13.121.121,0,0,0-.13-.124l-56.783,1.105a.127.127,0,0,0,0,.253" transform="translate(2.217 2.272)"/>
        <path id="Trazado_607743" data-name="Trazado 607743" d="M153.242,211.273a.389.389,0,0,0,.138-.025.381.381,0,0,0,.217-.492l-3.137-8.073a.38.38,0,1,0-.708.276l3.136,8.073a.382.382,0,0,0,.355.242" transform="translate(1.987 2.686)"/>
        <path id="Trazado_607744" data-name="Trazado 607744" d="M140.4,82.815a2.089,2.089,0,1,0-2.089,2.089,2.089,2.089,0,0,0,2.089-2.089" transform="translate(1.807 1.071)"/>
        <path id="Trazado_607745" data-name="Trazado 607745" d="M135.846,82.82a2.469,2.469,0,1,1,2.469,2.469,2.472,2.472,0,0,1-2.469-2.469m.76,0a1.709,1.709,0,1,0,1.709-1.709,1.712,1.712,0,0,0-1.709,1.709" transform="translate(1.803 1.066)"/>
        <path id="Trazado_607746" data-name="Trazado 607746" d="M248.19,45.266a2.09,2.09,0,1,0-2.089,2.089,2.089,2.089,0,0,0,2.089-2.089" transform="translate(3.238 0.573)"/>
        <path id="Trazado_607747" data-name="Trazado 607747" d="M243.636,45.271a2.469,2.469,0,1,1,2.469,2.469,2.472,2.472,0,0,1-2.469-2.469m.76,0a1.709,1.709,0,1,0,1.709-1.709,1.712,1.712,0,0,0-1.709,1.709" transform="translate(3.233 0.568)"/>
        <path id="Trazado_607748" data-name="Trazado 607748" d="M88.911,30.427a21.117,21.117,0,0,1,8.72,6.127c2.843,3.214,11.029,17.107,11.029,17.107l-1.083,8.887s-1.844,1.569-2.256,1c-1.857-2.551-4.9-7.606-4.9-7.606a4.57,4.57,0,0,0,.315-3.694C98.309,46.7,91.907,35.335,88.911,30.427" transform="translate(1.18 0.404)" fill="#fff"/>
        <path id="Trazado_607749" data-name="Trazado 607749" d="M105.5,64.054a.681.681,0,0,1-.48-.274c-1.845-2.536-4.882-7.582-4.913-7.633a.383.383,0,0,1,0-.384,4.215,4.215,0,0,0,.3-3.354c-2.486-5.672-9.008-17.194-11.807-21.78a.38.38,0,0,1,.46-.552,21.624,21.624,0,0,1,8.869,6.23c2.834,3.2,10.737,16.6,11.072,17.167a.376.376,0,0,1,.05.238L107.96,62.6a.382.382,0,0,1-.131.243,4.867,4.867,0,0,1-2.233,1.216c-.032,0-.065,0-.1-.005m2.773-10.306c-.781-1.32-8.268-13.939-10.921-16.938a20.632,20.632,0,0,0-7.517-5.593c3.049,5.1,8.924,15.555,11.26,20.888a4.783,4.783,0,0,1-.228,3.832c.557.919,3.115,5.119,4.744,7.364h.01a4.36,4.36,0,0,0,1.6-.943Z" transform="translate(1.175 0.399)"/>
        <path id="Trazado_607750" data-name="Trazado 607750" d="M107.452,82.578c2,3.1,5.11,5.037,7.9,3.611,4.472-2.286,4.755-6.056,1.652-10.926-2.8-4.392-8.774-13.6-8.774-13.6l-3.512,2.265s3.566,6,2.8,8.351c-.313.965-3.562,4.88-.069,10.3m1.634-3.93c-.41-1.792-.2-3.645,2-4.53,1.436-.577,3.047,1.04,4.06,2.853,1.726,3.09.85,5.691-1.125,6.294-2.883.882-4.572-3.015-4.939-4.617" transform="translate(1.389 0.818)" fill="#ffd42e"/>
        <path id="Trazado_607751" data-name="Trazado 607751" d="M107.138,82.79a9.024,9.024,0,0,1-.258-10.045,4.757,4.757,0,0,0,.285-.576c.583-1.792-1.8-6.412-2.768-8.04a.38.38,0,0,1,.122-.514l3.512-2.265a.379.379,0,0,1,.524.112c.061.092,6.009,9.258,8.777,13.6,1.832,2.876,2.48,5.366,1.927,7.4a6.666,6.666,0,0,1-3.727,4.066,4.66,4.66,0,0,1-2.14.521c-2.188,0-4.481-1.515-6.253-4.264m-1.9-18.731c.74,1.3,3.365,6.158,2.655,8.345a4.805,4.805,0,0,1-.338.7,8.235,8.235,0,0,0,.227,9.272c1.625,2.521,4.54,4.945,7.408,3.479a5.948,5.948,0,0,0,3.34-3.589c.5-1.821-.122-4.107-1.835-6.794-2.473-3.881-7.489-11.617-8.566-13.278Zm6.435,19.294c-1.725-1-2.681-3.454-2.947-4.614-.705-3.08.824-4.4,2.231-4.967,1.715-.689,3.466,1.107,4.534,3.021a5.877,5.877,0,0,1,.679,4.947,3.194,3.194,0,0,1-2.964,2.042,3.031,3.031,0,0,1-1.534-.428m2.251-.445a2.414,2.414,0,0,0,1.541-1.453,5.142,5.142,0,0,0-.637-4.293c-.937-1.678-2.408-3.158-3.587-2.685-1.671.672-2.25,2.01-1.774,4.093.279,1.218,1.2,3.323,2.587,4.126a2.244,2.244,0,0,0,1.87.213" transform="translate(1.384 0.813)"/>
        <path id="Trazado_607752" data-name="Trazado 607752" d="M78.234,42.823A21.118,21.118,0,0,0,85.3,50.8c3.514,2.463,18.242,9.03,18.242,9.03l8.709-2.078s1.351-2.009.742-2.354c-2.744-1.557-8.108-4.006-8.108-4.006a4.567,4.567,0,0,1-3.636.73c-5.789-1.791-17.8-6.871-23.019-9.295" transform="translate(1.038 0.568)" fill="#fff"/>
        <path id="Trazado_607753" data-name="Trazado 607753" d="M103.4,60.179c-.6-.269-14.8-6.611-18.3-9.066A21.634,21.634,0,0,1,77.9,43a.38.38,0,0,1,.5-.52c4.872,2.264,17.054,7.445,22.972,9.276a4.22,4.22,0,0,0,3.3-.673.378.378,0,0,1,.382-.04c.054.024,5.411,2.473,8.139,4.022a.674.674,0,0,1,.325.446c.17.722-.676,2.059-.939,2.451a.382.382,0,0,1-.228.157L103.64,60.2a.369.369,0,0,1-.088.011.378.378,0,0,1-.155-.033m9.385-4.469c-2.416-1.366-6.876-3.434-7.853-3.884a4.78,4.78,0,0,1-3.783.659c-5.562-1.721-16.615-6.379-22.023-8.834a20.639,20.639,0,0,0,6.4,6.839c3.28,2.3,16.661,8.315,18.062,8.942l8.437-2.013a4.241,4.241,0,0,0,.755-1.708" transform="translate(1.033 0.563)"/>
        <path id="Trazado_607754" data-name="Trazado 607754" d="M132.138,55.375c3.308,1.637,5.58,4.51,4.478,7.442-1.767,4.7-5.481,5.408-10.67,2.874-4.679-2.286-14.5-7.185-14.5-7.185l1.853-3.745s6.366,2.866,8.615,1.843c.923-.419,4.446-4.09,10.224-1.229m-3.722,2.067c-1.827-.206-3.644.214-4.275,2.5-.412,1.492,1.376,2.911,3.292,3.714,3.266,1.366,5.75.2,6.128-1.827.551-2.965-3.513-4.2-5.145-4.387" transform="translate(1.479 0.72)" fill="#ffd42e"/>
        <path id="Trazado_607755" data-name="Trazado 607755" d="M125.785,66.038c-4.628-2.26-14.406-7.137-14.5-7.186a.38.38,0,0,1-.171-.509l1.854-3.745a.38.38,0,0,1,.5-.178c1.728.777,6.587,2.623,8.3,1.844a5.064,5.064,0,0,0,.539-.349,9.022,9.022,0,0,1,10.009-.875c3.914,1.937,5.746,5.045,4.666,7.917a6.669,6.669,0,0,1-3.62,4.163,5.948,5.948,0,0,1-2.211.4,12.54,12.54,0,0,1-5.36-1.48m-3.051-9.5a4.953,4.953,0,0,1-.658.415c-2.094.951-7.216-1.11-8.593-1.7l-1.525,3.08c1.771.884,10.024,5,14.159,7.015,2.863,1.4,5.2,1.755,6.957,1.058a5.952,5.952,0,0,0,3.19-3.724c1.133-3.014-1.6-5.638-4.291-6.968a9.2,9.2,0,0,0-4.107-1.049,8.754,8.754,0,0,0-5.133,1.868m4.558,7.472c-2.02-.846-4-2.383-3.512-4.166.4-1.461,1.542-3.129,4.684-2.777,1.181.133,3.731.808,4.917,2.409a3.008,3.008,0,0,1,.558,2.426,3.162,3.162,0,0,1-1.656,2.225,4.5,4.5,0,0,1-2.151.5,7.451,7.451,0,0,1-2.841-.617m-2.779-3.963c-.337,1.224,1.3,2.52,3.073,3.262a5.142,5.142,0,0,0,4.338.149,2.416,2.416,0,0,0,1.27-1.7,2.248,2.248,0,0,0-.423-1.834c-.956-1.291-3.15-1.966-4.392-2.106a6.684,6.684,0,0,0-.745-.045,2.888,2.888,0,0,0-3.122,2.269" transform="translate(1.474 0.715)"/>
        <path id="Trazado_607756" data-name="Trazado 607756" d="M104.526,54.939a.862.862,0,1,0,.39,1.155.863.863,0,0,0-.39-1.155" transform="translate(1.37 0.728)"/>
        <path id="Trazado_607757" data-name="Trazado 607757" d="M50.838,81.264a.378.378,0,0,0,.329-.19c1.838-3.189,3.591-5.932,6.43-7.2a13.131,13.131,0,0,1,5.216-.85c4.566-.137,10.248-.306,19.707-10.448a.387.387,0,0,0,.1-.312.382.382,0,0,0-.179-.273C74.688,57.285,69.353,52.7,65.65,47.571c-.523-.724-1.036-1.488-1.532-2.228-2.117-3.155-4.306-6.418-8.333-8.417a.379.379,0,0,0-.527.214A20.447,20.447,0,0,1,39.426,50.216c-.858.13-1.747.206-2.605.279a23.723,23.723,0,0,0-4.6.7c-5.272,1.526-13.843,10.418-16.155,15.7a.38.38,0,1,0,.7.3c2.224-5.078,10.7-13.833,15.669-15.27a23.216,23.216,0,0,1,4.453-.674c.871-.074,1.772-.151,2.655-.284A21.25,21.25,0,0,0,55.824,37.8c3.61,1.925,5.669,4.994,7.662,7.965.5.745,1.016,1.515,1.547,2.249,3.7,5.127,8.987,9.705,16.612,14.384-9.051,9.574-14.481,9.735-18.854,9.866a13.9,13.9,0,0,0-5.5.916c-3.048,1.359-4.874,4.206-6.78,7.512a.38.38,0,0,0,.329.569" transform="translate(0.213 0.489)"/>
        <path id="Trazado_607758" data-name="Trazado 607758" d="M20.514,65.917a.381.381,0,0,1-.093-.529c.585-.833,1.2-1.658,1.837-2.452a.38.38,0,1,1,.594.474c-.625.782-1.233,1.594-1.808,2.414a.38.38,0,0,1-.53.093m3.757-4.777a.38.38,0,0,1-.026-.537c.684-.753,1.4-1.494,2.129-2.2a.38.38,0,0,1,.53.545c-.718.7-1.423,1.428-2.1,2.169a.381.381,0,0,1-.536.025m4.324-4.269a.38.38,0,0,1,.042-.535l.31-.262a20.684,20.684,0,0,1,2.143-1.617.38.38,0,1,1,.409.64,20.209,20.209,0,0,0-2.063,1.557l-.3.259a.38.38,0,0,1-.536-.043m5.1-3.228a.38.38,0,0,1,.28-.459,17.158,17.158,0,0,1,3.08-.387.38.38,0,0,1,.045.759,16.616,16.616,0,0,0-2.945.366.349.349,0,0,1-.09.011.381.381,0,0,1-.37-.29m6.034-.675a.379.379,0,0,1,.32-.431,22.866,22.866,0,0,0,2.922-.627.38.38,0,0,1,.207.732,23.6,23.6,0,0,1-3.019.647.344.344,0,0,1-.056,0,.379.379,0,0,1-.375-.325m5.86-1.557a.38.38,0,0,1,.2-.5,24.4,24.4,0,0,0,2.672-1.344.38.38,0,1,1,.383.657,25.043,25.043,0,0,1-2.757,1.386.388.388,0,0,1-.149.03.381.381,0,0,1-.35-.231m5.286-2.973a.38.38,0,0,1,.072-.532,24.117,24.117,0,0,0,2.262-1.958.38.38,0,1,1,.532.542A24.8,24.8,0,0,1,51.4,48.51a.38.38,0,0,1-.533-.072m4.392-4.183a.38.38,0,0,1-.064-.534,22.408,22.408,0,0,0,1.683-2.466.38.38,0,0,1,.656.385A23.2,23.2,0,0,1,55.8,44.192a.38.38,0,0,1-.533.064" transform="translate(0.27 0.545)"/>
        <path id="Trazado_607759" data-name="Trazado 607759" d="M46.765,79.812a.381.381,0,0,1-.11-.527q.158-.242.32-.486a.38.38,0,1,1,.633.42c-.106.161-.213.322-.317.482a.382.382,0,0,1-.526.111M48.8,76.818a.379.379,0,0,1-.081-.531c.653-.887,1.277-1.673,1.909-2.4a.38.38,0,0,1,.576.5c-.62.715-1.232,1.486-1.873,2.357a.379.379,0,0,1-.531.081M52.747,72.2a.381.381,0,0,1,.022-.537,18.968,18.968,0,0,1,2.439-1.913.38.38,0,0,1,.415.637,18.148,18.148,0,0,0-2.34,1.835.38.38,0,0,1-.537-.022m5.173-2.928a.381.381,0,0,1,.359-.4c.328-.018.687-.026,1.129-.026.37,0,.756.006,1.154.012.255,0,.516.008.781.01a.38.38,0,0,1-.007.76c-.268,0-.53-.006-.785-.01-.4-.006-.776-.012-1.143-.012-.428,0-.773.008-1.087.025H58.3a.38.38,0,0,1-.38-.359M64,69.188a.379.379,0,0,1,.345-.411,17.69,17.69,0,0,0,2.93-.5.38.38,0,1,1,.193.736,18.553,18.553,0,0,1-3.056.521h-.033A.38.38,0,0,1,64,69.188m5.879-1.419a.381.381,0,0,1,.18-.507,17.321,17.321,0,0,0,2.563-1.5.38.38,0,1,1,.438.622,18.2,18.2,0,0,1-2.675,1.565.372.372,0,0,1-.162.037.381.381,0,0,1-.344-.218m5.034-3.359a.38.38,0,0,1,.017-.537A27.456,27.456,0,0,0,76.991,61.7a.381.381,0,0,1,.579.494,28.085,28.085,0,0,1-2.122,2.231.379.379,0,0,1-.537-.017" transform="translate(0.618 0.817)"/>
        <path id="Trazado_607760" data-name="Trazado 607760" d="M118.888,37.6a.38.38,0,0,0,.348-.228c2.479-5.693,9.1-10.125,16.483-11.028.9-.109,1.821-.174,2.717-.236a30.026,30.026,0,0,0,4.769-.589c5.48-1.288,14.4-8.8,16.8-13.266a.38.38,0,1,0-.669-.361c-2.31,4.283-11.135,11.671-16.307,12.886a29.379,29.379,0,0,1-4.649.571c-.9.063-1.841.128-2.756.239-7.49.918-14.239,5.373-16.934,11.139-3.8-1.626-5.947-4.23-8.03-6.75-.52-.629-1.058-1.28-1.61-1.9-3.836-4.313-9.3-8.167-17.185-12.1,9.364-8.009,15.006-8.146,19.552-8.256a17.436,17.436,0,0,0,5.7-.768c3.424-1.239,5.521-4.193,7.051-6.349a.38.38,0,1,0-.619-.44c-1.91,2.689-3.73,5-6.692,6.074a16.58,16.58,0,0,1-5.454.723c-4.739.114-10.635.257-20.467,8.815a.38.38,0,0,0,.081.627c8.067,3.978,13.617,7.848,17.468,12.179.544.611,1.077,1.255,1.594,1.88,2.2,2.667,4.483,5.424,8.668,7.111a.389.389,0,0,0,.143.027" transform="translate(1.205 0)"/>
        <path id="Trazado_607761" data-name="Trazado 607761" d="M116.605,33.79a.381.381,0,0,1-.085-.531,20.058,20.058,0,0,1,2.008-2.356.38.38,0,0,1,.54.535,19.163,19.163,0,0,0-1.932,2.267.38.38,0,0,1-.308.157.389.389,0,0,1-.223-.072m4.176-4.392a.38.38,0,0,1,.07-.533,25.2,25.2,0,0,1,2.561-1.721.38.38,0,1,1,.385.655,24.737,24.737,0,0,0-2.483,1.669.383.383,0,0,1-.231.078.376.376,0,0,1-.3-.148m5.178-3.161a.378.378,0,0,1,.193-.5,28.76,28.76,0,0,1,2.875-1.1.38.38,0,1,1,.234.723,27.848,27.848,0,0,0-2.8,1.072.4.4,0,0,1-.155.032.379.379,0,0,1-.347-.226m5.749-1.942a.38.38,0,0,1,.293-.45,29.361,29.361,0,0,1,3.042-.475.38.38,0,1,1,.078.756,28.039,28.039,0,0,0-2.963.464.521.521,0,0,1-.079.007.38.38,0,0,1-.371-.3m6.028-.717a.379.379,0,0,1,.36-.4,18.3,18.3,0,0,0,2.955-.338.38.38,0,1,1,.163.743,19.084,19.084,0,0,1-3.078.356h-.02a.38.38,0,0,1-.379-.362m5.893-1.266a.377.377,0,0,1,.155-.513,21.873,21.873,0,0,0,1.982-1.23c.182-.124.364-.25.543-.377a.38.38,0,0,1,.438.622c-.182.129-.367.257-.552.384a23.231,23.231,0,0,1-2.051,1.27.386.386,0,0,1-.179.046.38.38,0,0,1-.335-.2m5.033-3.4a.381.381,0,0,1,.058-.535c.786-.629,1.555-1.291,2.288-1.962a.38.38,0,1,1,.514.559c-.745.684-1.527,1.354-2.325,2a.381.381,0,0,1-.534-.059m4.509-4.073a.38.38,0,0,1-.014-.537c.7-.733,1.367-1.491,2-2.258a.38.38,0,1,1,.588.483c-.64.779-1.324,1.552-2.032,2.3a.378.378,0,0,1-.537.013" transform="translate(1.545 0.158)"/>
        <path id="Trazado_607762" data-name="Trazado 607762" d="M95.588,16.314a.381.381,0,0,1,.013-.538,26.451,26.451,0,0,1,2.351-1.992.38.38,0,1,1,.455.608,25.87,25.87,0,0,0-2.282,1.935.381.381,0,0,1-.537-.013m4.8-3.7a.381.381,0,0,1,.149-.517,20.22,20.22,0,0,1,2.814-1.288.38.38,0,0,1,.261.713,19.512,19.512,0,0,0-2.707,1.24.387.387,0,0,1-.183.048.381.381,0,0,1-.333-.2m5.644-2.194a.379.379,0,0,1,.3-.447,23.48,23.48,0,0,1,3.061-.4.38.38,0,1,1,.051.758,22.67,22.67,0,0,0-2.963.385.385.385,0,0,1-.075.008.38.38,0,0,1-.372-.306m7.22-.148c-.26,0-.527-.007-.8-.009a.38.38,0,0,1,0-.76h0c.274,0,.541.006.8.009.412.005.811.01,1.195.01s.728-.005,1.025-.017a.38.38,0,0,1,.029.76c-.308.012-.653.017-1.055.017-.387,0-.788-.005-1.2-.01m4.858-.824a.382.382,0,0,1,.163-.513A18.779,18.779,0,0,0,120.8,7.36a.38.38,0,1,1,.452.611,19.5,19.5,0,0,1-2.624,1.645.388.388,0,0,1-.174.043.381.381,0,0,1-.338-.206m4.96-3.483a.381.381,0,0,1,.015-.537c.69-.651,1.374-1.357,2.092-2.16a.38.38,0,0,1,.566.506c-.733.821-1.432,1.542-2.137,2.207a.376.376,0,0,1-.26.1.38.38,0,0,1-.277-.12" transform="translate(1.267 0.042)"/>
        <path id="Trazado_607763" data-name="Trazado 607763" d="M290.869,172.23a6.3,6.3,0,0,1-3.171-2.93,10.611,10.611,0,0,1-1.138-4.226,13.076,13.076,0,0,1-.825,4.089,4.42,4.42,0,0,1-3.005,2.683,4.272,4.272,0,0,1,2.958,2.461,10.294,10.294,0,0,1,.815,3.887,9.705,9.705,0,0,1,.979-3.632,4.938,4.938,0,0,1,3.387-2.332" transform="translate(3.751 2.19)" fill="#ffd42e"/>
        <path id="Trazado_607764" data-name="Trazado 607764" d="M286.492,178.579a.379.379,0,0,1-.365-.358,9.957,9.957,0,0,0-.777-3.745,3.861,3.861,0,0,0-2.68-2.251.38.38,0,0,1-.008-.748,4,4,0,0,0,2.73-2.462,12.716,12.716,0,0,0,.794-3.971.381.381,0,0,1,.378-.346h0a.38.38,0,0,1,.376.351,10.238,10.238,0,0,0,1.093,4.075,5.889,5.889,0,0,0,2.973,2.757.379.379,0,0,1-.062.727,4.558,4.558,0,0,0-3.133,2.149,9.5,9.5,0,0,0-.931,3.492.381.381,0,0,1-.377.33h-.014m.875-9.093a9.155,9.155,0,0,1-.751-1.88,8.621,8.621,0,0,1-.529,1.714,5.19,5.19,0,0,1-2.214,2.518,4.987,4.987,0,0,1,2.161,2.308,7.544,7.544,0,0,1,.546,1.6,6.244,6.244,0,0,1,.576-1.372,5.161,5.161,0,0,1,2.67-2.235,6.949,6.949,0,0,1-2.459-2.655" transform="translate(3.746 2.185)"/>
        <path id="Trazado_607765" data-name="Trazado 607765" d="M260.722,150.636a4.858,4.858,0,0,1-2.556-2.007,6.445,6.445,0,0,1-.917-2.9,7.79,7.79,0,0,1-.665,2.8,3.429,3.429,0,0,1-2.423,1.837,3.369,3.369,0,0,1,2.384,1.687,6.152,6.152,0,0,1,.657,2.663,5.9,5.9,0,0,1,.789-2.489,4.04,4.04,0,0,1,2.731-1.6" transform="translate(3.372 1.934)" fill="#ffd42e"/>
        <path id="Trazado_607766" data-name="Trazado 607766" d="M257.191,155.108a.38.38,0,0,1-.363-.354,5.86,5.86,0,0,0-.608-2.5,2.969,2.969,0,0,0-2.109-1.5A.38.38,0,0,1,254.1,150a3.025,3.025,0,0,0,2.147-1.637,7.525,7.525,0,0,0,.624-2.668.379.379,0,0,1,.377-.338h0a.378.378,0,0,1,.376.345,5.976,5.976,0,0,0,.86,2.727,4.448,4.448,0,0,0,2.354,1.85.38.38,0,0,1-.056.736,3.665,3.665,0,0,0-2.48,1.437,5.574,5.574,0,0,0-.727,2.334.383.383,0,0,1-.377.321h-.015m.66-6.269a5.856,5.856,0,0,1-.545-1.1,5.076,5.076,0,0,1-.38.979,3.944,3.944,0,0,1-1.591,1.654,3.838,3.838,0,0,1,1.546,1.51,4.6,4.6,0,0,1,.394.922,3.982,3.982,0,0,1,.406-.774,4.052,4.052,0,0,1,1.933-1.473,5.269,5.269,0,0,1-1.764-1.713" transform="translate(3.367 1.929)"/>
        <path id="Trazado_607767" data-name="Trazado 607767" d="M281.095,147.226c-2.02-.757-3.408-1.146-4.389-2.851a15.4,15.4,0,0,1-1.47-6.242,14.908,14.908,0,0,1-1.424,5.228,6.368,6.368,0,0,1-4.611,3.3,6.238,6.238,0,0,1,4.3,3.336,11.748,11.748,0,0,1,1.03,5.058c.309-1.605.543-3.989,1.538-5.363,1.065-1.469,2.741-2.153,5.03-2.461" transform="translate(3.572 1.833)" fill="#ffd42e"/>
        <path id="Trazado_607768" data-name="Trazado 607768" d="M274.5,155.435a.38.38,0,0,1-.35-.368,11.415,11.415,0,0,0-.989-4.9,5.817,5.817,0,0,0-4.027-3.135.38.38,0,0,1,.02-.751,5.943,5.943,0,0,0,4.328-3.1,14.567,14.567,0,0,0,1.38-5.1.374.374,0,0,1,.393-.325.38.38,0,0,1,.363.359,15.45,15.45,0,0,0,1.42,6.073c.831,1.442,1.97,1.862,3.694,2.5l.5.184a.38.38,0,0,1-.083.733c-2.376.32-3.848,1.032-4.773,2.307a11,11,0,0,0-1.306,4.265c-.056.335-.11.655-.167.948a.38.38,0,0,1-.373.308h-.03m1.88-10.865a11.9,11.9,0,0,1-1.22-3.755,10.482,10.482,0,0,1-1.012,2.736A6.947,6.947,0,0,1,270.6,146.7a6.769,6.769,0,0,1,3.245,3.126,9.094,9.094,0,0,1,.813,2.468,7.785,7.785,0,0,1,1.11-2.824,6.274,6.274,0,0,1,3.91-2.366,5.656,5.656,0,0,1-3.292-2.534" transform="translate(3.567 1.828)"/>
        <path id="Trazado_607769" data-name="Trazado 607769" d="M239.755,195.69l29.6-27.874-3.582-3.8-29.6,27.874a1.518,1.518,0,0,0-.069,2.3l1.353,1.437a1.625,1.625,0,0,0,2.3.069" transform="translate(3.126 2.176)"/>
        <path id="Trazado_607770" data-name="Trazado 607770" d="M237.206,195.907l-.02-.02-1.353-1.436a1.968,1.968,0,0,1-.592-1.5,2.029,2.029,0,0,1,.677-1.333l29.6-27.874a.38.38,0,0,1,.537.016l3.582,3.8a.379.379,0,0,1-.016.537l-29.6,27.874a1.937,1.937,0,0,1-1.338.544,2.2,2.2,0,0,1-1.477-.609m31.616-28.1-3.061-3.251-29.322,27.614A1.291,1.291,0,0,0,236,193a1.216,1.216,0,0,0,.387.926l1.342,1.426a1.246,1.246,0,0,0,1.772.064Z" transform="translate(3.121 2.171)"/>
        <path id="Trazado_607771" data-name="Trazado 607771" d="M262.233,174.265l8.887-8.37a1.439,1.439,0,0,0,.06-1.98l-1.662-1.764a1.367,1.367,0,0,0-1.98-.06l-8.887,8.37Z" transform="translate(3.432 2.145)" fill="#fff"/>
        <path id="Trazado_607772" data-name="Trazado 607772" d="M262.226,174.65a.377.377,0,0,1-.264-.12l-3.582-3.8a.38.38,0,0,1,.016-.537l8.887-8.37a1.74,1.74,0,0,1,2.516.076l1.671,1.774a1.821,1.821,0,0,1-.084,2.507l-8.887,8.37a.379.379,0,0,1-.26.1h-.012m5.578-12.277-8.611,8.109,3.06,3.251,8.612-8.109a1.052,1.052,0,0,0,.044-1.442l-1.663-1.765a.987.987,0,0,0-1.442-.044" transform="translate(3.427 2.14)"/>
        <path id="Trazado_607773" data-name="Trazado 607773" d="M262.988,172.091a.125.125,0,0,0,.087-.034.127.127,0,0,0,.005-.179l-2.116-2.251a.127.127,0,0,0-.184.173l2.116,2.252a.128.128,0,0,0,.092.04" transform="translate(3.46 2.25)"/>
        <rect id="Rect치ngulo_301341" data-name="Rect치ngulo 301341" width="35.563" height="6.804" transform="translate(210.813 55.77)"/>
        <path id="Trazado_607774" data-name="Trazado 607774" d="M207.677,61.849v-6.8a.379.379,0,0,1,.38-.38H243.62a.379.379,0,0,1,.38.38v6.8a.38.38,0,0,1-.38.38H208.057a.38.38,0,0,1-.38-.38m35.563-6.424h-34.8v6.044h34.8Z" transform="translate(2.756 0.725)"/>
        <rect id="Rect치ngulo_301342" data-name="Rect치ngulo 301342" width="29.915" height="6.804" transform="translate(181.34 69.087)" fill="#ffd42e"/>
        <path id="Trazado_607775" data-name="Trazado 607775" d="M178.589,74.991v-6.8a.38.38,0,0,1,.38-.38h29.916a.38.38,0,0,1,.38.38v6.8a.379.379,0,0,1-.38.38H178.969a.379.379,0,0,1-.38-.38M208.5,68.567H179.349v6.044H208.5Z" transform="translate(2.37 0.9)"/>
        <rect id="Rect치ngulo_301343" data-name="Rect치ngulo 301343" width="60.129" height="6.804" transform="translate(166.232 43.043)" fill="#fff"/>
        <path id="Trazado_607776" data-name="Trazado 607776" d="M163.68,49.289V42.484a.38.38,0,0,1,.38-.38h60.129a.38.38,0,0,1,.38.38v6.805a.38.38,0,0,1-.38.38H164.06a.38.38,0,0,1-.38-.38m60.129-6.425H164.44v6.044h59.369Z" transform="translate(2.172 0.559)"/>
      </g>
    </g>
  </g>
</svg>
