<svg xmlns="http://www.w3.org/2000/svg" xmlns:xlink="http://www.w3.org/1999/xlink" width="170" height="155.444" viewBox="0 0 170 155.444">
  <defs>
    <clipPath id="clip-path">
      <rect id="Rectángulo_301139" data-name="Rectángulo 301139" width="131" height="131" fill="#12263f"/>
    </clipPath>
  </defs>
  <g id="Grupo_890249" data-name="Grupo 890249" transform="translate(33.964 22.946)">
    <rect id="Rectángulo_49533" data-name="Rectángulo 49533" width="119.8" height="111.233" transform="translate(16.236 21.265)" fill="#ffde96"/>
    <g id="Grupo_890252" data-name="Grupo 890252" transform="translate(-33.964 -22.946)">
      <g id="Grupo_890251" data-name="Grupo 890251" clip-path="url(#clip-path)">
        <path id="Trazado_607234" data-name="Trazado 607234" d="M131.172,13.409V46.056c-1.653,3.615-4.492,4.864-8.4,4.72-5.589-.207-11.192-.052-17.145-.052v3.4q0,19.918,0,39.837-.024,18.606-.1,37.213H0V26.235a27.152,27.152,0,0,0,2.195-1.785q9.7-9.661,19.361-19.37C23.177,3.447,24.679,1.7,26.235,0h79.286V8.572c6.188,0,11.8.17,17.4-.057,3.974-.161,6.722,1.2,8.248,4.894M101.355,50.724H98.084q-24.181,0-48.363,0c-5.01,0-7.236-2.242-7.244-7.294q-.023-13.4,0-26.8c0-6.271,1.79-8.045,8.169-8.048q23.6-.012,47.2,0h3.466V4.3h-71.7V29.692H4.309v97.159h97.046ZM86.673,12.754c-12.231,0-24.46.043-36.69-.037-2.456-.016-3.478.719-3.444,3.325q.173,13.538,0,27.08c-.031,2.685,1,3.543,3.615,3.536,24.363-.062,48.725-.034,73.088-.041,3.348,0,3.807-.479,3.811-3.936q.018-12.957,0-25.916c0-3.679-.328-4.007-3.986-4.01q-18.2-.013-36.4,0M25.33,25.333V8.13L8.079,25.333Z" fill="#12263f"/>
        <rect id="Rectángulo_301136" data-name="Rectángulo 301136" width="3.823" height="3.766" transform="translate(17.091 34)" fill="#12263f"/>
        <rect id="Rectángulo_301137" data-name="Rectángulo 301137" width="3.769" height="3.743" transform="translate(84.734 118.671)" fill="#12263f"/>
        <rect id="Rectángulo_301138" data-name="Rectángulo 301138" width="3.693" height="3.761" transform="translate(93.464 118.651)" fill="#12263f"/>
        <path id="Trazado_607235" data-name="Trazado 607235" d="M66.669,108.842a16.338,16.338,0,0,1,1.656-8.614A15.663,15.663,0,1,1,93.873,117.9a2.875,2.875,0,0,0-.577,1.73q-.049,17.742-.025,35.486c0,.405.022.813-.015,1.214a1.946,1.946,0,0,1-2.2,2.033c-3.48.016-6.962.006-10.443.006l-44.32-.005c-2.268,0-2.765-.495-2.765-2.8q0-21.936,0-43.871c0-2.309.548-2.85,2.868-2.85q14.328,0,28.657,0Zm22.783,12.525c-.318.107-.543.166-.756.256a15.557,15.557,0,0,1-20.765-8.116,1.335,1.335,0,0,0-1.44-.931c-9.391.024-18.782.015-28.172.02-.345,0-.689.057-.991.083v42.028c1.152,0,2.207-.071,3.248.019a2.1,2.1,0,0,0,2.277-1.271c2.994-5.322,6.073-10.6,9.131-15.881,1.2-2.073,2.628-2.109,3.945-.1,1.821,2.773,3.624,5.558,5.442,8.333.183.28.41.53.675.867.313-.491.553-.86.786-1.235q5.221-8.4,10.442-16.8c1.357-2.18,2.749-2.148,4.035.079q5.675,9.822,11.348,19.646c.208.359.441.7.793,1.263ZM75.244,132.5c-.342.526-.589.891-.821,1.264q-5.216,8.394-10.433,16.788c-1.226,1.968-2.619,1.976-3.895.035-1.8-2.737-3.58-5.484-5.373-8.224-.187-.285-.405-.547-.7-.945l-7.612,13.2H88L75.244,132.5m7.014-13.2a11.959,11.959,0,1,0-11.975-11.967A12.047,12.047,0,0,0,82.258,119.3" transform="translate(-13.978 -38.218)" fill="#12263f"/>
        <path id="Trazado_607236" data-name="Trazado 607236" d="M58.643,134.363a8.989,8.989,0,1,1,.037,17.978,9.133,9.133,0,0,1-9.029-9.053,9.038,9.038,0,0,1,8.991-8.925m5.294,9a5.271,5.271,0,1,0-5.341,5.292,5.289,5.289,0,0,0,5.341-5.292" transform="translate(-20.705 -56.031)" fill="#12263f"/>
        <path id="Trazado_607237" data-name="Trazado 607237" d="M108.679,113.078c0-1.9-.017-3.8,0-5.7s1.355-2.687,3.026-1.741q5,2.832,9.96,5.741c1.635.962,1.636,2.561.012,3.516q-4.955,2.914-9.954,5.753c-1.644.934-3.023.128-3.044-1.747-.021-1.94,0-3.881,0-5.822m3.709,2.928,4.976-2.866-4.976-2.865Z" transform="translate(-45.318 -43.884)" fill="#12263f"/>
        <path id="Trazado_607238" data-name="Trazado 607238" d="M107.82,46.02c-.979-.089-1.93.1-2.45-.286a3.812,3.812,0,0,1-1.664-2.356c-.011-.827.879-1.768,1.574-2.458a2.123,2.123,0,0,1,1.679-.144c2.465.628,6.071-1.856,7.283,2.073,1.574,5.1-.819,11.126-4.665,12.95-8,3.8-15.382-.754-15.431-9.535-.02-3.681-.128-7.371.082-11.042.3-5.249,3.5-8.194,8.84-8.48,6.089-.325,10.209,2.109,11.15,6.588.712,3.39-1.012,5.21-4.307,4.272a3.614,3.614,0,0,1-2-2.324c-.541-2.253-1.849-2.969-3.98-2.874-2.232.1-3.1,1.522-3.183,3.419-.158,3.48-.184,6.97-.131,10.454s1.179,4.9,3.621,4.9,3.349-1.227,3.578-5.156" transform="translate(-39.241 -11.14)" fill="#12263f"/>
        <path id="Trazado_607239" data-name="Trazado 607239" d="M179.737,32.285V39c1.8,0,3.5,0,5.2,0,1.827-.005,2.637.982,2.605,2.725-.031,1.681-.949,2.413-2.6,2.372-1.625-.04-3.251-.009-5.309-.009,0,3.084-.089,5.947.027,8.8.1,2.43-.861,3.632-3.331,3.6-2.448-.03-3.345-1.226-3.314-3.657q.143-11.315,0-22.632c-.029-2.471.963-3.58,3.4-3.564,4.349.026,8.7.041,13.046-.009,1.937-.022,2.587,1.111,2.58,2.74-.007,1.6-.655,2.881-2.516,2.905-3.165.042-6.332.012-9.784.012" transform="translate(-72.147 -11.104)" fill="#12263f"/>
        <path id="Trazado_607240" data-name="Trazado 607240" d="M151.3,41.579c0,3.972-.092,7.947.034,11.915.078,2.45-1.348,3.013-3.274,3.019-1.982.006-3.215-.693-3.181-3.1q.167-11.769.005-23.542c-.029-2.316,1.006-3.14,3.109-3.158,2.19-.019,3.433.732,3.344,3.237-.138,3.87-.037,7.75-.037,11.625" transform="translate(-60.416 -11.141)" fill="#12263f"/>
      </g>
    </g>
  </g>
</svg>
