<svg xmlns="http://www.w3.org/2000/svg" xmlns:xlink="http://www.w3.org/1999/xlink" width="400" height="330.176" viewBox="0 0 400 330.176">
  <defs>
    <clipPath id="clip-path">
      <rect id="Rectángulo_301404" data-name="Rectángulo 301404" width="345.803" height="321.927" fill="none"/>
    </clipPath>
    <clipPath id="clip-path-6">
      <path id="Trazado_607832" data-name="Trazado 607832" d="M226.449,315.142a20.518,20.518,0,0,0-2.853,1.846c-10.589,8.256-3.719,21.913-.924,26.044,3.018,4.462,47.519,25.532,62.973,25.929s43.791-3.868,49.374-12.965-.14-19.2-7.892-26.6a11.448,11.448,0,0,0-2.524-1.832c-4.945-2.679-11.557-1.9-17.1-1.128-3.756.526-7.022,1.051-8.944.5-6.82-1.938-9.2-4.659-12.567-5.087-1.1-.141-4.082,1.747-4.082,1.747s-35.918-9.222-50.411-9.222a11.711,11.711,0,0,0-5.05.769" transform="translate(-217.89 -314.373)" fill="none"/>
    </clipPath>
    <clipPath id="clip-path-7">
      <rect id="Rectángulo_301380" data-name="Rectángulo 301380" width="101.007" height="35.513" fill="none"/>
    </clipPath>
    <clipPath id="clip-path-10">
      <path id="Trazado_607838" data-name="Trazado 607838" d="M290.67,372.567l14.445,11.339a165.456,165.456,0,0,0,20.714-3.1V380.8c6.847-1.585,12.822-3.857,13.151-6.972.5-4.734-4.56-6.031-10.575-5.847-1.125.026-2.276.112-3.44.233-9.627,1.033-21.861-4.286-21.861-4.286Z" transform="translate(-290.67 -363.931)" fill="#fb8c00"/>
    </clipPath>
    <clipPath id="clip-path-11">
      <rect id="Rectángulo_301383" data-name="Rectángulo 301383" width="48.345" height="16.756" fill="#fb8c00"/>
    </clipPath>
    <clipPath id="clip-path-14">
      <path id="Trazado_607842" data-name="Trazado 607842" d="M306.785,379.813c-2.6.425.257,5.751,3.788,4.133,3.3-1.511-.6-4.175-3.246-4.175a3.384,3.384,0,0,0-.542.041" transform="translate(-305.776 -379.772)" fill="none"/>
    </clipPath>
    <clipPath id="clip-path-15">
      <rect id="Rectángulo_301386" data-name="Rectángulo 301386" width="6.056" height="3.316" fill="none"/>
    </clipPath>
    <clipPath id="clip-path-18">
      <path id="Trazado_607846" data-name="Trazado 607846" d="M335.642,368.841c-.264.252-6.093,5.891-2.576,12.819,6.847-1.585,12.822-3.857,13.151-6.972.471-4.451-3.975-5.863-9.507-5.863q-.528,0-1.068.016" transform="translate(-331.941 -368.825)" fill="none"/>
    </clipPath>
    <clipPath id="clip-path-19">
      <rect id="Rectángulo_301389" data-name="Rectángulo 301389" width="14.301" height="11.599" fill="none"/>
    </clipPath>
    <clipPath id="clip-path-21">
      <rect id="Rectángulo_301390" data-name="Rectángulo 301390" width="345.803" height="321.927" fill="#fb8c00"/>
    </clipPath>
    <clipPath id="clip-path-22">
      <path id="Trazado_607862" data-name="Trazado 607862" d="M236.007,364.9c-1.144-.243-2.28-.45-3.4-.593-5.962-.816-11.131-.058-11.131,4.7,0,3.131,5.7,6.019,12.346,8.314v.007a165.4,165.4,0,0,0,20.275,5.254l15.556-9.758-11.46-9.894s-12.725,4-22.191,1.965" transform="translate(-221.48 -362.936)" fill="none"/>
    </clipPath>
    <clipPath id="clip-path-23">
      <rect id="Rectángulo_301392" data-name="Rectángulo 301392" width="27.731" height="15.635" fill="none"/>
    </clipPath>
  </defs>
  <g id="Grupo_893386" data-name="Grupo 893386" transform="translate(-180 -926.824)">
    <rect id="Rectángulo_301347" data-name="Rectángulo 301347" width="400" height="321" transform="translate(180 936)" fill="#f5fafe"/>
    <g id="Grupo_890377" data-name="Grupo 890377" transform="translate(209.12 926.824)">
      <g id="Grupo_890376" data-name="Grupo 890376" clip-path="url(#clip-path)">
        <g id="Grupo_890319" data-name="Grupo 890319">
          <g id="Grupo_890318" data-name="Grupo 890318" clip-path="url(#clip-path)">
            <line id="Línea_2200" data-name="Línea 2200" x2="344.978" transform="translate(0.412 308.553)" fill="none" stroke="#263238" stroke-linecap="round" stroke-linejoin="round" stroke-width="1"/>
          </g>
        </g>
        <g id="Grupo_890321" data-name="Grupo 890321">
          <g id="Grupo_890320" data-name="Grupo 890320" clip-path="url(#clip-path)">
            <path id="Trazado_607777" data-name="Trazado 607777" d="M222.358,46.94V33.994l-9.7-.836a26.667,26.667,0,0,0-2.4-5.811l6.26-7.441-9.155-9.155-7.441,6.26a26.683,26.683,0,0,0-5.811-2.4l-.836-9.7H180.333l-.836,9.7a26.667,26.667,0,0,0-5.811,2.4l-7.441-6.26-9.155,9.155,6.26,7.44a26.733,26.733,0,0,0-2.4,5.812l-9.7.836V46.94l9.7.836a26.733,26.733,0,0,0,2.4,5.812l-6.26,7.44,9.155,9.155,7.44-6.26a26.69,26.69,0,0,0,5.812,2.4l.836,9.7h12.946l.836-9.7a26.691,26.691,0,0,0,5.812-2.4l7.44,6.26,9.155-9.155-6.26-7.441a26.667,26.667,0,0,0,2.4-5.811Zm-35.551,8.571A15.044,15.044,0,1,1,201.85,40.467,15.044,15.044,0,0,1,186.806,55.511Z" transform="translate(-26.517 -0.862)" fill="none" stroke="#263238" stroke-linecap="round" stroke-linejoin="round" stroke-width="1"/>
            <path id="Trazado_607778" data-name="Trazado 607778" d="M398.949,205.046v-6.209l-4.651-.4a12.826,12.826,0,0,0-1.15-2.787l3-3.568-4.39-4.391-3.568,3a12.792,12.792,0,0,0-2.787-1.15l-.4-4.651H378.8l-.4,4.651a12.792,12.792,0,0,0-2.787,1.15l-3.568-3-4.39,4.391,3,3.568a12.823,12.823,0,0,0-1.15,2.787l-4.651.4v6.209l4.651.4a12.806,12.806,0,0,0,1.15,2.787l-3,3.568,4.39,4.391,3.568-3a12.793,12.793,0,0,0,2.787,1.15l.4,4.65H385l.4-4.65a12.793,12.793,0,0,0,2.787-1.15l3.568,3,4.39-4.391-3-3.568a12.81,12.81,0,0,0,1.15-2.787Zm-17.049,4.11a7.215,7.215,0,1,1,7.214-7.214A7.214,7.214,0,0,1,381.9,209.156Z" transform="translate(-63.964 -32.415)" fill="none" stroke="#263238" stroke-linecap="round" stroke-linejoin="round" stroke-width="1"/>
            <path id="Trazado_607779" data-name="Trazado 607779" d="M384.773,66.242a16.932,16.932,0,0,0-20.916-20.155,16.242,16.242,0,0,0-30.36,6.957,13.238,13.238,0,0,0-15.645,11.542,7.39,7.39,0,0,0,.162,14.778H380.1a7.392,7.392,0,0,0,4.671-13.122Z" transform="translate(-54.457 -6.63)" fill="none" stroke="#263238" stroke-linecap="round" stroke-linejoin="round" stroke-width="1"/>
            <line id="Línea_2201" data-name="Línea 2201" y2="17.11" transform="translate(296.177 67.062)" fill="none" stroke="#263238" stroke-linecap="round" stroke-linejoin="round" stroke-width="1"/>
            <line id="Línea_2202" data-name="Línea 2202" y2="6.844" transform="translate(296.177 56.796)" fill="none" stroke="#263238" stroke-linecap="round" stroke-linejoin="round" stroke-width="1"/>
            <line id="Línea_2203" data-name="Línea 2203" y2="3.661" transform="translate(296.177 50.401)" fill="none" stroke="#263238" stroke-linecap="round" stroke-linejoin="round" stroke-width="1"/>
            <path id="Trazado_607780" data-name="Trazado 607780" d="M355.222,99.641l3.231,4,3.231-4" transform="translate(-62.276 -17.469)" fill="none" stroke="#263238" stroke-linecap="round" stroke-linejoin="round" stroke-width="1"/>
            <path id="Trazado_607781" data-name="Trazado 607781" d="M155.379,309.594a16.932,16.932,0,0,0-20.916-20.155A16.242,16.242,0,0,0,104.1,296.4a13.238,13.238,0,0,0-15.645,11.542,7.39,7.39,0,0,0,.162,14.778h62.088a7.392,7.392,0,0,0,4.671-13.122Z" transform="translate(-14.24 -49.294)" fill="none" stroke="#263238" stroke-linecap="round" stroke-linejoin="round" stroke-width="1"/>
            <line id="Línea_2204" data-name="Línea 2204" y1="17.11" transform="translate(107 253.089)" fill="none" stroke="#263238" stroke-linecap="round" stroke-linejoin="round" stroke-width="1"/>
            <line id="Línea_2205" data-name="Línea 2205" y1="6.844" transform="translate(107 273.62)" fill="none" stroke="#263238" stroke-linecap="round" stroke-linejoin="round" stroke-width="1"/>
            <line id="Línea_2206" data-name="Línea 2206" y1="3.661" transform="translate(107 283.199)" fill="none" stroke="#263238" stroke-linecap="round" stroke-linejoin="round" stroke-width="1"/>
            <path id="Trazado_607782" data-name="Trazado 607782" d="M132.291,308.467l-3.231-4-3.231,4" transform="translate(-22.06 -53.378)" fill="none" stroke="#263238" stroke-linecap="round" stroke-linejoin="round" stroke-width="1"/>
          </g>
        </g>
        <g id="Grupo_890323" data-name="Grupo 890323">
          <g id="Grupo_890322" data-name="Grupo 890322" clip-path="url(#clip-path)">
            <path id="Trazado_607783" data-name="Trazado 607783" d="M222.107,65.653H7.753V55.877a3.493,3.493,0,0,1,3.493-3.493H218.614a3.494,3.494,0,0,1,3.493,3.493Z" transform="translate(-1.359 -9.184)" fill="#12263f"/>
            <path id="Trazado_607784" data-name="Trazado 607784" d="M222.107,65.653H7.753V55.877a3.493,3.493,0,0,1,3.493-3.493H218.614a3.494,3.494,0,0,1,3.493,3.493Z" transform="translate(-1.359 -9.184)" fill="none" stroke="#263238" stroke-linecap="round" stroke-linejoin="round" stroke-width="1"/>
            <rect id="Rectángulo_301357" data-name="Rectángulo 301357" width="216.654" height="152.458" transform="translate(15.771 58.927)" fill="#fff"/>
            <rect id="Rectángulo_301358" data-name="Rectángulo 301358" width="216.654" height="152.458" transform="translate(15.771 58.927)" fill="none" stroke="#263238" stroke-linecap="round" stroke-linejoin="round" stroke-width="1"/>
            <path id="Trazado_607785" data-name="Trazado 607785" d="M284.448,59.725a3.317,3.317,0,1,1-3.317-3.317,3.317,3.317,0,0,1,3.317,3.317" transform="translate(-48.705 -9.889)" fill="#fff"/>
            <path id="Trazado_607786" data-name="Trazado 607786" d="M284.448,59.725a3.317,3.317,0,1,1-3.317-3.317A3.317,3.317,0,0,1,284.448,59.725Z" transform="translate(-48.705 -9.889)" fill="none" stroke="#263238" stroke-linecap="round" stroke-linejoin="round" stroke-width="1"/>
            <path id="Trazado_607787" data-name="Trazado 607787" d="M270.288,59.725a3.317,3.317,0,1,1-3.317-3.317,3.317,3.317,0,0,1,3.317,3.317" transform="translate(-46.223 -9.889)" fill="#fff"/>
            <path id="Trazado_607788" data-name="Trazado 607788" d="M270.288,59.725a3.317,3.317,0,1,1-3.317-3.317A3.317,3.317,0,0,1,270.288,59.725Z" transform="translate(-46.223 -9.889)" fill="none" stroke="#263238" stroke-linecap="round" stroke-linejoin="round" stroke-width="1"/>
            <path id="Trazado_607789" data-name="Trazado 607789" d="M256.128,59.725a3.317,3.317,0,1,1-3.318-3.317,3.317,3.317,0,0,1,3.318,3.317" transform="translate(-43.74 -9.889)" fill="#fff"/>
            <path id="Trazado_607790" data-name="Trazado 607790" d="M256.128,59.725a3.317,3.317,0,1,1-3.318-3.317A3.317,3.317,0,0,1,256.128,59.725Z" transform="translate(-43.74 -9.889)" fill="none" stroke="#263238" stroke-linecap="round" stroke-linejoin="round" stroke-width="1"/>
            <line id="Línea_2207" data-name="Línea 2207" x1="8.58" transform="translate(217.283 65.465)" fill="none" stroke="#263238" stroke-linecap="round" stroke-linejoin="round" stroke-width="2"/>
            <line id="Línea_2208" data-name="Línea 2208" x1="8.58" transform="translate(217.283 68.945)" fill="none" stroke="#263238" stroke-linecap="round" stroke-linejoin="round" stroke-width="2"/>
            <line id="Línea_2209" data-name="Línea 2209" x1="8.58" transform="translate(217.283 72.425)" fill="none" stroke="#263238" stroke-linecap="round" stroke-linejoin="round" stroke-width="2"/>
            <line id="Línea_2210" data-name="Línea 2210" x2="64.923" transform="translate(30.778 155.422)" fill="none" stroke="#263238" stroke-linecap="round" stroke-linejoin="round" stroke-width="2"/>
            <line id="Línea_2211" data-name="Línea 2211" x2="64.923" transform="translate(30.778 160.543)" fill="none" stroke="#263238" stroke-linecap="round" stroke-linejoin="round" stroke-width="2"/>
            <line id="Línea_2212" data-name="Línea 2212" x2="51.19" transform="translate(30.778 165.761)" fill="none" stroke="#263238" stroke-linecap="round" stroke-linejoin="round" stroke-width="2"/>
            <line id="Línea_2213" data-name="Línea 2213" y2="0.412" transform="translate(168.455 60.646)" fill="none" stroke="#263238" stroke-linecap="round" stroke-linejoin="round" stroke-width="1"/>
            <line id="Línea_2214" data-name="Línea 2214" y2="143.685" transform="translate(168.455 63.529)" fill="none" stroke="#263238" stroke-linecap="round" stroke-linejoin="round" stroke-width="1" stroke-dasharray="0.998 2.995"/>
            <line id="Línea_2215" data-name="Línea 2215" y2="0.412" transform="translate(168.455 208.448)" fill="none" stroke="#263238" stroke-linecap="round" stroke-linejoin="round" stroke-width="1"/>
            <line id="Línea_2216" data-name="Línea 2216" x2="0.412" transform="translate(18.381 177.194)" fill="none" stroke="#263238" stroke-linecap="round" stroke-linejoin="round" stroke-width="1"/>
            <line id="Línea_2217" data-name="Línea 2217" x2="206.199" transform="translate(21.263 177.194)" fill="none" stroke="#263238" stroke-linecap="round" stroke-linejoin="round" stroke-width="1" stroke-dasharray="0.998 2.994"/>
            <line id="Línea_2218" data-name="Línea 2218" x2="0.412" transform="translate(228.696 177.194)" fill="none" stroke="#263238" stroke-linecap="round" stroke-linejoin="round" stroke-width="1"/>
            <rect id="Rectángulo_301359" data-name="Rectángulo 301359" width="2.842" height="2.842" transform="translate(167.035 175.774)" fill="#fff"/>
            <rect id="Rectángulo_301360" data-name="Rectángulo 301360" width="2.842" height="2.842" transform="translate(167.035 175.774)" fill="none" stroke="#263238" stroke-linecap="round" stroke-linejoin="round" stroke-width="1"/>
            <path id="Trazado_607791" data-name="Trazado 607791" d="M116.456.5H75.8A1.8,1.8,0,0,0,74,2.295V21.217A1.8,1.8,0,0,0,75.8,23.011H94.042l2.083,7.458,2.083-7.458h18.247a1.794,1.794,0,0,0,1.795-1.795V2.295A1.794,1.794,0,0,0,116.456.5" transform="translate(-12.974 -0.088)" fill="#fffae7"/>
            <path id="Trazado_607792" data-name="Trazado 607792" d="M116.456.5H75.8A1.8,1.8,0,0,0,74,2.295V21.217A1.8,1.8,0,0,0,75.8,23.011H94.042l2.083,7.458,2.083-7.458h18.247a1.794,1.794,0,0,0,1.795-1.795V2.295A1.794,1.794,0,0,0,116.456.5Z" transform="translate(-12.974 -0.088)" fill="none" stroke="#263238" stroke-linecap="round" stroke-linejoin="round" stroke-width="1"/>
            <line id="Línea_2219" data-name="Línea 2219" x2="30.719" transform="translate(67.793 5.83)" fill="none" stroke="#263238" stroke-linecap="round" stroke-linejoin="round" stroke-width="2"/>
            <line id="Línea_2220" data-name="Línea 2220" x2="30.719" transform="translate(67.793 9.722)" fill="none" stroke="#263238" stroke-linecap="round" stroke-linejoin="round" stroke-width="2"/>
            <line id="Línea_2221" data-name="Línea 2221" x2="30.719" transform="translate(67.793 13.614)" fill="none" stroke="#263238" stroke-linecap="round" stroke-linejoin="round" stroke-width="2"/>
            <line id="Línea_2222" data-name="Línea 2222" x2="23.151" transform="translate(67.793 17.506)" fill="none" stroke="#263238" stroke-linecap="round" stroke-linejoin="round" stroke-width="2"/>
            <rect id="Rectángulo_301361" data-name="Rectángulo 301361" width="44.248" height="27.733" transform="translate(42.644 201.289)" fill="#263238"/>
            <rect id="Rectángulo_301362" data-name="Rectángulo 301362" width="44.248" height="27.733" transform="translate(42.644 201.289)" fill="none" stroke="#263238" stroke-linecap="round" stroke-linejoin="round" stroke-width="1"/>
            <rect id="Rectángulo_301363" data-name="Rectángulo 301363" width="44.248" height="4.217" transform="translate(42.644 201.288)" fill="#26aab7"/>
            <rect id="Rectángulo_301364" data-name="Rectángulo 301364" width="44.248" height="4.217" transform="translate(42.644 201.288)" fill="none" stroke="#263238" stroke-linecap="round" stroke-linejoin="round" stroke-width="1"/>
            <line id="Línea_2223" data-name="Línea 2223" x2="11.31" transform="translate(47.16 209.059)" fill="none" stroke="#fff" stroke-linecap="round" stroke-linejoin="round" stroke-width="1"/>
            <line id="Línea_2224" data-name="Línea 2224" x2="19.575" transform="translate(52.815 212.213)" fill="none" stroke="#fff" stroke-linecap="round" stroke-linejoin="round" stroke-width="1"/>
            <line id="Línea_2225" data-name="Línea 2225" x2="5.764" transform="translate(50.314 215.155)" fill="none" stroke="#fff" stroke-linecap="round" stroke-linejoin="round" stroke-width="1"/>
            <line id="Línea_2226" data-name="Línea 2226" x2="13.184" transform="translate(52.815 218.629)" fill="none" stroke="#fff" stroke-linecap="round" stroke-linejoin="round" stroke-width="1"/>
            <line id="Línea_2227" data-name="Línea 2227" x2="11.31" transform="translate(47.16 221.783)" fill="none" stroke="#fff" stroke-linecap="round" stroke-linejoin="round" stroke-width="1"/>
            <line id="Línea_2228" data-name="Línea 2228" x1="37.99" transform="translate(119.112 149.862)" fill="none" stroke="#263238" stroke-linecap="round" stroke-linejoin="round" stroke-width="1"/>
            <path id="Trazado_607793" data-name="Trazado 607793" d="M183,199.269s0-17.652-19.726-17.652-19.725,17.652-19.725,17.652" transform="translate(-25.167 -31.84)" fill="none" stroke="#263238" stroke-linecap="round" stroke-linejoin="round" stroke-width="1"/>
            <path id="Trazado_607794" data-name="Trazado 607794" d="M189.37,202.668a1.662,1.662,0,1,1,1.662,1.662,1.662,1.662,0,0,1-1.662-1.662" transform="translate(-33.2 -35.24)" fill="#92e3a9"/>
            <path id="Trazado_607795" data-name="Trazado 607795" d="M189.37,202.668a1.662,1.662,0,1,1,1.662,1.662A1.662,1.662,0,0,1,189.37,202.668Z" transform="translate(-33.2 -35.24)" fill="none" stroke="#263238" stroke-linecap="round" stroke-linejoin="round" stroke-width="1"/>
            <path id="Trazado_607796" data-name="Trazado 607796" d="M141.533,202.668a1.662,1.662,0,1,1,1.662,1.662,1.662,1.662,0,0,1-1.662-1.662" transform="translate(-24.813 -35.24)" fill="#92e3a9"/>
            <path id="Trazado_607797" data-name="Trazado 607797" d="M141.533,202.668a1.662,1.662,0,1,1,1.662,1.662A1.662,1.662,0,0,1,141.533,202.668Z" transform="translate(-24.813 -35.24)" fill="none" stroke="#263238" stroke-linecap="round" stroke-linejoin="round" stroke-width="1"/>
            <rect id="Rectángulo_301365" data-name="Rectángulo 301365" width="2.923" height="2.922" transform="translate(156.372 148.316)" fill="#92e3a9"/>
            <rect id="Rectángulo_301366" data-name="Rectángulo 301366" width="2.923" height="2.922" transform="translate(156.372 148.316)" fill="none" stroke="#263238" stroke-linecap="round" stroke-linejoin="round" stroke-width="1"/>
            <rect id="Rectángulo_301367" data-name="Rectángulo 301367" width="2.923" height="2.922" transform="translate(136.646 148.316)" fill="#92e3a9"/>
            <rect id="Rectángulo_301368" data-name="Rectángulo 301368" width="2.923" height="2.922" transform="translate(136.646 148.316)" fill="none" stroke="#263238" stroke-linecap="round" stroke-linejoin="round" stroke-width="1"/>
            <rect id="Rectángulo_301369" data-name="Rectángulo 301369" width="2.923" height="2.922" transform="translate(116.921 148.316)" fill="#92e3a9"/>
            <rect id="Rectángulo_301370" data-name="Rectángulo 301370" width="2.923" height="2.922" transform="translate(116.921 148.316)" fill="none" stroke="#263238" stroke-linecap="round" stroke-linejoin="round" stroke-width="1"/>
            <path id="Trazado_607798" data-name="Trazado 607798" d="M59.133,113.326v-5.832l-4.368-.377a12.066,12.066,0,0,0-1.08-2.618l2.82-3.352L52.38,97.023l-3.352,2.82a12.066,12.066,0,0,0-2.618-1.08l-.377-4.368H40.2l-.377,4.368a12.066,12.066,0,0,0-2.618,1.08l-3.352-2.82-4.123,4.124,2.82,3.352a12.066,12.066,0,0,0-1.08,2.618l-4.368.377v5.832l4.368.377a12.066,12.066,0,0,0,1.08,2.618l-2.82,3.352,4.123,4.124,3.352-2.82a12.066,12.066,0,0,0,2.618,1.08l.377,4.368h5.832l.377-4.368a12.066,12.066,0,0,0,2.618-1.08l3.352,2.82,4.123-4.124-2.82-3.352a12.066,12.066,0,0,0,1.08-2.618Zm-16.015,3.861a6.777,6.777,0,1,1,6.777-6.777,6.777,6.777,0,0,1-6.777,6.777" transform="translate(-4.751 -16.549)" fill="#e8e8e8"/>
            <path id="Trazado_607799" data-name="Trazado 607799" d="M59.133,113.326v-5.832l-4.368-.377a12.066,12.066,0,0,0-1.08-2.618l2.82-3.352L52.38,97.023l-3.352,2.82a12.066,12.066,0,0,0-2.618-1.08l-.377-4.368H40.2l-.377,4.368a12.066,12.066,0,0,0-2.618,1.08l-3.352-2.82-4.123,4.124,2.82,3.352a12.066,12.066,0,0,0-1.08,2.618l-4.368.377v5.832l4.368.377a12.066,12.066,0,0,0,1.08,2.618l-2.82,3.352,4.123,4.124,3.352-2.82a12.066,12.066,0,0,0,2.618,1.08l.377,4.368h5.832l.377-4.368a12.066,12.066,0,0,0,2.618-1.08l3.352,2.82,4.123-4.124-2.82-3.352a12.066,12.066,0,0,0,1.08-2.618Zm-16.015,3.861a6.777,6.777,0,1,1,6.777-6.777A6.777,6.777,0,0,1,43.117,117.188Z" transform="translate(-4.751 -16.549)" fill="none" stroke="#263238" stroke-linecap="round" stroke-linejoin="round" stroke-width="1"/>
            <path id="Trazado_607800" data-name="Trazado 607800" d="M85.317,130.459v-3.992l-2.991-.257a8.271,8.271,0,0,0-.739-1.793l1.931-2.294L80.694,119.3,78.4,121.23a8.226,8.226,0,0,0-1.792-.74l-.257-2.99H72.357l-.257,2.99a8.226,8.226,0,0,0-1.792.74l-2.3-1.931-2.823,2.823,1.931,2.294a8.229,8.229,0,0,0-.739,1.793l-2.991.257v3.992l2.991.258a8.24,8.24,0,0,0,.739,1.792L65.189,134.8l2.823,2.823,2.3-1.931a8.226,8.226,0,0,0,1.792.74l.257,2.99H76.35l.257-2.99a8.226,8.226,0,0,0,1.792-.74l2.294,1.931,2.824-2.823-1.931-2.294a8.281,8.281,0,0,0,.739-1.792ZM74.353,133.1a4.639,4.639,0,1,1,4.639-4.639,4.639,4.639,0,0,1-4.639,4.639" transform="translate(-11.113 -20.6)" fill="#92e3a9"/>
            <path id="Trazado_607801" data-name="Trazado 607801" d="M85.317,130.459v-3.992l-2.991-.257a8.271,8.271,0,0,0-.739-1.793l1.931-2.294L80.694,119.3,78.4,121.23a8.226,8.226,0,0,0-1.792-.74l-.257-2.99H72.357l-.257,2.99a8.226,8.226,0,0,0-1.792.74l-2.3-1.931-2.823,2.823,1.931,2.294a8.229,8.229,0,0,0-.739,1.793l-2.991.257v3.992l2.991.258a8.24,8.24,0,0,0,.739,1.792L65.189,134.8l2.823,2.823,2.3-1.931a8.226,8.226,0,0,0,1.792.74l.257,2.99H76.35l.257-2.99a8.226,8.226,0,0,0,1.792-.74l2.294,1.931,2.824-2.823-1.931-2.294a8.281,8.281,0,0,0,.739-1.792ZM74.353,133.1a4.639,4.639,0,1,1,4.639-4.639A4.639,4.639,0,0,1,74.353,133.1Z" transform="translate(-11.113 -20.6)" fill="#e8e8e8" stroke="#263238" stroke-linecap="round" stroke-linejoin="round" stroke-width="1"/>
            <line id="Línea_2229" data-name="Línea 2229" x2="31.936" transform="translate(176.609 186.892)" fill="none" stroke="#263238" stroke-linecap="round" stroke-linejoin="round" stroke-width="2"/>
            <line id="Línea_2230" data-name="Línea 2230" x2="31.936" transform="translate(176.609 192.013)" fill="none" stroke="#263238" stroke-linecap="round" stroke-linejoin="round" stroke-width="2"/>
            <line id="Línea_2231" data-name="Línea 2231" x2="18.202" transform="translate(176.609 197.231)" fill="none" stroke="#263238" stroke-linecap="round" stroke-linejoin="round" stroke-width="2"/>
            <path id="Trazado_607802" data-name="Trazado 607802" d="M158.666,239.975H141.851a4.138,4.138,0,0,1,0-8.276h16.814a4.138,4.138,0,1,1,0,8.276" transform="translate(-24.144 -40.621)" fill="#1565c0"/>
            <path id="Trazado_607803" data-name="Trazado 607803" d="M158.666,239.975H141.851a4.138,4.138,0,0,1,0-8.276h16.814a4.138,4.138,0,1,1,0,8.276Z" transform="translate(-24.144 -40.621)" fill="none" stroke="#263238" stroke-linecap="round" stroke-linejoin="round" stroke-width="1"/>
            <path id="Trazado_607804" data-name="Trazado 607804" d="M196.66,239.975H179.845a4.138,4.138,0,0,1,0-8.276H196.66a4.138,4.138,0,1,1,0,8.276" transform="translate(-30.804 -40.621)" fill="#1565c0"/>
            <path id="Trazado_607805" data-name="Trazado 607805" d="M196.66,239.975H179.845a4.138,4.138,0,0,1,0-8.276H196.66a4.138,4.138,0,1,1,0,8.276Z" transform="translate(-30.804 -40.621)" fill="none" stroke="#263238" stroke-linecap="round" stroke-linejoin="round" stroke-width="1"/>
            <rect id="Rectángulo_301371" data-name="Rectángulo 301371" width="35.66" height="35.66" transform="translate(178.941 110.88)" fill="#fff"/>
            <rect id="Rectángulo_301372" data-name="Rectángulo 301372" width="35.66" height="35.66" transform="translate(178.941 110.88)" fill="none" stroke="#263238" stroke-linecap="round" stroke-linejoin="round" stroke-width="1"/>
            <line id="Línea_2232" data-name="Línea 2232" x2="35.66" y2="35.66" transform="translate(178.941 110.88)" fill="#fff"/>
            <line id="Línea_2233" data-name="Línea 2233" x2="35.66" y2="35.66" transform="translate(178.941 110.88)" fill="none" stroke="#263238" stroke-linecap="round" stroke-linejoin="round" stroke-width="1"/>
            <line id="Línea_2234" data-name="Línea 2234" x1="35.66" y2="35.66" transform="translate(178.941 110.88)" fill="#fff"/>
            <line id="Línea_2235" data-name="Línea 2235" x1="35.66" y2="35.66" transform="translate(178.941 110.88)" fill="none" stroke="#263238" stroke-linecap="round" stroke-linejoin="round" stroke-width="1"/>
            <rect id="Rectángulo_301373" data-name="Rectángulo 301373" width="44.249" height="27.733" transform="translate(209.07 89.698)" fill="#263238"/>
            <rect id="Rectángulo_301374" data-name="Rectángulo 301374" width="44.249" height="27.733" transform="translate(209.07 89.698)" fill="none" stroke="#263238" stroke-linecap="round" stroke-linejoin="round" stroke-width="1"/>
            <rect id="Rectángulo_301375" data-name="Rectángulo 301375" width="44.249" height="4.217" transform="translate(209.07 89.698)" fill="#26aab7"/>
            <rect id="Rectángulo_301376" data-name="Rectángulo 301376" width="44.249" height="4.217" transform="translate(209.07 89.698)" fill="none" stroke="#263238" stroke-linecap="round" stroke-linejoin="round" stroke-width="1"/>
            <line id="Línea_2236" data-name="Línea 2236" x2="11.31" transform="translate(213.586 97.468)" fill="none" stroke="#fff" stroke-linecap="round" stroke-linejoin="round" stroke-width="1"/>
            <line id="Línea_2237" data-name="Línea 2237" x2="19.575" transform="translate(219.241 100.622)" fill="none" stroke="#fff" stroke-linecap="round" stroke-linejoin="round" stroke-width="1"/>
            <line id="Línea_2238" data-name="Línea 2238" x2="5.764" transform="translate(216.74 103.564)" fill="none" stroke="#fff" stroke-linecap="round" stroke-linejoin="round" stroke-width="1"/>
            <line id="Línea_2239" data-name="Línea 2239" x2="13.184" transform="translate(219.241 107.038)" fill="none" stroke="#fff" stroke-linecap="round" stroke-linejoin="round" stroke-width="1"/>
            <line id="Línea_2240" data-name="Línea 2240" x2="11.31" transform="translate(213.586 110.192)" fill="none" stroke="#fff" stroke-linecap="round" stroke-linejoin="round" stroke-width="1"/>
            <path id="Trazado_607806" data-name="Trazado 607806" d="M231.389,85.365v8.321l-3.67,3.67H219.4V85.365Z" transform="translate(-38.464 -14.966)" fill="#fff"/>
            <path id="Trazado_607807" data-name="Trazado 607807" d="M231.389,85.365v8.321l-3.67,3.67H219.4V85.365Z" transform="translate(-38.464 -14.966)" fill="none" stroke="#263238" stroke-linecap="round" stroke-linejoin="round" stroke-width="1"/>
            <path id="Trazado_607808" data-name="Trazado 607808" d="M233.158,95.455l-3.67,3.67v-3.67Z" transform="translate(-40.233 -16.735)" fill="#fff"/>
            <path id="Trazado_607809" data-name="Trazado 607809" d="M233.158,95.455l-3.67,3.67v-3.67Z" transform="translate(-40.233 -16.735)" fill="none" stroke="#263238" stroke-linecap="round" stroke-linejoin="round" stroke-width="1"/>
            <path id="Trazado_607810" data-name="Trazado 607810" d="M76.757,163.4v8.321l-3.67,3.67H64.767V163.4Z" transform="translate(-11.355 -28.647)" fill="#fff"/>
            <path id="Trazado_607811" data-name="Trazado 607811" d="M76.757,163.4v8.321l-3.67,3.67H64.767V163.4Z" transform="translate(-11.355 -28.647)" fill="none" stroke="#263238" stroke-linecap="round" stroke-linejoin="round" stroke-width="1"/>
            <path id="Trazado_607812" data-name="Trazado 607812" d="M78.526,173.49l-3.67,3.67v-3.67Z" transform="translate(-13.124 -30.416)" fill="#fff"/>
            <path id="Trazado_607813" data-name="Trazado 607813" d="M78.526,173.49l-3.67,3.67v-3.67Z" transform="translate(-13.124 -30.416)" fill="none" stroke="#263238" stroke-linecap="round" stroke-linejoin="round" stroke-width="1"/>
            <path id="Trazado_607814" data-name="Trazado 607814" d="M21.814,225.563v8.321l-3.67,3.67H9.823V225.563Z" transform="translate(-1.722 -39.545)" fill="#fff"/>
            <path id="Trazado_607815" data-name="Trazado 607815" d="M21.814,225.563v8.321l-3.67,3.67H9.823V225.563Z" transform="translate(-1.722 -39.545)" fill="none" stroke="#263238" stroke-linecap="round" stroke-linejoin="round" stroke-width="1"/>
            <path id="Trazado_607816" data-name="Trazado 607816" d="M23.583,235.652l-3.67,3.67v-3.67Z" transform="translate(-3.491 -41.314)" fill="#fff"/>
            <path id="Trazado_607817" data-name="Trazado 607817" d="M23.583,235.652l-3.67,3.67v-3.67Z" transform="translate(-3.491 -41.314)" fill="none" stroke="#263238" stroke-linecap="round" stroke-linejoin="round" stroke-width="1"/>
          </g>
        </g>
        <g id="Grupo_890325" data-name="Grupo 890325">
          <g id="Grupo_890324" data-name="Grupo 890324" clip-path="url(#clip-path)">
            <path id="Trazado_607818" data-name="Trazado 607818" d="M203.1,159.66c-4.359.373-9.906-4.84-9.906-4.84a.975.975,0,0,1-1.557-.2c-.708-1.018-3.784-3.383-3.958-5.431s3.46-5.363,3.46-5.363c-2.8.764-3.1-.877-3.1-.877s4.71-3.889,6.357-3.993c.645-.041,3.454,1.573,6.165,3.754,2.837,2.282,8.16,10.324,8.16,10.324s18.023,13.086,22.578,16.437c6.009,4.421,13.133,12.261,13.133,12.261s23.933,10.785,30.494,16.713l-8.917,21.132S244.258,205,242.083,201.308s-4.35-1.473-6.525-3.891-4.26-5.178-4.26-5.178a36.8,36.8,0,0,1-10.351-7.525c-5.087-5.219-9.564-13.2-12.375-17.988a29.748,29.748,0,0,0-5.476-7.066" transform="translate(-32.902 -24.361)" fill="#fff"/>
            <path id="Trazado_607819" data-name="Trazado 607819" d="M203.1,159.66c-4.359.373-9.906-4.84-9.906-4.84a.975.975,0,0,1-1.557-.2c-.708-1.018-3.784-3.383-3.958-5.431s3.46-5.363,3.46-5.363c-2.8.764-3.1-.877-3.1-.877s4.71-3.889,6.357-3.993c.645-.041,3.454,1.573,6.165,3.754,2.837,2.282,8.16,10.324,8.16,10.324s18.023,13.086,22.578,16.437c6.009,4.421,13.133,12.261,13.133,12.261s23.933,10.785,30.494,16.713l-8.917,21.132S244.258,205,242.083,201.308s-4.35-1.473-6.525-3.891-4.26-5.178-4.26-5.178a36.8,36.8,0,0,1-10.351-7.525c-5.087-5.219-9.564-13.2-12.375-17.988A29.748,29.748,0,0,0,203.1,159.66Z" transform="translate(-32.902 -24.361)" fill="none" stroke="#263238" stroke-linecap="round" stroke-linejoin="round" stroke-width="1"/>
            <path id="Trazado_607820" data-name="Trazado 607820" d="M204.983,157.7s-6.486-1.572-7.05-5.853a7.937,7.937,0,0,0-1.393-2.993s-6.058-.3-5.673-2.765l8.077-.713a14.069,14.069,0,0,1,7.04,5.918" transform="translate(-33.459 -25.487)" fill="#fff"/>
            <path id="Trazado_607821" data-name="Trazado 607821" d="M204.983,157.7s-6.486-1.572-7.05-5.853a7.937,7.937,0,0,0-1.393-2.993s-6.058-.3-5.673-2.765l8.077-.713a14.069,14.069,0,0,1,7.04,5.918" transform="translate(-33.459 -25.487)" fill="none" stroke="#263238" stroke-linecap="round" stroke-linejoin="round" stroke-width="1"/>
            <path id="Trazado_607822" data-name="Trazado 607822" d="M194.364,156.685a2.628,2.628,0,0,0,.273-1.748s1.781-.322,1.583-1.9c0,0,2.641-.324.936-3.44" transform="translate(-34.075 -26.226)" fill="none" stroke="#263238" stroke-linecap="round" stroke-linejoin="round" stroke-width="1"/>
            <path id="Trazado_607823" data-name="Trazado 607823" d="M195.775,152.951s-3.548-2.635-3.951-3.834" transform="translate(-33.63 -26.143)" fill="none" stroke="#263238" stroke-linecap="round" stroke-linejoin="round" stroke-width="1"/>
            <path id="Trazado_607824" data-name="Trazado 607824" d="M193.877,155.3s-3.783-2.3-3.85-3.654" transform="translate(-33.315 -26.585)" fill="none" stroke="#263238" stroke-linecap="round" stroke-linejoin="round" stroke-width="1"/>
            <path id="Trazado_607825" data-name="Trazado 607825" d="M195.064,141.692a5.751,5.751,0,0,1-3.192,2.615" transform="translate(-33.638 -24.841)" fill="none" stroke="#263238" stroke-linecap="round" stroke-linejoin="round" stroke-width="1"/>
            <path id="Trazado_607826" data-name="Trazado 607826" d="M195.02,142.72a10.4,10.4,0,0,1,1.78,1.178" transform="translate(-34.19 -25.021)" fill="none" stroke="#263238" stroke-linecap="round" stroke-linejoin="round" stroke-width="1"/>
            <path id="Trazado_607827" data-name="Trazado 607827" d="M346.929,227.879a194.115,194.115,0,0,0-28.783-9.616c-14.486-3.394-37.9-6.417-37.9-6.417s6.447,65.809,4.75,69.768S273.1,298.867,273.1,298.867s55.165,21.508,64.781,23.339,4.6-31.542,4.6-31.542,10.1-42.423,4.448-62.786" transform="translate(-47.879 -37.14)" fill="#fb8c00"/>
            <path id="Trazado_607828" data-name="Trazado 607828" d="M333.72,218.854s1.311,2.5-2.136,3.769c-8.931,3.3-18.448.388-17.434-3.109.388-1.336,2.6,0,2.458-4.989a6.078,6.078,0,0,0-.6-2.194,22.654,22.654,0,0,0-2.268-3.8,47.222,47.222,0,0,0-3.06-3.818s14.176-9.047,24.691,0c0,0-3.909,1.979-1.649,14.143" transform="translate(-54.467 -35.184)" fill="#fff"/>
            <path id="Trazado_607829" data-name="Trazado 607829" d="M333.72,218.854s1.311,2.5-2.136,3.769c-8.931,3.3-18.448.388-17.434-3.109.388-1.336,2.6,0,2.458-4.989a6.078,6.078,0,0,0-.6-2.194,22.654,22.654,0,0,0-2.268-3.8,47.222,47.222,0,0,0-3.06-3.818s14.176-9.047,24.691,0C335.369,204.71,331.46,206.689,333.72,218.854Z" transform="translate(-54.467 -35.184)" fill="none" stroke="#263238" stroke-linecap="round" stroke-linejoin="round" stroke-width="1"/>
            <path id="Trazado_607830" data-name="Trazado 607830" d="M335.018,356c-5.583,9.1-33.911,13.368-49.374,12.964s-59.954-21.467-62.973-25.928c-2.8-4.132-9.665-17.788.924-26.044a20.52,20.52,0,0,1,2.853-1.847c7.249-3.925,55.46,8.453,55.46,8.453s2.985-1.889,4.082-1.748c3.365.429,5.748,3.15,12.568,5.088,4.758,1.361,17.747-3.868,26.043.627a11.443,11.443,0,0,1,2.524,1.831c7.752,7.406,13.467,17.508,7.892,26.6" transform="translate(-38.2 -55.115)" fill="#e8e8e8"/>
          </g>
        </g>
        <g id="Grupo_890333" data-name="Grupo 890333" transform="translate(179.69 259.258)">
          <g id="Grupo_890332" data-name="Grupo 890332" clip-path="url(#clip-path-6)">
            <g id="Grupo_890331" data-name="Grupo 890331" transform="translate(5.705 0)" opacity="0.3">
              <g id="Grupo_890330" data-name="Grupo 890330">
                <g id="Grupo_890329" data-name="Grupo 890329" clip-path="url(#clip-path-7)">
                  <g id="Grupo_890328" data-name="Grupo 890328" opacity="0.7">
                    <g id="Grupo_890327" data-name="Grupo 890327">
                      <g id="Grupo_890326" data-name="Grupo 890326" clip-path="url(#clip-path-7)">
                        <path id="Trazado_607831" data-name="Trazado 607831" d="M325.815,327.561c-8.5-.569-16.081,1.212-21.376,4.338-6.276,3.711-35.915,17.986-35.915,17.986.066-1.534,1.715-4.626,1.715-4.626-2.787-2.482-10.078-4.412-10.078-4.412-5.649-4.824-28.064-19.215-35.354-23.858a20.52,20.52,0,0,1,2.853-1.847c7.249-3.925,55.46,8.453,55.46,8.453s2.985-1.889,4.082-1.748c3.365.429,5.748,3.15,12.568,5.088,4.758,1.361,17.747-3.868,26.044.627" transform="translate(-224.808 -314.373)"/>
                      </g>
                    </g>
                  </g>
                </g>
              </g>
            </g>
          </g>
        </g>
        <g id="Grupo_890335" data-name="Grupo 890335">
          <g id="Grupo_890334" data-name="Grupo 890334" clip-path="url(#clip-path)">
            <path id="Trazado_607833" data-name="Trazado 607833" d="M335.018,356c-5.583,9.1-33.911,13.368-49.374,12.964s-59.954-21.467-62.973-25.928c-2.8-4.132-9.665-17.788.924-26.044a20.52,20.52,0,0,1,2.853-1.847c7.249-3.925,55.46,8.453,55.46,8.453s2.985-1.889,4.082-1.748c3.365.429,5.748,3.15,12.568,5.088,4.758,1.361,17.747-3.868,26.043.627a11.443,11.443,0,0,1,2.524,1.831C334.878,336.8,340.593,346.9,335.018,356Z" transform="translate(-38.2 -55.115)" fill="none" stroke="#263238" stroke-linecap="round" stroke-linejoin="round" stroke-width="1"/>
            <path id="Trazado_607834" data-name="Trazado 607834" d="M342.153,374.8l.713,3.109s-1.9,5.383-10.236,6.26-13.275,2.726-17.282,2.967a34.27,34.27,0,0,1-6.341-.1l-.818-1.225Z" transform="translate(-54.03 -65.709)" fill="#fff"/>
            <path id="Trazado_607835" data-name="Trazado 607835" d="M342.153,374.8l.713,3.109s-1.9,5.383-10.236,6.26-13.275,2.726-17.282,2.967a34.27,34.27,0,0,1-6.341-.1l-.818-1.225Z" transform="translate(-54.03 -65.709)" fill="none" stroke="#263238" stroke-linecap="round" stroke-linejoin="round" stroke-width="1"/>
            <path id="Trazado_607836" data-name="Trazado 607836" d="M290.67,372.567l14.445,11.339a165.289,165.289,0,0,0,20.714-3.1V380.8c6.846-1.584,12.823-3.858,13.151-6.972.5-4.734-4.561-6.031-10.575-5.847-1.124.026-2.276.112-3.44.233-9.627,1.033-21.862-4.286-21.862-4.286Z" transform="translate(-50.959 -63.803)" fill="#263238"/>
          </g>
        </g>
        <g id="Grupo_890343" data-name="Grupo 890343" transform="translate(239.711 300.128)">
          <g id="Grupo_890342" data-name="Grupo 890342" clip-path="url(#clip-path-10)">
            <g id="Grupo_890341" data-name="Grupo 890341" transform="translate(-0.003 0.001)" opacity="0.3">
              <g id="Grupo_890340" data-name="Grupo 890340">
                <g id="Grupo_890339" data-name="Grupo 890339" clip-path="url(#clip-path-11)">
                  <g id="Grupo_890338" data-name="Grupo 890338" opacity="0.7">
                    <g id="Grupo_890337" data-name="Grupo 890337">
                      <g id="Grupo_890336" data-name="Grupo 890336" clip-path="url(#clip-path-11)">
                        <path id="Trazado_607837" data-name="Trazado 607837" d="M338.987,373.727a44.449,44.449,0,0,0-8.036,3.954s-13.418,6.906-34.036-.208l-6.249-4.9,12.44-8.636s12.233,5.318,21.862,4.282c1.165-.121,2.317-.207,3.439-.228,5.97-.186,11,1.087,10.581,5.741" transform="translate(-290.666 -363.932)" fill="#fb8c00"/>
                      </g>
                    </g>
                  </g>
                </g>
              </g>
            </g>
          </g>
        </g>
        <g id="Grupo_890345" data-name="Grupo 890345">
          <g id="Grupo_890344" data-name="Grupo 890344" clip-path="url(#clip-path)">
            <path id="Trazado_607839" data-name="Trazado 607839" d="M290.67,372.567l14.445,11.339a165.289,165.289,0,0,0,20.714-3.1V380.8c6.846-1.584,12.823-3.858,13.151-6.972.5-4.734-4.561-6.031-10.575-5.847-1.124.026-2.276.112-3.44.233-9.627,1.033-21.862-4.286-21.862-4.286Z" transform="translate(-50.959 -63.803)" fill="none" stroke="#263238" stroke-linecap="round" stroke-linejoin="round" stroke-width="1"/>
            <path id="Trazado_607840" data-name="Trazado 607840" d="M306.785,379.813c-2.6.425.257,5.751,3.788,4.133s-1.183-4.558-3.788-4.133" transform="translate(-53.608 -66.58)" fill="#fff"/>
          </g>
        </g>
        <g id="Grupo_890353" data-name="Grupo 890353" transform="translate(252.168 313.192)">
          <g id="Grupo_890352" data-name="Grupo 890352" clip-path="url(#clip-path-14)">
            <g id="Grupo_890351" data-name="Grupo 890351" transform="translate(0.002 0)" opacity="0.2">
              <g id="Grupo_890350" data-name="Grupo 890350">
                <g id="Grupo_890349" data-name="Grupo 890349" clip-path="url(#clip-path-15)">
                  <g id="Grupo_890348" data-name="Grupo 890348" opacity="0.7">
                    <g id="Grupo_890347" data-name="Grupo 890347">
                      <g id="Grupo_890346" data-name="Grupo 890346" clip-path="url(#clip-path-15)">
                        <path id="Trazado_607841" data-name="Trazado 607841" d="M311.674,383.088a55.413,55.413,0,0,1-5.612-.98c-.5-1.043-.386-2.116.722-2.294,2.187-.358,5.862,1.658,4.89,3.274" transform="translate(-305.778 -379.772)"/>
                      </g>
                    </g>
                  </g>
                </g>
              </g>
            </g>
          </g>
        </g>
        <g id="Grupo_890355" data-name="Grupo 890355">
          <g id="Grupo_890354" data-name="Grupo 890354" clip-path="url(#clip-path)">
            <path id="Trazado_607843" data-name="Trazado 607843" d="M306.785,379.813c-2.6.425.257,5.751,3.788,4.133S309.389,379.388,306.785,379.813Z" transform="translate(-53.608 -66.58)" fill="none" stroke="#263238" stroke-linecap="round" stroke-linejoin="round" stroke-width="1"/>
            <path id="Trazado_607844" data-name="Trazado 607844" d="M333.066,381.66c6.846-1.584,12.822-3.858,13.151-6.972.5-4.734-4.561-6.031-10.575-5.847-.264.252-6.094,5.892-2.576,12.819" transform="translate(-58.195 -64.661)" fill="#fff"/>
          </g>
        </g>
        <g id="Grupo_890363" data-name="Grupo 890363" transform="translate(273.746 304.164)">
          <g id="Grupo_890362" data-name="Grupo 890362" clip-path="url(#clip-path-18)">
            <g id="Grupo_890361" data-name="Grupo 890361" transform="translate(0.005 0.001)" opacity="0.3">
              <g id="Grupo_890360" data-name="Grupo 890360">
                <g id="Grupo_890359" data-name="Grupo 890359" clip-path="url(#clip-path-19)">
                  <g id="Grupo_890358" data-name="Grupo 890358" opacity="0.7">
                    <g id="Grupo_890357" data-name="Grupo 890357">
                      <g id="Grupo_890356" data-name="Grupo 890356" clip-path="url(#clip-path-19)">
                        <path id="Trazado_607845" data-name="Trazado 607845" d="M346.224,374.585a44.449,44.449,0,0,0-8.036,3.954,27.036,27.036,0,0,1-5.647,1.887c-2.309-6.348,2.853-11.345,3.1-11.581,5.97-.186,11,1.087,10.581,5.741" transform="translate(-331.947 -368.827)"/>
                      </g>
                    </g>
                  </g>
                </g>
              </g>
            </g>
          </g>
        </g>
        <g id="Grupo_890365" data-name="Grupo 890365">
          <g id="Grupo_890364" data-name="Grupo 890364" clip-path="url(#clip-path-21)">
            <path id="Trazado_607847" data-name="Trazado 607847" d="M333.066,381.66c6.846-1.584,12.822-3.858,13.151-6.972.5-4.734-4.561-6.031-10.575-5.847C335.378,369.094,329.549,374.733,333.066,381.66Z" transform="translate(-58.195 -64.661)" fill="#fb8c00" stroke="#263238" stroke-linecap="round" stroke-linejoin="round" stroke-width="1"/>
            <path id="Trazado_607848" data-name="Trazado 607848" d="M327.249,375.7l.041,0a.715.715,0,0,0,.749-.68,9.67,9.67,0,0,1,2.463-5.436.715.715,0,0,0-1.031-.991,10.98,10.98,0,0,0-2.86,6.358.715.715,0,0,0,.638.746" transform="translate(-57.26 -64.583)" fill="#fb8c00"/>
            <path id="Trazado_607849" data-name="Trazado 607849" d="M327.249,375.7l.041,0a.715.715,0,0,0,.749-.68,9.67,9.67,0,0,1,2.463-5.436.715.715,0,0,0-1.031-.991,10.98,10.98,0,0,0-2.86,6.358A.715.715,0,0,0,327.249,375.7Z" transform="translate(-57.26 -64.583)" fill="#fb8c00" stroke="#263238" stroke-linecap="round" stroke-linejoin="round" stroke-width="1"/>
            <path id="Trazado_607850" data-name="Trazado 607850" d="M323.778,375.869a.5.5,0,0,0,.061,0,.714.714,0,0,0,.729-.7,10.589,10.589,0,0,1,2.189-5.652.715.715,0,0,0-1.105-.906,11.861,11.861,0,0,0-2.513,6.53.716.716,0,0,0,.639.726" transform="translate(-56.652 -64.578)" fill="#fb8c00"/>
            <path id="Trazado_607851" data-name="Trazado 607851" d="M323.778,375.869a.5.5,0,0,0,.061,0,.714.714,0,0,0,.729-.7,10.589,10.589,0,0,1,2.189-5.652.715.715,0,0,0-1.105-.906,11.861,11.861,0,0,0-2.513,6.53A.716.716,0,0,0,323.778,375.869Z" transform="translate(-56.652 -64.578)" fill="#fb8c00" stroke="#263238" stroke-linecap="round" stroke-linejoin="round" stroke-width="1"/>
            <path id="Trazado_607852" data-name="Trazado 607852" d="M319.629,375.433l.012,0a.717.717,0,0,0,.775-.65c.219-2.505,2.351-5.708,2.373-5.741a.715.715,0,0,0-1.187-.8c-.1.144-2.358,3.539-2.61,6.413a.715.715,0,0,0,.637.774" transform="translate(-55.924 -64.504)" fill="#fb8c00"/>
            <path id="Trazado_607853" data-name="Trazado 607853" d="M319.629,375.433l.012,0a.717.717,0,0,0,.775-.65c.219-2.505,2.351-5.708,2.373-5.741a.715.715,0,0,0-1.187-.8c-.1.144-2.358,3.539-2.61,6.413A.715.715,0,0,0,319.629,375.433Z" transform="translate(-55.924 -64.504)" fill="#fb8c00" stroke="#263238" stroke-linecap="round" stroke-linejoin="round" stroke-width="1"/>
            <path id="Trazado_607854" data-name="Trazado 607854" d="M315.692,374.969a.73.73,0,0,0,.194-.006.715.715,0,0,0,.587-.823c-.508-3.036,2.312-5.638,2.341-5.663a.715.715,0,0,0-.958-1.061c-.14.127-3.432,3.144-2.793,6.96a.715.715,0,0,0,.629.593" transform="translate(-55.221 -64.382)" fill="#fb8c00"/>
            <path id="Trazado_607855" data-name="Trazado 607855" d="M315.692,374.969a.73.73,0,0,0,.194-.006.715.715,0,0,0,.587-.823c-.508-3.036,2.312-5.638,2.341-5.663a.715.715,0,0,0-.958-1.061c-.14.127-3.432,3.144-2.793,6.96A.715.715,0,0,0,315.692,374.969Z" transform="translate(-55.221 -64.382)" fill="#fb8c00" stroke="#263238" stroke-linecap="round" stroke-linejoin="round" stroke-width="1"/>
            <path id="Trazado_607856" data-name="Trazado 607856" d="M311.425,373.92a.685.685,0,0,0,.234-.015.714.714,0,0,0,.537-.856c-.622-2.707,2.046-5.766,2.073-5.8a.715.715,0,0,0-1.07-.948c-.131.147-3.186,3.636-2.4,7.065a.718.718,0,0,0,.623.551" transform="translate(-54.466 -64.177)" fill="#fb8c00"/>
            <path id="Trazado_607857" data-name="Trazado 607857" d="M311.425,373.92a.685.685,0,0,0,.234-.015.714.714,0,0,0,.537-.856c-.622-2.707,2.046-5.766,2.073-5.8a.715.715,0,0,0-1.07-.948c-.131.147-3.186,3.636-2.4,7.065A.718.718,0,0,0,311.425,373.92Z" transform="translate(-54.466 -64.177)" fill="#fb8c00" stroke="#263238" stroke-linecap="round" stroke-linejoin="round" stroke-width="1"/>
            <path id="Trazado_607858" data-name="Trazado 607858" d="M221.259,369.163l-1.035,3.017s1.32,5.553,9.522,7.3,12.915,4.105,16.875,4.765a34.222,34.222,0,0,0,6.316.566l.943-1.131Z" transform="translate(-38.609 -64.72)" fill="#fb8c00"/>
            <path id="Trazado_607859" data-name="Trazado 607859" d="M221.259,369.163l-1.035,3.017s1.32,5.553,9.522,7.3,12.915,4.105,16.875,4.765a34.222,34.222,0,0,0,6.316.566l.943-1.131Z" transform="translate(-38.609 -64.72)" fill="#fb8c00" stroke="#263238" stroke-linecap="round" stroke-linejoin="round" stroke-width="1"/>
            <path id="Trazado_607860" data-name="Trazado 607860" d="M269.657,372.83,254.1,382.588a165.309,165.309,0,0,1-20.275-5.255v-.007c-6.642-2.3-12.346-5.183-12.346-8.314,0-4.762,5.168-5.519,11.131-4.7,1.115.143,2.252.35,3.4.593,9.465,2.038,22.191-1.966,22.191-1.966Z" transform="translate(-38.829 -63.628)" fill="#fb8c00"/>
          </g>
        </g>
        <g id="Grupo_890373" data-name="Grupo 890373" transform="translate(182.651 299.307)">
          <g id="Grupo_890372" data-name="Grupo 890372" clip-path="url(#clip-path-22)">
            <g id="Grupo_890371" data-name="Grupo 890371" transform="translate(20.446 -0.001)" opacity="0.3">
              <g id="Grupo_890370" data-name="Grupo 890370">
                <g id="Grupo_890369" data-name="Grupo 890369" clip-path="url(#clip-path-23)">
                  <g id="Grupo_890368" data-name="Grupo 890368" opacity="0.7">
                    <g id="Grupo_890367" data-name="Grupo 890367">
                      <g id="Grupo_890366" data-name="Grupo 890366" clip-path="url(#clip-path-23)">
                        <path id="Trazado_607861" data-name="Trazado 607861" d="M274,372.83l-9.151,5.741a36.881,36.881,0,0,1-18.58-13.089,61.755,61.755,0,0,0,16.271-2.546Z" transform="translate(-246.273 -362.935)"/>
                      </g>
                    </g>
                  </g>
                </g>
              </g>
            </g>
          </g>
        </g>
        <g id="Grupo_890375" data-name="Grupo 890375">
          <g id="Grupo_890374" data-name="Grupo 890374" clip-path="url(#clip-path)">
            <path id="Trazado_607863" data-name="Trazado 607863" d="M269.657,372.83,254.1,382.588a165.309,165.309,0,0,1-20.275-5.255v-.007c-6.642-2.3-12.346-5.183-12.346-8.314,0-4.762,5.168-5.519,11.131-4.7,1.115.143,2.252.35,3.4.593,9.465,2.038,22.191-1.966,22.191-1.966Z" transform="translate(-38.829 -63.628)" fill="none" stroke="#263238" stroke-linecap="round" stroke-linejoin="round" stroke-width="1"/>
            <path id="Trazado_607864" data-name="Trazado 607864" d="M233.826,377.558c-6.641-2.3-12.346-5.183-12.346-8.314,0-4.761,5.168-5.519,11.131-4.7.236.279,5.44,6.5,1.216,13.018" transform="translate(-38.829 -63.86)" fill="#fff"/>
            <path id="Trazado_607865" data-name="Trazado 607865" d="M233.826,377.558c-6.641-2.3-12.346-5.183-12.346-8.314,0-4.761,5.168-5.519,11.131-4.7C232.847,364.818,238.051,371.038,233.826,377.558Z" transform="translate(-38.829 -63.86)" fill="none" stroke="#263238" stroke-linecap="round" stroke-linejoin="round" stroke-width="1"/>
            <path id="Trazado_607866" data-name="Trazado 607866" d="M242.5,372.306l-.041,0a.714.714,0,0,1-.673-.754,9.681,9.681,0,0,0-1.878-5.665.715.715,0,0,1,1.129-.878,10.982,10.982,0,0,1,2.176,6.623.714.714,0,0,1-.713.675" transform="translate(-42.034 -63.944)" fill="#fff"/>
            <path id="Trazado_607867" data-name="Trazado 607867" d="M242.5,372.306l-.041,0a.714.714,0,0,1-.673-.754,9.681,9.681,0,0,0-1.878-5.665.715.715,0,0,1,1.129-.878,10.982,10.982,0,0,1,2.176,6.623A.714.714,0,0,1,242.5,372.306Z" transform="translate(-42.034 -63.944)" fill="none" stroke="#263238" stroke-linecap="round" stroke-linejoin="round" stroke-width="1"/>
            <path id="Trazado_607868" data-name="Trazado 607868" d="M246,372.844l-.061,0a.714.714,0,0,1-.652-.774,10.6,10.6,0,0,0-1.583-5.851.715.715,0,0,1,1.194-.785,11.861,11.861,0,0,1,1.813,6.758.715.715,0,0,1-.712.654" transform="translate(-42.706 -64.01)" fill="#fff"/>
            <path id="Trazado_607869" data-name="Trazado 607869" d="M246,372.844l-.061,0a.714.714,0,0,1-.652-.774,10.6,10.6,0,0,0-1.583-5.851.715.715,0,0,1,1.194-.785,11.861,11.861,0,0,1,1.813,6.758A.715.715,0,0,1,246,372.844Z" transform="translate(-42.706 -64.01)" fill="none" stroke="#263238" stroke-linecap="round" stroke-linejoin="round" stroke-width="1"/>
            <path id="Trazado_607870" data-name="Trazado 607870" d="M250.147,372.844h-.012a.716.716,0,0,1-.7-.727c.045-2.514-1.738-5.924-1.757-5.958a.715.715,0,0,1,1.264-.668c.082.153,1.973,3.766,1.922,6.651a.715.715,0,0,1-.715.7" transform="translate(-43.407 -64.01)" fill="#fff"/>
            <path id="Trazado_607871" data-name="Trazado 607871" d="M250.147,372.844h-.012a.716.716,0,0,1-.7-.727c.045-2.514-1.738-5.924-1.757-5.958a.715.715,0,0,1,1.264-.668c.082.153,1.973,3.766,1.922,6.651A.715.715,0,0,1,250.147,372.844Z" transform="translate(-43.407 -64.01)" fill="none" stroke="#263238" stroke-linecap="round" stroke-linejoin="round" stroke-width="1"/>
            <path id="Trazado_607872" data-name="Trazado 607872" d="M254.079,372.793a.738.738,0,0,1-.192-.026.716.716,0,0,1-.5-.881c.824-2.966-1.708-5.849-1.733-5.878a.715.715,0,0,1,1.065-.955c.126.141,3.083,3.487,2.047,7.215a.716.716,0,0,1-.689.524" transform="translate(-44.088 -63.959)" fill="#fff"/>
            <path id="Trazado_607873" data-name="Trazado 607873" d="M254.079,372.793a.738.738,0,0,1-.192-.026.716.716,0,0,1-.5-.881c.824-2.966-1.708-5.849-1.733-5.878a.715.715,0,0,1,1.065-.955c.126.141,3.083,3.487,2.047,7.215A.716.716,0,0,1,254.079,372.793Z" transform="translate(-44.088 -63.959)" fill="none" stroke="#263238" stroke-linecap="round" stroke-linejoin="round" stroke-width="1"/>
            <path id="Trazado_607874" data-name="Trazado 607874" d="M258.5,372.2a.715.715,0,0,1-.676-.948c.9-2.627-1.429-5.948-1.453-5.981a.715.715,0,0,1,1.164-.831c.115.159,2.786,3.95,1.641,7.278a.714.714,0,0,1-.675.482" transform="translate(-44.922 -63.84)" fill="#fff"/>
            <path id="Trazado_607875" data-name="Trazado 607875" d="M258.5,372.2a.715.715,0,0,1-.676-.948c.9-2.627-1.429-5.948-1.453-5.981a.715.715,0,0,1,1.164-.831c.115.159,2.786,3.95,1.641,7.278A.714.714,0,0,1,258.5,372.2Z" transform="translate(-44.922 -63.84)" fill="none" stroke="#263238" stroke-linecap="round" stroke-linejoin="round" stroke-width="1"/>
            <path id="Trazado_607876" data-name="Trazado 607876" d="M261.961,378.581c2.545.7-.86,5.693-4.2,3.713s1.656-4.409,4.2-3.713" transform="translate(-44.994 -66.35)" fill="#fff"/>
            <path id="Trazado_607877" data-name="Trazado 607877" d="M261.961,378.581c2.545.7-.86,5.693-4.2,3.713S259.416,377.885,261.961,378.581Z" transform="translate(-44.994 -66.35)" fill="none" stroke="#263238" stroke-linecap="round" stroke-linejoin="round" stroke-width="1"/>
            <path id="Trazado_607878" data-name="Trazado 607878" d="M227.426,346.472c3.824,5.354,15.143,11.264,26.424,16.143a53.191,53.191,0,0,0,7.075,9.243C267.868,379,270.7,375,270.7,375s4.384-.492,10.864-1.379a3.07,3.07,0,0,0,3.273,1.841c.843-.134,2.465-1.338,4.294-2.928,16.351-2.462,38.547-6.566,44.54-11.395" transform="translate(-39.872 -60.742)" fill="#e8e8e8"/>
            <path id="Trazado_607879" data-name="Trazado 607879" d="M227.426,346.472c3.824,5.354,15.143,11.264,26.424,16.143a53.191,53.191,0,0,0,7.075,9.243C267.868,379,270.7,375,270.7,375s4.384-.492,10.864-1.379a3.07,3.07,0,0,0,3.273,1.841c.843-.134,2.465-1.338,4.294-2.928,16.351-2.462,38.547-6.566,44.54-11.395" transform="translate(-39.872 -60.742)" fill="none" stroke="#263238" stroke-linecap="round" stroke-linejoin="round" stroke-width="1"/>
            <path id="Trazado_607880" data-name="Trazado 607880" d="M332.762,333.488c-2.828-3.111-5.657-3.253-11.6-2.828,0,0-15.495,4.913-26.3,11.454s-26.585,13.412-26.585,13.412-4.808-1.392-8.153,0c0,0-2.35.182-.775,4.287" transform="translate(-45.373 -57.939)" fill="none" stroke="#263238" stroke-linecap="round" stroke-linejoin="round" stroke-width="1"/>
            <path id="Trazado_607881" data-name="Trazado 607881" d="M355.8,356.652s.079,4.791-6.713,8.11" transform="translate(-61.201 -62.527)" fill="none" stroke="#263238" stroke-linecap="round" stroke-linejoin="round" stroke-width="1"/>
            <path id="Trazado_607882" data-name="Trazado 607882" d="M266.349,332.411s10.73,7.754,12.868,12.868a44.3,44.3,0,0,1,6.093,3.14" transform="translate(-46.695 -58.277)" fill="none" stroke="#263238" stroke-linecap="round" stroke-linejoin="round" stroke-width="1"/>
            <path id="Trazado_607883" data-name="Trazado 607883" d="M282.9,340.227a12.282,12.282,0,0,1,.377,6.935" transform="translate(-49.597 -59.647)" fill="none" stroke="#263238" stroke-linecap="round" stroke-linejoin="round" stroke-width="1"/>
            <path id="Trazado_607884" data-name="Trazado 607884" d="M279.9,334.126a18.994,18.994,0,0,1,1.536,2.681" transform="translate(-49.071 -58.578)" fill="none" stroke="#263238" stroke-linecap="round" stroke-linejoin="round" stroke-width="1"/>
            <path id="Trazado_607885" data-name="Trazado 607885" d="M298.415,333.268s3.587,4.795,4.48,8.69" transform="translate(-52.317 -58.427)" fill="none" stroke="#263238" stroke-linecap="round" stroke-linejoin="round" stroke-width="1"/>
            <path id="Trazado_607886" data-name="Trazado 607886" d="M322.644,368.32a31.006,31.006,0,0,0,3.979-.49" transform="translate(-56.565 -64.487)" fill="none" stroke="#263238" stroke-linecap="round" stroke-linejoin="round" stroke-width="1"/>
            <path id="Trazado_607887" data-name="Trazado 607887" d="M281.836,364.256a191.425,191.425,0,0,0,30.84,3.541" transform="translate(-49.411 -63.86)" fill="none" stroke="#263238" stroke-linecap="round" stroke-linejoin="round" stroke-width="1"/>
            <path id="Trazado_607888" data-name="Trazado 607888" d="M357.679,274.718s-1.937,33.77-4.221,35.749-5.89,2.546-12.712,3.112S303.76,316,303.76,316l-3.226-9.692s16.039-1.628,23.158-4.248a119.834,119.834,0,0,1,16.386-4.336,117.864,117.864,0,0,1-1.348-12.162V268.337" transform="translate(-52.689 -47.044)" fill="#fff"/>
            <path id="Trazado_607889" data-name="Trazado 607889" d="M357.679,274.718s-1.937,33.77-4.221,35.749-5.89,2.546-12.712,3.112S303.76,316,303.76,316l-3.226-9.692s16.039-1.628,23.158-4.248a119.834,119.834,0,0,1,16.386-4.336,117.864,117.864,0,0,1-1.348-12.162V268.337" transform="translate(-52.689 -47.044)" fill="none" stroke="#263238" stroke-linecap="round" stroke-linejoin="round" stroke-width="1"/>
            <path id="Trazado_607890" data-name="Trazado 607890" d="M359.155,231.287c7.355,4.525,9.523,14.989,6.978,37.332,0,0,2.171,2.64-1.037,3.96,0,0-12.012-4.492-17.6-1.4s-4.139-4.278-4.139-4.278-2.3-20.552,2.792-24.266" transform="translate(-60.105 -40.548)" fill="#fb8c00"/>
            <path id="Trazado_607891" data-name="Trazado 607891" d="M345.325,241.232s-7.071,7.353-.849,25.925a30.276,30.276,0,0,0-.856,4.62c.007,1.24,1.7,1.885,1.7,1.885" transform="translate(-59.943 -42.292)" fill="none" stroke="#fff" stroke-linecap="round" stroke-linejoin="round" stroke-width="1"/>
            <path id="Trazado_607892" data-name="Trazado 607892" d="M336.026,256.322s.515,9.05,6.135,13.009" transform="translate(-58.911 -44.937)" fill="none" stroke="#fff" stroke-linecap="round" stroke-linejoin="round" stroke-width="1"/>
            <path id="Trazado_607893" data-name="Trazado 607893" d="M333.307,229.159s-10.958,4.2-19.679-.45c-5.169-2.755-3.039-7.185-3.039-7.185" transform="translate(-54.375 -38.837)" fill="none" stroke="#fff" stroke-linecap="round" stroke-linejoin="round" stroke-width="1"/>
            <path id="Trazado_607894" data-name="Trazado 607894" d="M241.974,333.061H301.63a15.762,15.762,0,0,0,3.993-.515l11.766-3.087a.762.762,0,0,0-.193-1.5H239.51a.762.762,0,0,0-.762.762v1.112a3.226,3.226,0,0,0,3.226,3.226" transform="translate(-41.856 -57.497)" fill="#757575"/>
            <path id="Trazado_607895" data-name="Trazado 607895" d="M241.974,333.061H301.63a15.762,15.762,0,0,0,3.993-.515l11.766-3.087a.762.762,0,0,0-.193-1.5H239.51a.762.762,0,0,0-.762.762v1.112A3.226,3.226,0,0,0,241.974,333.061Z" transform="translate(-41.856 -57.497)" fill="none" stroke="#263238" stroke-linecap="round" stroke-linejoin="round" stroke-width="1"/>
            <path id="Trazado_607896" data-name="Trazado 607896" d="M232.608,320.559h59.823a1.429,1.429,0,0,0,1.4-1.921l-11.1-43.154a2.631,2.631,0,0,0-2.384-1.921H220.522a1.429,1.429,0,0,0-1.4,1.921l11.1,43.154a2.63,2.63,0,0,0,2.384,1.921" transform="translate(-38.405 -47.96)" fill="#999"/>
            <path id="Trazado_607897" data-name="Trazado 607897" d="M232.608,320.559h59.823a1.429,1.429,0,0,0,1.4-1.921l-11.1-43.154a2.631,2.631,0,0,0-2.384-1.921H220.522a1.429,1.429,0,0,0-1.4,1.921l11.1,43.154A2.63,2.63,0,0,0,232.608,320.559Z" transform="translate(-38.405 -47.96)" fill="none" stroke="#263238" stroke-linecap="round" stroke-linejoin="round" stroke-width="1"/>
            <line id="Línea_2241" data-name="Línea 2241" x1="1.131" transform="translate(183.095 227.139)" fill="none" stroke="#263238" stroke-linecap="round" stroke-linejoin="round" stroke-width="1"/>
            <line id="Línea_2242" data-name="Línea 2242" x1="5.845" transform="translate(187.149 227.139)" fill="none" stroke="#263238" stroke-linecap="round" stroke-linejoin="round" stroke-width="1"/>
            <path id="Trazado_607898" data-name="Trazado 607898" d="M293.9,315.429,284.1,277.346a2.631,2.631,0,0,0-2.384-1.921h-46.1" transform="translate(-41.308 -48.287)" fill="none" stroke="#263238" stroke-linecap="round" stroke-linejoin="round" stroke-width="1"/>
            <line id="Línea_2243" data-name="Línea 2243" x1="0.245" y1="0.951" transform="translate(253.196 269.512)" fill="none" stroke="#263238" stroke-linecap="round" stroke-linejoin="round" stroke-width="1"/>
            <path id="Trazado_607899" data-name="Trazado 607899" d="M257.321,302.309a5.864,5.864,0,0,0,.209,1.034c.763,2.6,3.2,4.176,5.433,3.518s3.431-3.3,2.668-5.9-3.2-4.175-5.44-3.517a3.69,3.69,0,0,0-.755.322,4.6,4.6,0,0,1-2.114,4.543" transform="translate(-45.113 -52.121)" fill="#fff"/>
            <path id="Trazado_607900" data-name="Trazado 607900" d="M257.321,302.309a5.864,5.864,0,0,0,.209,1.034c.763,2.6,3.2,4.176,5.433,3.518s3.431-3.3,2.668-5.9-3.2-4.175-5.44-3.517a3.69,3.69,0,0,0-.755.322A4.6,4.6,0,0,1,257.321,302.309Z" transform="translate(-45.113 -52.121)" fill="none" stroke="#263238" stroke-linecap="round" stroke-linejoin="round" stroke-width="1"/>
            <path id="Trazado_607901" data-name="Trazado 607901" d="M284.791,203.054c-5.178-.566-8.006-5.484-11.118-6.254a34.735,34.735,0,0,1-5.1-1.642s-1.073-3.748-2.676-2.439-3.723,29.271-1.649,28.393,2.073,2.421,2.073,2.421l19.226,16.946,16.115-28.536s-11.692-8.324-16.871-8.889" transform="translate(-46.176 -33.738)" fill="#fb8c00"/>
            <path id="Trazado_607902" data-name="Trazado 607902" d="M99.394,84.291v-.412h.412" transform="translate(-17.425 -14.705)" fill="none" stroke="#263238" stroke-linecap="round" stroke-linejoin="round" stroke-width="1"/>
            <line id="Línea_2244" data-name="Línea 2244" x2="69.767" transform="translate(84.8 69.174)" fill="none" stroke="#263238" stroke-linecap="round" stroke-linejoin="round" stroke-width="1" stroke-dasharray="0.978 2.934"/>
            <path id="Trazado_607903" data-name="Trazado 607903" d="M188.893,83.879h.412v.412" transform="translate(-33.116 -14.705)" fill="none" stroke="#263238" stroke-linecap="round" stroke-linejoin="round" stroke-width="1"/>
            <line id="Línea_2245" data-name="Línea 2245" y2="44.945" transform="translate(156.19 72.06)" fill="none" stroke="#263238" stroke-linecap="round" stroke-linejoin="round" stroke-width="1" stroke-dasharray="1 3"/>
            <path id="Trazado_607904" data-name="Trazado 607904" d="M189.306,143.379v.412h-.412" transform="translate(-33.116 -25.137)" fill="none" stroke="#263238" stroke-linecap="round" stroke-linejoin="round" stroke-width="1"/>
            <line id="Línea_2246" data-name="Línea 2246" x1="69.767" transform="translate(83.59 118.655)" fill="none" stroke="#263238" stroke-linecap="round" stroke-linejoin="round" stroke-width="1" stroke-dasharray="0.978 2.934"/>
            <path id="Trazado_607905" data-name="Trazado 607905" d="M99.806,143.791h-.412v-.412" transform="translate(-17.425 -25.137)" fill="none" stroke="#263238" stroke-linecap="round" stroke-linejoin="round" stroke-width="1"/>
            <line id="Línea_2247" data-name="Línea 2247" y1="44.945" transform="translate(81.968 70.823)" fill="none" stroke="#263238" stroke-linecap="round" stroke-linejoin="round" stroke-width="1" stroke-dasharray="1 3"/>
            <path id="Trazado_607906" data-name="Trazado 607906" d="M145.357,83.619a1.223,1.223,0,1,1-1.224-1.224,1.223,1.223,0,0,1,1.224,1.224" transform="translate(-25.054 -14.445)" fill="#26aab7"/>
            <path id="Trazado_607907" data-name="Trazado 607907" d="M145.357,83.619a1.223,1.223,0,1,1-1.224-1.224A1.223,1.223,0,0,1,145.357,83.619Z" transform="translate(-25.054 -14.445)" fill="none" stroke="#263238" stroke-linecap="round" stroke-linejoin="round" stroke-width="1"/>
            <path id="Trazado_607908" data-name="Trazado 607908" d="M100.357,113.619a1.223,1.223,0,1,1-1.224-1.224,1.223,1.223,0,0,1,1.224,1.224" transform="translate(-17.165 -19.705)" fill="#26aab7"/>
            <path id="Trazado_607909" data-name="Trazado 607909" d="M100.357,113.619a1.223,1.223,0,1,1-1.224-1.224A1.223,1.223,0,0,1,100.357,113.619Z" transform="translate(-17.165 -19.705)" fill="none" stroke="#263238" stroke-linecap="round" stroke-linejoin="round" stroke-width="1"/>
            <path id="Trazado_607910" data-name="Trazado 607910" d="M145.357,143.619a1.223,1.223,0,1,1-1.224-1.223,1.224,1.224,0,0,1,1.224,1.223" transform="translate(-25.054 -24.964)" fill="#26aab7"/>
            <path id="Trazado_607911" data-name="Trazado 607911" d="M145.357,143.619a1.223,1.223,0,1,1-1.224-1.223A1.224,1.224,0,0,1,145.357,143.619Z" transform="translate(-25.054 -24.964)" fill="none" stroke="#263238" stroke-linecap="round" stroke-linejoin="round" stroke-width="1"/>
            <path id="Trazado_607912" data-name="Trazado 607912" d="M190.357,113.619a1.223,1.223,0,1,1-1.224-1.224,1.223,1.223,0,0,1,1.224,1.224" transform="translate(-32.944 -19.705)" fill="#92e3a9"/>
            <path id="Trazado_607913" data-name="Trazado 607913" d="M190.357,113.619a1.223,1.223,0,1,1-1.224-1.224A1.223,1.223,0,0,1,190.357,113.619Z" transform="translate(-32.944 -19.705)" fill="none" stroke="#263238" stroke-linecap="round" stroke-linejoin="round" stroke-width="1"/>
            <rect id="Rectángulo_301393" data-name="Rectángulo 301393" width="2.842" height="2.842" transform="translate(154.769 117.234)" fill="#26aab7"/>
            <rect id="Rectángulo_301394" data-name="Rectángulo 301394" width="2.842" height="2.842" transform="translate(154.769 117.234)" fill="none" stroke="#263238" stroke-linecap="round" stroke-linejoin="round" stroke-width="1"/>
            <rect id="Rectángulo_301395" data-name="Rectángulo 301395" width="2.842" height="2.842" transform="translate(154.769 67.753)" fill="#26aab7"/>
            <rect id="Rectángulo_301396" data-name="Rectángulo 301396" width="2.842" height="2.842" transform="translate(154.769 67.753)" fill="none" stroke="#263238" stroke-linecap="round" stroke-linejoin="round" stroke-width="1"/>
            <rect id="Rectángulo_301397" data-name="Rectángulo 301397" width="2.842" height="2.842" transform="translate(80.548 117.234)" fill="#26aab7"/>
            <rect id="Rectángulo_301398" data-name="Rectángulo 301398" width="2.842" height="2.842" transform="translate(80.548 117.234)" fill="none" stroke="#263238" stroke-linecap="round" stroke-linejoin="round" stroke-width="1"/>
            <rect id="Rectángulo_301399" data-name="Rectángulo 301399" width="2.842" height="2.842" transform="translate(80.548 67.753)" fill="#26aab7"/>
            <rect id="Rectángulo_301400" data-name="Rectángulo 301400" width="2.842" height="2.842" transform="translate(80.548 67.753)" fill="none" stroke="#263238" stroke-linecap="round" stroke-linejoin="round" stroke-width="1"/>
            <rect id="Rectángulo_301401" data-name="Rectángulo 301401" width="64.597" height="41.044" transform="translate(86.893 73.549)" fill="#fff"/>
            <rect id="Rectángulo_301402" data-name="Rectángulo 301402" width="64.597" height="41.044" transform="translate(86.893 73.549)" fill="none" stroke="#263238" stroke-linecap="round" stroke-linejoin="round" stroke-width="1"/>
            <path id="Trazado_607914" data-name="Trazado 607914" d="M169.962,120.618l-7.181,7.181-19.427-19.428-8.173,8.174-13.035-13.034-16.781,16.78v12.45h64.6Z" transform="translate(-18.472 -18.147)" fill="#dee4f0"/>
            <path id="Trazado_607915" data-name="Trazado 607915" d="M169.962,120.618l-7.181,7.181-19.427-19.428-8.173,8.174-13.035-13.034-16.781,16.78v12.45h64.6Z" transform="translate(-18.472 -18.147)" fill="none" stroke="#263238" stroke-linecap="round" stroke-linejoin="round" stroke-width="1"/>
            <path id="Trazado_607916" data-name="Trazado 607916" d="M171.058,102.342a4.561,4.561,0,1,1-4.561-4.561,4.561,4.561,0,0,1,4.561,4.561" transform="translate(-28.39 -17.143)" fill="#dee4f0"/>
            <path id="Trazado_607917" data-name="Trazado 607917" d="M171.058,102.342a4.561,4.561,0,1,1-4.561-4.561A4.561,4.561,0,0,1,171.058,102.342Z" transform="translate(-28.39 -17.143)" fill="none" stroke="#263238" stroke-linecap="round" stroke-linejoin="round" stroke-width="1"/>
            <path id="Trazado_607918" data-name="Trazado 607918" d="M292.3,214.477s-4.9,9.212-5.528,23.307" transform="translate(-50.276 -37.601)" fill="none" stroke="#fff" stroke-linecap="round" stroke-linejoin="round" stroke-width="1"/>
            <path id="Trazado_607919" data-name="Trazado 607919" d="M275.871,222.218s1.476,7.833,5.8,13.511" transform="translate(-48.365 -38.958)" fill="none" stroke="#fff" stroke-linecap="round" stroke-linejoin="round" stroke-width="1"/>
            <path id="Trazado_607920" data-name="Trazado 607920" d="M300.534,261.414s7.409,24.376,23.55,31.556" transform="translate(-52.689 -45.83)" fill="none" stroke="#fff" stroke-linecap="round" stroke-linejoin="round" stroke-width="1"/>
            <path id="Trazado_607921" data-name="Trazado 607921" d="M322.47,207.9s-.7,5.319-5.814,5.69a22.654,22.654,0,0,0-2.268-3.8,71.4,71.4,0,0,1,8.082-1.889" transform="translate(-55.117 -36.449)" fill="#263238"/>
            <path id="Trazado_607922" data-name="Trazado 607922" d="M331.441,200.772s8.552,1.045,12.132-10.434.767-20.131-13.389-24.3c-7.849-2.31-15.7-.451-18.525,5.488-2.425,5.092-1.279,9.323-1.838,11.031-.625,1.909-6.411,3.534-6.411,4.846,0,1.086,3.206,2.932,3.206,2.932l-.943,2.851.888.471s-1.643,6.427-.888,8.689c.552,1.654,15.036,2.341,16.168-1.76" transform="translate(-53.193 -28.941)" fill="#fff"/>
            <path id="Trazado_607923" data-name="Trazado 607923" d="M331.441,200.772s8.552,1.045,12.132-10.434.767-20.131-13.389-24.3c-7.849-2.31-15.7-.451-18.525,5.488-2.425,5.092-1.279,9.323-1.838,11.031-.625,1.909-6.411,3.534-6.411,4.846,0,1.086,3.206,2.932,3.206,2.932l-.943,2.851.888.471s-1.643,6.427-.888,8.689c.552,1.654,15.036,2.341,16.168-1.76" transform="translate(-53.193 -28.941)" fill="none" stroke="#263238" stroke-linecap="round" stroke-linejoin="round" stroke-width="1"/>
            <path id="Trazado_607924" data-name="Trazado 607924" d="M313.5,177.959s2.828.707,3.606,2.192" transform="translate(-54.962 -31.199)" fill="none" stroke="#263238" stroke-linecap="round" stroke-linejoin="round" stroke-width="1"/>
            <path id="Trazado_607925" data-name="Trazado 607925" d="M314.1,185.56c-.122.83.069,1.546.426,1.6s.746-.579.868-1.409-.069-1.546-.426-1.6-.746.579-.868,1.409" transform="translate(-55.06 -32.284)" fill="#263238"/>
            <path id="Trazado_607926" data-name="Trazado 607926" d="M307.231,199.736s4.6,1.767,6.318.7" transform="translate(-53.863 -35.017)" fill="none" stroke="#263238" stroke-linecap="round" stroke-linejoin="round" stroke-width="1"/>
            <path id="Trazado_607927" data-name="Trazado 607927" d="M309.167,184.416c-.342,1.843.07,3.464.921,3.623s1.818-1.207,2.161-3.051-.07-3.465-.921-3.623S309.51,182.573,309.167,184.416Z" transform="translate(-54.181 -31.794)" fill="none" stroke="#263238" stroke-linecap="round" stroke-linejoin="round" stroke-width="1"/>
            <path id="Trazado_607928" data-name="Trazado 607928" d="M345.162,170.955a13.609,13.609,0,0,0-5.374-8.3,25.16,25.16,0,0,0-10.37-4.242s2.735,1.193,3.771,2.765c0,0-7.07-5.31-15.461-1.823s-7.353,12.554-7.353,12.554l1.225-2.373s-.141,2.829,1.343,3.865a18.608,18.608,0,0,1,1.8-3.959s2.227,6.693,8.355,8.956a4.852,4.852,0,0,1-.094-3.3s3.392,7.353,2.4,10.935l1.085,1.886s3.9-3.953,7.07-.661c1.822,1.892-3.488,9.051-4.242,9.051l3.206,4.713s8.013,1.142,12.633-7.536,3.488-12.391,3.488-12.391a11.439,11.439,0,0,1,1.7,3.335s1.32-9.333-5.185-13.481" transform="translate(-54.407 -27.73)" fill="#12263f"/>
            <path id="Trazado_607929" data-name="Trazado 607929" d="M329.7,194s2.459-8.318,7.735-5.384,1.5,7.364-.381,9.061-3.3,4.808-4.525,4.808-1.509-1.508-1.509-1.508" transform="translate(-57.802 -32.958)" fill="#fff"/>
            <path id="Trazado_607930" data-name="Trazado 607930" d="M329.7,194s2.459-8.318,7.735-5.384,1.5,7.364-.381,9.061-3.3,4.808-4.525,4.808-1.509-1.508-1.509-1.508" transform="translate(-57.802 -32.958)" fill="none" stroke="#263238" stroke-linecap="round" stroke-linejoin="round" stroke-width="1"/>
            <line id="Línea_2248" data-name="Línea 2248" x2="14.681" y2="3.048" transform="translate(258.068 153.194)" fill="none" stroke="#263238" stroke-linecap="round" stroke-linejoin="round" stroke-width="1"/>
          </g>
        </g>
      </g>
    </g>
    <g id="Grupo_890380" data-name="Grupo 890380" transform="translate(408.919 1010.212)">
      <g id="Grupo_54809" data-name="Grupo 54809">
        <g id="Grupo_54800" data-name="Grupo 54800">
          <g id="Grupo_54799" data-name="Grupo 54799">
            <g id="Grupo_54796" data-name="Grupo 54796" transform="translate(0.119 0.119)">
              <rect id="Rectángulo_29439" data-name="Rectángulo 29439" width="57.627" height="40.131" fill="#fff"/>
            </g>
            <g id="Grupo_54798" data-name="Grupo 54798">
              <g id="Grupo_54797" data-name="Grupo 54797">
                <path id="Trazado_117069" data-name="Trazado 117069" d="M161.531,122.317s-.007-.252-.011-.733-.006-1.2-.011-2.124c-.005-1.863-.014-4.593-.025-8.085-.012-6.98-.029-17-.05-29.189l.1.1-57.622.023h0l.119-.119c0,14.343-.007,27.964-.011,40.131l-.109-.109,41.538.054,11.847.029,3.149.013.813.006c.183,0,.279.006.279.006s-.088,0-.267.006l-.8.006-3.128.013-11.822.029-41.609.054H103.8v-.109c0-12.167-.007-25.788-.011-40.131v-.12h.124l57.622.023h.1v.1c-.021,12.214-.038,22.255-.05,29.249-.011,3.483-.019,6.206-.024,8.064-.005.92-.009,1.625-.011,2.105S161.531,122.317,161.531,122.317Z" transform="translate(-103.785 -82.066)" fill="#263238"/>
              </g>
            </g>
          </g>
        </g>
        <g id="Grupo_54802" data-name="Grupo 54802" transform="translate(0.119 0.119)">
          <g id="Grupo_54801" data-name="Grupo 54801">
            <rect id="Rectángulo_29440" data-name="Rectángulo 29440" width="57.627" height="5.015" fill="#263238"/>
          </g>
        </g>
        <g id="Grupo_54804" data-name="Grupo 54804" transform="translate(2.045 2.142)">
          <g id="Grupo_54803" data-name="Grupo 54803">
            <path id="Trazado_117070" data-name="Trazado 117070" d="M109.454,87.37a.6.6,0,1,1-.6-.628A.615.615,0,0,1,109.454,87.37Z" transform="translate(-108.251 -86.742)" fill="#fff"/>
          </g>
        </g>
        <g id="Grupo_54806" data-name="Grupo 54806" transform="translate(4.484 2.142)">
          <g id="Grupo_54805" data-name="Grupo 54805">
            <path id="Trazado_117071" data-name="Trazado 117071" d="M114.778,87.37a.6.6,0,1,1-.6-.628A.615.615,0,0,1,114.778,87.37Z" transform="translate(-113.576 -86.742)" fill="#fff"/>
          </g>
        </g>
        <g id="Grupo_54808" data-name="Grupo 54808" transform="translate(6.923 2.142)">
          <g id="Grupo_54807" data-name="Grupo 54807">
            <path id="Trazado_117072" data-name="Trazado 117072" d="M120.1,87.37a.6.6,0,1,1-.6-.628A.615.615,0,0,1,120.1,87.37Z" transform="translate(-118.9 -86.742)" fill="#fff"/>
          </g>
        </g>
      </g>
      <g id="Grupo_54810" data-name="Grupo 54810" transform="translate(5.598 10.049)">
        <rect id="Rectángulo_29441" data-name="Rectángulo 29441" width="8.213" height="19.703" fill="#fb8c00"/>
      </g>
      <g id="Grupo_54811" data-name="Grupo 54811" transform="translate(18.263 10.049)">
        <rect id="Rectángulo_29442" data-name="Rectángulo 29442" width="8.213" height="19.703" fill="#ebebeb"/>
      </g>
      <g id="Grupo_54812" data-name="Grupo 54812" transform="translate(30.927 10.049)">
        <rect id="Rectángulo_29443" data-name="Rectángulo 29443" width="8.213" height="19.703" fill="#fafafa"/>
      </g>
      <g id="Grupo_54813" data-name="Grupo 54813" transform="translate(43.591 10.204)">
        <rect id="Rectángulo_29444" data-name="Rectángulo 29444" width="8.213" height="19.703" fill="#e0e0e0"/>
      </g>
      <g id="Grupo_54814" data-name="Grupo 54814" transform="translate(4.647 31.928)">
        <rect id="Rectángulo_29445" data-name="Rectángulo 29445" width="49.779" height="4.502" fill="#26aab7"/>
      </g>
      <g id="Grupo_54815" data-name="Grupo 54815" transform="translate(50.639 35.507)">
        <path id="Trazado_117073" data-name="Trazado 117073" d="M214.348,159.589l1.071,5.421.881-1.513,1.891,2.7.946-.608-1.892-2.7,1.737-.255Z" transform="translate(-214.348 -159.589)" fill="#263238"/>
      </g>
    </g>
    <g id="Grupo_890381" data-name="Grupo 890381" transform="translate(194.759 951.354)">
      <g id="Grupo_54820" data-name="Grupo 54820">
        <g id="Grupo_54817" data-name="Grupo 54817" transform="translate(0.179 0.179)">
          <rect id="Rectángulo_29446" data-name="Rectángulo 29446" width="38.187" height="65.498" fill="#fafafa"/>
        </g>
        <g id="Grupo_54819" data-name="Grupo 54819">
          <g id="Grupo_54818" data-name="Grupo 54818">
            <path id="Trazado_117074" data-name="Trazado 117074" d="M164.371,245.778s-.007-.112-.01-.323-.006-.53-.01-.935c0-.831-.012-2.042-.021-3.611-.01-3.156-.026-7.745-.045-13.533-.02-11.57-.048-27.923-.081-47.095l.167.167-38.182.012h0l.18-.179c-.016,24.985-.03,47.9-.041,65.5l-.139-.139,27.84.074,7.649.035,2,.015c.453,0,.694.014.694.014s-.221.01-.665.015l-1.978.015-7.618.035-27.925.074h-.139v-.139c-.011-17.6-.026-40.513-.041-65.5V180.1h.184l38.182.012h.167v.167c-.033,19.218-.061,35.608-.081,47.205-.019,5.772-.034,10.349-.046,13.5-.008,1.556-.015,2.755-.02,3.577,0,.4-.008.7-.01.916S164.371,245.778,164.371,245.778Z" transform="translate(-126.005 -180.101)" fill="#222221"/>
          </g>
        </g>
      </g>
      <g id="Grupo_54821" data-name="Grupo 54821" transform="translate(0.179 0.179)">
        <rect id="Rectángulo_29447" data-name="Rectángulo 29447" width="38.187" height="5.519" fill="#263238"/>
      </g>
      <g id="Grupo_54837" data-name="Grupo 54837" transform="translate(4.363 12.585)">
        <g id="Grupo_54822" data-name="Grupo 54822" transform="translate(4.993 0.001)">
          <path id="Trazado_117075" data-name="Trazado 117075" d="M139.574,198.354l.462,6.115,1.709-2.23,2.855-.119Z" transform="translate(-139.574 -198.354)" fill="#263238"/>
        </g>
        <g id="Grupo_54824" data-name="Grupo 54824" transform="translate(21.494)">
          <g id="Grupo_54823" data-name="Grupo 54823">
            <path id="Trazado_117076" data-name="Trazado 117076" d="M163.507,198.354c-.006-.01.121.078.361.25l1.044.75c.9.645,2.2,1.577,3.683,2.685l.231.172-.288.012-2.756.12-.1,0,.081-.042-1.713,2.226-.163.212-.019-.266c-.131-1.811-.217-3.368-.276-4.446-.026-.479-.049-.893-.068-1.251-.015-.287-.022-.436-.017-.426s.023.18.053.483c.035.367.075.791.123,1.283.1,1.088.25,2.589.388,4.343l-.183-.054,1.7-2.233.03-.04.05,0,.1,0,2.757-.11-.057.185c-1.435-1.082-2.651-2.034-3.535-2.724l-1.042-.813C163.65,198.473,163.513,198.364,163.507,198.354Z" transform="translate(-163.505 -198.353)" fill="#263238"/>
          </g>
        </g>
        <g id="Grupo_54826" data-name="Grupo 54826" transform="translate(3.882 17.707)">
          <g id="Grupo_54825" data-name="Grupo 54825">
            <path id="Trazado_117077" data-name="Trazado 117077" d="M137.964,232.934c-.043-.041,1.859-2.068,4.247-4.525s4.36-4.417,4.4-4.376-1.858,2.067-4.247,4.526S138.006,232.975,137.964,232.934Z" transform="translate(-137.963 -224.032)" fill="#263238"/>
          </g>
        </g>
        <g id="Grupo_54828" data-name="Grupo 54828" transform="translate(19.221 16.317)">
          <g id="Grupo_54827" data-name="Grupo 54827">
            <path id="Trazado_117078" data-name="Trazado 117078" d="M171.381,227.8a10.843,10.843,0,0,0-.21-1.362,5.7,5.7,0,0,0-1.992-3.08,5.409,5.409,0,0,0-2.312-1.06,5.335,5.335,0,0,0-2.892.257,5.4,5.4,0,0,0-2.518,1.971,5.7,5.7,0,0,0,0,6.546,5.4,5.4,0,0,0,2.518,1.971,5.328,5.328,0,0,0,2.892.257,5.389,5.389,0,0,0,2.312-1.06,5.7,5.7,0,0,0,1.993-3.08,10.9,10.9,0,0,0,.209-1.362,4.677,4.677,0,0,1-.128,1.381,5.686,5.686,0,0,1-1.979,3.18,5.516,5.516,0,0,1-7.99-1.167,5.891,5.891,0,0,1,0-6.789,5.576,5.576,0,0,1,2.62-2.036,5.456,5.456,0,0,1,5.369.869,5.688,5.688,0,0,1,1.98,3.18A4.677,4.677,0,0,1,171.381,227.8Z" transform="translate(-160.209 -222.017)" fill="#263238"/>
          </g>
        </g>
        <g id="Grupo_54830" data-name="Grupo 54830" transform="translate(18.698 36.642)">
          <g id="Grupo_54829" data-name="Grupo 54829">
            <path id="Trazado_117079" data-name="Trazado 117079" d="M166.2,251.5a.7.7,0,0,1,.137.1l.4.33,1.5,1.291.049.041-.043.05-6.413,7.371-.026.03-.039.006-.772.117-1.391.21-.151.023.03-.149c.174-.877.342-1.724.5-2.526l.006-.027.017-.02c1.738-2.045,3.255-3.788,4.355-5A11.469,11.469,0,0,1,166.2,251.5a1.22,1.22,0,0,1-.128.123c-.078.083-.2.2-.35.37-.3.327-.73.818-1.267,1.436-1.072,1.238-2.567,3-4.294,5.05l.022-.046-.492,2.528-.121-.127,1.39-.211.772-.117-.064.035,6.477-7.315.005.091-1.438-1.321-.383-.361A1.031,1.031,0,0,1,166.2,251.5Z" transform="translate(-159.45 -251.494)" fill="#263238"/>
          </g>
        </g>
        <g id="Grupo_54832" data-name="Grupo 54832" transform="translate(2.394 36.257)">
          <g id="Grupo_54831" data-name="Grupo 54831">
            <path id="Trazado_117080" data-name="Trazado 117080" d="M144.89,260.257a1.326,1.326,0,0,1-.01-.18l-.011-.5q-.009-.724-.025-1.884c-.012-1.659-.028-3.937-.048-6.647l.094.094-8.953.014c-.025.023.2-.2.107-.106V252.3q0,.623,0,1.233,0,1.22,0,2.383c0,1.544-.008,3-.011,4.341l-.092-.092,6.463.048,1.829.024.488.011a1.254,1.254,0,0,1,.174.01.79.79,0,0,1-.154.01l-.47.01-1.807.024-6.522.048h-.092v-.094c0-1.34-.007-2.8-.011-4.341q0-1.162,0-2.383,0-.61,0-1.233v-1.254c-.1.1.13-.133.108-.109l8.953.014h.094v.094c-.019,2.735-.036,5.033-.048,6.707q-.016,1.147-.025,1.862l-.011.485A.85.85,0,0,1,144.89,260.257Z" transform="translate(-135.805 -250.934)" fill="#263238"/>
          </g>
        </g>
        <g id="Grupo_54834" data-name="Grupo 54834" transform="translate(0 36.258)">
          <g id="Grupo_54833" data-name="Grupo 54833">
            <path id="Trazado_117081" data-name="Trazado 117081" d="M136.216,251.045a17.572,17.572,0,0,1-3.883,0,17.572,17.572,0,0,1,3.883,0Z" transform="translate(-132.333 -250.937)" fill="#263238"/>
          </g>
        </g>
        <g id="Grupo_54836" data-name="Grupo 54836" transform="translate(2.418 33.767)">
          <g id="Grupo_54835" data-name="Grupo 54835">
            <path id="Trazado_117082" data-name="Trazado 117082" d="M135.948,251.694a22.25,22.25,0,0,1,0-4.37,22.25,22.25,0,0,1,0,4.37Z" transform="translate(-135.84 -247.324)" fill="#263238"/>
          </g>
        </g>
      </g>
    </g>
    <g id="Grupo_890379" data-name="Grupo 890379" transform="translate(314.712 1132.923)">
      <g id="Grupo_54742" data-name="Grupo 54742">
        <g id="Grupo_54739" data-name="Grupo 54739" transform="translate(0.18 0.179)">
          <rect id="Rectángulo_29415" data-name="Rectángulo 29415" width="64.56" height="25.098" fill="#fafafa"/>
        </g>
        <g id="Grupo_54741" data-name="Grupo 54741">
          <g id="Grupo_54740" data-name="Grupo 54740">
            <path id="Trazado_117062" data-name="Trazado 117062" d="M411.116,175.126s-.009-.157-.013-.452-.008-.738-.013-1.3c-.007-1.151-.017-2.828-.031-4.988-.016-4.329-.039-10.587-.068-18.357l.125.124-64.556.055h0l.179-.179c0,8.775,0,17.255-.007,25.1l-.172-.172,46.242.081,13.449.048,3.607.022.936.011c.212,0,.325.01.325.01s-.1.008-.3.011l-.916.01-3.571.022-13.41.048-46.359.081h-.172v-.173c0-7.843,0-16.323-.008-25.1v-.179h.184l64.556.055h.125v.124c-.028,7.8-.052,14.085-.068,18.432-.013,2.149-.023,3.815-.03,4.96-.006.554-.01.98-.014,1.28S411.116,175.126,411.116,175.126Z" transform="translate(-346.376 -149.849)" fill="#263238"/>
          </g>
        </g>
      </g>
      <g id="Grupo_54743" data-name="Grupo 54743" transform="translate(0.18 0.179)">
        <rect id="Rectángulo_29416" data-name="Rectángulo 29416" width="64.56" height="5.378" fill="#263238"/>
      </g>
      <g id="Grupo_54744" data-name="Grupo 54744" transform="translate(7.852 9.658)">
        <rect id="Rectángulo_29417" data-name="Rectángulo 29417" width="6.34" height="6.34" fill="#263238"/>
      </g>
      <g id="Grupo_54745" data-name="Grupo 54745" transform="translate(11.692 13.498)">
        <rect id="Rectángulo_29418" data-name="Rectángulo 29418" width="6.34" height="6.34" fill="#263238"/>
      </g>
      <g id="Grupo_54746" data-name="Grupo 54746" transform="translate(22.964 9.658)">
        <rect id="Rectángulo_29419" data-name="Rectángulo 29419" width="6.34" height="6.34" fill="#263238"/>
      </g>
      <g id="Grupo_54750" data-name="Grupo 54750" transform="translate(26.585 13.315)">
        <g id="Grupo_54747" data-name="Grupo 54747" transform="translate(0.219 0.183)">
          <rect id="Rectángulo_29420" data-name="Rectángulo 29420" width="6.34" height="6.34" fill="#f5f5f5"/>
        </g>
        <g id="Grupo_54749" data-name="Grupo 54749">
          <g id="Grupo_54748" data-name="Grupo 54748">
            <path id="Trazado_117063" data-name="Trazado 117063" d="M391.491,175.683a3.059,3.059,0,0,1-.036-.488c-.011-.357-.024-.789-.041-1.305-.029-1.115-.063-2.68-.079-4.547l.155.155-6.34.024.179-.179v1.71q0,.838,0,1.638c-.006,1.061-.012,2.063-.018,2.991l-.155-.155c1.867.015,3.432.05,4.547.079l1.305.041a3.037,3.037,0,0,1,.488.036,1.82,1.82,0,0,1-.424.035l-1.27.041c-1.1.029-2.71.064-4.646.079H385v-.157c-.006-.928-.012-1.931-.018-2.991q0-.8,0-1.638v-1.71c-.161.16.218-.219.18-.181l6.34.025h.157v.155c-.015,1.936-.05,3.541-.079,4.645-.016.5-.029.923-.041,1.271A1.813,1.813,0,0,1,391.491,175.683Z" transform="translate(-384.931 -169.16)" fill="#263238"/>
          </g>
        </g>
      </g>
      <g id="Grupo_54760" data-name="Grupo 54760" transform="translate(36.846 9.476)">
        <g id="Grupo_54754" data-name="Grupo 54754">
          <g id="Grupo_54751" data-name="Grupo 54751" transform="translate(0.219 0.182)">
            <rect id="Rectángulo_29421" data-name="Rectángulo 29421" width="6.34" height="6.34" fill="#f5f5f5"/>
          </g>
          <g id="Grupo_54753" data-name="Grupo 54753">
            <g id="Grupo_54752" data-name="Grupo 54752">
              <path id="Trazado_117064" data-name="Trazado 117064" d="M406.372,170.114a3.036,3.036,0,0,1-.036-.488c-.011-.357-.024-.789-.041-1.305-.029-1.115-.063-2.68-.079-4.547l.155.155-6.34.025c-.04.039.339-.34.179-.179h0v.861c0,.285,0,.567,0,.847,0,.559,0,1.106,0,1.639-.006,1.06-.012,2.063-.018,2.99l-.155-.155c1.867.015,3.432.05,4.547.079l1.305.04a3.059,3.059,0,0,1,.488.036,1.819,1.819,0,0,1-.424.035l-1.27.041c-1.1.029-2.71.064-4.646.079h-.154v-.157c-.005-.927-.012-1.931-.018-2.99,0-.533,0-1.081,0-1.639v-1.708h0c-.161.16.218-.22.18-.181l6.34.024h.156v.154c-.015,1.936-.05,3.541-.079,4.646-.016.5-.03.923-.041,1.27A1.821,1.821,0,0,1,406.372,170.114Z" transform="translate(-399.812 -163.592)" fill="#263238"/>
            </g>
          </g>
        </g>
        <g id="Grupo_54758" data-name="Grupo 54758" transform="translate(3.84 3.839)">
          <g id="Grupo_54755" data-name="Grupo 54755" transform="translate(0.219 0.183)">
            <rect id="Rectángulo_29422" data-name="Rectángulo 29422" width="6.34" height="6.34" fill="#f5f5f5"/>
          </g>
          <g id="Grupo_54757" data-name="Grupo 54757">
            <g id="Grupo_54756" data-name="Grupo 54756">
              <path id="Trazado_117065" data-name="Trazado 117065" d="M411.94,175.683a3.062,3.062,0,0,1-.036-.488c-.011-.357-.025-.789-.041-1.305-.029-1.115-.064-2.68-.079-4.547l.155.155-6.339.024.179-.179v.862c0,.285,0,.568,0,.848q0,.838,0,1.638c-.006,1.061-.012,2.063-.018,2.991l-.155-.155c1.867.015,3.432.05,4.547.079l1.305.041a3.048,3.048,0,0,1,.488.036,1.82,1.82,0,0,1-.424.035l-1.271.041c-1.1.029-2.71.064-4.645.079h-.154v-.157c-.006-.928-.011-1.931-.018-2.991q0-.8,0-1.638v-1.71l.181-.181,6.339.025h.156v.155c-.015,1.936-.05,3.541-.079,4.645-.016.5-.03.923-.041,1.271A1.815,1.815,0,0,1,411.94,175.683Z" transform="translate(-405.381 -169.16)" fill="#263238"/>
            </g>
          </g>
        </g>
        <g id="Grupo_54759" data-name="Grupo 54759" transform="translate(4.059 4.022)">
          <rect id="Rectángulo_29423" data-name="Rectángulo 29423" width="2.5" height="2.5" fill="#263238"/>
        </g>
      </g>
      <g id="Grupo_54764" data-name="Grupo 54764" transform="translate(50.028 9.658)">
        <g id="Grupo_54761" data-name="Grupo 54761">
          <rect id="Rectángulo_29424" data-name="Rectángulo 29424" width="6.34" height="6.34" fill="#263238"/>
        </g>
        <g id="Grupo_54762" data-name="Grupo 54762" transform="translate(3.84 3.84)">
          <rect id="Rectángulo_29425" data-name="Rectángulo 29425" width="6.34" height="6.34" fill="#263238"/>
        </g>
        <g id="Grupo_54763" data-name="Grupo 54763" transform="translate(3.84 3.84)">
          <rect id="Rectángulo_29426" data-name="Rectángulo 29426" width="2.5" height="2.5" fill="#fafafa"/>
        </g>
      </g>
    </g>
  </g>
</svg>
