<svg id="Grupo_890929" data-name="Grupo 890929" xmlns="http://www.w3.org/2000/svg" xmlns:xlink="http://www.w3.org/1999/xlink" width="145.716" height="191.177" viewBox="0 0 145.716 191.177">
  <defs>
    <clipPath id="clip-path">
      <rect id="Rectángulo_302224" data-name="Rectángulo 302224" width="145.716" height="191.177" fill="#12263f"/>
    </clipPath>
  </defs>
  <g id="Grupo_890929-2" data-name="Grupo 890929" clip-path="url(#clip-path)">
    <path id="Trazado_609574" data-name="Trazado 609574" d="M72.79,191.164q-23.982-.006-47.964-.01c-10.008-.015-15.443-5.417-15.523-15.365-.019-2.331-.014-4.663,0-6.995.029-4.536.91-9.068-5.127-11.325C1.063,156.3.016,152.461.013,148.93Q-.007,126.2.03,103.465c.013-4.375,2.008-7.991,5.946-9.627,3.258-1.353,3.373-3.4,3.364-6.22Q9.232,54.644,9.3,21.668C9.31,7.6,16.818.059,30.826.052,49.978.043,69.13.116,88.282,0a8.309,8.309,0,0,1,6.555,2.686q19.317,19.534,38.85,38.856a8.316,8.316,0,0,1,2.673,6.585c-.143,13.156,0,26.314-.124,39.469-.027,2.915.377,4.893,3.47,6.237,4.208,1.83,5.943,5.679,5.959,10.174q.081,22.233.02,44.465c-.017,4.9-2.086,8.77-6.726,10.741-2.263.961-2.783,2.4-2.71,4.639.136,4.159.1,8.327.024,12.489-.176,9.424-5.615,14.8-15.02,14.819q-24.231.048-48.463,0M72.8,92.336V92.3c18.163,0,36.327-.087,54.488.078,3.342.031,4.181-.959,4.132-4.2-.185-11.994-.225-24,.019-35.99.075-3.672-1.165-4.375-4.535-4.315-10.994.195-22-.12-32.99.127-4.483.1-5.714-1.516-5.613-5.834.259-10.991-.071-22,.147-32.989.066-3.346-.895-4.228-4.174-4.2-18,.148-35.993.043-53.989.085C19.8,5.086,14.316,10.6,14.3,21.121c-.029,22,.1,43.993-.106,65.986-.037,4.041.845,5.388,5.113,5.33,17.827-.24,35.658-.1,53.488-.1m.245,67.9c-17.982,0-35.966.137-53.945-.1-4.117-.054-5.183,1.279-4.88,5.1s-.037,7.657.1,11.482c.208,5.98,3.488,9.4,9.355,9.41q49.2.1,98.4.011c5.608-.011,8.95-3.362,9.23-9.017.205-4.153-.167-8.338.119-12.481.24-3.491-.92-4.512-4.433-4.479-17.98.168-35.963.077-53.945.081M93.27,9.791c0,10.109.124,19.773-.07,29.43-.065,3.268,1.267,3.873,4.132,3.8,6.661-.162,13.328-.051,19.993-.051h8.932L93.27,9.791M38.807,121.079l.894.007c1.278,4.605,2.545,9.214,3.842,13.814.484,1.714.641,3.582,3.317,3.459,2.306-.1,2.611-1.686,3.1-3.243,1.523-4.836,3-9.684,4.5-14.527a74.846,74.846,0,0,1,.907,14.436c-.01,1.774,0,3.328,2.487,3.353,2.6.025,2.384-1.681,2.382-3.362,0-6.157.113-12.318-.089-18.469-.057-1.75,1.581-4.564-2.188-4.968-3.251-.348-5.222.355-6.105,4-1.125,4.65-2.989,9.122-4.892,14.722-1.87-6.28-3.523-11.169-4.746-16.162-.872-3.563-3.484-2.317-5.574-2.488-2.823-.231-2.556,1.8-2.545,3.689.036,6.324-.041,12.648.044,18.97.022,1.6-.92,3.95,2.181,3.992,3.4.047,2.423-2.477,2.456-4.274.08-4.316.026-8.635.026-12.953m49.265,4.1c.039-8.519-4.517-13.986-11.592-13.908-7.128.079-11.771,5.589-11.722,13.912.047,8.252,4.418,13.472,11.4,13.617,7.162.149,11.878-5.241,11.916-13.621m13.6,6-.958-.089c-1.71-5.671-3.49-11.323-5.1-17.024-.666-2.363-2.285-2.706-4.2-2.313-2.581.53-1.11,2.276-.735,3.475,2.083,6.641,4.314,13.235,6.373,19.883.66,2.131,1.494,3.335,4.083,3.291s3.326-1.306,4-3.427c2-6.321,4.285-12.556,6.288-18.877.45-1.419,2.632-3.481-.374-4.464-2.326-.76-3.535.656-4.2,2.976-1.6,5.561-3.438,11.051-5.181,16.569" fill="#12263f"/>
    <path id="Trazado_609581" data-name="Trazado 609581" d="M83.3,125.144c-.454,1.92-.767,3.888-1.4,5.748a5.272,5.272,0,0,1-4.864,3.665,5.376,5.376,0,0,1-5.446-2.766,13.964,13.964,0,0,1-.253-13.346,5.373,5.373,0,0,1,5.318-3.028,5.61,5.61,0,0,1,5.089,3.4,17.1,17.1,0,0,1,1.552,6.326" fill="#12263f"/>
  </g>
</svg>
