<svg id="Grupo_890928" data-name="Grupo 890928" xmlns="http://www.w3.org/2000/svg" xmlns:xlink="http://www.w3.org/1999/xlink" width="145.464" height="191.36" viewBox="0 0 145.464 191.36">
  <defs>
    <clipPath id="clip-path">
      <rect id="Rectángulo_302223" data-name="Rectángulo 302223" width="145.464" height="191.36" fill="#12263f"/>
    </clipPath>
  </defs>
  <g id="Grupo_890928-2" data-name="Grupo 890928" clip-path="url(#clip-path)">
    <path id="Trazado_609563" data-name="Trazado 609563" d="M72.959,191.347c-15.824,0-31.647.038-47.471-.013-11.019-.035-16.177-5.266-16.2-16.246,0-2.166-.033-4.332.01-6.5.087-4.4.866-8.678-4.953-10.877C1.028,156.46,0,152.5,0,148.76q.035-22.486.015-44.972c0-4.8,2.129-8.5,6.526-10.28,2.663-1.077,2.782-2.694,2.777-4.992Q9.243,54.787,9.3,21.058C9.309,8.018,16.439.315,29.421.14,49.071-.124,68.728.08,88.381.011a8.022,8.022,0,0,1,6.14,2.65q19.522,19.693,39.223,39.209a8.4,8.4,0,0,1,2.551,6.639c-.078,13.158-.009,26.317-.073,39.475-.013,2.608.043,4.6,3.171,5.806,4.043,1.562,6.019,5.122,6.032,9.508q.069,22.986.022,45.971c-.007,4.385-1.983,7.937-5.953,9.606-2.956,1.242-3.391,3.037-3.282,5.743.153,3.825.092,7.662.029,11.492-.159,9.639-5.621,15.146-15.312,15.2-15.99.084-31.98.022-47.97.022Zm-.028-98.97V92.4c18.141,0,36.282-.065,54.422.064,3.016.022,4.033-.739,3.988-3.885q-.261-18.221,0-36.446c.048-3.271-.908-4.309-4.2-4.257-11.315.176-22.635-.029-33.95.126-3.679.051-4.963-1.246-4.905-4.951.177-11.314-.067-22.635.13-33.949.058-3.289-.832-4.267-4.169-4.239-18.14.15-36.282,0-54.422.082-9.794.044-15.51,5.786-15.536,15.542-.061,22.468.079,44.938-.12,67.4-.034,3.925,1.265,4.6,4.842,4.566,17.973-.181,35.948-.083,53.922-.083m-.052,67.913v.031c-14.656,0-29.312-.081-43.967.046-4.752.042-11.03-2.11-13.851.969-2.776,3.03-.729,9.216-.764,14.012-.056,7.76,3.166,10.957,10.872,11,9.327.051,18.653.014,27.979.014q33.475,0,66.95-.007c8.025-.011,11.119-3.173,11.173-11.244a96.576,96.576,0,0,1,.075-9.984c.458-4.109-1.226-4.95-5.009-4.913-17.818.175-35.638.078-53.458.078M126.2,43.037,93.323,10.072c0,10.175.009,20.415-.011,30.654,0,1.347.377,2.3,1.892,2.3,10.391.013,20.782.007,30.994.007M49.072,125.29h.02c0-3.657-.039-7.314.017-10.97.028-1.848-.62-2.734-2.606-2.7-2.026.032-2.591,1.031-2.467,2.831.068.993-.127,2.018.038,2.987.756,4.455-1.512,5.03-5.362,5.089-4.12.064-5.835-1.135-5.126-5.273a5.048,5.048,0,0,0,0-1.493c-.229-1.738.962-4.292-2.545-4.113-3.357.172-2.331,2.649-2.366,4.406-.1,5.15-.27,10.32.068,15.45.155,2.362-2.108,6.62,2.322,6.726,4.677.111,2.458-4.318,2.363-6.52-.182-4.229,1.241-5.319,5.338-5.279,3.959.038,6,.864,5.306,5.205a35.466,35.466,0,0,0-.04,3.984c-.073,1.736.332,2.839,2.432,2.838,1.968,0,2.65-.844,2.621-2.7-.053-3.49-.015-6.98-.015-10.47m37.3-2.84c1.051-6.693,2.052-7.2,7.538-4.418,1.395.708,3.166,1.123,4.057-.173.763-1.11-.462-2.46-1.385-3.441-3.706-3.939-11.01-2.688-13.446,2.476a21.731,21.731,0,0,0-.781,16.511,7.162,7.162,0,0,0,6.621,5.216c3.729.294,7.116-.45,8.9-4.085s2.027-7.51-.7-10.828c-2.919-3.551-6.7-2.9-10.8-1.258m31.334-1.574a13.85,13.85,0,0,0-.033-2.917c-.464-1.853,1.491-4.622-1.763-5.427-3.018-.745-4.885.726-6.34,3.41-1.741,3.21-3.879,6.209-5.932,9.241-1.249,1.844-2.6,3.86-1.615,5.974,1.071,2.3,3.582.975,5.431,1.108,3.03.218,6.743-.891,5.887,4.462-.187,1.167.855,1.637,1.993,1.691,1.394.066,2.258-.464,2.322-1.931.086-1.938-.272-3.936,2.179-4.994.725-.313.9-2.265.119-2.642-4.124-2-1.361-5.664-2.248-7.975M67.451,134.4c2-4.555,5.994-6.135,8.552-9.087,2.282-2.632,2.968-5.492,1.6-8.764-1.253-2.993-3.688-4.106-6.731-4.267-3.556-.188-6.671.625-8.387,4.095-.6,1.207-1.993,2.871-.191,3.839,1.3.7,3.23.856,4.1-1.381,1.041-2.671,3.133-3.7,5.494-1.892,2.624,2.017,1.569,4.477-.309,6.461-1.362,1.44-3.053,2.564-4.534,3.9A17.338,17.338,0,0,0,61.7,134.99c-.649,2.09-.533,3.545,2.308,3.456,3.99-.125,7.987-.068,11.98-.013,1.575.022,2.5-.49,2.708-2.164.282-2.292-1.379-1.82-2.592-1.847-2.655-.059-5.311-.018-8.65-.018m-9.993,1.353c-.061-1.85.271-3.4-2.119-3.432-2.364-.029-2.747,1.22-2.7,3.125.041,1.584.1,2.97,2.241,3.089,2.451.135,2.678-1.336,2.576-2.782" fill="#12263f"/>
    <path id="Trazado_609572" data-name="Trazado 609572" d="M94.283,129.887c-.146,2.5-.941,4.922-3.735,5-3.415.1-4.215-2.6-4.279-5.492-.055-2.517,1.111-4.269,3.675-4.371,3.179-.127,4.2,2.065,4.339,4.863" fill="#12263f"/>
    <path id="Trazado_609573" data-name="Trazado 609573" d="M113.325,118.246c0,2.741.051,4.681-.017,6.618-.048,1.38.464,3.2-1.714,3.439-1.279.138-3.05.411-3.8-.265-1.506-1.352.424-2.6,1.039-3.707,1.069-1.924,1.79-4.162,4.494-6.085" fill="#12263f"/>
  </g>
</svg>
