<svg id="Grupo_890925" data-name="Grupo 890925" xmlns="http://www.w3.org/2000/svg" xmlns:xlink="http://www.w3.org/1999/xlink" width="148.555" height="195.416" viewBox="0 0 148.555 195.416">
  <defs>
    <clipPath id="clip-path">
      <rect id="Rectángulo_302222" data-name="Rectángulo 302222" width="148.555" height="195.416" fill="#12263f"/>
    </clipPath>
  </defs>
  <g id="Grupo_890924" data-name="Grupo 890924" clip-path="url(#clip-path)">
    <path id="Trazado_609552" data-name="Trazado 609552" d="M74.167,195.41q-23.98,0-47.96-.011c-11.474-.02-16.767-5.383-16.767-16.888,0-2.381-.107-4.767.022-7.141.235-4.311.437-8.107-4.906-10.175C1.11,159.86-.007,155.969,0,152.123q.044-23.214.017-46.428c0-4.525,1.979-8.2,6.035-9.823,3.377-1.354,3.422-3.494,3.416-6.317Q9.389,55.626,9.443,21.7c.011-13.875,8-21.74,21.9-21.7C50.73.058,70.117.115,89.5.038A9.188,9.188,0,0,1,96.724,2.9q19.526,19.782,39.3,39.319a9.621,9.621,0,0,1,3.149,7.6c-.157,13.433-.028,26.87-.082,40.3-.01,2.488.16,4.32,3.011,5.532,4.468,1.9,6.451,5.748,6.439,10.654q-.049,22.7.01,45.409c.009,4.872-1.92,8.782-6.374,10.705-2.828,1.221-3.175,2.983-3.089,5.526.119,3.567.04,7.142.029,10.713-.036,11.386-5.459,16.738-16.994,16.745q-23.98.015-47.959,0m.146-101.033c18.366,0,36.733-.075,55.1.069,3.344.026,4.79-.547,4.715-4.361-.244-12.409-.19-24.827-.028-37.239.041-3.163-.932-4.016-4.054-3.967-11.39.182-22.789-.112-34.175.155-4.512.105-5.934-1.431-5.839-5.862.244-11.388.034-22.786.138-34.178.025-2.6-.276-4.034-3.5-4.009-19.045.149-38.093-.052-57.136.174-9.5.113-14.973,6.071-14.99,15.633-.043,22.957.079,45.915-.108,68.87-.032,3.816.938,4.856,4.78,4.812,18.363-.207,36.731-.093,55.1-.1m-.052,69.391c-14.97,0-29.941-.029-44.911.017-4.732.014-11.043-1.575-13.785.824-3.189,2.792-.889,9.262-.981,14.126-.163,8.479,3.1,11.587,11.733,11.6q27.559.031,55.118.009c13.95,0,27.9.049,41.849-.026,7.188-.039,10.656-3.557,10.741-10.639.048-3.913-.2-7.841.074-11.734.233-3.323-.838-4.291-4.209-4.261-18.542.163-37.086.079-55.629.086M128.838,44.016,95.2,10.174c0,10.428.031,20.869-.027,31.309-.011,2.114,1.08,2.547,2.857,2.543,10.311-.025,20.622-.011,30.812-.011m-72.709,70.09c-2.435-.5-3.583.641-4.266,3.012-1.923,6.665-4.124,13.25-6.072,19.907-.394,1.346-2.262,3.323.365,4.195,2.326.771,3.858-.457,4.191-3.013.435-3.326,2.453-3.934,5.626-4.06,3.923-.156,5.567,1.459,6.158,4.94.447,2.635,2.5,2.606,4.286,2.156,2.568-.646.882-2.44.51-3.634-2.112-6.779-4.416-13.5-6.5-20.288-.691-2.258-1.683-3.669-4.3-3.215m22.35,20a2.68,2.68,0,0,1-1.6-2.226c-1.425-4.89-3-9.739-4.279-14.666-.7-2.688-2.277-3.877-4.744-3.055-2.723.908-.7,2.888-.3,4.2,2,6.667,4.253,13.257,6.287,19.914.614,2.01,1.378,3.166,3.785,3.177,2.441.011,3.6-.756,4.348-3.141,2.124-6.8,4.587-13.5,6.768-20.288.386-1.2,1.884-3.081-.385-3.826-2.144-.7-3.785-.005-4.516,2.657-1.573,5.724-3.5,11.351-5.355,17.254m19.564-6.155c0-3.718-.044-7.435.018-11.152.032-1.875-.636-2.749-2.627-2.8-2.182-.059-2.452,1.12-2.445,2.854q.041,10.9-.026,21.8c-.01,1.763.358,2.837,2.505,2.771,2.029-.062,2.626-.984,2.6-2.821-.054-3.547-.015-7.1-.025-10.644" transform="translate(0 0)" fill="#12263f"/>
    <path id="Trazado_609553" data-name="Trazado 609553" d="M54.737,117.225c.6,1.315,1.088,2.169,1.386,3.085.726,2.229,1.363,4.487,2.095,6.928-2.275.331-5.331,1.266-5.83-.4-.914-3.051,1.238-6.092,2.349-9.615" transform="translate(1.112 2.499)" fill="#12263f"/>
  </g>
</svg>
