<svg id="Grupo_890907" data-name="Grupo 890907" xmlns="http://www.w3.org/2000/svg" xmlns:xlink="http://www.w3.org/1999/xlink" width="87.43" height="87.441" viewBox="0 0 87.43 87.441">
  <defs>
    <clipPath id="clip-path">
      <rect id="Rectángulo_302196" data-name="Rectángulo 302196" width="87.43" height="87.441" fill="#12263f"/>
    </clipPath>
  </defs>
  <g id="Grupo_890907-2" data-name="Grupo 890907" clip-path="url(#clip-path)">
    <path id="Trazado_609544" data-name="Trazado 609544" d="M68.987,87.442H65.059a1.7,1.7,0,0,0-.384-.153,20.092,20.092,0,0,1-15.745-10.9,1,1,0,0,0-1.065-.585c-4.7.015-9.391.01-14.087.01-4.923,0-9.847.02-14.77-.01a4.364,4.364,0,0,1-4.331-5.353,4.436,4.436,0,0,1,4.582-3.441c2.931-.016,5.862,0,8.794,0h1.071c0-1.374.015-2.622,0-3.87a3.24,3.24,0,0,1,1.168-2.8.655.655,0,0,0,.27-.393c.023-1.012.012-2.024.012-3.083H28.928q-12.166,0-24.332,0A4.366,4.366,0,0,1,0,52.243Q0,28.378,0,4.512A4.311,4.311,0,0,1,4.5,0q31.93,0,63.86,0a4.73,4.73,0,0,1,1.1.1,4.4,4.4,0,0,1,3.426,4.59q.008,20.962-.01,41.925a1,1,0,0,0,.794,1.144,20.056,20.056,0,0,1,13.1,14.166c.272.974.439,1.978.654,2.968v4.27a2.743,2.743,0,0,0-.162.465C85.928,77.962,81.3,83.579,73.351,86.4a39.816,39.816,0,0,1-4.364,1.038M8.789,48.063H9.835q23.475,0,46.949.013a12.106,12.106,0,0,0,4.762-.67,4.849,4.849,0,0,1,1.651-.387c.79-.026.893-.4.892-1.082q-.027-18.1-.013-36.2V8.812H8.789Zm60.475,7.553a11.559,11.559,0,0,0-9.252,2.131,11.249,11.249,0,0,0-4.366,6.906A4.378,4.378,0,0,1,50.9,68.493H49.614c.736,6.136,3.584,10.835,8.9,13.75,6.32,3.463,12.648,3.1,18.586-.988a16.871,16.871,0,0,0,7.314-12.764c-.489,0-.828-.022-1.164,0a4.513,4.513,0,0,1-4.89-3.992,10.469,10.469,0,0,0-2.681-5.249,10.634,10.634,0,0,0-3.613-2.676c-.683,2.04-1.315,4.012-2.01,5.962a1.474,1.474,0,0,0,.3,1.732,4.316,4.316,0,0,1,.289,5.3,4.446,4.446,0,0,1-4.961,1.738,4.5,4.5,0,0,1-3.132-4.236A4.223,4.223,0,0,1,65.8,62.884a1.839,1.839,0,0,0,1.608-1.589c.232-.876.566-1.725.85-2.587.325-.989.643-1.981,1-3.092m.651-8.81V45.6q0-20.28,0-40.56c0-1.735-.405-2.13-2.181-2.13H5.067c-1.723,0-2.16.441-2.16,2.181q0,15.156,0,30.312,0,8.325,0,16.65c0,1.209.457,1.811,1.527,1.843,1.735.051,3.472.03,5.207,0,.182,0,.508-.228.516-.365.049-.81.024-1.625.024-2.447-.3-.022-.465-.043-.633-.047-2.787-.054-3.74-1.013-3.74-3.767q0-19,0-38c0-2.365,1.085-3.464,3.421-3.464,18.071,0,36.142.024,54.213-.03A3.32,3.32,0,0,1,67.09,9.447c-.05,12.04-.023,24.079-.023,36.119v1.008l2.847.232M20.479,53.854c.261.022.482.057.7.057q14.806.006,29.612,0a1.2,1.2,0,0,0,.778-.212c.854-.852,1.662-1.75,2.442-2.585H20.479Zm26.951,19a9.475,9.475,0,0,1-.394-1.831c-.01-.959-.5-1.046-1.3-1.044q-13.094.034-26.187.014a5.751,5.751,0,0,0-.767.018,1.411,1.411,0,0,0-.15,2.776,4.86,4.86,0,0,0,.933.064q13.477,0,26.955,0h.907M42.3,56.905c0,1-.022,1.964.017,2.921a1.046,1.046,0,0,0,.369.606,3.042,3.042,0,0,1,1.034,2.418c-.027,1.356-.007,2.713-.007,4.094h2.9A20.991,20.991,0,0,1,49.3,56.905ZM32.146,66.927h8.6V62.708h-8.6ZM65.573,49.654a17.1,17.1,0,0,0-9.687,3.959l1.94,2.093A14.772,14.772,0,0,1,65.2,52.569a.6.6,0,0,0,.359-.444c.037-.789.017-1.581.017-2.471M49.635,65.582c.557,0,.98.007,1.4,0a1.522,1.522,0,0,0,1.691-1.341c.061-.247.1-.5.16-.748a14.744,14.744,0,0,1,2.718-5.543l-1.982-2.086a17.392,17.392,0,0,0-3.989,9.72m30.808-9.7-2.087,1.966a15.149,15.149,0,0,1,3.049,6.6,1.324,1.324,0,0,0,1.239,1.111,16.962,16.962,0,0,0,1.777.013,17.276,17.276,0,0,0-3.978-9.686m-2.218-2.232a17.206,17.206,0,0,0-9.741-3.99c0,.9-.016,1.687.014,2.475a.553.553,0,0,0,.29.425c.494.115,1.087.361,1.494.194,1.207-.5,2.079-.368,2.632.9.028.065.134.1.207.141l3.149,1.819,1.956-1.962M39.252,56.9H33.59v2.812h5.662ZM13.163,53.851h4.222V51.1H13.163ZM68.474,67.068a1.51,1.51,0,0,0-1.458-1.483,1.449,1.449,0,0,0-.06,2.9,1.5,1.5,0,0,0,1.518-1.414" transform="translate(0 0)" fill="#12263f"/>
    <path id="Trazado_609545" data-name="Trazado 609545" d="M114.141,207.354H95.885c-.256,0-.514.015-.767-.01a1.432,1.432,0,0,1-1.353-1.471,1.349,1.349,0,0,1,1.376-1.423c1.734-.038,3.469-.023,5.2-.023q16.038,0,32.076,0c1.457,0,2.158.484,2.147,1.468s-.732,1.459-2.17,1.459q-9.128,0-18.256,0" transform="translate(-77.723 -169.45)" fill="#12263f"/>
    <path id="Trazado_609546" data-name="Trazado 609546" d="M259.586,116.734a4.359,4.359,0,0,1-3.4-1.825,1.491,1.491,0,0,1,.105-2.205c.712-.585,1.512-.444,2.215.391a1.472,1.472,0,0,0,2.16.321,1.33,1.33,0,0,0,.15-1.968,2.383,2.383,0,0,0-1.274-.525,4.381,4.381,0,0,1-3.957-3.025,4.159,4.159,0,0,1,1.167-4.6,4.361,4.361,0,0,1,6.518.623,1.488,1.488,0,0,1-.171,2.255c-.708.53-1.448.38-2.14-.435a1.5,1.5,0,0,0-2.167-.325,1.357,1.357,0,0,0-.152,1.972,2.389,2.389,0,0,0,1.275.529,4.41,4.41,0,0,1-.33,8.812" transform="translate(-211.645 -84.648)" fill="#12263f"/>
    <path id="Trazado_609547" data-name="Trazado 609547" d="M190.254,110.869c0,1.428.007,2.732,0,4.037-.008,1.1-.623,1.806-1.516,1.78-.871-.025-1.413-.677-1.417-1.779-.011-3.244-.021-6.489,0-9.733a2.905,2.905,0,0,1,3.178-3.1,9.458,9.458,0,0,1,2.528.249,4.319,4.319,0,0,1,3.013,4.768,4.46,4.46,0,0,1-4.309,3.78c-.451.021-.9,0-1.478,0m.049-2.992c.935-.076,1.983.366,2.556-.666a1.792,1.792,0,0,0,.007-1.484c-.566-1.036-1.617-.612-2.562-.672Z" transform="translate(-155.262 -84.606)" fill="#12263f"/>
    <path id="Trazado_609548" data-name="Trazado 609548" d="M121.974,104.926v2.843h3.569c1.478,0,2.243.528,2.216,1.526-.026.975-.753,1.459-2.2,1.459h-3.569c-.018.327-.046.6-.047.872-.006,1.082.016,2.164-.009,3.245a1.5,1.5,0,1,1-2.975.011c-.017-3.3-.035-6.6,0-9.905a2.952,2.952,0,0,1,3.111-3.037c1.309-.022,2.619-.017,3.928,0,1.052.014,1.745.613,1.754,1.473a1.553,1.553,0,0,1-1.723,1.506c-1.329.025-2.659.006-4.063.006" transform="translate(-98.595 -84.489)" fill="#12263f"/>
    <path id="Trazado_609549" data-name="Trazado 609549" d="M363.432,442.9c1.365,0,2.729-.011,4.094,0,1.076.011,1.747.575,1.763,1.439.016.888-.7,1.5-1.8,1.5q-4.051.007-8.1,0c-1.107,0-1.816-.6-1.805-1.491.01-.865.679-1.431,1.756-1.443,1.364-.015,2.729,0,4.094,0Z" transform="translate(-296.406 -367.123)" fill="#12263f"/>
  </g>
</svg>
