<svg id="Grupo_890930" data-name="Grupo 890930" xmlns="http://www.w3.org/2000/svg" xmlns:xlink="http://www.w3.org/1999/xlink" width="145.799" height="191.243" viewBox="0 0 145.799 191.243">
  <defs>
    <clipPath id="clip-path">
      <rect id="Rectángulo_302225" data-name="Rectángulo 302225" width="145.799" height="191.243" fill="#12263f"/>
    </clipPath>
  </defs>
  <g id="Grupo_890930-2" data-name="Grupo 890930" clip-path="url(#clip-path)">
    <path id="Trazado_609582" data-name="Trazado 609582" d="M72.953,191.2c-15.662,0-31.323.024-46.985-.008-11.562-.024-16.521-4.978-16.505-16.368,0-2.333-.108-4.67.012-7,.219-4.234.353-7.906-4.838-10C1.134,156.422,0,152.381,0,148.479q0-22.244.007-44.485c0-4.567,1.848-8.365,5.965-10.171,3.1-1.359,3.539-3.2,3.526-6.131-.1-22.159-.066-44.319-.041-66.478C9.472,7.582,16.767.132,30.391.067,49.55-.024,68.711.107,87.871,0a9.523,9.523,0,0,1,7.406,3.181q19.132,19.381,38.527,38.5a8.479,8.479,0,0,1,2.552,6.68c-.054,13,.045,25.992-.066,38.986-.026,3.053.357,5.136,3.673,6.574,4.194,1.819,5.771,5.872,5.788,10.311.057,14.827.084,29.656-.048,44.483-.042,4.633-2.035,8.517-6.5,10.389-2.513,1.054-2.981,2.655-2.9,5.045.135,3.994.117,8,.017,11.994-.247,9.92-5.754,15.1-15.883,15.1q-23.742-.015-47.484,0ZM72.78,92.385c18.151,0,36.3-.062,54.452.06,3.081.021,4.384-.574,4.323-4.04q-.315-18.228-.006-36.465c.063-3.5-1.251-4.119-4.33-4.075-11.153.158-22.311-.009-33.463.156-3.753.055-5.4-1.016-5.329-5.1.208-11.318-.02-22.644.085-33.965.026-2.86-.57-4.134-3.833-4.107C66.363,5,48.044,4.812,29.728,4.978c-9.87.089-15.378,5.862-15.4,15.713-.046,22.314.106,44.628-.113,66.94-.041,4.161,1.384,4.868,5.111,4.831,17.816-.176,35.635-.079,53.452-.077m-.115,93.842v-.015c16.145,0,32.291.038,48.436-.017,6.784-.024,10.113-3.287,10.325-10.054.13-4.158-.086-8.326.065-12.482.1-2.621-.882-3.381-3.477-3.377q-55.179.1-110.356-.026c-2.724-.006-3.455,1.011-3.373,3.5.126,3.824.006,7.656.037,11.484.062,7.737,3.228,10.964,10.9,10.981,15.812.035,31.625.01,47.438.01M125.9,43.066,93.278,10.088c0,9.89.033,19.959-.028,30.029-.012,2.089.689,2.991,2.869,2.977,10.083-.063,20.167-.028,29.786-.028M86.816,120.142l.826-.006c0,4.987.018,9.975-.009,14.962-.01,1.739-.155,3.352,2.425,3.32,2.612-.031,2.36-1.757,2.361-3.424.005-6.327.066-12.655-.043-18.98-.03-1.707,1.193-4.364-2.278-4.375-2.454-.007-4.86-.388-5.765,3.091-1.287,4.951-3.11,9.761-5.06,15.718-1.814-6.055-3.476-11.066-4.79-16.167-.961-3.73-3.75-2.519-6.027-2.579-2.626-.069-2.121,2.044-2.131,3.617q-.063,9.739-.012,19.479c.009,1.547-.546,3.5,2.154,3.584,2.977.1,2.508-1.982,2.518-3.754.026-4.507.009-9.014.009-13.521a88.937,88.937,0,0,1,4.874,14.114c.461,1.65.805,3.2,3.1,3.192,2.276,0,2.617-1.534,3.119-3.179,1.536-5.043,3.148-10.063,4.73-15.092m-46.175,8.986-.854.035c-1.03-4.988-2.132-9.964-3.059-14.971-.453-2.44-1.986-2.827-3.99-2.534-2.573.375-1.423,2.111-1.115,3.427q2.329,9.957,4.744,19.893c.425,1.756.63,3.469,3.3,3.472,2.875,0,3.081-1.743,3.557-3.773.994-4.244,2.165-8.447,3.263-12.667a64.385,64.385,0,0,1,4.144,12.766c.43,1.739.442,3.545,3.128,3.671,2.819.132,3.3-1.593,3.8-3.588,1.633-6.444,3.314-12.876,4.866-19.339.324-1.351,1.941-3.381-1-3.863-2.2-.36-3.176.758-3.6,3.02-.89,4.8-2.138,9.538-3.24,14.3a86.282,86.282,0,0,1-4.411-14.216c-.418-1.782-.856-3.1-3.082-3.136-2.342-.036-2.631,1.558-3.025,3.2q-1.715,7.15-3.434,14.3m66.1,3.44c-2.126-6.941-4-12.444-5.445-18.059-.666-2.6-2.1-3.3-4.282-2.832-3.009.648-1.012,2.7-.653,3.9,1.955,6.515,4.176,12.95,6.2,19.444.652,2.089,1.446,3.4,4.036,3.449,2.618.049,3.431-1.276,4.1-3.347,2.084-6.475,4.313-12.9,6.349-19.394.4-1.26,2.531-3.117-.393-3.963-2.275-.658-3.572.428-4.254,2.834-1.571,5.539-3.438,10.994-5.658,17.97" fill="#12263f"/>
  </g>
</svg>
