<svg xmlns="http://www.w3.org/2000/svg" xmlns:xlink="http://www.w3.org/1999/xlink" width="81.412" height="81.391" viewBox="0 0 81.412 81.391">
  <defs>
    <clipPath id="clip-path">
      <rect id="Rectángulo_295389" data-name="Rectángulo 295389" width="81.412" height="81.391" transform="translate(0 0)" fill="#12263f"/>
    </clipPath>
  </defs>
  <g id="Grupo_879963" data-name="Grupo 879963" transform="translate(0 -0.003)">
    <g id="Grupo_879962" data-name="Grupo 879962" transform="translate(0 0.003)" clip-path="url(#clip-path)">
      <path id="Trazado_597950" data-name="Trazado 597950" d="M40.71,325.372a41.338,41.338,0,0,1-11.9-1.9,56.884,56.884,0,0,1-15.043-7.427A66.776,66.776,0,0,1,5.4,309.414C3.7,307.82,2.088,306.141.453,304.486a1.342,1.342,0,0,1-.014-2,73.622,73.622,0,0,1,10.2-9.31,65.341,65.341,0,0,1,11.208-6.928,45.629,45.629,0,0,1,12.567-4.081,45.574,45.574,0,0,1,4.946-.491A38.945,38.945,0,0,1,54.149,284a56.912,56.912,0,0,1,12.237,6.082,74.03,74.03,0,0,1,8.544,6.462,67.044,67.044,0,0,1,6.075,5.966,1.367,1.367,0,0,1-.036,1.979,67.667,67.667,0,0,1-5.731,5.65,72.893,72.893,0,0,1-11.058,8.1,54.1,54.1,0,0,1-11.192,5.1,40,40,0,0,1-9.645,1.884c-.877.055-1.756.092-2.634.138m20.951-21.88c0-.268.008-.535,0-.8s-.039-.532-.056-.8a20.313,20.313,0,0,0-2.156-7.8,20.742,20.742,0,0,0-4.866-6.315,7.908,7.908,0,0,0-3.034-1.87,39.752,39.752,0,0,0-10.384-1.673c-1.066-.02-2.137.042-3.2.122a36.623,36.623,0,0,0-8.11,1.583,4.822,4.822,0,0,0-1.558.655,20.967,20.967,0,0,0-6.6,8.1,20.485,20.485,0,0,0-1.921,9.787,22.194,22.194,0,0,0,.517,3.72,20.922,20.922,0,0,0,6.546,10.988,7.84,7.84,0,0,0,2.967,1.853,37.224,37.224,0,0,0,13.315,1.6,38.374,38.374,0,0,0,8.412-1.6,4.965,4.965,0,0,0,1.7-.74,22.485,22.485,0,0,0,3.336-3.123,20.719,20.719,0,0,0,5.1-13.69m-39.8-14.255A71.984,71.984,0,0,0,3.051,303.486,72.4,72.4,0,0,0,21.873,317.73a23.891,23.891,0,0,1-.007-28.492m56.5,14.246a72.272,72.272,0,0,0-18.818-14.243,23.847,23.847,0,0,1,0,28.49,72.059,72.059,0,0,0,18.819-14.247" transform="translate(0 -262.788)" fill="#12263f"/>
      <path id="Trazado_597951" data-name="Trazado 597951" d="M814.354,80.192a5.016,5.016,0,0,1-.276.691q-2.515,4.372-5.045,8.735a1.3,1.3,0,1,1-2.251-1.291c1.117-1.951,2.247-3.9,3.37-5.844.556-.964,1.108-1.932,1.667-2.895a1.314,1.314,0,0,1,1.216-.743,1.233,1.233,0,0,1,1.126.71,3.588,3.588,0,0,1,.194.638" transform="translate(-752.596 -73.568)" fill="#12263f"/>
      <path id="Trazado_597952" data-name="Trazado 597952" d="M295.674,977.083a1.269,1.269,0,0,1-1.027-1.9c.5-.931,1.045-1.839,1.574-2.755q1.778-3.081,3.561-6.159a1.261,1.261,0,0,1,1.378-.657,1.2,1.2,0,0,1,1.032,1.076,1.831,1.831,0,0,1-.228.975c-.923,1.652-1.882,3.284-2.827,4.923q-1.076,1.867-2.15,3.735a1.371,1.371,0,0,1-1.313.761" transform="translate(-274.777 -900.969)" fill="#12263f"/>
      <path id="Trazado_597953" data-name="Trazado 597953" d="M813.01,977.115a1.455,1.455,0,0,1-1.154-.758q-1.58-2.732-3.154-5.468c-.64-1.109-1.29-2.212-1.917-3.328a1.288,1.288,0,0,1,.961-1.984,1.257,1.257,0,0,1,1.3.7q1.637,2.834,3.277,5.668c.591,1.022,1.184,2.042,1.769,3.067a1.288,1.288,0,0,1-.373,1.844,3.605,3.605,0,0,1-.706.257" transform="translate(-752.609 -900.948)" fill="#12263f"/>
      <path id="Trazado_597954" data-name="Trazado 597954" d="M295.7,77.7a1.514,1.514,0,0,1,1.149.758q1.849,3.194,3.693,6.391c.484.839.986,1.669,1.443,2.522a1.281,1.281,0,0,1-1.041,1.9,1.268,1.268,0,0,1-1.263-.71q-1.636-2.835-3.276-5.668c-.591-1.022-1.184-2.042-1.769-3.067a1.249,1.249,0,0,1,.246-1.737,3.851,3.851,0,0,1,.818-.386" transform="translate(-274.691 -72.504)" fill="#12263f"/>
      <path id="Trazado_597955" data-name="Trazado 597955" d="M588.923,105.287c0-.557,0-1.114,0-1.671a1.292,1.292,0,1,1,2.583.006c0,1.157-.008,2.315-.031,3.472a1.217,1.217,0,0,1-1.309,1.215,1.347,1.347,0,0,1-1.246-1.285c0-.579,0-1.158,0-1.738Z" transform="translate(-549.506 -95.448)" fill="#12263f"/>
      <path id="Trazado_597956" data-name="Trazado 597956" d="M591.528,1027.319c0,.568.005,1.136,0,1.7a1.291,1.291,0,1,1-2.581.019q-.014-1.732,0-3.465a1.292,1.292,0,0,1,2.582.006c.007.579,0,1.158,0,1.737" transform="translate(-549.525 -955.777)" fill="#12263f"/>
      <path id="Trazado_597957" data-name="Trazado 597957" d="M130.33,237.213c-.312,0-.623,0-.934,0a1.237,1.237,0,0,1-1.208-1.115,1.211,1.211,0,0,1,.947-1.4,12.94,12.94,0,0,1,2.388,0,1.208,1.208,0,0,1,.949,1.4,1.237,1.237,0,0,1-1.207,1.117c-.311.006-.623,0-.934,0" transform="translate(-119.6 -218.935)" fill="#12263f"/>
      <path id="Trazado_597958" data-name="Trazado 597958" d="M1026.393,947.1c.289,0,.578,0,.868,0a1.3,1.3,0,0,1,.008,2.6q-.884.015-1.768,0a1.3,1.3,0,0,1,.025-2.6c.289,0,.578,0,.868,0" transform="translate(-955.688 -883.718)" fill="#12263f"/>
      <path id="Trazado_597959" data-name="Trazado 597959" d="M2.47,237.2a11.227,11.227,0,0,1-1.257-.1,1.217,1.217,0,0,1-.92-1.09c0-.708.344-1.3.934-1.35a11.4,11.4,0,0,1,2.424.007,1.148,1.148,0,0,1,.93,1.317,1.23,1.23,0,0,1-1.206,1.191c-.3.006-.6,0-.9,0v.022" transform="translate(-0.273 -218.904)" fill="#12263f"/>
      <path id="Trazado_597960" data-name="Trazado 597960" d="M1154.26,947.1c.3,0,.6-.005.9,0a1.3,1.3,0,0,1,.042,2.592c-.623.019-1.249.012-1.872-.02a1.265,1.265,0,0,1-1.218-1.365,1.285,1.285,0,0,1,1.309-1.208c.279,0,.557,0,.836,0" transform="translate(-1075.011 -883.714)" fill="#12263f"/>
      <path id="Trazado_597961" data-name="Trazado 597961" d="M79.454,159.73c0,.278.006.557,0,.835a1.246,1.246,0,0,1-1.284,1.286,1.225,1.225,0,0,1-1.294-1.268c-.013-.556-.017-1.113-.009-1.67a1.3,1.3,0,1,1,2.591.016c0,.267,0,.534,0,.8Z" transform="translate(-71.718 -146.992)" fill="#12263f"/>
      <path id="Trazado_597962" data-name="Trazado 597962" d="M79.454,287.725c0,.3.011.6,0,.9a1.289,1.289,0,0,1-2.573.019c-.021-.623-.021-1.247,0-1.869a1.291,1.291,0,0,1,2.58.014c.012.311,0,.623,0,.935Z" transform="translate(-71.718 -266.424)" fill="#12263f"/>
      <path id="Trazado_597963" data-name="Trazado 597963" d="M1103.482,872.459c0,.3.008.6,0,.9a1.29,1.29,0,0,1-2.578,0q-.023-.919,0-1.839a1.291,1.291,0,0,1,2.579,0c.011.312,0,.624,0,.936" transform="translate(-1027.216 -812.056)" fill="#12263f"/>
      <path id="Trazado_597964" data-name="Trazado 597964" d="M1100.966,1000.43c0-.29-.006-.579,0-.869a1.276,1.276,0,0,1,1.288-1.262,1.25,1.25,0,0,1,1.266,1.27c.01.589.027,1.178.025,1.767a1.289,1.289,0,0,1-2.577,0c0-.3,0-.6,0-.9Z" transform="translate(-1027.283 -931.49)" fill="#12263f"/>
      <path id="Trazado_597965" data-name="Trazado 597965" d="M591.5,2.168c0,.29.005.58,0,.869a1.292,1.292,0,0,1-2.582.017q-.017-.9,0-1.805a1.291,1.291,0,0,1,2.582.017c.006.3,0,.6,0,.9" transform="translate(-549.496 -0.004)" fill="#12263f"/>
      <path id="Trazado_597966" data-name="Trazado 597966" d="M591.514,1154.156c0,.29,0,.58,0,.869a1.292,1.292,0,0,1-2.583.007c-.008-.591-.009-1.182,0-1.772a1.292,1.292,0,0,1,2.582-.007c.007.3,0,.6,0,.9" transform="translate(-549.511 -1074.907)" fill="#12263f"/>
      <path id="Trazado_597967" data-name="Trazado 597967" d="M336.873,339.614a20.719,20.719,0,0,1-5.1,13.69,22.491,22.491,0,0,1-3.336,3.123,4.967,4.967,0,0,1-1.7.74,38.372,38.372,0,0,1-8.412,1.6,37.224,37.224,0,0,1-13.315-1.6,7.84,7.84,0,0,1-2.967-1.853,20.923,20.923,0,0,1-6.546-10.988,22.2,22.2,0,0,1-.517-3.72,20.486,20.486,0,0,1,1.921-9.787,20.968,20.968,0,0,1,6.6-8.1,4.822,4.822,0,0,1,1.558-.655,36.621,36.621,0,0,1,8.11-1.583c1.065-.08,2.135-.142,3.2-.122a39.752,39.752,0,0,1,10.384,1.673,7.909,7.909,0,0,1,3.034,1.87,20.74,20.74,0,0,1,4.866,6.315,20.312,20.312,0,0,1,2.156,7.8c.017.266.046.532.056.8s0,.535,0,.8m-7.668,0a13.231,13.231,0,0,0-.7-4.276,13.308,13.308,0,0,0-12.288-9.022,13.123,13.123,0,0,0-6.765,1.664.822.822,0,0,1-.469.094,5.6,5.6,0,0,0-5.969,7.627,1,1,0,0,1,.049.478c-.075.5-.159,1.01-.272,1.507a10.627,10.627,0,0,0-.037,3.75,12.574,12.574,0,0,0,3.2,6.966,13.018,13.018,0,0,0,10.815,4.465,11.91,11.91,0,0,0,4.667-1.171c5.019-2.464,7.54-6.542,7.762-12.081" transform="translate(-275.212 -298.909)" fill="#f6f6f6"/>
      <path id="Trazado_597968" data-name="Trazado 597968" d="M64.409,395.232a23.891,23.891,0,0,0,.007,28.492A72.4,72.4,0,0,1,45.6,409.48a71.987,71.987,0,0,1,18.814-14.248" transform="translate(-42.544 -368.782)" fill="#b2ebf2"/>
      <path id="Trazado_597969" data-name="Trazado 597969" d="M908.64,409.523a72.059,72.059,0,0,1-18.819,14.247,23.847,23.847,0,0,0,0-28.49,72.272,72.272,0,0,1,18.818,14.243" transform="translate(-830.271 -368.827)" fill="#b2ebf2"/>
      <path id="Trazado_597970" data-name="Trazado 597970" d="M436,422.7c-.222,5.539-2.743,9.617-7.762,12.081a11.911,11.911,0,0,1-4.667,1.171,13.018,13.018,0,0,1-10.815-4.465,12.574,12.574,0,0,1-3.2-6.966,10.627,10.627,0,0,1,.037-3.75c.113-.5.2-1,.272-1.507a1,1,0,0,0-.049-.478,5.6,5.6,0,0,1,5.969-7.627.822.822,0,0,0,.469-.094,13.31,13.31,0,0,1,14.96,1.406,12.935,12.935,0,0,1,4.093,5.951,13.231,13.231,0,0,1,.7,4.276m-15.337-6.218a.8.8,0,0,0,.154,0,6.315,6.315,0,0,1,5.761.988,6.5,6.5,0,0,1-4.795,11.66,6.542,6.542,0,0,1-5.57-6.345c-.006-.514-.006-.524-.531-.478a5.892,5.892,0,0,1-3.394-.655.353.353,0,0,0-.122-.016,10.614,10.614,0,1,0,17.66-6.831,10.559,10.559,0,0,0-10.8-2.082,5.906,5.906,0,0,1,1.633,3.759m5.873,6.221a3.819,3.819,0,1,0-3.836,3.811,3.823,3.823,0,0,0,3.836-3.811M415.02,413.72a2.982,2.982,0,1,0,2.962,2.953,3,3,0,0,0-2.962-2.953" transform="translate(-382.004 -381.999)" fill="#12263f"/>
      <path id="Trazado_597971" data-name="Trazado 597971" d="M457.972,453.5a5.906,5.906,0,0,0-1.633-3.759,10.559,10.559,0,0,1,10.8,2.082,10.62,10.62,0,1,1-17.66,6.831.351.351,0,0,1,.122.016,5.892,5.892,0,0,0,3.394.655c.525-.046.526-.037.531.478a6.5,6.5,0,0,0,12.67,1.948,6.452,6.452,0,0,0-2.305-7.263,6.315,6.315,0,0,0-5.761-.988.8.8,0,0,1-.154,0" transform="translate(-419.315 -419.017)" fill="#f3f9ff"/>
      <path id="Trazado_597972" data-name="Trazado 597972" d="M558.88,554.851a3.819,3.819,0,1,1-3.82-3.828,3.821,3.821,0,0,1,3.82,3.828" transform="translate(-514.35 -514.147)" fill="#dee4f0"/>
      <path id="Trazado_597973" data-name="Trazado 597973" d="M451.461,473.985a2.982,2.982,0,1,1-.049,5.964,2.982,2.982,0,0,1,.049-5.964" transform="translate(-418.445 -442.264)" fill="#e8e8e8"/>
    </g>
  </g>
</svg>
