<svg xmlns="http://www.w3.org/2000/svg" xmlns:xlink="http://www.w3.org/1999/xlink" width="93" height="94" viewBox="0 0 93 94">
  <defs>
    <clipPath id="clip-path">
      <rect id="Rectángulo_56316" data-name="Rectángulo 56316" width="51.774" height="49.082" fill="#12263f"/>
    </clipPath>
  </defs>
  <g id="Grupo_891059" data-name="Grupo 891059" transform="translate(0.275 -0.334)">
    <ellipse id="Elipse_4870" data-name="Elipse 4870" cx="46.5" cy="47" rx="46.5" ry="47" transform="translate(-0.275 0.334)" fill="#fb8c00"/>
    <g id="Grupo_177178" data-name="Grupo 177178" transform="translate(21.338 21.793)">
      <g id="Grupo_175646" data-name="Grupo 175646" clip-path="url(#clip-path)">
        <path id="Trazado_217922" data-name="Trazado 217922" d="M35.24,36.308v1.523c-.427.02-.8.054-1.181.054q-14.689,0-29.379,0c-2.955,0-4.654-1.711-4.656-4.7C.019,23.665.056,14.143,0,4.622A4.46,4.46,0,0,1,4.525,0C18.808.055,33.091.018,47.374.033A4.131,4.131,0,0,1,51.768,4.48q.011,14.457,0,28.914a4.174,4.174,0,0,1-4.487,4.49c-2.159.014-4.319,0-6.542,0V36.308c2.06,0,4.1,0,6.14,0,2.354,0,3.324-.96,3.324-3.285q0-14.109,0-28.217c0-2.3-.923-3.231-3.246-3.232q-21.076-.01-42.152,0c-2.253,0-3.213,1-3.214,3.288q0,14.051,0,28.1c0,2.375.988,3.344,3.405,3.344q14.4,0,28.8,0Z" transform="translate(0 0)" fill="#12263f"/>
        <path id="Trazado_217923" data-name="Trazado 217923" d="M33.507,39.989c0-.845.036-1.534-.009-2.217-.059-.9.327-1.261,1.22-1.247,1.816.03,3.633.009,5.422.009.575-1.626.377-1.918-1.185-1.937-3.306-.04-2.853.481-2.88-2.9-.017-2.089,0-2.09,2.114-2.09,2.206,0,4.413.022,6.619-.009,1.064-.015,1.595.342,1.457,1.5a9.47,9.47,0,0,0,0,2.087c.12,1.157-.387,1.517-1.478,1.427-.879-.072-1.768-.015-2.777-.015-.029.655-.053,1.209-.085,1.934,1.583,0,3.038,0,4.494,0,1.413,0,1.568.16,1.593,1.609.01.571,0,1.142,0,1.845.81,0,1.5.02,2.182-.006.723-.027,1.239.168,1.218,1.005-.018.719.428.8.99.794,2.09-.009,4.182.047,6.27-.021,1.135-.037,1.556.4,1.463,1.494-.049.572-.009,1.152-.009,1.963.747,0,1.423.031,2.1-.008.926-.054,1.341.306,1.324,1.272-.082,4.561.566,3.574-3.508,3.681-1.315.034-2.632-.015-3.948.011-.694.014-.992-.276-.981-.961.016-.967.037-1.937-.008-2.9-.039-.833.378-1.1,1.12-1.092.426.006.852-.016,1.277,0,.642.021,1.1-.045,1.111-.909.01-.891-.406-1.01-1.138-1-1.7.034-3.406.026-5.109,0-.6-.008-.968.125-.958.816s-.423.923-1.066.906c-.727-.02-1.455,0-2.253,0v2.81c.785,0,1.542.023,2.3-.006s1.05.306,1.032,1.038c-.024.967-.02,1.935,0,2.9.015.788-.365,1.123-1.13,1.119-2.051-.008-4.1,0-6.155,0-.756,0-1.143-.328-1.12-1.126.028-.967.03-1.936,0-2.9-.024-.76.323-1.057,1.05-1.012.308.019.625-.039.928.008,1.157.181,1.6-.242,1.509-1.449-.1-1.359-.025-1.365-1.689-1.366-1.79,0-1.791,0-1.793-1.774,0-.619.049-1.243-.01-1.857-.111-1.147.4-1.547,1.5-1.438.572.057,1.155.01,1.875.01.031-.611.058-1.159.091-1.811H35.121c-.025.532-.051,1.085-.085,1.811.815,0,1.537.029,2.256-.008.775-.04,1.18.289,1.19,1.061.013,1.006.016,2.013,0,3.019-.012.708-.369,1.01-1.109,1-2.09-.034-4.181-.024-6.27-.005-.713.007-1.093-.238-1.074-1,.025-1.006.016-2.013,0-3.019-.01-.731.332-1.061,1.059-1.044s1.465,0,2.418,0M44.643,33V31.159c-1.865,0-3.669,0-5.474,0-1.675,0-1.776.14-1.323,1.843ZM56.771,46.715v1.867h5.466c-.459-.711.364-1.765-.907-1.845-1.494-.095-3-.022-4.56-.022m-12.143,4.5c1.646,0,3.152.036,4.653-.037.241-.012.643-.511.642-.783,0-.349-.32-.986-.53-1-1.567-.085-3.142-.046-4.765-.046ZM31.652,43.463c1.619,0,3.148.035,4.671-.038.225-.011.6-.536.594-.818-.006-.351-.318-.986-.526-1-1.557-.085-3.122-.046-4.74-.046Zm18.19-1.833H44.659V43.4H49.93l-.087-1.767" transform="translate(-23.051 -22.725)" fill="#12263f"/>
        <path id="Trazado_217924" data-name="Trazado 217924" d="M16.7,44.331H46.787V45.89H16.692c-1.623,0-1.636-.013-1.636-1.617q0-13.821,0-27.642c0-1.613.034-1.657,1.59-1.658q19.047,0,38.094,0c1.6,0,1.621.024,1.621,1.612q0,13.879,0,27.757c0,1.524-.024,1.544-1.578,1.547-.805,0-1.611,0-2.483,0V44.363h2.4V16.647h-38Z" transform="translate(-11.558 -11.492)" fill="#12263f"/>
        <path id="Trazado_217925" data-name="Trazado 217925" d="M46.785,194.623c-6.388,0-12.777-.017-19.165.01-1.87.008-3.237-1.152-4.758-1.93-.585-.3-.441-.994.152-1.3,1.771-.9,3.453-1.825,5.626-1.81,12.582.091,25.165.031,37.748.022a2.5,2.5,0,0,1,2.638,2.492,2.437,2.437,0,0,1-2.611,2.5c-6.543.02-13.086.008-19.629.008Zm14.583-3.358c-.415-.034-.79-.091-1.165-.092-10.787,0-21.575-.02-32.362.029a9.906,9.906,0,0,0-2.552.719l.014.513a11.638,11.638,0,0,0,2.6.616c10.748.043,21.5.029,32.245.024.405,0,.811-.047,1.216-.072Zm1.708-.044v1.843a33.818,33.818,0,0,0,3.426-.042,1.384,1.384,0,0,0,.918-.888c.057-.223-.482-.843-.79-.87-1.173-.105-2.361-.042-3.554-.042" transform="translate(-17.265 -145.551)" fill="#12263f"/>
        <rect id="Rectángulo_56307" data-name="Rectángulo 56307" width="1.42" height="8.376" transform="translate(46.791 14.773)" fill="#12263f"/>
        <rect id="Rectángulo_56308" data-name="Rectángulo 56308" width="1.398" height="1.428" transform="translate(37.292 31.959)" fill="#12263f"/>
        <rect id="Rectángulo_56309" data-name="Rectángulo 56309" width="1.385" height="1.418" transform="translate(6.106 39.862)" fill="#12263f"/>
        <rect id="Rectángulo_56310" data-name="Rectángulo 56310" width="1.365" height="1.431" transform="translate(9.441 39.835)" fill="#12263f"/>
        <rect id="Rectángulo_56311" data-name="Rectángulo 56311" width="1.396" height="1.465" transform="translate(12.864 39.827)" fill="#12263f"/>
        <rect id="Rectángulo_56312" data-name="Rectángulo 56312" width="1.389" height="1.464" transform="translate(19.605 39.828)" fill="#12263f"/>
        <path id="Trazado_217926" data-name="Trazado 217926" d="M114.89,172.976c-.209.023-.355.048-.5.052-.265.007-.53,0-.885,0v-1.5h1.387Z" transform="translate(-87.134 -131.678)" fill="#12263f"/>
        <path id="Trazado_217927" data-name="Trazado 217927" d="M143.92,172.748l-1.469.108v-1.423c1.425-.295,1.469-.258,1.469,1.315" transform="translate(-109.357 -131.496)" fill="#12263f"/>
        <path id="Trazado_217928" data-name="Trazado 217928" d="M1.283,181.291l1.285.808-.36,1.142-1.552-.256.628-1.695" transform="translate(-0.503 -139.174)" fill="#12263f"/>
        <path id="Trazado_217929" data-name="Trazado 217929" d="M161.789,152.6V154.1l-1.465-.246V152.6Z" transform="translate(-123.078 -117.146)" fill="#12263f"/>
        <path id="Trazado_217930" data-name="Trazado 217930" d="M154.232,165.308l.832-.922,1.3.814-1.189,1.356-.944-1.248" transform="translate(-118.401 -126.196)" fill="#12263f"/>
        <path id="Trazado_217931" data-name="Trazado 217931" d="M9.766,172.484l1.7-.594.349,1.385-1.073.549-.975-1.34" transform="translate(-7.497 -131.957)" fill="#12263f"/>
        <path id="Trazado_217932" data-name="Trazado 217932" d="M.3,197.465H1.726v1.408c-1.3.153-1.447.017-1.423-1.408" transform="translate(-0.231 -151.591)" fill="#12263f"/>
        <rect id="Rectángulo_56313" data-name="Rectángulo 56313" width="1.454" height="1.369" transform="translate(37.251 28.576)" fill="#12263f"/>
        <rect id="Rectángulo_56314" data-name="Rectángulo 56314" width="1.339" height="1.455" transform="translate(16.221 39.813)" fill="#12263f"/>
        <rect id="Rectángulo_56315" data-name="Rectángulo 56315" width="1.298" height="1.43" transform="translate(23.029 39.856)" fill="#12263f"/>
        <path id="Trazado_217933" data-name="Trazado 217933" d="M129.607,172.77h-1.236v-1.491l1.236-.06Z" transform="translate(-98.548 -131.442)" fill="#12263f"/>
      </g>
    </g>
  </g>
</svg>
