<svg xmlns="http://www.w3.org/2000/svg" xmlns:xlink="http://www.w3.org/1999/xlink" width="93" height="94" viewBox="0 0 93 94">
  <defs>
    <clipPath id="clip-path">
      <rect id="Rectángulo_57761" data-name="Rectángulo 57761" width="50.618" height="57.849" fill="#12263f"/>
    </clipPath>
  </defs>
  <g id="Grupo_179389" data-name="Grupo 179389" transform="translate(0.275 -0.334)">
    <ellipse id="Elipse_4870" data-name="Elipse 4870" cx="46.5" cy="47" rx="46.5" ry="47" transform="translate(-0.275 0.334)" fill="#fb8c00"/>
    <g id="Grupo_179733" data-name="Grupo 179733" transform="translate(18.742 17.559)">
      <g id="Grupo_179732" data-name="Grupo 179732" clip-path="url(#clip-path)">
        <path id="Trazado_229164" data-name="Trazado 229164" d="M18.081,108.705c.128,2.175.254,4.316.38,6.456.109,1.861.235,3.72.324,5.582a4.333,4.333,0,1,1-8.646-.007c.2-3.76.44-7.518.663-11.276.014-.242.025-.484.039-.76-.155-.021-.278-.043-.4-.054a.9.9,0,0,1-.943-1.024c-.01-.979-.025-1.959.007-2.937a.663.663,0,0,0-.506-.73A14.453,14.453,0,1,1,28.879,91.2c-.291,6.009-3.423,10.255-8.91,12.731-.4.182-.572.365-.549.817.041.808.011,1.619.012,2.428,0,1.227-.1,1.348-1.351,1.528M14.43,77.918A12.651,12.651,0,1,0,27.113,90.483,12.669,12.669,0,0,0,14.43,77.918m-1.767,30.759c-.1,1.673-.2,3.287-.291,4.9-.142,2.423-.3,4.846-.419,7.271a2.485,2.485,0,0,0,1.751,2.6,2.514,2.514,0,0,0,3.264-2.64c-.2-3.7-.428-7.4-.647-11.1-.02-.333-.05-.666-.077-1.026Zm4.939-3.986a14.967,14.967,0,0,1-6.266.018v2.082H17.6Z" transform="translate(0 -67.52)" fill="#12263f"/>
        <path id="Trazado_229165" data-name="Trazado 229165" d="M384,69.333q0-9.151,0-18.3a2.743,2.743,0,0,1,3.077-3.051c.508,0,1.017-.011,1.525,0a2.7,2.7,0,0,1,2.622,2.6c.01.226,0,.452,0,.678q0,17.991-.011,35.982a9.746,9.746,0,0,1-.256,2.172c-.761,3.281-1.562,6.552-2.349,9.827-.035.146-.07.293-.11.438a.87.87,0,0,1-.888.72.857.857,0,0,1-.887-.72c-.181-.711-.343-1.427-.515-2.14-.691-2.872-1.388-5.742-2.068-8.617A5.414,5.414,0,0,1,384,87.691q-.013-9.179-.006-18.358m5.4-15.892h-3.543V87.259h3.543Zm-3.378,35.7,1.529,5.486h.137l1.528-5.486Zm3.375-37.561c.012-.213.029-.377.03-.541.006-.944-.293-1.245-1.238-1.25-.338,0-.679.029-1.013-.006-.933-.1-1.638.27-1.269,1.8Z" transform="translate(-340.61 -42.556)" fill="#12263f"/>
        <path id="Trazado_229166" data-name="Trazado 229166" d="M135.681,3.616h-1.808c0-.277.014-.574,0-.869a.907.907,0,0,0-.927-.935c-.187-.014-.376-.005-.564-.005h-29.3c-1,0-1.286.277-1.288,1.263,0,1.11-.009,2.221,0,3.331,0,.319-.067.479-.428.493-.428.017-.854.1-1.343.17-.015-.182-.038-.341-.038-.5,0-1.261-.008-2.522,0-3.783A2.678,2.678,0,0,1,102.76,0Q117.836,0,132.911,0a2.688,2.688,0,0,1,2.77,2.789c0,.243,0,.486,0,.822" transform="translate(-88.681 0)" fill="#12263f"/>
        <path id="Trazado_229167" data-name="Trazado 229167" d="M193.22,497.739H167.765c.367-.583.708-1.151,1.084-1.7.059-.085.272-.086.414-.086q11.577-.006,23.154-.011c.355,0,.5.115.551.456.059.427.158.847.252,1.336" transform="translate(-148.81 -439.91)" fill="#12263f"/>
        <path id="Trazado_229168" data-name="Trazado 229168" d="M179.17,409.771l-.108-1.754c.231-.011.43-.028.628-.028q9.743,0,19.485,0a2.276,2.276,0,0,1,.506.023.9.9,0,0,1-.01,1.761,1.824,1.824,0,0,1-.394.02H179.623c-.129,0-.258-.012-.453-.022" transform="translate(-158.83 -361.888)" fill="#12263f"/>
        <path id="Trazado_229169" data-name="Trazado 229169" d="M178.071,369.8c-.148-1.134.426-1.8,1.45-1.8h18.622a3.861,3.861,0,0,1,.619.019.864.864,0,0,1,.738.923.853.853,0,0,1-.762.846,2.592,2.592,0,0,1-.45.016H178.071" transform="translate(-157.93 -326.414)" fill="#12263f"/>
        <path id="Trazado_229170" data-name="Trazado 229170" d="M187.607,329.724c.054-.39-.013-.893.165-1a3.822,3.822,0,0,1,1.773-.739c3.762-.066,7.525-.033,11.288-.033,2.032,0,4.064,0,6.1,0,.627,0,.989.288,1.048.8a.89.89,0,0,1-.73.987,2.575,2.575,0,0,1-.45.018q-9.285,0-18.57,0c-.166,0-.333-.014-.62-.027" transform="translate(-166.41 -290.886)" fill="#12263f"/>
        <path id="Trazado_229171" data-name="Trazado 229171" d="M213.873,87.986H230.01a2.448,2.448,0,0,1,.562.025.843.843,0,0,1,.7.9.832.832,0,0,1-.686.853,2.675,2.675,0,0,1-.618.031q-6.778,0-13.556.008a1.188,1.188,0,0,1-.943-.374c-.468-.477-.993-.9-1.6-1.439" transform="translate(-189.708 -78.042)" fill="#12263f"/>
        <path id="Trazado_229172" data-name="Trazado 229172" d="M232.123,289.81c.5-.616.909-1.148,1.351-1.653a.665.665,0,0,1,.454-.143q6.267-.011,12.535,0a.891.891,0,0,1,1.006.9.857.857,0,0,1-.895.893c-4.779.01-9.558.006-14.451.006" transform="translate(-205.896 -255.466)" fill="#12263f"/>
        <path id="Trazado_229173" data-name="Trazado 229173" d="M250.713,128.027c.208-.012.35-.027.492-.027q5.81,0,11.62,0a1.817,1.817,0,0,1,.394.017.9.9,0,0,1,.03,1.764,1.583,1.583,0,0,1-.393.022c-3.591,0-7.182,0-10.773.007a.594.594,0,0,1-.65-.391c-.2-.458-.456-.891-.719-1.392" transform="translate(-222.385 -113.535)" fill="#12263f"/>
        <path id="Trazado_229174" data-name="Trazado 229174" d="M259.427,249.775c.189-.519.349-1.017.559-1.491a.545.545,0,0,1,.411-.255q5.188-.02,10.375,0a.9.9,0,1,1-.011,1.793q-5.548.009-11.1,0a1.582,1.582,0,0,1-.239-.042" transform="translate(-230.115 -219.993)" fill="#12263f"/>
        <path id="Trazado_229175" data-name="Trazado 229175" d="M267.742,168.041c.2-.013.347-.03.495-.03,3.252,0,6.5-.007,9.755.009a1.08,1.08,0,0,1,.763.246,1.348,1.348,0,0,1,.246.91.754.754,0,0,1-.819.631c-.639.011-1.278.007-1.917.007-2.5,0-5-.014-7.5.012-.514.005-.809-.076-.823-.664a7.2,7.2,0,0,0-.2-1.12" transform="translate(-237.49 -149.026)" fill="#12263f"/>
        <path id="Trazado_229176" data-name="Trazado 229176" d="M270.743,209.766l.146-1.733c.179-.014.325-.035.472-.035,3.085,0,6.171-.009,9.256.011a1.392,1.392,0,0,1,.866.294.88.88,0,0,1-.437,1.468,1.412,1.412,0,0,1-.336.029q-4.825,0-9.651,0c-.073,0-.146-.015-.315-.034" transform="translate(-240.152 -184.494)" fill="#12263f"/>
        <path id="Trazado_229177" data-name="Trazado 229177" d="M101.931,130.172l-1.749-.372V108.989l1.749-.371Z" transform="translate(-88.863 -96.345)" fill="#12263f"/>
        <path id="Trazado_229178" data-name="Trazado 229178" d="M156.612,208.044l-.228,1.767h-1.352q-2.958,0-5.917,0c-.69,0-1.11-.364-1.1-.927.013-.543.416-.875,1.088-.876q3.494-.005,6.988,0c.146,0,.292.02.517.036" transform="translate(-131.294 -184.503)" fill="#12263f"/>
        <path id="Trazado_229179" data-name="Trazado 229179" d="M156.388,169.729h-.99q-3.13,0-6.26,0c-.7,0-1.119-.35-1.114-.91s.42-.891,1.131-.892c2.049,0,4.1.012,6.147-.013a.607.607,0,0,1,.711.522c.1.4.227.789.375,1.294" transform="translate(-131.299 -148.941)" fill="#12263f"/>
        <path id="Trazado_229180" data-name="Trazado 229180" d="M155.884,248.159c-.338.51-.658,1.031-1.024,1.517a.706.706,0,0,1-.5.168c-1.613.011-3.227,0-4.84.005a.809.809,0,0,1-.88-.559,1.3,1.3,0,0,1,.122-.882.876.876,0,0,1,.655-.346c2.1-.023,4.205-.009,6.308,0,.029,0,.058.035.16.1" transform="translate(-131.818 -220.023)" fill="#12263f"/>
        <path id="Trazado_229181" data-name="Trazado 229181" d="M154.044,129.786c-1.705,0-3.411.009-5.116-.005a.895.895,0,0,1-.021-1.789c1.088-.02,2.176-.009,3.264,0a.505.505,0,0,1,.314.089c.562.508,1.112,1.03,1.666,1.547l-.107.162" transform="translate(-131.298 -113.52)" fill="#12263f"/>
        <path id="Trazado_229182" data-name="Trazado 229182" d="M148.488,289.16c-.043-.739.226-1.131.759-1.162.626-.037,1.255-.009,1.883-.009l.046.176-2.687.994" transform="translate(-131.707 -255.441)" fill="#12263f"/>
        <path id="Trazado_229183" data-name="Trazado 229183" d="M120.954,465.858a.9.9,0,1,1,.87-.913.889.889,0,0,1-.87.913" transform="translate(-106.463 -411.63)" fill="#12263f"/>
      </g>
    </g>
  </g>
</svg>
