<svg xmlns="http://www.w3.org/2000/svg" xmlns:xlink="http://www.w3.org/1999/xlink" width="93" height="94" viewBox="0 0 93 94">
  <defs>
    <clipPath id="clip-path">
      <rect id="Rectángulo_57641" data-name="Rectángulo 57641" width="60.965" height="55.825" fill="#12263f"/>
    </clipPath>
  </defs>
  <g id="Grupo_179392" data-name="Grupo 179392" transform="translate(0.275 -0.334)">
    <ellipse id="Elipse_4870" data-name="Elipse 4870" cx="46.5" cy="47" rx="46.5" ry="47" transform="translate(-0.275 0.334)" fill="#26aab7"/>
    <g id="Grupo_179405" data-name="Grupo 179405" transform="translate(20.211 22.817)">
      <g id="Grupo_179404" data-name="Grupo 179404" clip-path="url(#clip-path)">
        <path id="Trazado_228364" data-name="Trazado 228364" d="M60.965,53.15a8.006,8.006,0,0,1-.813,1.562,3.2,3.2,0,0,1-5.232-.554,1.283,1.283,0,0,0-.819-.628,3.89,3.89,0,0,1-1.353-.8c-1.711-1.655-3.381-3.353-5.061-5.041a3.286,3.286,0,0,1-.32-.43c-1.148.546-2.155,1.1-3.215,1.518a17.656,17.656,0,0,1-21.838-7.737A.9.9,0,0,0,21.4,40.5q-8.87.024-17.741.01C1.25,40.508,0,39.251,0,36.834Q0,20.108,0,3.383A3.154,3.154,0,0,1,2.346.13,4.965,4.965,0,0,1,3.583.006q4.762-.014,9.525,0A3.174,3.174,0,0,1,13.7.036a.787.787,0,0,1,.7.885.8.8,0,0,1-.743.795,3.489,3.489,0,0,1-.535.012H3.658c-1.447,0-1.911.47-1.913,1.935q0,1.994,0,3.988v.676H52.7a1.38,1.38,0,0,0,.044-.236c0-1.607.012-3.214,0-4.821a1.451,1.451,0,0,0-1.472-1.537c-.2-.012-.4,0-.6,0H18.474c-.945,0-1.343-.261-1.334-.873S17.53,0,18.443,0q16.223,0,32.445,0a5.043,5.043,0,0,1,1.238.117,3.162,3.162,0,0,1,2.37,3.24q.015,7.708,0,15.416c0,.721-.315,1.128-.853,1.144-.558.017-.893-.408-.894-1.155q0-3.988,0-7.976v-.675H1.744v.662q0,13.065,0,26.13c0,1.377.476,1.843,1.868,1.843H21.181a17.738,17.738,0,0,1,.934-14.8A17.33,17.33,0,0,1,29.96,16.4,17.726,17.726,0,0,1,52.444,42.181c1.156,1.142,2.327,2.295,3.494,3.452.662.656,1.365,1.28,1.961,1.993a8.679,8.679,0,0,1,.839,1.528c.078.146.123.372.244.425a3.617,3.617,0,0,1,1.983,2.381ZM53.637,32.319a15.939,15.939,0,1,0-15.974,15.95,15.932,15.932,0,0,0,15.974-15.95M51.43,43.6,48.821,46.37c1.67,1.67,3.443,3.458,5.24,5.221a1.156,1.156,0,0,0,.746.259c.954,0,1.164.171,1.494,1.086a2.061,2.061,0,0,0,.68.919,1.324,1.324,0,0,0,1.614-.048,1.508,1.508,0,0,0-.474-2.671c-.991-.3-1.1-.461-1.1-1.511a1.082,1.082,0,0,0-.253-.693C55,47.14,53.207,45.369,51.43,43.6" transform="translate(0 0)" fill="#12263f"/>
        <path id="Trazado_228365" data-name="Trazado 228365" d="M30.428,108.556a8.307,8.307,0,1,1,8.358,8.29,8.316,8.316,0,0,1-8.358-8.29m7.4,6.233v-5.341H35.821a8.6,8.6,0,0,0,2.007,5.341m0-7.161V102.3a8.5,8.5,0,0,0-2,5.331Zm1.828,7.147a8.5,8.5,0,0,0,1.985-5.331H39.654Zm0-12.486v5.322h2a8.607,8.607,0,0,0-2-5.322m-4.659,11.642-1.037-4.487H32.23a6.55,6.55,0,0,0,2.762,4.487m8.523-4.5-1.024,4.49a6.544,6.544,0,0,0,2.748-4.49Zm-1.033-6.289,1.033,4.477h1.726a6.541,6.541,0,0,0-2.759-4.477m-8.533,4.485,1.042-4.461c-1.479.943-2.766,3.051-2.667,4.461Z" transform="translate(-26.797 -88.274)" fill="#12263f"/>
        <path id="Trazado_228366" data-name="Trazado 228366" d="M44.8,266.95q-2.734,0-5.468,0c-.714,0-1.121-.315-1.134-.854s.4-.887,1.1-.888q5.5-.007,11,0c.723,0,1.1.323,1.092.887s-.4.854-1.121.856q-2.734.005-5.468,0" transform="translate(-33.642 -233.563)" fill="#12263f"/>
        <path id="Trazado_228367" data-name="Trazado 228367" d="M40.847,298.166c-.575,0-1.151.013-1.726,0a.87.87,0,0,1-.921-.879.86.86,0,0,1,.909-.829c1.15-.016,2.3-.018,3.452,0a.806.806,0,0,1,.875.844.834.834,0,0,1-.923.862c-.555.015-1.111,0-1.666,0" transform="translate(-33.643 -261.076)" fill="#12263f"/>
        <path id="Trazado_228368" data-name="Trazado 228368" d="M40.875,35.278a1.218,1.218,0,0,1,1.261-1.215,1.248,1.248,0,0,1,1.231,1.257,1.266,1.266,0,0,1-1.273,1.224,1.238,1.238,0,0,1-1.219-1.266" transform="translate(-35.999 -29.999)" fill="#12263f"/>
        <path id="Trazado_228369" data-name="Trazado 228369" d="M80.8,35.31a1.216,1.216,0,0,1,1.232-1.243,1.244,1.244,0,0,1,1.26,1.228,1.269,1.269,0,0,1-1.244,1.255A1.242,1.242,0,0,1,80.8,35.31" transform="translate(-71.161 -30.003)" fill="#12263f"/>
        <path id="Trazado_228370" data-name="Trazado 228370" d="M120.723,35.311a1.216,1.216,0,0,1,1.232-1.243,1.245,1.245,0,0,1,1.26,1.228,1.269,1.269,0,0,1-1.244,1.255,1.241,1.241,0,0,1-1.248-1.24" transform="translate(-106.32 -30.003)" fill="#12263f"/>
        <path id="Trazado_228371" data-name="Trazado 228371" d="M196.9,166A14.2,14.2,0,1,1,211.433,180.2c-.1,0-.2.006-.3,0a.87.87,0,0,1-.9-.836.894.894,0,0,1,.867-.876,25.644,25.644,0,0,0,3.8-.624,12.435,12.435,0,1,0-8.18-.179c.037.014.076.024.113.038.72.273,1.006.7.818,1.215-.2.536-.676.681-1.4.423a13.721,13.721,0,0,1-5.216-3.339A14.073,14.073,0,0,1,196.9,166" transform="translate(-173.406 -133.701)" fill="#12263f"/>
      </g>
    </g>
  </g>
</svg>
