<svg xmlns="http://www.w3.org/2000/svg" xmlns:xlink="http://www.w3.org/1999/xlink" width="273.494" height="176.464" viewBox="0 0 273.494 176.464">
  <defs>
    <linearGradient id="linear-gradient" x1="0.5" x2="0.5" y2="1" gradientUnits="objectBoundingBox">
      <stop offset="0" stop-color="#fff"/>
      <stop offset="1" stop-color="#d2e6ee"/>
    </linearGradient>
  </defs>
  <g id="Grupo_891394" data-name="Grupo 891394" transform="translate(-603.432 -966.92)">
    <path id="Trazado_196774" data-name="Trazado 196774" d="M603.475,1077.1H761.328a.043.043,0,0,1,.043.043v96.628a.043.043,0,0,1-.043.043H603.475a.043.043,0,0,1-.043-.043v-96.628a.043.043,0,0,1,.043-.043" transform="translate(0 -95.771)" fill-rule="evenodd" fill="url(#linear-gradient)"/>
    <path id="Trazado_196775" data-name="Trazado 196775" d="M1093.294,1750.962h46.013a.944.944,0,0,0,.941-.941h0a.944.944,0,0,0-.941-.941h-46.013a.944.944,0,0,0-.941.941h0a.944.944,0,0,0,.941.941" transform="translate(-424.991 -679.886)" fill="#2ec49f" fill-rule="evenodd"/>
    <path id="Trazado_196776" data-name="Trazado 196776" d="M1484.146,1750.962h11.3a.944.944,0,0,0,.941-.941h0a.944.944,0,0,0-.941-.941h-11.3a.944.944,0,0,0-.941.941h0a.944.944,0,0,0,.941.941" transform="translate(-764.736 -679.886)" fill="#12263f" fill-rule="evenodd"/>
    <path id="Trazado_196777" data-name="Trazado 196777" d="M1055.183,1719.626h11.3a.944.944,0,0,0,.941-.941h0a.944.944,0,0,0-.941-.941h-11.3a.944.944,0,0,0-.941.941h0a.944.944,0,0,0,.941.941" transform="translate(-391.863 -652.647)" fill="#fff" fill-rule="evenodd"/>
    <path id="Trazado_196778" data-name="Trazado 196778" d="M1093.294,1688.29h16.944a.944.944,0,0,0,.941-.941h0a.944.944,0,0,0-.941-.941h-16.944a.944.944,0,0,0-.941.941h0a.944.944,0,0,0,.941.941" transform="translate(-424.991 -625.408)" fill="#12263f" fill-rule="evenodd"/>
    <path id="Trazado_196779" data-name="Trazado 196779" d="M1093.718,1656.954h13.9a.944.944,0,0,0,.941-.941h0a.944.944,0,0,0-.941-.941h-13.9a.944.944,0,0,0-.941.941h0a.944.944,0,0,0,.941.941" transform="translate(-425.359 -598.17)" fill="#12263f" fill-rule="evenodd"/>
    <path id="Trazado_196780" data-name="Trazado 196780" d="M1093.717,1625.617h42.192a.944.944,0,0,0,.941-.942h0a.944.944,0,0,0-.941-.941h-42.192a.944.944,0,0,0-.941.941h0a.944.944,0,0,0,.941.942" transform="translate(-425.359 -570.93)" fill="#12263f" fill-rule="evenodd"/>
    <path id="Trazado_196781" data-name="Trazado 196781" d="M1263.1,1688.29h11.074a.944.944,0,0,0,.941-.941h0a.944.944,0,0,0-.941-.941H1263.1a.944.944,0,0,0-.941.941h0a.944.944,0,0,0,.941.941" transform="translate(-572.594 -625.408)" fill="#12263f" fill-rule="evenodd"/>
    <path id="Trazado_196782" data-name="Trazado 196782" d="M1231.131,1656.954h32.918a.944.944,0,0,0,.941-.941h0a.944.944,0,0,0-.941-.941h-32.918a.944.944,0,0,0-.941.941h0a.944.944,0,0,0,.941.941" transform="translate(-544.805 -598.17)" fill="#2ec49f" fill-rule="evenodd"/>
    <path id="Trazado_196783" data-name="Trazado 196783" d="M1520.776,1656.954h8.832a.944.944,0,0,0,.941-.941h0a.944.944,0,0,0-.941-.941h-8.832a.944.944,0,0,0-.941.941h0a.944.944,0,0,0,.941.941" transform="translate(-796.576 -598.17)" fill="#6cd6ff" fill-rule="evenodd"/>
    <path id="Trazado_196784" data-name="Trazado 196784" d="M1623.677,1656.954h8.832a.944.944,0,0,0,.941-.941h0a.944.944,0,0,0-.941-.941h-8.832a.944.944,0,0,0-.941.941h0a.944.944,0,0,0,.941.941" transform="translate(-886.022 -598.17)" fill="#ffca05" fill-rule="evenodd"/>
    <path id="Trazado_196785" data-name="Trazado 196785" d="M1093.294,1318.645h16.944a.944.944,0,0,0,.941-.941h0a.944.944,0,0,0-.941-.941h-16.944a.944.944,0,0,0-.941.941h0a.944.944,0,0,0,.941.941" transform="translate(-424.991 -304.098)" fill="#12263f" fill-rule="evenodd"/>
    <path id="Trazado_196786" data-name="Trazado 196786" d="M1093.718,1287.31h13.9a.944.944,0,0,0,.941-.941h0a.944.944,0,0,0-.941-.941h-13.9a.944.944,0,0,0-.941.941h0a.944.944,0,0,0,.941.941" transform="translate(-425.359 -276.86)" fill="#12263f" fill-rule="evenodd"/>
    <path id="Trazado_196787" data-name="Trazado 196787" d="M1093.717,1255.973h42.192a.944.944,0,0,0,.941-.941h0a.944.944,0,0,0-.941-.941h-42.192a.944.944,0,0,0-.941.941h0a.944.944,0,0,0,.941.941" transform="translate(-425.359 -249.62)" fill="#1565c0" fill-rule="evenodd"/>
    <path id="Trazado_196788" data-name="Trazado 196788" d="M1263.1,1318.645h11.074a.944.944,0,0,0,.941-.941h0a.944.944,0,0,0-.941-.941H1263.1a.944.944,0,0,0-.941.941h0a.944.944,0,0,0,.941.941" transform="translate(-572.594 -304.098)" fill="#12263f" fill-rule="evenodd"/>
    <path id="Trazado_196789" data-name="Trazado 196789" d="M1231.131,1287.31h32.918a.944.944,0,0,0,.941-.941h0a.944.944,0,0,0-.941-.941h-32.918a.944.944,0,0,0-.941.941h0a.944.944,0,0,0,.941.941" transform="translate(-544.805 -276.86)" fill="#2ec49f" fill-rule="evenodd"/>
    <path id="Trazado_196790" data-name="Trazado 196790" d="M1520.776,1287.31h8.832a.944.944,0,0,0,.941-.941h0a.944.944,0,0,0-.941-.941h-8.832a.944.944,0,0,0-.941.941h0a.944.944,0,0,0,.941.941" transform="translate(-796.576 -276.86)" fill="#ffca05" fill-rule="evenodd"/>
    <path id="Trazado_196791" data-name="Trazado 196791" d="M1623.677,1287.31h8.832a.944.944,0,0,0,.941-.941h0a.944.944,0,0,0-.941-.941h-8.832a.944.944,0,0,0-.941.941h0a.944.944,0,0,0,.941.941" transform="translate(-886.022 -276.86)" fill="#12263f" fill-rule="evenodd"/>
    <path id="Trazado_196792" data-name="Trazado 196792" d="M1095.407,1552.2h11.3a.944.944,0,0,0,.941-.941h0a.944.944,0,0,0-.941-.941h-11.3a.944.944,0,0,0-.941.941h0a.944.944,0,0,0,.941.941" transform="translate(-426.827 -507.112)" fill="#12263f" fill-rule="evenodd"/>
    <path id="Trazado_196793" data-name="Trazado 196793" d="M1093.294,1520.862h16.944a.944.944,0,0,0,.941-.941h0a.944.944,0,0,0-.941-.941h-16.944a.944.944,0,0,0-.941.941h0a.944.944,0,0,0,.941.941" transform="translate(-424.991 -479.873)" fill="#12263f" fill-rule="evenodd"/>
    <path id="Trazado_196794" data-name="Trazado 196794" d="M1093.718,1489.526h13.9a.944.944,0,0,0,.941-.941h0a.944.944,0,0,0-.941-.941h-13.9a.944.944,0,0,0-.941.941h0a.944.944,0,0,0,.941.941" transform="translate(-425.359 -452.635)" fill="#12263f" fill-rule="evenodd"/>
    <path id="Trazado_196795" data-name="Trazado 196795" d="M1093.717,1458.19h18.233a.944.944,0,0,0,.941-.941h0a.944.944,0,0,0-.941-.941h-18.233a.944.944,0,0,0-.941.941h0a.944.944,0,0,0,.941.941" transform="translate(-425.359 -425.396)" fill="#ffca05" fill-rule="evenodd"/>
    <path id="Trazado_196796" data-name="Trazado 196796" d="M1263.1,1520.862h11.074a.944.944,0,0,0,.941-.941h0a.944.944,0,0,0-.941-.941H1263.1a.944.944,0,0,0-.941.941h0a.944.944,0,0,0,.941.941" transform="translate(-572.594 -479.873)" fill="#12263f" fill-rule="evenodd"/>
    <path id="Trazado_196797" data-name="Trazado 196797" d="M1231.131,1489.526h32.918a.944.944,0,0,0,.941-.941h0a.944.944,0,0,0-.941-.941h-32.918a.944.944,0,0,0-.941.941h0a.944.944,0,0,0,.941.941" transform="translate(-544.805 -452.635)" fill="#1565c0" fill-rule="evenodd"/>
    <path id="Trazado_196798" data-name="Trazado 196798" d="M1520.776,1489.526h8.832a.944.944,0,0,0,.941-.941h0a.944.944,0,0,0-.941-.941h-8.832a.944.944,0,0,0-.941.941h0a.944.944,0,0,0,.941.941" transform="translate(-796.576 -452.635)" fill="#12263f" fill-rule="evenodd"/>
    <path id="Trazado_196799" data-name="Trazado 196799" d="M1623.677,1489.526h8.832a.944.944,0,0,0,.941-.941h0a.944.944,0,0,0-.941-.941h-8.832a.944.944,0,0,0-.941.941h0a.944.944,0,0,0,.941.941" transform="translate(-886.022 -452.635)" fill="#12263f" fill-rule="evenodd"/>
    <path id="Trazado_196800" data-name="Trazado 196800" d="M1196.406,1223.552h32.918a.944.944,0,0,0,.941-.941h0a.944.944,0,0,0-.941-.941h-32.918a.944.944,0,0,0-.941.941h0a.944.944,0,0,0,.941.941" transform="translate(-514.62 -221.439)" fill="#12263f" fill-rule="evenodd"/>
    <path id="Trazado_196801" data-name="Trazado 196801" d="M1486.052,1223.552h8.832a.944.944,0,0,0,.941-.941h0a.944.944,0,0,0-.941-.941h-8.832a.944.944,0,0,0-.941.941h0a.944.944,0,0,0,.941.941" transform="translate(-766.393 -221.439)" fill="#12263f" fill-rule="evenodd"/>
    <path id="Trazado_196802" data-name="Trazado 196802" d="M1588.953,1223.552h8.831a.944.944,0,0,0,.942-.941h0a.944.944,0,0,0-.942-.941h-8.831a.944.944,0,0,0-.941.941h0a.944.944,0,0,0,.941.941" transform="translate(-855.839 -221.439)" fill="#12263f" fill-rule="evenodd"/>
    <path id="Trazado_196803" data-name="Trazado 196803" d="M1196.406,1193.909h14.4a.944.944,0,0,0,.941-.941h0a.944.944,0,0,0-.941-.941h-14.4a.944.944,0,0,0-.941.941h0a.944.944,0,0,0,.941.941" transform="translate(-514.62 -195.671)" fill="#2ec49f" fill-rule="evenodd"/>
    <path id="Trazado_196804" data-name="Trazado 196804" d="M1345.041,1193.909h22.591a.944.944,0,0,0,.941-.941h0a.944.944,0,0,0-.941-.941h-22.591a.944.944,0,0,0-.941.941h0a.944.944,0,0,0,.941.941" transform="translate(-643.82 -195.671)" fill="#5793ce" fill-rule="evenodd"/>
    <path id="Trazado_196805" data-name="Trazado 196805" d="M1561.953,1193.909h19.034a.944.944,0,0,0,.942-.941h0a.944.944,0,0,0-.942-.941h-19.034a.944.944,0,0,0-.941.941h0a.944.944,0,0,0,.941.941" transform="translate(-832.369 -195.671)" fill="#12263f" fill-rule="evenodd"/>
    <path id="Trazado_196806" data-name="Trazado 196806" d="M1196.406,1426.926h32.918a.944.944,0,0,0,.941-.941h0a.944.944,0,0,0-.941-.941h-32.918a.944.944,0,0,0-.941.941h0a.944.944,0,0,0,.941.941" transform="translate(-514.62 -398.22)" fill="#12263f" fill-rule="evenodd"/>
    <path id="Trazado_196807" data-name="Trazado 196807" d="M1486.052,1426.926h8.832a.944.944,0,0,0,.941-.941h0a.944.944,0,0,0-.941-.941h-8.832a.944.944,0,0,0-.941.941h0a.944.944,0,0,0,.941.941" transform="translate(-766.393 -398.22)" fill="#12263f" fill-rule="evenodd"/>
    <path id="Trazado_196808" data-name="Trazado 196808" d="M1588.953,1426.926h8.831a.944.944,0,0,0,.942-.941h0a.944.944,0,0,0-.942-.941h-8.831a.944.944,0,0,0-.941.941h0a.944.944,0,0,0,.941.941" transform="translate(-855.839 -398.22)" fill="#12263f" fill-rule="evenodd"/>
    <path id="Trazado_196809" data-name="Trazado 196809" d="M1196.406,1393.683h14.4a.944.944,0,0,0,.941-.941h0a.944.944,0,0,0-.941-.941h-14.4a.944.944,0,0,0-.941.941h0a.944.944,0,0,0,.941.941" transform="translate(-514.62 -369.324)" fill="#12263f" fill-rule="evenodd"/>
    <path id="Trazado_196810" data-name="Trazado 196810" d="M1345.041,1393.683h22.591a.944.944,0,0,0,.941-.941h0a.944.944,0,0,0-.941-.941h-22.591a.944.944,0,0,0-.941.941h0a.944.944,0,0,0,.941.941" transform="translate(-643.82 -369.324)" fill="#12263f" fill-rule="evenodd"/>
    <path id="Trazado_196811" data-name="Trazado 196811" d="M1561.953,1393.683h19.034a.944.944,0,0,0,.942-.941h0a.944.944,0,0,0-.942-.941h-19.034a.944.944,0,0,0-.941.941h0a.944.944,0,0,0,.941.941" transform="translate(-832.369 -369.324)" fill="#12263f" fill-rule="evenodd"/>
    <rect id="Rectángulo_46139" data-name="Rectángulo 46139" width="27.979" height="86.661" transform="translate(610.346 988.027)" fill="#031542"/>
    <path id="Trazado_196812" data-name="Trazado 196812" d="M1263.193,1458.19h9.815a.944.944,0,0,0,.941-.941h0a.944.944,0,0,0-.941-.941h-9.815a.944.944,0,0,0-.941.941h0a.944.944,0,0,0,.941.941" transform="translate(-572.674 -425.396)" fill="#1565c0" fill-rule="evenodd"/>
    <path id="Trazado_196813" data-name="Trazado 196813" d="M1364.5,1458.19h9.815a.944.944,0,0,0,.941-.941h0a.944.944,0,0,0-.941-.941H1364.5a.944.944,0,0,0-.941.941h0a.944.944,0,0,0,.941.941" transform="translate(-660.735 -425.396)" fill="#1565c0" fill-rule="evenodd"/>
    <path id="Trazado_196814" data-name="Trazado 196814" d="M1055.183,1357.99h14.544a.944.944,0,0,0,.942-.941h0a.944.944,0,0,0-.942-.942h-14.544a.944.944,0,0,0-.941.942h0a.944.944,0,0,0,.941.941" transform="translate(-391.863 -338.298)" fill="#12263f" fill-rule="evenodd"/>
    <path id="Trazado_196815" data-name="Trazado 196815" d="M1196.444,1357.99h9.814a.944.944,0,0,0,.941-.941h0a.944.944,0,0,0-.941-.942h-9.814a.944.944,0,0,0-.942.942h0a.944.944,0,0,0,.942.941" transform="translate(-514.653 -338.298)" fill="#12263f" fill-rule="evenodd"/>
    <path id="Trazado_196816" data-name="Trazado 196816" d="M1305.325,1357.99h9.814a.944.944,0,0,0,.941-.941h0a.944.944,0,0,0-.941-.942h-9.814a.944.944,0,0,0-.941.942h0a.944.944,0,0,0,.941.941" transform="translate(-609.297 -338.298)" fill="#12263f" fill-rule="evenodd"/>
    <path id="Trazado_196817" data-name="Trazado 196817" d="M713.144,1583.458h6.233a.911.911,0,0,0,.909-.909h0a.911.911,0,0,0-.909-.909h-6.233a.911.911,0,0,0-.909.909h0a.911.911,0,0,0,.909.909" transform="translate(-94.576 -534.341)" fill="#e8f6fd" fill-rule="evenodd"/>
    <path id="Trazado_196818" data-name="Trazado 196818" d="M684.355,1549.042h16.481a.911.911,0,0,0,.909-.909h0a.911.911,0,0,0-.909-.908H684.355a.911.911,0,0,0-.909.908h0a.911.911,0,0,0,.909.909" transform="translate(-69.552 -504.426)" fill="#e8f6fd" fill-rule="evenodd"/>
    <path id="Trazado_196819" data-name="Trazado 196819" d="M684.355,1512.61h12.56a.911.911,0,0,0,.909-.909h0a.911.911,0,0,0-.909-.909h-12.56a.911.911,0,0,0-.909.909h0a.911.911,0,0,0,.909.909" transform="translate(-69.552 -472.757)" fill="#e8f6fd" fill-rule="evenodd"/>
    <path id="Trazado_196820" data-name="Trazado 196820" d="M713.145,1476.177H725.68a.911.911,0,0,0,.909-.909h0a.911.911,0,0,0-.909-.909H713.145a.911.911,0,0,0-.909.909h0a.911.911,0,0,0,.909.909" transform="translate(-94.577 -441.088)" fill="#e8f6fd" fill-rule="evenodd"/>
    <path id="Trazado_196821" data-name="Trazado 196821" d="M713.146,1439.746h3.992a.911.911,0,0,0,.909-.909h0a.911.911,0,0,0-.909-.909h-3.992a.911.911,0,0,0-.909.909h0a.911.911,0,0,0,.909.909" transform="translate(-94.578 -409.421)" fill="#e8f6fd" fill-rule="evenodd"/>
    <path id="Trazado_196822" data-name="Trazado 196822" d="M684.355,1403.314h11.919a.911.911,0,0,0,.909-.909h0a.911.911,0,0,0-.909-.909H684.355a.911.911,0,0,0-.909.909h0a.911.911,0,0,0,.909.909" transform="translate(-69.552 -377.753)" fill="#e8f6fd" fill-rule="evenodd"/>
    <path id="Trazado_196823" data-name="Trazado 196823" d="M712.6,1366.881h3.263a.911.911,0,0,0,.909-.909h0a.911.911,0,0,0-.909-.909H712.6a.911.911,0,0,0-.909.909h0a.911.911,0,0,0,.909.909" transform="translate(-94.106 -346.083)" fill="#e8f6fd" fill-rule="evenodd"/>
    <path id="Trazado_196824" data-name="Trazado 196824" d="M709.277,1330.45H722.5a.911.911,0,0,0,.909-.909h0a.911.911,0,0,0-.909-.909H709.277a.911.911,0,0,0-.909.909h0a.911.911,0,0,0,.909.909" transform="translate(-91.215 -314.415)" fill="#e8f6fd" fill-rule="evenodd"/>
    <path id="Trazado_196825" data-name="Trazado 196825" d="M684.355,1294.018h10.518a.912.912,0,0,0,.909-.909h0a.911.911,0,0,0-.909-.908H684.355a.911.911,0,0,0-.909.908h0a.912.912,0,0,0,.909.909" transform="translate(-69.552 -282.747)" fill="#e8f6fd" fill-rule="evenodd"/>
    <path id="Trazado_196826" data-name="Trazado 196826" d="M709.277,1257.586H722.5a.911.911,0,0,0,.909-.909h0a.911.911,0,0,0-.909-.909H709.277a.911.911,0,0,0-.909.909h0a.911.911,0,0,0,.909.909" transform="translate(-91.215 -251.079)" fill="#e8f6fd" fill-rule="evenodd"/>
    <path id="Trazado_196827" data-name="Trazado 196827" d="M709.277,1221.153h8.06a.911.911,0,0,0,.909-.909h0a.911.911,0,0,0-.909-.909h-8.06a.911.911,0,0,0-.909.909h0a.911.911,0,0,0,.909.909" transform="translate(-91.215 -219.411)" fill="#e8f6fd" fill-rule="evenodd"/>
    <path id="Trazado_196828" data-name="Trazado 196828" d="M684.355,1184.722h5.8a.911.911,0,0,0,.909-.909h0a.911.911,0,0,0-.909-.909h-5.8a.911.911,0,0,0-.909.909h0a.911.911,0,0,0,.909.909" transform="translate(-69.552 -187.742)" fill="#e8f6fd" fill-rule="evenodd"/>
    <path id="Trazado_196829" data-name="Trazado 196829" d="M713.144,1615.648h6.233a.911.911,0,0,0,.909-.909h0a.911.911,0,0,0-.909-.909h-6.233a.911.911,0,0,0-.909.909h0a.911.911,0,0,0,.909.909" transform="translate(-94.576 -562.322)" fill="#e8f6fd" fill-rule="evenodd"/>
    <path id="Trazado_196830" data-name="Trazado 196830" d="M684.355,1647.839H700.28a.911.911,0,0,0,.909-.909h0a.911.911,0,0,0-.909-.909H684.355a.911.911,0,0,0-.909.909h0a.911.911,0,0,0,.909.909" transform="translate(-69.552 -590.304)" fill="#e8f6fd" fill-rule="evenodd"/>
    <path id="Trazado_196831" data-name="Trazado 196831" d="M713.144,1680.03h6.233a.911.911,0,0,0,.909-.909h0a.911.911,0,0,0-.909-.909h-6.233a.911.911,0,0,0-.909.909h0a.911.911,0,0,0,.909.909" transform="translate(-94.576 -618.286)" fill="#e8f6fd" fill-rule="evenodd"/>
    <path id="Trazado_196832" data-name="Trazado 196832" d="M1093.718,1223.552h9.246a.944.944,0,0,0,.941-.941h0a.944.944,0,0,0-.941-.941h-9.246a.944.944,0,0,0-.941.941h0a.944.944,0,0,0,.941.941" transform="translate(-425.359 -221.439)" fill="#12263f" fill-rule="evenodd"/>
    <path id="Trazado_196833" data-name="Trazado 196833" d="M1021.858,1193.909h18.363a.944.944,0,0,0,.941-.941h0a.944.944,0,0,0-.941-.941h-18.363a.944.944,0,0,0-.941.941h0a.944.944,0,0,0,.941.941" transform="translate(-362.896 -195.671)" fill="#12263f" fill-rule="evenodd"/>
    <path id="Trazado_196834" data-name="Trazado 196834" d="M1021.858,1157.228h24.183a.944.944,0,0,0,.942-.941h0a.944.944,0,0,0-.942-.941h-24.183a.944.944,0,0,0-.941.941h0a.944.944,0,0,0,.941.941" transform="translate(-362.896 -163.788)" fill="#12263f" fill-rule="evenodd"/>
    <path id="Trazado_196835" data-name="Trazado 196835" d="M945.459,1157.228h.885a.944.944,0,0,0,.941-.941h0a.944.944,0,0,0-.941-.941h-.885a.944.944,0,0,0-.941.941h0a.944.944,0,0,0,.941.941" transform="translate(-296.487 -163.788)" fill="#b1cbef" fill-rule="evenodd"/>
    <path id="Trazado_196836" data-name="Trazado 196836" d="M945.459,1193.909h.885a.944.944,0,0,0,.941-.941h0a.944.944,0,0,0-.941-.941h-.885a.944.944,0,0,0-.941.941h0a.944.944,0,0,0,.941.941" transform="translate(-296.487 -195.671)" fill="#b1cbef" fill-rule="evenodd"/>
    <path id="Trazado_196837" data-name="Trazado 196837" d="M944.172,1318.645h.768a.944.944,0,0,0,.941-.941h0a.944.944,0,0,0-.941-.941h-.768a.944.944,0,0,0-.941.941h0a.944.944,0,0,0,.941.941" transform="translate(-295.368 -304.098)" fill="#b1cbef" fill-rule="evenodd"/>
    <path id="Trazado_196838" data-name="Trazado 196838" d="M944.6,1287.31h.712a.944.944,0,0,0,.941-.941h0a.944.944,0,0,0-.941-.941H944.6a.944.944,0,0,0-.941.941h0a.944.944,0,0,0,.941.941" transform="translate(-295.736 -276.86)" fill="#b1cbef" fill-rule="evenodd"/>
    <path id="Trazado_196839" data-name="Trazado 196839" d="M944.6,1255.973h.712a.944.944,0,0,0,.941-.941h0a.944.944,0,0,0-.941-.941H944.6a.944.944,0,0,0-.941.941h0a.944.944,0,0,0,.941.941" transform="translate(-295.736 -249.62)" fill="#b1cbef" fill-rule="evenodd"/>
    <path id="Trazado_196840" data-name="Trazado 196840" d="M944.6,1223.552h.712a.944.944,0,0,0,.941-.941h0a.944.944,0,0,0-.941-.941H944.6a.944.944,0,0,0-.941.941h0a.944.944,0,0,0,.941.941" transform="translate(-295.736 -221.439)" fill="#b1cbef" fill-rule="evenodd"/>
    <path id="Trazado_196841" data-name="Trazado 196841" d="M945.005,1426.926h.659a.944.944,0,0,0,.941-.941h0a.944.944,0,0,0-.941-.941h-.659a.944.944,0,0,0-.941.941h0a.944.944,0,0,0,.941.941" transform="translate(-296.092 -398.22)" fill="#b1cbef" fill-rule="evenodd"/>
    <path id="Trazado_196842" data-name="Trazado 196842" d="M945.005,1393.683h.659a.944.944,0,0,0,.941-.941h0a.944.944,0,0,0-.941-.941h-.659a.944.944,0,0,0-.941.941h0a.944.944,0,0,0,.941.941" transform="translate(-296.092 -369.324)" fill="#b1cbef" fill-rule="evenodd"/>
    <path id="Trazado_196843" data-name="Trazado 196843" d="M945.043,1357.99h.654a.944.944,0,0,0,.941-.941h0a.944.944,0,0,0-.941-.942h-.654a.944.944,0,0,0-.941.942h0a.944.944,0,0,0,.941.941" transform="translate(-296.125 -338.298)" fill="#b1cbef" fill-rule="evenodd"/>
    <path id="Trazado_196844" data-name="Trazado 196844" d="M947.184,1552.2h.374a.944.944,0,0,0,.941-.941h0a.944.944,0,0,0-.941-.941h-.374a.944.944,0,0,0-.941.941h0a.944.944,0,0,0,.941.941" transform="translate(-297.986 -507.112)" fill="#b1cbef" fill-rule="evenodd"/>
    <path id="Trazado_196845" data-name="Trazado 196845" d="M945.005,1520.862h.659a.944.944,0,0,0,.941-.941h0a.944.944,0,0,0-.941-.941h-.659a.944.944,0,0,0-.941.941h0a.944.944,0,0,0,.941.941" transform="translate(-296.092 -479.873)" fill="#b1cbef" fill-rule="evenodd"/>
    <path id="Trazado_196846" data-name="Trazado 196846" d="M945.442,1489.526h.6a.944.944,0,0,0,.941-.941h0a.944.944,0,0,0-.941-.941h-.6a.944.944,0,0,0-.941.941h0a.944.944,0,0,0,.941.941" transform="translate(-296.472 -452.635)" fill="#b1cbef" fill-rule="evenodd"/>
    <path id="Trazado_196847" data-name="Trazado 196847" d="M945.44,1458.19h.6a.944.944,0,0,0,.941-.941h0a.944.944,0,0,0-.941-.941h-.6a.944.944,0,0,0-.941.941h0a.944.944,0,0,0,.941.941" transform="translate(-296.47 -425.396)" fill="#b1cbef" fill-rule="evenodd"/>
    <path id="Trazado_196848" data-name="Trazado 196848" d="M947.938,1719.626h.276a.944.944,0,0,0,.941-.941h0a.944.944,0,0,0-.941-.941h-.276a.944.944,0,0,0-.941.941h0a.944.944,0,0,0,.941.941" transform="translate(-298.641 -652.647)" fill="#b1cbef" fill-rule="evenodd"/>
    <path id="Trazado_196849" data-name="Trazado 196849" d="M947.937,1688.29h.276a.944.944,0,0,0,.941-.941h0a.944.944,0,0,0-.941-.941h-.276a.944.944,0,0,0-.941.941h0a.944.944,0,0,0,.941.941" transform="translate(-298.641 -625.408)" fill="#b1cbef" fill-rule="evenodd"/>
    <path id="Trazado_196850" data-name="Trazado 196850" d="M947.669,1656.954h.311a.944.944,0,0,0,.941-.941h0a.944.944,0,0,0-.941-.941h-.311a.944.944,0,0,0-.941.941h0a.944.944,0,0,0,.941.941" transform="translate(-298.408 -598.17)" fill="#b1cbef" fill-rule="evenodd"/>
    <path id="Trazado_196851" data-name="Trazado 196851" d="M947.184,1625.617h.374a.944.944,0,0,0,.941-.942h0a.944.944,0,0,0-.941-.941h-.374a.944.944,0,0,0-.941.941h0a.944.944,0,0,0,.941.942" transform="translate(-297.986 -570.93)" fill="#b1cbef" fill-rule="evenodd"/>
    <path id="Trazado_196852" data-name="Trazado 196852" d="M947.184,1594.071h.374a.944.944,0,0,0,.941-.941h0a.944.944,0,0,0-.941-.941h-.374a.944.944,0,0,0-.941.941h0a.944.944,0,0,0,.941.941" transform="translate(-297.986 -543.509)" fill="#b1cbef" fill-rule="evenodd"/>
    <rect id="Rectángulo_46140" data-name="Rectángulo 46140" width="157.939" height="5.449" transform="translate(603.432 975.897)" fill="#12263f"/>
    <rect id="Rectángulo_46141" data-name="Rectángulo 46141" width="1.657" height="1.657" transform="translate(750.192 977.437)" fill="#fff"/>
    <rect id="Rectángulo_46142" data-name="Rectángulo 46142" width="1.657" height="1.657" transform="translate(753.119 977.437)" fill="#fff"/>
    <rect id="Rectángulo_46143" data-name="Rectángulo 46143" width="1.657" height="1.657" transform="translate(756.045 977.437)" fill="#fff"/>
    <path id="Trazado_196853" data-name="Trazado 196853" d="M1746.061,966.92h72.674a12.211,12.211,0,0,1,12.112,12.239v151.978a12.212,12.212,0,0,1-12.112,12.24h-72.674a12.212,12.212,0,0,1-12.112-12.24V979.159a12.212,12.212,0,0,1,12.112-12.239" transform="translate(-982.693)" fill="#12263f" fill-rule="evenodd"/>
    <path id="Trazado_196854" data-name="Trazado 196854" d="M1705.7,966.92h72.674a12.212,12.212,0,0,1,12.112,12.239v151.978a12.212,12.212,0,0,1-12.112,12.24H1705.7a12.212,12.212,0,0,1-12.112-12.24V979.159A12.211,12.211,0,0,1,1705.7,966.92" transform="translate(-947.611)" fill="#f59d36" fill-rule="evenodd"/>
    <path id="Trazado_196855" data-name="Trazado 196855" d="M1739.067,1003.514a6.656,6.656,0,0,0-6.436,6.79v150.952a6.655,6.655,0,0,0,6.436,6.791h73.817a6.655,6.655,0,0,0,6.436-6.791V1010.3a6.655,6.655,0,0,0-6.436-6.79h-73.817" transform="translate(-981.547 -31.809)" fill-rule="evenodd" fill="url(#linear-gradient)"/>
    <path id="Trazado_196907" data-name="Trazado 196907" d="M0,0H75.223V67.411H0Z" transform="translate(756.609 986.344)" fill="#f1f1f1"/>
    <path id="Trazado_196856" data-name="Trazado 196856" d="M2313.933,1037.213h-5.1a.4.4,0,0,0-.4.4h0a.4.4,0,0,0,.4.4h5.1a.4.4,0,0,0,.4-.4h0a.4.4,0,0,0-.4-.4" transform="translate(-1482.057 -61.102)" fill="#12263f" fill-rule="evenodd"/>
    <path id="Trazado_196857" data-name="Trazado 196857" d="M2313.933,1051.87h-5.1a.4.4,0,0,0-.4.4h0a.4.4,0,0,0,.4.4h5.1a.4.4,0,0,0,.4-.4h0a.4.4,0,0,0-.4-.4" transform="translate(-1482.057 -73.842)" fill="#12263f" fill-rule="evenodd"/>
    <path id="Trazado_196858" data-name="Trazado 196858" d="M2313.933,1065.516h-5.1a.4.4,0,0,0-.4.4h0a.4.4,0,0,0,.4.4h5.1a.4.4,0,0,0,.4-.4h0a.4.4,0,0,0-.4-.4" transform="translate(-1482.057 -85.704)" fill="#12263f" fill-rule="evenodd"/>
    <path id="Trazado_196859" data-name="Trazado 196859" d="M1908.555,1772.566h4.543a1.56,1.56,0,0,1,1.556,1.556h0a1.56,1.56,0,0,1-1.556,1.556h-4.543a1.56,1.56,0,0,1-1.556-1.556h0a1.56,1.56,0,0,1,1.556-1.556" transform="translate(-1133.115 -700.302)" fill="#12263f" fill-rule="evenodd"/>
    <path id="Trazado_196860" data-name="Trazado 196860" d="M1908.555,1825.653h10.131a1.561,1.561,0,0,1,1.556,1.556h0a1.56,1.56,0,0,1-1.556,1.555h-10.131a1.56,1.56,0,0,1-1.556-1.555h0a1.561,1.561,0,0,1,1.556-1.556" transform="translate(-1133.115 -746.447)" fill="#f59d36" fill-rule="evenodd"/>
    <path id="Trazado_196861" data-name="Trazado 196861" d="M1908.554,1878.74h19.752a1.56,1.56,0,0,1,1.556,1.556h0a1.56,1.56,0,0,1-1.556,1.556h-19.752A1.56,1.56,0,0,1,1907,1880.3h0a1.56,1.56,0,0,1,1.556-1.556" transform="translate(-1133.115 -792.592)" fill="#f59d36" fill-rule="evenodd"/>
    <path id="Trazado_196862" data-name="Trazado 196862" d="M1908.554,1986.9h10.267a1.56,1.56,0,0,1,1.556,1.556h0a1.56,1.56,0,0,1-1.556,1.556h-10.267a1.56,1.56,0,0,1-1.556-1.556h0a1.56,1.56,0,0,1,1.556-1.556" transform="translate(-1133.115 -886.613)" fill="#12263f" fill-rule="evenodd"/>
    <path id="Trazado_196863" data-name="Trazado 196863" d="M1908.554,2039.991h35.032a1.561,1.561,0,0,1,1.556,1.556h0a1.56,1.56,0,0,1-1.556,1.556h-35.032a1.56,1.56,0,0,1-1.556-1.556h0a1.561,1.561,0,0,1,1.556-1.556" transform="translate(-1133.115 -932.758)" fill="#1565c0" fill-rule="evenodd"/>
    <path id="Trazado_196864" data-name="Trazado 196864" d="M1908.554,2093.078h19.752a1.56,1.56,0,0,1,1.556,1.556h0a1.56,1.56,0,0,1-1.556,1.556h-19.752a1.561,1.561,0,0,1-1.556-1.556h0a1.56,1.56,0,0,1,1.556-1.556" transform="translate(-1133.115 -978.904)" fill="#2ec49f" fill-rule="evenodd"/>
    <path id="Trazado_196865" data-name="Trazado 196865" d="M1796.518,1772.566h5.157a1.56,1.56,0,0,1,1.556,1.556h0a1.56,1.56,0,0,1-1.556,1.556h-5.157a1.561,1.561,0,0,1-1.556-1.556h0a1.56,1.56,0,0,1,1.556-1.556" transform="translate(-1035.728 -700.302)" fill="#12263f" fill-rule="evenodd"/>
    <path id="Trazado_196866" data-name="Trazado 196866" d="M1796.518,1825.653h5.157a1.56,1.56,0,0,1,1.556,1.556h0a1.56,1.56,0,0,1-1.556,1.555h-5.157a1.56,1.56,0,0,1-1.556-1.555h0a1.561,1.561,0,0,1,1.556-1.556" transform="translate(-1035.728 -746.447)" fill="#6c8bc6" fill-rule="evenodd"/>
    <path id="Trazado_196867" data-name="Trazado 196867" d="M1796.518,1878.74h5.157a1.56,1.56,0,0,1,1.556,1.556h0a1.56,1.56,0,0,1-1.556,1.556h-5.157a1.56,1.56,0,0,1-1.556-1.556h0a1.561,1.561,0,0,1,1.556-1.556" transform="translate(-1035.728 -792.592)" fill="#6c8bc6" fill-rule="evenodd"/>
    <path id="Trazado_196868" data-name="Trazado 196868" d="M1796.518,1986.9h5.157a1.56,1.56,0,0,1,1.556,1.556h0a1.56,1.56,0,0,1-1.556,1.556h-5.157a1.56,1.56,0,0,1-1.556-1.556h0a1.561,1.561,0,0,1,1.556-1.556" transform="translate(-1035.728 -886.613)" fill="#6c8bc6" fill-rule="evenodd"/>
    <path id="Trazado_196869" data-name="Trazado 196869" d="M1796.518,2039.992h5.157a1.56,1.56,0,0,1,1.556,1.556h0a1.56,1.56,0,0,1-1.556,1.556h-5.157a1.56,1.56,0,0,1-1.556-1.556h0a1.56,1.56,0,0,1,1.556-1.556" transform="translate(-1035.728 -932.76)" fill="#6c8bc6" fill-rule="evenodd"/>
    <path id="Trazado_196870" data-name="Trazado 196870" d="M1796.518,2093.078h5.157a1.56,1.56,0,0,1,1.556,1.556h0a1.561,1.561,0,0,1-1.556,1.556h-5.157a1.561,1.561,0,0,1-1.556-1.556h0a1.56,1.56,0,0,1,1.556-1.556" transform="translate(-1035.728 -978.904)" fill="#f59d36" fill-rule="evenodd"/>
    <path id="Trazado_196871" data-name="Trazado 196871" d="M2036.744,1986.9h22.4a1.561,1.561,0,0,1,1.556,1.556h0a1.561,1.561,0,0,1-1.556,1.556h-22.4a1.56,1.56,0,0,1-1.556-1.556h0a1.56,1.56,0,0,1,1.556-1.556" transform="translate(-1244.543 -886.613)" fill="#12263f" fill-rule="evenodd"/>
    <path id="Trazado_196872" data-name="Trazado 196872" d="M2254.008,1986.9h3.934a1.56,1.56,0,0,1,1.556,1.556h0a1.56,1.56,0,0,1-1.556,1.556h-3.934a1.56,1.56,0,0,1-1.556-1.556h0a1.561,1.561,0,0,1,1.556-1.556" transform="translate(-1433.398 -886.613)" fill="#12263f" fill-rule="evenodd"/>
    <path id="Trazado_196873" data-name="Trazado 196873" d="M2030.056,1825.653h16.569a1.56,1.56,0,0,1,1.556,1.556h0a1.56,1.56,0,0,1-1.556,1.555h-16.569a1.56,1.56,0,0,1-1.555-1.555h0a1.56,1.56,0,0,1,1.555-1.556" transform="translate(-1238.729 -746.447)" fill="#f59d36" fill-rule="evenodd"/>
    <path id="Trazado_196874" data-name="Trazado 196874" d="M2196.805,1825.653h6.729a1.561,1.561,0,0,1,1.556,1.556h0a1.56,1.56,0,0,1-1.556,1.555h-6.729a1.56,1.56,0,0,1-1.556-1.555h0a1.561,1.561,0,0,1,1.556-1.556" transform="translate(-1383.675 -746.447)" fill="#12263f" fill-rule="evenodd"/>
    <path id="Trazado_196875" data-name="Trazado 196875" d="M2107.611,1878.74h19.752a1.56,1.56,0,0,1,1.556,1.556h0a1.56,1.56,0,0,1-1.556,1.556h-19.752a1.56,1.56,0,0,1-1.555-1.556h0a1.56,1.56,0,0,1,1.555-1.556" transform="translate(-1306.144 -792.592)" fill="#f59d36" fill-rule="evenodd"/>
    <path id="Trazado_196876" data-name="Trazado 196876" d="M1988.195,1772.566h9.8a1.56,1.56,0,0,1,1.556,1.556h0a1.56,1.56,0,0,1-1.556,1.556h-9.8a1.56,1.56,0,0,1-1.556-1.556h0a1.56,1.56,0,0,1,1.556-1.556" transform="translate(-1202.342 -700.302)" fill="#12263f" fill-rule="evenodd"/>
    <path id="Trazado_196877" data-name="Trazado 196877" d="M2103.56,1772.566h9.8a1.56,1.56,0,0,1,1.556,1.556h0a1.56,1.56,0,0,1-1.556,1.556h-9.8a1.56,1.56,0,0,1-1.556-1.556h0a1.56,1.56,0,0,1,1.556-1.556" transform="translate(-1302.622 -700.302)" fill="#2ec49f" fill-rule="evenodd"/>
    <path id="Trazado_196878" data-name="Trazado 196878" d="M2221.327,1772.566h6.573a1.56,1.56,0,0,1,1.556,1.556h0a1.561,1.561,0,0,1-1.556,1.556h-6.573a1.56,1.56,0,0,1-1.556-1.556h0a1.56,1.56,0,0,1,1.556-1.556" transform="translate(-1404.991 -700.302)" fill="#2ec49f" fill-rule="evenodd"/>
    <path id="Trazado_196879" data-name="Trazado 196879" d="M1842.151,1038.067h-57.92a2.3,2.3,0,0,0-2.292,2.292h0a2.3,2.3,0,0,0,2.292,2.292h57.92a2.3,2.3,0,0,0,2.292-2.292h0a2.3,2.3,0,0,0-2.292-2.292" transform="translate(-1024.408 -61.844)" fill="#f3f9ff" fill-rule="evenodd"/>
    <rect id="Rectángulo_46145" data-name="Rectángulo 46145" width="42.187" height="33.793" transform="translate(735.523 1077.867)" fill="#12263f"/>
    <path id="Trazado_196880" data-name="Trazado 196880" d="M1707.535,1874.843l-.685-.693a.908.908,0,0,1-.144-1.089,9.385,9.385,0,0,0,.9-2.144.909.909,0,0,1,.881-.658l.975,0a.916.916,0,0,0,.923-.908l.011-1.867a.916.916,0,0,0-.91-.921l-.975-.006a.908.908,0,0,1-.873-.669,9.371,9.371,0,0,0-.876-2.155.9.9,0,0,1,.16-1.087l.692-.686a.915.915,0,0,0,.008-1.294l-1.312-1.328a.915.915,0,0,0-1.294-.008l-.693.684a.908.908,0,0,1-1.089.146,9.394,9.394,0,0,0-2.142-.9.908.908,0,0,1-.659-.882l.006-.975a.914.914,0,0,0-.91-.92l-1.867-.012a.915.915,0,0,0-.921.91l-.006.975a.906.906,0,0,1-.669.872,9.5,9.5,0,0,0-2.155.876.905.905,0,0,1-1.087-.158l-.684-.694a.916.916,0,0,0-1.294-.008l-1.328,1.312a.915.915,0,0,0-.008,1.295l.684.693a.909.909,0,0,1,.145,1.09,9.342,9.342,0,0,0-.9,2.142.909.909,0,0,1-.881.66l-.975-.007a.915.915,0,0,0-.921.91l-.012,1.866a.918.918,0,0,0,.911.922l.974,0a.908.908,0,0,1,.873.671,9.37,9.37,0,0,0,.876,2.153.907.907,0,0,1-.158,1.088l-.693.685a.914.914,0,0,0-.008,1.295l1.311,1.329a.918.918,0,0,0,1.3.008l.693-.685a.908.908,0,0,1,1.09-.144,9.4,9.4,0,0,0,2.141.9.908.908,0,0,1,.659.881l-.006.974a.916.916,0,0,0,.91.922l1.867.011a.915.915,0,0,0,.921-.91l.006-.975a.909.909,0,0,1,.669-.873,9.26,9.26,0,0,0,2.154-.876.905.905,0,0,1,1.087.158l.686.694a.914.914,0,0,0,1.294.008l1.328-1.312a.913.913,0,0,0,.008-1.293m-6.112-2.338a5.069,5.069,0,1,1,.05-8.278A5.062,5.062,0,0,1,1701.423,1872.505Z" transform="translate(-941.576 -773.237)" fill="#fff" fill-rule="evenodd"/>
    <path id="Trazado_196881" data-name="Trazado 196881" d="M1156.87,1842.735c-3.7,5.261,5.751,31.39,7.57,43.789.831,5.664,2.618,6.826,7.72,7.982,6.693,1.517,11.229,3.376,16.14,3.207,2.874-.1,5.191.014,6.318-.832,3.92-2.94-2.167-6.338-2.167-6.338s-12.225-4.821-14.665-6.073c-2.1-1.237-3.3-44.183-17.018-47.226-1.8-.4-1.5,3.049-3.9,5.49" transform="translate(-480.333 -756.496)" fill="#18846a" fill-rule="evenodd"/>
    <path id="Trazado_196882" data-name="Trazado 196882" d="M969.288,2103.694c2.294-1.449,4.478-2.267,5.218,0Zm-39.057,0a91.379,91.379,0,0,1,2.474-14.1c5.927-.2,11.329-1.327,12.672-2.263.558-1.724,3.107-7.618.668-8.48-1.874-.824-5.039-1.075-8.281-1.2,10.18-14.953,25.969-.049,25.077,26.045Z" transform="translate(-284.068 -960.319)" fill="#0b3870" fill-rule="evenodd"/>
    <path id="Trazado_196883" data-name="Trazado 196883" d="M1091.72,1618.6a26.614,26.614,0,0,0-.017,7.483c.7,4.94,2.512,8.454,4.532,12.8a3.211,3.211,0,0,1,.129,1.693c-.2.814-.75,1.328-.766,1.8-.064,1.848,2.049,2.616,1.379,4.721-.713,2.238-3.978,4.8-5.967,7.592,0,0-6.528-7.185-9.324-7.693s-3.168-9.3-3.168-9.748,2.488-17.975,2.488-17.975Z" transform="translate(-412.965 -566.466)" fill="#000446" fill-rule="evenodd"/>
    <path id="Trazado_196884" data-name="Trazado 196884" d="M907.837,1823.793c-5.82,0-10.81,1.784-14.333,5.426a2.714,2.714,0,0,0-.52.808c1.128,10.4,5.446,12.942,2.374,19.541.577,2.207,3.607,11.368,4.1,13.439a30.431,30.431,0,0,1,.277,13.2c-.9,3.041-1.474,5.509-2.947,11.725h48.748c-1.74-9.875-3.736-17.656-3.858-19.024-.787-8.824.751-38.144-7.6-42.9-6.612-3.764-18.163-2.212-26.239-2.212" transform="translate(-251.69 -744.554)" fill="#2ec49f" fill-rule="evenodd"/>
    <path id="Trazado_196885" data-name="Trazado 196885" d="M1027.514,1821.9c6.911,3.737,10.535,39.731,8.883,64.389h-16.111c.534-39.7-3.871-55.029-8.021-64.187,5.88-.388,7.949-.822,15.248-.2" transform="translate(-355.376 -742.914)" fill="#fff" fill-rule="evenodd"/>
    <path id="Trazado_196886" data-name="Trazado 196886" d="M1035.071,1653.293l.138,3.085.212.272c1.506,3.445-2.383,5.776-3.433,6.312-1.073-.165-7.208-2.1-7.565-6.953l.028-.311.213-6.874a1.907,1.907,0,0,1-1.5-1.048,8.711,8.711,0,0,1-1.05-3.806c.169-1.317,2.024-.515,2.024-.515h0c-1.749-3.8-3.915-7.056.047-9.391s12.153-2.541,12.153-2.541l4.886-.726c-2.182,3.84,4.861,19.222-6.155,22.5" transform="translate(-363.796 -577.07)" fill="#f7aaac" fill-rule="evenodd"/>
    <path id="Trazado_196887" data-name="Trazado 196887" d="M1065.507,1776.393c1.932,4.544,3.648,6.187,7.561,6.542l-.141-3.146a13.6,13.6,0,0,1-7.42-3.4" transform="translate(-401.655 -703.628)" fill="#f28085" fill-rule="evenodd"/>
    <path id="Trazado_196888" data-name="Trazado 196888" d="M903.617,1573.244c-6.545-4.624-16.383-3.51-21.2,3.861-4.146,6.344-4.2,17.236-10.531,17.544-2.073.1-4.465,1.132-4.8,5.657-1.5.482-4.916,2.3-2.406,7.108-2.476,1.776-2.746,4.7-.525,6.432a16.9,16.9,0,0,1,2.45-3.724h0a2.71,2.71,0,0,1,.525-.815c3.523-3.641,8.513-5.426,14.333-5.426,1.38,0,3.169,0,4.5-.1.176-2.169.484-6.249.493-7.594a3.908,3.908,0,0,1-1.542-3.351c.039-1.754.6-1.5,3.074-.315.326-4.406-.223-6.987,8.155-6.984a18.711,18.711,0,0,0,7.085-1.255c3.563-1.453,4.613-8.046.386-11.032" transform="translate(-225.322 -524.642)" fill="#000446" fill-rule="evenodd"/>
    <path id="Trazado_196889" data-name="Trazado 196889" d="M811.895,1865.122c-1.805-4.009,1.222-17.479-7.437-10.581a38.479,38.479,0,0,0-3.191,4.333c-3.914,6.56-12.227,31.434-10.488,43.284.826,5.632,5.666,6.753,10.739,7.9,6.655,1.509,16.681,3.357,21.565,3.189,2.858-.1,5.161.014,6.282-.827,3.9-2.923-2.155-6.3-2.155-6.3s-21.462-8.445-23.888-9.69c-1.147-.676,10-28.151,8.573-31.31" transform="translate(-162.645 -769.877)" fill="#2ec49f" fill-rule="evenodd"/>
    <path id="Trazado_196890" data-name="Trazado 196890" d="M1142.411,2297.225H1097.45v1.253a1.257,1.257,0,0,0,1.253,1.253h42.455a1.257,1.257,0,0,0,1.253-1.253Z" transform="translate(-429.422 -1156.357)" fill="#12263f" fill-rule="evenodd"/>
    <path id="Trazado_196891" data-name="Trazado 196891" d="M1292.882,2098.113h-33.557a2.625,2.625,0,0,0-2.406,2.435l-4.775,25.432h38.034l4.775-25.77a1.977,1.977,0,0,0-2.072-2.1" transform="translate(-563.889 -983.28)" fill="#12263f" fill-rule="evenodd"/>
    <path id="Trazado_196892" data-name="Trazado 196892" d="M1302.591,2098.113h-33.556a2.626,2.626,0,0,0-2.406,2.435l-4.288,22.765h-.057l-.275,1.671a1.594,1.594,0,0,0,1.671,1.671h34.762a1.78,1.78,0,0,0,1.671-1.671l.206-1.372,4.345-23.4a1.977,1.977,0,0,0-2.072-2.1" transform="translate(-572.449 -983.28)" fill-rule="evenodd" fill="url(#linear-gradient)"/>
    <path id="Trazado_196893" data-name="Trazado 196893" d="M1424.553,2195.868a1.775,1.775,0,1,0,1.041,2.05,1.637,1.637,0,0,0-1.041-2.05" transform="translate(-712.091 -1068.223)" fill="#edf8fd" fill-rule="evenodd"/>
    <path id="Trazado_196894" data-name="Trazado 196894" d="M1056.9,2277.161c5.26-.026,11.137.043,12.693-.024-1.54-4.588-7.021-6.1-11.345-5.851-1.038.71-2.092,4.4-1.349,5.876" transform="translate(-393.955 -1133.786)" fill="#f8b9be" fill-rule="evenodd"/>
    <path id="Trazado_196895" data-name="Trazado 196895" d="M2190.1,2148.051H2220c2.074,0,3.772,2.477,3.772,5.5h0c0,3.027-1.7,5.5-3.772,5.5h-29.9c-2.074,0-3.772-2.477-3.772-5.5h0c0-3.027,1.7-5.5,3.772-5.5" transform="translate(-1375.923 -1026.688)" fill="#f7a12e" fill-rule="evenodd"/>
    <path id="Trazado_196896" data-name="Trazado 196896" d="M2256.529,2148.051h10.721c-2.075,0-3.772,2.477-3.772,5.5h0c0,3.027,1.7,5.5,3.772,5.5h-10.721c-2.074,0-3.772-2.477-3.772-5.5h0c0-3.027,1.7-5.5,3.772-5.5" transform="translate(-1433.663 -1026.688)" fill="#f48120" fill-rule="evenodd"/>
    <path id="Trazado_196897" data-name="Trazado 196897" d="M2421.72,2168.531H2450a7.443,7.443,0,0,1,0-7.653h-28.284c-.947,0-1.723,1.724-1.723,3.826s.776,3.827,1.724,3.827" transform="translate(-1579.034 -1037.838)" fill="#e5e6e7" fill-rule="evenodd"/>
    <path id="Trazado_196898" data-name="Trazado 196898" d="M2448.948,2164.852a7.737,7.737,0,0,1,1.057-3.974h-28.285c-.947,0-1.723,1.724-1.723,3.826q0,.074,0,.148Z" transform="translate(-1579.034 -1037.838)" fill="#d7d7d8" fill-rule="evenodd"/>
    <path id="Trazado_196899" data-name="Trazado 196899" d="M2443.068,2159.058h-29.263c-1.364,0-2.805-2.509-2.805-5.536s1.441-5.471,2.805-5.471h29.263l-.013,1.649-29.155.028c-.947,0-1.723,1.724-1.723,3.826s.777,3.826,1.723,3.826l29.155-.028Z" transform="translate(-1571.214 -1026.688)" fill="#f48120" fill-rule="evenodd"/>
    <path id="Trazado_196900" data-name="Trazado 196900" d="M2430.835,2232.232h-31.263c-2.169,0-3.944,2.477-3.944,5.5h0c0,3.027,1.775,5.5,3.944,5.5h31.263c2.169,0,3.944-2.477,3.944-5.5h0c0-3.027-1.774-5.5-3.944-5.5" transform="translate(-1557.853 -1099.862)" fill="#1565c0" fill-rule="evenodd"/>
    <path id="Trazado_196901" data-name="Trazado 196901" d="M2520.9,2232.232h-11.21c2.169,0,3.944,2.477,3.944,5.5h0c0,3.027-1.775,5.5-3.944,5.5h11.21c2.169,0,3.944-2.476,3.944-5.5h0c0-3.027-1.775-5.5-3.944-5.5" transform="translate(-1657.001 -1099.862)" fill="#b2ebf2" fill-rule="evenodd"/>
    <path id="Trazado_196902" data-name="Trazado 196902" d="M2240.341,2252.713h-29.574a7.165,7.165,0,0,0,0-7.653h29.574c.99,0,1.8,1.724,1.8,3.826s-.812,3.827-1.8,3.827" transform="translate(-1397.164 -1111.013)" fill="#e5e6e7" fill-rule="evenodd"/>
    <path id="Trazado_196903" data-name="Trazado 196903" d="M2211.871,2249.034a7.482,7.482,0,0,0-1.1-3.974h29.574c.99,0,1.8,1.724,1.8,3.826q0,.074,0,.148Z" transform="translate(-1397.163 -1111.013)" fill="#d7d7d8" fill-rule="evenodd"/>
    <path id="Trazado_196904" data-name="Trazado 196904" d="M2203.7,2243.239h30.6c1.426,0,2.933-2.509,2.933-5.537s-1.507-5.471-2.933-5.471h-30.6l.013,1.649,30.485.028c.99,0,1.8,1.724,1.8,3.826s-.812,3.826-1.8,3.826l-30.485-.028Z" transform="translate(-1391.022 -1099.862)" fill="#1565c0" fill-rule="evenodd"/>
    <path id="Trazado_196905" data-name="Trazado 196905" d="M2387.008,2257.9h-3.385c-1.3.682-.923,3.384-1.695,5.154l2-1.461,1.451,1.368c1.124-1.6.48-4.342,1.629-5.06" transform="translate(-1545.944 -1122.177)" fill="#71bdf8" fill-rule="evenodd"/>
    <path id="Trazado_196906" data-name="Trazado 196906" d="M2457.39,2174.595h3.385c1.3.681.924,3.384,1.695,5.154l-2-1.461-1.451,1.367c-1.124-1.6-.481-4.342-1.629-5.06" transform="translate(-1611.539 -1049.762)" fill="#f48120" fill-rule="evenodd"/>
    <g id="Grupo_154593" data-name="Grupo 154593" transform="translate(784.338 1014.781)">
      <path id="Trazado_68962" data-name="Trazado 68962" d="M547.372,357.42v-1.808l5.021-2.346v1.454l-3.921,1.8,3.921,1.8v1.453Z" transform="translate(-547.372 -350.055)" fill="#00223d"/>
      <path id="Trazado_68963" data-name="Trazado 68963" d="M558.692,349.6h1.685l-4.7,11.7H554Z" transform="translate(-548.201 -349.596)" fill="#00223d"/>
      <path id="Trazado_68964" data-name="Trazado 68964" d="M562.012,359.766v-1.453l3.909-1.8-3.909-1.8v-1.454l5.021,2.346v1.808Z" transform="translate(-549.202 -350.055)" fill="#00223d"/>
    </g>
  </g>
</svg>
