<svg xmlns="http://www.w3.org/2000/svg" xmlns:xlink="http://www.w3.org/1999/xlink" width="407.522" height="393.447" viewBox="0 0 407.522 393.447">
  <defs>
    <clipPath id="clip-path">
      <rect id="Rectángulo_59257" data-name="Rectángulo 59257" width="393.895" height="393.448" fill="none"/>
    </clipPath>
    <clipPath id="clip-path-5">
      <rect id="Rectángulo_59249" data-name="Rectángulo 59249" width="129.009" height="46.588" fill="none"/>
    </clipPath>
    <clipPath id="clip-path-6">
      <rect id="Rectángulo_59251" data-name="Rectángulo 59251" width="40.02" height="13.279" fill="none"/>
    </clipPath>
  </defs>
  <g id="Grupo_893423" data-name="Grupo 893423" transform="translate(-970.881 -12676.287)">
    <rect id="Rectángulo_302516" data-name="Rectángulo 302516" width="378.403" height="322.699" transform="translate(1000 12741.357)" fill="#fff7ee"/>
    <g id="Grupo_181952" data-name="Grupo 181952" transform="translate(970.881 12676.287)">
      <g id="Grupo_181950" data-name="Grupo 181950" clip-path="url(#clip-path)">
        <g id="Grupo_181935" data-name="Grupo 181935">
          <g id="Grupo_181934" data-name="Grupo 181934" clip-path="url(#clip-path)">
            <path id="Trazado_235516" data-name="Trazado 235516" d="M128.34,64.523H104.711a9.2,9.2,0,0,1-9.2-9.2V31.693a9.2,9.2,0,0,1,9.2-9.2H128.34a9.2,9.2,0,0,1,9.2,9.2V55.322a9.2,9.2,0,0,1-9.2,9.2" transform="translate(-8.983 -2.115)" fill="#e0e0e0"/>
            <path id="Trazado_235517" data-name="Trazado 235517" d="M107.89,54.73l1.531-5.714a10.57,10.57,0,1,1,4.212,4.176Zm6.028-3.68.361.216a8.584,8.584,0,1,0-2.936-2.91l.222.364-.855,3.19Z" transform="translate(-10.147 -3.138)" fill="#fff"/>
            <path id="Trazado_235518" data-name="Trazado 235518" d="M123.025,46.049a1.779,1.779,0,0,0-1.512-.341c-.392.16-.643.775-.9,1.089a.375.375,0,0,1-.486.105,6.85,6.85,0,0,1-3.415-2.924.42.42,0,0,1,.053-.573,2.323,2.323,0,0,0,.621-1.007,2.227,2.227,0,0,0-.277-1.191,2.847,2.847,0,0,0-.881-1.327,1.207,1.207,0,0,0-1.31.195A2.663,2.663,0,0,0,114,42.181a3.061,3.061,0,0,0,.083.669,5.5,5.5,0,0,0,.641,1.478,11.454,11.454,0,0,0,.669,1.018,10.351,10.351,0,0,0,2.9,2.7,8.729,8.729,0,0,0,1.81.862,4.014,4.014,0,0,0,2.107.332,2.549,2.549,0,0,0,1.911-1.421,1.237,1.237,0,0,0,.089-.726c-.109-.5-.785-.8-1.189-1.038" transform="translate(-10.722 -3.74)" fill="#fff" fill-rule="evenodd"/>
            <path id="Trazado_235519" data-name="Trazado 235519" d="M365.145,349.708a26.67,26.67,0,0,1,6.5-2.826l1.339-6.437,10.875-.19,1.565,6.384a26.657,26.657,0,0,1,6.6,2.6l5.5-3.6,7.825,7.555-3.406,5.619a26.611,26.611,0,0,1,2.826,6.5l6.436,1.339.191,10.875-6.385,1.565a26.624,26.624,0,0,1-2.6,6.6l3.6,5.5-7.554,7.825-5.619-3.407a26.641,26.641,0,0,1-6.5,2.826L385,404.864l-10.874.19-1.565-6.385a26.661,26.661,0,0,1-6.6-2.6l-5.5,3.6-7.825-7.555,3.406-5.619a26.644,26.644,0,0,1-2.827-6.5l-6.436-1.339-.19-10.875,6.385-1.566a26.658,26.658,0,0,1,2.6-6.6l-3.6-5.5,7.554-7.824Zm5.8,14.487a11.667,11.667,0,1,0,16.5-.29,11.668,11.668,0,0,0-16.5.29" transform="translate(-32.597 -32.001)" fill="#ebebeb"/>
            <path id="Trazado_235520" data-name="Trazado 235520" d="M373.109,366.288a8.805,8.805,0,0,1,2.172-1.906,11.617,11.617,0,0,1,7.612-1.8,11.763,11.763,0,0,1,5.173,1.838,11.932,11.932,0,0,1,4.184,4.714A11.954,11.954,0,0,1,393.377,376a11.9,11.9,0,0,1-9.849,10.2,11.965,11.965,0,0,1-6.9-.885,11.948,11.948,0,0,1-4.859-4.016,11.763,11.763,0,0,1-2.018-5.106,11.613,11.613,0,0,1,1.531-7.67,8.833,8.833,0,0,1,1.829-2.238c.063.053-.7.765-1.6,2.367a11.637,11.637,0,0,0-1.29,7.47,11.4,11.4,0,0,0,6.661,8.63,11.4,11.4,0,0,0,6.542.8,11.306,11.306,0,0,0,9.311-9.644A11.412,11.412,0,0,0,391.7,369.4a11.4,11.4,0,0,0-8.858-6.353,11.626,11.626,0,0,0-7.419,1.551c-1.57.955-2.255,1.747-2.31,1.685" transform="translate(-34.763 -34.094)" fill="#ebebeb"/>
            <path id="Trazado_235521" data-name="Trazado 235521" d="M365.12,349.687a2.589,2.589,0,0,1-.362-.191l-1.078-.623-4.234-2.5.132-.017-7.509,7.868.021-.21c1.1,1.661,2.318,3.507,3.624,5.481l.065.1-.058.105a26.6,26.6,0,0,0-2.553,6.555l-.032.129-.129.032L346.625,368l.181-.235c.068,3.424.14,7.057.216,10.873l-.209-.253,6.439,1.326.163.034.046.16a26.518,26.518,0,0,0,2.807,6.43l.091.149-.091.15-3.4,5.623-.047-.369,7.834,7.545-.387-.036c1.71-1.124,3.589-2.357,5.492-3.608l.161-.105.169.093a26.487,26.487,0,0,0,6.52,2.559l.19.046.046.191,1.57,6.384-.324-.25,10.874-.195-.319.265c.422-2.034.878-4.227,1.338-6.437l.041-.2.195-.055a26.4,26.4,0,0,0,6.416-2.787l.005,0,.175-.1.171.1,5.619,3.407-.413.053,7.556-7.823-.038.412-3.6-5.5-.109-.167.1-.173a26.333,26.333,0,0,0,2.568-6.516l.048-.19.19-.046,6.386-1.561-.243.315q-.093-5.569-.18-10.874l.245.3-6.434-1.347-.179-.038-.049-.174a26.414,26.414,0,0,0-2.785-6.436l-.091-.15.091-.149,3.416-5.612.044.344c-2.747-2.664-5.34-5.177-7.809-7.57l.319.03-5.5,3.588-.122.08-.127-.071a26.493,26.493,0,0,0-6.534-2.592l-.13-.033-.031-.129-1.544-6.39.2.15-10.876.143.144-.12c-.551,2.567-1,4.673-1.38,6.428l-.014.064-.063.017a27.52,27.52,0,0,0-4.972,1.913l-1.17.611a2.7,2.7,0,0,1-.39.2,3.47,3.47,0,0,1,.362-.246c.249-.153.625-.383,1.146-.661a25.738,25.738,0,0,1,4.966-2.021l-.076.081c.354-1.758.779-3.87,1.3-6.445l.023-.117.121,0,10.873-.238.158,0,.038.155c.491,1.972,1.01,4.06,1.586,6.379l-.16-.16a26.849,26.849,0,0,1,6.662,2.6l-.248.009,5.487-3.616.17-.112.148.142,7.84,7.538.159.154-.115.19c-1.1,1.826-2.232,3.7-3.4,5.624v-.3a26.969,26.969,0,0,1,2.866,6.571L404.8,365l6.438,1.332.241.05,0,.246q.1,5.3.2,10.873l.005.255-.248.061q-3.149.775-6.383,1.57l.237-.236a26.973,26.973,0,0,1-2.624,6.68l-.013-.339,3.6,5.495.145.221-.183.19-7.553,7.826-.185.192-.228-.139-5.619-3.405h.346l-.006,0a27.005,27.005,0,0,1-6.579,2.856l.236-.253c-.46,2.21-.918,4.4-1.341,6.436l-.054.26-.265,0-10.875.187-.262,0-.062-.255c-.539-2.2-1.073-4.386-1.561-6.386l.236.237a27.094,27.094,0,0,1-6.675-2.633l.329-.012-5.5,3.6-.208.136-.179-.172-7.816-7.565-.171-.166.124-.2c1.189-1.955,2.356-3.874,3.415-5.613v.3a26.945,26.945,0,0,1-2.845-6.577l.209.195L346.7,378.9l-.206-.043,0-.21c-.058-3.816-.114-7.45-.166-10.874l0-.191.185-.045,6.389-1.547-.16.161a26.872,26.872,0,0,1,2.637-6.641l.007.2L351.8,354.2l-.074-.114.094-.1,7.6-7.78.061-.062.072.045,4.139,2.576,1.064.676a3.225,3.225,0,0,1,.361.246" transform="translate(-32.572 -31.98)" fill="#ebebeb"/>
            <path id="Trazado_235522" data-name="Trazado 235522" d="M18.819,48.925a26.672,26.672,0,0,1,6.5-2.826l1.339-6.437,10.875-.19L39.1,45.856a26.653,26.653,0,0,1,6.6,2.6l5.5-3.6L59.02,52.4l-3.406,5.619a26.609,26.609,0,0,1,2.826,6.5l6.436,1.339.191,10.875-6.385,1.565a26.623,26.623,0,0,1-2.6,6.6l3.6,5.5-7.554,7.824-5.619-3.406a26.644,26.644,0,0,1-6.5,2.826l-1.34,6.437-10.874.19-1.565-6.385a26.658,26.658,0,0,1-6.6-2.6l-5.5,3.6L6.313,91.339,9.72,85.72a26.666,26.666,0,0,1-2.827-6.5L.457,77.876.267,67l6.385-1.565a26.658,26.658,0,0,1,2.6-6.6l-3.6-5.5L13.2,45.518Zm5.8,14.487a11.667,11.667,0,1,0,16.5-.29,11.667,11.667,0,0,0-16.5.29" transform="translate(-0.025 -3.712)" fill="#ebebeb"/>
            <path id="Trazado_235523" data-name="Trazado 235523" d="M26.783,65.505A8.807,8.807,0,0,1,28.955,63.6a11.612,11.612,0,0,1,7.612-1.8,11.763,11.763,0,0,1,5.173,1.838,11.932,11.932,0,0,1,4.184,4.714,11.954,11.954,0,0,1,1.127,6.867A11.9,11.9,0,0,1,37.2,85.42a11.962,11.962,0,0,1-6.9-.885,11.948,11.948,0,0,1-4.859-4.016,11.763,11.763,0,0,1-2.018-5.106,11.613,11.613,0,0,1,1.531-7.67,8.812,8.812,0,0,1,1.829-2.238c.063.053-.7.766-1.6,2.367a11.632,11.632,0,0,0-1.289,7.47,11.4,11.4,0,0,0,6.66,8.63,11.4,11.4,0,0,0,6.542.8A11.306,11.306,0,0,0,46.4,75.13a11.413,11.413,0,0,0-1.032-6.508,11.4,11.4,0,0,0-8.858-6.353,11.632,11.632,0,0,0-7.419,1.552c-1.57.955-2.255,1.747-2.31,1.685" transform="translate(-2.192 -5.806)" fill="#ebebeb"/>
            <path id="Trazado_235524" data-name="Trazado 235524" d="M18.793,48.9a2.616,2.616,0,0,1-.362-.191l-1.078-.623-4.234-2.5.132-.018L5.741,53.439l.021-.21L9.386,58.71l.065.1-.058.105A26.6,26.6,0,0,0,6.84,65.468l-.032.129-.13.032L.3,67.212l.181-.235C.547,70.4.62,74.035.695,77.851L.486,77.6l6.439,1.326.164.034.046.16a26.45,26.45,0,0,0,2.807,6.43l.091.149-.091.15-3.4,5.623L6.495,91.1l7.834,7.545-.387-.036c1.71-1.124,3.589-2.357,5.492-3.608l.161-.105.169.093a26.486,26.486,0,0,0,6.52,2.559l.19.046.046.191,1.57,6.384-.324-.25,10.874-.195-.319.265c.422-2.034.879-4.227,1.338-6.437l.041-.2.195-.055a26.389,26.389,0,0,0,6.416-2.787l.005,0,.175-.1.171.1,5.619,3.407-.413.053,7.556-7.823-.038.412-3.6-5.5-.109-.167.1-.173a26.332,26.332,0,0,0,2.567-6.516l.048-.19.19-.046,6.386-1.561-.243.315q-.092-5.569-.18-10.874l.245.3L58.352,64.8l-.178-.038-.049-.174a26.448,26.448,0,0,0-2.786-6.436L55.249,58l.091-.149,3.416-5.612.044.344c-2.747-2.663-5.34-5.177-7.809-7.57l.319.03-5.5,3.588-.122.08-.127-.071a26.493,26.493,0,0,0-6.534-2.592l-.13-.033-.031-.129c-.562-2.322-1.067-4.414-1.545-6.39l.2.15-10.875.143.143-.12c-.551,2.567-1,4.673-1.38,6.428l-.014.064-.062.017a27.51,27.51,0,0,0-4.973,1.913l-1.17.611a2.723,2.723,0,0,1-.39.2,3.459,3.459,0,0,1,.362-.246c.249-.153.625-.383,1.147-.661a25.766,25.766,0,0,1,4.965-2.021l-.076.081c.354-1.758.779-3.87,1.3-6.445l.023-.117.121,0,10.873-.238.158,0,.039.155c.49,1.972,1.009,4.06,1.586,6.379l-.161-.16a26.884,26.884,0,0,1,6.662,2.6l-.248.009,5.487-3.616.17-.112.148.142,7.84,7.538.159.154-.115.19c-1.1,1.826-2.232,3.7-3.4,5.624v-.3A26.969,26.969,0,0,1,58.7,64.424l-.227-.211,6.438,1.332.241.05,0,.246q.1,5.3.2,10.873l0,.255-.248.061q-3.149.775-6.383,1.57l.237-.236a26.971,26.971,0,0,1-2.624,6.68l-.013-.339,3.6,5.495.145.221-.183.19-7.552,7.827-.186.192-.228-.139-5.619-3.405h.346l-.006,0a26.99,26.99,0,0,1-6.579,2.856l.236-.253c-.46,2.21-.918,4.4-1.341,6.436l-.054.26-.265,0-10.875.187-.261,0-.063-.255c-.539-2.2-1.072-4.386-1.561-6.386l.236.237a27.076,27.076,0,0,1-6.674-2.633l.328-.012-5.5,3.6-.208.136L13.9,99.1,6.081,91.531l-.172-.166.124-.2c1.189-1.955,2.356-3.874,3.415-5.613v.3A26.946,26.946,0,0,1,6.6,79.27l.209.195L.378,78.113.172,78.07l0-.21C.111,74.044.054,70.41,0,66.986l0-.191.185-.045L6.574,65.2l-.16.161A26.907,26.907,0,0,1,9.05,58.722l.007.2-3.58-5.511L5.4,53.3l.094-.1,7.6-7.78.061-.062.072.045,4.139,2.576,1.064.676a3.207,3.207,0,0,1,.361.246" transform="translate(0 -3.691)" fill="#ebebeb"/>
            <path id="Trazado_235525" data-name="Trazado 235525" d="M404.794,311.753a14.084,14.084,0,0,1,3.445-1.5l.709-3.41,5.762-.1.829,3.383a14.1,14.1,0,0,1,3.5,1.375l2.912-1.909,4.146,4-1.8,2.976a14.124,14.124,0,0,1,1.5,3.446l3.41.71.1,5.761-3.383.83a14.1,14.1,0,0,1-1.375,3.5l1.909,2.913-4,4.146-2.977-1.8a14.141,14.141,0,0,1-3.446,1.5l-.709,3.41-5.762.1-.829-3.383a14.149,14.149,0,0,1-3.5-1.376l-2.912,1.91-4.146-4,1.8-2.977a14.1,14.1,0,0,1-1.5-3.445l-3.41-.709-.1-5.762,3.384-.83a14.1,14.1,0,0,1,1.375-3.5l-1.909-2.913,4-4.146Zm3.071,7.675a6.182,6.182,0,1,0,8.741-.154,6.181,6.181,0,0,0-8.741.154" transform="translate(-37.146 -28.849)" fill="#ebebeb"/>
            <path id="Trazado_235526" data-name="Trazado 235526" d="M48.58,5.008a14.087,14.087,0,0,1,3.445-1.5L52.734.1,58.5,0l.829,3.383a14.094,14.094,0,0,1,3.5,1.375l2.912-1.909,4.146,4-1.8,2.976a14.123,14.123,0,0,1,1.5,3.446l3.41.71.1,5.761-3.383.83a14.1,14.1,0,0,1-1.375,3.5l1.909,2.913-4,4.146-2.977-1.8a14.14,14.14,0,0,1-3.446,1.5L59.1,34.23l-5.762.1-.829-3.383a14.146,14.146,0,0,1-3.5-1.376L46.1,31.483l-4.146-4,1.8-2.977a14.1,14.1,0,0,1-1.5-3.445l-3.41-.71-.1-5.761,3.383-.83a14.1,14.1,0,0,1,1.375-3.5L41.6,7.348l4-4.146Zm3.071,7.675a6.182,6.182,0,1,0,8.741-.154,6.18,6.18,0,0,0-8.741.154" transform="translate(-3.644 0)" fill="#ebebeb"/>
            <path id="Trazado_235527" data-name="Trazado 235527" d="M409.014,320.537a4.68,4.68,0,0,1,1.151-1.01,6.161,6.161,0,0,1,4.033-.954,6.244,6.244,0,0,1,2.741.974,6.329,6.329,0,0,1,2.216,2.5,6.33,6.33,0,0,1,.6,3.638,6.308,6.308,0,0,1-5.217,5.406,6.345,6.345,0,0,1-3.658-.469,6.322,6.322,0,0,1-2.574-2.128,6.221,6.221,0,0,1-1.069-2.705,6.151,6.151,0,0,1,.811-4.063,4.672,4.672,0,0,1,.969-1.186c.034.028-.373.406-.85,1.255a6.164,6.164,0,0,0-.683,3.957,6.041,6.041,0,0,0,3.529,4.572,6.04,6.04,0,0,0,3.466.425,5.992,5.992,0,0,0,4.933-5.11,6.033,6.033,0,0,0-.547-3.449,6.039,6.039,0,0,0-4.693-3.366,6.162,6.162,0,0,0-3.931.822c-.832.507-1.195.926-1.224.893" transform="translate(-38.294 -29.958)" fill="#ebebeb"/>
            <path id="Trazado_235528" data-name="Trazado 235528" d="M404.781,311.742a1.384,1.384,0,0,1-.192-.1l-.571-.33-2.244-1.325.07-.009-3.978,4.168.011-.111,1.92,2.9.034.053-.03.055a14.067,14.067,0,0,0-1.353,3.472l-.016.068-.069.017-3.381.839.1-.124c.036,1.814.074,3.74.115,5.761l-.111-.134,3.412.7.086.018.024.085a14.044,14.044,0,0,0,1.488,3.406l.048.079-.048.08-1.8,2.98-.025-.2,4.151,4-.206-.019,2.911-1.912.085-.055.089.049a14,14,0,0,0,3.454,1.356l.1.024.024.1c.26,1.059.544,2.215.832,3.383l-.172-.132,5.762-.1-.169.14c.224-1.077.466-2.239.709-3.41l.022-.105.1-.029a14.029,14.029,0,0,0,3.4-1.477l0,0,.093-.055.091.055,2.977,1.8-.219.029,4-4.145-.021.217-1.907-2.913-.058-.088.052-.092a13.927,13.927,0,0,0,1.361-3.452l.025-.1.1-.024,3.384-.826-.129.167q-.049-2.95-.1-5.762l.13.157-3.408-.714-.1-.02-.025-.092a13.976,13.976,0,0,0-1.476-3.409l-.048-.081.048-.079q.931-1.529,1.81-2.973l.024.182-4.137-4.011.169.015-2.916,1.9-.065.042-.067-.037a14.082,14.082,0,0,0-3.462-1.373l-.069-.017-.016-.068c-.3-1.23-.565-2.338-.818-3.385l.1.08-5.762.076.076-.063c-.292,1.36-.532,2.476-.731,3.406l-.007.034-.034.009a14.648,14.648,0,0,0-2.635,1.013l-.62.324a1.441,1.441,0,0,1-.207.105,1.79,1.79,0,0,1,.192-.13c.132-.082.332-.2.607-.351a13.74,13.74,0,0,1,2.631-1.071l-.04.043c.188-.931.412-2.05.688-3.415l.012-.062.064,0,5.761-.126.083,0,.021.082c.26,1.045.535,2.152.841,3.38l-.085-.085a14.248,14.248,0,0,1,3.53,1.377l-.131,0,2.907-1.915.091-.06.078.075,4.154,3.994.084.082-.061.1-1.8,2.98v-.159a14.305,14.305,0,0,1,1.518,3.482l-.12-.112,3.411.706.128.026,0,.13q.053,2.81.107,5.761l0,.135-.131.033-3.382.832.126-.125a14.281,14.281,0,0,1-1.391,3.539l-.006-.179q.946,1.44,1.91,2.911l.077.117-.1.1-4,4.147-.1.1-.121-.073-2.977-1.8h.183l0,0a14.289,14.289,0,0,1-3.486,1.514l.125-.134c-.244,1.171-.486,2.334-.71,3.41l-.029.138-.14,0-5.762.1-.139,0-.033-.135c-.286-1.168-.568-2.324-.827-3.384l.125.126a14.327,14.327,0,0,1-3.536-1.4l.174-.006-2.914,1.906-.11.072-.094-.091-4.141-4.008-.091-.088.065-.108,1.809-2.973v.158a14.342,14.342,0,0,1-1.507-3.485l.111.1-3.409-.716-.109-.024,0-.111c-.031-2.021-.061-3.947-.088-5.761l0-.1.1-.024,3.385-.82-.085.085a14.254,14.254,0,0,1,1.4-3.519l0,.108-1.9-2.92-.04-.061.05-.051,4.027-4.123.032-.033.038.024,2.193,1.364.564.359a1.745,1.745,0,0,1,.191.13" transform="translate(-37.133 -28.838)" fill="#ebebeb"/>
            <path id="Trazado_235529" data-name="Trazado 235529" d="M222.024,284.759H196.5a8.71,8.71,0,0,1-8.71-8.711V250.524a8.71,8.71,0,0,1,8.71-8.711h25.525a8.711,8.711,0,0,1,8.711,8.711v25.524a8.711,8.711,0,0,1-8.711,8.711" transform="translate(-17.662 -22.742)" fill="#e0e0e0"/>
            <path id="Trazado_235530" data-name="Trazado 235530" d="M200.9,274.888a.954.954,0,0,1-.675-1.628l5.1-5.1a8.792,8.792,0,0,1,.635-11.628,8.729,8.729,0,1,1,.713,12.979l-5.1,5.1a.945.945,0,0,1-.674.28m11.235-19.009a6.814,6.814,0,1,0,4.822,2,6.773,6.773,0,0,0-4.822-2" transform="translate(-18.805 -23.886)" fill="#fff"/>
            <path id="Trazado_235531" data-name="Trazado 235531" d="M417.668,74.176H395.728a9.407,9.407,0,0,1-9.407-9.407V42.829a9.407,9.407,0,0,1,9.407-9.407h21.939a9.407,9.407,0,0,1,9.407,9.407V64.769a9.407,9.407,0,0,1-9.407,9.407" transform="translate(-36.333 -3.143)" fill="#e0e0e0"/>
            <path id="Trazado_235532" data-name="Trazado 235532" d="M410.3,63.525a1.718,1.718,0,1,1-1.71-1.726,1.718,1.718,0,0,1,1.71,1.726" transform="translate(-38.266 -5.812)" fill="#fff"/>
            <path id="Trazado_235533" data-name="Trazado 235533" d="M404.806,60.91a4.759,4.759,0,0,1,6.886-.091.967.967,0,0,0,1.373-1.36,6.712,6.712,0,0,0-9.618.078c-.857.9.5,2.275,1.36,1.373" transform="translate(-37.918 -5.405)" fill="#fff"/>
            <path id="Trazado_235534" data-name="Trazado 235534" d="M398.362,51.859a14.063,14.063,0,0,1,9.221-3.687,13.68,13.68,0,0,1,9.407,3.6c.906.851,2.281-.506,1.373-1.36a15.688,15.688,0,0,0-10.771-4.172A16.145,16.145,0,0,0,397,50.486c-.942.814.422,2.182,1.36,1.373" transform="translate(-37.308 -4.349)" fill="#fff"/>
            <path id="Trazado_235535" data-name="Trazado 235535" d="M400.908,56.805a9.452,9.452,0,0,1,13.886-.2c.868.893,2.24-.467,1.372-1.359a11.378,11.378,0,0,0-16.619.186c-.842.911.514,2.287,1.36,1.372" transform="translate(-37.553 -4.866)" fill="#fff"/>
          </g>
        </g>
        <g id="Grupo_181937" data-name="Grupo 181937">
          <g id="Grupo_181936" data-name="Grupo 181936" clip-path="url(#clip-path)">
            <path id="Trazado_235536" data-name="Trazado 235536" d="M348.982,229.577c.13,0,.236,4.567.236,10.2s-.105,10.2-.236,10.2-.235-4.566-.235-10.2.105-10.2.235-10.2" transform="translate(-32.8 -21.592)" fill="#263238"/>
            <path id="Trazado_235537" data-name="Trazado 235537" d="M264.266,105.9c-.13,0-.235-7.61-.235-17s.105-17,.235-17,.236,7.608.236,17-.105,17-.236,17" transform="translate(-24.832 -6.763)" fill="#263238"/>
            <path id="Trazado_235538" data-name="Trazado 235538" d="M231.01,151.462a3.112,3.112,0,0,1-.627.048l-1.8.043-6.615.075-21.822.069H196.99a11.869,11.869,0,0,1-1.574-.059,5.514,5.514,0,0,1-1.517-.439,7.073,7.073,0,0,1-3.746-4.434,8.967,8.967,0,0,1-.393-2.724c.01-.873.02-1.723.029-2.545.022-1.638.042-3.166.06-4.568.05-2.751.091-5,.121-6.613.024-.743.042-1.34.056-1.8a3.011,3.011,0,0,1,.053-.627,3.3,3.3,0,0,1,.043.628c.008.458.019,1.055.033,1.8.007,1.617.017,3.863.03,6.614,0,1.4,0,2.93,0,4.568.044,1.642-.19,3.425.388,5.136a6.651,6.651,0,0,0,3.518,4.143,5.074,5.074,0,0,0,1.393.4,11.558,11.558,0,0,0,1.51.052h3.156l21.822.069,6.615.075,1.8.044a3.168,3.168,0,0,1,.627.047" transform="translate(-17.847 -12.028)" fill="#263238"/>
            <path id="Trazado_235539" data-name="Trazado 235539" d="M277.892,65.972h-36.4a9.407,9.407,0,0,1-9.407-9.407v-36.4a9.407,9.407,0,0,1,9.407-9.407h36.4a9.407,9.407,0,0,1,9.407,9.407v36.4a9.407,9.407,0,0,1-9.407,9.407" transform="translate(-21.828 -1.012)" fill="#fff"/>
            <path id="Trazado_235540" data-name="Trazado 235540" d="M277.867,65.948a16.675,16.675,0,0,0,2.051-.28,9.379,9.379,0,0,0,4.974-3.021,9.052,9.052,0,0,0,1.955-3.742,19.9,19.9,0,0,0,.3-5.07c-.011-3.681-.023-7.869-.035-12.5s-.018-9.7-.029-15.147q0-2.041-.006-4.152a15.938,15.938,0,0,0-.31-4.206,9.184,9.184,0,0,0-5.612-6.266,8.9,8.9,0,0,0-2.183-.541,19.953,19.953,0,0,0-2.308-.071l-4.754,0-9.807.006-20.623,0a9.247,9.247,0,0,0-4.869,1.406,8.73,8.73,0,0,0-1.94,1.63,8.59,8.59,0,0,0-1.415,2.08,8.985,8.985,0,0,0-.794,2.367,12.845,12.845,0,0,0-.162,2.5q0,2.541,0,5.041c0,6.663-.009,13.09-.014,19.213q-.005,4.59-.01,8.946a23.415,23.415,0,0,0,.18,4.234,9.271,9.271,0,0,0,1.658,3.674,9.17,9.17,0,0,0,6.536,3.664c2.493.088,4.944.033,7.25.057l21.932.075,5.963.044,1.551.023c.349.008.528.024.528.024s-.179.016-.528.024l-1.551.023-5.963.044-21.932.075c-2.321-.014-4.725.053-7.282-.028a9.539,9.539,0,0,1-6.816-3.791,9.661,9.661,0,0,1-1.741-3.829,23.685,23.685,0,0,1-.2-4.314q0-4.35-.01-8.946c0-6.123-.009-12.55-.014-19.213q0-2.5,0-5.041A13.364,13.364,0,0,1,232,18.368a9.41,9.41,0,0,1,.833-2.49,9.053,9.053,0,0,1,1.486-2.187,9.237,9.237,0,0,1,2.038-1.714,9.712,9.712,0,0,1,5.12-1.479L262.1,10.5l9.807.005,4.754,0a20.267,20.267,0,0,1,2.361.078,9.4,9.4,0,0,1,2.287.57,9.609,9.609,0,0,1,5.859,6.568,16.334,16.334,0,0,1,.312,4.311q0,2.11-.006,4.152c-.01,5.443-.02,10.514-.029,15.147s-.025,8.816-.034,12.5a19.963,19.963,0,0,1-.342,5.127,9.2,9.2,0,0,1-2.035,3.806,9.355,9.355,0,0,1-5.09,2.993,8.366,8.366,0,0,1-1.544.185c-.351.01-.529,0-.529,0" transform="translate(-21.803 -0.987)" fill="#263238"/>
            <path id="Trazado_235541" data-name="Trazado 235541" d="M353.139,86.891h-36.4a9.407,9.407,0,0,1-9.407-9.407v-36.4a9.407,9.407,0,0,1,9.407-9.407h36.4a9.407,9.407,0,0,1,9.407,9.407v36.4a9.407,9.407,0,0,1-9.407,9.407" transform="translate(-28.905 -2.979)" fill="#fff"/>
            <path id="Trazado_235542" data-name="Trazado 235542" d="M353.114,86.867a16.694,16.694,0,0,0,2.052-.28,9.381,9.381,0,0,0,4.973-3.021,9.052,9.052,0,0,0,1.955-3.742,19.9,19.9,0,0,0,.3-5.07c-.011-3.681-.023-7.869-.035-12.5s-.018-9.7-.029-15.147q0-2.041-.006-4.152a15.941,15.941,0,0,0-.31-4.206,9.184,9.184,0,0,0-5.612-6.266,8.9,8.9,0,0,0-2.183-.541,19.951,19.951,0,0,0-2.308-.071l-4.754,0-9.807.005-20.623,0a9.247,9.247,0,0,0-4.869,1.406,8.728,8.728,0,0,0-1.94,1.63A8.615,8.615,0,0,0,308.5,37a8.988,8.988,0,0,0-.794,2.367,12.844,12.844,0,0,0-.162,2.5q0,2.541,0,5.041c0,6.663-.009,13.09-.014,19.213q-.006,4.59-.01,8.946a23.422,23.422,0,0,0,.18,4.234,9.272,9.272,0,0,0,1.658,3.674,9.171,9.171,0,0,0,6.536,3.664c2.493.088,4.943.033,7.25.057l21.932.075,5.963.044,1.551.023c.349.008.528.024.528.024s-.179.016-.528.024l-1.551.023-5.963.044-21.932.075c-2.321-.014-4.725.053-7.283-.028a9.539,9.539,0,0,1-6.815-3.791,9.662,9.662,0,0,1-1.741-3.829,23.676,23.676,0,0,1-.2-4.314q0-4.35-.01-8.946c0-6.123-.009-12.55-.014-19.213q0-2.5,0-5.041a13.362,13.362,0,0,1,.168-2.584,9.411,9.411,0,0,1,.833-2.49,9.054,9.054,0,0,1,1.486-2.187A9.235,9.235,0,0,1,311.6,32.9a9.712,9.712,0,0,1,5.12-1.479l20.623.005,9.807.005,4.754,0a20.268,20.268,0,0,1,2.361.078,9.4,9.4,0,0,1,2.287.57,9.61,9.61,0,0,1,5.859,6.568,16.334,16.334,0,0,1,.312,4.311q0,2.11-.006,4.152c-.01,5.443-.02,10.514-.029,15.147s-.024,8.816-.034,12.5a19.965,19.965,0,0,1-.342,5.127,9.2,9.2,0,0,1-2.035,3.806,9.355,9.355,0,0,1-5.09,2.993,8.366,8.366,0,0,1-1.544.185c-.351.01-.529,0-.529,0" transform="translate(-28.88 -2.955)" fill="#263238"/>
            <path id="Trazado_235543" data-name="Trazado 235543" d="M419.422,160.484h-36.4a9.407,9.407,0,0,1-9.407-9.407v-36.4a9.407,9.407,0,0,1,9.407-9.407h36.4a9.407,9.407,0,0,1,9.407,9.407v36.4a9.407,9.407,0,0,1-9.407,9.407" transform="translate(-35.138 -9.901)" fill="#fff"/>
            <path id="Trazado_235544" data-name="Trazado 235544" d="M419.4,160.46a16.709,16.709,0,0,0,2.052-.28,9.38,9.38,0,0,0,4.973-3.021,9.052,9.052,0,0,0,1.955-3.743,19.9,19.9,0,0,0,.3-5.07c-.011-3.681-.023-7.869-.035-12.5s-.018-9.7-.029-15.147q0-2.041-.006-4.152a15.941,15.941,0,0,0-.31-4.206,9.184,9.184,0,0,0-5.612-6.266,8.9,8.9,0,0,0-2.183-.541,19.94,19.94,0,0,0-2.307-.071l-4.755,0-9.807.005-20.623,0a9.247,9.247,0,0,0-4.869,1.406,8.749,8.749,0,0,0-1.94,1.63,8.562,8.562,0,0,0-1.414,2.08,8.956,8.956,0,0,0-.794,2.367,12.848,12.848,0,0,0-.162,2.5q0,2.541,0,5.041c0,6.663-.009,13.09-.014,19.213q-.005,4.592-.01,8.946a23.413,23.413,0,0,0,.18,4.234,9.272,9.272,0,0,0,1.658,3.674,9.171,9.171,0,0,0,6.536,3.664c2.493.089,4.943.033,7.25.057l21.932.075,5.963.044,1.551.023c.349.008.528.024.528.024s-.179.016-.528.024l-1.551.024-5.963.043-21.932.075c-2.321-.014-4.725.053-7.283-.028a9.54,9.54,0,0,1-6.816-3.791,9.665,9.665,0,0,1-1.741-3.828,23.684,23.684,0,0,1-.2-4.315q0-4.35-.01-8.946c0-6.123-.009-12.55-.014-19.213q0-2.5,0-5.041a13.364,13.364,0,0,1,.168-2.584,9.409,9.409,0,0,1,.834-2.49,9.05,9.05,0,0,1,1.486-2.187,9.236,9.236,0,0,1,2.038-1.714,9.7,9.7,0,0,1,5.12-1.478l20.623,0,9.807.005,4.755,0a20.261,20.261,0,0,1,2.36.078,9.4,9.4,0,0,1,2.287.57,9.61,9.61,0,0,1,5.859,6.568,16.333,16.333,0,0,1,.312,4.311q0,2.11-.006,4.152c-.01,5.443-.02,10.514-.029,15.147s-.024,8.816-.034,12.5a19.965,19.965,0,0,1-.342,5.127,9.2,9.2,0,0,1-2.035,3.806,9.354,9.354,0,0,1-5.091,2.993,8.349,8.349,0,0,1-1.543.185c-.351.01-.529,0-.529,0" transform="translate(-35.114 -9.876)" fill="#263238"/>
            <path id="Trazado_235545" data-name="Trazado 235545" d="M194.7,117.363H158.3a9.407,9.407,0,0,1-9.407-9.407v-36.4A9.407,9.407,0,0,1,158.3,62.15h36.4a9.407,9.407,0,0,1,9.407,9.407v36.4a9.407,9.407,0,0,1-9.407,9.407" transform="translate(-14.004 -5.845)" fill="#fff"/>
            <path id="Trazado_235546" data-name="Trazado 235546" d="M194.677,117.339a16.7,16.7,0,0,0,2.052-.28,9.38,9.38,0,0,0,4.973-3.021,9.052,9.052,0,0,0,1.955-3.742,19.9,19.9,0,0,0,.3-5.07c-.011-3.681-.023-7.869-.035-12.5s-.018-9.7-.029-15.147q0-2.041-.005-4.152a16.018,16.018,0,0,0-.31-4.206,9.191,9.191,0,0,0-5.613-6.266,8.939,8.939,0,0,0-2.183-.54,19.943,19.943,0,0,0-2.307-.071l-4.755,0-9.807.006-20.623,0a9.247,9.247,0,0,0-4.869,1.406,8.75,8.75,0,0,0-1.94,1.63,8.561,8.561,0,0,0-1.414,2.08,8.959,8.959,0,0,0-.795,2.367,12.847,12.847,0,0,0-.162,2.5q0,2.541,0,5.041c0,6.663-.009,13.09-.014,19.213q-.005,4.59-.01,8.946a23.415,23.415,0,0,0,.18,4.234,9.271,9.271,0,0,0,1.658,3.674,9.171,9.171,0,0,0,6.536,3.664c2.493.088,4.943.033,7.25.057l21.932.075,5.963.044,1.551.023c.349.008.528.024.528.024s-.179.016-.528.024l-1.551.023-5.963.044-21.932.075c-2.321-.014-4.725.053-7.282-.028a9.541,9.541,0,0,1-6.816-3.791,9.662,9.662,0,0,1-1.741-3.829,23.68,23.68,0,0,1-.2-4.314q0-4.35-.01-8.946c0-6.123-.009-12.55-.014-19.213q0-2.5,0-5.041a13.359,13.359,0,0,1,.169-2.584,9.41,9.41,0,0,1,.833-2.49,9.079,9.079,0,0,1,1.486-2.187,9.236,9.236,0,0,1,2.038-1.714,9.712,9.712,0,0,1,5.12-1.479l20.623.005,9.807.005,4.755,0a20.258,20.258,0,0,1,2.36.078,9.4,9.4,0,0,1,2.287.57,9.61,9.61,0,0,1,5.859,6.568,16.332,16.332,0,0,1,.312,4.311q0,2.109-.006,4.152c-.01,5.443-.02,10.514-.029,15.147s-.024,8.816-.034,12.5a19.962,19.962,0,0,1-.342,5.127,9.2,9.2,0,0,1-2.035,3.806,9.354,9.354,0,0,1-5.091,2.993,8.351,8.351,0,0,1-1.543.185c-.351.01-.529,0-.529,0" transform="translate(-13.979 -5.821)" fill="#263238"/>
            <path id="Trazado_235547" data-name="Trazado 235547" d="M372.127,136.956c0,.13-6.267.236-14,.236s-14-.105-14-.236,6.266-.236,14-.236,14,.105,14,.236" transform="translate(-32.365 -12.859)" fill="#263238"/>
            <rect id="Rectángulo_59234" data-name="Rectángulo 59234" width="6.967" height="5.334" transform="translate(143.693 94.907)" fill="#12263f"/>
            <rect id="Rectángulo_59235" data-name="Rectángulo 59235" width="6.967" height="17.634" transform="translate(152.51 82.607)" fill="#4adbd1"/>
            <rect id="Rectángulo_59236" data-name="Rectángulo 59236" width="6.967" height="10.042" transform="translate(162.199 90.199)" fill="#f4a338"/>
            <rect id="Rectángulo_59237" data-name="Rectángulo 59237" width="6.967" height="22.751" transform="translate(171.451 77.49)" fill="#1565c0"/>
            <path id="Trazado_235548" data-name="Trazado 235548" d="M161.578,97.977a3.468,3.468,0,1,1,3.468-3.468,3.473,3.473,0,0,1-3.468,3.468m0-6.03a2.562,2.562,0,1,0,2.562,2.562,2.565,2.565,0,0,0-2.562-2.562" transform="translate(-14.87 -8.562)" fill="#12263f"/>
            <path id="Trazado_235549" data-name="Trazado 235549" d="M172.578,83.412a3.468,3.468,0,1,1,3.468-3.468,3.473,3.473,0,0,1-3.468,3.468m0-6.03a2.562,2.562,0,1,0,2.562,2.562,2.565,2.565,0,0,0-2.562-2.562" transform="translate(-15.905 -7.193)" fill="#12263f"/>
            <path id="Trazado_235550" data-name="Trazado 235550" d="M182.528,92.635A3.468,3.468,0,1,1,186,89.168a3.472,3.472,0,0,1-3.468,3.467m0-6.029a2.562,2.562,0,1,0,2.562,2.562,2.565,2.565,0,0,0-2.562-2.562" transform="translate(-16.841 -8.06)" fill="#12263f"/>
            <path id="Trazado_235551" data-name="Trazado 235551" d="M193.16,79.264a3.468,3.468,0,1,1,3.468-3.468,3.473,3.473,0,0,1-3.468,3.468m0-6.03a2.562,2.562,0,1,0,2.562,2.562,2.565,2.565,0,0,0-2.562-2.562" transform="translate(-17.841 -6.802)" fill="#12263f"/>
            <rect id="Rectángulo_59238" data-name="Rectángulo 59238" width="9.732" height="0.906" transform="translate(167.304 78.896) rotate(-54.896)" fill="#12263f"/>
            <rect id="Rectángulo_59239" data-name="Rectángulo 59239" width="0.906" height="6.164" transform="translate(158.664 75.489) rotate(-43.72)" fill="#12263f"/>
            <rect id="Rectángulo_59240" data-name="Rectángulo 59240" width="10.241" height="0.906" transform="matrix(0.613, -0.79, 0.79, 0.613, 148.019, 83.159)" fill="#12263f"/>
            <path id="Trazado_235552" data-name="Trazado 235552" d="M193.624,123.54a2.64,2.64,0,1,1-2.64-2.64,2.64,2.64,0,0,1,2.64,2.64" transform="translate(-17.714 -11.371)" fill="#263238"/>
            <path id="Trazado_235553" data-name="Trazado 235553" d="M266.607,71.43a2.64,2.64,0,1,1-2.64-2.64,2.641,2.641,0,0,1,2.64,2.64" transform="translate(-24.578 -6.47)" fill="#263238"/>
            <path id="Trazado_235554" data-name="Trazado 235554" d="M375.765,136.706a2.64,2.64,0,1,1-2.64-2.64,2.64,2.64,0,0,1,2.64,2.64" transform="translate(-34.844 -12.609)" fill="#263238"/>
            <path id="Trazado_235555" data-name="Trazado 235555" d="M340.931,92.782a2.64,2.64,0,1,1-2.64-2.64,2.64,2.64,0,0,1,2.64,2.64" transform="translate(-31.568 -8.478)" fill="#263238"/>
            <path id="Trazado_235556" data-name="Trazado 235556" d="M200.153,41.973H183.169a9.407,9.407,0,0,1-9.407-9.407V15.581a9.407,9.407,0,0,1,9.407-9.407h16.984a9.407,9.407,0,0,1,9.407,9.407V32.565a9.407,9.407,0,0,1-9.407,9.407" transform="translate(-16.342 -0.581)" fill="#fff"/>
            <path id="Trazado_235557" data-name="Trazado 235557" d="M200.129,41.948c0-.031.447-.022,1.279-.145a9,9,0,0,0,3.432-1.236,9.274,9.274,0,0,0,4.533-7.762c.021-1.285,0-2.66,0-4.094-.009-2.876-.018-6.024-.029-9.4q0-1.267-.006-2.577a15.409,15.409,0,0,0-.13-2.62,8.5,8.5,0,0,0-.8-2.543,8.648,8.648,0,0,0-1.546-2.258,9.25,9.25,0,0,0-4.883-2.753,14.758,14.758,0,0,0-2.956-.183l-3.073,0-12.8,0a9.178,9.178,0,0,0-8.977,7.26,14.177,14.177,0,0,0-.206,3.01q0,1.523,0,3.015,0,2.983-.008,5.835t-.01,5.553a22.619,22.619,0,0,0,.074,2.632,9.7,9.7,0,0,0,.637,2.432,9.284,9.284,0,0,0,6.908,5.514,28.085,28.085,0,0,0,4.062.161l3.656.018,5.855.041,3.7.044.962.023a1.7,1.7,0,0,1,.328.024,1.7,1.7,0,0,1-.328.024l-.962.024-3.7.043-5.855.041-3.656.018a28.037,28.037,0,0,1-4.119-.133,9.628,9.628,0,0,1-7.211-5.69,10.032,10.032,0,0,1-.677-2.535,22.844,22.844,0,0,1-.089-2.682q0-2.7-.01-5.553t-.007-5.835q0-1.492,0-3.015a14.554,14.554,0,0,1,.21-3.107,9.635,9.635,0,0,1,9.429-7.635l12.8,0,3.073,0a15.171,15.171,0,0,1,3.047.2,9.682,9.682,0,0,1,5.11,2.9,9.047,9.047,0,0,1,1.611,2.369,8.892,8.892,0,0,1,.826,2.663,15.819,15.819,0,0,1,.124,2.685q0,1.309-.006,2.577c-.01,3.376-.02,6.524-.029,9.4-.011,1.438,0,2.8-.03,4.1a9.456,9.456,0,0,1-4.741,7.912,8.774,8.774,0,0,1-3.511,1.171,7.048,7.048,0,0,1-1.292.051" transform="translate(-16.318 -0.556)" fill="#263238"/>
            <path id="Trazado_235558" data-name="Trazado 235558" d="M194.295,24.846a4.4,4.4,0,0,0,2.62-4.068,4.132,4.132,0,1,0-8.247-.038,4.391,4.391,0,0,0,2.627,4.106c-6.345.956-6.057,7.853-6.057,7.853l15.005.069s.342-6.972-5.948-7.922" transform="translate(-17.421 -1.539)" fill="#455a64"/>
            <path id="Trazado_235559" data-name="Trazado 235559" d="M200.262,32.788h-.021l-15.027-.069V32.7a9.883,9.883,0,0,1,.65-3.577,6.939,6.939,0,0,1,1.791-2.663,6.8,6.8,0,0,1,3.557-1.623,4.4,4.4,0,0,1-2.568-4.1,4.537,4.537,0,0,1,1.227-3.119,3.99,3.99,0,0,1,2.918-1.281h.019a4.3,4.3,0,0,1,4.128,4.439,4.411,4.411,0,0,1-2.561,4.057,6.62,6.62,0,0,1,3.517,1.632,6.934,6.934,0,0,1,1.756,2.688,10.16,10.16,0,0,1,.617,3.614Zm-15-.114,14.962.069a10.135,10.135,0,0,0-.616-3.575,6.85,6.85,0,0,0-1.744-2.669,6.6,6.6,0,0,0-3.57-1.633l-.08-.012.074-.032a4.358,4.358,0,0,0,2.606-4.046,4.252,4.252,0,0,0-4.083-4.394h-.019a3.946,3.946,0,0,0-2.885,1.267,4.491,4.491,0,0,0-1.214,3.087,4.344,4.344,0,0,0,2.614,4.085l.074.032-.08.012a6.775,6.775,0,0,0-3.611,1.624,6.9,6.9,0,0,0-1.779,2.644,9.9,9.9,0,0,0-.649,3.539" transform="translate(-17.419 -1.537)" fill="#263238"/>
            <path id="Trazado_235560" data-name="Trazado 235560" d="M409,225.346H387.061a9.407,9.407,0,0,1-9.407-9.407V194a9.407,9.407,0,0,1,9.407-9.407H409A9.407,9.407,0,0,1,418.408,194v21.939A9.407,9.407,0,0,1,409,225.346" transform="translate(-35.518 -17.361)" fill="#fff"/>
            <path id="Trazado_235561" data-name="Trazado 235561" d="M408.977,225.322c0-.04.518-.005,1.477-.175a9.461,9.461,0,0,0,3.883-1.621,9.347,9.347,0,0,0,3.647-5.432,17.147,17.147,0,0,0,.251-4.174q-.008-2.246-.017-4.739c-.009-3.324-.018-6.962-.029-10.867q0-1.464-.006-2.979a15.706,15.706,0,0,0-.164-3.027,9.184,9.184,0,0,0-3.082-5.322,9.3,9.3,0,0,0-6.064-2.194l-7.036.005-14.8,0a9.189,9.189,0,0,0-9.18,9.2c0,4.78-.009,9.39-.014,13.784q-.005,3.294-.01,6.419a21.759,21.759,0,0,0,.1,3.04,8.6,8.6,0,0,0,.858,2.771,9.284,9.284,0,0,0,3.753,3.959,9.556,9.556,0,0,0,4.922,1.183l15.735.075,4.278.044,1.112.023a2.264,2.264,0,0,1,.379.024,2.252,2.252,0,0,1-.379.024l-1.112.023-4.278.044-15.735.075a9.888,9.888,0,0,1-5.1-1.2,9.64,9.64,0,0,1-3.925-4.1,8.979,8.979,0,0,1-.908-2.888,22.109,22.109,0,0,1-.117-3.1q0-3.121-.01-6.419c0-4.394-.009-9-.014-13.784a9.649,9.649,0,0,1,9.642-9.666l14.8,0,7.036.005a9.74,9.74,0,0,1,6.346,2.315,9.6,9.6,0,0,1,3.208,5.577,16.12,16.12,0,0,1,.159,3.1q0,1.514-.006,2.979c-.01,3.9-.02,7.543-.029,10.867q-.008,2.491-.016,4.739a17.244,17.244,0,0,1-.294,4.235,9.5,9.5,0,0,1-3.8,5.52,9.284,9.284,0,0,1-3.973,1.565,6.81,6.81,0,0,1-1.113.087,2.228,2.228,0,0,1-.38-.005" transform="translate(-35.494 -17.336)" fill="#263238"/>
            <path id="Trazado_235562" data-name="Trazado 235562" d="M203.662,215.261H181.722a9.407,9.407,0,0,1-9.407-9.407V183.914a9.407,9.407,0,0,1,9.407-9.407h21.939a9.407,9.407,0,0,1,9.407,9.407v21.939a9.407,9.407,0,0,1-9.407,9.407" transform="translate(-16.206 -16.412)" fill="#fff"/>
            <path id="Trazado_235563" data-name="Trazado 235563" d="M203.638,215.237c0-.04.518-.005,1.477-.175A9.462,9.462,0,0,0,209,213.441a9.347,9.347,0,0,0,3.647-5.432,17.145,17.145,0,0,0,.251-4.174q-.008-2.246-.017-4.739c-.009-3.324-.018-6.962-.029-10.867q0-1.464-.006-2.979a15.709,15.709,0,0,0-.164-3.027A9.189,9.189,0,0,0,209.6,176.9a9.3,9.3,0,0,0-6.064-2.194l-7.036.005-14.8,0a9.19,9.19,0,0,0-9.18,9.2c0,4.78-.009,9.39-.014,13.784q-.005,3.294-.01,6.419a21.758,21.758,0,0,0,.1,3.04,8.6,8.6,0,0,0,.858,2.771,9.284,9.284,0,0,0,3.753,3.959,9.556,9.556,0,0,0,4.922,1.183l15.735.075,4.278.044,1.113.023a2.263,2.263,0,0,1,.379.024,2.261,2.261,0,0,1-.379.024l-1.113.024-4.278.043-15.735.075a9.887,9.887,0,0,1-5.1-1.2,9.64,9.64,0,0,1-3.925-4.1,8.979,8.979,0,0,1-.908-2.888,21.984,21.984,0,0,1-.117-3.1q0-3.121-.01-6.419c0-4.394-.009-9-.014-13.784a9.649,9.649,0,0,1,9.642-9.666l14.8,0,7.036.005a9.741,9.741,0,0,1,6.346,2.315,9.6,9.6,0,0,1,3.208,5.577,16.115,16.115,0,0,1,.159,3.1q0,1.514-.006,2.979c-.01,3.9-.02,7.543-.029,10.867q-.008,2.491-.016,4.739a17.246,17.246,0,0,1-.294,4.235,9.5,9.5,0,0,1-3.8,5.52,9.285,9.285,0,0,1-3.974,1.565,6.812,6.812,0,0,1-1.112.087,2.228,2.228,0,0,1-.38-.005" transform="translate(-16.182 -16.388)" fill="#263238"/>
            <path id="Trazado_235564" data-name="Trazado 235564" d="M195.689,195.764a5,5,0,0,0,2.982-4.63,4.7,4.7,0,1,0-9.388-.043,5,5,0,0,0,2.991,4.674c-7.224,1.088-6.9,8.94-6.9,8.94l17.083.078s.39-7.936-6.771-9.018" transform="translate(-17.435 -17.503)" fill="#1565c0"/>
            <path id="Trazado_235565" data-name="Trazado 235565" d="M259.214,46.919a10.068,10.068,0,1,1,9.588-6.977,10.012,10.012,0,0,1-9.588,6.977m.014-18.323a8.255,8.255,0,1,0,2.529.4,8.269,8.269,0,0,0-2.529-.4" transform="translate(-23.433 -2.519)" fill="#263238"/>
            <path id="Trazado_235566" data-name="Trazado 235566" d="M274.1,54.648a.9.9,0,0,1-.668-.294l-7.482-8.147a.906.906,0,1,1,1.335-1.225l7.481,8.147a.906.906,0,0,1-.667,1.518" transform="translate(-24.99 -4.203)" fill="#263238"/>
            <path id="Trazado_235567" data-name="Trazado 235567" d="M403.127,150.768a16.791,16.791,0,1,1,16.791-16.791,16.809,16.809,0,0,1-16.791,16.791m0-32.676a15.885,15.885,0,1,0,15.885,15.885,15.9,15.9,0,0,0-15.885-15.885" transform="translate(-36.335 -11.021)" fill="#12263f"/>
            <path id="Trazado_235568" data-name="Trazado 235568" d="M403.455,150.715a15.7,15.7,0,0,1-4.305-3.963,19.843,19.843,0,0,1-3.93-13.114,20.583,20.583,0,0,1,4.6-12.77,14.83,14.83,0,0,1,4.31-3.632l.4.813c-.079.039-7.979,4.085-8.4,15.623s7.689,16.206,7.769,16.251Z" transform="translate(-37.169 -11.026)" fill="#12263f"/>
            <path id="Trazado_235569" data-name="Trazado 235569" d="M405.026,150.7l-.477-.771c.079-.049,7.936-5.059,7.51-16.607-.423-11.529-7.987-15.237-8.064-15.274l.385-.819c.332.156,8.139,3.953,8.585,16.06s-7.856,17.36-7.94,17.411" transform="translate(-37.996 -11.026)" fill="#12263f"/>
            <path id="Trazado_235570" data-name="Trazado 235570" d="M403.7,129.328c-6.8,0-11.184-2.308-13.663-4.246l.557-.714c2.367,1.85,6.563,4.054,13.105,4.054,6.332,0,10.344-2.193,12.6-4.033l.573.7c-2.365,1.933-6.571,4.237-13.169,4.237" transform="translate(-36.683 -11.697)" fill="#12263f"/>
            <path id="Trazado_235571" data-name="Trazado 235571" d="M416.337,146.019c-2.367-1.795-6.564-3.934-13.112-3.934-6.333,0-10.349,2.128-12.6,3.914l-.563-.71c2.365-1.874,6.569-4.109,13.163-4.109,6.8,0,11.18,2.239,13.658,4.118Z" transform="translate(-36.685 -13.278)" fill="#12263f"/>
            <rect id="Rectángulo_59241" data-name="Rectángulo 59241" width="32.293" height="0.906" transform="translate(350.86 122.551)" fill="#12263f"/>
            <rect id="Rectángulo_59242" data-name="Rectángulo 59242" width="22.974" height="22.974" transform="translate(290.057 250.389)" fill="#e0e0e0"/>
            <rect id="Rectángulo_59243" data-name="Rectángulo 59243" width="23.661" height="1.966" transform="translate(318.823 251.784)" fill="#e0e0e0"/>
            <rect id="Rectángulo_59244" data-name="Rectángulo 59244" width="23.661" height="1.966" transform="translate(318.823 256.329)" fill="#e0e0e0"/>
            <rect id="Rectángulo_59245" data-name="Rectángulo 59245" width="23.661" height="1.966" transform="translate(318.823 260.872)" fill="#e0e0e0"/>
            <rect id="Rectángulo_59246" data-name="Rectángulo 59246" width="23.661" height="1.966" transform="translate(318.823 265.416)" fill="#e0e0e0"/>
            <rect id="Rectángulo_59247" data-name="Rectángulo 59247" width="23.661" height="1.966" transform="translate(318.823 269.96)" fill="#e0e0e0"/>
            <path id="Trazado_235572" data-name="Trazado 235572" d="M376.249,267.91H313.5v-9.067a6.3,6.3,0,0,1,6.3-6.3h50.06a6.388,6.388,0,0,1,6.388,6.388Z" transform="translate(-29.485 -23.752)" fill="#e0e0e0"/>
            <path id="Trazado_235573" data-name="Trazado 235573" d="M370.371,307.736a6.8,6.8,0,0,0,2.218-.488,5.876,5.876,0,0,0,2.191-1.627,5.722,5.722,0,0,0,1.337-3.424c-.014-5.728-.033-13.989-.059-24.192-.008-5.108-.018-10.7-.029-16.708q0-1.127,0-2.271a6.7,6.7,0,0,0-.251-2.226,5.728,5.728,0,0,0-5.072-4.045c-.779-.043-1.619-.011-2.434-.019l-5,0-43.942.019a5.725,5.725,0,0,0-2.69.66,5.665,5.665,0,0,0-2.022,1.863,5.491,5.491,0,0,0-.877,2.585c-.044.919-.013,1.9-.023,2.837q0,5.7,0,11.213c0,7.35-.009,14.441-.014,21.195q0,2.533-.005,5,0,1.234,0,2.451a11.882,11.882,0,0,0,.113,2.368,5.771,5.771,0,0,0,4.563,4.5,11.934,11.934,0,0,0,2.229.107l16.709.029,24.194.075,6.578.043,1.711.024c.385.008.582.024.582.024s-.2.016-.582.024l-1.711.023-6.578.044L337.3,307.9l-16.709.029a12.265,12.265,0,0,1-2.3-.108,6.169,6.169,0,0,1-4.9-4.808,12.178,12.178,0,0,1-.128-2.452q0-1.218,0-2.451,0-2.468,0-5c0-6.754-.009-13.845-.014-21.195q0-5.515,0-11.213c.01-.957-.025-1.883.023-2.874a5.973,5.973,0,0,1,.951-2.806,6.006,6.006,0,0,1,5.107-2.738l43.942.019,5,0c.829.011,1.624-.021,2.465.025a6.139,6.139,0,0,1,5.427,4.347,7.105,7.105,0,0,1,.263,2.344q0,1.144,0,2.271c-.01,6-.02,11.6-.028,16.708-.029,10.219-.031,18.48-.092,24.2a5.9,5.9,0,0,1-3.675,5.129,5.96,5.96,0,0,1-1.67.395c-.387.012-.584.005-.584.005" transform="translate(-29.46 -23.727)" fill="#263238"/>
            <path id="Trazado_235574" data-name="Trazado 235574" d="M351.374,252.272a2.64,2.64,0,1,1-2.64-2.64,2.641,2.641,0,0,1,2.64,2.64" transform="translate(-32.55 -23.478)" fill="#263238"/>
            <path id="Trazado_235575" data-name="Trazado 235575" d="M389.118,213.2A13.12,13.12,0,0,0,409.3,201.55a9.363,9.363,0,0,0,2.3-2.388,9.223,9.223,0,0,1-2.649.726,4.615,4.615,0,0,0,2.028-2.552,9.22,9.22,0,0,1-2.928,1.12,4.617,4.617,0,0,0-7.862,4.208,13.094,13.094,0,0,1-9.508-4.821,4.618,4.618,0,0,0,1.428,6.16,4.594,4.594,0,0,1-2.09-.577,4.619,4.619,0,0,0,3.7,4.582,4.614,4.614,0,0,1-2.083.078,4.617,4.617,0,0,0,4.31,3.2,9.275,9.275,0,0,1-6.83,1.91" transform="translate(-36.596 -18.528)" fill="#455a64"/>
            <path id="Trazado_235576" data-name="Trazado 235576" d="M356.747,63.125c1.391,4.854-1.771,9.6-6.745,9.6H323.836a6.422,6.422,0,0,1-6.118-8.857,6.921,6.921,0,0,1,7.507-4.077,11.879,11.879,0,0,1,23-2.529s6.742-.366,8.526,5.86" transform="translate(-29.837 -4.641)" fill="#f4a338"/>
            <path id="Trazado_235577" data-name="Trazado 235577" d="M335.956,78.168V68.124h-3.935a.569.569,0,0,1-.464-.9l6.477-9.14a.568.568,0,0,1,.927,0l6.47,9.068a.569.569,0,0,1-.463.9h-3.829V78.168Z" transform="translate(-31.173 -5.44)" fill="#fff"/>
          </g>
        </g>
        <g id="Grupo_181945" data-name="Grupo 181945">
          <g id="Grupo_181944" data-name="Grupo 181944" clip-path="url(#clip-path)">
            <path id="Trazado_235578" data-name="Trazado 235578" d="M348.816,222.8,336.99,181.179H233.623l-13.469,41.484a3.883,3.883,0,0,0,3.651,5.1h47.213l1.912-1.912h22.3l1.912,1.912h47.983a3.88,3.88,0,0,0,3.693-4.964" transform="translate(-20.687 -17.04)" fill="#e0e0e0"/>
            <g id="Grupo_181940" data-name="Grupo 181940" transform="translate(199.272 164.139)" opacity="0.3">
              <g id="Grupo_181939" data-name="Grupo 181939">
                <g id="Grupo_181938" data-name="Grupo 181938" clip-path="url(#clip-path-5)">
                  <path id="Trazado_235579" data-name="Trazado 235579" d="M348.816,222.8,336.99,181.179H233.623l-13.469,41.484a3.883,3.883,0,0,0,3.651,5.1h47.213l1.912-1.912h22.3l1.912,1.912h47.983a3.88,3.88,0,0,0,3.693-4.964" transform="translate(-219.959 -181.179)"/>
                </g>
              </g>
            </g>
            <path id="Trazado_235580" data-name="Trazado 235580" d="M234.991,173.2V112.128a4.371,4.371,0,0,1,4.359-4.383h94.987a4.371,4.371,0,0,1,4.358,4.383V173.2Z" transform="translate(-22.101 -10.133)" fill="#636363"/>
            <rect id="Rectángulo_59250" data-name="Rectángulo 59250" width="91.163" height="54.308" transform="translate(219.161 103.653)" fill="#fff"/>
            <path id="Trazado_235581" data-name="Trazado 235581" d="M333.051,168.7s-.013-.342-.02-.987-.011-1.61-.02-2.853c-.011-2.508-.026-6.177-.046-10.884-.024-9.414-.056-22.967-.1-39.585l.183.183-91.157.053h-.006l.236-.236c-.006,19.234-.012,37.6-.017,54.308l-.218-.219,65.567.107,18.826.06,5.022.026,1.3.014c.294,0,.449.013.449.013s-.139.009-.423.013l-1.275.014-4.977.026-18.776.06-65.712.106h-.219V168.7c-.005-16.713-.011-35.074-.017-54.308v-.236h.243l91.157.053h.184v.183c-.041,16.666-.073,30.257-.1,39.7-.02,4.689-.035,8.345-.046,10.843q-.014,1.843-.02,2.818c-.007.633-.02.949-.02.949" transform="translate(-22.727 -10.736)" fill="#263238"/>
            <path id="Trazado_235582" data-name="Trazado 235582" d="M293.732,111.083a1.681,1.681,0,1,1-1.681-1.649,1.665,1.665,0,0,1,1.681,1.649" transform="translate(-27.309 -10.292)" fill="#263238"/>
            <path id="Trazado_235583" data-name="Trazado 235583" d="M348.816,221.1,336.99,179.48H233.623l-13.469,41.484a3.883,3.883,0,0,0,3.651,5.1h47.213l1.912-1.912h22.3l1.912,1.912h47.983a3.88,3.88,0,0,0,3.693-4.964" transform="translate(-20.687 -16.88)" fill="#636363"/>
            <path id="Trazado_235584" data-name="Trazado 235584" d="M330.724,182.395l-90.089-.3a2.093,2.093,0,0,0-2.033,1.255l-7.222,20.486c-.392,1.114.621,2.228,2.027,2.228H337.652c1.4,0,2.412-1.105,2.03-2.216l-6.938-20.184a2.092,2.092,0,0,0-2.02-1.266" transform="translate(-21.753 -17.126)" fill="#ebebeb"/>
            <g id="Grupo_181943" data-name="Grupo 181943" transform="translate(243.2 191.299)" opacity="0.1">
              <g id="Grupo_181942" data-name="Grupo 181942">
                <g id="Grupo_181941" data-name="Grupo 181941" clip-path="url(#clip-path-6)">
                  <path id="Trazado_235585" data-name="Trazado 235585" d="M306.238,224.439H270.679a2.4,2.4,0,0,1-2.157-3.05l2.009-8.408a2.274,2.274,0,0,1,2.158-1.82h31.764a2.28,2.28,0,0,1,2.172,1.884l1.786,8.408a2.391,2.391,0,0,1-2.172,2.986" transform="translate(-268.448 -211.159)"/>
                </g>
              </g>
            </g>
            <path id="Trazado_235586" data-name="Trazado 235586" d="M309.225,189.082l-.926-4.287a.64.64,0,0,0-.625-.5h-5.546a.639.639,0,0,0-.632.73l.612,4.3a.639.639,0,0,0,.634.549l5.859-.008a.64.64,0,0,0,.624-.775" transform="translate(-28.355 -17.332)" fill="#263238"/>
            <path id="Trazado_235587" data-name="Trazado 235587" d="M290.819,189.181l-.4-4.31a.641.641,0,0,0-.638-.582h-5.668a.639.639,0,0,0-.639.663l.159,4.318a.639.639,0,0,0,.641.616l5.9-.008a.64.64,0,0,0,.637-.7" transform="translate(-26.661 -17.332)" fill="#263238"/>
            <path id="Trazado_235588" data-name="Trazado 235588" d="M300.413,189.137l-.613-4.3a.639.639,0,0,0-.633-.549h-6.521a.639.639,0,0,0-.637.7l.4,4.307a.639.639,0,0,0,.638.582l6.739-.009a.64.64,0,0,0,.632-.73" transform="translate(-27.463 -17.332)" fill="#263238"/>
            <path id="Trazado_235589" data-name="Trazado 235589" d="M254.871,189.253l.876-3.915a.86.86,0,0,0-.839-1.048h-5.372a.861.861,0,0,0-.827.624l-1.121,3.922a.861.861,0,0,0,.829,1.1l5.616-.008a.861.861,0,0,0,.838-.672" transform="translate(-23.283 -17.332)" fill="#263238"/>
            <path id="Trazado_235590" data-name="Trazado 235590" d="M340.622,188.947,338.99,184.7a.64.64,0,0,0-.6-.41H327.852a.639.639,0,0,0-.6.862l1.585,4.262a.64.64,0,0,0,.6.416l10.587-.014a.64.64,0,0,0,.6-.869" transform="translate(-30.774 -17.332)" fill="#263238"/>
            <path id="Trazado_235591" data-name="Trazado 235591" d="M281.2,184.29h-6.13a.639.639,0,0,0-.639.609l-.209,4.329a.639.639,0,0,0,.64.67l6.5-.008a.64.64,0,0,0,.639-.663l-.159-4.321a.639.639,0,0,0-.639-.616" transform="translate(-25.791 -17.332)" fill="#263238"/>
            <path id="Trazado_235592" data-name="Trazado 235592" d="M246.205,184.29h-4.274a.86.86,0,0,0-.81.57l-1.411,3.932a.861.861,0,0,0,.812,1.151l4.562-.006a.858.858,0,0,0,.826-.623l1.122-3.926a.86.86,0,0,0-.827-1.1" transform="translate(-22.54 -17.332)" fill="#263238"/>
            <path id="Trazado_235593" data-name="Trazado 235593" d="M263.644,189.357l.567-4.344a.639.639,0,0,0-.633-.723h-5.454a.641.641,0,0,0-.624.5l-.974,4.352a.64.64,0,0,0,.625.78l5.86-.009a.639.639,0,0,0,.633-.556" transform="translate(-24.125 -17.332)" fill="#263238"/>
            <path id="Trazado_235594" data-name="Trazado 235594" d="M265.832,184.847l-.567,4.341a.639.639,0,0,0,.635.722l6.068-.008a.639.639,0,0,0,.638-.609l.209-4.333a.64.64,0,0,0-.639-.67h-5.71a.639.639,0,0,0-.634.557" transform="translate(-24.948 -17.332)" fill="#263238"/>
            <path id="Trazado_235595" data-name="Trazado 235595" d="M318.356,189.023l-1.267-4.275a.639.639,0,0,0-.613-.458h-5.912a.639.639,0,0,0-.625.775l.925,4.283a.639.639,0,0,0,.626.5l6.255-.008a.64.64,0,0,0,.612-.822" transform="translate(-29.148 -17.332)" fill="#263238"/>
            <path id="Trazado_235596" data-name="Trazado 235596" d="M327.062,188.971l-1.587-4.264a.638.638,0,0,0-.6-.416h-5.429a.639.639,0,0,0-.613.821l1.267,4.272a.64.64,0,0,0,.614.457l5.749-.008a.639.639,0,0,0,.6-.862" transform="translate(-29.984 -17.333)" fill="#263238"/>
            <path id="Trazado_235597" data-name="Trazado 235597" d="M281.408,191.547h-6.689a.639.639,0,0,0-.639.609l-.216,4.468a.639.639,0,0,0,.64.67l7.068-.009a.64.64,0,0,0,.638-.663l-.164-4.458a.639.639,0,0,0-.639-.616" transform="translate(-25.757 -18.015)" fill="#263238"/>
            <path id="Trazado_235598" data-name="Trazado 235598" d="M329.763,196.366l-1.637-4.4a.639.639,0,0,0-.6-.417H321.6a.639.639,0,0,0-.613.822l1.305,4.4a.641.641,0,0,0,.614.457l6.257-.008a.639.639,0,0,0,.6-.862" transform="translate(-30.186 -18.016)" fill="#263238"/>
            <path id="Trazado_235599" data-name="Trazado 235599" d="M320.493,196.418l-1.307-4.408a.64.64,0,0,0-.613-.458H312.13a.64.64,0,0,0-.625.775l.954,4.417a.64.64,0,0,0,.626.5l6.8-.008a.64.64,0,0,0,.612-.822" transform="translate(-29.296 -18.015)" fill="#263238"/>
            <path id="Trazado_235600" data-name="Trazado 235600" d="M264.932,197.305l6.622-.009a.638.638,0,0,0,.638-.608l.216-4.472a.64.64,0,0,0-.639-.67h-6.252a.638.638,0,0,0-.634.556l-.585,4.481a.639.639,0,0,0,.635.722" transform="translate(-24.857 -18.015)" fill="#263238"/>
            <path id="Trazado_235601" data-name="Trazado 235601" d="M284.55,197.282l6.272-.008a.639.639,0,0,0,.636-.7l-.408-4.446a.641.641,0,0,0-.637-.582h-6.028a.639.639,0,0,0-.639.662l.164,4.455a.639.639,0,0,0,.64.616" transform="translate(-26.686 -18.015)" fill="#263238"/>
            <path id="Trazado_235602" data-name="Trazado 235602" d="M292.674,192.247l.408,4.443a.639.639,0,0,0,.638.582l7.082-.01a.639.639,0,0,0,.632-.729L300.8,192.1a.64.64,0,0,0-.633-.549h-6.857a.639.639,0,0,0-.637.7" transform="translate(-27.526 -18.015)" fill="#263238"/>
            <path id="Trazado_235603" data-name="Trazado 235603" d="M310.772,196.477l-.955-4.421a.639.639,0,0,0-.625-.5h-6.028a.639.639,0,0,0-.633.729l.632,4.43a.639.639,0,0,0,.634.549l6.351-.008a.64.64,0,0,0,.624-.775" transform="translate(-28.452 -18.015)" fill="#263238"/>
            <path id="Trazado_235604" data-name="Trazado 235604" d="M252.719,191.544l-13.356,0a.64.64,0,0,0-.6.41l-1.739,4.516a.639.639,0,0,0,.6.87l14.088-.019a.639.639,0,0,0,.623-.5l1.007-4.5a.64.64,0,0,0-.624-.779" transform="translate(-22.288 -18.015)" fill="#263238"/>
            <path id="Trazado_235605" data-name="Trazado 235605" d="M255.493,197.316l6.485-.008a.639.639,0,0,0,.633-.557l.586-4.484a.64.64,0,0,0-.634-.722H256.5a.64.64,0,0,0-.624.5l-1.006,4.493a.64.64,0,0,0,.625.779" transform="translate(-23.969 -18.015)" fill="#263238"/>
            <path id="Trazado_235606" data-name="Trazado 235606" d="M339.262,197.217l4.175-.005a.64.64,0,0,0,.593-.878l-1.758-4.378a.639.639,0,0,0-.593-.4H337.84a.639.639,0,0,0-.608.836l1.421,4.384a.64.64,0,0,0,.609.442" transform="translate(-31.714 -18.016)" fill="#263238"/>
            <path id="Trazado_235607" data-name="Trazado 235607" d="M337.032,196.384,335.61,192a.639.639,0,0,0-.608-.442h-4.446a.64.64,0,0,0-.6.863l1.635,4.392a.639.639,0,0,0,.6.417l4.233-.005a.64.64,0,0,0,.608-.837" transform="translate(-31.029 -18.016)" fill="#263238"/>
            <path id="Trazado_235608" data-name="Trazado 235608" d="M264.216,205.532l6.565.011a.963.963,0,0,0,.963-.917l.226-4.667a.964.964,0,0,0-.962-1.009h-6.181a.963.963,0,0,0-.955.839l-.608,4.655a.963.963,0,0,0,.953,1.088" transform="translate(-24.759 -18.711)" fill="#263238"/>
            <path id="Trazado_235609" data-name="Trazado 235609" d="M343.868,198.95h-10.08a.963.963,0,0,0-.9,1.3l1.772,4.761a.963.963,0,0,0,.9.627l10.17.016a.963.963,0,0,0,.9-1.313l-1.863-4.777a.963.963,0,0,0-.9-.613" transform="translate(-31.302 -18.711)" fill="#263238"/>
            <path id="Trazado_235610" data-name="Trazado 235610" d="M254.15,199.7l-1.038,4.64a.962.962,0,0,0,.938,1.173l6.494.011a.962.962,0,0,0,.957-.838l.608-4.651a.963.963,0,0,0-.955-1.088h-6.063a.963.963,0,0,0-.939.753" transform="translate(-23.803 -18.711)" fill="#263238"/>
            <path id="Trazado_235611" data-name="Trazado 235611" d="M244.385,199.652l-1.37,4.793a.831.831,0,0,0,.8,1.059l6.632.011a.832.832,0,0,0,.813-.65l1.094-4.887a.831.831,0,0,0-.822-1.012l-6.356.083a.831.831,0,0,0-.787.6" transform="translate(-22.853 -18.713)" fill="#263238"/>
            <path id="Trazado_235612" data-name="Trazado 235612" d="M313.2,200.116l1.022,4.731a.963.963,0,0,0,.939.759l6.724.011a.963.963,0,0,0,.925-1.237l-1.406-4.742a.963.963,0,0,0-.923-.689h-6.34a.963.963,0,0,0-.941,1.166" transform="translate(-29.454 -18.711)" fill="#263238"/>
            <path id="Trazado_235613" data-name="Trazado 235613" d="M273.705,199.867l-.225,4.67a.963.963,0,0,0,.96,1.009l34.226.056a.964.964,0,0,0,.943-1.167l-1.021-4.725a.963.963,0,0,0-.941-.76H274.668a.964.964,0,0,0-.962.917" transform="translate(-25.721 -18.711)" fill="#263238"/>
            <path id="Trazado_235614" data-name="Trazado 235614" d="M236.077,199.45l-1.844,5.011a.764.764,0,0,0,.716,1.027l5.561.009a.764.764,0,0,0,.736-.554l1.434-5.02a.764.764,0,0,0-.734-.974h-5.152a.763.763,0,0,0-.717.5" transform="translate(-22.025 -18.711)" fill="#263238"/>
            <path id="Trazado_235615" data-name="Trazado 235615" d="M323.315,200.187l1.408,4.746a.961.961,0,0,0,.921.689l6.138.01a.962.962,0,0,0,.9-1.3l-1.769-4.756a.964.964,0,0,0-.9-.627h-5.775a.963.963,0,0,0-.923,1.237" transform="translate(-30.404 -18.711)" fill="#263238"/>
            <path id="Trazado_235616" data-name="Trazado 235616" d="M338.8,179.628c0,.13-23.173.236-51.752.236s-51.757-.105-51.757-.236,23.168-.236,51.757-.236,51.752.105,51.752.236" transform="translate(-22.129 -16.872)" fill="#263238"/>
            <path id="Trazado_235617" data-name="Trazado 235617" d="M269.256,130.981a13.84,13.84,0,0,1,3.124-1.951l.194-3.409,5.572-.933,1.294,3.16a13.84,13.84,0,0,1,3.589.826l2.547-2.272,4.6,3.28-1.318,3.147a13.809,13.809,0,0,1,1.951,3.125l3.409.194.933,5.572-3.159,1.295a13.882,13.882,0,0,1-.827,3.588l2.272,2.547-3.279,4.6-3.148-1.318a13.835,13.835,0,0,1-3.124,1.951l-.194,3.41-5.572.933-1.295-3.161a13.848,13.848,0,0,1-3.589-.826l-2.547,2.272-4.6-3.28,1.319-3.148a13.84,13.84,0,0,1-1.951-3.124l-3.409-.194-.933-5.572,3.16-1.295a13.838,13.838,0,0,1,.827-3.588l-2.273-2.548,3.28-4.6Zm4.09,7a6.06,6.06,0,1,0,8.453-1.416,6.06,6.06,0,0,0-8.453,1.416" transform="translate(-24.558 -11.727)" fill="#f5f5f5"/>
            <path id="Trazado_235618" data-name="Trazado 235618" d="M303.417,146.855a9.39,9.39,0,0,1,2.114-1.321l.131-2.308,3.772-.631.876,2.139a9.4,9.4,0,0,1,2.431.56l1.724-1.538,3.114,2.22-.892,2.132a9.373,9.373,0,0,1,1.321,2.115l2.308.131.632,3.772-2.14.876a9.325,9.325,0,0,1-.56,2.43l1.539,1.725-2.22,3.114-2.132-.892a9.376,9.376,0,0,1-2.115,1.321l-.131,2.307-3.771.632-.877-2.14a9.363,9.363,0,0,1-2.43-.56l-1.724,1.539-3.114-2.221.892-2.131a9.384,9.384,0,0,1-1.321-2.115l-2.308-.131-.631-3.771,2.14-.877a9.361,9.361,0,0,1,.559-2.43l-1.538-1.724,2.221-3.114Zm2.769,4.737a4.1,4.1,0,1,0,5.723-.959,4.1,4.1,0,0,0-5.723.959" transform="translate(-28.018 -13.411)" fill="#f5f5f5"/>
            <path id="Trazado_235619" data-name="Trazado 235619" d="M301.529,122.555a8.311,8.311,0,0,1,1.872-1.169l.117-2.044,3.338-.559.776,1.894a8.287,8.287,0,0,1,2.151.5l1.526-1.363,2.756,1.966-.79,1.886a8.3,8.3,0,0,1,1.17,1.873l2.043.116.559,3.339-1.893.775a8.279,8.279,0,0,1-.5,2.151l1.362,1.527-1.966,2.757-1.886-.79a8.3,8.3,0,0,1-1.873,1.169l-.116,2.043-3.339.56-.776-1.894a8.288,8.288,0,0,1-2.151-.5l-1.526,1.363-2.756-1.966.79-1.887a8.278,8.278,0,0,1-1.17-1.872l-2.043-.116-.559-3.339,1.893-.776a8.278,8.278,0,0,1,.5-2.15l-1.362-1.527,1.965-2.757Zm2.451,4.194a3.632,3.632,0,1,0,5.066-.849,3.632,3.632,0,0,0-5.066.849" transform="translate(-27.9 -11.172)" fill="#f5f5f5"/>
            <text id="PitchBook" transform="translate(227.119 133.713)" fill="#12263f" font-size="16" font-family="Roboto-Bold, Roboto" font-weight="700"><tspan x="0" y="0">PitchBook</tspan></text>
            <rect id="Rectángulo_302515" data-name="Rectángulo 302515" width="68" height="8" transform="translate(230.119 135.713)" fill="#26aab7"/>
            <text id="Información_general" data-name="Información general" transform="translate(232.119 141.713)" fill="#fff" font-size="7" font-family="Roboto-Regular, Roboto"><tspan x="0" y="0">Información general</tspan></text>
          </g>
        </g>
        <g id="Grupo_181949" data-name="Grupo 181949">
          <g id="Grupo_181948" data-name="Grupo 181948" clip-path="url(#clip-path)">
            <path id="Trazado_235637" data-name="Trazado 235637" d="M74.866,126.143c-4.141-2.545-5.22-8.572-3.06-12.926s6.841-7.047,11.627-7.892a22.372,22.372,0,0,1,19.364,6.1c2.689,2.688,4.886,6.214,8.494,7.411,3.172,1.053,6.649.01,9.969.39,4.451.511,8.3,3.613,10.639,7.437s3.339,8.308,3.931,12.749c.543,4.075.927,8.551,3.8,11.489,2.8,2.865,7.176,3.416,10.641,5.434,6.52,3.794,8.755,13.4,4.582,19.68-1.331,2-3.256,3.851-3.378,6.254-.112,2.192,1.332,4.122,2.027,6.206,1.786,5.364-2.532,11.831-8.171,12.238-2.847.206-5.916-.861-8.451.45-2.519,1.3-3.418,4.376-5.006,6.724a12.2,12.2,0,0,1-14.82,4.06c-2.11-1-4.114-2.664-6.44-2.474s-4.123,2.2-6.4,2.678c-2.986.622-5.861-1.541-7.677-3.991s-3.1-5.348-5.408-7.341c-3.021-2.61-7.222-3.2-11.016-4.449a30.889,30.889,0,0,1-18.075-43.011" transform="translate(-5.539 -9.876)" fill="#263238"/>
            <path id="Trazado_235638" data-name="Trazado 235638" d="M125.146,186.6a8.382,8.382,0,0,1,3.3-2.24l-.255-.012a4.9,4.9,0,0,1,.712-.131,3.31,3.31,0,0,1,2.606.284h-.024a6.16,6.16,0,0,1,3.412,2.883,7.292,7.292,0,0,1-.749,7.525,5.572,5.572,0,0,1-10.253-1.765,6.918,6.918,0,0,1,1.253-6.543" transform="translate(-11.622 -17.312)" fill="#455a64"/>
            <path id="Trazado_235639" data-name="Trazado 235639" d="M65.8,227.173,60.269,147.2a6.8,6.8,0,0,1,5.777-7.148l35.636-10.657c11.485-1.718,19.768,12.16,21,23.707,1.364,12.831,2.524,28.547,1.413,38.212-2.234,19.434-18.082,22.6-18.082,22.6-.008-.066.172,19.753.391,26.77l4.728,21.692Z" transform="translate(-5.667 -12.156)" fill="#ffc09d"/>
            <path id="Trazado_235640" data-name="Trazado 235640" d="M120.914,173.7a2.477,2.477,0,0,1-2.279,2.6,2.371,2.371,0,0,1-2.648-2.123,2.48,2.48,0,0,1,2.277-2.6,2.371,2.371,0,0,1,2.651,2.124" transform="translate(-10.908 -16.136)" fill="#263238"/>
            <path id="Trazado_235641" data-name="Trazado 235641" d="M124.639,163.088c-.293.336-2.228-.971-4.891-.849-2.663.083-4.558,1.537-4.861,1.224-.148-.139.14-.735.964-1.391a6.8,6.8,0,0,1,3.875-1.38,6.539,6.539,0,0,1,3.91,1.079c.846.593,1.149,1.166,1,1.316" transform="translate(-10.802 -15.113)" fill="#263238"/>
            <path id="Trazado_235642" data-name="Trazado 235642" d="M94.441,174.6a2.477,2.477,0,0,1-2.279,2.6,2.369,2.369,0,0,1-2.647-2.122,2.479,2.479,0,0,1,2.277-2.6,2.371,2.371,0,0,1,2.65,2.124" transform="translate(-8.418 -16.22)" fill="#263238"/>
            <path id="Trazado_235643" data-name="Trazado 235643" d="M95.763,164.881c-.294.336-2.231-.97-4.893-.849-2.662.083-4.558,1.537-4.86,1.224-.148-.139.137-.734.964-1.391a6.8,6.8,0,0,1,3.874-1.38,6.534,6.534,0,0,1,3.911,1.079c.844.593,1.149,1.165,1,1.316" transform="translate(-8.086 -15.281)" fill="#263238"/>
            <path id="Trazado_235644" data-name="Trazado 235644" d="M108.159,184.176c-.019-.151,1.624-.508,4.292-.967.678-.1,1.315-.263,1.41-.732a3.462,3.462,0,0,0-.54-2q-1.067-2.428-2.235-5.093c-3.11-7.254-5.394-13.23-5.1-13.353s3.053,5.658,6.163,12.912q1.125,2.684,2.152,5.127a3.939,3.939,0,0,1,.467,2.654,1.711,1.711,0,0,1-1.075,1.043,4.6,4.6,0,0,1-1.149.21c-2.693.262-4.368.346-4.385.195" transform="translate(-9.966 -15.239)" fill="#263238"/>
            <path id="Trazado_235645" data-name="Trazado 235645" d="M108.041,220.656s-11.788,1.32-24.985-5.859c0,0,5.8,14.281,25.04,11.643Z" transform="translate(-7.811 -20.202)" fill="#ff9b6c"/>
            <path id="Trazado_235646" data-name="Trazado 235646" d="M107.274,193.21a6.558,6.558,0,0,0-5.519-2.63,4.273,4.273,0,0,0-3.423,2.057,3.914,3.914,0,0,0,4.638,5.671,9.727,9.727,0,0,0,3.818-2.595,3.026,3.026,0,0,0,.8-1.033,1.361,1.361,0,0,0-.162-1.347" transform="translate(-9.202 -17.922)" fill="#ff9b6c"/>
            <path id="Trazado_235647" data-name="Trazado 235647" d="M99.783,188.882c.432-.044.562,2.847,3.126,4.792s5.627,1.5,5.667,1.9c.048.18-.662.592-1.961.683a7.207,7.207,0,0,1-4.724-1.421,6.276,6.276,0,0,1-2.435-4.026c-.162-1.2.13-1.934.328-1.926" transform="translate(-9.349 -17.764)" fill="#263238"/>
            <path id="Trazado_235648" data-name="Trazado 235648" d="M96.3,152.785c-.231.736-2.905.506-6.014,1.018-3.12.448-5.6,1.471-6.044.84-.2-.3.212-1,1.2-1.749a10.6,10.6,0,0,1,9.185-1.415c1.167.412,1.768.957,1.671,1.305" transform="translate(-7.918 -14.201)" fill="#263238"/>
            <path id="Trazado_235649" data-name="Trazado 235649" d="M123.24,153c-.442.625-2.3.077-4.512.141-2.211-.012-4.058.583-4.515-.032-.2-.3.066-.918.858-1.526a6.535,6.535,0,0,1,7.274-.088c.806.588,1.089,1.2.9,1.5" transform="translate(-10.736 -14.148)" fill="#263238"/>
            <path id="Trazado_235650" data-name="Trazado 235650" d="M137.12,146.421a13.261,13.261,0,0,0-5.2-7.233,49.244,49.244,0,0,1-4.335-2.438c-2.824-2.212-3.527-6.123-5.3-9.243a14.586,14.586,0,0,0-11.217-7.208c-3.833-.335-7.759.871-11.5-.015-2.767-.654-5.2-2.409-8-2.9-5.455-.954-10.454,3.023-14.34,6.968.043,3.894,3.183,6.452,6.2,8.907a13.5,13.5,0,0,0,10.976,2.725c2.963-.586,6.2-2.136,8.794-.591,2.73,1.626,2.9,5.7,5.331,7.75,3.472,2.925,8.884.053,13.255,1.281,3.376.948,5.524,4.129,7.8,6.8s5.655,5.191,9,4.145a39.476,39.476,0,0,0-1.465-8.949" transform="translate(-7.263 -11.026)" fill="#263238"/>
            <path id="Trazado_235651" data-name="Trazado 235651" d="M91.31,130.745c-2.449-.662-7.461-2.168-8.8-4.263-2.907-4.552-7.961-7.615-13.074-7.261A12.3,12.3,0,0,0,58.5,129.106a17.691,17.691,0,0,0-15.061,10.009,18.554,18.554,0,0,0-.932,2.283,13.458,13.458,0,0,0-.735,11.312c.876,2.19,2.348,4.619,1.247,6.7-1.122,2.122-4.036,2.23-6.294,3.046a8.936,8.936,0,0,0-5.483,10.063c.336,1.46,1.058,2.913.775,4.385-.3,1.532-1.587,2.629-2.573,3.838a11.122,11.122,0,0,0,6.786,18.006c1.739.29,3.619.189,5.134,1.092,1.738,1.035,2.521,3.095,3.76,4.693a9.593,9.593,0,0,0,10.442,3.1,8.757,8.757,0,0,0,2.074-1.081c1.186,1.594,3.025,2.659,6.143,2.613l-1.312-40.7a3.371,3.371,0,0,0,2.5,1.9c6.555,1.382,7.315-12.1,5.8-15.726a37.982,37.982,0,0,0,6.457-6.99c1.765-2.693,3.247-9.987,2.815-13.255,2.357.1,12.342-3.357,11.266-3.647" transform="translate(-2.536 -11.21)" fill="#263238"/>
            <path id="Trazado_235652" data-name="Trazado 235652" d="M66.943,176.8c-.267-4.136-5.344-4.946-8.9-2.82-1.952,1.167-3.425,3.478-3.181,7.868.654,11.709,12.275,8.637,12.277,8.3,0-.209.118-8.507-.195-13.349" transform="translate(-5.157 -16.256)" fill="#ffc09d"/>
            <path id="Trazado_235653" data-name="Trazado 235653" d="M63.625,186.317c-.053-.034-.2.154-.532.332a2.043,2.043,0,0,1-1.523.117c-1.263-.385-2.414-2.291-2.588-4.4a6.738,6.738,0,0,1,.408-2.952,2.358,2.358,0,0,1,1.447-1.652,1.039,1.039,0,0,1,1.235.491c.176.319.114.557.178.573.034.027.24-.21.119-.689a1.3,1.3,0,0,0-.5-.708,1.543,1.543,0,0,0-1.144-.236,2.872,2.872,0,0,0-2.029,1.934,6.932,6.932,0,0,0-.525,3.3c.207,2.355,1.538,4.5,3.258,4.89a2.188,2.188,0,0,0,1.848-.413c.347-.31.394-.575.352-.594" transform="translate(-5.468 -16.663)" fill="#ff9b6c"/>
            <path id="Trazado_235654" data-name="Trazado 235654" d="M77.308,128.711A7,7,0,0,0,75,130.7c-1.137,1.613-1.528,4.679-.744,8.115l.067.3-.287.076a11.327,11.327,0,0,0-7.451,6.76,8.8,8.8,0,0,0-.565,2.867,17.228,17.228,0,0,0,.412,3.09,23.249,23.249,0,0,1,.495,3.328,5.506,5.506,0,0,1-.878,3.471c-1.424,2.239-3.751,3.364-5.748,4.452a19.7,19.7,0,0,0-5.388,3.643,14.646,14.646,0,0,0-4.233,9.881,15.287,15.287,0,0,0,1.65,7.218c.8,1.588,1.467,2.342,1.4,2.391-.023.018-.2-.16-.509-.519a12.483,12.483,0,0,1-1.175-1.719,14.873,14.873,0,0,1-1.951-7.377,15.074,15.074,0,0,1,4.272-10.407,20.185,20.185,0,0,1,5.553-3.826c2-1.087,4.188-2.2,5.428-4.176,1.272-1.8.658-4.111.285-6.2a17.8,17.8,0,0,1-.409-3.246,9.523,9.523,0,0,1,.64-3.136,11.872,11.872,0,0,1,8.018-7.081l-.22.371c-.747-3.6-.244-6.778,1.058-8.46a4.932,4.932,0,0,1,1.811-1.521,2.875,2.875,0,0,1,.776-.275" transform="translate(-4.711 -12.105)" fill="#455a64"/>
            <path id="Trazado_235655" data-name="Trazado 235655" d="M59.271,191.916a8.38,8.38,0,0,1,3.3-2.24l-.255-.012a4.9,4.9,0,0,1,.712-.131,3.306,3.306,0,0,1,2.606.284h-.024A6.157,6.157,0,0,1,69.02,192.7a7.292,7.292,0,0,1-.749,7.525,6.133,6.133,0,0,1-6.015,2.583,6.167,6.167,0,0,1-4.238-4.348,6.918,6.918,0,0,1,1.253-6.543" transform="translate(-5.426 -17.813)" fill="#455a64"/>
            <path id="Trazado_235656" data-name="Trazado 235656" d="M246.864,286.391l7.982-3.06s2.176-6.962,3.626-9.006,9.155-8.3,9.608-8.472,5.514-11.525,7.822-11.156,3.9,1.989,3.253,5.072-5.757,9.227-4.341,10.249a10.355,10.355,0,0,0,3.722,1.392s.628-3.54,2.57-4.685,4.156.756,4.156.756l.059,1.527,1.919-1.756s2.018-7.109,5.076-7.075a12.441,12.441,0,0,1,3.018-4.056,2.632,2.632,0,0,1,4.055,1.184l-5.49,16.109-15.1,16.633s-7.078,2.72-8.88,3.554-9.989,6.5-13.611,7.711-7.83,3.055-7.83,3.055Z" transform="translate(-23.218 -23.953)" fill="#ffc09d"/>
            <path id="Trazado_235657" data-name="Trazado 235657" d="M268.728,284.177a9.169,9.169,0,0,0-2.866-.294,13.258,13.258,0,0,0-6.835,1.5,8.307,8.307,0,0,0-2.832,2.729,13,13,0,0,0-1.351,2.866,8.539,8.539,0,0,0-.657,2.808,14.1,14.1,0,0,0,1.167-2.61,10.226,10.226,0,0,1,4.063-5.122,14.669,14.669,0,0,1,6.458-1.623,12.718,12.718,0,0,0,2.852-.255" transform="translate(-23.904 -26.699)" fill="#ff9b6c"/>
            <path id="Trazado_235658" data-name="Trazado 235658" d="M277.484,271.9c.119-.17-.7-.917-1.989-1.3s-2.38-.217-2.375-.009.991.4,2.153.751,2.092.742,2.211.556" transform="translate(-25.687 -25.428)" fill="#ff9b6c"/>
            <path id="Trazado_235659" data-name="Trazado 235659" d="M296.185,273.985a16.412,16.412,0,0,1,.352-3.494c.315-2.172.805-5.212,1.41-8.7l.226.455c-.532-.244-1.177-.628-1.652-.778a2.111,2.111,0,0,0-1.61.206,4.65,4.65,0,0,0-1.866,2.256,16.747,16.747,0,0,0-.989,2.786c-.437,1.862-.728,3.592-1,5.03a28.794,28.794,0,0,1-.978,4.657,23.242,23.242,0,0,1,.365-4.751c.192-1.459.417-3.191.822-5.12a16.419,16.419,0,0,1,1-2.962,5.394,5.394,0,0,1,2.242-2.674,2.973,2.973,0,0,1,2.254-.263,16.065,16.065,0,0,1,1.794.854l.287.134-.06.322c-.65,3.48-1.249,6.5-1.71,8.645a16.377,16.377,0,0,1-.888,3.4" transform="translate(-27.278 -24.501)" fill="#ff9b6c"/>
            <path id="Trazado_235660" data-name="Trazado 235660" d="M274.929,288.373c-.037-.008-.013-.245.069-.692a9.538,9.538,0,0,1,.65-1.848,23.578,23.578,0,0,1,3.962-5.775l-.085.145c1.045-3.093.1-7.569,2.9-11.568a3.67,3.67,0,0,1,2.909-1.294,5.384,5.384,0,0,1,2.818.987l.2.137-.031.25c-.563,4.525-1.082,8.434-1.484,11.207a7.279,7.279,0,0,1-1.016,3.154c-.392.67-.676.987-.715.96a5.79,5.79,0,0,1,.458-1.09,7.921,7.921,0,0,0,.745-3.115c.255-2.789.663-6.7,1.171-11.207l.17.386a4.62,4.62,0,0,0-2.345-.8,2.8,2.8,0,0,0-2.23,1.009,6.634,6.634,0,0,0-1.3,2.708,25.609,25.609,0,0,0-.631,2.96c-.169.984-.213,1.891-.328,2.864a17.192,17.192,0,0,1-.59,2.669l-.025.082-.061.064a27.016,27.016,0,0,0-4.111,5.457c-.813,1.439-1,2.376-1.094,2.353" transform="translate(-25.855 -25.143)" fill="#ff9b6c"/>
            <path id="Trazado_235661" data-name="Trazado 235661" d="M60.7,234.463c.481-.694,3.684-6.881,3.684-6.881l18.171,15.663s17.812,14.918,17.812,13.953l2.842-14.35,3.5-13.057,6.536,9.875s20.532,40.254,20.532,40.737,12.708,42.145,12.708,42.145l-2.735,16.891-.322,59.84L105.14,397.67,97.58,385.6l-13.03-76.73Z" transform="translate(-5.708 -21.404)" fill="#fff"/>
            <path id="Trazado_235662" data-name="Trazado 235662" d="M111.8,404.034h40.789l6.462,27.413H96.328Z" transform="translate(-9.06 -37.999)" fill="#263238"/>
            <path id="Trazado_235663" data-name="Trazado 235663" d="M104.432,376.424c-1.284-19.654-.747-56.73-8.27-76.074s-37.722-66.87-37.722-66.87l-7.413,11.525L31.591,252.3,57.959,359.187S47.8,383.1,42.967,397.07c-1.445,4.175-3.4,11.265-5.533,18.336h66.728c.59-15.545.876-29.7.27-38.982" transform="translate(-2.971 -21.959)" fill="#12263f"/>
            <path id="Trazado_235664" data-name="Trazado 235664" d="M242.34,279.488,190.9,308.081l-35.646-50.866q-.144-.2-.307-.412c-4.055-5.369-8.042-11.278-14.606-12.755l-.994-.224,1.908,60.888S166.6,332.651,180.813,344.2c4.231,3.44,14.956,1.291,20.066-1.528,20.473-11.3,55.438-40.266,55.438-40.266Z" transform="translate(-13.106 -22.932)" fill="#12263f"/>
            <path id="Trazado_235665" data-name="Trazado 235665" d="M153.773,359.439s3.747-29.065,4.975-36.363c6.432-38.2-21.9-80.433-21.9-80.433L123.89,240.5l-11.175-9.23,4.936,13.789s16.232,45.412,19.456,59.92,4.836,59.106,5.339,58.031c.3-.633,2.249,26.926,4.7,52.187h27.5Z" transform="translate(-10.601 -21.751)" fill="#12263f"/>
            <path id="Trazado_235666" data-name="Trazado 235666" d="M152.533,328.035a5.3,5.3,0,0,1,.009-.947q.054-1.014.146-2.7.056-.886.121-1.947,0-1.075,0-2.32c0-1.664.04-3.559-.122-5.65a117.711,117.711,0,0,0-6.363-31.992,110.43,110.43,0,0,0-5.16-12.7l-.007-.014,0-.011a109.084,109.084,0,0,0-5.957-11.609c-1.967-3.418-3.781-6.4-5.3-8.858-1.507-2.413-2.719-4.351-3.59-5.746l-.956-1.536a2.982,2.982,0,0,1-.3-.548,2.779,2.779,0,0,1,.39.491l1.038,1.484c.893,1.3,2.173,3.219,3.74,5.656s3.42,5.394,5.424,8.8a104.615,104.615,0,0,1,6.069,11.638l-.011-.023a107.3,107.3,0,0,1,5.223,12.773,113.1,113.1,0,0,1,6.212,32.176c.135,2.1.067,4.005.03,5.676-.02.831-.039,1.608-.056,2.327q-.1,1.061-.176,1.95c-.111,1.123-.2,2.019-.265,2.694a5.312,5.312,0,0,1-.135.934" transform="translate(-11.761 -22.709)" fill="#263238"/>
            <path id="Trazado_235667" data-name="Trazado 235667" d="M101.56,259.9a2.82,2.82,0,0,1-.723-.317l-1.961-1.036-6.918-3.828.406-.2c-.338,3.109-.909,6.741-1.481,10.611-.231,1.576-.448,3.113-.626,4.582l-.069.567-.434-.369c-3.7-3.148-6.917-5.919-9.2-7.916l-2.66-2.368a5.8,5.8,0,0,1-.913-.912,5.922,5.922,0,0,1,1.052.749l2.778,2.229c2.349,1.915,5.617,4.626,9.338,7.75l-.5.2c.17-1.48.382-3.023.614-4.6.573-3.877,1.173-7.5,1.561-10.584l.053-.413.353.209,6.806,4.023,1.886,1.166a2.8,2.8,0,0,1,.64.463" transform="translate(-7.24 -23.893)" fill="#263238"/>
            <path id="Trazado_235668" data-name="Trazado 235668" d="M114.715,240.92a8.229,8.229,0,0,1,.056,1.638c-.021,1.175-.048,2.671-.081,4.457-.094,3.762-.269,8.959-.5,14.7-.005.141-.011.282-.016.419l-.041,1-.537-.846-6.877-10.84.43-.053c-.758,2.087-1.392,3.83-1.883,5.177a11.29,11.29,0,0,1-.786,1.88,11.483,11.483,0,0,1,.53-1.967l1.683-5.246.153-.479.278.427,7,10.762-.578.157c.006-.137.012-.277.017-.418.232-5.737.477-10.93.685-14.689.112-1.783.206-3.276.28-4.449a8.192,8.192,0,0,1,.188-1.628" transform="translate(-9.826 -22.658)" fill="#263238"/>
            <path id="Trazado_235669" data-name="Trazado 235669" d="M29.3,254.255a29.055,29.055,0,0,0-4.513,3.472,30.73,30.73,0,0,0-7.861,12.383c-1.835,5.241-3.654,11.69-4.709,15.751L7.3,360.466a43.9,43.9,0,0,0,3.136,19.417L25.667,417.36H58.513L40.784,367.218,46.855,311.9Z" transform="translate(-0.677 -23.913)" fill="#12263f"/>
            <path id="Trazado_235670" data-name="Trazado 235670" d="M53.926,244.833,61.151,266.5h7.7l-5,3.18,39.5,75.5" transform="translate(-5.072 -23.026)" fill="#314d71"/>
            <path id="Trazado_235671" data-name="Trazado 235671" d="M103.355,345.179a1.134,1.134,0,0,1-.174-.264l-.456-.8L101.03,341l-6.133-11.5c-5.145-9.783-12.214-23.223-20.022-38.069-4.021-7.7-7.842-15.026-11.277-21.61l-.123-.236.225-.142,5-3.166.147.5-7.7-.028h-.178l-.055-.168-5.171-15.85-1.382-4.357-.343-1.142a1.756,1.756,0,0,1-.094-.4,1.779,1.779,0,0,1,.164.375c.106.291.242.66.411,1.121l1.508,4.315c1.293,3.8,3.129,9.19,5.374,15.782l-.233-.168,7.7-.027.94,0-.794.508-4.987,3.193.1-.379,11.323,21.585,19.859,38.154,5.956,11.6c.673,1.341,1.2,2.4,1.591,3.168l.4.832a1.2,1.2,0,0,1,.117.293" transform="translate(-5.071 -23.027)" fill="#263238"/>
            <path id="Trazado_235672" data-name="Trazado 235672" d="M37.841,265.914a48.18,48.18,0,0,1,10.659,41" transform="translate(-3.559 -25.009)" fill="#314d71"/>
            <path id="Trazado_235673" data-name="Trazado 235673" d="M48.5,306.913c-.128-.024.413-2.43.641-6.375a50.145,50.145,0,0,0-.1-6.926,54.638,54.638,0,0,0-1.426-8.352,54.741,54.741,0,0,0-2.823-7.991,50.17,50.17,0,0,0-3.285-6.1c-2.12-3.336-3.764-5.173-3.665-5.256a8.976,8.976,0,0,1,1.189,1.256,18.709,18.709,0,0,1,1.281,1.573c.471.636,1.042,1.337,1.569,2.184a45.359,45.359,0,0,1,3.44,6.1,51.234,51.234,0,0,1,2.9,8.075,51.224,51.224,0,0,1,1.4,8.464,45.368,45.368,0,0,1-.033,7c-.048,1-.2,1.887-.307,2.672a18.749,18.749,0,0,1-.352,2,9.055,9.055,0,0,1-.427,1.676" transform="translate(-3.559 -25.009)" fill="#263238"/>
            <path id="Trazado_235674" data-name="Trazado 235674" d="M61.974,423.345a1.176,1.176,0,0,1-.113-.25c-.074-.192-.17-.439-.29-.748-.255-.692-.613-1.661-1.07-2.9l-3.859-10.694c-3.23-9.079-7.682-21.593-12.619-35.476L44,373.231l.005-.054c.043-.386.089-.8.134-1.222,1.666-14.923,3.173-28.43,4.268-38.244.566-4.867,1.026-8.816,1.347-11.583.166-1.342.3-2.4.39-3.146.047-.339.084-.608.113-.817a1.293,1.293,0,0,1,.055-.277,1.254,1.254,0,0,1-.007.282c-.017.211-.039.483-.066.823-.072.754-.173,1.811-.3,3.156-.286,2.771-.694,6.727-1.2,11.6-1.06,9.818-2.519,23.33-4.13,38.259-.046.419-.092.836-.134,1.222l-.012-.1c4.885,13.9,9.29,26.431,12.485,35.523,1.564,4.517,2.832,8.178,3.72,10.743.421,1.247.752,2.226.987,2.925l.246.764a1.192,1.192,0,0,1,.069.265" transform="translate(-4.139 -29.897)" fill="#263238"/>
            <path id="Trazado_235675" data-name="Trazado 235675" d="M148.881,265.208a72.959,72.959,0,0,1,5.332,10.142c.765,1.6,1.4,3.44,2.176,5.375.652,1.979,1.436,4.069,2.027,6.34.68,2.245,1.2,4.651,1.768,7.139q.345,1.882.7,3.828c.241,1.3.378,2.627.574,3.965a128.038,128.038,0,0,1,.367,27.645l-.533,4.751c-.149,1.4-.373,2.591-.512,3.571q-.227,1.417-.361,2.251a4.967,4.967,0,0,1-.158.779,5.017,5.017,0,0,1,.063-.794q.1-.837.273-2.262c.111-.983.308-2.178.432-3.577s.292-3,.462-4.749a134.722,134.722,0,0,0-.5-27.556c-.2-1.332-.332-2.658-.57-3.948l-.69-3.812c-.557-2.478-1.069-4.875-1.735-7.114-.576-2.263-1.343-4.349-1.977-6.325-.757-1.932-1.371-3.771-2.114-5.375q-.526-1.213-1-2.312c-.322-.728-.672-1.392-.975-2.026-.614-1.262-1.133-2.355-1.626-3.212l-1.076-2.008a5.1,5.1,0,0,1-.348-.717" transform="translate(-14.002 -24.943)" fill="#263238"/>
            <path id="Trazado_235676" data-name="Trazado 235676" d="M196.6,330.6a8.52,8.52,0,0,1-.946-2.232,22.354,22.354,0,0,1-.513-11.6,8.5,8.5,0,0,1,.745-2.308,22.345,22.345,0,0,1-.418,2.372,26.769,26.769,0,0,0,.506,11.443,22.209,22.209,0,0,1,.625,2.326" transform="translate(-18.303 -29.575)" fill="#263238"/>
          </g>
        </g>
      </g>
    </g>
  </g>
</svg>
