<svg id="Grupo_889558" data-name="Grupo 889558" xmlns="http://www.w3.org/2000/svg" xmlns:xlink="http://www.w3.org/1999/xlink" width="131.772" height="141.18" viewBox="0 0 131.772 141.18">
  <defs>
    <clipPath id="clip-path">
      <rect id="Rectángulo_299379" data-name="Rectángulo 299379" width="131.772" height="141.18" fill="#12263f"/>
    </clipPath>
    <clipPath id="clip-path-2">
      <rect id="Rectángulo_300400" data-name="Rectángulo 300400" width="48.699" height="48.687" fill="#12263f"/>
    </clipPath>
  </defs>
  <path id="Trazado_604676" data-name="Trazado 604676" d="M60.186,17.652h79.266V123.43H60.186ZM139.542,0V13.076H60.1V.02H55.662v13.2H46.993v4.386h8.652V123.563H46.963v4.386h8.753v13.23h4.413V128.021h79.428V141.18h4.413V127.9H152.7v-4.435h-8.667V17.558h8.648V13.123h-8.754V0Z" transform="translate(-33.984)" fill="#12263f"/>
  <g id="Grupo_888483" data-name="Grupo 888483">
    <g id="Grupo_888482" data-name="Grupo 888482" clip-path="url(#clip-path)">
      <path id="Trazado_604677" data-name="Trazado 604677" d="M443.8,373.244c-1.324,1.9-2.659,3.8-3.969,5.712-1.593,2.327-3.187,2.326-4.769-.036-1.272-1.9-2.53-3.811-3.874-5.836l3.665-2.451,2.613,3.78,2.528-3.726,3.805,2.282Z" transform="translate(-312.023 -268.205)" fill="#12263f"/>
      <path id="Trazado_604678" data-name="Trazado 604678" d="M443.726,111.3l-3.793,2.275-2.533-3.7-2.6,3.735-3.707-2.431c1.6-2.351,3.063-4.707,4.74-6.9.867-1.136,2.635-.811,3.53.478,1.2,1.73,2.34,3.5,3.521,5.247a13.091,13.091,0,0,0,.846,1.021Z" transform="translate(-311.954 -74.961)" fill="#12263f"/>
      <path id="Trazado_604679" data-name="Trazado 604679" d="M.045,373.067l3.691-2.46,2.584,3.8,2.584-3.8,3.69,2.46c-1.506,2.257-2.9,4.463-4.416,6.576a2.163,2.163,0,0,1-3.716,0c-1.52-2.112-2.91-4.318-4.418-6.577" transform="translate(-0.033 -268.187)" fill="#12263f"/>
      <path id="Trazado_604680" data-name="Trazado 604680" d="M8.882,113.653,6.306,109.9,3.7,113.631,0,111.2c1.574-2.331,3.032-4.65,4.662-6.842a2.19,2.19,0,0,1,3.476.232c1.5,2.137,2.913,4.34,4.424,6.609l-3.68,2.452" transform="translate(0 -74.974)" fill="#12263f"/>
      <rect id="Rectángulo_299365" data-name="Rectángulo 299365" width="4.228" height="4.233" transform="translate(4.162 44.185)" fill="#12263f"/>
      <rect id="Rectángulo_299366" data-name="Rectángulo 299366" width="4.235" height="4.233" transform="translate(123.323 44.137)" fill="#12263f"/>
      <rect id="Rectángulo_299367" data-name="Rectángulo 299367" width="4.182" height="4.281" transform="translate(4.191 52.994)" fill="#12263f"/>
      <rect id="Rectángulo_299368" data-name="Rectángulo 299368" width="4.228" height="4.233" transform="translate(123.303 53.013)" fill="#12263f"/>
      <rect id="Rectángulo_299369" data-name="Rectángulo 299369" width="4.247" height="4.272" transform="translate(4.152 61.784)" fill="#12263f"/>
      <rect id="Rectángulo_299370" data-name="Rectángulo 299370" width="4.271" height="4.248" transform="translate(4.14 75.062)" fill="#12263f"/>
      <rect id="Rectángulo_299371" data-name="Rectángulo 299371" width="4.23" height="4.256" transform="translate(123.326 75.058)" fill="#12263f"/>
      <rect id="Rectángulo_299372" data-name="Rectángulo 299372" width="4.273" height="4.202" transform="translate(4.115 83.914)" fill="#12263f"/>
      <rect id="Rectángulo_299373" data-name="Rectángulo 299373" width="4.28" height="4.215" transform="translate(123.298 83.907)" fill="#12263f"/>
      <rect id="Rectángulo_299374" data-name="Rectángulo 299374" width="4.224" height="4.25" transform="translate(4.164 92.694)" fill="#12263f"/>
      <rect id="Rectángulo_299375" data-name="Rectángulo 299375" width="4.182" height="4.281" transform="translate(123.343 92.659)" fill="#12263f"/>
      <rect id="Rectángulo_299376" data-name="Rectángulo 299376" width="4.232" height="4.258" transform="translate(123.325 61.815)" fill="#12263f"/>
      <path id="Trazado_604682" data-name="Trazado 604682" d="M285.959,104.29v-4.258h-15.32V95.66c.345-.024.7-.071,1.05-.071q7.928-.007,15.856,0c2.094,0,2.824.729,2.834,2.8.009,1.93,0,3.86,0,5.9Z" transform="translate(-195.846 -69.168)" fill="#12263f"/>
      <path id="Trazado_604683" data-name="Trazado 604683" d="M134.539,104.353c0-2.307-.056-4.508.022-6.7a1.948,1.948,0,0,1,2.041-2.013c5.872-.044,11.744-.02,17.693-.02v4.337H138.949v4.4Z" transform="translate(-97.345 -69.186)" fill="#12263f"/>
      <path id="Trazado_604684" data-name="Trazado 604684" d="M134.535,383.223h4.334v4.346h15.438v4.357c-.374.026-.768.076-1.162.077q-7.859.008-15.718,0c-2.176,0-2.883-.711-2.89-2.882-.006-1.922,0-3.845,0-5.9" transform="translate(-97.354 -277.316)" fill="#12263f"/>
      <path id="Trazado_604685" data-name="Trazado 604685" d="M285.934,387.735v-4.4h4.328c0,2.338.079,4.667-.037,6.986a1.817,1.817,0,0,1-1.866,1.724c-5.917.044-11.835.022-17.827.022v-4.333Z" transform="translate(-195.768 -277.398)" fill="#12263f"/>
      <rect id="Rectángulo_299377" data-name="Rectángulo 299377" width="4.247" height="4.272" transform="translate(63.723 26.47)" fill="#12263f"/>
      <rect id="Rectángulo_299378" data-name="Rectángulo 299378" width="4.279" height="4.208" transform="translate(63.731 110.396)" fill="#12263f"/>
      <g id="Grupo_889560" data-name="Grupo 889560" transform="translate(42.537 47.122)">
        <g id="Grupo_889559" data-name="Grupo 889559" clip-path="url(#clip-path-2)">
          <path id="Trazado_605996" data-name="Trazado 605996" d="M46.131,48.687H2.568A3.216,3.216,0,0,1,.592,47.424,10.848,10.848,0,0,1,0,46.215V2.472c.022-.022.055-.04.064-.066A3.063,3.063,0,0,1,3.417,0Q24.361,0,45.3,0a4.8,4.8,0,0,1,.852.048A3.041,3.041,0,0,1,48.7,3.283q0,21.057,0,42.115c0,.127,0,.254,0,.38a3.03,3.03,0,0,1-2.027,2.729c-.178.063-.357.121-.536.181M3.065,45.611H45.617V3.068H3.065Z" transform="translate(0 0)" fill="#12263f"/>
          <path id="Trazado_605997" data-name="Trazado 605997" d="M348.087,66.9c-.841,0-1.566,0-2.292,0a1.524,1.524,0,1,1,0-3.04q2.946-.008,5.893,0a1.51,1.51,0,0,1,1.607,1.608q.009,2.946,0,5.891a1.524,1.524,0,1,1-3.041,0c-.007-.712-.009-1.425-.014-2.137,0-.012-.016-.023-.049-.07-.112.1-.228.2-.333.3-1.279,1.275-2.545,2.562-3.836,3.824a1.512,1.512,0,0,1-2.574-.718,1.532,1.532,0,0,1,.5-1.5q1.871-1.859,3.731-3.728c.11-.11.216-.226.407-.425" transform="translate(-310.688 -57.767)" fill="#12263f"/>
          <path id="Trazado_605998" data-name="Trazado 605998" d="M66.879,348.058c.19-.176.305-.276.413-.383q1.8-1.8,3.6-3.6c.817-.817,1.7-.907,2.377-.245s.595,1.573-.243,2.412l-3.564,3.564c-.11.111-.216.226-.407.426.811,0,1.53-.023,2.245.011a2.273,2.273,0,0,1,.947.235,1.5,1.5,0,0,1-.677,2.784c-2.108.022-4.217.026-6.325,0a1.452,1.452,0,0,1-1.4-1.47q-.023-3.09,0-6.181a1.493,1.493,0,0,1,1.511-1.464,1.511,1.511,0,0,1,1.517,1.46c.024.783.005,1.568.005,2.448" transform="translate(-57.75 -310.676)" fill="#12263f"/>
          <path id="Trazado_605999" data-name="Trazado 605999" d="M199.254,199.231c0,1.059.016,2.069,0,3.078a1.516,1.516,0,0,1-3.032,0c-.018-.585,0-1.172,0-1.758,0-.424,0-.848,0-1.32-1.035,0-2.029.014-3.021,0a1.511,1.511,0,0,1-1.368-2.213,1.475,1.475,0,0,1,1.393-.825c.979,0,1.958,0,3,0,0-.929,0-1.826,0-2.723a3.1,3.1,0,0,1,.042-.661,1.516,1.516,0,0,1,3,.327c.016,1,0,1.992,0,3.057h1.238c.554,0,1.109,0,1.663,0a1.528,1.528,0,1,1-.022,3.042c-.934,0-1.868,0-2.88,0" transform="translate(-173.385 -173.365)" fill="#12263f"/>
        </g>
      </g>
    </g>
  </g>
</svg>
