<svg xmlns="http://www.w3.org/2000/svg" xmlns:xlink="http://www.w3.org/1999/xlink" width="296.262" height="243.094" viewBox="0 0 296.262 243.094">
  <defs>
    <clipPath id="clip-path">
      <rect id="Rectángulo_57307" data-name="Rectángulo 57307" width="267.725" height="226.285" fill="none"/>
    </clipPath>
    <clipPath id="clip-path-2">
      <rect id="Rectángulo_57283" data-name="Rectángulo 57283" width="267.725" height="176.285" fill="none"/>
    </clipPath>
    <clipPath id="clip-path-7">
      <rect id="Rectángulo_57291" data-name="Rectángulo 57291" width="17.275" height="9.6" fill="none"/>
    </clipPath>
    <clipPath id="clip-path-8">
      <rect id="Rectángulo_57292" data-name="Rectángulo 57292" width="19.046" height="1.543" fill="none"/>
    </clipPath>
    <clipPath id="clip-path-9">
      <rect id="Rectángulo_57293" data-name="Rectángulo 57293" width="10.05" height="5.521" fill="none"/>
    </clipPath>
    <clipPath id="clip-path-10">
      <rect id="Rectángulo_57294" data-name="Rectángulo 57294" width="2.582" height="4.945" fill="none"/>
    </clipPath>
    <clipPath id="clip-path-12">
      <rect id="Rectángulo_57297" data-name="Rectángulo 57297" width="30.68" height="28.091" fill="none"/>
    </clipPath>
  </defs>
  <g id="Grupo_893363" data-name="Grupo 893363" transform="translate(-1123.738 -2401.621)">
    <g id="Grupo_888591" data-name="Grupo 888591" transform="translate(57 -578.522)">
      <g id="Grupo_885767" data-name="Grupo 885767" transform="translate(1066.738 2980.144)">
        <rect id="Rectángulo_32196" data-name="Rectángulo 32196" width="296.262" height="124.655" transform="translate(0 0)" fill="#fff7ee"/>
        <g id="Grupo_177796" data-name="Grupo 177796" transform="translate(12.643 16.808)">
          <g id="Grupo_177790" data-name="Grupo 177790" clip-path="url(#clip-path)">
            <rect id="Rectángulo_57279" data-name="Rectángulo 57279" width="44.325" height="41.12" transform="matrix(0.992, -0.126, 0.126, 0.992, 213.151, 18.13)" fill="#f5f5f5"/>
            <g id="Grupo_177764" data-name="Grupo 177764">
              <g id="Grupo_177763" data-name="Grupo 177763" clip-path="url(#clip-path-2)">
                <path id="Trazado_220935" data-name="Trazado 220935" d="M597.777,59.8a3.061,3.061,0,1,0,3.549,2.633,3.126,3.126,0,0,0-3.549-2.633" transform="translate(-356.863 -35.85)" fill="#e0e0e0"/>
                <path id="Trazado_220936" data-name="Trazado 220936" d="M578.953,40.414,541.8,45.1c.035-.05-.352.434-.187.234v.009l0,.018,0,.036.009.073.019.146.037.291.074.581.147,1.159q.147,1.157.293,2.3.291,2.293.578,4.542l1.121,8.79c.732,5.712,1.424,11.113,2.061,16.081l.022.176.182-.024L573.132,76l7.53-1,1.972-.271.5-.074a.91.91,0,0,0,.161-.03,1.409,1.409,0,0,0-.184.014l-.522.056-2.013.235-7.583.916-8.3,1.026,18.583-2.358a.82.82,0,0,0,.022.112.719.719,0,0,0-.009-.149c-.012-.118-.028-.267-.048-.458q-.074-.64-.208-1.805c-.193-1.61-.473-3.938-.828-6.9-.737-5.988-1.787-14.514-3.048-24.752l-.021-.172ZM572.42,60.952l-5.141,7.892L555.627,56.69l-9.357,22.2C545.66,74.035,545,68.781,544.3,63.23q-.541-4.287-1.111-8.791-.284-2.249-.575-4.542-.146-1.147-.292-2.3l-.147-1.159-.074-.581-.037-.291-.011-.088,36.761-4.694,3.2,24.447.926,6.922q.164,1.182.254,1.833c.029.2.052.352.07.474,0,.017,0,.025.007.04Z" transform="translate(-324.832 -24.227)" fill="#e0e0e0"/>
                <rect id="Rectángulo_57280" data-name="Rectángulo 57280" width="29.248" height="31.528" transform="matrix(0.161, -0.987, 0.987, 0.161, 0, 152.854)" fill="#f5f5f5"/>
                <path id="Trazado_220937" data-name="Trazado 220937" d="M52.234,333.707a2.178,2.178,0,1,0,1.888,2.513,2.224,2.224,0,0,0-1.888-2.513" transform="translate(-29.759 -200.137)" fill="#e0e0e0"/>
                <path id="Trazado_220938" data-name="Trazado 220938" d="M37.027,320.732l-26.283-4.317c.034-.027-.327.225-.175.122v.006l0,.013,0,.026-.008.051-.017.1-.034.206-.067.411-.134.82q-.134.819-.266,1.63l-.525,3.214Q8.992,326.2,8.5,329.238L6.651,340.62l-.02.125.129.02,19.1,3.058,5.337.839,1.4.214.356.051a.683.683,0,0,0,.116.012.985.985,0,0,0-.128-.028l-.367-.067-1.42-.247-5.356-.908-5.87-.98,13.149,2.149a.627.627,0,0,0-.008.082.491.491,0,0,0,.024-.1c.015-.083.035-.188.06-.322q.079-.451.223-1.273c.193-1.137.474-2.781.83-4.869l2.927-17.5.02-.122Zm-8.608,12.685-5.1,4.343-5.488-10.645L6.96,340.359c.565-3.432,1.178-7.148,1.824-11.074l1.021-6.22.526-3.214.267-1.63.134-.82.067-.411.034-.206.01-.062,26.018,4.232c-1.143,7.158-2.095,13.123-2.764,17.318-.33,2.1-.589,3.762-.768,4.907l-.2,1.3c-.02.14-.035.251-.048.338,0,.012,0,.018,0,.028Z" transform="translate(-3.977 -189.783)" fill="#e0e0e0"/>
                <path id="Trazado_220939" data-name="Trazado 220939" d="M562.929,204.466H500.57a3.148,3.148,0,0,1-3.148-3.148V165.063a3.148,3.148,0,0,1,3.148-3.148h62.359a3.148,3.148,0,0,1,3.148,3.148v36.254a3.148,3.148,0,0,1-3.148,3.148" transform="translate(-298.352 -97.116)" fill="#e0e0e0"/>
                <path id="Trazado_220940" data-name="Trazado 220940" d="M580.589,208.685a5.23,5.23,0,1,1-5.23-5.23,5.23,5.23,0,0,1,5.23,5.23" transform="translate(-341.961 -122.031)" fill="#ebebeb"/>
                <path id="Trazado_220941" data-name="Trazado 220941" d="M580.048,215.426V212.34a.2.2,0,0,1,.293-.171l2.758,1.555a.2.2,0,0,1,0,.343L580.34,215.6a.2.2,0,0,1-.292-.172" transform="translate(-347.91 -127.243)" fill="#fff"/>
                <path id="Trazado_220942" data-name="Trazado 220942" d="M506.413,255.124v.11H505.9v-.087l.279-.265c.068-.065.08-.106.08-.145,0-.064-.044-.1-.13-.1a.2.2,0,0,0-.164.073l-.091-.07a.323.323,0,0,1,.267-.116c.152,0,.251.077.251.2a.28.28,0,0,1-.116.221l-.188.178Z" transform="translate(-303.418 -152.662)" fill="#fff"/>
                <path id="Trazado_220943" data-name="Trazado 220943" d="M507.4,255.031a.082.082,0,1,1,.164,0,.082.082,0,1,1-.164,0m0,.382a.082.082,0,1,1,.164,0,.082.082,0,1,1-.164,0" transform="translate(-304.339 -152.917)" fill="#fff"/>
                <path id="Trazado_220944" data-name="Trazado 220944" d="M508.212,254.548v.7h-.13v-.592h-.148v-.109Z" transform="translate(-304.656 -152.676)" fill="#fff"/>
                <path id="Trazado_220945" data-name="Trazado 220945" d="M509.585,255.089h-.124v.159h-.126v-.159h-.385V255l.346-.452h.139l-.326.432h.23v-.141h.122v.141h.124Z" transform="translate(-305.266 -152.676)" fill="#fff"/>
                <rect id="Rectángulo_57281" data-name="Rectángulo 57281" width="53.172" height="0.281" transform="translate(205.464 102.114)" fill="#fff"/>
                <rect id="Rectángulo_57282" data-name="Rectángulo 57282" width="16.616" height="0.751" transform="translate(205.424 101.82)" fill="#ebebeb"/>
                <path id="Trazado_220946" data-name="Trazado 220946" d="M553.733,254.294a.809.809,0,1,1-.809-.809.809.809,0,0,1,.809.809" transform="translate(-331.156 -152.039)" fill="#ebebeb"/>
                <path id="Trazado_220947" data-name="Trazado 220947" d="M648.767,254.746a.234.234,0,0,1-.257.227c-.191,0-.3-.123-.3-.349a.332.332,0,0,1,.344-.373.349.349,0,0,1,.184.045l-.048.1a.236.236,0,0,0-.133-.034c-.132,0-.215.082-.215.241h0a.238.238,0,0,1,.187-.073.219.219,0,0,1,.242.215m-.126.006c0-.073-.055-.119-.141-.119a.128.128,0,0,0-.142.12c0,.066.052.118.145.118a.122.122,0,0,0,.138-.119" transform="translate(-388.792 -152.499)" fill="#fff"/>
                <path id="Trazado_220948" data-name="Trazado 220948" d="M649.763,254.76a.082.082,0,1,1,.083.083.081.081,0,0,1-.083-.083m0,.382a.082.082,0,1,1,.165,0,.082.082,0,1,1-.165,0" transform="translate(-389.725 -152.754)" fill="#fff"/>
                <path id="Trazado_220949" data-name="Trazado 220949" d="M650.383,254.613c0-.23.126-.361.293-.361s.294.13.294.361-.126.361-.294.361-.293-.13-.293-.361m.455,0c0-.169-.066-.247-.162-.247s-.161.078-.161.247.066.247.161.247.162-.078.162-.247" transform="translate(-390.097 -152.499)" fill="#fff"/>
                <path id="Trazado_220950" data-name="Trazado 220950" d="M652.065,254.613c0-.23.126-.361.293-.361s.294.13.294.361-.126.361-.294.361-.293-.13-.293-.361m.455,0c0-.169-.066-.247-.162-.247s-.161.078-.161.247.066.247.161.247.162-.078.162-.247" transform="translate(-391.106 -152.499)" fill="#fff"/>
                <path id="Trazado_220951" data-name="Trazado 220951" d="M655.985,253.968H655.7v-.718h.717v.281h-.435Z" transform="translate(-393.288 -151.898)" fill="#fff"/>
                <path id="Trazado_220952" data-name="Trazado 220952" d="M656.42,256.3H655.7v-.717h.281v.435h.437Z" transform="translate(-393.287 -153.297)" fill="#fff"/>
                <path id="Trazado_220953" data-name="Trazado 220953" d="M659.252,256.3h-.717v-.282h.436v-.437h.281Z" transform="translate(-394.986 -153.295)" fill="#fff"/>
                <path id="Trazado_220954" data-name="Trazado 220954" d="M659.252,253.966h-.282v-.435h-.437v-.282h.718Z" transform="translate(-394.986 -151.898)" fill="#fff"/>
                <path id="Trazado_220955" data-name="Trazado 220955" d="M637.537,172.13a11.193,11.193,0,0,1,1.446-.079l.078,0v.08c.006.548.012,1.168.019,1.837l0,.237-.169-.168-.193-.193-.49-.493.132,0-.769.676-.146.128,0-.191c.008-.569.028-1.039.044-1.358a2.237,2.237,0,0,1,.042-.479,3.723,3.723,0,0,1,.042.533c.016.325.035.773.044,1.3l-.143-.064.755-.692.066-.061.065.065.493.49.193.193-.167.069c.007-.669.013-1.289.019-1.837l.079.078a14.09,14.09,0,0,1-1.446-.078" transform="translate(-382.339 -103.195)" fill="#fff"/>
                <path id="Trazado_220956" data-name="Trazado 220956" d="M647.48,172.662a5.03,5.03,0,0,1-.35.447c-.237.294-.593.734-1.027,1.223l-.162.182v-.245c0-.287,0-.593,0-.911v-.089l.03.07-.641-.624-.167-.163.232,0c.635.009,1.181.042,1.545.064a4.773,4.773,0,0,1,.545.041c-.019.008-.257.016-.632.034s-.876.044-1.459.046l.065-.159.648.616.03.028v.131c0,.317,0,.624,0,.911l-.162-.062c.406-.444.774-.808,1.049-1.085s.447-.452.466-.461" transform="translate(-386.963 -103.497)" fill="#fff"/>
                <path id="Trazado_220957" data-name="Trazado 220957" d="M648.79,172.8c.021.05-.286.226-.685.394s-.74.263-.761.213.286-.226.686-.393a1.67,1.67,0,0,1,.761-.214" transform="translate(-388.273 -103.64)" fill="#fff"/>
                <path id="Trazado_220958" data-name="Trazado 220958" d="M655.776,172.224c0-.01.092-.033.259,0a1.02,1.02,0,0,1,.61.367,1.087,1.087,0,0,1,.178,1.041,1.109,1.109,0,0,1-2.093,0,1.087,1.087,0,0,1,.178-1.041,1.018,1.018,0,0,1,.61-.367c.168-.028.26-.005.259,0s-.091.021-.241.069a1.027,1.027,0,0,0-.518.377.96.96,0,0,0-.118.9.937.937,0,0,0,1.755,0,.96.96,0,0,0-.118-.9,1.027,1.027,0,0,0-.518-.377c-.15-.048-.241-.052-.241-.069" transform="translate(-392.667 -103.288)" fill="#fff"/>
                <path id="Trazado_220959" data-name="Trazado 220959" d="M657.508,174.3c-.038.038-.264-.126-.505-.367l-.028-.029v-.046c0-.344.044-.623.1-.623s.1.279.1.623v.006l-.028-.069c.241.242.4.467.367.505" transform="translate(-394.05 -103.908)" fill="#fff"/>
                <path id="Trazado_220960" data-name="Trazado 220960" d="M548.063,175.586c0,.054-7.056.1-15.758.1s-15.759-.044-15.759-.1,7.054-.1,15.759-.1,15.758.044,15.758.1" transform="translate(-309.822 -105.257)" fill="#fff"/>
                <path id="Trazado_220961" data-name="Trazado 220961" d="M509.1,173.87a1.243,1.243,0,1,1-1.243-1.243,1.243,1.243,0,0,1,1.243,1.243" transform="translate(-303.867 -103.541)" fill="#fff"/>
              </g>
            </g>
            <rect id="Rectángulo_57284" data-name="Rectángulo 57284" width="202.417" height="176.182" transform="translate(25.998 0.103)" fill="#fff"/>
            <rect id="Rectángulo_57285" data-name="Rectángulo 57285" width="202.417" height="10.769" transform="translate(25.749 0.103)" fill="#12263f"/>
            <g id="Grupo_177766" data-name="Grupo 177766">
              <g id="Grupo_177765" data-name="Grupo 177765" clip-path="url(#clip-path-2)">
                <path id="Trazado_220962" data-name="Trazado 220962" d="M78.283,12.092a1.323,1.323,0,1,1-1.321-1.4,1.361,1.361,0,0,1,1.321,1.4" transform="translate(-45.369 -6.414)" fill="#fff"/>
                <path id="Trazado_220963" data-name="Trazado 220963" d="M90.562,12.092a1.323,1.323,0,1,1-1.321-1.4,1.362,1.362,0,0,1,1.321,1.4" transform="translate(-52.734 -6.414)" fill="#fff"/>
                <path id="Trazado_220964" data-name="Trazado 220964" d="M102.84,12.092a1.323,1.323,0,1,1-1.321-1.4,1.362,1.362,0,0,1,1.321,1.4" transform="translate(-60.098 -6.414)" fill="#fff"/>
                <path id="Trazado_220965" data-name="Trazado 220965" d="M252.811,55.932c0,.076-4.421.138-9.873.138s-9.874-.062-9.874-.138,4.42-.138,9.874-.138,9.873.062,9.873.138" transform="translate(-139.791 -33.465)" fill="#263238"/>
                <path id="Trazado_220966" data-name="Trazado 220966" d="M318.441,55.932c0,.076-4.421.138-9.873.138s-9.874-.062-9.874-.138,4.42-.138,9.874-.138,9.873.062,9.873.138" transform="translate(-179.156 -33.465)" fill="#263238"/>
                <path id="Trazado_220967" data-name="Trazado 220967" d="M384.073,55.932c0,.076-4.421.138-9.873.138s-9.874-.062-9.874-.138,4.42-.138,9.874-.138,9.873.062,9.873.138" transform="translate(-218.521 -33.465)" fill="#263238"/>
                <path id="Trazado_220968" data-name="Trazado 220968" d="M450.284,55.932c0,.076-4.421.138-9.873.138s-9.874-.062-9.874-.138,4.42-.138,9.874-.138,9.873.062,9.873.138" transform="translate(-258.235 -33.465)" fill="#263238"/>
                <path id="Trazado_220969" data-name="Trazado 220969" d="M511.607,54.274c0-.016.167-.008.471-.084a2.184,2.184,0,0,0,1.136-.738,2.278,2.278,0,0,0,.451-.9,4.76,4.76,0,0,0,.07-1.23c-.054-.877.2-2.017-.554-2.849a2.061,2.061,0,0,0-1.405-.734c-.568-.016-1.188,0-1.813,0l-4.02.013-9.21.011a2.075,2.075,0,0,0-1.845,1.2,2.407,2.407,0,0,0-.229,1.151q0,.623,0,1.235a4.658,4.658,0,0,0,.072,1.17,2.227,2.227,0,0,0,.517.964,2.108,2.108,0,0,0,.876.568,3.173,3.173,0,0,0,1.029.1l7.522.03,5.071.044,1.379.026.359.014a.4.4,0,0,1,.122.014.4.4,0,0,1-.122.014l-.359.014-1.379.026-5.071.044-7.522.03a3.379,3.379,0,0,1-1.1-.105,2.353,2.353,0,0,1-.982-.632,2.5,2.5,0,0,1-.583-1.079,2.661,2.661,0,0,1-.083-.63q0-.3,0-.61,0-.612,0-1.235a2.694,2.694,0,0,1,.255-1.277,2.333,2.333,0,0,1,2.077-1.349l9.21.011,4.02.013c.633.007,1.229,0,1.829.018a2.25,2.25,0,0,1,1.528.817,2.484,2.484,0,0,1,.568,1.534q0,.767-.006,1.446a4.834,4.834,0,0,1-.1,1.265,2.366,2.366,0,0,1-.5.936,2.161,2.161,0,0,1-1.2.721,1.483,1.483,0,0,1-.483.029" transform="translate(-296.539 -28.481)" fill="#263238"/>
                <path id="Trazado_220970" data-name="Trazado 220970" d="M161.181,163.935H106.768a3.445,3.445,0,0,1-3.444-3.445v-5.683a3.445,3.445,0,0,1,3.444-3.445h54.413a3.445,3.445,0,0,1,3.444,3.445v5.683a3.445,3.445,0,0,1-3.444,3.445" transform="translate(-61.973 -90.787)" fill="#e0e0e0"/>
                <path id="Trazado_220971" data-name="Trazado 220971" d="M64.2.135,266.619,0h.1V.135c0,57.877.007,123.07.01,191.792v.171h-.113L64.2,192.071H64.11v-.121C64.166,75.531,64.2,1.135,64.2.135c0,1,.036,75.4.092,191.814l-.092-.121,202.417-.028-.113.149v-.022c0-68.722.007-133.915.01-191.792l.1.135L64.2.135" transform="translate(-38.453)" fill="#263238"/>
                <path id="Trazado_220972" data-name="Trazado 220972" d="M418.1,154.619s-.006-.254-.008-.742-.005-1.211-.009-2.156c0-1.893-.012-4.676-.02-8.25-.01-7.142-.024-17.446-.042-30.1l.08.08-72.547.024h-.005l.1-.1c0,14.593,0,28.544-.007,41.251l-.1-.1,52.188.047,14.986.026,3.993.012,1.032.006c.232,0,.353.006.353.006s-.113,0-.342.006l-1.021.006-3.974.012-14.964.026-52.253.047h-.1v-.1c0-12.707,0-26.658-.007-41.251v-.1h.11l72.547.024h.08v.08c-.018,12.679-.032,23-.042,30.154-.009,3.566-.016,6.343-.02,8.231,0,.938-.007,1.655-.009,2.141s-.008.725-.008.725" transform="translate(-207.193 -67.935)" fill="#12263f"/>
                <path id="Trazado_220973" data-name="Trazado 220973" d="M417.2,113.388s-.057.043-.174.119l-.521.331-2.012,1.255c-1.749,1.088-4.29,2.645-7.44,4.554-6.3,3.819-15.048,9.014-24.8,14.6s-18.672,10.493-25.152,13.994c-3.24,1.75-5.869,3.155-7.691,4.114l-2.1,1.1-.549.282c-.124.062-.19.09-.19.09s.059-.04.18-.108l.539-.3,2.081-1.136,7.659-4.172c6.461-3.534,15.363-8.464,25.12-14.046s18.513-10.755,24.83-14.541l7.473-4.5,2.033-1.222.531-.313c.12-.07.185-.1.185-.1" transform="translate(-207.872 -68.01)" fill="#12263f"/>
                <path id="Trazado_220974" data-name="Trazado 220974" d="M418.492,155.307c-.029.05-15.947-9.065-35.549-20.356s-35.477-20.489-35.448-20.539,15.943,9.063,35.552,20.359,35.473,20.487,35.444,20.537" transform="translate(-208.426 -68.624)" fill="#12263f"/>
                <path id="Trazado_220975" data-name="Trazado 220975" d="M417.157,267.634c0,.08-15.855.146-35.408.146s-35.411-.066-35.411-.146,15.851-.146,35.411-.146,35.408.066,35.408.146" transform="translate(-207.732 -160.438)" fill="#263238"/>
                <path id="Trazado_220976" data-name="Trazado 220976" d="M417.157,278.362c0,.08-15.855.146-35.408.146s-35.411-.065-35.411-.146,15.851-.146,35.411-.146,35.408.065,35.408.146" transform="translate(-207.732 -166.873)" fill="#263238"/>
                <path id="Trazado_220977" data-name="Trazado 220977" d="M378.739,305.085c0,.074-6.95.134-15.522.134s-15.523-.06-15.523-.134,6.949-.134,15.523-.134,15.522.06,15.522.134" transform="translate(-208.545 -182.908)" fill="#263238"/>
                <path id="Trazado_220978" data-name="Trazado 220978" d="M408.995,292.152c0,.074-13.724.134-30.649.134s-30.652-.06-30.652-.134,13.721-.134,30.652-.134,30.649.06,30.649.134" transform="translate(-208.545 -175.151)" fill="#263238"/>
                <path id="Trazado_220979" data-name="Trazado 220979" d="M414.336,275.781s0-.2-.007-.579,0-.947-.008-1.686c0-1.484-.01-3.671-.018-6.5-.009-5.647-.022-13.842-.039-24.056l.071.072-88.141.033h-.006l.1-.1c0,11.455,0,22.538,0,32.817l-.1-.1,63.155.048,18.365.028,4.918.012,1.273.006c.287,0,.436.006.436.006s-.141,0-.424.007l-1.261.006-4.9.013-18.342.028-63.223.047h-.1v-.1c0-10.28,0-21.362,0-32.817v-.1h.11l88.141.034h.071v.071c-.016,10.232-.03,18.442-.039,24.1-.008,2.819-.014,5-.018,6.48,0,.734-.006,1.295-.008,1.674s-.007.564-.007.564" transform="translate(-195.584 -145.666)" fill="#263238"/>
                <path id="Trazado_220980" data-name="Trazado 220980" d="M109.114,50.6a4.49,4.49,0,1,1-4.485-4.285,4.389,4.389,0,0,1,4.485,4.285" transform="translate(-60.066 -27.783)" fill="#fb8c00"/>
                <rect id="Rectángulo_57286" data-name="Rectángulo 57286" width="31.699" height="22.053" transform="translate(11.307 74.739)" fill="#b2ebf2"/>
                <path id="Trazado_220981" data-name="Trazado 220981" d="M60.026,186.753c.033.047-7.025,5.066-15.764,11.208S28.411,209.046,28.378,209s7.024-5.065,15.765-11.209,15.85-11.085,15.883-11.038" transform="translate(-17.021 -112.013)" fill="#263238"/>
                <path id="Trazado_220982" data-name="Trazado 220982" d="M60.723,208.662a.367.367,0,0,1-.086-.048l-.243-.159-.92-.63-3.361-2.346-11.042-7.806-11.009-7.857-3.322-2.4-.9-.661-.231-.176a.362.362,0,0,1-.074-.066.365.365,0,0,1,.087.048l.242.159.92.63,3.361,2.346L45.193,197.5,56.2,205.358l3.322,2.4.9.662.23.176a.366.366,0,0,1,.074.066" transform="translate(-17.718 -111.869)" fill="#263238"/>
              </g>
            </g>
            <g id="Grupo_177768" data-name="Grupo 177768">
              <g id="Grupo_177767" data-name="Grupo 177767" transform="translate(-6.656 50)" clip-path="url(#clip-path-2)">
                <path id="Trazado_220984" data-name="Trazado 220984" d="M141.076,328.057c0,.058-5.735.1-12.807.1s-12.808-.047-12.808-.1,5.733-.1,12.808-.1,12.807.046,12.807.1" transform="translate(-69.254 -196.705)" fill="#ebebeb"/>
                <path id="Trazado_220985" data-name="Trazado 220985" d="M174.575,339.542c0,.058-5.735.1-12.807.1s-12.808-.046-12.808-.1,5.733-.1,12.808-.1,12.807.046,12.807.1" transform="translate(-89.346 -203.593)" fill="#ebebeb"/>
                <path id="Trazado_220986" data-name="Trazado 220986" d="M244.281,328.057c0,.058-5.735.1-12.807.1s-12.808-.047-12.808-.1,5.733-.1,12.808-.1,12.807.046,12.807.1" transform="translate(-131.156 -196.705)" fill="#ebebeb"/>
                <path id="Trazado_220987" data-name="Trazado 220987" d="M196.293,328.048a57.515,57.515,0,0,1-6.916,0,57.5,57.5,0,0,1,6.916,0" transform="translate(-113.587 -196.699)" fill="#ebebeb"/>
                <path id="Trazado_220988" data-name="Trazado 220988" d="M124.256,339.542a28.786,28.786,0,0,1-3.458.1,28.772,28.772,0,0,1-3.457-.1,28.777,28.777,0,0,1,3.457-.1,28.79,28.79,0,0,1,3.458.1" transform="translate(-70.38 -203.593)" fill="#ebebeb"/>
                <path id="Trazado_220989" data-name="Trazado 220989" d="M227.9,339.057a53.267,53.267,0,0,1-6.655,0,53.235,53.235,0,0,1,6.655,0" transform="translate(-132.701 -203.303)" fill="#ebebeb"/>
                <path id="Trazado_220990" data-name="Trazado 220990" d="M141.076,354.356c0,.058-5.735.1-12.807.1s-12.808-.046-12.808-.1,5.733-.1,12.808-.1,12.807.046,12.807.1" transform="translate(-69.254 -212.479)" fill="#ebebeb"/>
                <path id="Trazado_220991" data-name="Trazado 220991" d="M174.575,365.841c0,.058-5.735.1-12.807.1s-12.808-.046-12.808-.1,5.733-.1,12.808-.1,12.807.046,12.807.1" transform="translate(-89.346 -219.367)" fill="#ebebeb"/>
                <path id="Trazado_220992" data-name="Trazado 220992" d="M244.281,354.356c0,.058-5.735.1-12.807.1s-12.808-.046-12.808-.1,5.733-.1,12.808-.1,12.807.046,12.807.1" transform="translate(-131.156 -212.479)" fill="#ebebeb"/>
                <path id="Trazado_220993" data-name="Trazado 220993" d="M196.293,354.347a57.515,57.515,0,0,1-6.916,0,57.481,57.481,0,0,1,6.916,0" transform="translate(-113.587 -212.473)" fill="#ebebeb"/>
                <path id="Trazado_220994" data-name="Trazado 220994" d="M124.256,365.841a28.638,28.638,0,0,1-3.458.1,28.624,28.624,0,0,1-3.457-.1,28.926,28.926,0,0,1,3.457-.1,28.94,28.94,0,0,1,3.458.1" transform="translate(-70.38 -219.367)" fill="#ebebeb"/>
                <path id="Trazado_220995" data-name="Trazado 220995" d="M227.9,365.355a53.251,53.251,0,0,1-6.655,0,53.251,53.251,0,0,1,6.655,0" transform="translate(-132.701 -219.076)" fill="#ebebeb"/>
                <path id="Trazado_220996" data-name="Trazado 220996" d="M141.671,399.952c0,.058-5.735.1-12.807.1s-12.808-.046-12.808-.1,5.733-.1,12.808-.1,12.807.046,12.807.1" transform="translate(-69.61 -239.827)" fill="#ebebeb"/>
                <path id="Trazado_220997" data-name="Trazado 220997" d="M175.17,411.437c0,.058-5.735.1-12.807.1s-12.808-.046-12.808-.1,5.733-.1,12.808-.1,12.807.046,12.807.1" transform="translate(-89.703 -246.716)" fill="#ebebeb"/>
                <path id="Trazado_220998" data-name="Trazado 220998" d="M244.876,399.952c0,.058-5.735.1-12.807.1s-12.808-.046-12.808-.1,5.733-.1,12.808-.1,12.807.046,12.807.1" transform="translate(-131.512 -239.827)" fill="#ebebeb"/>
                <path id="Trazado_220999" data-name="Trazado 220999" d="M196.888,399.943a57.514,57.514,0,0,1-6.916,0,57.481,57.481,0,0,1,6.916,0" transform="translate(-113.944 -239.822)" fill="#ebebeb"/>
                <path id="Trazado_221000" data-name="Trazado 221000" d="M124.851,411.437a28.786,28.786,0,0,1-3.458.1,28.781,28.781,0,0,1-3.458-.1,28.773,28.773,0,0,1,3.458-.1,28.779,28.779,0,0,1,3.458.1" transform="translate(-70.737 -246.716)" fill="#ebebeb"/>
                <path id="Trazado_221001" data-name="Trazado 221001" d="M228.493,410.952a53.266,53.266,0,0,1-6.655,0,53.266,53.266,0,0,1,6.655,0" transform="translate(-133.057 -246.425)" fill="#ebebeb"/>
                <path id="Trazado_221002" data-name="Trazado 221002" d="M141.076,379.084c0,.058-5.735.1-12.807.1s-12.808-.046-12.808-.1,5.733-.1,12.808-.1,12.807.046,12.807.1" transform="translate(-69.254 -227.311)" fill="#ebebeb"/>
                <path id="Trazado_221003" data-name="Trazado 221003" d="M174.575,390.569c0,.058-5.735.1-12.807.1s-12.808-.047-12.808-.1,5.733-.1,12.808-.1,12.807.046,12.807.1" transform="translate(-89.346 -234.199)" fill="#ebebeb"/>
                <path id="Trazado_221004" data-name="Trazado 221004" d="M244.281,379.084c0,.058-5.735.1-12.807.1s-12.808-.046-12.808-.1,5.733-.1,12.808-.1,12.807.046,12.807.1" transform="translate(-131.156 -227.311)" fill="#ebebeb"/>
                <path id="Trazado_221005" data-name="Trazado 221005" d="M196.293,379.075a57.3,57.3,0,0,1-6.916,0,57.735,57.735,0,0,1,6.916,0" transform="translate(-113.587 -227.305)" fill="#ebebeb"/>
                <path id="Trazado_221006" data-name="Trazado 221006" d="M124.256,390.569a28.724,28.724,0,0,1-3.458.1,28.711,28.711,0,0,1-3.457-.1,28.931,28.931,0,0,1,3.457-.1,28.944,28.944,0,0,1,3.458.1" transform="translate(-70.38 -234.199)" fill="#ebebeb"/>
                <path id="Trazado_221007" data-name="Trazado 221007" d="M227.9,390.083a53.267,53.267,0,0,1-6.655,0,53.267,53.267,0,0,1,6.655,0" transform="translate(-132.701 -233.908)" fill="#ebebeb"/>
                <rect id="Rectángulo_300411" data-name="Rectángulo 300411" width="84.393" height="47.956" transform="translate(37.582 123.529)" fill="#fafafa"/>
                <path id="Trazado_606014" data-name="Trazado 606014" d="M178.144,356.464s-.006-.295-.008-.86-.005-1.407-.009-2.505c0-2.2-.012-5.434-.02-9.589-.01-8.3-.024-20.283-.042-35l.08.08-84.387.024h-.006l.1-.1c0,16.965-.005,33.183-.007,47.956l-.1-.1,60.71.047,17.43.026,4.644.012,1.2.006c.27,0,.41.006.41.006s-.132,0-.4.006l-1.188.006-4.624.012-17.408.026-60.775.047h-.1v-.1c0-14.773,0-30.991-.007-47.956v-.1h.11l84.387.024h.08v.08c-.018,14.74-.032,26.736-.042,35.051-.009,4.147-.016,7.376-.02,9.571,0,1.092-.007,1.926-.009,2.49s-.008.844-.008.844" transform="translate(-56.17 -184.979)" fill="#263238"/>
              </g>
            </g>
            <g id="Grupo_177770" data-name="Grupo 177770">
              <g id="Grupo_177769" data-name="Grupo 177769" clip-path="url(#clip-path-2)">
                <path id="Trazado_221012" data-name="Trazado 221012" d="M120.057,90.992l-4.481-2.282a11.72,11.72,0,1,0-.621,4.152v.007Z" transform="translate(-55.291 -46.419)" fill="#fff"/>
                <path id="Trazado_221013" data-name="Trazado 221013" d="M119.9,90.86l-5.085,1.926a.051.051,0,0,1-.066-.03.049.049,0,0,1,0-.022v-.007l.1.02a11.694,11.694,0,0,1-3.381,5.082,10.507,10.507,0,0,1-1.5,1.1c-.276.161-.552.334-.84.492l-.909.422a11.828,11.828,0,0,1-8.71.118,11.691,11.691,0,0,1-4.154-2.688A11.964,11.964,0,0,1,92.6,92.845a11.573,11.573,0,0,1-.561-5.413,11.782,11.782,0,0,1,1.994-5.186,11.967,11.967,0,0,1,3.944-3.573,11.573,11.573,0,0,1,4.815-1.469,11.9,11.9,0,0,1,8.421,2.652,12.664,12.664,0,0,1,2.525,2.9,11.662,11.662,0,0,1,1.738,5.817l-.027-.043L119.9,90.86l-4.5-2.237a.051.051,0,0,1-.027-.043,11.628,11.628,0,0,0-1.761-5.745,12.557,12.557,0,0,0-2.506-2.854,11.75,11.75,0,0,0-8.3-2.587,11.4,11.4,0,0,0-4.732,1.454A11.78,11.78,0,0,0,94.2,82.363a11.6,11.6,0,0,0-1.957,5.095,11.392,11.392,0,0,0,.55,5.318,11.775,11.775,0,0,0,2.71,4.358,11.524,11.524,0,0,0,4.08,2.651,11.68,11.68,0,0,0,8.578-.091l.9-.412c.285-.154.558-.324.832-.482a10.455,10.455,0,0,0,1.483-1.081,11.649,11.649,0,0,0,3.379-5,.052.052,0,0,1,.066-.033.053.053,0,0,1,.036.053v.006l-.07-.052L119.9,90.86" transform="translate(-55.138 -46.286)" fill="#263238"/>
                <path id="Trazado_221014" data-name="Trazado 221014" d="M128.038,105.92a1.19,1.19,0,0,1,.18-.2l.523-.525c.445-.44,1.066-1.041,1.756-1.7l.016-.015v.089c-.7-.646-1.32-1.236-1.768-1.666l-.526-.515a1.176,1.176,0,0,1-.182-.2,1.149,1.149,0,0,1,.213.166l.552.486c.463.415,1.1.994,1.793,1.64l.048.044-.047.045-.016.015c-.69.659-1.321,1.25-1.781,1.674l-.549.5a1.186,1.186,0,0,1-.213.17" transform="translate(-76.797 -60.688)" fill="#263238"/>
                <path id="Trazado_221015" data-name="Trazado 221015" d="M127.956,105.895a.046.046,0,0,1-.034-.018h0c-.037-.041-.025-.059.181-.273l.523-.526c.452-.446,1.049-1.025,1.688-1.634-.631-.586-1.225-1.147-1.682-1.587l-.526-.515c-.2-.2-.223-.228-.183-.271s.065-.023.283.162l.553.487c.471.422,1.078.978,1.718,1.571l.008-.008v.015l.067.062.086.08-.1.1-.051.048v.016l-.009-.008c-.652.621-1.261,1.193-1.722,1.618l-.55.5c-.157.138-.214.186-.248.186m2.43-2.385c-.489.467-.955.917-1.349,1.3.4-.371.87-.815,1.365-1.287l0,0-.013-.012m.1-.076v.013l.007-.007Zm-1.435-1.318c.395.375.855.808,1.337,1.256l.016-.014c-.485-.45-.951-.878-1.353-1.242" transform="translate(-76.717 -60.61)" fill="#263238"/>
                <path id="Trazado_221016" data-name="Trazado 221016" d="M110.713,101.181a1.193,1.193,0,0,1-.18.2l-.523.525c-.445.44-1.066,1.041-1.756,1.7l-.016.015v-.089c.7.646,1.32,1.236,1.768,1.666l.526.515a1.178,1.178,0,0,1,.182.2,1.17,1.17,0,0,1-.213-.166l-.552-.486c-.463-.415-1.1-.994-1.793-1.64l-.048-.044.047-.045.016-.015c.69-.659,1.321-1.25,1.781-1.674l.549-.5a1.186,1.186,0,0,1,.213-.17" transform="translate(-64.842 -60.688)" fill="#263238"/>
                <path id="Trazado_221017" data-name="Trazado 221017" d="M110.606,105.894c-.033,0-.09-.045-.249-.181l-.553-.487c-.463-.415-1.07-.97-1.717-1.57l-.009.008v-.016l-.068-.063-.086-.081.1-.1.051-.048v-.017l.009.008c.652-.621,1.261-1.193,1.722-1.618l.55-.5c.217-.19.242-.21.283-.168s.016.07-.18.274l-.523.526c-.448.443-1.045,1.021-1.688,1.634.638.593,1.233,1.154,1.682,1.587l.526.515c.2.2.223.227.184.27a.046.046,0,0,1-.034.019m-2.446-2.307c.489.453.954.88,1.352,1.24-.391-.371-.851-.8-1.336-1.255Zm-.089-.083.007.006V103.5Zm.088-.084,0,0,.013.012c.492-.47.958-.919,1.35-1.3-.4.372-.87.816-1.366,1.288" transform="translate(-64.733 -60.61)" fill="#263238"/>
                <path id="Trazado_221018" data-name="Trazado 221018" d="M118.061,105.265c-.031-.012.532-1.6,1.259-3.539s1.341-3.509,1.373-3.5-.532,1.6-1.259,3.539-1.341,3.508-1.373,3.5" transform="translate(-70.812 -58.918)" fill="#263238"/>
                <path id="Trazado_221019" data-name="Trazado 221019" d="M117.995,105.239a.056.056,0,0,1-.022-.006h0c-.06-.023-.07-.026.316-1.109.238-.669.563-1.554.914-2.494s.688-1.821.948-2.482c.419-1.069.429-1.066.489-1.044s.069.026-.315,1.109c-.238.669-.563,1.555-.914,2.495s-.687,1.82-.947,2.482c-.366.931-.42,1.049-.467,1.049m2.06-5.572c-.211.545-.469,1.222-.759,2s-.54,1.456-.739,2.006c.211-.545.469-1.222.759-2s.541-1.456.739-2.006" transform="translate(-70.74 -58.839)" fill="#263238"/>
              </g>
            </g>
            <g id="Grupo_177784" data-name="Grupo 177784" transform="translate(-6.656 50)">
              <g id="Grupo_177783" data-name="Grupo 177783" clip-path="url(#clip-path-2)">
                <path id="Trazado_221020" data-name="Trazado 221020" d="M195.8,74.612a4.893,4.893,0,0,1,4.309-4.1,6.347,6.347,0,0,0,1.668-.188,9.523,9.523,0,0,0,1.2-.684,3.268,3.268,0,0,1,3.993.834c.857,1.095,1.205-.429,3.227.774a1.667,1.667,0,0,1,.8,2.381,3.751,3.751,0,0,1,3.721,2.967c.2,1.081-.021,2.4.821,3.1.408.342.977.436,1.4.762a2.786,2.786,0,0,1,.634,2.746,5.424,5.424,0,0,0-.119,2.923c.593,1.51,2.743,2.11,3.008,3.71.125.756-.193,1.662.334,2.218a2.6,2.6,0,0,0,.792.464,3.421,3.421,0,0,1,.128,6.077c-.306.166-.669.319-.786.647-.131.365.112.745.286,1.092a3.289,3.289,0,0,1-4.678,4.264,5.144,5.144,0,0,1-3.022,2.4,3.12,3.12,0,0,1-1.8.047,3.576,3.576,0,0,1-1.234-.761c-1.75-1.524-4.2-3.856-4.365-6.171" transform="translate(-117.438 -41.557)" fill="#263238"/>
                <path id="Trazado_221021" data-name="Trazado 221021" d="M251.331,150.41l-10.484,9.6c-1.3-.3-17.266-9.843-17.266-9.843l-2.523,12.279s16.338,7.511,20.834,6.6a4.045,4.045,0,0,0,2.7-1.215c3.6-4.622,11.227-16.058,11.227-16.058Z" transform="translate(-132.59 -90.069)" fill="#ffbe9d"/>
                <path id="Trazado_221022" data-name="Trazado 221022" d="M300.9,124.184c-.692.283-3.164,4.451-3.164,4.451l-.62.033a1.971,1.971,0,0,0-1.849,2.2c.206,1.738.567,3.88.567,3.88l3.461,1.577,1.027-.216c.953-.05,1.881-1.987,2.468-3.355s-.375-1.637-.375-1.637c.01-1.358-1.148-1.088-1.148-1.088a1.183,1.183,0,0,0-1.238-1.177,35.656,35.656,0,0,0,1.835-3.8c.3-.989-.271-1.159-.962-.876" transform="translate(-177.09 -74.411)" fill="#ffbe9d"/>
                <path id="Trazado_221023" data-name="Trazado 221023" d="M306.5,137.313a6.406,6.406,0,0,1-.361.874,3.367,3.367,0,0,1-.215.434,1.823,1.823,0,0,1-.378.418,1.307,1.307,0,0,1-.562.288.847.847,0,0,1-.669-.159.612.612,0,0,1-.2-.307.83.83,0,0,1-.011-.346,3.576,3.576,0,0,1,.178-.591,7.226,7.226,0,0,1,.426-.939,6,6,0,0,1,.364-.591.837.837,0,0,1,.161-.2c.019.012-.183.313-.439.833a8.627,8.627,0,0,0-.393.937,3.719,3.719,0,0,0-.164.568.539.539,0,0,0,.164.526.718.718,0,0,0,.558.133,1.205,1.205,0,0,0,.505-.254,1.758,1.758,0,0,0,.363-.383,3.581,3.581,0,0,0,.222-.412,6.38,6.38,0,0,1,.449-.832" transform="translate(-182.393 -81.689)" fill="#eb996e"/>
                <path id="Trazado_221024" data-name="Trazado 221024" d="M309.806,139.884a.827.827,0,0,1-.056.239,6.14,6.14,0,0,1-.227.629,3.093,3.093,0,0,1-.524.853,1.361,1.361,0,0,1-.481.37.6.6,0,0,1-.864-.7,2.92,2.92,0,0,1,.158-.574c.124-.353.255-.663.374-.919s.227-.457.307-.593a.789.789,0,0,1,.138-.2c.019.01-.14.319-.355.836-.107.259-.227.57-.343.92a2.894,2.894,0,0,0-.144.55.473.473,0,0,0,.68.556,1.264,1.264,0,0,0,.438-.331,3.23,3.23,0,0,0,.529-.808c.236-.505.35-.837.372-.828" transform="translate(-184.523 -83.364)" fill="#eb996e"/>
                <path id="Trazado_221025" data-name="Trazado 221025" d="M312.284,143.312a1.648,1.648,0,0,1-.136.646,3.288,3.288,0,0,1-.317.648,1.806,1.806,0,0,1-.266.345.536.536,0,0,1-.471.156.455.455,0,0,1-.328-.378,1.162,1.162,0,0,1,.025-.442,2.9,2.9,0,0,1,.257-.676,5.5,5.5,0,0,1,.309-.579,2.164,2.164,0,0,1-.22.62,3.29,3.29,0,0,0-.221.66,1.074,1.074,0,0,0-.017.391.324.324,0,0,0,.225.269.408.408,0,0,0,.35-.121,1.823,1.823,0,0,0,.251-.315,3.789,3.789,0,0,0,.333-.614c.156-.368.2-.616.227-.611" transform="translate(-186.389 -85.79)" fill="#eb996e"/>
                <path id="Trazado_221026" data-name="Trazado 221026" d="M299.906,135.536c.888-.035,2.2-.038,3.056.027a1.116,1.116,0,0,1-.607,1.32,3.111,3.111,0,0,1-1.561.225,2,2,0,0,1-.043,2.964" transform="translate(-179.882 -81.279)" fill="#ffbe9d"/>
                <path id="Trazado_221027" data-name="Trazado 221027" d="M300.752,140a2.64,2.64,0,0,0,.5-.779,1.959,1.959,0,0,0,.1-1.013,1.991,1.991,0,0,0-.6-1.124l-.127-.118.174,0a3.41,3.41,0,0,0,1.4-.162,1.081,1.081,0,0,0,.706-1.292l.054.039c-.89-.066-1.655-.066-2.194-.073l-.631,0a.958.958,0,0,1-.226-.013.9.9,0,0,1,.225-.029c.146-.012.361-.023.631-.032.541-.016,1.306-.032,2.205.024l.038,0,.016.037a.985.985,0,0,1-.079.861,1.381,1.381,0,0,1-.693.608,3.457,3.457,0,0,1-1.458.166l.047-.114a2.08,2.08,0,0,1,.624,1.2,2,2,0,0,1-.137,1.061,1.93,1.93,0,0,1-.383.587.722.722,0,0,1-.192.162" transform="translate(-179.882 -81.203)" fill="#eb996e"/>
                <path id="Trazado_221028" data-name="Trazado 221028" d="M249.058,406.548a.838.838,0,0,0,.157-.345,2.51,2.51,0,0,0,.082-1.035,1.347,1.347,0,0,0-.082-.351.434.434,0,0,0-.343-.277.308.308,0,0,0-.255.087.416.416,0,0,0-.106.235,2.608,2.608,0,0,0,.008.436c.023.291.023.569.069.906a.548.548,0,0,0,.356.431,1.093,1.093,0,0,0,.538.022,4.272,4.272,0,0,0,.943-.279,4.447,4.447,0,0,0,.419-.207,1.226,1.226,0,0,0,.381-.288.4.4,0,0,0,.01-.513.484.484,0,0,0-.457-.11,2.816,2.816,0,0,0-.675.278,3.67,3.67,0,0,0-.831.615c-.171.174-.247.286-.237.295a7.276,7.276,0,0,1,1.141-.768,2.9,2.9,0,0,1,.633-.235.305.305,0,0,1,.276.056.2.2,0,0,1-.026.253,1.066,1.066,0,0,1-.32.226,4.3,4.3,0,0,1-.4.192,4.2,4.2,0,0,1-.894.26.885.885,0,0,1-.425-.01.32.32,0,0,1-.215-.264c-.04-.276-.051-.6-.078-.875a2.692,2.692,0,0,1-.019-.394c.013-.114.063-.168.144-.162.187.012.252.263.284.464a3.633,3.633,0,0,1-.081,1.357" transform="translate(-149.052 -242.64)" fill="#263238"/>
                <path id="Trazado_221029" data-name="Trazado 221029" d="M290.567,366.3a.844.844,0,0,0-.011-.379,2.519,2.519,0,0,0-.383-.965,1.354,1.354,0,0,0-.228-.279.433.433,0,0,0-.429-.1.306.306,0,0,0-.19.191.409.409,0,0,0,.009.257,2.6,2.6,0,0,0,.2.387c.149.251.272.5.462.782a.548.548,0,0,0,.509.229,1.094,1.094,0,0,0,.492-.218A4.238,4.238,0,0,0,292,365.174a1.223,1.223,0,0,0,.214-.426.4.4,0,0,0-.217-.465.483.483,0,0,0-.458.1,2.828,2.828,0,0,0-.483.547,3.657,3.657,0,0,0-.473.919.943.943,0,0,0-.082.369,7.272,7.272,0,0,1,.685-1.193,2.888,2.888,0,0,1,.464-.49.305.305,0,0,1,.272-.072.2.2,0,0,1,.088.239,1.072,1.072,0,0,1-.187.344,4.322,4.322,0,0,1-.275.349,4.225,4.225,0,0,1-.687.628.9.9,0,0,1-.386.178.32.32,0,0,1-.309-.142c-.158-.23-.31-.514-.456-.75a2.7,2.7,0,0,1-.191-.346c-.038-.108-.017-.178.058-.208.173-.072.342.124.46.291a3.635,3.635,0,0,1,.526,1.253" transform="translate(-173.525 -218.481)" fill="#263238"/>
                <path id="Trazado_221030" data-name="Trazado 221030" d="M243.678,369.9l-4.883,10.583-7.88-3.64,5.051-13.1Z" transform="translate(-138.501 -218.172)" fill="#ffbe9d"/>
                <path id="Trazado_221031" data-name="Trazado 221031" d="M232.821,397.114l-2.853,5.441s7.3,7.551,6.617,9.24l-17.169-8.232,4.717-10.913Z" transform="translate(-131.605 -235.509)" fill="#43a99b"/>
                <path id="Trazado_221032" data-name="Trazado 221032" d="M232.082,409.165a.778.778,0,0,0-.868.567.748.748,0,0,0,.555.866.82.82,0,0,0,.916-.606.776.776,0,0,0-.677-.836" transform="translate(-138.672 -245.409)" fill="#e0e0e0"/>
                <g id="Grupo_177773" data-name="Grupo 177773" transform="translate(87.812 166.685)" opacity="0.6">
                  <g id="Grupo_177772" data-name="Grupo 177772">
                    <g id="Grupo_177771" data-name="Grupo 177771" clip-path="url(#clip-path-7)">
                      <path id="Trazado_221033" data-name="Trazado 221033" d="M219.417,417.867l.714-1.368,16.194,8.4s.605.7.261,1.2Z" transform="translate(-219.417 -416.499)" fill="#fff"/>
                    </g>
                  </g>
                </g>
                <path id="Trazado_221034" data-name="Trazado 221034" d="M243.55,417c-.043.082-.48-.08-1.022-.008s-.93.319-.992.249c-.069-.054.3-.495.953-.57s1.116.262,1.061.33" transform="translate(-144.868 -249.911)" fill="#263238"/>
                <path id="Trazado_221035" data-name="Trazado 221035" d="M247.6,421.309c-.02.09-.451.059-.906.277s-.717.554-.8.51c-.085-.024.092-.543.663-.8s1.078-.064,1.042.017" transform="translate(-147.477 -252.61)" fill="#263238"/>
                <path id="Trazado_221036" data-name="Trazado 221036" d="M250.118,426.4c-.085-.019,0-.493.435-.849s.915-.351.917-.264-.358.216-.711.514-.553.631-.641.6" transform="translate(-150.002 -255.055)" fill="#263238"/>
                <path id="Trazado_221037" data-name="Trazado 221037" d="M245.885,410.978c-.072.06-.4-.241-.89-.435s-.93-.223-.939-.316.489-.222,1.062.016.84.689.768.735" transform="translate(-146.383 -245.982)" fill="#263238"/>
                <path id="Trazado_221038" data-name="Trazado 221038" d="M200.089,311.947l12.439-30.953s-.289-5.5-1.3-7.232-31.677-11.86-31.677-11.86-7.811-1.881-13.018,0-9.113,8.389-8.389,12.005a12.832,12.832,0,0,0,3.775,6.272l22.549.67,12.291,4.484-8.277,23.721a12.214,12.214,0,0,0,11.608,2.893" transform="translate(-94.801 -156.585)" fill="#263238"/>
                <path id="Trazado_221039" data-name="Trazado 221039" d="M276.166,333.175l.29,11.652-8.678.212-1.25-13.983Z" transform="translate(-159.862 -198.566)" fill="#ffbe9d"/>
                <path id="Trazado_221040" data-name="Trazado 221040" d="M277.989,362.609l-.158,6.142s9.887,3.552,10.017,5.369l-19.039.193-.586-11.874Z" transform="translate(-160.878 -217.389)" fill="#43a99b"/>
                <path id="Trazado_221041" data-name="Trazado 221041" d="M276.68,376.248a.778.778,0,0,0-.529.893.747.747,0,0,0,.88.531.82.82,0,0,0,.555-.948.775.775,0,0,0-.977-.452" transform="translate(-165.623 -225.651)" fill="#e0e0e0"/>
                <g id="Grupo_177776" data-name="Grupo 177776" transform="translate(107.929 155.381)" opacity="0.6">
                  <g id="Grupo_177775" data-name="Grupo 177775">
                    <g id="Grupo_177774" data-name="Grupo 177774" clip-path="url(#clip-path-8)">
                      <path id="Trazado_221042" data-name="Trazado 221042" d="M269.685,389.8l.037-1.543,18.241.392s.851.36.762.958Z" transform="translate(-269.685 -388.253)" fill="#fff"/>
                    </g>
                  </g>
                </g>
                <path id="Trazado_221043" data-name="Trazado 221043" d="M290.414,377.837c0,.093-.467.14-.921.443s-.694.7-.78.661c-.086-.017.047-.574.6-.932s1.117-.258,1.1-.172" transform="translate(-173.154 -226.575)" fill="#263238"/>
                <path id="Trazado_221044" data-name="Trazado 221044" d="M296.136,379.919c.022.09-.379.252-.691.648s-.4.813-.491.81c-.087.015-.157-.529.24-1.014s.939-.533.942-.445" transform="translate(-176.872 -227.852)" fill="#263238"/>
                <path id="Trazado_221045" data-name="Trazado 221045" d="M300.731,383.5c-.084.021-.218-.442.015-.954s.666-.719.706-.642-.226.352-.411.775-.218.811-.31.82" transform="translate(-180.308 -229.057)" fill="#263238"/>
                <path id="Trazado_221046" data-name="Trazado 221046" d="M289.558,371.871c-.038.085-.466-.039-.991,0s-.933.211-.983.131.341-.415.961-.454,1.058.247,1.013.321" transform="translate(-172.489 -222.851)" fill="#263238"/>
                <path id="Trazado_221047" data-name="Trazado 221047" d="M238.25,255.378a5.4,5.4,0,0,1,5.778,5.225c.579,5.641,1.147,31.967,1.147,31.967l-12.15,1.012-1.881-26.9-19.382-8.245s23.017-3.78,26.488-3.056" transform="translate(-127.014 -153.12)" fill="#263238"/>
                <path id="Trazado_221048" data-name="Trazado 221048" d="M181.61,236.495s3.156,8.847,2.554,9.833-8.715,5.043-8.715,5.043l-20.3,7.8a17.015,17.015,0,0,1-2.085-8.413c0-5.1,7.062-14.261,7.062-14.261Z" transform="translate(-91.805 -141.849)" fill="#263238"/>
                <path id="Trazado_221049" data-name="Trazado 221049" d="M209.361,262.024a.44.44,0,0,0,.1.051l.289.133,1.125.5,4.22,1.839,14.571,6.272-.066-.092c.184,2.657.383,5.528.589,8.5.494,6.941.949,13.341,1.309,18.4l.007.092.091-.008,8.852-.777,2.437-.228.637-.066a1.276,1.276,0,0,0,.217-.032,1.375,1.375,0,0,0-.219,0l-.639.04-2.441.179-8.858.7.1.084c-.348-5.065-.787-11.466-1.264-18.409-.209-2.969-.411-5.839-.6-8.5l0-.066-.061-.026-14.6-6.2-4.245-1.78-1.139-.467-.3-.116a.476.476,0,0,0-.1-.034" transform="translate(-125.574 -157.161)" fill="#455a64"/>
                <path id="Trazado_221050" data-name="Trazado 221050" d="M169.013,260.714a2.961,2.961,0,0,0,.57-.156l1.529-.493a33.414,33.414,0,0,1,5.116-1.293,15.006,15.006,0,0,1,5.238.067,20.977,20.977,0,0,1,2.1.608,2.5,2.5,0,0,0-.528-.267,9.381,9.381,0,0,0-1.536-.5,14.082,14.082,0,0,0-5.306-.135,28.458,28.458,0,0,0-5.134,1.365c-.64.227-1.154.422-1.507.561a2.929,2.929,0,0,0-.541.239" transform="translate(-101.373 -154.966)" fill="#455a64"/>
                <path id="Trazado_221051" data-name="Trazado 221051" d="M176.184,252.32a14.865,14.865,0,0,1,1.775-.01c.546.038,1.2.122,1.922.206s1.517.183,2.339.339a10.884,10.884,0,0,1,3.978,1.476,12.285,12.285,0,0,1,1.38,1.112,1.531,1.531,0,0,0-.295-.382,6.094,6.094,0,0,0-1-.862,10.185,10.185,0,0,0-4.026-1.566c-.832-.158-1.633-.249-2.359-.324s-1.381-.14-1.937-.158a7.28,7.28,0,0,0-1.313.058,1.525,1.525,0,0,0-.47.112" transform="translate(-105.674 -151.235)" fill="#455a64"/>
                <path id="Trazado_221052" data-name="Trazado 221052" d="M225.653,149.4a6.582,6.582,0,0,1,3.372,2.931,5.177,5.177,0,0,1,.6,4.674c-.331,1.325-.914,3.955-.947,3.786s-3.022-11.39-3.022-11.39" transform="translate(-135.346 -89.609)" fill="#ffbe9d"/>
                <path id="Trazado_221053" data-name="Trazado 221053" d="M198.819,146.437l-2.663-1.58-15.006-.4L186.2,161.04l9.141,5.756,5.417-2.71.542-6.025Z" transform="translate(-108.653 -86.647)" fill="#ffbe9d"/>
                <path id="Trazado_221054" data-name="Trazado 221054" d="M185.1,146.243s3.451,11.072,3.372,14.241-1.394,12.173-1.243,13.948-.467,6.667-2.631,6.667H163.107s-4.853-1.342-5.064-4.258,3.733-27.859,3.733-27.859,2.741-4.14,4.516-4.52,5.072-1.111,6.261,2.567,1.577,5.563,4.113,8.1,6.146,5.384,6.146,5.384,2.916-2.437,3.043-5.734a43.038,43.038,0,0,0-1.1-8.642Z" transform="translate(-94.788 -86.453)" fill="#43a99b"/>
                <path id="Trazado_221055" data-name="Trazado 221055" d="M217.7,228.987a2.02,2.02,0,0,0,.85-.449,5.139,5.139,0,0,0,1.437-1.821,9.907,9.907,0,0,0,.732-2.194,3.717,3.717,0,0,0,.148-.944,4.333,4.333,0,0,0-.3.9,13.588,13.588,0,0,1-.78,2.134,5.777,5.777,0,0,1-1.335,1.8c-.434.381-.766.539-.748.573" transform="translate(-130.572 -134.102)" fill="#263238"/>
                <path id="Trazado_221056" data-name="Trazado 221056" d="M189.285,199.677a1.669,1.669,0,0,0,.36.3,6.8,6.8,0,0,0,2.946,1.2,6.31,6.31,0,0,0,2.345-.1,7.727,7.727,0,0,0,3.648-2.117,9.013,9.013,0,0,0,.838-.974,1.793,1.793,0,0,0,.252-.4c-.033-.026-.422.522-1.2,1.257a8.045,8.045,0,0,1-3.588,2.011,6.571,6.571,0,0,1-4.062-.375c-.984-.419-1.512-.844-1.537-.806" transform="translate(-113.532 -118.513)" fill="#263238"/>
                <path id="Trazado_221057" data-name="Trazado 221057" d="M218.346,233.453c.046.038.342-.3.443-.829a1.172,1.172,0,0,0-.1-.935,7,7,0,0,0-.125.892c-.09.477-.276.837-.221.872" transform="translate(-130.957 -138.966)" fill="#263238"/>
                <g id="Grupo_177779" data-name="Grupo 177779" transform="translate(75.837 79.453)" opacity="0.3">
                  <g id="Grupo_177778" data-name="Grupo 177778">
                    <g id="Grupo_177777" data-name="Grupo 177777" clip-path="url(#clip-path-9)">
                      <path id="Trazado_221058" data-name="Trazado 221058" d="M199.442,198.649a6.259,6.259,0,0,1-2.208,4.222,5.194,5.194,0,0,1-4.6,1,4.448,4.448,0,0,1-3.14-3.412,13.164,13.164,0,0,0,3.429,1.194,6.733,6.733,0,0,0,6.621-3.125l-.175.185" transform="translate(-189.496 -198.53)"/>
                    </g>
                  </g>
                </g>
                <g id="Grupo_177782" data-name="Grupo 177782" transform="translate(87.801 89.717)" opacity="0.3">
                  <g id="Grupo_177781" data-name="Grupo 177781">
                    <g id="Grupo_177780" data-name="Grupo 177780" clip-path="url(#clip-path-10)">
                      <path id="Trazado_221059" data-name="Trazado 221059" d="M221.885,224.275a4.814,4.814,0,0,1-1.531,4.485,1.033,1.033,0,0,1-.964.327,11.476,11.476,0,0,0,2.47-4.911" transform="translate(-219.39 -224.177)"/>
                    </g>
                  </g>
                </g>
                <path id="Trazado_221060" data-name="Trazado 221060" d="M153.061,162.518l10.828,5.077s4.414-9.765,4.794-11.1,1.571-3.449.35-6.232-4.3-4.334-6.338-3.617c-4.774,1.676-9.633,15.872-9.633,15.872" transform="translate(-91.805 -87.853)" fill="#43a99b"/>
                <path id="Trazado_221061" data-name="Trazado 221061" d="M226.631,163.406c.505,0,6.311,3.037,6.311,3.037l3.306-10.95c-4.936-3.289-9.979-6.709-12.868-7.485l2.51,8.711Z" transform="translate(-133.982 -88.775)" fill="#43a99b"/>
                <path id="Trazado_221062" data-name="Trazado 221062" d="M158.3,191.619c-2.051,3.369-3.481,5.308-3.481,5.308l18.39,11.2-2.143,4.978-23.852-9.817s-2.351-2.42-1.521-5.116l3.8-10.5Z" transform="translate(-87.282 -112.567)" fill="#ffbe9d"/>
                <path id="Trazado_221063" data-name="Trazado 221063" d="M157.584,212.438a10.043,10.043,0,0,1,4.616-1.712,5.951,5.951,0,0,0-4.616,1.712" transform="translate(-94.517 -126.367)" fill="#eb996e"/>
                <path id="Trazado_221064" data-name="Trazado 221064" d="M153.061,180.287a.941.941,0,0,1,.215.076l.6.255,2.188.971,7.187,3.276.876.4-.137.049c1.249-2.575,2.345-4.879,3.12-6.543l.905-1.967.244-.532a.818.818,0,0,1,.1-.18.793.793,0,0,1-.06.2c-.046.126-.114.311-.21.547-.189.473-.477,1.155-.848,1.995-.742,1.68-1.816,4-3.062,6.575l-.044.091-.092-.042-.877-.4L156,181.723l-2.161-1.031-.583-.29a.959.959,0,0,1-.2-.114" transform="translate(-91.805 -105.622)" fill="#263238"/>
                <path id="Trazado_221065" data-name="Trazado 221065" d="M229.833,161.736a2.962,2.962,0,0,1,.253.514,11.142,11.142,0,0,1,.489,1.485,27.092,27.092,0,0,1,.744,5.094,35.913,35.913,0,0,1-.051,5.148c-.056.657-.132,1.186-.195,1.549a3.027,3.027,0,0,1-.127.559,3.041,3.041,0,0,1,.046-.57c.038-.365.091-.894.128-1.549a43.984,43.984,0,0,0-.01-5.124,31.416,31.416,0,0,0-.678-5.071,14.948,14.948,0,0,0-.422-1.492,3.024,3.024,0,0,1-.178-.543" transform="translate(-137.852 -97.008)" fill="#263238"/>
                <path id="Trazado_221066" data-name="Trazado 221066" d="M225.773,242.19,221.186,240l-8.951-.71-.73-.506-2.144,4.977a14.9,14.9,0,0,0,3.575,1.222l7.526-.228,3.935.413Z" transform="translate(-125.574 -143.219)" fill="#ffbe9d"/>
                <path id="Trazado_221067" data-name="Trazado 221067" d="M236,99.495a1.924,1.924,0,0,0,.81-.01,4.771,4.771,0,0,0,3.219-2.081,1.927,1.927,0,0,0,.342-.734,6.538,6.538,0,0,0-.469.645,5.451,5.451,0,0,1-3.122,2.018,6.564,6.564,0,0,0-.781.162" transform="translate(-141.554 -57.981)" fill="#455a64"/>
                <path id="Trazado_221068" data-name="Trazado 221068" d="M233.072,90.44c-.018.017.158.244.525.525a4.64,4.64,0,0,0,3.412.869,1.718,1.718,0,0,0,.712-.209,5.932,5.932,0,0,1-4.65-1.185" transform="translate(-139.795 -54.244)" fill="#455a64"/>
                <path id="Trazado_221069" data-name="Trazado 221069" d="M245.015,124.753s.026,0,.073-.011a1.513,1.513,0,0,0,.207-.06,2.617,2.617,0,0,0,.726-.4,2.825,2.825,0,0,0,.826-1.021,2.743,2.743,0,0,0,.2-1.725,2.844,2.844,0,0,0-.375-.954,3.7,3.7,0,0,0-.739-.823,3.757,3.757,0,0,1-.764-.83,1.137,1.137,0,0,1-.034-1.09,5.493,5.493,0,0,1,.75-1.021,3.777,3.777,0,0,0,.395-.563,2.2,2.2,0,0,0,.225-.681,2.4,2.4,0,0,0-1.3-2.468,7.8,7.8,0,0,0-1.422-.329,1.627,1.627,0,0,1-.6-.257.983.983,0,0,1-.35-.506,2,2,0,0,1,.141-1.251c.162-.4.388-.774.538-1.181a1.9,1.9,0,0,0,.086-1.27,2.018,2.018,0,0,0-.72-.961,5.576,5.576,0,0,0-1.94-.819,4.251,4.251,0,0,1-1.532-.7,1.9,1.9,0,0,1-.641-1.064,1.231,1.231,0,0,1,.076-.783c.079-.167.156-.235.144-.244a.677.677,0,0,0-.184.224,1.231,1.231,0,0,0-.12.818,1.967,1.967,0,0,0,.645,1.141,4.293,4.293,0,0,0,1.566.753,5.5,5.5,0,0,1,1.873.814,1.835,1.835,0,0,1,.647.875,1.706,1.706,0,0,1-.09,1.141c-.145.386-.368.753-.543,1.174a2.189,2.189,0,0,0-.152,1.389,1.2,1.2,0,0,0,.425.618,1.839,1.839,0,0,0,.684.3,7.927,7.927,0,0,1,1.382.316,2.187,2.187,0,0,1,1.182,2.239,1.992,1.992,0,0,1-.2.609,3.614,3.614,0,0,1-.371.533,5.569,5.569,0,0,0-.77,1.068,1.336,1.336,0,0,0,.051,1.272,3.87,3.87,0,0,0,.81.869,3.559,3.559,0,0,1,.717.778,2.713,2.713,0,0,1,.367.9,2.638,2.638,0,0,1-.161,1.642,2.792,2.792,0,0,1-.768,1.005,3.566,3.566,0,0,1-.952.538" transform="translate(-143.142 -62.225)" fill="#455a64"/>
                <path id="Trazado_221070" data-name="Trazado 221070" d="M194.1,86.806l.034-1.646,9.957-1.479c3.06-.2,6.231,2.989,6.3,6.054a54.474,54.474,0,0,1-.47,10.086c-1.016,5.064-4.949,5.554-4.949,5.554l-.227,5.059-11.277-.316Z" transform="translate(-116.044 -50.186)" fill="#ffbe9d"/>
                <path id="Trazado_221071" data-name="Trazado 221071" d="M230.586,107.244a.654.654,0,0,1-.657.634.625.625,0,0,1-.65-.617.654.654,0,0,1,.656-.634.626.626,0,0,1,.651.617" transform="translate(-137.521 -63.954)" fill="#263238"/>
                <path id="Trazado_221072" data-name="Trazado 221072" d="M228.978,103.012c-.084.082-.565-.3-1.268-.331s-1.233.3-1.306.215c-.036-.04.053-.19.284-.345a1.794,1.794,0,0,1,1.05-.278,1.727,1.727,0,0,1,1.005.37c.209.175.277.332.235.369" transform="translate(-135.791 -61.342)" fill="#263238"/>
                <path id="Trazado_221073" data-name="Trazado 221073" d="M214.327,106.6a.654.654,0,0,1-.657.634.626.626,0,0,1-.65-.617.655.655,0,0,1,.656-.634.626.626,0,0,1,.651.617" transform="translate(-127.768 -63.569)" fill="#263238"/>
                <path id="Trazado_221074" data-name="Trazado 221074" d="M211.687,102.64c-.084.082-.565-.3-1.268-.331s-1.233.3-1.306.215c-.036-.04.052-.19.285-.345a1.79,1.79,0,0,1,1.049-.277,1.726,1.726,0,0,1,1.005.37c.209.175.277.332.235.369" transform="translate(-125.42 -61.119)" fill="#263238"/>
                <path id="Trazado_221075" data-name="Trazado 221075" d="M221.268,108.239a4.68,4.68,0,0,1,1.151-.16c.18-.011.352-.04.387-.161a.913.913,0,0,0-.1-.537l-.476-1.389a23.6,23.6,0,0,1-1.048-3.626,23.521,23.521,0,0,1,1.337,3.533q.237.731.453,1.4a1.04,1.04,0,0,1,.065.709.45.45,0,0,1-.306.251,1.215,1.215,0,0,1-.307.03,4.581,4.581,0,0,1-1.158-.045" transform="translate(-132.66 -61.398)" fill="#263238"/>
                <path id="Trazado_221076" data-name="Trazado 221076" d="M211.832,134.763a13.508,13.508,0,0,1-6.926-2.115s1.577,3.638,6.871,3.386Z" transform="translate(-122.902 -79.562)" fill="#eb996e"/>
                <path id="Trazado_221077" data-name="Trazado 221077" d="M217.32,120.469a1.268,1.268,0,0,0-1.117-.517,1.156,1.156,0,0,0-.816.4.733.733,0,0,0-.09.836.852.852,0,0,0,.913.271,2.663,2.663,0,0,0,.921-.5.786.786,0,0,0,.209-.2.235.235,0,0,0,.009-.262" transform="translate(-129.078 -71.945)" fill="#eb996e"/>
                <path id="Trazado_221078" data-name="Trazado 221078" d="M215.989,118.048c.115,0,.085.762.717,1.33s1.448.517,1.449.624c.009.048-.187.141-.531.136a1.9,1.9,0,0,1-1.211-.478,1.659,1.659,0,0,1-.552-1.113c-.016-.321.077-.506.129-.5" transform="translate(-129.471 -70.804)" fill="#263238"/>
                <path id="Trazado_221079" data-name="Trazado 221079" d="M211.461,96c-.077.188-.776.069-1.6.135-.831.049-1.506.264-1.608.088-.046-.084.078-.259.354-.434a2.8,2.8,0,0,1,2.448-.17c.3.134.444.291.411.381" transform="translate(-124.901 -57.232)" fill="#263238"/>
                <path id="Trazado_221080" data-name="Trazado 221080" d="M228.825,97.841c-.13.155-.608-.031-1.191-.062-.581-.052-1.08.064-1.187-.108-.046-.084.038-.241.259-.383a1.727,1.727,0,0,1,1.916.137c.2.172.261.34.2.415" transform="translate(-135.815 -58.217)" fill="#263238"/>
                <path id="Trazado_221081" data-name="Trazado 221081" d="M211.782,80.972c-.82,1.783-2.66,4.437-4.613,4.629a5.765,5.765,0,0,1-5.129-2.31c-.328,1.446-1.958,2.18-3.426,2.387a5.828,5.828,0,0,1-3.093-.28,3.088,3.088,0,0,1-1.912-2.318c-.133-1.04,1.4-3.551,2.434-3.721" transform="translate(-116.121 -47.599)" fill="#263238"/>
                <path id="Trazado_221082" data-name="Trazado 221082" d="M177.5,106.872a4.017,4.017,0,0,1-2.941,3.565,2.846,2.846,0,0,1-5.51,1.107,3.413,3.413,0,0,0-.408-.964c-.5-.632-1.473-.507-2.239-.755-1.38-.447-1.978-2.139-1.822-3.581a3.392,3.392,0,0,0,.04-.855,3.8,3.8,0,0,0-.876-1.5c-1.389-1.967-.81-4.825.729-6.677.513-.618,1.161-1.263,1.114-2.064a4.316,4.316,0,0,0-.436-1.265,3.64,3.64,0,0,1,.981-3.971,1.143,1.143,0,0,0,.421-.507,1.109,1.109,0,0,0,0-.422,4.256,4.256,0,0,1,3.6-4.545,1.061,1.061,0,0,0,.376-.084c.327-.171.338-.622.381-.989a6.8,6.8,0,0,1,1.605-3.414,3.418,3.418,0,0,1,4.762.342s1.408,6.982,1.136,8.282-1.228,4.543-.85,6.015,1,4.489.4,5.816-.464,6.465-.464,6.465" transform="translate(-97.74 -47.449)" fill="#263238"/>
                <path id="Trazado_221083" data-name="Trazado 221083" d="M180.06,92.355c-.008.012.088.09.272.22a7.024,7.024,0,0,0,.816.491,9.988,9.988,0,0,0,6.116,1,6.933,6.933,0,0,0,.93-.2,1.078,1.078,0,0,0,.328-.122c-.009-.037-.489.084-1.278.172a11.259,11.259,0,0,1-6.027-.989c-.719-.336-1.135-.6-1.156-.572" transform="translate(-107.999 -55.393)" fill="#455a64"/>
                <path id="Trazado_221084" data-name="Trazado 221084" d="M178.382,93.593a1.689,1.689,0,0,0,.149.415,3.708,3.708,0,0,0,.222.467,6.305,6.305,0,0,0,.343.594,9.11,9.11,0,0,0,1.1,1.408,9.695,9.695,0,0,0,3.635,2.4,9.1,9.1,0,0,0,1.728.457,6.2,6.2,0,0,0,.682.081,3.686,3.686,0,0,0,.517.02,1.681,1.681,0,0,0,.44-.026c0-.044-.627-.034-1.611-.227a10.078,10.078,0,0,1-1.684-.493,10.2,10.2,0,0,1-3.562-2.348,10.083,10.083,0,0,1-1.117-1.353c-.565-.828-.8-1.41-.844-1.392" transform="translate(-106.991 -56.137)" fill="#455a64"/>
                <path id="Trazado_221085" data-name="Trazado 221085" d="M183.039,127.9c0-.012-.088,0-.245-.027a1.1,1.1,0,0,1-.587-.351,1.5,1.5,0,0,1-.382-1,4.886,4.886,0,0,1,.264-1.45,3.15,3.15,0,0,0,.11-1.835,5.36,5.36,0,0,0-1.223-1.716,3.351,3.351,0,0,1-.608-.9,1.264,1.264,0,0,1,.032-1.054,2.384,2.384,0,0,1,.79-.839c.329-.238.692-.449,1.039-.707a2.265,2.265,0,0,0,.835-1,1.541,1.541,0,0,0-.131-1.261c-.395-.726-1.01-1.252-1.156-1.948a2.365,2.365,0,0,1,.518-1.873,8.286,8.286,0,0,1,1.227-1.311,8.461,8.461,0,0,0,1.029-1.105,3.335,3.335,0,0,0,.532-1.013,2.076,2.076,0,0,0,.083-.718.955.955,0,0,0-.046-.247,2.654,2.654,0,0,1-.118.94,5.175,5.175,0,0,1-1.584,2.029,8.215,8.215,0,0,0-1.27,1.32,3.489,3.489,0,0,0-.492.913,2.013,2.013,0,0,0-.076,1.109c.167.781.808,1.327,1.163,2a1.325,1.325,0,0,1,.116,1.09,2.063,2.063,0,0,1-.76.893c-.334.248-.7.459-1.037.706a2.589,2.589,0,0,0-.856.922,1.479,1.479,0,0,0-.033,1.225,3.527,3.527,0,0,0,.651.957,5.281,5.281,0,0,1,1.2,1.64,3.024,3.024,0,0,1-.087,1.738,4.873,4.873,0,0,0-.237,1.5,1.578,1.578,0,0,0,.443,1.054,1.091,1.091,0,0,0,.641.335.587.587,0,0,0,.252-.016" transform="translate(-107.998 -64.506)" fill="#455a64"/>
                <path id="Trazado_221086" data-name="Trazado 221086" d="M248.221,203.153l-25.8.21a1.619,1.619,0,0,0-1.762,1.23l-2.82,18.808H204.542a.775.775,0,1,0,0,1.55h42.451l2.9-19.85a1.693,1.693,0,0,0-1.674-1.947" transform="translate(-122.219 -121.85)" fill="#e0e0e0"/>
                <path id="Trazado_221087" data-name="Trazado 221087" d="M248.064,203.138a1.361,1.361,0,0,1,.407.038,1.707,1.707,0,0,1,1.3,1.478,4.766,4.766,0,0,1-.095,1.061l-.372,2.619c-.568,3.943-1.386,9.626-2.393,16.612l-.01.068h-.069l-41.184.024h-1.108a1.072,1.072,0,0,1-.586-.111.88.88,0,0,1,0-1.538,1.074,1.074,0,0,1,.581-.109H209.4l8.275,0-.1.085c1.015-6.735,1.962-13.019,2.811-18.656a1.462,1.462,0,0,1,.477-.983,1.92,1.92,0,0,1,.987-.435,8.581,8.581,0,0,1,1.041-.037l1.013-.007,3.885-.026,6.9-.044,9.829-.05,2.63,0,.679,0c.152,0,.23.007.23.007s-.078.006-.23.011l-.679.014-2.629.038-9.829.109-6.9.068-3.885.037-1.013.01a8.415,8.415,0,0,0-1.015.037,1.754,1.754,0,0,0-.9.4,1.284,1.284,0,0,0-.42.881c-.841,5.638-1.779,11.923-2.783,18.66l-.013.086h-.087l-8.275,0h-4.859a.863.863,0,0,0-.481.083.671.671,0,0,0,0,1.173.867.867,0,0,0,.485.085h1.108l41.184.025-.078.068,2.462-16.6.393-2.616a4.791,4.791,0,0,0,.105-1.046,1.653,1.653,0,0,0-.3-.8,1.687,1.687,0,0,0-.954-.658,3.347,3.347,0,0,0-.4-.061" transform="translate(-122.062 -121.835)" fill="#263238"/>
                <path id="Trazado_221088" data-name="Trazado 221088" d="M275.833,227.366a1.616,1.616,0,1,0,1.616-1.616,1.616,1.616,0,0,0-1.616,1.616" transform="translate(-165.443 -135.404)" fill="#fff"/>
                <path id="Trazado_221089" data-name="Trazado 221089" d="M241.527,225.089c.036.006.858-4.782,1.834-10.7s1.739-10.712,1.7-10.718-.858,4.782-1.835,10.7-1.738,10.711-1.7,10.717" transform="translate(-144.866 -122.164)" fill="#263238"/>
              </g>
            </g>
            <g id="Grupo_177789" data-name="Grupo 177789">
              <g id="Grupo_177788" data-name="Grupo 177788" clip-path="url(#clip-path-2)">
                <path id="Trazado_221090" data-name="Trazado 221090" d="M353.212,114.317s-.006-.24-.01-.7-.006-1.134-.01-2.012c-.005-1.763-.013-4.341-.023-7.624-.011-6.563-.027-15.943-.046-27.233l.088.088-42.058.016h0l.1-.1c0,13.665-.009,26.526-.012,37.566l-.092-.092,30.424.046,8.58.024,2.271.011.586.005c.132,0,.2.005.2.005s-.062,0-.191.005l-.575.005-2.253.011-8.56.024-30.483.046h-.092v-.092c0-11.04-.008-23.9-.012-37.566v-.1h.108l42.058.016h.088v.088c-.019,11.313-.034,20.712-.046,27.289-.01,3.275-.018,5.847-.023,7.6,0,.871-.008,1.539-.01,2s-.01.677-.01.677" transform="translate(-186.564 -45.973)" fill="#263238"/>
                <path id="Trazado_221093" data-name="Trazado 221093" d="M0,0H35.889V33.295H0Z" transform="translate(127.331 32.914)" fill="#eeac3a"/>
                <g id="Grupo_177787" data-name="Grupo 177787" transform="translate(129.904 35.505)" opacity="0.3">
                  <g id="Grupo_177786" data-name="Grupo 177786">
                    <g id="Grupo_177785" data-name="Grupo 177785" clip-path="url(#clip-path-12)">
                      <path id="Trazado_221091" data-name="Trazado 221091" d="M368.535,100.991a2.479,2.479,0,1,0,2.583,2.476,2.531,2.531,0,0,0-2.583-2.476" transform="translate(-349.401 -96.078)"/>
                      <path id="Trazado_221092" data-name="Trazado 221092" d="M355.127,88.741l-30.321-.023c.034-.036-.327.313-.174.169v3.768q0,1.871,0,3.707c0,2.446,0,4.842,0,7.174.006,4.663.011,9.072.016,13.127v.144h.149l22.02-.072,6.15-.038,1.612-.016.409-.008a.785.785,0,0,0,.132-.008,1.093,1.093,0,0,0-.149-.008l-.425-.008-1.64-.017-6.184-.037-6.775-.022h15.167a.746.746,0,0,0,.006.093.566.566,0,0,0,.008-.121c0-.1,0-.218.008-.373q.006-.522.017-1.471c.009-1.313.022-3.212.038-5.622.018-4.885.044-11.841.075-20.193v-.14Zm-7.341,15.831-4.934,5.815-8.121-10.951-9.779,16.875c.005-3.96.01-8.247.016-12.777,0-2.332,0-4.728,0-7.174q0-1.835,0-3.707V89.046l30.007-.023c.031,8.251.056,15.127.075,19.963.016,2.424.029,4.334.038,5.654q.011.966.017,1.5c0,.161.006.288.008.388,0,.014,0,.021,0,.033Z" transform="translate(-324.595 -88.716)"/>
                    </g>
                  </g>
                </g>
                <rect id="Rectángulo_57298" data-name="Rectángulo 57298" width="2.204" height="2.204" transform="translate(123.485 29.394)" fill="#263238"/>
                <rect id="Rectángulo_57299" data-name="Rectángulo 57299" width="2.204" height="2.204" transform="translate(165.192 29.394)" fill="#263238"/>
                <rect id="Rectángulo_57300" data-name="Rectángulo 57300" width="2.204" height="2.204" transform="translate(165.192 66.88)" fill="#263238"/>
                <rect id="Rectángulo_57301" data-name="Rectángulo 57301" width="2.204" height="2.204" transform="translate(123.795 66.88)" fill="#263238"/>
                <rect id="Rectángulo_57302" data-name="Rectángulo 57302" width="2.204" height="2.204" transform="translate(123.795 48.356)" fill="#263238"/>
                <rect id="Rectángulo_57303" data-name="Rectángulo 57303" width="2.204" height="2.204" transform="translate(144.244 67.242)" fill="#263238"/>
                <rect id="Rectángulo_57304" data-name="Rectángulo 57304" width="2.204" height="2.204" transform="translate(165.547 47.254)" fill="#263238"/>
                <rect id="Rectángulo_57305" data-name="Rectángulo 57305" width="2.204" height="2.204" transform="translate(144.252 29.594)" fill="#263238"/>
              </g>
            </g>
          </g>
        </g>
      </g>
    </g>
    <g id="Grupo_889567" data-name="Grupo 889567" transform="translate(239.869 833.823)">
      <path id="Trazado_605122" data-name="Trazado 605122" d="M106.54,107.462H10.609a1.942,1.942,0,0,1-1.942-1.941V46.14A1.942,1.942,0,0,1,10.609,44.2H106.54a1.941,1.941,0,0,1,1.941,1.941v59.381a1.941,1.941,0,0,1-1.941,1.941" transform="translate(1030.971 1643.091)" fill="#12263f"/>
      <path id="Trazado_605123" data-name="Trazado 605123" d="M10.229,105.021V51.563a1.53,1.53,0,0,1,1.53-1.53h94a1.53,1.53,0,0,1,1.531,1.53v53.459a1.53,1.53,0,0,1-1.531,1.53h-94a1.53,1.53,0,0,1-1.53-1.53" transform="translate(1030.785 1642.398)" fill="#fff"/>
      <path id="Trazado_605124" data-name="Trazado 605124" d="M119.3,46.948a1.264,1.264,0,1,1-1.264-1.264,1.264,1.264,0,0,1,1.264,1.264" transform="translate(1018.135 1642.915)" fill="#fff"/>
      <path id="Trazado_605125" data-name="Trazado 605125" d="M114.558,46.948a1.264,1.264,0,1,1-1.264-1.264,1.264,1.264,0,0,1,1.264,1.264" transform="translate(1018.698 1642.915)" fill="#fff"/>
      <path id="Trazado_605126" data-name="Trazado 605126" d="M109.819,46.948a1.264,1.264,0,1,1-1.264-1.264,1.264,1.264,0,0,1,1.264,1.264" transform="translate(1019.261 1642.915)" fill="#fff"/>
      <path id="Trazado_605127" data-name="Trazado 605127" d="M24.393,60.824a5.11,5.11,0,1,1-5.11-5.11,5.111,5.111,0,0,1,5.11,5.11" transform="translate(1030.317 1641.724)" fill="#1565c0"/>
      <rect id="Rectángulo_299820" data-name="Rectángulo 299820" width="76.199" height="2.414" transform="translate(1057.058 1697.478)" fill="#e8e8e8"/>
      <rect id="Rectángulo_299821" data-name="Rectángulo 299821" width="51.861" height="2.414" transform="translate(1057.058 1701.341)" fill="#e8e8e8"/>
      <rect id="Rectángulo_299822" data-name="Rectángulo 299822" width="26.968" height="2.414" transform="translate(1057.058 1705.443)" fill="#e8e8e8"/>
      <path id="Trazado_605128" data-name="Trazado 605128" d="M24.393,79.291a5.11,5.11,0,1,1-5.11-5.11,5.111,5.111,0,0,1,5.11,5.11" transform="translate(1030.317 1639.531)" fill="#fb8c00"/>
      <rect id="Rectángulo_299823" data-name="Rectángulo 299823" width="76.199" height="2.414" transform="translate(1057.058 1713.753)" fill="#e8e8e8"/>
      <rect id="Rectángulo_299824" data-name="Rectángulo 299824" width="51.861" height="2.414" transform="translate(1057.058 1717.615)" fill="#e8e8e8"/>
      <rect id="Rectángulo_299825" data-name="Rectángulo 299825" width="26.968" height="2.414" transform="translate(1057.058 1721.717)" fill="#e8e8e8"/>
      <path id="Trazado_605129" data-name="Trazado 605129" d="M24.393,97.758a5.11,5.11,0,1,1-5.11-5.11,5.111,5.111,0,0,1,5.11,5.11" transform="translate(1030.317 1637.338)" fill="#26aab7"/>
      <rect id="Rectángulo_299826" data-name="Rectángulo 299826" width="76.199" height="2.414" transform="translate(1057.058 1730.027)" fill="#e8e8e8"/>
      <rect id="Rectángulo_299827" data-name="Rectángulo 299827" width="51.861" height="2.414" transform="translate(1057.058 1733.89)" fill="#e8e8e8"/>
      <rect id="Rectángulo_299828" data-name="Rectángulo 299828" width="26.968" height="2.414" transform="translate(1057.058 1737.991)" fill="#e8e8e8"/>
      <path id="Trazado_605130" data-name="Trazado 605130" d="M127.125,121.336v1.322H125.8" transform="translate(1017.063 1633.932)" fill="none" stroke="#38356e" stroke-linejoin="round" stroke-width="0.5"/>
      <line id="Línea_2087" data-name="Línea 2087" x1="103.461" transform="translate(1036.786 1756.59)" fill="none" stroke="#38356e" stroke-linejoin="round" stroke-width="0.5" stroke-dasharray="2.972 2.972"/>
      <path id="Trazado_605131" data-name="Trazado 605131" d="M3.767,122.658H2.445v-1.322" transform="translate(1031.71 1633.932)" fill="none" stroke="#38356e" stroke-linejoin="round" stroke-width="0.5"/>
      <line id="Línea_2088" data-name="Línea 2088" y1="68.081" transform="translate(1034.155 1684.518)" fill="none" stroke="#12263f" stroke-linejoin="round" stroke-width="0.5" stroke-dasharray="3.03 3.03"/>
      <path id="Trazado_605132" data-name="Trazado 605132" d="M2.445,39.36V38.038H3.767" transform="translate(1031.71 1643.823)" fill="none" stroke="#38356e" stroke-linejoin="round" stroke-width="0.5"/>
      <line id="Línea_2089" data-name="Línea 2089" x2="103.461" transform="translate(1038.096 1681.861)" fill="none" stroke="#38356e" stroke-linejoin="round" stroke-width="0.5" stroke-dasharray="2.972 2.972"/>
      <path id="Trazado_605133" data-name="Trazado 605133" d="M125.8,38.038h1.322V39.36" transform="translate(1017.063 1643.823)" fill="none" stroke="#38356e" stroke-linejoin="round" stroke-width="0.5"/>
      <line id="Línea_2090" data-name="Línea 2090" y2="68.081" transform="translate(1144.188 1685.852)" fill="none" stroke="#38356e" stroke-linejoin="round" stroke-width="0.5" stroke-dasharray="3.03 3.03"/>
      <rect id="Rectángulo_299829" data-name="Rectángulo 299829" width="4.309" height="4.309" transform="translate(1032 1679.706)" fill="#12263f"/>
      <rect id="Rectángulo_299830" data-name="Rectángulo 299830" width="4.309" height="4.309" transform="translate(1142.033 1679.706)" fill="#12263f"/>
      <rect id="Rectángulo_299831" data-name="Rectángulo 299831" width="4.309" height="4.309" transform="translate(1142.033 1754.436)" fill="#12263f"/>
      <rect id="Rectángulo_299832" data-name="Rectángulo 299832" width="4.309" height="4.309" transform="translate(1032.661 1754.436)" fill="#12263f"/>
      <path id="Trazado_605134" data-name="Trazado 605134" d="M84.209,103.062V101.74h1.322" transform="translate(1022.002 1636.259)" fill="none" stroke="#38356e" stroke-linejoin="round" stroke-width="0.5"/>
    </g>
    <g id="Grupo_889568" data-name="Grupo 889568" transform="translate(1335 2474.058)">
      <g id="Grupo_54742" data-name="Grupo 54742">
        <g id="Grupo_54739" data-name="Grupo 54739" transform="translate(0.195 0.194)">
          <rect id="Rectángulo_29415" data-name="Rectángulo 29415" width="69.892" height="27.171" fill="#fafafa"/>
        </g>
        <g id="Grupo_54741" data-name="Grupo 54741">
          <g id="Grupo_54740" data-name="Grupo 54740">
            <path id="Trazado_117062" data-name="Trazado 117062" d="M416.463,177.213s-.01-.169-.014-.489-.008-.8-.014-1.409c-.007-1.246-.019-3.061-.034-5.4-.017-4.686-.042-11.461-.073-19.873l.135.134-69.888.06h0l.194-.194c0,9.5-.005,18.68-.007,27.17l-.187-.187,50.061.088,14.56.051,3.9.024,1.014.012c.229,0,.352.011.352.011s-.108.008-.329.012l-.991.011-3.866.024-14.518.052-50.188.087h-.187v-.187c0-8.49-.005-17.671-.008-27.17v-.194h.2l69.888.06h.135v.134c-.031,8.446-.056,15.248-.073,19.954-.014,2.326-.025,4.13-.033,5.369-.007.6-.011,1.061-.015,1.385S416.463,177.213,416.463,177.213Z" transform="translate(-346.376 -149.849)" fill="#263238"/>
          </g>
        </g>
      </g>
      <g id="Grupo_54743" data-name="Grupo 54743" transform="translate(0.195 0.194)">
        <rect id="Rectángulo_29416" data-name="Rectángulo 29416" width="69.892" height="5.822" fill="#263238"/>
      </g>
      <g id="Grupo_54744" data-name="Grupo 54744" transform="translate(8.501 10.456)">
        <rect id="Rectángulo_29417" data-name="Rectángulo 29417" width="6.864" height="6.864" fill="#263238"/>
      </g>
      <g id="Grupo_54745" data-name="Grupo 54745" transform="translate(12.658 14.613)">
        <rect id="Rectángulo_29418" data-name="Rectángulo 29418" width="6.864" height="6.864" fill="#263238"/>
      </g>
      <g id="Grupo_54746" data-name="Grupo 54746" transform="translate(24.861 10.456)">
        <rect id="Rectángulo_29419" data-name="Rectángulo 29419" width="6.864" height="6.864" fill="#263238"/>
      </g>
      <g id="Grupo_54750" data-name="Grupo 54750" transform="translate(28.781 14.415)">
        <g id="Grupo_54747" data-name="Grupo 54747" transform="translate(0.237 0.198)">
          <rect id="Rectángulo_29420" data-name="Rectángulo 29420" width="6.864" height="6.864" fill="#f5f5f5"/>
        </g>
        <g id="Grupo_54749" data-name="Grupo 54749">
          <g id="Grupo_54748" data-name="Grupo 54748">
            <path id="Trazado_117063" data-name="Trazado 117063" d="M392.032,176.222a3.312,3.312,0,0,1-.039-.529c-.012-.387-.026-.854-.044-1.413-.031-1.207-.069-2.9-.085-4.922l.168.168-6.863.026.193-.193v.933l0,.918q0,.907-.005,1.774c-.007,1.148-.013,2.233-.019,3.238l-.168-.168c2.021.016,3.715.054,4.922.085l1.413.044a3.29,3.29,0,0,1,.529.039,1.969,1.969,0,0,1-.459.038l-1.375.044c-1.2.031-2.934.069-5.03.086l-.167,0v-.169c-.006-1-.013-2.09-.019-3.238q0-.865-.005-1.774v-1.851c-.174.173.236-.237.195-.2l6.863.027h.169l0,.168c-.016,2.1-.054,3.834-.086,5.029-.017.544-.031,1-.044,1.376A1.961,1.961,0,0,1,392.032,176.222Z" transform="translate(-384.931 -169.16)" fill="#263238"/>
          </g>
        </g>
      </g>
      <g id="Grupo_54760" data-name="Grupo 54760" transform="translate(39.889 10.259)">
        <g id="Grupo_54754" data-name="Grupo 54754">
          <g id="Grupo_54751" data-name="Grupo 54751" transform="translate(0.237 0.197)">
            <rect id="Rectángulo_29421" data-name="Rectángulo 29421" width="6.864" height="6.864" fill="#f5f5f5"/>
          </g>
          <g id="Grupo_54753" data-name="Grupo 54753">
            <g id="Grupo_54752" data-name="Grupo 54752">
              <path id="Trazado_117064" data-name="Trazado 117064" d="M406.913,170.653a3.293,3.293,0,0,1-.039-.529c-.012-.387-.026-.854-.044-1.413-.031-1.207-.069-2.9-.085-4.922l.168.168-6.863.027c-.043.042.367-.368.193-.193h0v.932q0,.462,0,.917c0,.6,0,1.2-.005,1.774-.007,1.147-.013,2.233-.019,3.237l-.168-.168c2.021.016,3.715.055,4.922.086l1.413.043a3.311,3.311,0,0,1,.529.039,1.969,1.969,0,0,1-.459.038l-1.375.044c-1.2.031-2.934.069-5.03.086h-.167v-.169c-.006-1-.013-2.09-.019-3.237,0-.577,0-1.17-.005-1.774v-1.849h0c-.174.173.236-.238.195-.2l6.863.026h.169v.167c-.016,2.1-.055,3.834-.086,5.03-.017.544-.032,1-.044,1.375A1.969,1.969,0,0,1,406.913,170.653Z" transform="translate(-399.812 -163.592)" fill="#263238"/>
            </g>
          </g>
        </g>
        <g id="Grupo_54758" data-name="Grupo 54758" transform="translate(4.157 4.157)">
          <g id="Grupo_54755" data-name="Grupo 54755" transform="translate(0.238 0.198)">
            <rect id="Rectángulo_29422" data-name="Rectángulo 29422" width="6.864" height="6.864" fill="#f5f5f5"/>
          </g>
          <g id="Grupo_54757" data-name="Grupo 54757">
            <g id="Grupo_54756" data-name="Grupo 54756">
              <path id="Trazado_117065" data-name="Trazado 117065" d="M412.482,176.222a3.315,3.315,0,0,1-.039-.529c-.012-.387-.027-.854-.044-1.413-.031-1.207-.069-2.9-.086-4.922l.168.168-6.862.026.193-.193v.933c0,.309,0,.615,0,.918q0,.907-.005,1.774c-.007,1.148-.013,2.233-.019,3.238l-.168-.168c2.022.016,3.715.054,4.922.085l1.413.044a3.3,3.3,0,0,1,.529.039,1.97,1.97,0,0,1-.459.038l-1.376.044c-1.2.031-2.934.069-5.029.086l-.167,0v-.169c-.006-1-.012-2.09-.019-3.238q0-.865,0-1.774v-1.851l.2-.2,6.862.027h.169v.168c-.016,2.1-.054,3.834-.086,5.029-.017.544-.032,1-.044,1.376A1.963,1.963,0,0,1,412.482,176.222Z" transform="translate(-405.381 -169.16)" fill="#263238"/>
            </g>
          </g>
        </g>
        <g id="Grupo_54759" data-name="Grupo 54759" transform="translate(4.394 4.354)">
          <rect id="Rectángulo_29423" data-name="Rectángulo 29423" width="2.707" height="2.707" fill="#263238"/>
        </g>
      </g>
      <g id="Grupo_54764" data-name="Grupo 54764" transform="translate(54.16 10.456)">
        <g id="Grupo_54761" data-name="Grupo 54761">
          <rect id="Rectángulo_29424" data-name="Rectángulo 29424" width="6.864" height="6.864" fill="#263238"/>
        </g>
        <g id="Grupo_54762" data-name="Grupo 54762" transform="translate(4.157 4.157)">
          <rect id="Rectángulo_29425" data-name="Rectángulo 29425" width="6.864" height="6.864" fill="#263238"/>
        </g>
        <g id="Grupo_54763" data-name="Grupo 54763" transform="translate(4.157 4.157)">
          <rect id="Rectángulo_29426" data-name="Rectángulo 29426" width="2.707" height="2.707" fill="#fafafa"/>
        </g>
      </g>
    </g>
    <g id="Grupo_889569" data-name="Grupo 889569" transform="translate(1135.726 2401.621)">
      <g id="Grupo_54809" data-name="Grupo 54809">
        <g id="Grupo_54800" data-name="Grupo 54800">
          <g id="Grupo_54799" data-name="Grupo 54799">
            <g id="Grupo_54796" data-name="Grupo 54796" transform="translate(0.153 0.153)">
              <rect id="Rectángulo_29439" data-name="Rectángulo 29439" width="73.997" height="51.531" fill="#fff"/>
            </g>
            <g id="Grupo_54798" data-name="Grupo 54798">
              <g id="Grupo_54797" data-name="Grupo 54797">
                <path id="Trazado_117069" data-name="Trazado 117069" d="M177.935,133.75s-.009-.324-.014-.942-.008-1.536-.014-2.727c-.007-2.392-.018-5.9-.032-10.382-.015-8.962-.038-21.829-.065-37.48l.124.124-73.99.029h-.006l.153-.153c0,18.417-.009,35.908-.014,51.531l-.139-.139,53.338.069,15.212.038,4.044.016,1.044.008c.235,0,.359.008.359.008s-.113.006-.343.008l-1.029.008-4.016.017-15.18.037-53.429.069h-.14v-.14c0-15.623-.009-33.113-.014-51.531v-.153h.159l73.99.03h.124v.124c-.027,15.683-.049,28.577-.065,37.557-.014,4.472-.024,7.968-.031,10.354-.007,1.182-.011,2.087-.014,2.7S177.935,133.75,177.935,133.75Z" transform="translate(-103.785 -82.066)" fill="#263238"/>
              </g>
            </g>
          </g>
        </g>
        <g id="Grupo_54802" data-name="Grupo 54802" transform="translate(0.153 0.153)">
          <g id="Grupo_54801" data-name="Grupo 54801">
            <rect id="Rectángulo_29440" data-name="Rectángulo 29440" width="73.997" height="6.439" fill="#263238"/>
          </g>
        </g>
        <g id="Grupo_54804" data-name="Grupo 54804" transform="translate(2.627 2.75)">
          <g id="Grupo_54803" data-name="Grupo 54803">
            <path id="Trazado_117070" data-name="Trazado 117070" d="M109.8,87.549a.773.773,0,1,1-.772-.807A.79.79,0,0,1,109.8,87.549Z" transform="translate(-108.251 -86.742)" fill="#fff"/>
          </g>
        </g>
        <g id="Grupo_54806" data-name="Grupo 54806" transform="translate(5.758 2.75)">
          <g id="Grupo_54805" data-name="Grupo 54805">
            <path id="Trazado_117071" data-name="Trazado 117071" d="M115.12,87.549a.773.773,0,1,1-.772-.807A.79.79,0,0,1,115.12,87.549Z" transform="translate(-113.576 -86.742)" fill="#fff"/>
          </g>
        </g>
        <g id="Grupo_54808" data-name="Grupo 54808" transform="translate(8.889 2.75)">
          <g id="Grupo_54807" data-name="Grupo 54807">
            <path id="Trazado_117072" data-name="Trazado 117072" d="M120.444,87.549a.773.773,0,1,1-.772-.807A.79.79,0,0,1,120.444,87.549Z" transform="translate(-118.9 -86.742)" fill="#fff"/>
          </g>
        </g>
      </g>
      <g id="Grupo_54810" data-name="Grupo 54810" transform="translate(7.189 12.904)">
        <rect id="Rectángulo_29441" data-name="Rectángulo 29441" width="10.546" height="25.3" fill="#fb8c00"/>
      </g>
      <g id="Grupo_54811" data-name="Grupo 54811" transform="translate(23.45 12.904)">
        <rect id="Rectángulo_29442" data-name="Rectángulo 29442" width="10.546" height="25.3" fill="#ebebeb"/>
      </g>
      <g id="Grupo_54812" data-name="Grupo 54812" transform="translate(39.712 12.904)">
        <rect id="Rectángulo_29443" data-name="Rectángulo 29443" width="10.546" height="25.3" fill="#fafafa"/>
      </g>
      <g id="Grupo_54813" data-name="Grupo 54813" transform="translate(55.973 13.103)">
        <rect id="Rectángulo_29444" data-name="Rectángulo 29444" width="10.546" height="25.3" fill="#e0e0e0"/>
      </g>
      <g id="Grupo_54814" data-name="Grupo 54814" transform="translate(5.967 40.997)">
        <rect id="Rectángulo_29445" data-name="Rectángulo 29445" width="63.919" height="5.781" fill="#26aab7"/>
      </g>
      <g id="Grupo_54815" data-name="Grupo 54815" transform="translate(65.024 45.593)">
        <path id="Trazado_117073" data-name="Trazado 117073" d="M214.348,159.589l1.375,6.961,1.131-1.942,2.429,3.47,1.214-.781-2.429-3.47,2.23-.327Z" transform="translate(-214.348 -159.589)" fill="#263238"/>
      </g>
    </g>
  </g>
</svg>
