<svg xmlns="http://www.w3.org/2000/svg" xmlns:xlink="http://www.w3.org/1999/xlink" width="138" height="159" viewBox="0 0 138 159">
  <defs>
    <clipPath id="clip-path">
      <rect id="Rectángulo_300488" data-name="Rectángulo 300488" width="138" height="159" transform="translate(0 0)" fill="#12263f"/>
    </clipPath>
  </defs>
  <g id="Grupo_889740" data-name="Grupo 889740" transform="translate(0 -0.184)">
    <g id="Grupo_889740-2" data-name="Grupo 889740" transform="translate(0 0.184)" clip-path="url(#clip-path)">
      <path id="Trazado_606239" data-name="Trazado 606239" d="M212.96,458.849H201.31l-6.346-6.129A8.151,8.151,0,0,0,188.89,450H177.212a8.026,8.026,0,0,0-5.941,2.58l-6.48,6.269H153.142A8.154,8.154,0,0,0,145,466.995v33.269a8.154,8.154,0,0,0,8.145,8.144H212.96a8.154,8.154,0,0,0,8.145-8.144V466.995a8.154,8.154,0,0,0-8.145-8.146m2.835,41.415a2.837,2.837,0,0,1-2.835,2.834H153.142a2.837,2.837,0,0,1-2.835-2.834V466.995a2.839,2.839,0,0,1,2.835-2.836h12.724a2.653,2.653,0,0,0,1.846-.747l7.385-7.156a2.842,2.842,0,0,1,2.116-.946H188.89a2.989,2.989,0,0,1,2.249,1.086l7.252,7.016a2.653,2.653,0,0,0,1.846.747H212.96a2.839,2.839,0,0,1,2.835,2.836Z" transform="translate(-119.334 -370.48)" fill="#12263f"/>
      <path id="Trazado_606240" data-name="Trazado 606240" d="M298.274,555a13.274,13.274,0,1,0,13.274,13.274A13.29,13.29,0,0,0,298.274,555m0,21.239a7.965,7.965,0,1,1,7.965-7.965,7.973,7.973,0,0,1-7.965,7.965" transform="translate(-234.557 -456.896)" fill="#12263f"/>
      <path id="Trazado_606241" data-name="Trazado 606241" d="M482.655,690a2.655,2.655,0,1,0,2.655,2.655A2.655,2.655,0,0,0,482.655,690" transform="translate(-395.043 -568.002)" fill="#12263f"/>
      <path id="Trazado_606242" data-name="Trazado 606242" d="M93.584,120H77.655a2.655,2.655,0,0,0,0,5.31h5.31V149.2a2.655,2.655,0,1,0,5.31,0V125.31h5.31a2.655,2.655,0,1,0,0-5.31" transform="translate(-61.726 -98.888)" fill="#12263f"/>
      <path id="Trazado_606243" data-name="Trazado 606243" d="M243.584,125.31a2.655,2.655,0,1,0,0-5.31H227.655a2.655,2.655,0,0,0,0,5.31h5.31v21.239h-5.31a2.655,2.655,0,0,0,0,5.31h15.929a2.655,2.655,0,1,0,0-5.31h-5.31V125.31Z" transform="translate(-185.177 -98.888)" fill="#12263f"/>
      <path id="Trazado_606244" data-name="Trazado 606244" d="M393.584,120H377.655A2.654,2.654,0,0,0,375,122.655V149.2a2.655,2.655,0,1,0,5.31,0v-10.62h10.62a2.655,2.655,0,1,0,0-5.31H380.31V125.31h13.274a2.655,2.655,0,1,0,0-5.31" transform="translate(-308.628 -98.888)" fill="#12263f"/>
      <path id="Trazado_606245" data-name="Trazado 606245" d="M692.655,600a2.655,2.655,0,1,0,2.655,2.655A2.655,2.655,0,0,0,692.655,600" transform="translate(-567.875 -493.931)" fill="#12263f"/>
      <path id="Trazado_606246" data-name="Trazado 606246" d="M135.4,0H13.274A2.655,2.655,0,0,0,10.62,2.655V10.62H2.655A2.655,2.655,0,0,0,0,13.274V156.639a2.655,2.655,0,0,0,2.655,2.655H124.78a2.655,2.655,0,0,0,2.655-2.655v-7.965H135.4a2.655,2.655,0,0,0,2.655-2.655V2.655A2.655,2.655,0,0,0,135.4,0M5.31,15.929H95.576V34.514a7.973,7.973,0,0,0,7.965,7.965h18.584V58.408H5.31Zm95.576,18.584V19.684l17.485,17.485h-14.83a2.658,2.658,0,0,1-2.655-2.655m31.859,108.851h-5.31V119.47a2.655,2.655,0,0,0-5.31,0v34.514H5.31V63.718H122.125V98.231a2.655,2.655,0,0,0,5.31,0V39.823a2.656,2.656,0,0,0-.778-1.877L100.108,11.4a2.656,2.656,0,0,0-1.877-.778h-82.3V5.31H132.745Z" transform="translate(0 -0.127)" fill="#12263f"/>
    </g>
  </g>
</svg>
