<svg xmlns="http://www.w3.org/2000/svg" xmlns:xlink="http://www.w3.org/1999/xlink" width="135" height="156" viewBox="0 0 135 156">
  <defs>
    <clipPath id="clip-path">
      <rect id="Rectángulo_300463" data-name="Rectángulo 300463" width="135" height="156" transform="translate(0)" fill="#12263f"/>
    </clipPath>
  </defs>
  <g id="Grupo_889684" data-name="Grupo 889684" transform="translate(-0.139 -0.159)">
    <g id="Grupo_889684-2" data-name="Grupo 889684" transform="translate(0.138 0.159)" clip-path="url(#clip-path)">
      <path id="Trazado_606163" data-name="Trazado 606163" d="M243.215,125.2a2.6,2.6,0,1,0,0-5.2H227.6a2.6,2.6,0,1,0,0,5.2h5.2v20.817h-5.2a2.6,2.6,0,1,0,0,5.2h15.613a2.6,2.6,0,1,0,0-5.2h-5.2V125.2Z" transform="translate(-186.079 -99.31)" fill="#12263f"/>
      <path id="Trazado_606164" data-name="Trazado 606164" d="M393.215,120H377.6a2.6,2.6,0,0,0-2.6,2.6v26.021a2.6,2.6,0,0,0,5.2,0V138.215h10.409a2.6,2.6,0,0,0,0-5.2H380.2V125.2h13.011a2.6,2.6,0,0,0,0-5.2" transform="translate(-310.057 -99.31)" fill="#12263f"/>
      <path id="Trazado_606165" data-name="Trazado 606165" d="M692.6,600a2.6,2.6,0,1,0,2.6,2.6,2.6,2.6,0,0,0-2.6-2.6" transform="translate(-570.413 -496.042)" fill="#12263f"/>
      <path id="Trazado_606166" data-name="Trazado 606166" d="M132.708,0H13.011a2.6,2.6,0,0,0-2.6,2.6v7.806H2.6a2.6,2.6,0,0,0-2.6,2.6V153.525a2.6,2.6,0,0,0,2.6,2.6H122.3a2.6,2.6,0,0,0,2.6-2.6v-7.806h7.806a2.6,2.6,0,0,0,2.6-2.6V2.6a2.6,2.6,0,0,0-2.6-2.6M5.2,15.613H93.676V33.828a7.815,7.815,0,0,0,7.806,7.806H119.7V57.247H5.2ZM98.881,33.828V19.292L116.018,36.43H101.483a2.606,2.606,0,0,1-2.6-2.6m31.225,106.687h-5.2V117.1a2.6,2.6,0,1,0-5.2,0v33.828H5.2V62.451H119.7V96.279a2.6,2.6,0,1,0,5.2,0V39.032a2.6,2.6,0,0,0-.762-1.84L98.118,11.171a2.6,2.6,0,0,0-1.84-.762H15.613V5.2H130.106Z" transform="translate(-0.11 -0.127)" fill="#12263f"/>
      <path id="Trazado_606167" data-name="Trazado 606167" d="M86.588,136.179h-5.2a2.6,2.6,0,0,0,0,5.2h2.6v2.6a5.2,5.2,0,0,1-10.408,0V133.576a5.2,5.2,0,0,1,9.085-3.469,2.6,2.6,0,1,0,3.873-3.476,10.409,10.409,0,0,0-18.161,6.945v10.408a10.408,10.408,0,1,0,20.817,0v-5.2a2.6,2.6,0,0,0-2.6-2.6" transform="translate(-56.622 -101.929)" fill="#12263f"/>
      <path id="Trazado_606168" data-name="Trazado 606168" d="M199.818,515.522q-14.736,0-29.472,0c-2.655,0-3.324-.673-3.324-3.339q0-26.029,0-52.059c0-2.639.7-3.326,3.353-3.326q29.541,0,59.083,0c2.617,0,3.363.734,3.364,3.354q.007,26.029,0,52.059c0,2.6-.734,3.31-3.393,3.31q-14.805,0-29.61,0m-28.074-4.755H228.1V461.5H171.744Z" transform="translate(-138.156 -377.681)" fill="#12263f"/>
      <path id="Trazado_606169" data-name="Trazado 606169" d="M277.8,509.532c-.351-.019-.7-.054-1.054-.055-5.276,0-10.553-.015-15.829,0-4.46.014-7.205,2.485-7.723,6.907-.2,1.676-1.133,2.575-2.548,2.445s-2.2-1.312-2.015-3.035c.711-6.59,5.494-10.882,12.253-10.93,5.138-.036,10.277-.008,15.416-.008h1.859c-1.053-1.077-1.871-1.9-2.674-2.738-1.233-1.286-1.343-2.63-.311-3.622.965-.929,2.338-.821,3.536.347q3.35,3.267,6.647,6.587a2.3,2.3,0,0,1-.029,3.518q-3.3,3.319-6.642,6.593c-1.22,1.193-2.537,1.285-3.528.316s-.931-2.319.25-3.518c.833-.846,1.762-1.6,2.648-2.391l-.256-.418" transform="translate(-205.589 -411.634)" fill="#12263f"/>
      <path id="Trazado_606170" data-name="Trazado 606170" d="M256.469,642.628c.349.021.7.061,1.046.061,5.369,0,10.739.018,16.108,0,4.17-.016,6.879-2.432,7.438-6.57a9.223,9.223,0,0,1,.181-.946,2.237,2.237,0,0,1,4.436.5,11.549,11.549,0,0,1-9.636,11.369,57.819,57.819,0,0,1-6.59.256c-4.31.036-8.621.011-13.361.011,1.111,1.122,1.979,2.008,2.857,2.883a2.406,2.406,0,0,1,.63,2.881,2.271,2.271,0,0,1-3.72.495c-1.706-1.6-3.325-3.294-4.987-4.941-.619-.613-1.269-1.2-1.88-1.817a2.385,2.385,0,0,1-.075-3.541q3.448-3.462,6.965-6.855a2.216,2.216,0,0,1,3.008-.274,2.083,2.083,0,0,1,.731,2.691,5.519,5.519,0,0,1-1.284,1.586c-.663.668-1.385,1.278-2.082,1.913l.215.3" transform="translate(-205.225 -523.587)" fill="#12263f"/>
    </g>
  </g>
</svg>
