<svg xmlns="http://www.w3.org/2000/svg" xmlns:xlink="http://www.w3.org/1999/xlink" width="80" height="80" viewBox="0 0 80 80">
  <defs>
    <clipPath id="clip-path">
      <rect id="Rect치ngulo_296553" data-name="Rect치ngulo 296553" width="66.897" height="66.883" fill="#12263f"/>
    </clipPath>
  </defs>
  <g id="Grupo_893376" data-name="Grupo 893376" transform="translate(12010 7241)">
    <g id="Grupo_893372" data-name="Grupo 893372" transform="translate(-194 0.001)">
      <g id="Grupo_893368" data-name="Grupo 893368" transform="translate(-11809 -7234.001)">
        <g id="Grupo_882896" data-name="Grupo 882896" clip-path="url(#clip-path)">
          <path id="Trazado_600258" data-name="Trazado 600258" d="M0,33.418Q0,17.951,0,2.483C0,.388.4,0,2.53,0Q10,0,17.463,0c1.881,0,2.332.448,2.333,2.31q0,31.114,0,62.228c0,1.945-.409,2.342-2.4,2.343q-7.407,0-14.813,0C.324,66.882,0,66.55,0,64.233Q0,48.826,0,33.418m3.154,30.3h13.5V3.138H3.154Z" transform="translate(0 0)" fill="#12263f"/>
          <path id="Trazado_600259" data-name="Trazado 600259" d="M101.265,52.35l6.926-11.759-11.7-6.9-.907,1.265c0-2.194-.882-4.423.37-6.537q3.4-5.75,6.791-11.512c.842-1.424,1.474-1.586,2.914-.741q6.69,3.928,13.371,7.871c1.392.822,1.572,1.464.78,2.81Q107.955,47.006,96.086,67.161a2.15,2.15,0,0,1-.645.712c.119-2.462-.753-4.97.937-7.3,1.252-1.726,2.207-3.666,3.337-5.584a20.947,20.947,0,0,0-2.649-1.531A2.558,2.558,0,0,1,95.308,50.3a10.148,10.148,0,0,0,.01-1.424l5.947,3.469m3.633-33.1L97.968,31.024l11.777,6.925,6.926-11.767L104.9,19.25" transform="translate(-72.488 -11.91)" fill="#12263f"/>
          <path id="Trazado_600260" data-name="Trazado 600260" d="M95.808,216.631V213.61h7.509c0-.895.055-1.675-.015-2.444a1.6,1.6,0,0,1,1-1.8c.638-.3,1.219-.721,2.013-1.2v5.306h13.652c.02-.452.055-.877.056-1.3,0-3.7.031-7.408-.018-11.111a2.075,2.075,0,0,1,1.012-1.915,11.7,11.7,0,0,1,8.359-2.336c2.773.21,5.573.034,8.362.049,1.575.009,2.066.513,2.068,2.085q.009,7.826,0,15.652c0,1.524-.492,2.036-1.972,2.037q-20.554.008-41.108,0h-.921m40.882-16.615H123.163v13.466H136.69Z" transform="translate(-72.917 -149.749)" fill="#12263f"/>
          <path id="Trazado_600261" data-name="Trazado 600261" d="M121.057,105.164l11.664-7.1-7.1-11.666-10.5,6.378c1.371-2.454,2.08-5.3,4.938-6.62a55.405,55.405,0,0,0,4.914-2.94c1.232-.735,1.919-.572,2.67.655q4.146,6.769,8.264,13.555c.714,1.176.556,1.916-.58,2.61q-19.567,11.937-39.147,23.852c-.131.08-.278.131-.645.3a28.734,28.734,0,0,1,.041-3.127c.036-.324.5-.664.848-.877,2.531-1.571,5.081-3.112,7.824-4.785-2.1-1.858-1.024-3.442.361-5.061l2.177,3.518,11.66-7.1L113.8,99.126c-1.551-2.543-1.551-2.543.421-5.162l6.837,11.2" transform="translate(-72.694 -62.998)" fill="#12263f"/>
          <path id="Trazado_600262" data-name="Trazado 600262" d="M36.445,231.29a2.228,2.228,0,0,1-2.261,2.262A2.259,2.259,0,0,1,31.9,231.3a2.322,2.322,0,0,1,2.275-2.289,2.28,2.28,0,0,1,2.268,2.282" transform="translate(-24.28 -174.292)" fill="#12263f"/>
        </g>
      </g>
    </g>
    <rect id="Rect치ngulo_303260" data-name="Rect치ngulo 303260" width="80" height="80" transform="translate(-12010 -7241)" fill="none"/>
  </g>
</svg>
