<svg xmlns="http://www.w3.org/2000/svg" xmlns:xlink="http://www.w3.org/1999/xlink" width="133" height="154" viewBox="0 0 133 154">
  <defs>
    <clipPath id="clip-path">
      <rect id="Rectángulo_300538" data-name="Rectángulo 300538" width="133" height="154" transform="translate(0 0)" fill="#12263f"/>
    </clipPath>
  </defs>
  <g id="Grupo_889852" data-name="Grupo 889852" transform="translate(-0.22 -0.023)">
    <g id="Grupo_889852-2" data-name="Grupo 889852" transform="translate(0.22 0.023)" clip-path="url(#clip-path)">
      <path id="Trazado_606389" data-name="Trazado 606389" d="M230.331,446.242l-17.183-10.853A2.536,2.536,0,0,0,211.8,435H167.624A2.6,2.6,0,0,0,165,437.61v45.418a2.623,2.623,0,0,0,1.216,2.221l17.23,10.774a2.458,2.458,0,0,0,1.32.427h44.243a2.584,2.584,0,0,0,2.56-2.609V448.423a2.576,2.576,0,0,0-1.24-2.182m-48.124,42.925-12.086-7.594V442.284l12.086,7.6Zm-5.617-48.948h34.488l8.9,5.6H185.5Zm49.86,51.014H187.328v-40.2h39.122Z" transform="translate(-136.937 -360.758)" fill="#12263f"/>
      <path id="Trazado_606390" data-name="Trazado 606390" d="M692.56,600a2.56,2.56,0,1,0,2.56,2.56,2.56,2.56,0,0,0-2.56-2.56" transform="translate(-572.322 -497.594)" fill="#12263f"/>
      <path id="Trazado_606391" data-name="Trazado 606391" d="M130.582,0H12.8a2.56,2.56,0,0,0-2.56,2.56v7.681H2.56A2.56,2.56,0,0,0,0,12.8V151.065a2.56,2.56,0,0,0,2.56,2.56H120.34a2.56,2.56,0,0,0,2.56-2.56v-7.681h7.681a2.56,2.56,0,0,0,2.56-2.56V2.56A2.56,2.56,0,0,0,130.582,0M5.121,15.363H92.175V33.285a7.69,7.69,0,0,0,7.681,7.681h17.923V56.329H5.121ZM97.3,33.285v-14.3l16.863,16.863h-14.3a2.564,2.564,0,0,1-2.56-2.56m30.725,104.977H122.9V115.219a2.56,2.56,0,1,0-5.121,0V148.5H5.121V61.45H117.779V94.736a2.56,2.56,0,1,0,5.121,0V38.406a2.561,2.561,0,0,0-.75-1.81l-25.6-25.6a2.561,2.561,0,0,0-1.81-.75H15.363V5.121H128.021Z" transform="translate(-0.101 -0.01)" fill="#12263f"/>
      <path id="Trazado_606392" data-name="Trazado 606392" d="M245.5,109.742a2.566,2.566,0,0,0-2.878,1.15l-5.486,9.143-5.486-9.143a2.56,2.56,0,0,0-4.756,1.318v25.6a2.56,2.56,0,0,0,5.121,0v-16.36l2.926,4.876a2.661,2.661,0,0,0,4.391,0l2.926-4.876v16.36a2.56,2.56,0,1,0,5.121,0v-25.6a2.56,2.56,0,0,0-1.878-2.468" transform="translate(-188.266 -90.943)" fill="#12263f"/>
      <path id="Trazado_606393" data-name="Trazado 606393" d="M389.312,107H380.35a2.559,2.559,0,0,0-2.56,2.56v25.6a2.56,2.56,0,1,0,5.121,0V124.923h6.4a8.961,8.961,0,0,0,0-17.923m0,12.8h-6.4v-7.681h6.4a3.841,3.841,0,0,1,0,7.681" transform="translate(-313.404 -88.746)" fill="#12263f"/>
      <path id="Trazado_606394" data-name="Trazado 606394" d="M93.233,120H84.271a2.56,2.56,0,0,0-2.56,2.56v25.6a2.56,2.56,0,0,0,2.56,2.56h8.961a8.948,8.948,0,0,0,6.252-15.363A8.948,8.948,0,0,0,93.233,120m0,25.6h-6.4v-7.681h6.4a3.841,3.841,0,1,1,0,7.681m0-12.8h-6.4v-7.681h6.4a3.841,3.841,0,1,1,0,7.681" transform="translate(-67.864 -99.527)" fill="#12263f"/>
    </g>
  </g>
</svg>
