<svg xmlns="http://www.w3.org/2000/svg" xmlns:xlink="http://www.w3.org/1999/xlink" width="135" height="156" viewBox="0 0 135 156">
  <defs>
    <clipPath id="clip-path">
      <rect id="Rectángulo_300438" data-name="Rectángulo 300438" width="135" height="156" transform="translate(0 0)" fill="#12263f"/>
    </clipPath>
  </defs>
  <g id="Grupo_889628" data-name="Grupo 889628" transform="translate(0.162 0.109)">
    <g id="Grupo_889628-2" data-name="Grupo 889628" transform="translate(-0.162 -0.109)" clip-path="url(#clip-path)">
      <path id="Trazado_606089" data-name="Trazado 606089" d="M243.193,120a2.6,2.6,0,0,0-2.6,2.6v16.606l-10.766-17.944A2.6,2.6,0,0,0,225,122.6v25.989a2.6,2.6,0,0,0,5.2,0V131.982l10.766,17.944a2.6,2.6,0,0,0,4.827-1.338V122.6a2.6,2.6,0,0,0-2.6-2.6" transform="translate(-185.925 -99.147)" fill="#12263f"/>
      <path id="Trazado_606090" data-name="Trazado 606090" d="M218.481,405H208.347a4.294,4.294,0,0,0-4.289,4.289v9.226H195.74v-9.226A4.293,4.293,0,0,0,191.454,405H181.317a4.293,4.293,0,0,0-4.287,4.289v9.226h-8.317v-9.226A4.294,4.294,0,0,0,164.424,405H154.289A4.294,4.294,0,0,0,150,409.289v10.134a4.294,4.294,0,0,0,4.289,4.289h9.226v8.317h-9.226A4.293,4.293,0,0,0,150,436.317v10.137a4.293,4.293,0,0,0,4.289,4.287h9.226v8.317h-9.226A4.294,4.294,0,0,0,150,463.347v10.134a4.294,4.294,0,0,0,4.289,4.289h10.134a4.294,4.294,0,0,0,4.289-4.289v-9.226h8.317v9.226a4.293,4.293,0,0,0,4.287,4.289h10.137a4.293,4.293,0,0,0,4.287-4.289v-9.226h8.317v9.226a4.294,4.294,0,0,0,4.289,4.289h10.134a4.294,4.294,0,0,0,4.289-4.289V463.347a4.294,4.294,0,0,0-4.289-4.289h-9.226V450.74h9.226a4.293,4.293,0,0,0,4.289-4.287V436.317a4.293,4.293,0,0,0-4.289-4.287h-9.226v-8.317h9.226a4.294,4.294,0,0,0,4.289-4.289V409.289A4.294,4.294,0,0,0,218.481,405m-54.966,67.572H155.2v-8.317h8.317Zm0-27.03H155.2v-8.315h8.317Zm0-27.027H155.2V410.2h8.317Zm13.515,40.542h-8.317V450.74h8.317Zm0-13.515h-8.317v-8.315h8.317Zm0-13.512h-8.317v-8.317h8.317Zm13.512,40.542h-8.315v-8.317h8.315Zm0-13.515h-8.315V450.74h8.315Zm0-13.515h-8.315v-8.315h8.315Zm0-13.512h-8.315v-8.317h8.315Zm0-13.515h-8.315V410.2h8.315Zm13.515,40.542H195.74V450.74h8.317Zm0-13.515H195.74v-8.315h8.317Zm0-13.512H195.74v-8.317h8.317Zm13.515,40.542h-8.317v-8.317h8.317Zm0-27.03h-8.317v-8.315h8.317Zm0-27.027h-8.317V410.2h8.317Z" transform="translate(-123.92 -334.767)" fill="#12263f"/>
      <path id="Trazado_606091" data-name="Trazado 606091" d="M86.7,120H77.6a2.6,2.6,0,0,0-2.6,2.6v25.989a2.6,2.6,0,0,0,5.2,0v-10.4h6.5A9.1,9.1,0,1,0,86.7,120m0,12.995H80.2v-7.8h6.5a3.9,3.9,0,1,1,0,7.8" transform="translate(-61.914 -99.147)" fill="#12263f"/>
      <path id="Trazado_606092" data-name="Trazado 606092" d="M393.193,132.995h-5.2a2.6,2.6,0,0,0,0,5.2h2.6v2.6a5.2,5.2,0,1,1-10.4,0V130.4a5.2,5.2,0,0,1,9.073-3.464,2.6,2.6,0,1,0,3.868-3.472A10.4,10.4,0,0,0,375,130.4v10.4a10.4,10.4,0,1,0,20.792,0v-5.2a2.6,2.6,0,0,0-2.6-2.6" transform="translate(-309.936 -99.147)" fill="#12263f"/>
      <path id="Trazado_606093" data-name="Trazado 606093" d="M692.6,600a2.6,2.6,0,1,0,2.6,2.6,2.6,2.6,0,0,0-2.6-2.6" transform="translate(-570.358 -495.981)" fill="#12263f"/>
      <path id="Trazado_606094" data-name="Trazado 606094" d="M132.546,0H12.995a2.6,2.6,0,0,0-2.6,2.6v7.8H2.6a2.6,2.6,0,0,0-2.6,2.6V153.338a2.6,2.6,0,0,0,2.6,2.6H122.15a2.6,2.6,0,0,0,2.6-2.6v-7.8h7.8a2.6,2.6,0,0,0,2.6-2.6V2.6a2.6,2.6,0,0,0-2.6-2.6M5.2,15.594H93.562V33.786a7.805,7.805,0,0,0,7.8,7.8h18.193V57.177H5.2ZM98.76,33.786V19.269l17.116,17.116H101.359a2.6,2.6,0,0,1-2.6-2.6m31.187,106.557h-5.2v-23.39a2.6,2.6,0,0,0-5.2,0v33.786H5.2V62.375H119.551V96.161a2.6,2.6,0,1,0,5.2,0V38.984a2.6,2.6,0,0,0-.761-1.838L98,11.157a2.6,2.6,0,0,0-1.838-.761H15.594V5.2H129.947Z" transform="translate(0.091 0.061)" fill="#12263f"/>
    </g>
  </g>
</svg>
