<svg xmlns="http://www.w3.org/2000/svg" xmlns:xlink="http://www.w3.org/1999/xlink" width="135" height="155" viewBox="0 0 135 155">
  <defs>
    <clipPath id="clip-path">
      <rect id="Rectángulo_300563" data-name="Rectángulo 300563" width="135" height="155" transform="translate(0 0)" fill="#12263f"/>
    </clipPath>
  </defs>
  <g id="Grupo_889908" data-name="Grupo 889908" transform="translate(0.434 -0.471)">
    <g id="Grupo_889908-2" data-name="Grupo 889908" transform="translate(-0.434 0.471)" clip-path="url(#clip-path)">
      <path id="Trazado_606463" data-name="Trazado 606463" d="M186.246,405a36.246,36.246,0,1,0,36.246,36.246A36.286,36.286,0,0,0,186.246,405m0,5.178a31.068,31.068,0,0,1,5.825.567v21.088L166.352,417.41a30.919,30.919,0,0,1,19.893-7.232m5.825,27.591v6.77l-5.836,3.392L180.42,444.6v-6.82l5.833-3.272Zm-36.893,3.477a30.912,30.912,0,0,1,7.363-20.037l18.42,10.329-25.411,14.255a31.011,31.011,0,0,1-.371-4.547m20.065,29.018a31.177,31.177,0,0,1-18.459-19.226l18.459-10.355Zm11,2.05a31.05,31.05,0,0,1-5.825-.567V450.563l25.569,14.652a30.926,30.926,0,0,1-19.744,7.1m31.068-31.068a30.907,30.907,0,0,1-7.505,20.193L191.423,450.9l25.43-14.782a31.014,31.014,0,0,1,.459,5.124m-20.064.283v-29.3a31.173,31.173,0,0,1,18.261,18.686Z" transform="translate(-123.904 -335.436)" fill="#12263f"/>
      <path id="Trazado_606464" data-name="Trazado 606464" d="M95.712,129.061A9.072,9.072,0,0,0,86.65,120H77.589A2.587,2.587,0,0,0,75,122.589v25.89a2.589,2.589,0,1,0,5.178,0v-7.415l11.286,9.405a2.59,2.59,0,1,0,3.317-3.979l-10.039-8.366H86.65a9.072,9.072,0,0,0,9.061-9.061m-15.534,3.883v-7.767H86.65a3.883,3.883,0,1,1,0,7.767Z" transform="translate(-61.849 -99.627)" fill="#12263f"/>
      <path id="Trazado_606465" data-name="Trazado 606465" d="M235.356,120A10.366,10.366,0,0,0,225,130.356v18.123a2.589,2.589,0,1,0,5.178,0v-7.767h10.356v7.767a2.589,2.589,0,1,0,5.178,0V130.356A10.366,10.366,0,0,0,235.356,120m5.178,15.534H230.178v-5.178a5.178,5.178,0,1,1,10.356,0Z" transform="translate(-185.959 -99.627)" fill="#12263f"/>
      <path id="Trazado_606466" data-name="Trazado 606466" d="M393.123,120a2.588,2.588,0,0,0-2.589,2.589v16.543l-2.958-4.93a2.693,2.693,0,0,0-4.44,0l-2.958,4.93V122.589a2.589,2.589,0,1,0-5.178,0v25.89a2.589,2.589,0,0,0,4.809,1.332l5.547-9.246,5.547,9.246a2.589,2.589,0,0,0,4.809-1.332v-25.89A2.588,2.588,0,0,0,393.123,120" transform="translate(-310.07 -99.627)" fill="#12263f"/>
      <path id="Trazado_606467" data-name="Trazado 606467" d="M692.589,600a2.589,2.589,0,1,0,2.589,2.589A2.589,2.589,0,0,0,692.589,600" transform="translate(-570.701 -496.78)" fill="#12263f"/>
      <path id="Trazado_606468" data-name="Trazado 606468" d="M132.037,0H12.945a2.589,2.589,0,0,0-2.589,2.589v7.767H2.589A2.589,2.589,0,0,0,0,12.945v139.8a2.589,2.589,0,0,0,2.589,2.589H121.682a2.589,2.589,0,0,0,2.589-2.589v-7.767h7.767a2.589,2.589,0,0,0,2.589-2.589V2.589A2.589,2.589,0,0,0,132.037,0M5.178,15.534H93.2V33.657a7.775,7.775,0,0,0,7.767,7.767h18.123V56.957H5.178Zm93.2,18.123V19.195l17.051,17.051H100.97a2.592,2.592,0,0,1-2.589-2.589M129.448,139.8h-5.178V116.5a2.589,2.589,0,0,0-5.178,0V150.16H5.178V62.135H119.093V95.792a2.589,2.589,0,0,0,5.178,0V38.835A2.59,2.59,0,0,0,123.512,37l-25.89-25.89a2.59,2.59,0,0,0-1.831-.758H15.534V5.178H129.448Z" transform="translate(0.206 -0.338)" fill="#12263f"/>
    </g>
  </g>
</svg>
