<svg xmlns="http://www.w3.org/2000/svg" xmlns:xlink="http://www.w3.org/1999/xlink" width="98.955" height="99.541" viewBox="0 0 98.955 99.541">
  <defs>
    <radialGradient id="radial-gradient" cx="0.076" cy="0.019" r="1.465" gradientTransform="translate(0.001)" gradientUnits="objectBoundingBox">
      <stop offset="0" stop-color="#f6f6f7"/>
      <stop offset="0.477" stop-color="#f9f9fa"/>
      <stop offset="0.715" stop-color="#fff"/>
    </radialGradient>
    <filter id="Trazado_40937" x="0" y="0.685" width="98.955" height="98.856" filterUnits="userSpaceOnUse">
      <feOffset dy="7" input="SourceAlpha"/>
      <feGaussianBlur stdDeviation="2.5" result="blur"/>
      <feFlood flood-opacity="0.102"/>
      <feComposite operator="in" in2="blur"/>
      <feComposite in="SourceGraphic"/>
    </filter>
    <clipPath id="clip-path">
      <rect id="Rectángulo_300782" data-name="Rectángulo 300782" width="30.068" height="30.055" transform="translate(0 0)" fill="#12263f"/>
    </clipPath>
  </defs>
  <g id="Grupo_890073" data-name="Grupo 890073" transform="translate(6.414)">
    <g id="Grupo_18423" data-name="Grupo 18423" transform="translate(0 0)">
      <g id="Grupo_18421" data-name="Grupo 18421">
        <g id="Grupo_18420" data-name="Grupo 18420">
          <g id="Grupo_18419" data-name="Grupo 18419">
            <path id="Trazado_40936" data-name="Trazado 40936" d="M279.664,2188.24a42.521,42.521,0,1,1-42.52-42.519A42.52,42.52,0,0,1,279.664,2188.24Z" transform="translate(-194.623 -2145.721)" fill="#fff"/>
          </g>
        </g>
      </g>
      <g transform="matrix(1, 0, 0, 1, -6.41, 0)" filter="url(#Trazado_40937)">
        <path id="Trazado_40937-2" data-name="Trazado 40937" d="M279.432,2187.987a42.52,42.52,0,1,0-42.52,42.521A42.352,42.352,0,0,0,279.432,2187.987Z" transform="translate(-187.98 -2145.47)" fill="url(#radial-gradient)"/>
      </g>
      <path id="Trazado_40938" data-name="Trazado 40938" d="M267.371,2186.006a32.456,32.456,0,1,0-32.456,32.456A32.336,32.336,0,0,0,267.371,2186.006Z" transform="translate(-192.266 -2143.346)" fill="none" stroke="#12263f" stroke-miterlimit="10" stroke-width="4"/>
      <g id="Grupo_18422" data-name="Grupo 18422" transform="translate(7.533 23.872)">
        <path id="Trazado_40939" data-name="Trazado 40939" d="M273.754,2164.488a42.526,42.526,0,0,1-73.209,42.344,42.391,42.391,0,0,0,73.209-42.344Z" transform="translate(-200.545 -2164.488)" fill="#eceef0"/>
      </g>
    </g>
    <g id="Grupo_890075" data-name="Grupo 890075" transform="translate(28.703 27.95)">
      <g id="Grupo_890074" data-name="Grupo 890074" transform="translate(0 0)" clip-path="url(#clip-path)">
        <path id="Trazado_606970" data-name="Trazado 606970" d="M.01,28.029c0-2.616-.025-5.232.006-7.847.037-3.136,1.739-4.815,4.892-4.841,2.714-.022,5.429.009,8.143-.011,1.068-.008,1.937.27,1.907,1.5-.028,1.145-.886,1.4-1.876,1.4-2.616-.007-5.231-.014-7.847,0-1.84.013-2.285.457-2.289,2.277q-.016,7.551,0,15.1c0,1.794.494,2.286,2.284,2.29q7.551.016,15.1,0c1.815,0,2.249-.445,2.261-2.3.016-2.566.006-5.132.006-7.7,0-1.01.17-1.99,1.417-2.021,1.35-.034,1.516.972,1.51,2.052-.015,2.714.022,5.429-.014,8.143-.039,2.95-1.76,4.71-4.7,4.731q-7.994.059-15.99,0C1.819,40.8.057,39.025.018,36.024c-.034-2.665-.007-5.33-.008-7.995" transform="translate(0 -10.79)" fill="#12263f"/>
        <path id="Trazado_606971" data-name="Trazado 606971" d="M50.59,2.916c-1.941,0-3.51-.022-5.078.008-1.066.02-1.786-.43-1.77-1.506C43.757.405,44.519,0,45.476,0Q49.769,0,54.062.008A1.481,1.481,0,0,1,55.7,1.674q.013,4.293-.006,8.586c0,.96-.441,1.707-1.454,1.694-1.075-.013-1.5-.755-1.477-1.81.031-1.562.008-3.125.008-4.977-.53.458-.859.709-1.149,1Q45.652,12.13,39.689,18.1c-.383.383-.739.938-1.2,1.061a2.191,2.191,0,0,1-1.8-.188,2.147,2.147,0,0,1-.137-1.8c.168-.508.754-.885,1.172-1.3Q43.642,9.951,49.56,4.04c.272-.271.52-.565,1.03-1.124" transform="translate(-25.639 0)" fill="#12263f"/>
      </g>
    </g>
  </g>
</svg>
