<svg xmlns="http://www.w3.org/2000/svg" xmlns:xlink="http://www.w3.org/1999/xlink" width="98.955" height="99.541" viewBox="0 0 98.955 99.541">
  <defs>
    <radialGradient id="radial-gradient" cx="0.076" cy="0.019" r="1.465" gradientTransform="translate(0.001)" gradientUnits="objectBoundingBox">
      <stop offset="0" stop-color="#f6f6f7"/>
      <stop offset="0.477" stop-color="#f9f9fa"/>
      <stop offset="0.715" stop-color="#fff"/>
    </radialGradient>
    <filter id="Trazado_40937" x="0" y="0.685" width="98.955" height="98.856" filterUnits="userSpaceOnUse">
      <feOffset dy="7" input="SourceAlpha"/>
      <feGaussianBlur stdDeviation="2.5" result="blur"/>
      <feFlood flood-opacity="0.102"/>
      <feComposite operator="in" in2="blur"/>
      <feComposite in="SourceGraphic"/>
    </filter>
    <clipPath id="clip-path">
      <rect id="Rectángulo_57092" data-name="Rectángulo 57092" width="35.498" height="40.943" fill="#12263f"/>
    </clipPath>
  </defs>
  <g id="Grupo_889547" data-name="Grupo 889547" transform="translate(-616.815 -2849.124)">
    <g id="Grupo_180442" data-name="Grupo 180442" transform="translate(623.229 2849.124)">
      <g id="Grupo_18423" data-name="Grupo 18423" transform="translate(0 0)">
        <g id="Grupo_18421" data-name="Grupo 18421">
          <g id="Grupo_18420" data-name="Grupo 18420">
            <g id="Grupo_18419" data-name="Grupo 18419">
              <path id="Trazado_40936" data-name="Trazado 40936" d="M279.664,2188.24a42.521,42.521,0,1,1-42.52-42.519A42.52,42.52,0,0,1,279.664,2188.24Z" transform="translate(-194.623 -2145.721)" fill="#fff"/>
            </g>
          </g>
        </g>
        <g transform="matrix(1, 0, 0, 1, -6.41, 0)" filter="url(#Trazado_40937)">
          <path id="Trazado_40937-2" data-name="Trazado 40937" d="M279.432,2187.987a42.52,42.52,0,1,0-42.52,42.521A42.352,42.352,0,0,0,279.432,2187.987Z" transform="translate(-187.98 -2145.47)" fill="url(#radial-gradient)"/>
        </g>
        <path id="Trazado_40938" data-name="Trazado 40938" d="M267.371,2186.006a32.456,32.456,0,1,0-32.456,32.456A32.336,32.336,0,0,0,267.371,2186.006Z" transform="translate(-192.266 -2143.346)" fill="none" stroke="#12263f" stroke-miterlimit="10" stroke-width="4"/>
        <g id="Grupo_18422" data-name="Grupo 18422" transform="translate(7.533 23.872)">
          <path id="Trazado_40939" data-name="Trazado 40939" d="M273.754,2164.488a42.526,42.526,0,0,1-73.209,42.344,42.391,42.391,0,0,0,73.209-42.344Z" transform="translate(-200.545 -2164.488)" fill="#eceef0"/>
        </g>
      </g>
    </g>
    <g id="Grupo_180443" data-name="Grupo 180443" transform="translate(650.675 2870.801)">
      <g id="Grupo_179471" data-name="Grupo 179471" clip-path="url(#clip-path)">
        <path id="Trazado_228812" data-name="Trazado 228812" d="M0,39.264V4.958A2.195,2.195,0,0,1,2.54,3.272c1.69,0,3.381,0,5.071-.008a.572.572,0,0,0,.42-.185,1.743,1.743,0,0,1,1.584-.827c.449.005.9,0,1.363,0a1.537,1.537,0,0,0,.032-.268A1.782,1.782,0,0,1,12.311,0h4.8a1.889,1.889,0,0,1,1.337,2.254c.54,0,1.018-.006,1.5,0a1.547,1.547,0,0,1,1.387.727.57.57,0,0,0,.58.295q2.658-.014,5.316,0a2.055,2.055,0,0,1,2.215,2.22c.005,1.453,0,2.905,0,4.358,0,.24.008.481-.009.719a.539.539,0,0,1-.53.546.552.552,0,0,1-.634-.477,1.82,1.82,0,0,1-.025-.4c0-1.559,0-3.119,0-4.678,0-.8-.288-1.091-1.077-1.092q-2.578,0-5.156,0c-.116,0-.232.013-.357.021V5.672h3.969c1.041,0,1.422.379,1.422,1.417q0,4.078,0,8.156v.41a.934.934,0,0,0,.3-.316q1.56-2.463,3.121-4.927a2.092,2.092,0,0,1,2.355-1.027,5.708,5.708,0,0,1,1.411.72,2.219,2.219,0,0,1,.769,3.434q-3.866,6.11-7.723,12.225a1.542,1.542,0,0,0-.22.776c-.014,3.558-.008,7.117-.011,10.675,0,.905-.42,1.328-1.313,1.328q-11.011,0-22.023,0a1.155,1.155,0,0,1-1.3-1.3q0-15.133,0-30.266a1.152,1.152,0,0,1,1.3-1.3c1.226,0,2.451,0,3.677,0H7.8v-1.2H2.4c-.93,0-1.2.262-1.2,1.18q0,16.452,0,32.9c0,.916.272,1.187,1.191,1.187H27.052c.928,0,1.188-.258,1.188-1.185q0-6.4,0-12.794a2,2,0,0,1,.046-.514.535.535,0,0,1,.6-.414.54.54,0,0,1,.536.5,2.185,2.185,0,0,1,.013.319q0,6.537,0,13.074a2.06,2.06,0,0,1-2.225,2.214q-12.49,0-24.981,0a2.833,2.833,0,0,1-.556-.042A2.185,2.185,0,0,1,0,39.264M29.118,14.785c-.091.138-.172.258-.25.38L20.8,27.922a3.494,3.494,0,0,1-.243.366.563.563,0,0,1-.78.157.585.585,0,0,1-.209-.8,3.743,3.743,0,0,1,.206-.342q2.936-4.641,5.866-9.286a1.323,1.323,0,0,0,.2-.664c.012-3.345.008-6.689.008-10.034,0-.14,0-.28,0-.416H3.628V37.325H15.441c.158-.662.327-1.3.465-1.952a12.178,12.178,0,0,1,2.032-5.19c.33-.422.618-.58.948-.38.348.211.369.553.063,1.04-.276.44-.556.877-.827,1.32-.092.15-.159.316-.244.487l.882.276L29.918,15.3l-.8-.515m-8.691-9.13c0-.545.005-1.074,0-1.6-.006-.458-.143-.592-.6-.6-.519-.006-1.039.009-1.558-.008a1,1,0,0,1-1.012-1.014c-.011-.239,0-.48-.008-.719a.477.477,0,0,0-.532-.513c-1.331,0-2.663,0-3.994,0a.45.45,0,0,0-.5.489c0,.213,0,.426,0,.639a1.042,1.042,0,0,1-1.124,1.121c-.506.009-1.012,0-1.518,0-.266,0-.511.082-.525.373-.028.605-.008,1.213-.008,1.829ZM25.8,37.333V28.065c-1.113,1.757-2.211,3.407-3.22,5.111a10.739,10.739,0,0,1-3.091,3.445c-.285.2-.542.438-.875.711Zm5.132-21.4L19.77,33.574l.678.709L31.733,16.449l-.8-.513m.014-4.1c.818.52,1.579,1,2.34,1.487.088.056.18.1.317.183.264-.587.958-1.042.589-1.759a2.327,2.327,0,0,0-1.824-1.2c-.842-.1-.975.757-1.422,1.286M19.482,35.087a2.707,2.707,0,0,0-1.974-1.226l-.838,3.488,2.812-2.262m10.275-21.32,2.62,1.66.568-.9-2.622-1.658-.567.9" fill="#12263f"/>
        <path id="Trazado_228813" data-name="Trazado 228813" d="M71.758,348.224c.745,0,1.49,0,2.236,0a1.5,1.5,0,0,1,1.578,1.581q.011,2.256,0,4.513a1.508,1.508,0,0,1-1.55,1.576q-2.275.023-4.551,0a1.52,1.52,0,0,1-1.566-1.57q-.02-2.276,0-4.552a1.51,1.51,0,0,1,1.578-1.549c.758-.006,1.517,0,2.276,0m2.616,3.85c0-.733-.006-1.465,0-2.2,0-.32-.127-.458-.452-.456q-2.177.01-4.354,0c-.348,0-.475.152-.474.483q.008,2.158,0,4.315c0,.334.142.486.48.485q2.157-.007,4.314,0c.362,0,.495-.158.487-.512-.015-.706,0-1.412,0-2.118" transform="translate(-62.454 -320.322)" fill="#12263f"/>
        <path id="Trazado_228814" data-name="Trazado 228814" d="M75.6,111.648c0,.745.005,1.491,0,2.236a1.513,1.513,0,0,1-1.61,1.593q-2.216.006-4.431,0a1.531,1.531,0,0,1-1.629-1.623q-.011-2.216,0-4.433a1.533,1.533,0,0,1,1.639-1.616q2.2-.006,4.391,0a1.524,1.524,0,0,1,1.641,1.646c0,.732,0,1.464,0,2.2M71.761,109c-.706,0-1.412.011-2.117,0-.381-.009-.524.15-.521.523q.014,2.118,0,4.235c0,.369.13.53.516.526q2.137-.019,4.274,0c.364,0,.5-.144.493-.5q-.015-2.138,0-4.275c0-.388-.159-.516-.528-.508-.705.016-1.411,0-2.117,0" transform="translate(-62.481 -99.166)" fill="#12263f"/>
        <path id="Trazado_228815" data-name="Trazado 228815" d="M75.594,231.773c0,.745.006,1.491,0,2.236a1.478,1.478,0,0,1-1.507,1.567q-2.315.04-4.63,0a1.5,1.5,0,0,1-1.532-1.594q-.013-2.236,0-4.472a1.514,1.514,0,0,1,1.576-1.595q2.255-.025,4.511,0a1.507,1.507,0,0,1,1.583,1.62c0,.745,0,1.491,0,2.236m-1.2-.007c0-.732-.006-1.464,0-2.2,0-.3-.109-.456-.414-.456H69.552c-.3,0-.433.148-.433.445q0,2.2,0,4.393a.384.384,0,0,0,.441.437q2.2,0,4.392,0c.319,0,.451-.146.446-.467-.011-.719,0-1.438,0-2.157" transform="translate(-62.475 -209.645)" fill="#12263f"/>
        <path id="Trazado_228816" data-name="Trazado 228816" d="M190.549,132.658c1.184,0,2.368,0,3.552,0,.475,0,.733.216.732.6s-.265.6-.734.6q-3.552,0-7.1,0c-.491,0-.764-.234-.751-.624.012-.375.267-.572.754-.573q1.776,0,3.552,0" transform="translate(-171.32 -122.028)" fill="#12263f"/>
        <path id="Trazado_228817" data-name="Trazado 228817" d="M189.305,253.865c-.784,0-1.569,0-2.353,0-.453,0-.7-.211-.7-.581a.6.6,0,0,1,.682-.613q2.393-.011,4.786,0a.623.623,0,0,1,.693.612c-.006.354-.273.58-.711.582-.8,0-1.6,0-2.393,0" transform="translate(-171.326 -232.419)" fill="#12263f"/>
        <path id="Trazado_228818" data-name="Trazado 228818" d="M188.665,164.971c-.586,0-1.172.005-1.758,0-.416-.005-.658-.227-.662-.584a.592.592,0,0,1,.647-.608q1.8-.015,3.6,0a.6.6,0,1,1-.025,1.192c-.6.007-1.2,0-1.8,0" transform="translate(-171.322 -150.648)" fill="#12263f"/>
        <path id="Trazado_228819" data-name="Trazado 228819" d="M188.684,284.1c.573,0,1.145,0,1.718,0,.463,0,.742.239.736.6s-.276.59-.711.593q-1.738.011-3.475,0c-.448,0-.7-.226-.707-.589-.007-.381.247-.6.723-.606.572-.007,1.145,0,1.718,0" transform="translate(-171.321 -261.331)" fill="#12263f"/>
        <path id="Trazado_228820" data-name="Trazado 228820" d="M94.065,377.224c.386-.525.737-1.009,1.1-1.487.287-.384.609-.466.916-.243s.326.568.053.945c-.444.614-.889,1.228-1.348,1.83a.84.84,0,0,1-1.461-.016c-.209-.275-.416-.553-.609-.839a.606.606,0,0,1,.093-.856.593.593,0,0,1,.873.152c.125.153.239.315.388.513" transform="translate(-85.161 -345.296)" fill="#12263f"/>
        <path id="Trazado_228821" data-name="Trazado 228821" d="M94.082,136.924c.377-.51.728-.989,1.083-1.466.3-.4.635-.49.942-.255s.312.563.033.947c-.437.6-.875,1.2-1.322,1.8a.845.845,0,0,1-1.483,0c-.2-.264-.4-.533-.585-.806a.6.6,0,1,1,.952-.721c.124.153.237.314.38.5" transform="translate(-85.179 -124.253)" fill="#12263f"/>
        <path id="Trazado_228822" data-name="Trazado 228822" d="M94.061,259.72c.375-.507.726-.987,1.081-1.464.3-.4.637-.487.943-.251s.309.563.03.948c-.437.6-.874,1.2-1.322,1.8a.846.846,0,0,1-1.484-.006c-.208-.275-.416-.552-.608-.838a.6.6,0,1,1,.953-.717c.135.161.256.333.407.53" transform="translate(-85.156 -237.214)" fill="#12263f"/>
      </g>
    </g>
  </g>
</svg>
