<svg xmlns="http://www.w3.org/2000/svg" xmlns:xlink="http://www.w3.org/1999/xlink" width="91" height="91" viewBox="0 0 91 91">
  <defs>
    <clipPath id="clip-path">
      <rect id="Rect치ngulo_296552" data-name="Rect치ngulo 296552" width="85.472" height="70.874" fill="#12263f"/>
    </clipPath>
  </defs>
  <g id="Grupo_889557" data-name="Grupo 889557" transform="translate(5821 5658)">
    <g id="Grupo_889548" data-name="Grupo 889548" transform="translate(-5818.062 -5647.855)">
      <g id="Grupo_882895" data-name="Grupo 882895" clip-path="url(#clip-path)">
        <path id="Trazado_600240" data-name="Trazado 600240" d="M45.927,60.6c-.108,1.937.857,2.965,2.659,2.983,1,.01,2.005-.037,3,.053a4.422,4.422,0,0,1,4.017,4,16.752,16.752,0,0,1,.024,2.174,1.013,1.013,0,0,1-1.038,1.057c-.2.016-.4.005-.6.005H26.9c-1.191,0-1.514-.328-1.5-1.515,0-.425,0-.85.01-1.275a4.492,4.492,0,0,1,4.416-4.489c1.274-.039,2.552.023,3.826-.031a2.348,2.348,0,0,0,2.242-2.96H4.795C1.638,60.6,0,58.93,0,55.781Q.012,30.2.006,4.61C.006,1.689,1.688,0,4.613,0Q42.729,0,80.844,0c2.935,0,4.621,1.682,4.621,4.6q0,25.7.006,51.4c0,2.894-1.718,4.608-4.63,4.608q-16.995,0-33.989,0h-.926m7.493,8.109a2.4,2.4,0,0,0-2.476-2.976c-.925-.011-1.851.018-2.776-.008a4.487,4.487,0,0,1-4.311-3.61,10.913,10.913,0,0,1-.094-1.943c-.011-1.5.238-1.739,1.727-1.739H80.756c1.877,0,2.543-.653,2.544-2.512q0-25.624,0-51.247c0-1.835-.7-2.542-2.533-2.542q-38.041,0-76.083,0c-1.793,0-2.516.714-2.516,2.484q0,25.661,0,51.322c0,1.818.679,2.494,2.486,2.495H36.322c.225,0,.451-.009.675.006a1.062,1.062,0,0,1,1.112,1.145c.02.5.016,1,.007,1.5A4.513,4.513,0,0,1,33.4,65.732c-1.2,0-2.4-.032-3.6.018a2.3,2.3,0,0,0-2.125,2.959Z" transform="translate(0 0)" fill="#12263f"/>
        <path id="Trazado_600241" data-name="Trazado 600241" d="M68.157,34.926h36.462c1.494,0,1.719.229,1.719,1.745q0,23.333,0,46.665c0,1.454-.252,1.709-1.691,1.709H31.5c-1.409,0-1.682-.266-1.682-1.643q0-23.445,0-46.89c0-1.3.279-1.585,1.578-1.585H68.157M99.1,64.06c0,.367,0,.662,0,.958,0,1.726.02,3.452-.008,5.177a5.416,5.416,0,0,1-4.938,5.394c-1.085.1-1.55-.3-1.551-1.39q-.006-14.219,0-28.439c0-1.069.414-1.444,1.477-1.387a5.4,5.4,0,0,1,5.018,5.384c.023,1.575,0,3.152.006,4.727,0,.264.029.527.044.794h5V37.094H32.029V55.886h5.58v-.868c0-1.8-.021-3.6.006-5.4a5.363,5.363,0,0,1,4.847-5.228c1.223-.112,1.613.23,1.614,1.442q0,14.182,0,28.364c0,1.1-.434,1.487-1.528,1.386a5.376,5.376,0,0,1-4.932-5.308c-.027-1.6-.005-3.2-.006-4.8v-.789H32.025V82.835h72.112V64.06ZM41.88,73.188V46.776a3.1,3.1,0,0,0-2.136,3.154c-.01,3.326,0,6.651-.005,9.977,0,3.351-.006,6.7,0,10.052a3.173,3.173,0,0,0,2.14,3.229M94.8,73.2a1.928,1.928,0,0,0,.311-.1,3.15,3.15,0,0,0,1.814-2.961q0-10.163,0-20.325A4.3,4.3,0,0,0,96.9,49.3a3,3,0,0,0-2.1-2.5ZM32.55,62.4h4.99V58.1H32.55Zm71.586-4.885h-5V61.82h5Z" transform="translate(-25.341 -29.684)" fill="#12263f"/>
        <path id="Trazado_600242" data-name="Trazado 600242" d="M172.091,159.417a28.043,28.043,0,0,1-19.73-8.024c-1.2-1.152-1.185-2.246,0-3.427a28.307,28.307,0,0,1,39.52.094,2.064,2.064,0,0,1-.022,3.274,28.012,28.012,0,0,1-19.771,8.084m.119-2.6a7.337,7.337,0,1,0-7.478-7.209,7.392,7.392,0,0,0,7.478,7.209m-6.7-.382c-3.7-4.331-3.9-8.708-.575-13.319a26.1,26.1,0,0,0-11.247,6.572,25.853,25.853,0,0,0,11.822,6.747m13.051.023a26,26,0,0,0,11.858-6.723c-2.047-2.56-8.482-6.3-11.154-6.5a9.708,9.708,0,0,1-.7,13.224" transform="translate(-128.733 -118.966)" fill="#12263f"/>
        <path id="Trazado_600243" data-name="Trazado 600243" d="M232.392,103.4c.2,0,.4-.015.6,0a1.07,1.07,0,0,1,.032,2.137,6.368,6.368,0,0,1-1.27.006,1.074,1.074,0,0,1,.041-2.147c.2-.016.4,0,.6,0v0" transform="translate(-196.084 -87.871)" fill="#12263f"/>
        <path id="Trazado_600244" data-name="Trazado 600244" d="M416.019,103.4a5.346,5.346,0,0,1,.6,0,1.071,1.071,0,0,1,.01,2.141,6.783,6.783,0,0,1-1.2.01,1.072,1.072,0,0,1-1.115-1.073,1.09,1.09,0,0,1,1.179-1.084c.175-.008.35,0,.524,0Z" transform="translate(-352.133 -87.871)" fill="#12263f"/>
        <path id="Trazado_600245" data-name="Trazado 600245" d="M278.3,103.4c.175,0,.35-.008.524,0a1.077,1.077,0,1,1,.043,2.154,8.242,8.242,0,0,1-1.048,0c-.745-.034-1.186-.434-1.2-1.066-.012-.678.421-1.065,1.229-1.094.15-.005.3,0,.449,0" transform="translate(-235.106 -87.878)" fill="#12263f"/>
        <path id="Trazado_600246" data-name="Trazado 600246" d="M370.2,103.4a5.267,5.267,0,0,1,.6,0,1.025,1.025,0,0,1,1.016,1.081.989.989,0,0,1-.962,1.049,7.093,7.093,0,0,1-1.344,0,.991.991,0,0,1-1.013-1.073,1.008,1.008,0,0,1,1.032-1.059c.222-.022.448,0,.673,0" transform="translate(-313.19 -87.873)" fill="#12263f"/>
        <path id="Trazado_600247" data-name="Trazado 600247" d="M140.541,103.332a5.29,5.29,0,0,1,.745.041.984.984,0,0,1,.873.975.948.948,0,0,1-.805,1.092,6.377,6.377,0,0,1-1.488.049,1.018,1.018,0,0,1-1.029-1.068,1.069,1.069,0,0,1,1.106-1.076c.2-.014.4,0,.6,0v-.011" transform="translate(-117.999 -87.823)" fill="#12263f"/>
        <path id="Trazado_600248" data-name="Trazado 600248" d="M186.386,103.345a4.349,4.349,0,0,1,.672.006,1.03,1.03,0,0,1,.993,1.1.994.994,0,0,1-.978,1.031,6.643,6.643,0,0,1-1.12.022c-.776-.028-1.246-.463-1.228-1.113.017-.622.46-1.008,1.212-1.049.149-.008.3,0,.449,0v0" transform="translate(-157 -87.825)" fill="#12263f"/>
        <path id="Trazado_600249" data-name="Trazado 600249" d="M324.216,103.369c.15,0,.3-.007.449,0,.75.041,1.2.428,1.214,1.049.018.652-.449,1.082-1.227,1.114a8.279,8.279,0,0,1-.973,0c-.745-.057-1.158-.478-1.132-1.124a1.065,1.065,0,0,1,1.145-1.035c.174-.011.349,0,.524,0" transform="translate(-274.137 -87.852)" fill="#12263f"/>
        <path id="Trazado_600250" data-name="Trazado 600250" d="M324.231,291.684c1.144,0,1.638.313,1.649,1.046.012.766-.5,1.1-1.689,1.1-.174,0-.35,0-.523-.007a1.057,1.057,0,0,1-1.118-1.056,1.029,1.029,0,0,1,1.083-1.079c.2-.014.4,0,.6,0" transform="translate(-274.14 -247.903)" fill="#12263f"/>
        <path id="Trazado_600251" data-name="Trazado 600251" d="M140.462,293.795a3.874,3.874,0,0,1-.672-.006,1.017,1.017,0,0,1-.944-1.072.967.967,0,0,1,.963-1.036,9.953,9.953,0,0,1,1.345-.009.967.967,0,0,1,1.011,1.061,1,1,0,0,1-1.03,1.059c-.223.019-.449,0-.673,0" transform="translate(-118.007 -247.881)" fill="#12263f"/>
        <path id="Trazado_600252" data-name="Trazado 600252" d="M186.53,291.725a5.089,5.089,0,0,1,.671,0,1.057,1.057,0,0,1,.016,2.093,6.413,6.413,0,0,1-1.416.009,1.058,1.058,0,0,1,.057-2.113c.223-.013.448,0,.673,0v.009" transform="translate(-157.069 -247.93)" fill="#12263f"/>
        <path id="Trazado_600253" data-name="Trazado 600253" d="M370.105,293.777a4.015,4.015,0,0,1-.746-.008.99.99,0,0,1-.872-1.052.959.959,0,0,1,.954-1.041,9.991,9.991,0,0,1,1.346-.007.98.98,0,0,1,1.021,1.058,1.017,1.017,0,0,1-1.03,1.065,6.412,6.412,0,0,1-.673,0v-.019" transform="translate(-313.183 -247.878)" fill="#12263f"/>
        <path id="Trazado_600254" data-name="Trazado 600254" d="M416.038,293.794a4.7,4.7,0,0,1-.816-.062.981.981,0,0,1-.814-1.094.959.959,0,0,1,.937-.981,9.419,9.419,0,0,1,1.27-.021,1.047,1.047,0,0,1,1.117,1.054,1.082,1.082,0,0,1-1.1,1.084c-.2.015-.4,0-.6,0v.018" transform="translate(-352.21 -247.855)" fill="#12263f"/>
        <path id="Trazado_600255" data-name="Trazado 600255" d="M232.369,293.777a4.267,4.267,0,0,1-.672-.006,1.014,1.014,0,0,1-.972-1.115.974.974,0,0,1,1-1,9.46,9.46,0,0,1,1.2-.008,1.029,1.029,0,0,1,1.125,1.036,1.041,1.041,0,0,1-1.077,1.1c-.2.018-.4,0-.6,0v0" transform="translate(-196.096 -247.862)" fill="#12263f"/>
        <path id="Trazado_600256" data-name="Trazado 600256" d="M278.328,293.811c-1.2,0-1.692-.317-1.686-1.087s.471-1.058,1.71-1.056c.2,0,.4-.008.6.011a.99.99,0,0,1,1.009,1.07,1.016,1.016,0,0,1-1.033,1.059,5.088,5.088,0,0,1-.6,0" transform="translate(-235.122 -247.891)" fill="#12263f"/>
        <path id="Trazado_600257" data-name="Trazado 600257" d="M256.618,175.874a4.832,4.832,0,1,1,4.827,4.884,4.8,4.8,0,0,1-4.827-4.884m4.81,2.732a2.7,2.7,0,0,0,2.718-2.632,2.7,2.7,0,1,0-2.718,2.632" transform="translate(-218.103 -145.404)" fill="#12263f"/>
      </g>
    </g>
    <rect id="Rect치ngulo_300209" data-name="Rect치ngulo 300209" width="91" height="91" transform="translate(-5821 -5658)" fill="none"/>
  </g>
</svg>
