<svg xmlns="http://www.w3.org/2000/svg" xmlns:xlink="http://www.w3.org/1999/xlink" width="91" height="91" viewBox="0 0 91 91">
  <defs>
    <clipPath id="clip-path">
      <rect id="Rect치ngulo_296551" data-name="Rect치ngulo 296551" width="83.991" height="62.317" fill="#12263f"/>
    </clipPath>
  </defs>
  <g id="Grupo_889556" data-name="Grupo 889556" transform="translate(5980 5658)">
    <g id="Grupo_889549" data-name="Grupo 889549" transform="translate(-5976.594 -5643.667)">
      <g id="Grupo_882893" data-name="Grupo 882893" clip-path="url(#clip-path)">
        <path id="Trazado_600237" data-name="Trazado 600237" d="M83.991,1.165v14.1a2.032,2.032,0,0,1-2.067,1.157c-.625-.048-1.256-.009-1.885-.009H77.475v29.51c1.458,0,2.875.049,4.286-.016a2.168,2.168,0,0,1,2.23,1.164V62.316H68.738a2.026,2.026,0,0,1-1.157-2.066c.048-.624.009-1.256.009-1.884V55.8H16.419c0,1.457-.048,2.873.016,4.284a2.171,2.171,0,0,1-1.164,2.23H1.167A2.221,2.221,0,0,1,0,60.087C.044,56.1.018,52.111.019,48.122c0-1.688.513-2.2,2.2-2.2,1.437,0,2.874,0,4.294,0V16.412c-1.538,0-3.012,0-4.487,0C.62,16.406.022,15.819.02,14.427Q.013,8.24.02,2.052C.021.59.592.02,2.059.019q6.149,0,12.3,0c1.5,0,2.059.568,2.062,2.1,0,1.466,0,2.932,0,4.408H67.59c0-1.524,0-3,0-4.466S68.161.02,69.628.019c4.045,0,8.09.024,12.134-.019a2.225,2.225,0,0,1,2.23,1.166M16.419,52.423H67.59c0-1.419,0-2.781,0-4.144,0-1.907.454-2.357,2.373-2.357h4.123V16.411c-1.621,0-3.178.015-4.734-.005a1.636,1.636,0,0,1-1.758-1.735c-.017-.546,0-1.093,0-1.639,0-1.052,0-2.1,0-3.136H16.419c0,1.509,0,2.976,0,4.444,0,1.5-.573,2.068-2.087,2.071-1.467,0-2.934,0-4.422,0v29.51c1.548,0,3.046-.005,4.544,0,1.354.006,1.957.6,1.963,1.945.008,1.5,0,3,0,4.554M13.082,3.361H3.342V13.1h9.74Zm67.571,0H70.915V13.1h9.738ZM13.077,49.242H3.347v9.764h9.73Zm67.588.012H70.931V59h9.734Z" transform="translate(0 0.001)" fill="#12263f"/>
        <path id="Trazado_600238" data-name="Trazado 600238" d="M118.088,132.7c-.692-1.619-1.309-3.1-1.972-4.565a.813.813,0,0,0-.623-.346q-4.756-.033-9.512,0a.813.813,0,0,0-.623.346c-.663,1.462-1.281,2.945-1.95,4.51.338.022.6.03.85.055a1.615,1.615,0,0,1,1.547,1.606,1.545,1.545,0,0,1-1.5,1.636q-3.4.07-6.805,0a1.558,1.558,0,0,1-1.514-1.625,1.619,1.619,0,0,1,1.536-1.616,1.667,1.667,0,0,1,.491-.007c1.431.292,2.035-.394,2.573-1.694,2.735-6.6,5.609-13.149,8.393-19.732a2.2,2.2,0,0,1,2.375-1.55c1.829.072,3.663.051,5.493.006a2.021,2.021,0,0,1,2.135,1.4c2.923,6.879,5.882,13.743,8.822,20.615.241.563.434,1.013,1.231,1.012a1.477,1.477,0,0,1,1.372,1.566,1.609,1.609,0,0,1-1.431,1.627,4.6,4.6,0,0,1-.655.023q-5.289,0-10.578,0c-.164,0-.329.006-.492-.009a1.631,1.631,0,0,1-.034-3.259c.242-.023.487,0,.873,0m6.52-.009c-.131-.35-.214-.6-.319-.849q-1.111-2.6-2.229-5.187-2.79-6.5-5.59-13.005c-.109-.251-.388-.581-.612-.6-.83-.072-1.671-.029-2.593-.029.131.35.215.6.32.85q1.111,2.595,2.229,5.187,2.79,6.5,5.59,13c.109.251.387.582.611.6.831.072,1.671.029,2.594.029m-13.873-17.148-3.811,8.9h7.63l-3.818-8.9" transform="translate(-80.212 -91.69)" fill="#12263f"/>
        <path id="Trazado_600239" data-name="Trazado 600239" d="M332.017,176.068a1.718,1.718,0,0,1-1.241,1.7,1.594,1.594,0,0,1-1.849-.867c-.533-1.1-1.026-2.229-1.493-3.363a.876.876,0,0,0-.96-.648q-2.662.055-5.326,0a.829.829,0,0,0-.906.609c-.439,1.057-.909,2.1-1.389,3.142a1.651,1.651,0,1,1-3-1.319q3.216-7.207,6.452-14.406a1.658,1.658,0,0,1,3.132-.01q3.189,7.219,6.37,14.442a4.8,4.8,0,0,1,.213.722m-8.158-10.6-1.84,4.114h3.647l-1.807-4.114" transform="translate(-263.775 -133.536)" fill="#12263f"/>
      </g>
    </g>
    <rect id="Rect치ngulo_300208" data-name="Rect치ngulo 300208" width="91" height="91" transform="translate(-5980 -5658)" fill="none"/>
  </g>
</svg>
