<svg xmlns="http://www.w3.org/2000/svg" xmlns:xlink="http://www.w3.org/1999/xlink" width="91" height="91" viewBox="0 0 91 91">
  <defs>
    <clipPath id="clip-path">
      <rect id="Rectángulo_52680" data-name="Rectángulo 52680" width="80.155" height="80.162" fill="none"/>
    </clipPath>
  </defs>
  <g id="Grupo_889554" data-name="Grupo 889554" transform="translate(6303 5658)">
    <g id="Grupo_889551" data-name="Grupo 889551" transform="translate(-6298.046 -5653.047)">
      <g id="Grupo_171311" data-name="Grupo 171311" clip-path="url(#clip-path)">
        <path id="Trazado_212439" data-name="Trazado 212439" d="M116.683,0A7.367,7.367,0,0,1,121,2.468,7.3,7.3,0,0,1,122.529,7.2q0,22.705,0,45.411,0,10.268,0,20.535a6.676,6.676,0,0,1-4.927,6.73,7.737,7.737,0,0,1-1.976.261q-20.326.022-40.653.01c-.137,0-.274-.013-.471-.023V77.48h.971q19.951,0,39.9,0c2.336,0,3.953-1.168,4.38-3.182a6.429,6.429,0,0,0,.1-1.327q.007-32.89,0-65.779c0-2.951-1.583-4.519-4.556-4.519q-22.163,0-44.326,0c-2.976,0-4.55,1.564-4.551,4.521q0,13.9,0,27.8v1.03H63.749v-.94c0-9.238.048-18.476-.023-27.714C63.7,3.692,65.864.664,69.447.076A.53.53,0,0,0,69.593,0Z" transform="translate(-53.062)"/>
        <path id="Trazado_212440" data-name="Trazado 212440" d="M0,243.369a34.081,34.081,0,0,1,1.5-4.549,13.333,13.333,0,0,1,25.181,7,13.127,13.127,0,0,1-4.52,9.1c-.145.13-.294.255-.435.388a.712.712,0,0,0-.093.162,4,4,0,0,1,.214,5.24,14.2,14.2,0,0,1,.82,2.623,3.948,3.948,0,0,1-2.467,3.978,2.282,2.282,0,0,0-.965.9c-.672,1.213-1.28,2.464-1.881,3.715a1.613,1.613,0,0,1-1.648,1.009c-1.585-.033-3.171-.03-4.756,0a1.571,1.571,0,0,1-1.58-.983Q8.421,270,7.425,268.08a1.521,1.521,0,0,0-.569-.658c-3-1.5-3.63-3.637-1.894-6.516-1.308-2.3-1.283-3.451.1-5.414-.792-.858-1.641-1.664-2.355-2.575a12.582,12.582,0,0,1-2.554-6.075A2.676,2.676,0,0,0,0,246.375v-3.006m17.634,10.72.2.277a10.15,10.15,0,0,0,1.637-.745,10.708,10.708,0,0,0,3.867-12.567,10.7,10.7,0,0,0-20.452,1.68,10.575,10.575,0,0,0,4.861,11.184,5.9,5.9,0,0,0,1.372.41c-.365-2.213-.683-4.186-1.017-6.157-.223-1.32.283-1.955,1.628-1.96q3.629-.015,7.258,0c1.343.006,1.85.642,1.626,1.963-.334,1.97-.654,3.943-.979,5.915m-4.323,5.477c1.7,0,3.393.007,5.089,0,1.04-.006,1.64-.524,1.626-1.373-.013-.8-.613-1.291-1.616-1.293q-5.048-.011-10.095,0c-1.006,0-1.609.493-1.626,1.283-.018.849.585,1.377,1.616,1.383,1.668.01,3.337,0,5.006,0m.048,5.344c1.669,0,3.337.005,5.006,0,1.061,0,1.652-.491,1.661-1.339.009-.825-.605-1.327-1.665-1.328q-5.006-.009-10.012,0c-1.058,0-1.675.509-1.66,1.332.015.85.6,1.331,1.664,1.335,1.668.007,3.337,0,5.006,0m-2.423-15.989.877,5.254H14.9l.869-5.254Zm-.679,18.687c1.023,2.645,1.023,2.645,3.646,2.645a5.768,5.768,0,0,0,.915-.014.786.786,0,0,0,.52-.293c.407-.744.768-1.514,1.176-2.338Z" transform="translate(0 -192.773)"/>
        <path id="Trazado_212441" data-name="Trazado 212441" d="M105.18,93.383c-.013-.25-.027-.411-.028-.572,0-.664,0-1.327,0-2.08h36.022V34.673H98.5V62.607H95.8v-.926q0-13.9,0-27.8c0-1.582.372-1.95,1.973-1.95h44.16c1.587,0,1.958.372,1.958,1.968q0,28.758,0,57.516c0,1.583-.383,1.965-1.967,1.965H105.18Z" transform="translate(-79.77 -26.589)"/>
        <path id="Trazado_212442" data-name="Trazado 212442" d="M153.959,162.117c-1.593.569-2.328.053-2.329-1.582,0-2.392.019-4.785-.012-7.177a1.58,1.58,0,0,1,1.056-1.693,6.357,6.357,0,0,0,2.889-2.451,13.218,13.218,0,0,1,19.905-1.881,23.873,23.873,0,0,1,2.687,3.582,7.116,7.116,0,0,1,.516,1.019c1.7-.512,2.345-.034,2.346,1.671,0,2.365-.019,4.729.01,7.094a1.648,1.648,0,0,1-1.131,1.739,5.908,5.908,0,0,0-2.669,2.219,12.713,12.713,0,0,1-11.756,5.68,13.006,13.006,0,0,1-11.293-7.8c-.06-.124-.127-.245-.22-.423m24.387-6.907c-.391.164-.689.295-.992.413-.335.132-.669.276-1.014.375a12.31,12.31,0,0,1-10.979-1.984c-3.426-2.412-6.988-2.346-10.591-.385-.19.1-.441.331-.445.506-.035,1.54-.02,3.08-.02,4.5a42.3,42.3,0,0,1,4.668-1.038c3.225-.356,5.995.874,8.642,2.64,3.376,2.252,6.894,2.14,10.373.131a.8.8,0,0,0,.343-.569c.028-1.494.016-2.99.016-4.59m-21.995,5.668a10.732,10.732,0,0,0,9.425,6.806c2.725.258,6.34-.935,7.942-3.1-.859-.041-1.718-.03-2.563-.133a14.886,14.886,0,0,1-6.341-2.763,9.034,9.034,0,0,0-8.463-.813m2.506-11.462c.1.058.15.106.192.1a13.092,13.092,0,0,1,8.752,2.852,9.069,9.069,0,0,0,8.412.811c-2.4-7.034-12.213-9.157-17.356-3.767" transform="translate(-126.247 -119.626)"/>
        <path id="Trazado_212443" data-name="Trazado 212443" d="M439.116,91.883c0,7.848.008,15.7-.017,23.543a4.123,4.123,0,0,1-.393,1.666c-.713,1.537-1.508,3.035-2.256,4.555-.288.585-.649,1.046-1.368,1.035a1.457,1.457,0,0,1-1.3-1.005c-.787-1.595-1.6-3.176-2.367-4.781a3.066,3.066,0,0,1-.3-1.272q-.022-23.71-.01-47.42a4.058,4.058,0,0,1,2.716-4.074,3.991,3.991,0,0,1,4.529,1.45,4.527,4.527,0,0,1,.771,2.843q-.01,11.73,0,23.459m-5.343-17.251v1.084c0,12.875.024,25.75-.032,38.624-.007,1.508.739,2.594,1.349,3.975a8.607,8.607,0,0,0,1.387-4.064c-.056-12.874-.032-25.749-.032-38.624v-1Zm.013-2.747h2.659c0-1.2,0-2.356,0-3.513a4.393,4.393,0,0,0-.018-.581,1.3,1.3,0,0,0-1.359-1.19,1.215,1.215,0,0,0-1.264,1.19c-.059,1.348-.017,2.7-.017,4.094" transform="translate(-358.964 -53.227)"/>
        <path id="Trazado_212444" data-name="Trazado 212444" d="M215.568,411.163a4,4,0,1,1,3.971,4.016,4.053,4.053,0,0,1-3.971-4.016m5.331.053a1.327,1.327,0,1,0-1.368,1.285,1.39,1.39,0,0,0,1.368-1.285" transform="translate(-179.496 -339.038)"/>
        <path id="Trazado_212445" data-name="Trazado 212445" d="M130.436,121.08h-2.7v-6.511c0-2.762.04-2.8,2.782-2.8h6.524V114.4h-6.6Z" transform="translate(-106.36 -93.065)"/>
        <path id="Trazado_212446" data-name="Trazado 212446" d="M305.007,121.051h-2.64v-6.6h-6.644v-2.71h4.563c1.111,0,2.223-.017,3.333.01a1.26,1.26,0,0,1,1.375,1.263c.031,2.66.012,5.321.012,8.036" transform="translate(-246.239 -93.039)"/>
        <path id="Trazado_212447" data-name="Trazado 212447" d="M302.408,286.355v-6.661h2.611c.015.213.046.45.046.686q.005,3.416,0,6.832c0,1.343-.45,1.784-1.8,1.786-2.47,0-4.941,0-7.478,0v-2.643Z" transform="translate(-246.288 -232.892)"/>
        <rect id="Rectángulo_52673" data-name="Rectángulo 52673" width="5.239" height="2.57" transform="translate(33.434 18.746)"/>
        <rect id="Rectángulo_52674" data-name="Rectángulo 52674" width="5.267" height="2.554" transform="translate(41.443 18.754)"/>
        <rect id="Rectángulo_52675" data-name="Rectángulo 52675" width="2.573" height="5.239" transform="translate(21.431 30.764)"/>
        <rect id="Rectángulo_52676" data-name="Rectángulo 52676" width="2.57" height="5.241" transform="translate(56.171 30.783)"/>
        <rect id="Rectángulo_52677" data-name="Rectángulo 52677" width="2.57" height="5.239" transform="translate(56.165 38.778)"/>
        <rect id="Rectángulo_52678" data-name="Rectángulo 52678" width="5.239" height="2.573" transform="translate(33.436 53.477)"/>
        <rect id="Rectángulo_52679" data-name="Rectángulo 52679" width="5.232" height="2.599" transform="translate(41.46 53.474)"/>
      </g>
    </g>
    <rect id="Rectángulo_300206" data-name="Rectángulo 300206" width="91" height="91" transform="translate(-6303 -5658)" fill="none"/>
  </g>
</svg>
