<svg xmlns="http://www.w3.org/2000/svg" xmlns:xlink="http://www.w3.org/1999/xlink" width="91" height="91" viewBox="0 0 91 91">
  <defs>
    <clipPath id="clip-path">
      <rect id="Rect치ngulo_296549" data-name="Rect치ngulo 296549" width="78.929" height="78.994" fill="#12263f"/>
    </clipPath>
  </defs>
  <g id="Grupo_889553" data-name="Grupo 889553" transform="translate(6422 5658)">
    <g id="Grupo_889552" data-name="Grupo 889552" transform="translate(-6416.222 -5652.226)">
      <g id="Grupo_882891" data-name="Grupo 882891" clip-path="url(#clip-path)">
        <path id="Trazado_600229" data-name="Trazado 600229" d="M0,16.816a2.815,2.815,0,0,1,2.171-2.155A2.985,2.985,0,0,0,4.2,12.748a3.568,3.568,0,0,0-.1-3.577,2.265,2.265,0,0,1,.422-2.835C5.168,5.67,5.819,5.012,6.5,4.392a2.006,2.006,0,0,1,2.431-.375,3.956,3.956,0,0,0,4.221,0c.633-.339,1.11-.635,1.3-1.331.088-.32.248-.619.361-.932A2.335,2.335,0,0,1,17.064.06a29.165,29.165,0,0,1,3,.041,1.928,1.928,0,0,1,1.844,1.416A3.928,3.928,0,0,0,24.8,4.5a1.469,1.469,0,0,0,1.563-.192C39.277-5.3,58.335,2.016,61.4,17.788a21.915,21.915,0,0,1-6.336,20.668,15.358,15.358,0,0,0-4.519,7.44c.785.332,1.573.684,2.376,1a7.009,7.009,0,0,0,3.456-1.574c.236-.569.452-1.146.7-1.71a2.072,2.072,0,0,1,1.805-1.374,28.8,28.8,0,0,1,3.3-.011A1.953,1.953,0,0,1,64.071,43.7a3.866,3.866,0,0,0,2.858,2.908A2.34,2.34,0,0,0,69,46.577a7.865,7.865,0,0,1,1.06-.457,2.193,2.193,0,0,1,2.383.368,29.13,29.13,0,0,1,2.179,2.176,2.022,2.022,0,0,1,.341,2.44,3.848,3.848,0,0,0-.033,4.077c.374.711.7,1.236,1.481,1.45a8.3,8.3,0,0,1,1.072.427,2.075,2.075,0,0,1,1.39,1.794,28.144,28.144,0,0,1,.011,3.38,1.894,1.894,0,0,1-1.437,1.823A3.885,3.885,0,0,0,74.5,66.979a2.1,2.1,0,0,0,0,1.928,7.349,7.349,0,0,1,.485,1.131,2.24,2.24,0,0,1-.383,2.451,29.056,29.056,0,0,1-2.123,2.123,2.021,2.021,0,0,1-2.437.364,3.918,3.918,0,0,0-4.151-.024,2.331,2.331,0,0,0-1.4,1.435,3.2,3.2,0,0,1-2.321,2.607h-3.24a2.959,2.959,0,0,1-2.207-2.323,2.716,2.716,0,0,0-1.644-1.787,3.847,3.847,0,0,0-3.935.067,2.119,2.119,0,0,1-2.57-.392q-1.044-.968-2.013-2.015a2.29,2.29,0,0,1-.414-2.58,1.969,1.969,0,0,1,.152-.353,2.652,2.652,0,0,0-.2-3.481c-1.121,1.076-2.589,1.03-4.064,1.011-2.056-.026-4.112,0-6.168-.008a3.94,3.94,0,0,1-4.1-5.106,1.327,1.327,0,0,0,.012-.218c-2.608-1.619-3.126-2.656-2.614-5.292-.134-.073-.28-.161-.433-.234a3.826,3.826,0,0,1-2.383-3.411,3.724,3.724,0,0,1,2.072-3.67.743.743,0,0,0,.457-.838,14.611,14.611,0,0,0-3.712-8.617c-1.143-1.283-2.354-2.505-3.534-3.755-1.639,1.3-3.54.951-5.4.625A1.906,1.906,0,0,1,14.83,35.1a3.46,3.46,0,0,0-2.454-2.6,3.224,3.224,0,0,0-2.715.039c-1.782.855-2.43.7-3.845-.671-.5-.482-.971-.992-1.425-1.515a2.036,2.036,0,0,1-.369-2.434,3.913,3.913,0,0,0,.021-4.151,2.328,2.328,0,0,0-1.437-1.4A3.224,3.224,0,0,1,0,20.056ZM44.808,39.539v9.1c1.792.268,2.6-.319,2.865-2.015.063-.405.156-.807.253-1.205a19.475,19.475,0,0,1,5.562-9.153A18.9,18.9,0,0,0,59.119,20.48,19.58,19.58,0,0,0,36.253,2.949c-7.746,1.36-13.081,5.911-15.494,13.382-2.423,7.5-.77,14.33,4.787,19.959,3.33,3.374,5.549,7.151,5.979,11.91.016.18.206.484.329.491.782.045,1.567.023,2.332.023V39.548c-.382-.077-.715-.123-1.035-.211a3.938,3.938,0,0,1,.945-7.728,1.283,1.283,0,0,1,1.424,1.2,1.3,1.3,0,0,1-1.212,1.424c-.964.171-1.452.673-1.384,1.421s.644,1.212,1.595,1.214q4.975.008,9.95,0c.955,0,1.527-.443,1.6-1.206.073-.748-.418-1.254-1.38-1.424a1.3,1.3,0,0,1-1.215-1.422,1.273,1.273,0,0,1,1.419-1.2,3.942,3.942,0,0,1,3.8,4.335c-.265,2.007-1.575,3.231-3.885,3.59m5.511,9.114-.2-.181a17.706,17.706,0,0,0-1.306,1.584.991.991,0,0,0,.111.823c.9,1.531,1.155,3.037-.028,4.547a.464.464,0,0,0-.1.207,4.1,4.1,0,0,1-3.513,3.616.748.748,0,0,0-.475.412,1.815,1.815,0,0,0,1.24,2.526c.309.125.61.275.928.373a1.89,1.89,0,0,1,1.335,1.446,7.759,7.759,0,0,0,.859,2.213,2.913,2.913,0,0,1,.089,3.229c-.747,1.5-.669,1.519.542,2.669a.7.7,0,0,0,.934.175,8.731,8.731,0,0,1,1.841-.772,2.886,2.886,0,0,1,1.521.064c1.088.368,2.127.881,3.206,1.281a1.776,1.776,0,0,1,1.193,1.094c.233.652.495,1.3.783,1.925a.813.813,0,0,0,.457.425c1.423.334,2.013.071,2.462-1.3.427-1.3,1.074-2.244,2.54-2.408a1.669,1.669,0,0,0,.785-.3,3.926,3.926,0,0,1,4.83-.032c.164.1.473.229.555.159a8.984,8.984,0,0,0,1.461-1.461c.124-.171-.138-.647-.261-.97-.182-.479-.382-.954-.6-1.416a1.742,1.742,0,0,1,.07-1.614c.489-1.041.851-2.143,1.36-3.173a3.388,3.388,0,0,1,1.031-1.129,5.2,5.2,0,0,1,1.2-.5c1.218-.484,1.179-.484,1.2-1.806.012-.694-.181-1.108-.887-1.275-.395-.093-.755-.327-1.147-.444a2.026,2.026,0,0,1-1.563-1.7A3.489,3.489,0,0,0,72.24,55.5a3.808,3.808,0,0,1-.006-4.624.841.841,0,0,0-.207-1.184c-1.075-1.076-1.056-1.1-2.433-.506a6.554,6.554,0,0,0-.706.307,1.972,1.972,0,0,1-2.239-.119,3.757,3.757,0,0,0-1.391-.639,3.894,3.894,0,0,1-3.338-3.312c-.053-.209-.206-.543-.339-.556A7.025,7.025,0,0,0,59.6,44.86c-.237.045-.4.591-.555.926a10.668,10.668,0,0,0-.515,1.285A1.822,1.822,0,0,1,57.17,48.3a10.261,10.261,0,0,0-2.425.951,2.561,2.561,0,0,1-2.876.08,16.179,16.179,0,0,0-1.55-.675M23.488,6.73a10.678,10.678,0,0,0-1.5-.539,1.958,1.958,0,0,1-1.606-1.467c-.106-.342-.313-.658-.385-1-.194-.94-.766-1.144-1.662-1.12-.778.02-1.271.2-1.421,1.006-.036.2-.177.374-.225.571A2.562,2.562,0,0,1,14.4,6.334a1.88,1.88,0,0,0-.859.322c-1.656,1.27-3.3,1.045-4.969.037-.144-.087-.416-.2-.489-.132a8.883,8.883,0,0,0-1.42,1.393c-.134.182.02.685.182.958a3.508,3.508,0,0,1-.062,4.336.77.77,0,0,0-.153.35,4,4,0,0,1-3.439,3.5c-.184.044-.478.19-.487.307a7.439,7.439,0,0,0,.008,1.989c.047.237.594.394.93.551A13.228,13.228,0,0,0,5,20.5a1.739,1.739,0,0,1,1.132,1.253,8.846,8.846,0,0,0,.88,2.287A2.855,2.855,0,0,1,7.078,27.4c-.091.153-.124.343-.222.489-.442.658-.2,1.1.307,1.64.635.677,1.2.925,2.027.394a3.465,3.465,0,0,1,1.269-.536,3.293,3.293,0,0,1,1.525.072c1.087.371,2.123.891,3.2,1.29a1.751,1.751,0,0,1,1.177,1.111c.115.339.268.666.4,1,.578,1.411.578,1.411,2.086,1.363.9-.029,1.229-.6.852-1.424a33.792,33.792,0,0,1-1.32-3.113,1.077,1.077,0,0,0-1.082-.835,10.5,10.5,0,1,1,4.22-20.494.721.721,0,0,0,.6-.067c.463-.468.873-.988,1.364-1.559M20.3,10.843c-2.422-.9-5.8.082-7.762,2.225a7.9,7.9,0,0,0-1.349,8.687c1.181,2.507,4.025,4.523,6.241,4.391-.057-.557-.147-1.112-.163-1.67-.017-.617-.145-1.066-.858-1.223a3.149,3.149,0,0,1-1.075-.584,5.244,5.244,0,0,1-1.9-5.9,5.306,5.306,0,0,1,5.056-3.6,1,1,0,0,0,.736-.317c.4-.626.7-1.307,1.07-2.014m16.61,37.829h5.17V39.529h-5.17Zm1.379,5.315c2.311,0,4.624-.07,6.931.021,2.006.079,2.055-.525,1.292-2a.287.287,0,0,1-.031-.07c-.1-.5-.422-.6-.9-.591-2.105.025-4.211.011-6.316.011-2.927,0-5.854,0-8.781,0-.945,0-1.49.481-1.5,1.276-.014.824.553,1.343,1.526,1.347,2.593.01,5.186,0,7.779,0m6.059,2.63q-5.625,0-11.25,0a1.312,1.312,0,0,0-1.485,1.306c0,.793.555,1.3,1.48,1.312,1.748.014,3.5.007,5.244.008h3.823a2.961,2.961,0,0,1,2.189-2.628m-2.274,5.257c-2.078,0-4.178-.005-6.278,0-.958,0-1.556.526-1.554,1.325,0,.815.57,1.3,1.564,1.3q3.7.007,7.394-.007a7.135,7.135,0,0,0,.894-.129c-1.478-.886-1.478-.886-2.02-2.491M18,15.939a2.393,2.393,0,0,0-2.162,2.188,2.223,2.223,0,0,0,1.3,2.431L18,15.939" transform="translate(0 0)" fill="#12263f"/>
        <path id="Trazado_600230" data-name="Trazado 600230" d="M144.8,58.6c.522-6.7,3.637-11.705,9.656-14.815.916-.473,1.688-.275,2.048.471s.039,1.425-.9,1.905a14.339,14.339,0,0,0-7.954,10.627,17.564,17.564,0,0,0-.216,2.144c-.062.986-.542,1.567-1.333,1.558-.822-.009-1.315-.638-1.3-1.661,0-.077,0-.154,0-.231" transform="translate(-122.419 -36.797)" fill="#12263f"/>
        <path id="Trazado_600231" data-name="Trazado 600231" d="M240.237,36.733c-.2.015-.41.047-.615.043a1.284,1.284,0,0,1-1.353-1.2,1.238,1.238,0,0,1,1.137-1.391,8.459,8.459,0,0,1,1.46-.09,1.31,1.31,0,1,1-.012,2.617c-.2.011-.411,0-.617,0v.019" transform="translate(-201.432 -28.823)" fill="#12263f"/>
        <path id="Trazado_600232" data-name="Trazado 600232" d="M344.658,334.149a10.541,10.541,0,1,1-10.429-10.6,10.562,10.562,0,0,1,10.429,10.6m-2.632-.06A7.908,7.908,0,1,0,334.041,342a7.962,7.962,0,0,0,7.984-7.913" transform="translate(-273.554 -273.533)" fill="#12263f"/>
        <path id="Trazado_600233" data-name="Trazado 600233" d="M362.983,368.207a5.273,5.273,0,1,1,5.23-5.281,5.307,5.307,0,0,1-5.23,5.281m.064-7.891a2.608,2.608,0,0,0-2.726,2.47,2.627,2.627,0,1,0,2.726-2.47" transform="translate(-302.376 -302.371)" fill="#12263f"/>
      </g>
    </g>
    <rect id="Rect치ngulo_300205" data-name="Rect치ngulo 300205" width="91" height="91" transform="translate(-6422 -5658)" fill="none"/>
  </g>
</svg>
