<svg xmlns="http://www.w3.org/2000/svg" xmlns:xlink="http://www.w3.org/1999/xlink" width="91" height="91" viewBox="0 0 91 91">
  <defs>
    <clipPath id="clip-path">
      <rect id="Rect치ngulo_296553" data-name="Rect치ngulo 296553" width="81.497" height="81.479" fill="#12263f"/>
    </clipPath>
  </defs>
  <g id="Grupo_889555" data-name="Grupo 889555" transform="translate(6143 5658)">
    <g id="Grupo_889550" data-name="Grupo 889550" transform="translate(-6138.3 -5653.298)">
      <g id="Grupo_882896" data-name="Grupo 882896" clip-path="url(#clip-path)">
        <path id="Trazado_600258" data-name="Trazado 600258" d="M0,40.711Q0,21.868,0,3.025C0,.473.483,0,3.082,0q9.1,0,18.191,0c2.291,0,2.841.546,2.842,2.814q0,37.9,0,75.809c0,2.369-.5,2.853-2.923,2.854q-9.023,0-18.046,0C.394,81.478,0,81.074,0,78.252q0-18.77,0-37.541M3.842,77.618h16.45V3.823H3.842Z" transform="translate(0 0)" fill="#12263f"/>
        <path id="Trazado_600259" data-name="Trazado 600259" d="M102.579,60.36l8.438-14.325-14.251-8.41-1.1,1.542c0-2.672-1.075-5.388.45-7.964q4.148-7.005,8.273-14.024c1.025-1.735,1.8-1.932,3.55-.9q8.15,4.785,16.289,9.589c1.7,1,1.915,1.784.951,3.424Q110.728,53.85,96.27,78.4a2.62,2.62,0,0,1-.786.868c.146-3-.917-6.054,1.141-8.892,1.525-2.1,2.688-4.466,4.065-6.8a25.518,25.518,0,0,0-3.228-1.865,3.117,3.117,0,0,1-2.14-3.843,12.361,12.361,0,0,0,.012-1.734l7.245,4.226M107,20.035,98.563,34.38l14.347,8.436,8.437-14.336L107,20.035" transform="translate(-67.522 -11.094)" fill="#12263f"/>
        <path id="Trazado_600260" data-name="Trazado 600260" d="M95.808,220.967v-3.681h9.147c0-1.09.068-2.041-.018-2.977a1.944,1.944,0,0,1,1.223-2.193c.777-.365,1.485-.878,2.453-1.464v6.464h16.632c.024-.551.068-1.069.068-1.587.005-4.512.037-9.025-.022-13.536a2.528,2.528,0,0,1,1.233-2.332,14.255,14.255,0,0,1,10.183-2.846c3.378.256,6.79.041,10.187.06,1.918.011,2.517.625,2.519,2.54q.01,9.534,0,19.067c0,1.856-.6,2.48-2.4,2.481q-25.04.009-50.08,0H95.808m49.8-20.241h-16.48v16.4h16.48Z" transform="translate(-67.921 -139.489)" fill="#12263f"/>
        <path id="Trazado_600261" data-name="Trazado 600261" d="M126.631,110.05,140.84,101.4l-8.652-14.212L119.4,94.957c1.671-2.989,2.534-6.453,6.016-8.064a67.5,67.5,0,0,0,5.986-3.581c1.5-.9,2.338-.7,3.253.8q5.051,8.246,10.067,16.513c.869,1.433.678,2.335-.707,3.179q-23.837,14.542-47.69,29.058c-.159.1-.339.16-.786.366a35.006,35.006,0,0,1,.049-3.809c.044-.394.614-.808,1.033-1.069,3.084-1.914,6.19-3.792,9.532-5.829-2.561-2.263-1.248-4.193.44-6.166l2.652,4.285,14.205-8.652-5.666-9.291c-1.89-3.1-1.89-3.1.513-6.289l8.329,13.645" transform="translate(-67.713 -58.682)" fill="#12263f"/>
        <path id="Trazado_600262" data-name="Trazado 600262" d="M37.436,231.788a2.714,2.714,0,0,1-2.754,2.756A2.752,2.752,0,0,1,31.9,231.8a2.829,2.829,0,0,1,2.772-2.789,2.778,2.778,0,0,1,2.763,2.78" transform="translate(-22.616 -162.35)" fill="#12263f"/>
      </g>
    </g>
    <rect id="Rect치ngulo_300207" data-name="Rect치ngulo 300207" width="91" height="91" transform="translate(-6143 -5658)" fill="none"/>
  </g>
</svg>
