<svg xmlns="http://www.w3.org/2000/svg" xmlns:xlink="http://www.w3.org/1999/xlink" width="1328" height="812" viewBox="0 0 1328 812">
  <defs>
    <clipPath id="clip-path">
      <rect id="Rect치ngulo_300212" data-name="Rect치ngulo 300212" width="1328" height="252" transform="translate(136 3657)" fill="#f8fbfe"/>
    </clipPath>
    <clipPath id="clip-path-2">
      <rect id="Rect치ngulo_300213" data-name="Rect치ngulo 300213" width="1328" height="618" transform="translate(136 3291)" fill="#f8fbfe"/>
    </clipPath>
  </defs>
  <g id="Grupo_889575" data-name="Grupo 889575" transform="translate(5875 5571)">
    <g id="Enmascarar_grupo_877092" data-name="Enmascarar grupo 877092" transform="translate(-4411 -1102) rotate(180)" clip-path="url(#clip-path)">
      <path id="Trazado_605790" data-name="Trazado 605790" d="M1551.855,941.157c260.866,93.244,548.558,146.83,839.59,82.387,577.311-127.835,576.673-99.6,576.673-99.6v594.022H1053.877v-649.5S1254.765,834.965,1551.855,941.157Z" transform="translate(-1097.775 2793.29)" fill="#f8fbfe"/>
    </g>
    <g id="Enmascarar_grupo_877093" data-name="Enmascarar grupo 877093" transform="translate(-6011 -8862)" clip-path="url(#clip-path-2)">
      <path id="Trazado_605791" data-name="Trazado 605791" d="M1551.855,941.157c260.866,93.244,548.558,146.83,839.59,82.387,577.311-127.835,576.673-99.6,576.673-99.6v594.022H1053.877v-649.5S1254.765,834.965,1551.855,941.157Z" transform="translate(-1097.775 2793.29)" fill="#f8fbfe"/>
    </g>
  </g>
</svg>
