<svg xmlns="http://www.w3.org/2000/svg" xmlns:xlink="http://www.w3.org/1999/xlink" width="137" height="158" viewBox="0 0 137 158">
  <defs>
    <clipPath id="clip-path">
      <rect id="Rectángulo_300413" data-name="Rectángulo 300413" width="137" height="158" transform="translate(-0.141 -0.198)" fill="#12263f"/>
    </clipPath>
  </defs>
  <g id="Grupo_889572" data-name="Grupo 889572" transform="translate(0.141 0.198)">
    <g id="Grupo_889571" data-name="Grupo 889571" clip-path="url(#clip-path)">
      <path id="Trazado_606015" data-name="Trazado 606015" d="M393.4,133.146h-5.258a2.629,2.629,0,0,0,0,5.258h2.629v2.629a5.258,5.258,0,1,1-10.517,0V130.517a5.259,5.259,0,0,1,9.179-3.5,2.629,2.629,0,1,0,3.913-3.512A10.517,10.517,0,0,0,375,130.517v10.517a10.517,10.517,0,1,0,21.034,0v-5.258a2.628,2.628,0,0,0-2.629-2.629" transform="translate(-309.269 -98.966)" fill="#12263f"/>
      <path id="Trazado_606016" data-name="Trazado 606016" d="M134.091,0H13.146a2.629,2.629,0,0,0-2.629,2.629v7.888H2.629A2.629,2.629,0,0,0,0,13.146V155.125a2.629,2.629,0,0,0,2.629,2.629H123.574a2.629,2.629,0,0,0,2.629-2.629v-7.888h7.888a2.629,2.629,0,0,0,2.629-2.629V2.629A2.629,2.629,0,0,0,134.091,0M5.258,15.775H94.653v18.4a7.9,7.9,0,0,0,7.888,7.888h18.4V57.843H5.258Zm94.653,18.4V19.493l17.316,17.316H102.54a2.633,2.633,0,0,1-2.629-2.629m31.551,107.8H126.2V118.316a2.629,2.629,0,0,0-5.258,0V152.5H5.258V63.1H120.945v34.18a2.629,2.629,0,1,0,5.258,0V39.439a2.63,2.63,0,0,0-.77-1.859L99.141,11.287a2.63,2.63,0,0,0-1.859-.77H15.775V5.258H131.462Z" fill="#12263f"/>
      <path id="Trazado_606017" data-name="Trazado 606017" d="M245.99,104.842h-9.2a2.628,2.628,0,0,0-2.629,2.629v26.292a2.629,2.629,0,0,0,5.258,0V123.247h6.573a9.2,9.2,0,1,0,0-18.4m0,13.146h-6.573V110.1h6.573a3.944,3.944,0,0,1,0,7.888" transform="translate(-193.114 -86.465)" fill="#12263f"/>
      <path id="Trazado_606018" data-name="Trazado 606018" d="M103.984,106.106a2.629,2.629,0,0,0-2.629,2.629v18.4a5.258,5.258,0,1,1-10.517,0,2.629,2.629,0,0,0-5.258,0,10.517,10.517,0,1,0,21.034,0v-18.4a2.629,2.629,0,0,0-2.629-2.629" transform="translate(-70.579 -87.507)" fill="#12263f"/>
    </g>
    <path id="Trazado_606019" data-name="Trazado 606019" d="M373.359,100.991a7.11,7.11,0,1,0,7.407,7.1,7.259,7.259,0,0,0-7.407-7.1" transform="translate(-299.726 -24.199)" fill="#12263f"/>
    <path id="Trazado_606020" data-name="Trazado 606020" d="M0,180.095l29.2-49.274,23.12,31.284,14.04-16.25,21.2,34.24Z" transform="translate(18.755 -37.535)" fill="#12263f"/>
  </g>
</svg>
