<svg xmlns="http://www.w3.org/2000/svg" xmlns:xlink="http://www.w3.org/1999/xlink" width="80" height="80" viewBox="0 0 80 80">
  <defs>
    <clipPath id="clip-path">
      <rect id="Rectángulo_52680" data-name="Rectángulo 52680" width="67.627" height="67.633" fill="none"/>
    </clipPath>
  </defs>
  <g id="Grupo_893375" data-name="Grupo 893375" transform="translate(12135 7241)">
    <g id="Grupo_893371" data-name="Grupo 893371" transform="translate(-13.233 -8.243)">
      <g id="Grupo_893367" data-name="Grupo 893367" transform="translate(-12115.768 -7226.757)">
        <g id="Grupo_171311" data-name="Grupo 171311" clip-path="url(#clip-path)">
          <path id="Trazado_212439" data-name="Trazado 212439" d="M108.406,0a6.215,6.215,0,0,1,3.642,2.082,6.163,6.163,0,0,1,1.29,4q0,19.157,0,38.313,0,8.663,0,17.326a5.633,5.633,0,0,1-4.157,5.678,6.527,6.527,0,0,1-1.667.22q-17.149.018-34.3.008c-.115,0-.231-.011-.4-.02V65.37h.819q16.833,0,33.665,0a3.426,3.426,0,0,0,3.7-2.685,5.423,5.423,0,0,0,.086-1.119q.006-27.749,0-55.5c0-2.49-1.336-3.812-3.844-3.813q-18.7,0-37.4,0C67.329,2.255,66,3.574,66,6.069Q66,17.8,66,29.522v.869H63.745V29.6c0-7.794.04-15.589-.02-23.382A5.839,5.839,0,0,1,68.553.064.448.448,0,0,0,68.676,0Z" transform="translate(-54.729)"/>
          <path id="Trazado_212440" data-name="Trazado 212440" d="M0,241.516a28.753,28.753,0,0,1,1.267-3.838,11.249,11.249,0,0,1,21.246,5.9,11.075,11.075,0,0,1-3.814,7.674c-.122.11-.248.215-.367.327a.6.6,0,0,0-.078.137,3.375,3.375,0,0,1,.181,4.421,11.977,11.977,0,0,1,.692,2.213,3.331,3.331,0,0,1-2.082,3.356,1.926,1.926,0,0,0-.814.763c-.567,1.024-1.08,2.079-1.587,3.135a1.361,1.361,0,0,1-1.391.852c-1.337-.028-2.676-.025-4.013,0a1.326,1.326,0,0,1-1.333-.829q-.8-1.642-1.642-3.265a1.283,1.283,0,0,0-.48-.556c-2.532-1.267-3.063-3.069-1.6-5.5-1.1-1.942-1.083-2.912.086-4.568-.668-.724-1.384-1.4-1.987-2.173a10.616,10.616,0,0,1-2.155-5.126A2.257,2.257,0,0,0,0,244.052v-2.536m14.878,9.044.169.234a8.564,8.564,0,0,0,1.381-.629,9.035,9.035,0,0,0,3.262-10.6A9.027,9.027,0,0,0,2.435,240.98a8.922,8.922,0,0,0,4.1,9.436,4.981,4.981,0,0,0,1.157.346c-.308-1.867-.577-3.532-.858-5.194-.188-1.114.239-1.649,1.373-1.654q3.062-.012,6.124,0c1.133,0,1.561.542,1.372,1.656-.282,1.662-.551,3.327-.826,4.991m-3.647,4.621c1.431,0,2.863.006,4.294,0,.878,0,1.384-.442,1.372-1.158-.011-.671-.517-1.089-1.364-1.091q-4.259-.009-8.517,0c-.848,0-1.358.416-1.372,1.083-.015.716.494,1.162,1.364,1.167,1.408.008,2.816,0,4.223,0m.041,4.508c1.408,0,2.816,0,4.223,0,.9,0,1.394-.414,1.4-1.13.007-.7-.511-1.119-1.4-1.121q-4.223-.007-8.447,0c-.893,0-1.413.43-1.4,1.124.013.717.509,1.123,1.4,1.126,1.408.006,2.816,0,4.223,0M9.227,246.2l.74,4.432h2.608l.734-4.432Zm-.573,15.767c.863,2.231.863,2.231,3.077,2.231a4.868,4.868,0,0,0,.772-.011.663.663,0,0,0,.439-.247c.343-.628.648-1.277.992-1.973Z" transform="translate(0 -198.828)"/>
          <path id="Trazado_212441" data-name="Trazado 212441" d="M103.714,83.778c-.011-.211-.023-.347-.024-.483,0-.56,0-1.12,0-1.755h30.392v-47.3h-36V57.813H95.8v-.782q0-11.727,0-23.453c0-1.335.314-1.645,1.665-1.645h37.257c1.339,0,1.652.314,1.652,1.66q0,24.263,0,48.526c0,1.336-.323,1.658-1.66,1.658h-31Z" transform="translate(-82.275 -27.425)"/>
          <path id="Trazado_212442" data-name="Trazado 212442" d="M153.593,159.233c-1.344.48-1.964.044-1.965-1.335,0-2.019.016-4.037-.01-6.055a1.333,1.333,0,0,1,.891-1.429,5.363,5.363,0,0,0,2.438-2.068,11.152,11.152,0,0,1,16.794-1.587,20.142,20.142,0,0,1,2.267,3.022,6,6,0,0,1,.435.859c1.431-.432,1.979-.029,1.98,1.41,0,1.995-.016,3.99.009,5.985a1.39,1.39,0,0,1-.954,1.467,4.984,4.984,0,0,0-2.252,1.872,10.726,10.726,0,0,1-9.919,4.792,10.973,10.973,0,0,1-9.528-6.577c-.051-.1-.107-.207-.185-.357m20.575-5.828c-.33.138-.582.249-.837.349-.283.111-.564.233-.856.316a10.386,10.386,0,0,1-9.263-1.674c-2.89-2.035-5.9-1.979-8.936-.325-.161.087-.372.279-.376.427-.029,1.3-.017,2.6-.017,3.8a35.683,35.683,0,0,1,3.939-.876c2.721-.3,5.058.738,7.291,2.228a7.776,7.776,0,0,0,8.752.111.672.672,0,0,0,.289-.48c.024-1.261.013-2.522.013-3.873m-18.557,4.782a9.055,9.055,0,0,0,7.952,5.742c2.3.218,5.349-.789,6.7-2.613-.724-.035-1.449-.026-2.162-.112a12.559,12.559,0,0,1-5.35-2.331,7.622,7.622,0,0,0-7.141-.686m2.114-9.671c.089.049.127.089.162.087a11.046,11.046,0,0,1,7.384,2.407,7.652,7.652,0,0,0,7.1.684c-2.027-5.935-10.3-7.726-14.644-3.178" transform="translate(-130.212 -123.384)"/>
          <path id="Trazado_212443" data-name="Trazado 212443" d="M437.863,87.513c0,6.621.007,13.242-.014,19.863a3.479,3.479,0,0,1-.331,1.406c-.6,1.3-1.273,2.56-1.9,3.843-.243.493-.547.882-1.154.874a1.229,1.229,0,0,1-1.1-.848c-.664-1.346-1.352-2.679-2-4.034a2.587,2.587,0,0,1-.251-1.073q-.019-20-.008-40.008a3.423,3.423,0,0,1,2.291-3.437,3.367,3.367,0,0,1,3.821,1.223,3.82,3.82,0,0,1,.651,2.4q-.008,9.9,0,19.793m-4.508-14.555v.915c0,10.862.02,21.725-.027,32.587a8.04,8.04,0,0,0,1.138,3.354,7.262,7.262,0,0,0,1.17-3.429c-.047-10.862-.027-21.725-.027-32.587v-.841Zm.011-2.318h2.243c0-1.012,0-1.988,0-2.964a3.706,3.706,0,0,0-.016-.49,1.1,1.1,0,0,0-1.147-1,1.025,1.025,0,0,0-1.066,1c-.05,1.137-.014,2.278-.014,3.454" transform="translate(-370.239 -54.899)"/>
          <path id="Trazado_212444" data-name="Trazado 212444" d="M215.568,410.539a3.379,3.379,0,1,1,3.351,3.388,3.419,3.419,0,0,1-3.351-3.388m4.5.044a1.12,1.12,0,1,0-1.155,1.084,1.173,1.173,0,0,0,1.155-1.084" transform="translate(-185.134 -349.687)"/>
          <path id="Trazado_212445" data-name="Trazado 212445" d="M130.014,119.625h-2.28v-5.493c0-2.33.034-2.364,2.348-2.364h5.5v2.218h-5.572Z" transform="translate(-109.701 -95.988)"/>
          <path id="Trazado_212446" data-name="Trazado 212446" d="M303.556,119.595h-2.228v-5.568h-5.605v-2.286h3.85c.937,0,1.875-.015,2.812.008a1.063,1.063,0,0,1,1.16,1.066c.026,2.244.01,4.489.01,6.78" transform="translate(-253.974 -95.961)"/>
          <path id="Trazado_212447" data-name="Trazado 212447" d="M301.372,285.314v-5.62h2.2c.013.18.039.379.039.579q0,2.882,0,5.764c0,1.133-.38,1.5-1.523,1.507-2.084,0-4.169,0-6.309,0v-2.23Z" transform="translate(-254.024 -240.208)"/>
          <rect id="Rectángulo_52673" data-name="Rectángulo 52673" width="4.42" height="2.168" transform="translate(28.209 15.816)"/>
          <rect id="Rectángulo_52674" data-name="Rectángulo 52674" width="4.444" height="2.155" transform="translate(34.965 15.823)"/>
          <rect id="Rectángulo_52675" data-name="Rectángulo 52675" width="2.171" height="4.42" transform="translate(18.081 25.956)"/>
          <rect id="Rectángulo_52676" data-name="Rectángulo 52676" width="2.168" height="4.422" transform="translate(47.391 25.972)"/>
          <rect id="Rectángulo_52677" data-name="Rectángulo 52677" width="2.168" height="4.42" transform="translate(47.386 32.717)"/>
          <rect id="Rectángulo_52678" data-name="Rectángulo 52678" width="4.42" height="2.171" transform="translate(28.21 45.118)"/>
          <rect id="Rectángulo_52679" data-name="Rectángulo 52679" width="4.415" height="2.193" transform="translate(34.98 45.116)"/>
        </g>
      </g>
    </g>
    <rect id="Rectángulo_303259" data-name="Rectángulo 303259" width="80" height="80" transform="translate(-12135 -7241)" fill="none"/>
  </g>
</svg>
