<svg xmlns="http://www.w3.org/2000/svg" xmlns:xlink="http://www.w3.org/1999/xlink" width="138" height="159" viewBox="0 0 138 159">
  <defs>
    <clipPath id="clip-path">
      <rect id="Rectángulo_300513" data-name="Rectángulo 300513" width="138" height="159" transform="translate(0 0)" fill="#12263f"/>
    </clipPath>
  </defs>
  <g id="Grupo_889796" data-name="Grupo 889796" transform="translate(0.061 0.301)">
    <g id="Grupo_889796-2" data-name="Grupo 889796" transform="translate(-0.061 -0.301)" clip-path="url(#clip-path)">
      <path id="Trazado_606315" data-name="Trazado 606315" d="M243.511,424.519a2.645,2.645,0,0,0-1.318-2.29l-29.1-16.873a2.648,2.648,0,0,0-2.654,0l-29.12,16.873a2.645,2.645,0,0,0,0,4.579l11.737,6.8-11.737,6.8a2.645,2.645,0,0,0,0,4.579l10.609,6.148-10.609,6.148a2.645,2.645,0,0,0,0,4.579l29.12,16.873a2.647,2.647,0,0,0,2.654,0l29.1-16.873a2.648,2.648,0,0,0,0-4.579l-10.6-6.148,10.6-6.148a2.648,2.648,0,0,0,0-4.579l-11.729-6.8,11.729-6.8a2.646,2.646,0,0,0,1.318-2.29m-7.921,35.058L211.766,473.39l-23.842-13.813,9.283-5.38,13.234,7.669a2.648,2.648,0,0,0,2.654,0l13.221-7.667Zm0-16.875-23.824,13.815L187.924,442.7l10.411-6.033,12.105,7.015a2.647,2.647,0,0,0,2.654,0l12.093-7.013Zm-23.824-4.367-23.842-13.816,23.842-13.813,23.824,13.813Z" transform="translate(-148.199 -333.328)" fill="#12263f"/>
      <path id="Trazado_606316" data-name="Trazado 606316" d="M86.908,120H77.646A2.645,2.645,0,0,0,75,122.646v26.463a2.646,2.646,0,0,0,5.293,0V138.524h6.616a9.262,9.262,0,1,0,0-18.524m0,13.232H80.293v-7.939h6.616a3.969,3.969,0,1,1,0,7.939" transform="translate(-61.724 -98.608)" fill="#12263f"/>
      <path id="Trazado_606317" data-name="Trazado 606317" d="M234.262,125.293h3.969a2.648,2.648,0,0,1,2.646,2.646,2.646,2.646,0,0,0,5.293,0A7.947,7.947,0,0,0,238.232,120h-3.969a9.262,9.262,0,0,0,0,18.524h2.646a3.969,3.969,0,1,1,0,7.939h-3.969a2.648,2.648,0,0,1-2.646-2.646,2.646,2.646,0,1,0-5.293,0,7.948,7.948,0,0,0,7.939,7.939h3.969a9.262,9.262,0,0,0,0-18.524h-2.646a3.969,3.969,0,1,1,0-7.939" transform="translate(-185.26 -98.608)" fill="#12263f"/>
      <path id="Trazado_606318" data-name="Trazado 606318" d="M382.939,120h-5.293A2.645,2.645,0,0,0,375,122.646v26.463a2.645,2.645,0,0,0,2.646,2.646h5.293a13.247,13.247,0,0,0,13.232-13.231v-5.293A13.247,13.247,0,0,0,382.939,120m7.939,18.524a7.947,7.947,0,0,1-7.939,7.939h-2.646v-21.17h2.646a7.947,7.947,0,0,1,7.939,7.939Z" transform="translate(-308.797 -98.608)" fill="#12263f"/>
      <path id="Trazado_606319" data-name="Trazado 606319" d="M692.646,600a2.646,2.646,0,1,0,2.646,2.646A2.646,2.646,0,0,0,692.646,600" transform="translate(-568.225 -493.926)" fill="#12263f"/>
      <path id="Trazado_606320" data-name="Trazado 606320" d="M134.961,0H13.232a2.646,2.646,0,0,0-2.646,2.646v7.939H2.646A2.646,2.646,0,0,0,0,13.232v142.9a2.646,2.646,0,0,0,2.646,2.646h121.73a2.646,2.646,0,0,0,2.646-2.646v-7.939h7.939a2.646,2.646,0,0,0,2.646-2.646V2.646A2.646,2.646,0,0,0,134.961,0M5.293,15.878H95.267V34.4a7.947,7.947,0,0,0,7.939,7.939H121.73V58.219H5.293ZM100.559,34.4V19.62l17.428,17.428H103.206a2.65,2.65,0,0,1-2.646-2.646m31.756,108.5h-5.293V119.084a2.646,2.646,0,0,0-5.293,0v34.4H5.293V63.511H121.73v34.4a2.646,2.646,0,0,0,5.293,0V39.695a2.647,2.647,0,0,0-.775-1.871L99.784,11.36a2.647,2.647,0,0,0-1.871-.775H15.878V5.293H132.315Z" transform="translate(0.045 0.222)" fill="#12263f"/>
    </g>
  </g>
</svg>
