<svg xmlns="http://www.w3.org/2000/svg" xmlns:xlink="http://www.w3.org/1999/xlink" width="80" height="80" viewBox="0 0 80 80">
  <defs>
    <clipPath id="clip-path">
      <rect id="Rect치ngulo_296552" data-name="Rect치ngulo 296552" width="71.349" height="59.163" fill="#12263f"/>
    </clipPath>
  </defs>
  <g id="Grupo_893374" data-name="Grupo 893374" transform="translate(12245 7241)">
    <g id="Grupo_893370" data-name="Grupo 893370" transform="translate(249 -3.327)">
      <g id="Grupo_893366" data-name="Grupo 893366" transform="translate(-12490 -7227.673)">
        <g id="Grupo_882895" data-name="Grupo 882895" clip-path="url(#clip-path)">
          <path id="Trazado_600240" data-name="Trazado 600240" d="M38.338,50.587a2.066,2.066,0,0,0,2.22,2.49c.835.008,1.674-.031,2.5.044a3.691,3.691,0,0,1,3.353,3.337,13.984,13.984,0,0,1,.02,1.815.845.845,0,0,1-.866.883c-.166.014-.334,0-.5,0H22.455c-.994,0-1.264-.273-1.253-1.265,0-.355,0-.71.009-1.064A3.75,3.75,0,0,1,24.9,53.084c1.064-.033,2.131.019,3.194-.026a1.96,1.96,0,0,0,1.872-2.471H4c-2.636,0-4-1.395-4-4.023Q.01,25.206,0,3.848A3.506,3.506,0,0,1,3.851,0H67.486a3.505,3.505,0,0,1,3.858,3.836q0,21.452.005,42.9a3.535,3.535,0,0,1-3.865,3.847q-14.187,0-28.373,0h-.773m6.255,6.769a2,2,0,0,0-2.067-2.484c-.772-.009-1.545.015-2.317-.007a3.746,3.746,0,0,1-3.6-3.013,9.11,9.11,0,0,1-.079-1.622c-.009-1.25.2-1.452,1.442-1.452H67.413c1.567,0,2.123-.545,2.123-2.1q0-21.39,0-42.779c0-1.532-.587-2.122-2.114-2.122H3.912c-1.5,0-2.1.6-2.1,2.074q0,21.421,0,42.842c0,1.517.567,2.082,2.075,2.082H30.32c.188,0,.376-.008.564.005a.887.887,0,0,1,.928.956c.017.417.013.835.006,1.252a3.768,3.768,0,0,1-3.937,3.879c-1,0-2.006-.027-3.006.015a1.922,1.922,0,0,0-1.774,2.47Z" transform="translate(0 0)" fill="#12263f"/>
          <path id="Trazado_600241" data-name="Trazado 600241" d="M61.822,34.926H92.259c1.247,0,1.435.191,1.435,1.456q0,19.477,0,38.955c0,1.214-.21,1.427-1.411,1.427H31.221c-1.176,0-1.4-.222-1.4-1.372q0-19.571,0-39.143c0-1.088.233-1.323,1.317-1.323H61.822m25.826,24.32c0,.306,0,.553,0,.8,0,1.441.017,2.882-.006,4.322a4.521,4.521,0,0,1-4.122,4.5c-.905.084-1.294-.254-1.294-1.16q-.005-11.87,0-23.74c0-.893.346-1.206,1.233-1.158a4.5,4.5,0,0,1,4.189,4.494c.019,1.315,0,2.631,0,3.946,0,.22.024.44.037.663h4.17V36.735H31.664V52.422h4.658V51.7c0-1.5-.018-3.007,0-4.51a4.477,4.477,0,0,1,4.046-4.364c1.021-.093,1.347.192,1.347,1.2q0,11.839,0,23.678c0,.919-.362,1.242-1.276,1.157a4.488,4.488,0,0,1-4.117-4.431c-.023-1.336,0-2.673,0-4.009v-.659H31.66V74.919h60.2V59.246Zm-47.761,7.62V44.818A2.588,2.588,0,0,0,38.1,47.451c-.008,2.776,0,5.552,0,8.328,0,2.8-.005,5.594,0,8.391a2.649,2.649,0,0,0,1.786,2.7m44.178.012a1.61,1.61,0,0,0,.259-.08,2.629,2.629,0,0,0,1.514-2.472q0-8.483,0-16.967a3.587,3.587,0,0,0-.023-.437,2.508,2.508,0,0,0-1.752-2.09ZM32.1,57.858h4.166v-3.59H32.1Zm59.757-4.078H87.685v3.6h4.171Z" transform="translate(-26.081 -30.55)" fill="#12263f"/>
          <path id="Trazado_600242" data-name="Trazado 600242" d="M168.683,156.2a23.41,23.41,0,0,1-16.47-6.7,1.741,1.741,0,0,1,0-2.861,23.63,23.63,0,0,1,32.99.078,1.723,1.723,0,0,1-.018,2.733,23.383,23.383,0,0,1-16.5,6.749m.1-2.174a6.124,6.124,0,1,0-6.242-6.018,6.171,6.171,0,0,0,6.242,6.018m-5.591-.319c-3.088-3.615-3.256-7.269-.48-11.118a21.785,21.785,0,0,0-9.389,5.486,21.581,21.581,0,0,0,9.869,5.632m10.894.019a21.7,21.7,0,0,0,9.9-5.612c-1.709-2.137-7.081-5.256-9.311-5.427a8.1,8.1,0,0,1-.587,11.039" transform="translate(-132.49 -122.438)" fill="#12263f"/>
          <path id="Trazado_600243" data-name="Trazado 600243" d="M232.114,103.4c.167,0,.334-.012.5,0a.893.893,0,0,1,.027,1.784,5.316,5.316,0,0,1-1.06.005.9.9,0,0,1,.034-1.792c.166-.013.333,0,.5,0v0" transform="translate(-201.805 -90.435)" fill="#12263f"/>
          <path id="Trazado_600244" data-name="Trazado 600244" d="M415.737,103.394a4.462,4.462,0,0,1,.5,0,.894.894,0,0,1,.008,1.787,5.662,5.662,0,0,1-1,.008.9.9,0,0,1-.931-.9.91.91,0,0,1,.984-.905c.146-.007.292,0,.438,0Z" transform="translate(-362.407 -90.435)" fill="#12263f"/>
          <path id="Trazado_600245" data-name="Trazado 600245" d="M278.023,103.4c.146,0,.292-.007.437,0a.9.9,0,1,1,.036,1.8,6.881,6.881,0,0,1-.874,0c-.622-.029-.99-.362-1-.89-.01-.566.351-.889,1.026-.913.125,0,.25,0,.375,0" transform="translate(-241.966 -90.442)" fill="#12263f"/>
          <path id="Trazado_600246" data-name="Trazado 600246" d="M369.919,103.4a4.395,4.395,0,0,1,.5,0,.855.855,0,0,1,.848.9.826.826,0,0,1-.8.876,5.921,5.921,0,0,1-1.122,0,.827.827,0,0,1-.845-.9.841.841,0,0,1,.861-.884c.186-.018.374,0,.562,0" transform="translate(-322.329 -90.437)" fill="#12263f"/>
          <path id="Trazado_600247" data-name="Trazado 600247" d="M140.26,103.332a4.416,4.416,0,0,1,.622.034.822.822,0,0,1,.729.814.792.792,0,0,1-.672.912,5.323,5.323,0,0,1-1.242.041.849.849,0,0,1-.859-.892.892.892,0,0,1,.923-.9c.166-.011.333,0,.5,0v-.009" transform="translate(-121.442 -90.386)" fill="#12263f"/>
          <path id="Trazado_600248" data-name="Trazado 600248" d="M186.112,103.343a3.63,3.63,0,0,1,.561,0,.86.86,0,0,1,.829.92.83.83,0,0,1-.816.861,5.545,5.545,0,0,1-.935.018c-.648-.023-1.04-.386-1.025-.929.014-.52.384-.841,1.012-.876.124-.007.25,0,.375,0v0" transform="translate(-161.581 -90.388)" fill="#12263f"/>
          <path id="Trazado_600249" data-name="Trazado 600249" d="M323.94,103.369c.125,0,.25-.006.375,0,.626.034,1,.358,1.013.876.015.544-.374.9-1.024.93a6.911,6.911,0,0,1-.812,0c-.622-.048-.967-.4-.945-.938a.889.889,0,0,1,.956-.864c.145-.009.291,0,.437,0" transform="translate(-282.136 -90.415)" fill="#12263f"/>
          <path id="Trazado_600250" data-name="Trazado 600250" d="M323.953,291.683c.955,0,1.367.261,1.377.873.01.639-.421.92-1.41.917-.146,0-.292,0-.437-.006a.883.883,0,0,1-.934-.881.859.859,0,0,1,.9-.9c.166-.012.333,0,.5,0" transform="translate(-282.138 -255.136)" fill="#12263f"/>
          <path id="Trazado_600251" data-name="Trazado 600251" d="M140.2,293.441a3.232,3.232,0,0,1-.561-.005.849.849,0,0,1-.788-.895.807.807,0,0,1,.8-.865,8.311,8.311,0,0,1,1.123-.007.807.807,0,0,1,.844.886.837.837,0,0,1-.86.884c-.186.016-.374,0-.562,0" transform="translate(-121.451 -255.113)" fill="#12263f"/>
          <path id="Trazado_600252" data-name="Trazado 600252" d="M186.245,291.723a4.248,4.248,0,0,1,.561,0,.882.882,0,0,1,.013,1.747,5.353,5.353,0,0,1-1.182.007.883.883,0,0,1,.047-1.764c.187-.011.374,0,.561,0v.007" transform="translate(-161.652 -255.165)" fill="#12263f"/>
          <path id="Trazado_600253" data-name="Trazado 600253" d="M369.838,293.426a3.351,3.351,0,0,1-.623-.006.827.827,0,0,1-.728-.879.8.8,0,0,1,.8-.869,8.343,8.343,0,0,1,1.123-.006.818.818,0,0,1,.853.883.849.849,0,0,1-.86.889,5.356,5.356,0,0,1-.562,0v-.016" transform="translate(-322.321 -255.11)" fill="#12263f"/>
          <path id="Trazado_600254" data-name="Trazado 600254" d="M415.769,293.435a3.922,3.922,0,0,1-.681-.052.819.819,0,0,1-.679-.913.8.8,0,0,1,.782-.819,7.865,7.865,0,0,1,1.06-.018.874.874,0,0,1,.933.88.9.9,0,0,1-.915.9c-.165.013-.333,0-.5,0v.015" transform="translate(-362.487 -255.087)" fill="#12263f"/>
          <path id="Trazado_600255" data-name="Trazado 600255" d="M232.1,293.422a3.562,3.562,0,0,1-.561,0,.846.846,0,0,1-.811-.931.813.813,0,0,1,.833-.837,7.9,7.9,0,0,1,1-.007.859.859,0,0,1,.939.865.869.869,0,0,1-.9.915c-.165.015-.333,0-.5,0v0" transform="translate(-201.818 -255.094)" fill="#12263f"/>
          <path id="Trazado_600256" data-name="Trazado 600256" d="M278.05,293.456c-1,0-1.413-.264-1.408-.907s.393-.883,1.428-.882c.166,0,.334-.007.5.009a.827.827,0,0,1,.842.893.848.848,0,0,1-.862.884,4.249,4.249,0,0,1-.5,0" transform="translate(-241.982 -255.124)" fill="#12263f"/>
          <path id="Trazado_600257" data-name="Trazado 600257" d="M256.618,175.081a4.033,4.033,0,1,1,4.03,4.077,4.009,4.009,0,0,1-4.03-4.077m4.015,2.28a2.253,2.253,0,0,0,2.269-2.2,2.254,2.254,0,1,0-2.269,2.2" transform="translate(-224.467 -149.646)" fill="#12263f"/>
        </g>
      </g>
    </g>
    <rect id="Rect치ngulo_303258" data-name="Rect치ngulo 303258" width="80" height="80" transform="translate(-12245 -7241)" fill="none"/>
  </g>
</svg>
