<svg xmlns="http://www.w3.org/2000/svg" xmlns:xlink="http://www.w3.org/1999/xlink" width="80" height="80" viewBox="0 0 80 80">
  <defs>
    <clipPath id="clip-path">
      <rect id="Rect치ngulo_296551" data-name="Rect치ngulo 296551" width="71.268" height="52.877" fill="#12263f"/>
    </clipPath>
  </defs>
  <g id="Grupo_893377" data-name="Grupo 893377" transform="translate(11884 7241)">
    <g id="Grupo_893373" data-name="Grupo 893373" transform="translate(-334.242 -0.327)">
      <g id="Grupo_893369" data-name="Grupo 893369" transform="translate(-11545.758 -7226.673)">
        <g id="Grupo_882893" data-name="Grupo 882893" clip-path="url(#clip-path)">
          <path id="Trazado_600237" data-name="Trazado 600237" d="M71.268.989V12.952a1.724,1.724,0,0,1-1.754.981c-.53-.041-1.066-.008-1.6-.008H65.738V38.965c1.237,0,2.439.042,3.637-.014a1.84,1.84,0,0,1,1.892.988V52.876H58.325a1.719,1.719,0,0,1-.982-1.753c.041-.53.008-1.066.008-1.6V47.349H13.932c0,1.236-.041,2.438.014,3.635a1.842,1.842,0,0,1-.988,1.892H.99A1.884,1.884,0,0,1,0,50.985C.038,47.6.015,44.217.016,40.832c0-1.432.435-1.866,1.869-1.867H5.528V13.926c-1.3,0-2.556,0-3.807,0-1.2,0-1.7-.5-1.7-1.683q-.006-5.25,0-10.5C.018.5.5.017,1.747.016q5.218,0,10.435,0c1.276,0,1.747.482,1.749,1.778,0,1.244,0,2.488,0,3.74H57.351c0-1.293,0-2.542,0-3.79S57.835.017,59.08.016c3.432,0,6.864.021,10.3-.016a1.888,1.888,0,0,1,1.892.989M13.932,44.481H57.351c0-1.2,0-2.36,0-3.516,0-1.618.385-2,2.014-2h3.5V13.925c-1.376,0-2.7.012-4.017,0a1.388,1.388,0,0,1-1.491-1.472c-.014-.463,0-.927,0-1.391,0-.892,0-1.785,0-2.661H13.932c0,1.28,0,2.525,0,3.771,0,1.276-.486,1.754-1.771,1.757-1.245,0-2.49,0-3.752,0v25.04c1.314,0,2.585,0,3.856,0,1.149.005,1.66.511,1.666,1.65.007,1.272,0,2.544,0,3.864M11.1,2.852H2.836v8.26H11.1Zm57.335,0H60.172v8.26h8.263ZM11.1,41.782H2.84v8.285H11.1Zm57.35.011H60.186v8.268h8.259Z" transform="translate(0 0.001)" fill="#12263f"/>
          <path id="Trazado_600238" data-name="Trazado 600238" d="M114.739,129.221c-.587-1.374-1.111-2.632-1.674-3.873a.69.69,0,0,0-.529-.294q-4.036-.028-8.071,0a.69.69,0,0,0-.529.294c-.563,1.241-1.087,2.5-1.655,3.827.287.018.5.025.721.047a1.37,1.37,0,0,1,1.313,1.362,1.311,1.311,0,0,1-1.273,1.388q-2.886.059-5.774,0a1.322,1.322,0,0,1-1.285-1.379,1.374,1.374,0,0,1,1.3-1.371,1.414,1.414,0,0,1,.416-.006c1.214.247,1.726-.335,2.183-1.437,2.32-5.6,4.759-11.157,7.122-16.743a1.865,1.865,0,0,1,2.015-1.315c1.552.061,3.108.043,4.661.005a1.715,1.715,0,0,1,1.812,1.187c2.48,5.837,4.991,11.661,7.485,17.492.2.477.368.86,1.045.858a1.253,1.253,0,0,1,1.164,1.329,1.366,1.366,0,0,1-1.214,1.381,3.9,3.9,0,0,1-.556.02h-8.976c-.139,0-.279,0-.417-.007a1.384,1.384,0,0,1-.029-2.765c.2-.019.413,0,.741,0m5.533-.008c-.111-.3-.182-.512-.271-.72q-.943-2.2-1.891-4.4-2.367-5.519-4.743-11.035c-.092-.213-.329-.493-.519-.51-.7-.061-1.418-.024-2.2-.024.111.3.183.513.272.721q.943,2.2,1.891,4.4,2.367,5.519,4.743,11.034c.092.213.329.494.518.51.7.061,1.418.024,2.2.024M108.5,114.663l-3.234,7.556h6.474l-3.24-7.556" transform="translate(-82.601 -94.421)" fill="#12263f"/>
          <path id="Trazado_600239" data-name="Trazado 600239" d="M329.537,173.6a1.458,1.458,0,0,1-1.053,1.441,1.353,1.353,0,0,1-1.569-.736c-.452-.937-.87-1.892-1.267-2.854a.743.743,0,0,0-.815-.55q-2.259.047-4.519,0a.7.7,0,0,0-.769.517c-.372.9-.771,1.784-1.178,2.666a1.4,1.4,0,1,1-2.548-1.119q2.729-6.115,5.475-12.224a1.407,1.407,0,0,1,2.657-.008q2.706,6.126,5.405,12.254a4.072,4.072,0,0,1,.18.613m-6.922-9-1.561,3.491h3.095l-1.534-3.491" transform="translate(-271.632 -137.514)" fill="#12263f"/>
        </g>
      </g>
    </g>
    <rect id="Rect치ngulo_303261" data-name="Rect치ngulo 303261" width="80" height="80" transform="translate(-11884 -7241)" fill="none"/>
  </g>
</svg>
