<svg xmlns="http://www.w3.org/2000/svg" xmlns:xlink="http://www.w3.org/1999/xlink" width="400" height="263.252" viewBox="0 0 400 263.252">
  <defs>
    <clipPath id="clip-path">
      <rect id="Rectángulo_300759" data-name="Rectángulo 300759" width="400" height="239.418" fill="none"/>
    </clipPath>
    <clipPath id="clip-path-5">
      <rect id="Rectángulo_300707" data-name="Rectángulo 300707" width="6.679" height="6.277" fill="none"/>
    </clipPath>
    <clipPath id="clip-path-6">
      <rect id="Rectángulo_300708" data-name="Rectángulo 300708" width="1.748" height="1.743" fill="none"/>
    </clipPath>
    <clipPath id="clip-path-7">
      <rect id="Rectángulo_300709" data-name="Rectángulo 300709" width="22.435" height="1.846" fill="none"/>
    </clipPath>
    <clipPath id="clip-path-8">
      <rect id="Rectángulo_300710" data-name="Rectángulo 300710" width="1.722" height="1.694" fill="none"/>
    </clipPath>
    <clipPath id="clip-path-9">
      <rect id="Rectángulo_300711" data-name="Rectángulo 300711" width="11.077" height="20.376" fill="none"/>
    </clipPath>
    <clipPath id="clip-path-10">
      <rect id="Rectángulo_300712" data-name="Rectángulo 300712" width="18.472" height="2.9" fill="none"/>
    </clipPath>
    <clipPath id="clip-path-11">
      <rect id="Rectángulo_300713" data-name="Rectángulo 300713" width="24.718" height="21.831" fill="none"/>
    </clipPath>
  </defs>
  <g id="Grupo_893371" data-name="Grupo 893371" transform="translate(-1020 -1802)">
    <rect id="Rectángulo_300681" data-name="Rectángulo 300681" width="372" height="257" transform="translate(1048 1802)" fill="#fff7ee"/>
    <g id="Grupo_890053" data-name="Grupo 890053" transform="translate(1020 1825.834)">
      <g id="Grupo_890052" data-name="Grupo 890052" clip-path="url(#clip-path)">
        <rect id="Rectángulo_300682" data-name="Rectángulo 300682" width="81.381" height="56.674" transform="translate(16.796 43.494)" fill="#fafafa"/>
        <rect id="Rectángulo_300683" data-name="Rectángulo 300683" width="81.381" height="7.082" transform="translate(16.796 43.494)" fill="#e0e0e0"/>
        <g id="Grupo_890015" data-name="Grupo 890015">
          <g id="Grupo_890014" data-name="Grupo 890014" clip-path="url(#clip-path)">
            <path id="Trazado_606782" data-name="Trazado 606782" d="M36.274,83a.85.85,0,1,1-.849-.887.869.869,0,0,1,.849.887" transform="translate(-15.06 -35.765)" fill="#fff"/>
            <path id="Trazado_606783" data-name="Trazado 606783" d="M42.375,83a.85.85,0,1,1-.849-.887.869.869,0,0,1,.849.887" transform="translate(-17.717 -35.765)" fill="#fff"/>
            <path id="Trazado_606784" data-name="Trazado 606784" d="M48.476,83a.85.85,0,1,1-.849-.887.869.869,0,0,1,.849.887" transform="translate(-20.374 -35.765)" fill="#fff"/>
            <rect id="Rectángulo_300684" data-name="Rectángulo 300684" width="11.599" height="27.825" transform="translate(24.534 57.517)" fill="#e0e0e0"/>
            <rect id="Rectángulo_300685" data-name="Rectángulo 300685" width="11.599" height="27.825" transform="translate(42.418 57.517)" fill="#f5f5f5"/>
            <rect id="Rectángulo_300686" data-name="Rectángulo 300686" width="11.599" height="27.825" transform="translate(60.302 57.517)" fill="#fff"/>
            <rect id="Rectángulo_300687" data-name="Rectángulo 300687" width="11.599" height="27.825" transform="translate(78.186 57.735)" fill="#ebebeb"/>
            <rect id="Rectángulo_300688" data-name="Rectángulo 300688" width="70.297" height="6.358" transform="translate(23.19 88.413)" fill="#ebebeb"/>
            <rect id="Rectángulo_300689" data-name="Rectángulo 300689" width="94.029" height="65.482" transform="translate(9.595 165.6)" fill="#ebebeb"/>
            <rect id="Rectángulo_300690" data-name="Rectángulo 300690" width="94.029" height="8.183" transform="translate(9.595 165.6)" fill="#e0e0e0"/>
            <path id="Trazado_606785" data-name="Trazado 606785" d="M24.529,300.256a.982.982,0,1,1-.981-1.026,1,1,0,0,1,.981,1.026" transform="translate(-9.829 -130.33)" fill="#fafafa"/>
            <path id="Trazado_606786" data-name="Trazado 606786" d="M31.578,300.256a.982.982,0,1,1-.981-1.026,1,1,0,0,1,.981,1.026" transform="translate(-12.899 -130.33)" fill="#fafafa"/>
            <path id="Trazado_606787" data-name="Trazado 606787" d="M38.628,300.256a.982.982,0,1,1-.981-1.026,1,1,0,0,1,.981,1.026" transform="translate(-15.97 -130.33)" fill="#fafafa"/>
            <rect id="Rectángulo_300691" data-name="Rectángulo 300691" width="61.478" height="44.665" transform="translate(332.643 95.173)" fill="#f5f5f5"/>
            <rect id="Rectángulo_300692" data-name="Rectángulo 300692" width="61.478" height="4.539" transform="translate(332.643 95.173)" fill="#e0e0e0"/>
            <rect id="Rectángulo_300693" data-name="Rectángulo 300693" width="9.823" height="9.823" transform="translate(340.246 106.289)" fill="#e0e0e0"/>
            <rect id="Rectángulo_300694" data-name="Rectángulo 300694" width="9.823" height="9.823" transform="translate(340.246 121.024)" fill="#e0e0e0"/>
            <rect id="Rectángulo_300695" data-name="Rectángulo 300695" width="21.493" height="2.664" transform="translate(355.881 109.869)" fill="#e0e0e0"/>
            <rect id="Rectángulo_300696" data-name="Rectángulo 300696" width="21.493" height="2.664" transform="translate(355.881 124.354)" fill="#e0e0e0"/>
            <rect id="Rectángulo_300697" data-name="Rectángulo 300697" width="45.356" height="28.416" transform="translate(348.765 40.196)" fill="#e0e0e0"/>
            <rect id="Rectángulo_300698" data-name="Rectángulo 300698" width="45.356" height="5.464" transform="translate(348.765 40.196)" fill="#ebebeb"/>
            <rect id="Rectángulo_300699" data-name="Rectángulo 300699" width="6.437" height="6.437" transform="translate(359.919 53.209) rotate(-0.935)" fill="#f5f5f5"/>
            <rect id="Rectángulo_300700" data-name="Rectángulo 300700" width="6.437" height="6.437" transform="translate(358.401 54.761) rotate(-0.935)" fill="#e0e0e0"/>
            <rect id="Rectángulo_300701" data-name="Rectángulo 300701" width="6.437" height="6.437" transform="translate(356.858 56.021) rotate(-0.935)" fill="#f5f5f5"/>
            <rect id="Rectángulo_300702" data-name="Rectángulo 300702" width="15.559" height="2.449" transform="translate(372.539 55.906)" fill="#f5f5f5"/>
          </g>
        </g>
        <rect id="Rectángulo_300704" data-name="Rectángulo 300704" width="260.385" height="239.141" transform="translate(65.487 0.147)" fill="#fff"/>
        <g id="Grupo_890017" data-name="Grupo 890017">
          <g id="Grupo_890016" data-name="Grupo 890016" clip-path="url(#clip-path)">
            <path id="Trazado_606788" data-name="Trazado 606788" d="M376.29,239.29c0-1.06-.05-95.346-.125-239.142l.125.125L115.93.295h-.024l.147-.147c-.007,87.145-.013,169.07-.018,239.142l-.129-.129,260.384.129-260.384.129h-.129v-.129c-.005-70.072-.011-152-.018-239.142V0h.171L376.29.022h.125V.148c-.075,143.8-.125,238.083-.125,239.142" transform="translate(-50.419 0)" fill="#263238"/>
            <rect id="Rectángulo_300705" data-name="Rectángulo 300705" width="260.384" height="11.354" transform="translate(65.487 0.151)" fill="#263238"/>
            <path id="Trazado_606789" data-name="Trazado 606789" d="M128.287,7.871a1.573,1.573,0,0,1-3.14,0,1.573,1.573,0,0,1,3.14,0" transform="translate(-54.508 -2.786)" fill="#fff"/>
            <path id="Trazado_606790" data-name="Trazado 606790" d="M139.4,7.871a1.573,1.573,0,0,1-3.14,0,1.573,1.573,0,0,1,3.14,0" transform="translate(-59.346 -2.786)" fill="#fff"/>
            <path id="Trazado_606791" data-name="Trazado 606791" d="M150.5,7.871a1.573,1.573,0,0,1-3.14,0,1.573,1.573,0,0,1,3.14,0" transform="translate(-64.184 -2.786)" fill="#fff"/>
          </g>
        </g>
        <g id="Grupo_890040" data-name="Grupo 890040">
          <g id="Grupo_890039" data-name="Grupo 890039" clip-path="url(#clip-path)">
            <path id="Trazado_606792" data-name="Trazado 606792" d="M301.513,158.016a11.532,11.532,0,0,1-6.568,3.44c-1.7.2-3.44-.119-5.133.151a7.483,7.483,0,0,0-4.3,12.479,2.342,2.342,0,0,0,2.068.936,2.721,2.721,0,0,0,1.122-.681l9.055-7.766,8.544-14.243a33.354,33.354,0,0,1-4.785,5.684" transform="translate(-123.491 -66.348)" fill="#1565c0"/>
            <g id="Grupo_890020" data-name="Grupo 890020" transform="translate(160.54 101.984)" opacity="0.3">
              <g id="Grupo_890019" data-name="Grupo 890019">
                <g id="Grupo_890018" data-name="Grupo 890018" clip-path="url(#clip-path-5)">
                  <path id="Trazado_606793" data-name="Trazado 606793" d="M291.1,185.011a14.876,14.876,0,0,0-2.728-3.14c-.643-.595-1.216-1.3-2.084-1.18a2.3,2.3,0,0,0-1.816,1.887,3.96,3.96,0,0,0,.582,2.675,3.565,3.565,0,0,0,1.619,1.564,3.284,3.284,0,0,0,2.533-.375,7.953,7.953,0,0,0,1.893-1.431" transform="translate(-284.418 -180.678)"/>
                </g>
              </g>
            </g>
            <path id="Trazado_606794" data-name="Trazado 606794" d="M346.175,330.553,343.46,341.36s11.594,4.321,11.722,6.464l-22.426-.039,3.317-17.766Z" transform="translate(-144.932 -143.74)" fill="#fb8c00"/>
            <g id="Grupo_890023" data-name="Grupo 890023" transform="translate(190.941 196.599)" opacity="0.6">
              <g id="Grupo_890022" data-name="Grupo 890022">
                <g id="Grupo_890021" data-name="Grupo 890021" clip-path="url(#clip-path-6)">
                  <path id="Trazado_606795" data-name="Trazado 606795" d="M338.932,348.34a.916.916,0,0,0-.635,1.044.88.88,0,0,0,1.029.638.966.966,0,0,0,.667-1.109.914.914,0,0,0-1.145-.546" transform="translate(-338.278 -348.302)" fill="#fff"/>
                </g>
              </g>
            </g>
            <g id="Grupo_890026" data-name="Grupo 890026" transform="translate(187.824 202.237)" opacity="0.6">
              <g id="Grupo_890025" data-name="Grupo 890025">
                <g id="Grupo_890024" data-name="Grupo 890024" clip-path="url(#clip-path-7)">
                  <path id="Trazado_606796" data-name="Trazado 606796" d="M332.756,360.1l.338-1.808L354.3,359s1,.436.883,1.139Z" transform="translate(-332.756 -358.291)" fill="#fff"/>
                </g>
              </g>
            </g>
            <path id="Trazado_606797" data-name="Trazado 606797" d="M350.193,350.267c0,.11-.551.158-1.091.51s-.827.811-.928.767c-.1-.021.064-.676.724-1.089s1.319-.288,1.295-.187" transform="translate(-151.636 -152.515)" fill="#263238"/>
            <path id="Trazado_606798" data-name="Trazado 606798" d="M355.064,352.123c.025.106-.45.292-.822.754s-.481.952-.59.947c-.1.017-.178-.624.3-1.19s1.114-.615,1.116-.511" transform="translate(-154 -153.348)" fill="#263238"/>
            <path id="Trazado_606799" data-name="Trazado 606799" d="M358.5,355.7c-.1.023-.251-.524.031-1.123s.795-.837.841-.746c.062.09-.271.411-.5.907s-.268.952-.376.962" transform="translate(-156.087 -154.102)" fill="#263238"/>
            <path id="Trazado_606800" data-name="Trazado 606800" d="M351.036,345.688c-.055.095-.541-.1-1.161-.119s-1.119.133-1.167.034.45-.444,1.181-.415,1.209.418,1.148.5" transform="translate(-151.878 -150.346)" fill="#263238"/>
            <path id="Trazado_606801" data-name="Trazado 606801" d="M212.044,299.111l-11.2,3.406s1.62,12.267-.212,13.384l-10.482-19.826,17.247-5.4Z" transform="translate(-82.821 -126.604)" fill="#fb8c00"/>
            <g id="Grupo_890029" data-name="Grupo 890029" transform="translate(114.14 169.059)" opacity="0.6">
              <g id="Grupo_890028" data-name="Grupo 890028">
                <g id="Grupo_890027" data-name="Grupo 890027" clip-path="url(#clip-path-8)">
                  <path id="Trazado_606802" data-name="Trazado 606802" d="M203.719,299.781a.916.916,0,0,0-1.22-.071.88.88,0,0,0-.081,1.208.966.966,0,0,0,1.292.069.914.914,0,0,0-.055-1.267" transform="translate(-202.215 -299.511)" fill="#fff"/>
                </g>
              </g>
            </g>
            <g id="Grupo_890032" data-name="Grupo 890032" transform="translate(107.332 168.923)" opacity="0.6">
              <g id="Grupo_890031" data-name="Grupo 890031">
                <g id="Grupo_890030" data-name="Grupo 890030" clip-path="url(#clip-path-9)">
                  <path id="Trazado_606803" data-name="Trazado 606803" d="M190.153,299.82l1.755-.55,9.318,19.061s.082,1.085-.592,1.315Z" transform="translate(-190.153 -299.27)" fill="#fff"/>
                </g>
              </g>
            </g>
            <path id="Trazado_606804" data-name="Trazado 606804" d="M207.316,310.807c-.1.048-.4-.413-.961-.725s-1.1-.35-1.113-.459c-.028-.1.627-.261,1.3.129s.872,1.03.772,1.056" transform="translate(-89.393 -134.805)" fill="#263238"/>
            <path id="Trazado_606805" data-name="Trazado 606805" d="M207.725,315.98c-.082.072-.468-.26-1.052-.373-.58-.13-1.067.021-1.114-.077-.063-.083.468-.45,1.191-.3s1.065.695.974.746" transform="translate(-89.53 -137.284)" fill="#263238"/>
            <path id="Trazado_606806" data-name="Trazado 606806" d="M206.1,320.649c-.067-.077.345-.468,1.007-.5s1.112.31,1.053.393-.491-.047-1.033-.012-.966.209-1.027.119" transform="translate(-89.763 -139.44)" fill="#263238"/>
            <path id="Trazado_606807" data-name="Trazado 606807" d="M212.4,309.119c-.11,0-.163-.526-.44-1.081s-.642-.926-.577-1.014c.049-.089.6.19.921.848s.2,1.264.1,1.247" transform="translate(-92.064 -133.717)" fill="#263238"/>
            <path id="Trazado_606808" data-name="Trazado 606808" d="M225.279,217.444l-5.626-10.262s-11.676,4.1-13.145,2.532l17.261-14.318,8.817,15.776Z" transform="translate(-89.945 -85.104)" fill="#ebebeb"/>
            <path id="Trazado_606809" data-name="Trazado 606809" d="M239.166,208.7a.915.915,0,0,0-.18-1.209.88.88,0,0,0-1.2.168.966.966,0,0,0,.2,1.279.914.914,0,0,0,1.229-.313" transform="translate(-103.5 -90.301)" fill="#e0e0e0"/>
            <path id="Trazado_606810" data-name="Trazado 606810" d="M223.77,195.395l.9,1.605-16.751,13.023s-1.045.3-1.408-.31Z" transform="translate(-89.945 -85.104)" fill="#e0e0e0"/>
            <path id="Trazado_606811" data-name="Trazado 606811" d="M229.6,214.373c-.067-.086.323-.475.513-1.089.206-.61.117-1.153.222-1.184.091-.048.384.56.141,1.3s-.829,1.065-.875.972" transform="translate(-99.999 -92.379)" fill="#e0e0e0"/>
            <path id="Trazado_606812" data-name="Trazado 606812" d="M225.018,215.865c-.087-.065.159-.512.15-1.106.008-.594-.239-1.04-.152-1.106.068-.078.536.366.533,1.105s-.462,1.185-.531,1.106" transform="translate(-97.997 -93.053)" fill="#e0e0e0"/>
            <path id="Trazado_606813" data-name="Trazado 606813" d="M219.991,215.253c.062-.081.528.242.695.883s-.076,1.152-.169,1.111-.055-.49-.2-1.014-.4-.9-.326-.98" transform="translate(-95.811 -93.748)" fill="#e0e0e0"/>
            <path id="Trazado_606814" data-name="Trazado 606814" d="M231.521,218.992c-.019-.108.481-.268.969-.652s.774-.818.875-.773c.1.029-.062.629-.642,1.074s-1.2.452-1.2.351" transform="translate(-100.839 -94.76)" fill="#e0e0e0"/>
            <path id="Trazado_606815" data-name="Trazado 606815" d="M266.289,242.175s-3.654-3.548-5.77-3.719S242.5,212.544,242.5,212.544l-10.447,5.436s15.52,32.038,18.143,33.787l3.791,2.374Z" transform="translate(-101.072 -92.574)" fill="#e0e0e0"/>
            <path id="Trazado_606816" data-name="Trazado 606816" d="M272.987,271.2a5.381,5.381,0,0,1,1.2-.751,19.6,19.6,0,0,1,3.159-1.32,18,18,0,0,1,4.441-.871l.01.1c-.206,0-.31-.011-.312-.029s.1-.042.3-.071l.01.1a34.446,34.446,0,0,0-4.363,1.05,28.847,28.847,0,0,0-3.158,1.227,9.109,9.109,0,0,1-1.295.565" transform="translate(-118.899 -116.84)" fill="#e0e0e0"/>
            <path id="Trazado_606817" data-name="Trazado 606817" d="M273.487,268.986a16.708,16.708,0,0,1,5.353-4.539c.047.073-1.255.956-2.728,2.209s-2.561,2.388-2.625,2.329" transform="translate(-119.116 -115.178)" fill="#e0e0e0"/>
            <path id="Trazado_606818" data-name="Trazado 606818" d="M284.5,266.115c-.078.037-.366-.471-.881-.944s-1.035-.733-1-.813a1.746,1.746,0,0,1,1.2.6c.564.522.754,1.136.681,1.159" transform="translate(-123.093 -115.133)" fill="#e0e0e0"/>
            <path id="Trazado_606819" data-name="Trazado 606819" d="M249.583,216.272a162.053,162.053,0,0,0,17.681,26.908" transform="translate(-108.706 -94.197)" fill="#ebebeb"/>
            <path id="Trazado_606820" data-name="Trazado 606820" d="M267.263,243.18a1.382,1.382,0,0,1-.227-.237l-.609-.716c-.525-.625-1.266-1.546-2.163-2.7-1.8-2.3-4.185-5.557-6.634-9.281s-4.486-7.213-5.887-9.774c-.7-1.28-1.253-2.326-1.617-3.056l-.417-.843a.165.165,0,1,1,.052-.028l.465.817,1.7,3.008c1.446,2.533,3.51,5.994,5.952,9.714s4.8,6.984,6.553,9.317l2.088,2.752.565.751a1.409,1.409,0,0,1,.182.274" transform="translate(-108.705 -94.197)" fill="#e0e0e0"/>
            <path id="Trazado_606821" data-name="Trazado 606821" d="M208.909,252.1l-9.818-6.369s-8.339,9.141-10.374,8.459l8.411-20.789,15.242,9.712Z" transform="translate(-82.196 -101.659)" fill="#f5f5f5"/>
            <path id="Trazado_606822" data-name="Trazado 606822" d="M211.977,243.74a.916.916,0,0,0-.732-.979.879.879,0,0,0-.976.716.965.965,0,0,0,.779,1.032c.45.021.982-.41.934-.857" transform="translate(-91.58 -105.731)" fill="#e0e0e0"/>
            <path id="Trazado_606823" data-name="Trazado 606823" d="M197.128,233.4l1.551.988L190.1,253.8s-.777.763-1.386.395Z" transform="translate(-82.196 -101.659)" fill="#e0e0e0"/>
            <path id="Trazado_606824" data-name="Trazado 606824" d="M206.517,253.385c-.1-.045.059-.571-.065-1.2-.107-.635-.443-1.07-.365-1.148.058-.085.6.312.741,1.079s-.226,1.33-.31,1.271" transform="translate(-89.756 -109.334)" fill="#e0e0e0"/>
            <path id="Trazado_606825" data-name="Trazado 606825" d="M202.706,257.128c-.108-.016-.1-.526-.392-1.045s-.7-.8-.659-.9c.023-.1.646.068.994.72s.155,1.263.057,1.226" transform="translate(-87.83 -111.133)" fill="#e0e0e0"/>
            <path id="Trazado_606826" data-name="Trazado 606826" d="M197.99,258.966c.016-.1.58-.037,1.031.449s.48,1.05.378,1.058c-.107.024-.281-.405-.656-.8s-.783-.6-.752-.709" transform="translate(-86.234 -112.775)" fill="#e0e0e0"/>
            <path id="Trazado_606827" data-name="Trazado 606827" d="M210.418,256.147c-.068-.086.3-.463.544-1.033s.295-1.088.4-1.1.244.584-.056,1.251-.84.965-.892.878" transform="translate(-91.644 -110.638)" fill="#e0e0e0"/>
            <path id="Trazado_606828" data-name="Trazado 606828" d="M253.493,256.932s-4.9-1.392-6.843-.54S218.5,242.116,218.5,242.116l-6.622,9.738S239,270.073,242.136,270.37l8.461-2.923Z" transform="translate(-92.285 -105.454)" fill="#ebebeb"/>
            <path id="Trazado_606829" data-name="Trazado 606829" d="M272.236,279.916a5.414,5.414,0,0,1,.7-1.232,19.645,19.645,0,0,1,2.156-2.66,17.991,17.991,0,0,1,3.5-2.872l.056.084c-.182.1-.279.137-.288.122s.069-.085.234-.207l.056.084a34.423,34.423,0,0,0-3.343,2.993,29,29,0,0,0-2.2,2.577,9.049,9.049,0,0,1-.872,1.111" transform="translate(-118.571 -118.971)" fill="#e0e0e0"/>
            <path id="Trazado_606830" data-name="Trazado 606830" d="M272.206,278.991a16.712,16.712,0,0,1,2.562-6.534c.076.042-.652,1.437-1.355,3.238s-1.123,3.317-1.207,3.3" transform="translate(-118.555 -118.669)" fill="#e0e0e0"/>
            <path id="Trazado_606831" data-name="Trazado 606831" d="M278.9,273.105c-.051.069-.545-.241-1.223-.414s-1.259-.155-1.269-.24a1.746,1.746,0,0,1,1.344-.045c.744.193,1.2.643,1.149.7" transform="translate(-120.387 -118.606)" fill="#e0e0e0"/>
            <path id="Trazado_606832" data-name="Trazado 606832" d="M252.84,261.176a1.343,1.343,0,0,1-.313-.1l-.876-.343c-.759-.3-1.847-.76-3.184-1.35-2.672-1.176-6.318-2.91-10.24-5.028s-7.369-4.224-9.817-5.816c-1.224-.8-2.205-1.454-2.872-1.924l-.766-.545a.165.165,0,1,1,.033-.049l.8.5,2.921,1.844c2.473,1.545,5.931,3.614,9.845,5.732s7.539,3.874,10.186,5.1l3.143,1.434.853.393a1.376,1.376,0,0,1,.29.156" transform="translate(-97.788 -107.086)" fill="#e0e0e0"/>
            <path id="Trazado_606833" data-name="Trazado 606833" d="M256.907,185.062s-4.4,5.484-5.292,6.818-9.342,33.515-9.342,33.515-3.994,3.16-4.439,5.236S209.8,245.119,209.8,245.119l4.03,11.066s33.786-11.214,35.862-13.587S269.56,213.68,269.56,213.68l18.257,24.665s-4.074,11.874-4.91,16.116c-.851,4.317-4.076,18.676-4.076,18.676l12.523-.485s8.743-25.837,11.116-30.879,1.643-8.074.309-10.743L287.5,200.482l.517-2.032Z" transform="translate(-91.377 -80.604)" fill="#263238"/>
            <path id="Trazado_606834" data-name="Trazado 606834" d="M271.728,270.133a5.386,5.386,0,0,1-.588-1.291,19.59,19.59,0,0,1-.9-3.3,17.975,17.975,0,0,1-.285-4.516l.1,0q-.043.306-.07.3c-.017,0-.028-.106-.031-.311l.1,0a34.356,34.356,0,0,0,.473,4.463,28.973,28.973,0,0,0,.8,3.29,9.1,9.1,0,0,1,.392,1.357" transform="translate(-117.563 -113.687)" fill="#455a64"/>
            <path id="Trazado_606835" data-name="Trazado 606835" d="M269.28,271.987a16.691,16.691,0,0,1-3.8-5.9c.079-.037.785,1.369,1.836,2.993s2.034,2.849,1.968,2.906" transform="translate(-115.626 -115.895)" fill="#455a64"/>
            <path id="Trazado_606836" data-name="Trazado 606836" d="M357.633,276.913a8.894,8.894,0,0,0-6.089.958,2.2,2.2,0,0,1,.754-.57,6.53,6.53,0,0,1,4.442-.7,2.2,2.2,0,0,1,.893.31" transform="translate(-153.115 -120.42)" fill="#455a64"/>
            <path id="Trazado_606837" data-name="Trazado 606837" d="M355.237,279.069c-.027.086-1.105-.251-2.473-.242s-2.446.336-2.473.25a5.94,5.94,0,0,1,4.946-.008" transform="translate(-152.569 -121.315)" fill="#455a64"/>
            <path id="Trazado_606838" data-name="Trazado 606838" d="M320.333,221.736a8.32,8.32,0,0,1-.752,1.446c-.5.87-1.233,2.055-2.087,3.33s-1.672,2.4-2.285,3.2a8.223,8.223,0,0,1-1.05,1.246,9.73,9.73,0,0,1,.883-1.368l2.209-3.239,2.153-3.276a9.745,9.745,0,0,1,.93-1.337" transform="translate(-136.831 -96.577)" fill="#455a64"/>
            <path id="Trazado_606839" data-name="Trazado 606839" d="M270.973,230.406a2.458,2.458,0,0,1,.128-.427c.089-.278.243-.678.41-1.206.354-1.047.822-2.577,1.324-4.487s1.021-4.207,1.552-6.767,1.089-5.382,1.778-8.325a68.71,68.71,0,0,1,2.416-8.174,39.428,39.428,0,0,1,2.957-6.3,28.141,28.141,0,0,1,2.69-3.845c.345-.435.655-.736.848-.954a2.564,2.564,0,0,1,.314-.314,2.481,2.481,0,0,1-.27.354c-.178.23-.474.542-.8.986a31.19,31.19,0,0,0-2.6,3.877,40.971,40.971,0,0,0-2.883,6.292,71.7,71.7,0,0,0-2.384,8.147c-.687,2.936-1.249,5.756-1.8,8.314s-1.085,4.855-1.617,6.764-1.03,3.434-1.417,4.471c-.184.523-.356.918-.462,1.189a2.472,2.472,0,0,1-.183.406" transform="translate(-118.022 -82.583)" fill="#455a64"/>
            <path id="Trazado_606840" data-name="Trazado 606840" d="M267.336,263.509c.026.082-.514.3-1.051.751s-.861.93-.936.889.154-.629.75-1.116a1.749,1.749,0,0,1,1.238-.524" transform="translate(-115.567 -114.762)" fill="#455a64"/>
            <path id="Trazado_606841" data-name="Trazado 606841" d="M242.347,268.069a1.384,1.384,0,0,1-.265.195l-.79.51c-.687.44-1.7,1.054-2.956,1.794-2.517,1.48-6.055,3.424-10.066,5.368s-7.735,3.509-10.457,4.564c-1.361.529-2.469.939-3.241,1.206l-.89.3a1.373,1.373,0,0,1-.317.086,1.4,1.4,0,0,1,.3-.142l.87-.354,3.2-1.291c2.7-1.1,6.4-2.7,10.406-4.636s7.551-3.852,10.091-5.284l3-1.711.818-.462a1.389,1.389,0,0,1,.3-.144" transform="translate(-92.931 -116.757)" fill="#455a64"/>
            <path id="Trazado_606842" data-name="Trazado 606842" d="M299.867,199.337a2.864,2.864,0,0,1-.8.9,6.365,6.365,0,0,1-5.519,1.273,2.874,2.874,0,0,1-1.113-.459c.02-.047.444.127,1.157.256a7.011,7.011,0,0,0,5.348-1.233c.585-.428.888-.77.927-.737" transform="translate(-127.37 -86.82)" fill="#455a64"/>
            <path id="Trazado_606843" data-name="Trazado 606843" d="M339.017,257.008a1.417,1.417,0,0,1-.221-.247l-.586-.743c-.505-.649-1.223-1.6-2.1-2.778-1.751-2.361-4.118-5.661-6.636-9.372s-4.709-7.133-6.256-9.632c-.773-1.25-1.389-2.266-1.805-2.976l-.474-.82a.166.166,0,1,1,.051-.031l.52.791,1.884,2.924c1.59,2.47,3.807,5.869,6.323,9.578s4.854,7.024,6.561,9.415l2.021,2.831.542.776a1.431,1.431,0,0,1,.173.282" transform="translate(-139.721 -100.24)" fill="#455a64"/>
            <path id="Trazado_606844" data-name="Trazado 606844" d="M337.506,314.027a1.694,1.694,0,0,1,.033-.363l.151-1.032c.134-.9.355-2.187.651-3.779.59-3.184,1.521-7.563,2.773-12.344s2.595-9.054,3.644-12.117c.524-1.533.966-2.766,1.288-3.612l.375-.973a1.71,1.71,0,0,1,.149-.332,1.659,1.659,0,0,1-.094.353c-.083.256-.19.584-.323.991-.294.895-.7,2.129-1.2,3.64-1,3.077-2.3,7.352-3.557,12.127s-2.212,9.138-2.853,12.309c-.308,1.56-.56,2.835-.743,3.759l-.2,1.022a1.7,1.7,0,0,1-.091.353" transform="translate(-146.999 -121.725)" fill="#455a64"/>
            <path id="Trazado_606845" data-name="Trazado 606845" d="M398.725,182.263l-.014,7.066,10.637-15.514,5.437,1.749s-6.619,17.3-10.4,20.541a12.278,12.278,0,0,1-8.451,2.778l-1.668-5.072,2.866-11.826Z" transform="translate(-171.722 -75.705)" fill="#e0e0e0"/>
            <path id="Trazado_606846" data-name="Trazado 606846" d="M425.658,167.535l1.763-2.125,1.606-1.64c.2-.213.354-.391.453-.514a2.162,2.162,0,0,0,.221-2.013l.257-1.1a1.414,1.414,0,0,0-.611-1.584,28.386,28.386,0,0,1,2.824-2.984c1.361-1.162,1.466-1.541.706-1.908s-5.4,3.479-5.4,3.479.773-2.037,1.441-3.9c.676-1.881-.268-2.025-.66-1.83-.492.246-1.955,3.123-2.886,5.034-.473.971-.809,1.694-.809,1.694s-1.289.869-2.082,1.534a3.19,3.19,0,0,0-.561.556,29.4,29.4,0,0,0-1.107,4L420.2,165.8" transform="translate(-183.017 -65.921)" fill="#e0e0e0"/>
            <path id="Trazado_606847" data-name="Trazado 606847" d="M425.561,170.1a.808.808,0,0,0,.279-.1,2.338,2.338,0,0,0,.675-.5,2.418,2.418,0,0,0,.61-1.153,2.53,2.53,0,0,0-.218-1.672l-.146.1a4.52,4.52,0,0,0,1.4,1.08,1.94,1.94,0,0,0,1.942-.134c.041-.031.078-.068.115-.1l.068-.058-.056-.077-1.758-2.387a3.145,3.145,0,0,0-.447-.517,1.145,1.145,0,0,0-.6-.285,1.823,1.823,0,0,0-1.122.275,9.308,9.308,0,0,0-.77.525,3.517,3.517,0,0,1-.592.351,2.789,2.789,0,0,1-.563.16.368.368,0,0,0,.156.01,1.432,1.432,0,0,0,.437-.1,3.2,3.2,0,0,0,.626-.33c.233-.146.479-.338.776-.493a1.7,1.7,0,0,1,1.026-.234,1.483,1.483,0,0,1,.922.746l1.744,2.4.012-.135c-.032.027-.063.058-.1.084a1.75,1.75,0,0,1-1.735.115,4.442,4.442,0,0,1-1.344-1.023l-.435-.443.289.548a2.4,2.4,0,0,1,.233,1.558,2.363,2.363,0,0,1-.543,1.11,3.266,3.266,0,0,1-.875.671" transform="translate(-184.835 -71.559)" fill="#ebebeb"/>
            <path id="Trazado_606848" data-name="Trazado 606848" d="M430.577,170.6c-.01-.01-.072.028-.176.112a1.634,1.634,0,0,0-.38.428.831.831,0,0,0-.006.873.622.622,0,0,0,.489.261,1.462,1.462,0,0,0,.549-.1,16.269,16.269,0,0,0,2.4-.992,16.471,16.471,0,0,0-2.468.8c-.321.121-.667.144-.817-.078a.7.7,0,0,1-.02-.695,2.129,2.129,0,0,1,.308-.439c.084-.1.129-.159.119-.169" transform="translate(-187.24 -74.304)" fill="#ebebeb"/>
            <path id="Trazado_606849" data-name="Trazado 606849" d="M433.577,168.453c.031.051.363-.11.8-.161s.8.018.816-.04a1.022,1.022,0,0,0-.842-.165c-.491.059-.809.323-.776.366" transform="translate(-188.844 -73.205)" fill="#ebebeb"/>
            <path id="Trazado_606850" data-name="Trazado 606850" d="M431.758,165.2c.038.047.456-.256,1.041-.474a5.057,5.057,0,0,1,.76-.221.577.577,0,0,1,.3.038c.011-.007.008-.049-.043-.1a.407.407,0,0,0-.265-.087,2.51,2.51,0,0,0-.826.175,1.826,1.826,0,0,0-.968.667" transform="translate(-188.051 -71.586)" fill="#ebebeb"/>
            <path id="Trazado_606851" data-name="Trazado 606851" d="M381.445,170.6c-.056,1.925-3.67,18.412-3.36,22.356s25.52,11.922,25.52,11.922l1.493-5.736-15.828-10.064,2.856-14.091Z" transform="translate(-164.667 -74.304)" fill="#ebebeb"/>
            <path id="Trazado_606852" data-name="Trazado 606852" d="M422.02,226.214l2.407,1.352,1.9,1.285c.244.155.448.278.588.353a2.16,2.16,0,0,0,2.02-.143l1.13.055a1.413,1.413,0,0,0,1.448-.886,28.393,28.393,0,0,1,3.443,2.242c1.388,1.131,1.78,1.166,2,.352s-4.393-4.688-4.393-4.688,2.143.395,4.092.718c1.972.327,1.945-.628,1.681-.978-.33-.439-3.423-1.363-5.47-1.935-1.04-.291-1.812-.491-1.812-.491s-1.087-1.112-1.882-1.772a3.2,3.2,0,0,0-.648-.453,29.454,29.454,0,0,0-4.138-.369l-1.643-.326" transform="translate(-183.811 -96.051)" fill="#ebebeb"/>
            <path id="Trazado_606853" data-name="Trazado 606853" d="M426.761,224.763a.792.792,0,0,0,.147.257,2.352,2.352,0,0,0,.612.574,2.415,2.415,0,0,0,1.243.393,2.526,2.526,0,0,0,1.605-.515l-.129-.125a4.527,4.527,0,0,0-.812,1.566,1.939,1.939,0,0,0,.481,1.886c.038.036.081.065.118.1l.069.056.065-.069,2.033-2.158a3.135,3.135,0,0,0,.428-.532,1.144,1.144,0,0,0,.172-.643,1.825,1.825,0,0,0-.472-1.054,9.289,9.289,0,0,0-.655-.663,3.46,3.46,0,0,1-.452-.52,2.791,2.791,0,0,1-.259-.526.366.366,0,0,0,.018.155,1.444,1.444,0,0,0,.174.413,3.229,3.229,0,0,0,.437.557c.186.2.418.41.624.674a1.7,1.7,0,0,1,.415.968,1.485,1.485,0,0,1-.568,1.041l-2.045,2.147.135-.012c-.032-.027-.068-.052-.1-.082a1.75,1.75,0,0,1-.424-1.686,4.446,4.446,0,0,1,.765-1.507l.357-.507-.487.383a2.4,2.4,0,0,1-1.491.509,2.365,2.365,0,0,1-1.189-.335,3.238,3.238,0,0,1-.816-.741" transform="translate(-185.876 -97.034)" fill="#e0e0e0"/>
            <path id="Trazado_606854" data-name="Trazado 606854" d="M430.223,229.731c.008-.011-.041-.066-.142-.153a1.633,1.633,0,0,0-.49-.3.831.831,0,0,0-.86.151.619.619,0,0,0-.169.528,1.462,1.462,0,0,0,.2.523,16.209,16.209,0,0,0,1.407,2.184,16.483,16.483,0,0,0-1.227-2.285c-.177-.294-.262-.629-.071-.817a.7.7,0,0,1,.68-.145,2.139,2.139,0,0,1,.487.224c.113.065.179.1.188.087" transform="translate(-186.658 -99.838)" fill="#e0e0e0"/>
            <path id="Trazado_606855" data-name="Trazado 606855" d="M433.774,232.22c-.045.04.174.338.3.759s.126.789.186.8a1.022,1.022,0,0,0,.011-.857c-.146-.472-.464-.738-.5-.7" transform="translate(-188.928 -101.142)" fill="#e0e0e0"/>
            <path id="Trazado_606856" data-name="Trazado 606856" d="M436.3,229.91c-.039.046.334.4.653.939a5,5,0,0,1,.356.708.582.582,0,0,1,.016.3c.008.009.049,0,.087-.06a.408.408,0,0,0,.039-.277,2.54,2.54,0,0,0-.321-.781c-.342-.571-.8-.877-.83-.833" transform="translate(-190.029 -100.135)" fill="#e0e0e0"/>
            <path id="Trazado_606857" data-name="Trazado 606857" d="M378.193,180.065c.246,1.91-2.19,17.392-1.267,21.239s10.406,18.2,10.406,18.2l4.865-2.232-5.574-20.741,2.77-14.16Z" transform="translate(-164.079 -78.427)" fill="#ffbe9d"/>
            <path id="Trazado_606858" data-name="Trazado 606858" d="M394.57,246.314l.766,2.979.572,2.223c.08.278.151.505.206.654a2.16,2.16,0,0,0,1.608,1.232l.809.791a1.414,1.414,0,0,0,1.671.3,28.4,28.4,0,0,1,1.091,3.961c.289,1.767.559,2.053,1.267,1.592s-.179-6.422-.179-6.422,1.342,1.716,2.587,3.251c1.259,1.552,1.872.82,1.907.383.045-.548-1.659-3.289-2.812-5.076-.586-.908-1.03-1.569-1.03-1.569s-.076-1.553-.234-2.575a3.2,3.2,0,0,0-.185-.768,29.455,29.455,0,0,0-2.852-3.02l-1.014-1.334" transform="translate(-171.855 -105.8)" fill="#ffbe9d"/>
            <path id="Trazado_606859" data-name="Trazado 606859" d="M400.481,249.511a.835.835,0,0,0-.06.291,2.34,2.34,0,0,0,.077.835,2.415,2.415,0,0,0,.67,1.119,2.526,2.526,0,0,0,1.543.679l-.014-.179a4.52,4.52,0,0,0-1.646.634,1.938,1.938,0,0,0-.891,1.731c.005.052.017.1.025.15l.015.089.1-.009,2.952-.268a3.136,3.136,0,0,0,.674-.114,1.152,1.152,0,0,0,.555-.368,1.828,1.828,0,0,0,.345-1.1,9.321,9.321,0,0,0-.051-.931,3.5,3.5,0,0,1,.006-.688,2.8,2.8,0,0,1,.155-.565s-.04.038-.089.128a1.445,1.445,0,0,0-.144.424,3.214,3.214,0,0,0-.042.706c0,.275.041.585.02.919a1.694,1.694,0,0,1-.331,1,1.484,1.484,0,0,1-1.115.4l-2.954.251.109.08c-.006-.041-.017-.084-.021-.128a1.749,1.749,0,0,1,.8-1.543,4.434,4.434,0,0,1,1.571-.62l.6-.143-.619-.037a2.4,2.4,0,0,1-1.453-.607,2.37,2.37,0,0,1-.668-1.04,3.269,3.269,0,0,1-.12-1.1" transform="translate(-174.286 -108.675)" fill="#eb996e"/>
            <path id="Trazado_606860" data-name="Trazado 606860" d="M400.2,254.593c.014,0,.014-.077-.005-.208a1.609,1.609,0,0,0-.169-.547.831.831,0,0,0-.744-.457.62.62,0,0,0-.476.283,1.454,1.454,0,0,0-.2.521,16.2,16.2,0,0,0-.4,2.568,16.547,16.547,0,0,0,.6-2.524c.062-.338.221-.645.489-.659a.7.7,0,0,1,.6.343,2.112,2.112,0,0,1,.217.491c.042.124.069.193.083.19" transform="translate(-173.436 -110.36)" fill="#eb996e"/>
            <path id="Trazado_606861" data-name="Trazado 606861" d="M401.533,258.607c-.06,0-.094.367-.277.769s-.428.673-.388.719.377-.183.577-.634a1.021,1.021,0,0,0,.089-.853" transform="translate(-174.596 -112.636)" fill="#eb996e"/>
            <path id="Trazado_606862" data-name="Trazado 606862" d="M405.064,258.55c-.059.008-.017.523-.134,1.136a5.006,5.006,0,0,1-.2.766c-.069.184-.188.21-.19.238,0,.012.037.032.106.013a.408.408,0,0,0,.212-.181,2.533,2.533,0,0,0,.278-.8,1.827,1.827,0,0,0-.069-1.174" transform="translate(-176.196 -112.611)" fill="#eb996e"/>
            <path id="Trazado_606863" data-name="Trazado 606863" d="M402.242,101.674a2.113,2.113,0,0,0-1.756-.041c-.57.2-1.085.534-1.645.763a2.346,2.346,0,0,1-1.763.116,2.6,2.6,0,0,0-.469-.19.413.413,0,0,0-.445.162.517.517,0,0,0,.015.411,2.576,2.576,0,0,0,.988,1.269l-1.92-.194a.6.6,0,0,0-.5.1.557.557,0,0,0-.041.549,3.739,3.739,0,0,0,1.962,2.24,4.447,4.447,0,0,0-1.356,1.271,1.519,1.519,0,0,0,.047,1.748,1.631,1.631,0,0,0,1.6.353,4.914,4.914,0,0,0,2.8-2.545,12.544,12.544,0,0,1,2.148-3.222" transform="translate(-171.892 -44.192)" fill="#263238"/>
            <path id="Trazado_606864" data-name="Trazado 606864" d="M413.219,85.583h0a9.793,9.793,0,0,0-12.606,6.178L396.371,104.3l-4.3,4.552,8.111,12.5c.716-1.778,7.418-7.986,7.418-7.986s5.192,1.312,7.322-3.531c1.026-2.335,2.748-7.31,4.255-11.838a9.9,9.9,0,0,0-5.96-12.413" transform="translate(-170.767 -37.025)" fill="#ffbe9d"/>
            <path id="Trazado_606865" data-name="Trazado 606865" d="M415.254,131.76a12.3,12.3,0,0,1-5.581-4.5s-.562,3.923,4.483,5.55Z" transform="translate(-178.425 -55.427)" fill="#eb996e"/>
            <path id="Trazado_606866" data-name="Trazado 606866" d="M433.8,112.273a.756.756,0,0,1-.969.417.722.722,0,0,1-.45-.931.756.756,0,0,1,.968-.418.723.723,0,0,1,.451.932" transform="translate(-188.305 -48.474)" fill="#263238"/>
            <path id="Trazado_606867" data-name="Trazado 606867" d="M434.274,110.371c-.125.054-.486-.56-1.235-.876s-1.457-.174-1.5-.3c-.023-.058.134-.184.448-.256a2.074,2.074,0,0,1,1.247.129,1.988,1.988,0,0,1,.935.811c.155.274.164.471.1.494" transform="translate(-187.957 -47.429)" fill="#263238"/>
            <path id="Trazado_606868" data-name="Trazado 606868" d="M421.033,107.5a.756.756,0,0,1-.969.417.722.722,0,0,1-.45-.931.756.756,0,0,1,.968-.418.723.723,0,0,1,.451.932" transform="translate(-182.743 -46.394)" fill="#263238"/>
            <path id="Trazado_606869" data-name="Trazado 606869" d="M421.138,105.08c-.125.054-.487-.56-1.236-.875s-1.456-.175-1.5-.3c-.023-.058.134-.184.448-.256a2.075,2.075,0,0,1,1.247.129,1.991,1.991,0,0,1,.935.811c.155.274.163.471.1.494" transform="translate(-182.235 -45.124)" fill="#263238"/>
            <path id="Trazado_606870" data-name="Trazado 606870" d="M423.882,113.174a5.385,5.385,0,0,1,1.308.3c.2.061.4.1.484-.017a1.052,1.052,0,0,0,.113-.62q.025-.808.054-1.7a27.17,27.17,0,0,1,.348-4.345,27.151,27.151,0,0,1,0,4.363c-.028.592-.055,1.155-.081,1.694a1.2,1.2,0,0,1-.22.792.52.52,0,0,1-.433.146,1.383,1.383,0,0,1-.344-.093,5.259,5.259,0,0,1-1.232-.522" transform="translate(-184.622 -46.514)" fill="#263238"/>
            <path id="Trazado_606871" data-name="Trazado 606871" d="M419.265,117.354c.125.045-.219.857.231,1.729s1.353,1.15,1.311,1.267c-.01.055-.26.076-.629-.07a2.2,2.2,0,0,1-1.114-1.011,1.915,1.915,0,0,1-.142-1.428c.113-.353.29-.515.343-.487" transform="translate(-182.428 -51.112)" fill="#263238"/>
            <path id="Trazado_606872" data-name="Trazado 606872" d="M423.049,100.058c-.16.172-.866-.242-1.789-.509-.918-.286-1.735-.33-1.773-.562-.015-.109.19-.248.56-.324a3.234,3.234,0,0,1,2.714.816c.267.267.361.5.288.579" transform="translate(-182.707 -42.952)" fill="#263238"/>
            <path id="Trazado_606873" data-name="Trazado 606873" d="M435.6,106.315c-.2.114-.644-.282-1.26-.553-.607-.294-1.193-.373-1.239-.6-.016-.108.139-.244.437-.307a1.993,1.993,0,0,1,2.013.93c.145.268.143.474.049.532" transform="translate(-188.636 -45.656)" fill="#263238"/>
            <path id="Trazado_606874" data-name="Trazado 606874" d="M421.959,104.467a1.17,1.17,0,0,0-.594-.452,30.01,30.01,0,0,0-4.354-1.313l-.59.087a12.729,12.729,0,0,0-.322,2.293,2.857,2.857,0,0,0,2.461,2.958,2.7,2.7,0,0,0,1.75-.13,3.814,3.814,0,0,0,1.588-2.317,1.351,1.351,0,0,0,.061-1.126" transform="translate(-181.231 -44.731)" fill="#263238"/>
            <path id="Trazado_606875" data-name="Trazado 606875" d="M421.792,105.361a.937.937,0,0,0-.469-.37,24,24,0,0,0-3.462-1.113l-.473.062a10.161,10.161,0,0,0-.29,1.829,2.285,2.285,0,0,0,1.925,2.4,2.156,2.156,0,0,0,1.4-.079,3.047,3.047,0,0,0,1.3-1.829,1.081,1.081,0,0,0,.065-.9" transform="translate(-181.667 -45.244)" fill="#455a64"/>
            <path id="Trazado_606876" data-name="Trazado 606876" d="M434.9,109.2a1.167,1.167,0,0,0-.594-.452A29.441,29.441,0,0,0,430.2,107.5a1.33,1.33,0,0,0-.5-.02l-.337.05a12.728,12.728,0,0,0-.322,2.293,2.857,2.857,0,0,0,2.462,2.959,2.7,2.7,0,0,0,1.75-.13,3.814,3.814,0,0,0,1.588-2.317,1.35,1.35,0,0,0,.061-1.126" transform="translate(-186.868 -46.805)" fill="#263238"/>
            <path id="Trazado_606877" data-name="Trazado 606877" d="M434.783,109.868a.937.937,0,0,0-.469-.37,24,24,0,0,0-3.462-1.113l-.473.062a10.164,10.164,0,0,0-.291,1.828,2.284,2.284,0,0,0,1.926,2.4,2.156,2.156,0,0,0,1.4-.079,3.048,3.048,0,0,0,1.3-1.829,1.081,1.081,0,0,0,.065-.9" transform="translate(-187.325 -47.207)" fill="#455a64"/>
            <path id="Trazado_606878" data-name="Trazado 606878" d="M406.758,102.562l6.059.078-.21.846-6.138-.067Z" transform="translate(-177.038 -44.671)" fill="#263238"/>
            <path id="Trazado_606879" data-name="Trazado 606879" d="M428.136,107.427l-1.85-.776.111-.821,2.394,1.069Z" transform="translate(-185.669 -46.094)" fill="#263238"/>
            <path id="Trazado_606880" data-name="Trazado 606880" d="M405.242,92.643s-1.31-10.248,7.282-12.363,9.552-.912,10.735,1.288,2.53,5.674,2.53,5.674,7.626-.82,7.838.325-5.492,2.883-5.492,2.883a19.134,19.134,0,0,0-4.5-1.1c-1.8-.238-6.049-.393-8.79-.473a12.662,12.662,0,0,0-4.369.532.872.872,0,0,0-.206.094Z" transform="translate(-176.472 -34.486)" fill="#fb8c00"/>
            <path id="Trazado_606881" data-name="Trazado 606881" d="M405.934,100.549c-.067-.072-2.908-2.432-4.241.932s2.321,4.009,2.365,3.914,1.876-4.847,1.876-4.847" transform="translate(-174.831 -43.415)" fill="#ffbe9d"/>
            <path id="Trazado_606882" data-name="Trazado 606882" d="M404.287,104.547c-.011-.017-.075.017-.192.024a.632.632,0,0,1-.442-.165,1.56,1.56,0,0,1-.156-1.567,2.083,2.083,0,0,1,.5-.774.729.729,0,0,1,.619-.275.322.322,0,0,1,.282.3c.008.112-.04.17-.025.183s.095-.028.122-.178a.4.4,0,0,0-.049-.263.479.479,0,0,0-.291-.214.886.886,0,0,0-.818.279,2.136,2.136,0,0,0-.575.857,1.637,1.637,0,0,0,.279,1.792.676.676,0,0,0,.571.123c.137-.042.185-.11.176-.121" transform="translate(-175.582 -44.248)" fill="#eb996e"/>
            <path id="Trazado_606883" data-name="Trazado 606883" d="M409.993,97.13c-1.685,1.083-2.729,1.745-4.332,1.384a.793.793,0,0,0-.724.211.609.609,0,0,0,.132.884,2.33,2.33,0,0,0,1.24.493.371.371,0,0,1,.278.1c.1.134-.035.315-.161.426l-1.631,1.433a2.112,2.112,0,0,0-.478.525.718.718,0,0,0-.041.682c.218.393.8.351,1.22.194a6.5,6.5,0,0,0,3.071-2.646,20.371,20.371,0,0,0,1.79-3.845Z" transform="translate(-176.053 -42.235)" fill="#263238"/>
            <path id="Trazado_606884" data-name="Trazado 606884" d="M414.457,95.481a2.714,2.714,0,0,1,.575-.3,13.372,13.372,0,0,1,1.662-.605,31.821,31.821,0,0,1,5.724-1.074c2.263-.24,4.322-.307,5.81-.314.745-.006,1.347.007,1.763.023a2.736,2.736,0,0,1,.646.056,2.739,2.739,0,0,1-.645.058l-1.758.07c-1.484.06-3.533.16-5.784.4a38.71,38.71,0,0,0-5.7.982c-1.433.375-2.272.755-2.293.707" transform="translate(-180.517 -40.587)" fill="#263238"/>
            <g id="Grupo_890035" data-name="Grupo 890035" transform="translate(236.971 52.954)" opacity="0.3">
              <g id="Grupo_890034" data-name="Grupo 890034">
                <g id="Grupo_890033" data-name="Grupo 890033" clip-path="url(#clip-path-10)">
                  <path id="Trazado_606885" data-name="Trazado 606885" d="M438.215,94.292a1.034,1.034,0,0,0-.849-.338,66.216,66.216,0,0,0-17.541,1.218c2.477.084,4.542.179,6.908.279a27.028,27.028,0,0,1,7.743,1.264,6.148,6.148,0,0,0,3.153-1.219,1.711,1.711,0,0,0,.548-.5.681.681,0,0,0,.038-.707" transform="translate(-419.826 -93.815)"/>
                </g>
              </g>
            </g>
            <path id="Trazado_606886" data-name="Trazado 606886" d="M439.968,97.644a2.119,2.119,0,0,0,1.636-1.3,8.27,8.27,0,0,1-2.48-.077,1.923,1.923,0,0,0,1.5-.842,12.306,12.306,0,0,1-5.8-.022,7.322,7.322,0,0,0-2.036-.187,2.291,2.291,0,0,0-1.8.818,8.217,8.217,0,0,1,1.342.352,4.866,4.866,0,0,1,1.384.675c1.082.853.762,2.68,1.692,3.7a1.885,1.885,0,0,0,3.25-.961,1.941,1.941,0,0,0,2.035.112.944.944,0,0,0,.555-.94c-.138-.618-1.1-.722-1.287-1.328" transform="translate(-187.72 -41.464)" fill="#263238"/>
            <path id="Trazado_606887" data-name="Trazado 606887" d="M412.4,88.588a5.589,5.589,0,0,1,.1-1.348,12.088,12.088,0,0,1,.83-3.167,6.2,6.2,0,0,1,2.022-2.582,2.678,2.678,0,0,1,1.238-.563c.02.049-.475.217-1.113.729a6.709,6.709,0,0,0-1.878,2.534,15.269,15.269,0,0,0-.895,3.084,6.787,6.787,0,0,1-.309,1.313" transform="translate(-179.615 -35.247)" fill="#263238"/>
            <path id="Trazado_606888" data-name="Trazado 606888" d="M427.347,85.987a4.847,4.847,0,0,1-.309-1.065,12.119,12.119,0,0,0-.864-2.482,5.751,5.751,0,0,0-1.63-2c-.535-.4-.939-.54-.922-.586a2.081,2.081,0,0,1,1.04.415,5.2,5.2,0,0,1,1.773,2.042,9.283,9.283,0,0,1,.8,2.572,3.7,3.7,0,0,1,.106,1.107" transform="translate(-184.509 -34.776)" fill="#263238"/>
            <path id="Trazado_606889" data-name="Trazado 606889" d="M421.125,107.745c.015.08-.484.243-1.116.364a2.429,2.429,0,0,1-1.171.076c-.016-.08.484-.243,1.116-.364a2.44,2.44,0,0,1,1.172-.076" transform="translate(-182.425 -46.91)" fill="#263238"/>
            <path id="Trazado_606890" data-name="Trazado 606890" d="M422.227,106.771c.015.08-.484.243-1.116.364a2.423,2.423,0,0,1-1.172.076c-.016-.08.484-.243,1.116-.364a2.44,2.44,0,0,1,1.172-.076" transform="translate(-182.905 -46.485)" fill="#263238"/>
            <path id="Trazado_606891" data-name="Trazado 606891" d="M434.513,112.774c.011.08-.382.2-.878.267s-.906.056-.917-.024.382-.2.878-.267.907-.056.917.024" transform="translate(-188.47 -49.089)" fill="#263238"/>
            <path id="Trazado_606892" data-name="Trazado 606892" d="M434.847,111.516a5.254,5.254,0,0,1-2.985.375,15.394,15.394,0,0,1,2.985-.375" transform="translate(-188.098 -48.558)" fill="#263238"/>
            <path id="Trazado_606893" data-name="Trazado 606893" d="M431.94,112.878a1.426,1.426,0,0,1-.706-.212,2.587,2.587,0,0,1-1.28-3.081,1.428,1.428,0,0,1,.348-.65c.027.015-.124.254-.227.683a2.646,2.646,0,0,0,1.22,2.939c.377.229.653.291.645.321" transform="translate(-187.216 -47.446)" fill="#fff"/>
            <path id="Trazado_606894" data-name="Trazado 606894" d="M417.609,107.482a2.662,2.662,0,0,1-.19-2.817,4.473,4.473,0,0,0,.19,2.817" transform="translate(-181.669 -45.587)" fill="#fff"/>
            <path id="Trazado_606895" data-name="Trazado 606895" d="M379.188,172.385l-1.293,4.651,14.242,2.488,2.5-12.217Z" transform="translate(-164.592 -72.87)" fill="#1565c0"/>
            <path id="Trazado_606896" data-name="Trazado 606896" d="M357.773,145.554l-21.447,11.515-11.285,12.9s-18.884-2.073-22.339-4.376-9.442-10.363-9.442-10.363,11.857-11.054,15.256-15.66,7.313-7.139,8.465-8.751,17.042-13.357,27.406-13.357c0,0,5.739-.693,8.261,1.666,0,0,5.212,14.43,5.52,15.075s-.393,11.356-.393,11.356" transform="translate(-127.73 -51.118)" fill="#1565c0"/>
            <g id="Grupo_890038" data-name="Grupo 890038" transform="translate(190.647 78.028)" opacity="0.3">
              <g id="Grupo_890037" data-name="Grupo 890037">
                <g id="Grupo_890036" data-name="Grupo 890036" clip-path="url(#clip-path-11)">
                  <path id="Trazado_606897" data-name="Trazado 606897" d="M337.758,160.069c3.08-3.54,2.182-9.281,5.069-12.981a11.52,11.52,0,0,1,5.818-3.594c2.212-.685,4.518-1.031,6.73-1.716a25.5,25.5,0,0,0,7.1-3.54l-9.465,2.335a3,3,0,0,1-1.373.119,4.913,4.913,0,0,1-1.545-.957c-1.8-1.234-4.228-.733-6.343-.185-1.755.456-3.681,1.031-4.634,2.574a7.5,7.5,0,0,0-.671,4.166,86.912,86.912,0,0,1-.65,12.856" transform="translate(-337.758 -138.237)"/>
                </g>
              </g>
            </g>
            <path id="Trazado_606898" data-name="Trazado 606898" d="M358.2,117.184s12.293-2.777,15.829-2.595c4.624.237,7.4,4.6,7.4,4.6v8.1l-21.289,4.4Z" transform="translate(-156.013 -49.906)" fill="#1565c0"/>
            <path id="Trazado_606899" data-name="Trazado 606899" d="M393.4,126.727c-.049-.015.109-.549.226-1.43a11.16,11.16,0,0,0-1.207-6.71c-.418-.785-.751-1.231-.711-1.262a4.407,4.407,0,0,1,.891,1.159,9.89,9.89,0,0,1,1.232,6.845,4.432,4.432,0,0,1-.432,1.4" transform="translate(-170.607 -51.101)" fill="#263238"/>
            <path id="Trazado_606900" data-name="Trazado 606900" d="M291.582,186.018a8.387,8.387,0,0,1-1-1.213c-.59-.77-1.389-1.851-2.256-3.047a2.765,2.765,0,0,0-.714-.729,1.314,1.314,0,0,0-.873-.187,2.114,2.114,0,0,0-1.354.8,5.221,5.221,0,0,0-.6.953c-.123.24-.192.375-.212.367a1.079,1.079,0,0,1,.107-.413,4.118,4.118,0,0,1,.54-1.036,2.274,2.274,0,0,1,1.482-.938,1.574,1.574,0,0,1,1.06.211,2.971,2.971,0,0,1,.8.8c.871,1.2,1.64,2.3,2.188,3.1a8.381,8.381,0,0,1,.836,1.335" transform="translate(-123.943 -78.641)" fill="#263238"/>
            <path id="Trazado_606901" data-name="Trazado 606901" d="M372.015,141.143a96.083,96.083,0,0,1-10.417,2.139,96.083,96.083,0,0,1,10.417-2.139" transform="translate(-157.494 -61.471)" fill="#263238"/>
            <path id="Trazado_606902" data-name="Trazado 606902" d="M391.154,169.083c.036.073-4.088,2.191-9.21,4.731s-9.3,4.54-9.341,4.468,4.087-2.191,9.211-4.732,9.3-4.54,9.34-4.468" transform="translate(-162.288 -73.643)" fill="#263238"/>
            <path id="Trazado_606903" data-name="Trazado 606903" d="M343.334,120.381s-16.46,3.462-17.592,5.782c-1.278,2.622-1.875,31.684-1.875,31.684l6.772.285s4.378-23,4.344-23.328l9.988-2.162Z" transform="translate(-141.06 -52.432)" fill="#ffbe9d"/>
            <path id="Trazado_606904" data-name="Trazado 606904" d="M322.952,185.382s-1.013,6.022-.778,6.7-.9,6.894-.035,7.108.485-.191.78-1.154.487-3.374.91-3.306-.142,7.549.112,7.855.411,1,.875.165c0,0,.279,1.243,1,1.164a1.5,1.5,0,0,0,1.457-1.144c.093-.674,1.168-6.057,1.168-6.057s-1.108,5.961-.512,6.072.476.3,1.07-.322,1.517-4.5,1.517-4.5l.163-4.722s.793,3.527,1.321,4.062,1.617,1.023,2.152.5.041-.907-.332-1.476-1.351-4.919-1.7-5.739-2.854-5.071-2.854-5.071Z" transform="translate(-140.164 -80.743)" fill="#ffbe9d"/>
            <path id="Trazado_606905" data-name="Trazado 606905" d="M208.862,356.423c-.842.505,6.245,4.844,13.454,5.881,4.88.7,93.48-.155,93.48-.155s5.052,0,4.378-1.179-4.205-1.562-6.736-1.534c-1.651.019-84.214.359-88.242,0-5.71-.509-15.492-3.518-16.335-3.012" transform="translate(-90.94 -155.215)" fill="#12263f"/>
            <path id="Trazado_606906" data-name="Trazado 606906" d="M320.073,360.519s-.1.01-.288.015l-.846.014-3.252.026-11.958.04-39.451.02-40.318-.069h-.008a38.2,38.2,0,0,1-11.011-2.681,29.1,29.1,0,0,1-3.723-1.794s.086.034.247.112l.713.351c.631.3,1.565.739,2.8,1.229a38.96,38.96,0,0,0,10.987,2.582h-.008l40.318-.023,39.451.066,11.958.054,3.252.029.846.015c.19.005.288.015.288.015" transform="translate(-91.125 -155.095)" fill="#263238"/>
            <path id="Trazado_606907" data-name="Trazado 606907" d="M361.155,371.739a4.363,4.363,0,1,1-4.363-4.363,4.363,4.363,0,0,1,4.363,4.363" transform="translate(-153.5 -160.011)" fill="#455a64"/>
            <path id="Trazado_606908" data-name="Trazado 606908" d="M360.941,371.98c-.033,0-.018-.35-.178-.945a3.917,3.917,0,0,0-1.436-2.095,3.815,3.815,0,0,0-3.606-.523,3.756,3.756,0,0,0-1.755,1.326,3.775,3.775,0,0,0,0,4.473,3.756,3.756,0,0,0,1.755,1.326,3.814,3.814,0,0,0,3.606-.523,3.916,3.916,0,0,0,1.436-2.095c.16-.595.146-.947.178-.945a.812.812,0,0,1,.017.252,3.085,3.085,0,0,1-.084.721,3.911,3.911,0,0,1-1.421,2.232,3.977,3.977,0,0,1-1.692.773,4.052,4.052,0,1,1,0-7.956,3.977,3.977,0,0,1,1.692.773,3.912,3.912,0,0,1,1.421,2.232,3.086,3.086,0,0,1,.084.721.812.812,0,0,1-.017.252" transform="translate(-153.722 -160.252)" fill="#263238"/>
            <path id="Trazado_606909" data-name="Trazado 606909" d="M250.894,371.739a4.363,4.363,0,1,1-4.363-4.363,4.363,4.363,0,0,1,4.363,4.363" transform="translate(-105.476 -160.011)" fill="#455a64"/>
            <path id="Trazado_606910" data-name="Trazado 606910" d="M250.681,371.98c-.033,0-.018-.35-.178-.945a3.917,3.917,0,0,0-1.436-2.095,3.815,3.815,0,0,0-3.606-.523,3.756,3.756,0,0,0-1.755,1.326,3.775,3.775,0,0,0,0,4.473,3.756,3.756,0,0,0,1.755,1.326,3.814,3.814,0,0,0,3.606-.523,3.915,3.915,0,0,0,1.436-2.095c.16-.595.146-.947.178-.945a.811.811,0,0,1,.017.252,3.085,3.085,0,0,1-.084.721,3.911,3.911,0,0,1-1.421,2.232,3.977,3.977,0,0,1-1.692.773,4.052,4.052,0,1,1,0-7.956,3.98,3.98,0,0,1,1.692.773,3.912,3.912,0,0,1,1.421,2.232,3.086,3.086,0,0,1,.084.721.811.811,0,0,1-.017.252" transform="translate(-105.699 -160.252)" fill="#263238"/>
            <path id="Trazado_606911" data-name="Trazado 606911" d="M338.6,238.117c0-1.151-.054-76.029-.132-187.4l.132.132-149.985.016H188.6l.147-.147c-.01,69.379-.018,133.859-.025,187.4l-.122-.122,150,.122-150,.122h-.122v-.122c-.007-53.543-.016-118.024-.025-187.4v-.147h.163l149.985.015h.132v.132c-.078,111.374-.131,186.251-.132,187.4" transform="translate(-82.082 -22.025)" fill="#12263f"/>
            <rect id="Rectángulo_300714" data-name="Rectángulo 300714" width="4.01" height="4.01" transform="translate(253.802 213.372)" fill="#fff"/>
            <path id="Trazado_606912" data-name="Trazado 606912" d="M453.516,381.911a10.887,10.887,0,0,1-.062-1.144c-.024-.706-.052-1.692-.065-2.866l.127.127-4.01.02.147-.146h0v.544c0,.18,0,.359,0,.536q0,.53,0,1.037c-.005.668-.01,1.3-.015,1.891l-.127-.127c1.175.012,2.16.041,2.866.065a10.9,10.9,0,0,1,1.144.062,7.777,7.777,0,0,1-1.062.062c-.7.024-1.716.053-2.948.065h-.126v-.128c0-.589-.01-1.223-.015-1.891q0-.506,0-1.037c0-.177,0-.356,0-.536V377.9h0l.147-.148,4.01.02h.129l0,.126c-.012,1.23-.041,2.25-.065,2.948a7.66,7.66,0,0,1-.062,1.062" transform="translate(-195.704 -164.53)" fill="#12263f"/>
            <rect id="Rectángulo_300715" data-name="Rectángulo 300715" width="4.01" height="4.01" transform="translate(179.55 213.372)" fill="#fff"/>
            <path id="Trazado_606913" data-name="Trazado 606913" d="M321.968,381.911a10.887,10.887,0,0,1-.062-1.144c-.024-.706-.053-1.692-.065-2.866l.127.127-4.01.02.147-.146h0v.544c0,.18,0,.359,0,.536q0,.53,0,1.037c-.005.668-.01,1.3-.015,1.891l-.127-.127c1.175.012,2.16.041,2.866.065a10.9,10.9,0,0,1,1.144.062,7.776,7.776,0,0,1-1.062.062c-.7.024-1.717.053-2.948.065h-.126v-.128c0-.589-.01-1.223-.015-1.891q0-.506,0-1.037c0-.177,0-.356,0-.536V377.9h0l.147-.148,4.01.02h.129l0,.126c-.012,1.23-.041,2.25-.065,2.948a7.654,7.654,0,0,1-.062,1.062" transform="translate(-138.409 -164.53)" fill="#12263f"/>
            <rect id="Rectángulo_300716" data-name="Rectángulo 300716" width="4.01" height="4.01" transform="translate(105.297 213.372)" fill="#fff"/>
            <path id="Trazado_606914" data-name="Trazado 606914" d="M190.419,381.911a10.885,10.885,0,0,1-.062-1.144c-.024-.706-.052-1.692-.065-2.866l.127.127-4.01.02.147-.146h0v.544c0,.18,0,.359,0,.536q0,.53,0,1.037c-.005.668-.01,1.3-.015,1.891l-.127-.127c1.175.012,2.16.041,2.866.065a10.9,10.9,0,0,1,1.144.062,7.776,7.776,0,0,1-1.062.062c-.7.024-1.717.053-2.948.065h-.126v-.128c-.005-.589-.01-1.223-.015-1.891q0-.506,0-1.037c0-.177,0-.356,0-.536V377.9h0l.147-.148,4.01.02h.128v.126c-.012,1.23-.041,2.25-.065,2.948a7.655,7.655,0,0,1-.062,1.062" transform="translate(-81.112 -164.53)" fill="#12263f"/>
            <rect id="Rectángulo_300717" data-name="Rectángulo 300717" width="4.01" height="4.01" transform="translate(253.769 26.898)" fill="#fff"/>
            <path id="Trazado_606915" data-name="Trazado 606915" d="M453.458,51.547A10.963,10.963,0,0,1,453.4,50.4c-.023-.707-.052-1.692-.064-2.866l.127.126-4.01.02.147-.146h0v.544c0,.18,0,.36,0,.536,0,.353,0,.7,0,1.037-.005.668-.01,1.3-.015,1.891l-.127-.126c1.175.012,2.16.041,2.866.064a11.075,11.075,0,0,1,1.144.062,7.541,7.541,0,0,1-1.062.062c-.7.024-1.717.052-2.948.065h-.126v-.128c-.005-.589-.01-1.223-.015-1.891,0-.337,0-.684,0-1.037,0-.176,0-.356,0-.536v-.544h0l.147-.148,4.01.02h.128v.126c-.012,1.23-.041,2.249-.065,2.947a7.643,7.643,0,0,1-.062,1.062" transform="translate(-195.679 -20.64)" fill="#12263f"/>
            <rect id="Rectángulo_300718" data-name="Rectángulo 300718" width="4.01" height="4.01" transform="translate(179.517 26.898)" fill="#fff"/>
            <path id="Trazado_606916" data-name="Trazado 606916" d="M321.91,51.547a10.949,10.949,0,0,1-.063-1.143c-.023-.707-.052-1.692-.064-2.866l.127.126-4.01.02.147-.146h0v.544c0,.18,0,.36,0,.536,0,.353,0,.7,0,1.037-.005.668-.01,1.3-.015,1.891l-.127-.126c1.175.012,2.16.041,2.866.064a11.075,11.075,0,0,1,1.144.062,7.54,7.54,0,0,1-1.062.062c-.7.024-1.717.052-2.948.065h-.126v-.128c-.005-.589-.01-1.223-.015-1.891,0-.337,0-.684,0-1.037,0-.176,0-.356,0-.536v-.544h0l.147-.148,4.01.02h.128v.126c-.012,1.23-.041,2.249-.065,2.947a7.765,7.765,0,0,1-.062,1.062" transform="translate(-138.383 -20.64)" fill="#12263f"/>
            <rect id="Rectángulo_300719" data-name="Rectángulo 300719" width="4.01" height="4.01" transform="translate(105.264 26.898)" fill="#fff"/>
            <path id="Trazado_606917" data-name="Trazado 606917" d="M190.361,51.547A11.079,11.079,0,0,1,190.3,50.4c-.024-.707-.053-1.692-.065-2.866l.127.126-4.01.02.147-.146h0v.544c0,.18,0,.36,0,.536,0,.353,0,.7,0,1.037-.005.668-.01,1.3-.015,1.891l-.127-.126c1.175.012,2.16.041,2.866.064a11.075,11.075,0,0,1,1.144.062,7.54,7.54,0,0,1-1.062.062c-.7.024-1.716.052-2.948.065h-.126v-.128c0-.589-.01-1.223-.015-1.891,0-.337,0-.684,0-1.037,0-.176,0-.356,0-.536v-.544h0l.147-.148,1.176.006,2.834.014h.129l0,.126c-.012,1.23-.041,2.249-.065,2.947a7.638,7.638,0,0,1-.062,1.062" transform="translate(-81.087 -20.64)" fill="#12263f"/>
            <rect id="Rectángulo_300720" data-name="Rectángulo 300720" width="4.01" height="4.01" transform="translate(105.264 116.745)" fill="#fff"/>
            <path id="Trazado_606918" data-name="Trazado 606918" d="M190.361,210.724a11.083,11.083,0,0,1-.062-1.144c-.024-.706-.053-1.692-.065-2.866l.127.127-4.01.02.147-.146h0v.544c0,.18,0,.359,0,.536q0,.53,0,1.037c-.005.668-.01,1.3-.015,1.891l-.127-.127c1.175.012,2.16.041,2.866.064a10.963,10.963,0,0,1,1.144.063,7.777,7.777,0,0,1-1.062.062c-.7.024-1.716.052-2.948.065h-.126v-.128c0-.589-.01-1.223-.015-1.891q0-.506,0-1.037c0-.177,0-.356,0-.536v-.544h0l.147-.148,4.01.02h.129l0,.126c-.012,1.23-.041,2.25-.065,2.948a7.649,7.649,0,0,1-.062,1.062" transform="translate(-81.087 -89.969)" fill="#12263f"/>
            <rect id="Rectángulo_300721" data-name="Rectángulo 300721" width="4.01" height="4.01" transform="translate(254.743 109.898)" fill="#fff"/>
            <path id="Trazado_606919" data-name="Trazado 606919" d="M455.183,198.593a10.963,10.963,0,0,1-.063-1.144c-.023-.706-.052-1.692-.064-2.866l.127.127-4.01.02.147-.146h0v.544q0,.27,0,.536,0,.529,0,1.036c-.005.669-.01,1.3-.015,1.891l-.127-.127c1.175.012,2.16.041,2.866.065a11.085,11.085,0,0,1,1.144.062,7.652,7.652,0,0,1-1.062.062c-.7.024-1.717.053-2.948.065l-.126,0v-.129c-.005-.589-.01-1.223-.015-1.891q0-.506,0-1.036c0-.177,0-.356,0-.536v-.544h0l.147-.148,4.01.02h.128v.126c-.012,1.23-.041,2.25-.065,2.948a7.656,7.656,0,0,1-.062,1.062" transform="translate(-196.43 -84.686)" fill="#12263f"/>
            <path id="Trazado_606920" data-name="Trazado 606920" d="M335.578,137.819a.542.542,0,1,1-.541-.541.541.541,0,0,1,.541.541" transform="translate(-145.689 -59.791)" fill="#e8e8e8"/>
            <path id="Trazado_606921" data-name="Trazado 606921" d="M403.25,164.5a.542.542,0,1,1-.541-.541.541.541,0,0,1,.541.541" transform="translate(-175.164 -71.412)" fill="#e8e8e8"/>
            <path id="Trazado_606922" data-name="Trazado 606922" d="M385.286,206.876a.542.542,0,1,1-.541-.541.542.542,0,0,1,.541.541" transform="translate(-167.34 -89.869)" fill="#e8e8e8"/>
            <path id="Trazado_606923" data-name="Trazado 606923" d="M399.466,248.133a.542.542,0,1,1-.541-.541.541.541,0,0,1,.541.541" transform="translate(-173.516 -107.839)" fill="#e8e8e8"/>
            <path id="Trazado_606924" data-name="Trazado 606924" d="M389.59,124.187a.541.541,0,1,1-.6-.477.541.541,0,0,1,.6.477" transform="translate(-169.216 -53.881)" fill="#e8e8e8"/>
            <path id="Trazado_606925" data-name="Trazado 606925" d="M331.361,191.211a.542.542,0,1,1-.541-.541.541.541,0,0,1,.541.541" transform="translate(-143.853 -83.046)" fill="#e8e8e8"/>
            <path id="Trazado_606926" data-name="Trazado 606926" d="M395.741,142.987a.959.959,0,1,1-.959-.959.959.959,0,0,1,.959.959" transform="translate(-171.53 -61.86)" fill="#e8e8e8"/>
            <path id="Trazado_606927" data-name="Trazado 606927" d="M356.433,166.646a.959.959,0,1,1-.959-.959.959.959,0,0,1,.959.959" transform="translate(-154.41 -72.165)" fill="#e8e8e8"/>
            <path id="Trazado_606928" data-name="Trazado 606928" d="M340.045,214.263a.959.959,0,1,1-.959-.959.959.959,0,0,1,.959.959" transform="translate(-147.272 -92.905)" fill="#e8e8e8"/>
            <path id="Trazado_606929" data-name="Trazado 606929" d="M369.6,272.464a.959.959,0,1,1-.959-.959.959.959,0,0,1,.959.959" transform="translate(-160.144 -118.254)" fill="#e8e8e8"/>
            <path id="Trazado_606930" data-name="Trazado 606930" d="M278.78,279.753a.959.959,0,1,1-.959-.959.959.959,0,0,1,.959.959" transform="translate(-120.588 -121.429)" fill="#e8e8e8"/>
            <path id="Trazado_606931" data-name="Trazado 606931" d="M209.644,303.268a.959.959,0,1,1-.959-.959.959.959,0,0,1,.959.959" transform="translate(-90.476 -131.671)" fill="#e8e8e8"/>
            <path id="Trazado_606932" data-name="Trazado 606932" d="M345.756,343.68a.959.959,0,1,1-.959-.959.959.959,0,0,1,.959.959" transform="translate(-149.759 -149.272)" fill="#e8e8e8"/>
            <path id="Trazado_606933" data-name="Trazado 606933" d="M300.473,196.353a.959.959,0,1,1-.959-.959.959.959,0,0,1,.959.959" transform="translate(-130.036 -85.104)" fill="#e8e8e8"/>
            <path id="Trazado_606934" data-name="Trazado 606934" d="M369.68,195s-.059-.141-.159-.419l-.434-1.238-1.63-4.757-5.889-17.378-.014-.041.017-.04,10.113-23.93,0,.1-5.84-16.411-2.242-6.307.174.093-30.125,7.637.092-.109c-.739,9.242-1.351,16.907-1.78,22.273-.222,2.67-.4,4.766-.515,6.207q-.094,1.061-.145,1.631c-.035.369-.062.558-.062.558s0-.191.024-.561.062-.925.108-1.634c.1-1.442.256-3.541.448-6.212.4-5.368.981-13.036,1.677-22.281l.006-.088.086-.022,30.114-7.683.129-.033.045.125c.736,2.068,1.485,4.175,2.243,6.307,2.028,5.708,3.994,11.243,5.831,16.414l.019.052-.021.051L361.78,171.216l0-.08,5.8,17.41,1.573,4.776.4,1.249c.089.282.126.43.126.43" transform="translate(-144.271 -54.164)" fill="#e8e8e8"/>
            <path id="Trazado_606935" data-name="Trazado 606935" d="M342.929,257.749s.015-.068.054-.2l.18-.572c.167-.513.407-1.255.719-2.214.64-1.942,1.57-4.76,2.741-8.31l9.636-28.948.008.105-10.94-21.522-5.748-11.325-.028-.055.02-.058c3.479-10.077,6.649-19.256,9.277-26.868l.015-.042.038-.021,16.212-9,4.459-2.455,1.169-.634c.264-.142.4-.207.4-.207s-.129.085-.388.236l-1.152.663-4.428,2.51-16.163,9.087.053-.063c-2.613,7.617-5.764,16.8-9.223,26.887l-.008-.112,5.753,11.323,10.922,21.531.026.051-.018.054-9.737,28.915-2.815,8.285-.76,2.2-.2.565c-.046.126-.076.189-.076.189" transform="translate(-147.891 -63.34)" fill="#e8e8e8"/>
            <path id="Trazado_606936" data-name="Trazado 606936" d="M209.778,257.441a1.19,1.19,0,0,1,.192-.081l.574-.211,2.221-.787,8.228-2.861,27.563-9.473-.094.1c.3-1.172.629-2.42.957-3.681,3.132-11.974,5.967-22.812,8.023-30.675l2.464-9.287.685-2.521c.078-.277.139-.493.185-.654a1.289,1.289,0,0,1,.073-.22,1.425,1.425,0,0,1-.044.227l-.157.662c-.148.595-.36,1.446-.631,2.535-.564,2.214-1.374,5.39-2.373,9.311-2.035,7.868-4.841,18.714-7.94,30.7-.329,1.26-.653,2.508-.958,3.68l-.02.077-.074.025-27.594,9.384-8.257,2.775-2.238.738-.583.185a1.134,1.134,0,0,1-.2.054" transform="translate(-91.369 -85.844)" fill="#e8e8e8"/>
          </g>
        </g>
        <rect id="Rectángulo_300723" data-name="Rectángulo 300723" width="83.458" height="32.444" transform="translate(0.176 114.217)" fill="#fff"/>
        <rect id="Rectángulo_300724" data-name="Rectángulo 300724" width="83.458" height="6.952" transform="translate(0.176 114.217)" fill="#12263f"/>
        <rect id="Rectángulo_300725" data-name="Rectángulo 300725" width="8.246" height="8.246" transform="translate(4.88 129.848)" fill="#fff"/>
        <g id="Grupo_890051" data-name="Grupo 890051">
          <g id="Grupo_890050" data-name="Grupo 890050" clip-path="url(#clip-path)">
            <path id="Trazado_606937" data-name="Trazado 606937" d="M16.725,238.15a5.039,5.039,0,0,1-.035-.624c-.01-.44-.024-1-.04-1.692-.02-1.488-.046-3.517-.078-5.929l.152.152-8.245.024c-.04.038.332-.332.176-.174v1.12q0,.556,0,1.1c0,.727,0,1.439-.005,2.131-.006,1.382-.012,2.687-.017,3.89L8.479,238l5.93.078,1.692.039a5.179,5.179,0,0,1,.624.035,3.377,3.377,0,0,1-.562.036l-1.658.039c-1.438.029-3.519.063-6.026.078H8.328v-.154c-.006-1.2-.012-2.508-.018-3.89,0-.693,0-1.4,0-2.131q0-.546,0-1.1v-1.12c-.157.157.214-.217.177-.178l8.245.024h.153v.153c-.015,2.506-.049,4.587-.078,6.025q-.024,1.014-.04,1.658a3.351,3.351,0,0,1-.035.562" transform="translate(-3.599 -100.057)" fill="#263238"/>
            <line id="Línea_2155" data-name="Línea 2155" x1="8.246" y2="8.246" transform="translate(4.88 129.848)" fill="#fafafa"/>
            <path id="Trazado_606938" data-name="Trazado 606938" d="M8.645,238.287a48.447,48.447,0,0,1,4-4.247,48.558,48.558,0,0,1,4.248-4,48.558,48.558,0,0,1-4,4.248,48.339,48.339,0,0,1-4.247,4" transform="translate(-3.764 -100.193)" fill="#e8505b"/>
            <rect id="Rectángulo_300726" data-name="Rectángulo 300726" width="8.246" height="8.246" transform="translate(15.609 129.848)" fill="#263238"/>
            <rect id="Rectángulo_300727" data-name="Rectángulo 300727" width="8.246" height="8.246" transform="translate(26.339 129.848)" fill="#455a64"/>
            <rect id="Rectángulo_300728" data-name="Rectángulo 300728" width="8.246" height="8.246" transform="translate(37.068 129.848)" fill="#26aab7"/>
            <rect id="Rectángulo_300729" data-name="Rectángulo 300729" width="8.246" height="8.246" transform="translate(47.798 129.848)" fill="#b2ebf2"/>
            <rect id="Rectángulo_300732" data-name="Rectángulo 300732" width="8.246" height="8.246" transform="translate(58.527 129.848)" fill="#1565c0"/>
            <rect id="Rectángulo_300735" data-name="Rectángulo 300735" width="8.246" height="8.246" transform="translate(69.257 129.848)" fill="#fb8c00"/>
            <path id="Trazado_606939" data-name="Trazado 606939" d="M83.634,234.66s-.008-.2-.012-.58-.007-.947-.014-1.679c-.007-1.48-.017-3.648-.03-6.444-.016-5.593-.038-13.688-.066-23.742l.122.122-83.453.054H.176l.176-.176c0,11.344,0,22.306-.007,32.445l-.169-.169,59.8.08,17.38.047,4.657.022,1.208.01c.272,0,.417.011.417.011s-.13.007-.4.011l-1.188.01-4.622.021-17.341.047-59.912.079H.007v-.169c0-10.139-.005-21.1-.007-32.445v-.176H.182l83.453.054h.122v.122c-.028,10.085-.051,18.206-.066,23.816-.013,2.784-.023,4.942-.03,6.416q-.008,1.084-.013,1.657c0,.371-.012.555-.012.555" transform="translate(0 -87.998)" fill="#263238"/>
            <rect id="Rectángulo_300738" data-name="Rectángulo 300738" width="133.535" height="51.991" transform="translate(266.363 148.787)" fill="#fff"/>
            <path id="Trazado_606940" data-name="Trazado 606940" d="M605.321,315.474s-.007-.315-.011-.92-.006-1.505-.011-2.683c-.006-2.358-.014-5.832-.025-10.316-.013-8.958-.032-21.944-.055-38.072l.1.1-133.526.045h-.009l.147-.147c0,18.179,0,35.745-.006,51.991l-.141-.141,95.722.066,27.792.039,7.438.018,1.924.008c.434,0,.659.009.659.009s-.213.006-.641.009l-1.907.008-7.409.018-27.76.039-95.818.067h-.141v-.141c0-16.245,0-33.812-.006-51.991v-.147h.156l133.526.045h.1v.1c-.023,16.154-.042,29.161-.055,38.134-.011,4.473-.02,7.94-.025,10.293-.005,1.169-.008,2.06-.011,2.664s-.01.9-.01.9" transform="translate(-205.423 -114.696)" fill="#263238"/>
            <rect id="Rectángulo_300739" data-name="Rectángulo 300739" width="126.505" height="11.279" transform="translate(269.582 151.818)" fill="#455a64"/>
            <rect id="Rectángulo_300740" data-name="Rectángulo 300740" width="81.797" height="3.224" transform="translate(269.582 165.872)" fill="#455a64"/>
            <rect id="Rectángulo_300741" data-name="Rectángulo 300741" width="81.797" height="3.224" transform="translate(304.865 171.343)" fill="#263238"/>
            <rect id="Rectángulo_300742" data-name="Rectángulo 300742" width="39.356" height="3.224" transform="translate(269.583 176.685)" fill="#fb8c00"/>
            <rect id="Rectángulo_300743" data-name="Rectángulo 300743" width="60.977" height="3.224" transform="translate(269.583 192.408)" fill="#fb8c00"/>
            <rect id="Rectángulo_300744" data-name="Rectángulo 300744" width="17.04" height="3.224" transform="translate(338.117 176.685)" fill="#fb8c00"/>
            <rect id="Rectángulo_300745" data-name="Rectángulo 300745" width="18" height="3.224" transform="translate(378.088 176.685)" fill="#fb8c00"/>
            <path id="Trazado_606941" data-name="Trazado 606941" d="M512.627,295.478a1.612,1.612,0,1,1-1.612-1.611,1.612,1.612,0,0,1,1.612,1.611" transform="translate(-221.871 -127.994)" fill="#e0e0e0"/>
            <path id="Trazado_606942" data-name="Trazado 606942" d="M510.8,297.155a1.894,1.894,0,1,1,1.894-1.894,1.9,1.9,0,0,1-1.894,1.894m0-3.224a1.33,1.33,0,1,0,1.329,1.329,1.331,1.331,0,0,0-1.329-1.329" transform="translate(-221.653 -127.776)" fill="#263238"/>
            <path id="Trazado_606943" data-name="Trazado 606943" d="M573.445,305.058a1.612,1.612,0,1,1-1.612-1.612,1.612,1.612,0,0,1,1.612,1.612" transform="translate(-248.36 -132.166)" fill="#e0e0e0"/>
            <path id="Trazado_606944" data-name="Trazado 606944" d="M571.615,306.734a1.894,1.894,0,1,1,1.894-1.894,1.9,1.9,0,0,1-1.894,1.894m0-3.224a1.33,1.33,0,1,0,1.329,1.329,1.331,1.331,0,0,0-1.329-1.329" transform="translate(-248.142 -131.948)" fill="#263238"/>
            <path id="Trazado_606945" data-name="Trazado 606945" d="M611.611,295.188A1.612,1.612,0,1,1,610,293.576a1.612,1.612,0,0,1,1.612,1.612" transform="translate(-264.983 -127.867)" fill="#e0e0e0"/>
            <path id="Trazado_606946" data-name="Trazado 606946" d="M609.78,296.864a1.894,1.894,0,1,1,1.894-1.894,1.9,1.9,0,0,1-1.894,1.894m0-3.224a1.33,1.33,0,1,0,1.329,1.329,1.331,1.331,0,0,0-1.329-1.329" transform="translate(-264.765 -127.649)" fill="#263238"/>
            <rect id="Rectángulo_300746" data-name="Rectángulo 300746" width="106.901" height="3.224" transform="translate(269.582 183.898)" fill="#455a64"/>
            <path id="Trazado_606947" data-name="Trazado 606947" d="M512.627,327.411a1.612,1.612,0,1,1-1.612-1.612,1.612,1.612,0,0,1,1.612,1.612" transform="translate(-221.871 -141.902)" fill="#e0e0e0"/>
            <path id="Trazado_606948" data-name="Trazado 606948" d="M510.8,329.088a1.894,1.894,0,1,1,1.894-1.894,1.9,1.9,0,0,1-1.894,1.894m0-3.224a1.33,1.33,0,1,0,1.329,1.329,1.331,1.331,0,0,0-1.329-1.329" transform="translate(-221.653 -141.685)" fill="#263238"/>
            <path id="Trazado_606949" data-name="Trazado 606949" d="M611.611,327.121A1.612,1.612,0,1,1,610,325.509a1.612,1.612,0,0,1,1.612,1.612" transform="translate(-264.983 -141.776)" fill="#e0e0e0"/>
            <path id="Trazado_606950" data-name="Trazado 606950" d="M609.78,328.8a1.894,1.894,0,1,1,1.894-1.894,1.9,1.9,0,0,1-1.894,1.894m0-3.224a1.33,1.33,0,1,0,1.329,1.329,1.331,1.331,0,0,0-1.329-1.329" transform="translate(-264.765 -141.558)" fill="#263238"/>
            <path id="Trazado_606951" data-name="Trazado 606951" d="M661.286,305.171a1.612,1.612,0,1,1-1.612-1.612,1.611,1.611,0,0,1,1.612,1.612" transform="translate(-286.619 -132.215)" fill="#e0e0e0"/>
            <path id="Trazado_606952" data-name="Trazado 606952" d="M659.455,306.846a1.894,1.894,0,1,1,1.894-1.894,1.9,1.9,0,0,1-1.894,1.894m0-3.224a1.33,1.33,0,1,0,1.329,1.329,1.331,1.331,0,0,0-1.329-1.329" transform="translate(-286.401 -131.997)" fill="#263238"/>
            <path id="Trazado_606953" data-name="Trazado 606953" d="M536.086,314.634a1.612,1.612,0,1,1-1.612-1.612,1.611,1.611,0,0,1,1.612,1.612" transform="translate(-232.088 -136.337)" fill="#e0e0e0"/>
            <path id="Trazado_606954" data-name="Trazado 606954" d="M534.255,316.31a1.894,1.894,0,1,1,1.894-1.894,1.9,1.9,0,0,1-1.894,1.894m0-3.224a1.33,1.33,0,1,0,1.329,1.329,1.331,1.331,0,0,0-1.329-1.329" transform="translate(-231.87 -136.119)" fill="#263238"/>
            <path id="Trazado_606955" data-name="Trazado 606955" d="M575.374,342.848a1.612,1.612,0,1,1-1.612-1.612,1.612,1.612,0,0,1,1.612,1.612" transform="translate(-249.2 -148.626)" fill="#e0e0e0"/>
            <path id="Trazado_606956" data-name="Trazado 606956" d="M573.544,344.525a1.894,1.894,0,1,1,1.894-1.894,1.9,1.9,0,0,1-1.894,1.894m0-3.224a1.33,1.33,0,1,0,1.33,1.329,1.331,1.331,0,0,0-1.33-1.329" transform="translate(-248.982 -148.408)" fill="#263238"/>
            <path id="Trazado_606957" data-name="Trazado 606957" d="M495.092,275.152v3.113l1.673,1.622,1.674-1.628v-3.107Z" transform="translate(-215.638 -119.842)" fill="#fb8c00"/>
            <path id="Trazado_606958" data-name="Trazado 606958" d="M495,275.055a5.362,5.362,0,0,1,.877-.06c.58-.023,1.433-.051,2.469-.064l.124,0v.126c.007.923.014,1.978.022,3.107v.062l-.045.043-.474.462-1.2,1.164-.1.1-.1-.1-1.658-1.637-.038-.037v-.05c.013-.967.041-1.761.063-2.3a4.74,4.74,0,0,1,.059-.813,7.239,7.239,0,0,1,.058.89c.023.548.05,1.311.063,2.224l-.037-.087,1.688,1.607h-.2l1.2-1.17.475-.461-.044.1c.008-1.128.015-2.183.022-3.107l.124.124c-.982-.012-1.8-.041-2.391-.064a8.109,8.109,0,0,1-.956-.06" transform="translate(-215.543 -119.745)" fill="#263238"/>
            <line id="Línea_2156" data-name="Línea 2156" y2="35.587" transform="translate(281.128 160.045)" fill="#e0e0e0"/>
            <path id="Trazado_606959" data-name="Trazado 606959" d="M497.944,319.128c-.081,0-.147-7.967-.147-17.793s.065-17.795.147-17.795.147,7.966.147,17.795-.065,17.793-.147,17.793" transform="translate(-216.816 -123.496)" fill="#263238"/>
            <rect id="Rectángulo_300747" data-name="Rectángulo 300747" width="50.854" height="65.757" transform="translate(287.007 21.525)" fill="#fff"/>
            <path id="Trazado_606960" data-name="Trazado 606960" d="M559.214,103.778s-.005-.11-.008-.317,0-.52-.007-.922c0-.817-.009-2.016-.016-3.575-.008-3.125-.02-7.689-.035-13.472-.016-11.557-.039-27.979-.066-47.47l.132.132-50.848.015h-.006l.147-.147c-.01,24.412-.019,47.069-.026,65.757l-.121-.121,36.911.063,10.293.031,2.712.014c.615,0,.938.014.938.014s-.306.009-.912.014l-2.688.014-10.266.031-36.987.063h-.121v-.121c-.007-18.687-.016-41.344-.025-65.757v-.147h.152l50.848.015h.132v.132c-.027,19.527-.05,35.978-.066,47.556-.015,5.77-.027,10.323-.035,13.442-.007,1.548-.012,2.738-.016,3.549,0,.4-.006.7-.008.908s-.007.3-.007.3" transform="translate(-221.352 -16.496)" fill="#263238"/>
            <path id="Trazado_606961" data-name="Trazado 606961" d="M508.276,44.338h37.313V42.1h13.652V38.136H508.387Z" transform="translate(-221.38 -16.61)" fill="#12263f"/>
            <rect id="Rectángulo_300748" data-name="Rectángulo 300748" width="31.061" height="34.236" transform="translate(290.032 30.778)" fill="#e0e0e0"/>
            <rect id="Rectángulo_300749" data-name="Rectángulo 300749" width="6.032" height="1.427" transform="translate(329.5 34.898)" fill="#263238"/>
            <rect id="Rectángulo_300750" data-name="Rectángulo 300750" width="6.032" height="1.427" transform="translate(329.5 40.891)" fill="#263238"/>
            <rect id="Rectángulo_300751" data-name="Rectángulo 300751" width="6.032" height="1.427" transform="translate(329.5 47.052)" fill="#263238"/>
            <rect id="Rectángulo_300752" data-name="Rectángulo 300752" width="42.15" height="3.816" transform="translate(290.478 67.937)" fill="#263238"/>
            <rect id="Rectángulo_300753" data-name="Rectángulo 300753" width="42.15" height="3.816" transform="translate(290.478 73.969)" fill="#e0e0e0"/>
            <rect id="Rectángulo_300754" data-name="Rectángulo 300754" width="42.15" height="3.816" transform="translate(290.478 79.84)" fill="#ebebeb"/>
            <rect id="Rectángulo_300755" data-name="Rectángulo 300755" width="3.879" height="3.879" transform="translate(323.357 33.672)" fill="#e0e0e0"/>
            <rect id="Rectángulo_300756" data-name="Rectángulo 300756" width="3.879" height="3.879" transform="translate(323.357 39.576)" fill="#ebebeb"/>
            <rect id="Rectángulo_300757" data-name="Rectángulo 300757" width="3.879" height="3.879" transform="translate(323.357 45.563)" fill="#f5f5f5"/>
            <path id="Trazado_606962" data-name="Trazado 606962" d="M515.752,43.246a.96.96,0,1,1-.96-.96.96.96,0,0,1,.96.96" transform="translate(-223.8 -18.418)" fill="#fff"/>
            <path id="Trazado_606963" data-name="Trazado 606963" d="M514.78,44.208a.974.974,0,1,1,.975-.974.975.975,0,0,1-.975.974m0-1.92a.946.946,0,1,0,.946.947.948.948,0,0,0-.946-.947" transform="translate(-223.788 -18.406)" fill="#263238"/>
            <path id="Trazado_606964" data-name="Trazado 606964" d="M521.238,43.246a.96.96,0,1,1-.96-.96.96.96,0,0,1,.96.96" transform="translate(-226.189 -18.418)" fill="#fff"/>
            <path id="Trazado_606965" data-name="Trazado 606965" d="M520.267,44.208a.974.974,0,1,1,.975-.974.975.975,0,0,1-.975.974m0-1.92a.946.946,0,1,0,.946.947.948.948,0,0,0-.946-.947" transform="translate(-226.178 -18.406)" fill="#263238"/>
            <path id="Trazado_606966" data-name="Trazado 606966" d="M526.758,43.246a.96.96,0,1,1-.96-.96.96.96,0,0,1,.96.96" transform="translate(-228.593 -18.418)" fill="#fff"/>
            <path id="Trazado_606967" data-name="Trazado 606967" d="M525.787,44.208a.974.974,0,1,1,.975-.974.975.975,0,0,1-.975.974m0-1.92a.946.946,0,1,0,.946.947.948.948,0,0,0-.946-.947" transform="translate(-228.582 -18.406)" fill="#263238"/>
          </g>
        </g>
        <path id="Trazado_606968" data-name="Trazado 606968" d="M502.5,196.747l3.185,16.9,2.618-4.716,5.624,8.424,2.812-1.9-5.624-8.424,5.163-.794Z" transform="translate(-218.865 -85.693)" fill="#263238"/>
      </g>
    </g>
    <g id="Grupo_890054" data-name="Grupo 890054" transform="translate(1048 1927.646)">
      <path id="Trazado_606751" data-name="Trazado 606751" d="M391.662,299.169a3.283,3.283,0,1,0-3.284,3.284,3.284,3.284,0,0,0,3.284-3.284" transform="translate(-377.648 -257.378)" fill="#e0e0e0"/>
      <path id="Trazado_606752" data-name="Trazado 606752" d="M403.581,274.375a2.043,2.043,0,1,0-2.043,2.044,2.043,2.043,0,0,0,2.043-2.044" transform="translate(-399.495 -250.065)" fill="#e0e0e0"/>
      <path id="Trazado_606753" data-name="Trazado 606753" d="M390.3,253.2a1.873,1.873,0,1,0-2.375,1.174A1.873,1.873,0,0,0,390.3,253.2" transform="translate(-377.457 -243.358)" fill="#e0e0e0"/>
      <path id="Trazado_606754" data-name="Trazado 606754" d="M365.983,347.69a3.052,3.052,0,1,0,3.052-3.053,3.052,3.052,0,0,0-3.052,3.053" transform="translate(-344.894 -272.515)" fill="#e0e0e0"/>
      <path id="Trazado_606755" data-name="Trazado 606755" d="M368.292,382.673a2.191,2.191,0,1,0,2.191-2.191,2.19,2.19,0,0,0-2.191,2.191" transform="translate(-347.072 -283.644)" fill="#e0e0e0"/>
      <path id="Trazado_606756" data-name="Trazado 606756" d="M365.723,419.412a1.556,1.556,0,1,0,1.556-1.556,1.556,1.556,0,0,0-1.556,1.556" transform="translate(-341.461 -295.246)" fill="#e0e0e0"/>
      <path id="Trazado_606757" data-name="Trazado 606757" d="M379.154,347.69a3.053,3.053,0,1,0,3.052-3.053,3.053,3.053,0,0,0-3.052,3.053" transform="translate(-367.147 -272.515)" fill="#e0e0e0"/>
      <path id="Trazado_606758" data-name="Trazado 606758" d="M396.253,379.5a2.19,2.19,0,1,0,2.191-2.191,2.191,2.191,0,0,0-2.191,2.191" transform="translate(-394.312 -282.657)" fill="#e0e0e0"/>
      <path id="Trazado_606759" data-name="Trazado 606759" d="M385.73,414.891a1.556,1.556,0,1,0,1.17-1.862,1.555,1.555,0,0,0-1.17,1.862" transform="translate(-375.199 -293.735)" fill="#e0e0e0"/>
      <path id="Trazado_606760" data-name="Trazado 606760" d="M368.025,320.461a5.049,5.049,0,1,0,5.049-5.049,5.049,5.049,0,0,0-5.049,5.049" transform="translate(-352.337 -263.441)" fill="#e0e0e0"/>
      <path id="Trazado_606761" data-name="Trazado 606761" d="M370.64,290.035a3.283,3.283,0,1,0,3.284-3.284,3.284,3.284,0,0,0-3.284,3.284" transform="translate(-353.224 -254.542)" fill="#e0e0e0"/>
      <path id="Trazado_606762" data-name="Trazado 606762" d="M354.639,299.169a3.283,3.283,0,1,0,3.284-3.284,3.284,3.284,0,0,0-3.284,3.284" transform="translate(-326.19 -257.378)" fill="#e0e0e0"/>
      <path id="Trazado_606763" data-name="Trazado 606763" d="M343.837,325.08a2.043,2.043,0,1,0,2.044-2.043,2.043,2.043,0,0,0-2.044,2.043" transform="translate(-305.46 -265.807)" fill="#e0e0e0"/>
      <path id="Trazado_606764" data-name="Trazado 606764" d="M357.272,346.408a1.873,1.873,0,1,0,2.375-1.174,1.873,1.873,0,0,0-2.375,1.174" transform="translate(-327.653 -272.669)" fill="#e0e0e0"/>
      <path id="Trazado_606765" data-name="Trazado 606765" d="M388.862,277.669s5.234,11.792,7.359,14.318a11.755,11.755,0,0,0,3.841-2.3s-6.264-11.973-7.339-14Z" transform="translate(-388.645 -251.107)" fill="#f5f5f5"/>
      <path id="Trazado_606766" data-name="Trazado 606766" d="M387.272,266.009c.079-.247,8.279-12.669,8.279-12.669l3.6,2.479-7.839,12.931Z" transform="translate(-386.637 -244.168)" fill="#f5f5f5"/>
      <path id="Trazado_606767" data-name="Trazado 606767" d="M390.827,248.417s-5.308-5.971-1.594-8.01,4.707,5,4.372,7.019l-2.933,1.106" transform="translate(-381.595 -240.04)" fill="#f5f5f5"/>
      <path id="Trazado_606768" data-name="Trazado 606768" d="M358.823,432.259h25.829a8.178,8.178,0,0,0-8.177-8.177H367a8.177,8.177,0,0,0-8.177,8.177" transform="translate(-352.522 -297.181)" fill="#e0e0e0"/>
      <path id="Trazado_606769" data-name="Trazado 606769" d="M375.929,328.265c-.079,0-.143,14.846-.143,33.155s.064,33.158.143,33.158.143-14.843.143-33.158-.064-33.155-.143-33.155" transform="translate(-355.639 -267.43)" fill="#e0e0e0"/>
      <path id="Trazado_606770" data-name="Trazado 606770" d="M377.923,325.109s3.026,4.9,2.191,14.606H364.256s-.983-11.537,2.773-14.875Z" transform="translate(-351.795 -266.368)" fill="#f5f5f5"/>
      <path id="Trazado_606771" data-name="Trazado 606771" d="M372.553,352.773h-7.275l.685,20.52h4.982Z" transform="translate(-344.873 -275.04)" fill="#f5f5f5"/>
      <path id="Trazado_606772" data-name="Trazado 606772" d="M370.664,384.573l1.505,23.552-3.637.689-3.255-23.552Z" transform="translate(-344.49 -284.913)" fill="#f5f5f5"/>
      <path id="Trazado_606773" data-name="Trazado 606773" d="M369.2,422.729a3.029,3.029,0,0,0-2.975-3c-2.929-.11-3.255,3-3.255,3Z" transform="translate(-339.934 -295.827)" fill="#f5f5f5"/>
      <path id="Trazado_606774" data-name="Trazado 606774" d="M395.2,352.561l-6.614-3.028-7.92,18.943,4.53,2.073Z" transform="translate(-378.125 -274.034)" fill="#f5f5f5"/>
      <path id="Trazado_606775" data-name="Trazado 606775" d="M390.721,380.482l6.71,22.625-3.393,1.481-8.416-22.236Z" transform="translate(-383.78 -283.644)" fill="#f5f5f5"/>
      <path id="Trazado_606776" data-name="Trazado 606776" d="M392.567,417.408c-.189.315-8.95,3.6-8.95,3.6s-2.081-1.853,4.475-4.837l1.4-.645a2.077,2.077,0,0,1,2.826,1.191Z" transform="translate(-377.316 -294.461)" fill="#f5f5f5"/>
      <path id="Trazado_606777" data-name="Trazado 606777" d="M380.275,293.736c.241.057-.206,12.976-3.037,17.769,0,0-10.187-.33-10.435,0s-3.545-11.243-3.245-17.461a32,32,0,0,1,16.717-.308" transform="translate(-351.453 -256.422)" fill="#f5f5f5"/>
      <path id="Trazado_606778" data-name="Trazado 606778" d="M371.913,265.06s6.506.141,5.3,8.415-2.54,8.274-2.578,8.485-8.171-.565-8.171-.565-4.454-16.689,5.445-16.335" transform="translate(-349.817 -247.805)" fill="#f5f5f5"/>
      <path id="Trazado_606779" data-name="Trazado 606779" d="M355.353,316.287s-5.234-11.792-7.359-14.318a11.754,11.754,0,0,0-3.841,2.3s6.264,11.973,7.339,14Z" transform="translate(-313.107 -259.267)" fill="#f5f5f5"/>
      <path id="Trazado_606780" data-name="Trazado 606780" d="M356.638,328.346c-.079.248-8.279,12.669-8.279,12.669l-3.6-2.479L352.6,325.6Z" transform="translate(-314.81 -266.607)" fill="#f5f5f5"/>
      <path id="Trazado_606781" data-name="Trazado 606781" d="M355.589,349.649s5.308,5.971,1.594,8.01-4.708-5-4.372-7.019l2.933-1.107" transform="translate(-322.183 -274.033)" fill="#f5f5f5"/>
    </g>
  </g>
</svg>
