<svg id="XMLID_1020_" xmlns="http://www.w3.org/2000/svg" width="120.553" height="120.554" viewBox="0 0 120.553 120.554">
  <path id="XMLID_1019_" d="M0,0H17.316V28.49H0Z" transform="translate(23.402 89.709)" fill="#7ae582"/>
  <path id="XMLID_886_" d="M48.69,77.223,37.154,85.072v22.792h0a14,14,0,0,0,8.566,2.927h16.9a5.123,5.123,0,0,0,5.124-5.124V89.911a5.123,5.123,0,0,0-5.124-5.124H48.69V77.223Z" transform="translate(3.564 7.409)" fill="#fccd9d"/>
  <g id="XMLID_1162_" transform="translate(24.776 2.355)">
    <rect id="XMLID_1812_" width="15.99" height="18.82" transform="translate(27.478 71.021)" fill="#3ca8f4"/>
    <path id="XMLID_2429_" d="M35.5,0A35.5,35.5,0,1,1,0,35.5,35.5,35.5,0,0,1,35.5,0Z" fill="#fb0"/>
    <g id="XMLID_1959_" transform="translate(10.771 10.771)">
      <circle id="XMLID_1968_" cx="24.729" cy="24.729" r="24.729" fill="#fff"/>
      <path id="XMLID_1967_" d="M74.152,49.564A7.69,7.69,0,0,0,67.872,42l-4.479-.835-13.72,0L45.21,42a7.69,7.69,0,0,0-6.28,7.56v1.7a24.717,24.717,0,0,0,35.222,0v-1.7Z" transform="translate(-31.812 -9.176)" fill="#29b39d"/>
      <path id="XMLID_1966_" d="M55.733,26.455h0a8.386,8.386,0,0,0-8.386,8.386v2.624a8.386,8.386,0,0,0,8.386,8.386h0a8.386,8.386,0,0,0,8.386-8.386V34.841A8.386,8.386,0,0,0,55.733,26.455Z" transform="translate(-31.005 -10.588)" fill="#fccd9d"/>
    </g>
  </g>
  <g id="XMLID_460_">
    <path id="XMLID_463_" d="M93.291,45A2.355,2.355,0,0,0,90.4,46.649a33.124,33.124,0,1,1-.169-18.187,2.355,2.355,0,1,0,4.517-1.33A37.864,37.864,0,1,0,48.057,74.249v9.135l-7.273,4.948a2.349,2.349,0,0,0-1.909-.98H21.56a2.355,2.355,0,0,0-2.355,2.355V118.2a2.355,2.355,0,0,0,2.355,2.355H38.876a2.353,2.353,0,0,0,2.118-1.331,16.41,16.41,0,0,0,6.448,1.331h16.9a7.487,7.487,0,0,0,7.478-7.478V97.318a7.472,7.472,0,0,0-3.064-6.031V74.265A37.842,37.842,0,0,0,94.94,47.894,2.355,2.355,0,0,0,93.291,45Zm-56.77,70.841H23.914V92.062H36.521v23.781Zm30.59-2.769a2.772,2.772,0,0,1-2.769,2.769h-16.9a11.716,11.716,0,0,1-6.212-1.8V93.725l6.827-4.645v3.115a2.355,2.355,0,0,0,2.355,2.355h13.93a2.772,2.772,0,0,1,2.769,2.769ZM64.047,89.84H52.766V75.266a38.006,38.006,0,0,0,11.281.009Z" transform="translate(1.843 0.002)"/>
    <path id="XMLID_1004_" d="M57.371,9.828A27.084,27.084,0,1,0,84.455,36.912,27.115,27.115,0,0,0,57.371,9.828ZM42.113,53.262v-.691a5.338,5.338,0,0,1,4.357-5.245l3.358-.626a10.719,10.719,0,0,0,15.083,0l3.358.626a5.338,5.338,0,0,1,4.357,5.245v.693a22.331,22.331,0,0,1-30.513,0ZM63.4,39.06a6.032,6.032,0,0,1-12.064,0V36.436a6.032,6.032,0,0,1,12.064,0Zm13.084,9.472A10.046,10.046,0,0,0,69.133,42.7l-1.558-.291a10.694,10.694,0,0,0,.536-3.346V36.436a10.741,10.741,0,0,0-21.482,0V39.06a10.693,10.693,0,0,0,.536,3.346l-1.558.291a10.046,10.046,0,0,0-7.353,5.834,22.375,22.375,0,1,1,38.231,0Z" transform="translate(2.906 0.943)"/>
    <path id="XMLID_1046_" d="M100.323,0a2.355,2.355,0,0,0-2.355,2.355V5.281a2.355,2.355,0,1,0,4.709,0V2.355A2.355,2.355,0,0,0,100.323,0Z" transform="translate(9.399)"/>
    <path id="XMLID_1050_" d="M100.323,12.8a2.355,2.355,0,0,0-2.355,2.355V18.08a2.355,2.355,0,1,0,4.709,0V15.153A2.355,2.355,0,0,0,100.323,12.8Z" transform="translate(9.399 1.228)"/>
    <path id="XMLID_1059_" d="M108.314,7.734h-2.927a2.355,2.355,0,0,0,0,4.709h2.927a2.355,2.355,0,0,0,0-4.709Z" transform="translate(9.885 0.742)"/>
    <path id="XMLID_1060_" d="M95.516,7.734H92.589a2.355,2.355,0,0,0,0,4.709h2.927a2.355,2.355,0,0,0,0-4.709Z" transform="translate(8.657 0.742)"/>
    <path id="XMLID_1064_" d="M10.089,57.069a2.355,2.355,0,0,0-2.355,2.355v2.927a2.355,2.355,0,0,0,4.709,0V59.424A2.355,2.355,0,0,0,10.089,57.069Z" transform="translate(0.742 5.475)"/>
    <path id="XMLID_1065_" d="M10.089,69.868a2.355,2.355,0,0,0-2.355,2.355v2.927a2.355,2.355,0,0,0,4.709,0V72.222A2.355,2.355,0,0,0,10.089,69.868Z" transform="translate(0.742 6.703)"/>
    <path id="XMLID_1069_" d="M18.08,64.8H15.153a2.355,2.355,0,1,0,0,4.709H18.08a2.355,2.355,0,0,0,0-4.709Z" transform="translate(1.228 6.217)"/>
    <path id="XMLID_1071_" d="M5.281,64.8H2.355a2.355,2.355,0,0,0,0,4.709H5.281a2.355,2.355,0,0,0,0-4.709Z" transform="translate(0 6.217)"/>
    <path id="XMLID_1089_" d="M87.6,32.394a2.347,2.347,0,1,0,1.665.688A2.371,2.371,0,0,0,87.6,32.394Z" transform="translate(8.178 3.108)"/>
  </g>
</svg>
