<svg xmlns="http://www.w3.org/2000/svg" width="110.125" height="110.125" viewBox="0 0 110.125 110.125">
  <g id="Grupo_66177" data-name="Grupo 66177" transform="translate(-172.916 -335.817)">
    <path id="Trazado_137295" data-name="Trazado 137295" d="M281.1,353.089v65.719A7.1,7.1,0,0,1,274,425.914H181.633v19.538h-7.1V418.808H272.22A1.782,1.782,0,0,0,274,417.032V354.865a1.782,1.782,0,0,0-1.776-1.776H261.563v5.329l-12.433-8.882,12.433-8.88v5.328H274a7.1,7.1,0,0,1,7.105,7.105Zm0,0" transform="translate(0.163 0.49)" fill="#e6e9ed"/>
    <path id="Trazado_137296" data-name="Trazado 137296" d="M245.679,396.644v5.844L251.7,403.7a3.553,3.553,0,0,1,2.86,3.481v5.968H226.142v-5.968A3.553,3.553,0,0,1,229,403.7l6.022-1.208v-5.844l.053-.053a7.109,7.109,0,0,0,10.552,0Zm0,0" transform="translate(5.389 6.153)" fill="#d44f4a"/>
    <path id="Trazado_137297" data-name="Trazado 137297" d="M194.067,397.135v5.329l6.022,1.208a3.553,3.553,0,0,1,2.859,3.481v5.968H174.529v-5.968a3.553,3.553,0,0,1,2.859-3.481l6.022-1.208v-5.329l.3-.3a7.12,7.12,0,0,0,10.054,0Zm0,0" transform="translate(0.163 6.178)" fill="#d44f4a"/>
    <path id="Trazado_137298" data-name="Trazado 137298" d="M219.873,396.644v5.844L225.9,403.7a3.554,3.554,0,0,1,2.86,3.481v5.968h-28.42v-5.968a3.554,3.554,0,0,1,2.86-3.481l6.022-1.208v-5.844l.053-.053a7.108,7.108,0,0,0,10.551,0Zm0,0" transform="translate(2.776 6.153)" fill="#d44f4a"/>
    <path id="Trazado_137299" data-name="Trazado 137299" d="M233.246,392.511h-7.1v-9.52A3.554,3.554,0,0,1,229,379.509l6.022-1.208v-5.968a7.084,7.084,0,0,0,10.657,0V378.3l6.022,1.208a3.554,3.554,0,0,1,2.86,3.482v9.52Zm0,0" transform="translate(5.389 3.697)" fill="#6bbcb1"/>
    <path id="Trazado_137300" data-name="Trazado 137300" d="M181.633,392.511h-7.1v-9.52a3.554,3.554,0,0,1,2.859-3.482l6.022-1.208v-5.968a7.085,7.085,0,0,0,10.658,0V378.3l6.022,1.208a3.554,3.554,0,0,1,2.859,3.482v9.52Zm0,0" transform="translate(0.163 3.697)" fill="#6bbcb1"/>
    <path id="Trazado_137301" data-name="Trazado 137301" d="M193.112,384.669A7.11,7.11,0,0,0,180.98,389.7v3.552a7.1,7.1,0,1,0,14.209,0V389.7a7.153,7.153,0,0,0-2.077-5.027Zm0,0" transform="translate(0.816 4.736)" fill="#f0d0b4"/>
    <path id="Trazado_137302" data-name="Trazado 137302" d="M242.04,351.3l-10.053-10.054-5.294,4.122a23.617,23.617,0,0,0-3.09-1.3l-.835-6.643H208.559l-.836,6.643a23.746,23.746,0,0,0-3.09,1.3l-5.293-4.122L189.287,351.3l4.121,5.293a24.907,24.907,0,0,0-1.918,5.345,5.581,5.581,0,0,1,.782.657,7.157,7.157,0,0,1,2.077,5.027v3.553a7.1,7.1,0,0,1-1.775,4.689v5.968l6.022,1.208a3.554,3.554,0,0,1,2.859,3.482,3.555,3.555,0,0,1,2.86-3.482l4.3-.852v-.018l-.053-.231a15.985,15.985,0,1,1,14.209,0l-.053.231v.018l4.3.852a3.555,3.555,0,0,1,2.86,3.482,3.554,3.554,0,0,1,2.859-3.482l6.022-1.208v-5.968a7.1,7.1,0,0,1-1.776-4.689v-3.553a7.04,7.04,0,0,1,2.86-5.685,24.907,24.907,0,0,0-1.918-5.345Zm0,0" transform="translate(1.658 0.163)" fill="#ffc200"/>
    <path id="Trazado_137303" data-name="Trazado 137303" d="M207.906,377.859h11.745l-.544-.107H208.45Zm0,0" transform="translate(3.543 4.246)" fill="#ffc200"/>
    <path id="Trazado_137304" data-name="Trazado 137304" d="M207.44,392.511h-7.105v-9.52a3.555,3.555,0,0,1,2.86-3.482l4.3-.852v-.018l1.723-.338v-5.968a7.084,7.084,0,0,0,10.657,0V378.3l1.723.338v.018l4.3.852a3.555,3.555,0,0,1,2.86,3.482v9.52Zm0,0" transform="translate(2.776 3.697)" fill="#6bbcb1"/>
    <path id="Trazado_137305" data-name="Trazado 137305" d="M218.918,384.669a7.109,7.109,0,0,0-12.131,5.027v3.552a7.1,7.1,0,1,0,14.209,0V389.7a7.149,7.149,0,0,0-2.078-5.027Zm0,0" transform="translate(3.429 4.736)" fill="#f0d0b4"/>
    <path id="Trazado_137306" data-name="Trazado 137306" d="M244.724,384.669a7.109,7.109,0,0,0-12.131,5.027v3.552a7.1,7.1,0,1,0,14.209,0V389.7a7.149,7.149,0,0,0-2.078-5.027Zm0,0" transform="translate(6.042 4.736)" fill="#f0d0b4"/>
    <path id="Trazado_137307" data-name="Trazado 137307" d="M245.026,373.744a7.1,7.1,0,0,1-12.433-4.689V365.5A7.131,7.131,0,0,1,239.7,358.4a7.095,7.095,0,0,1,7.1,7.105v3.553a7.1,7.1,0,0,1-1.776,4.689Zm0,0" transform="translate(6.042 2.286)" fill="#f0d0b4"/>
    <path id="Trazado_137308" data-name="Trazado 137308" d="M192.331,359.818a5.581,5.581,0,0,1,.782.657,7.157,7.157,0,0,1,2.077,5.027v3.553a7.1,7.1,0,0,1-14.209,0V365.5a7.092,7.092,0,0,1,11.351-5.685Zm0,0" transform="translate(0.816 2.286)" fill="#f0d0b4"/>
    <path id="Trazado_137309" data-name="Trazado 137309" d="M219.22,373.744a7.1,7.1,0,0,1-12.433-4.689V365.5a7.1,7.1,0,1,1,14.209,0v3.553a7.1,7.1,0,0,1-1.776,4.689Zm0,0" transform="translate(3.429 2.286)" fill="#f0d0b4"/>
    <rect id="Rectángulo_9597" data-name="Rectángulo 9597" width="3.552" height="3.552" transform="translate(215.545 342.922)"/>
    <path id="Trazado_137310" data-name="Trazado 137310" d="M225.783,350.255l2.512-2.512,2.513,2.512-2.513,2.512Zm0,0" transform="translate(5.353 1.208)"/>
    <path id="Trazado_137311" data-name="Trazado 137311" d="M196.131,350.254l2.513-2.512,2.511,2.512-2.511,2.511Zm0,0" transform="translate(2.351 1.207)"/>
    <path id="Trazado_137312" data-name="Trazado 137312" d="M272.383,421.075a3.556,3.556,0,0,0,3.553-3.553V396.208h-3.553v21.314H261.726v-4.191a5.338,5.338,0,0,0-4.283-5.223l-4.6-.921v-3.928a8.8,8.8,0,0,0,1.776-5.275h7.105v-11.3a5.339,5.339,0,0,0-4.283-5.224l-4.6-.92v-3.929a8.793,8.793,0,0,0,1.776-5.274v-3.553a8.891,8.891,0,0,0-8.88-8.88,8.777,8.777,0,0,0-3.129.6,26.29,26.29,0,0,0-.96-2.522l4.408-5.669L233.8,339.049l-5.668,4.408c-.413-.184-.829-.358-1.243-.519l-.89-7.122H208.648l-.89,7.122c-.415.161-.83.335-1.244.519l-5.667-4.408L188.58,351.315l4.408,5.669a26.571,26.571,0,0,0-.961,2.521,8.772,8.772,0,0,0-3.125-.6,8.891,8.891,0,0,0-8.882,8.88v3.553a8.8,8.8,0,0,0,1.776,5.274v3.929l-4.6.92a5.339,5.339,0,0,0-4.284,5.224v11.3h7.1a8.789,8.789,0,0,0,1.823,5.329H181.8v3.874l-4.6.921a5.338,5.338,0,0,0-4.284,5.223v32.611h3.553V421.075ZM200.6,408.105l-4.6-.918v-3.874h-.045a8.788,8.788,0,0,0,1.821-5.329H208.44a8.8,8.8,0,0,0,1.776,5.275v3.928l-4.6.921a5.268,5.268,0,0,0-2.509,1.264,5.279,5.279,0,0,0-2.506-1.266Zm-6.374-10.122a5.329,5.329,0,0,1-10.658,0v-3.552a5.329,5.329,0,1,1,10.658,0Zm17.762-26.643v-3.553a5.328,5.328,0,1,1,10.657,0v3.553a5.328,5.328,0,1,1-10.657,0Zm12.433,8.717v-3.444a8.8,8.8,0,0,0,1.776-5.274v-3.553a8.881,8.881,0,0,0-17.762,0v3.553a8.8,8.8,0,0,0,1.776,5.274v3.444a14.21,14.21,0,1,1,14.209,0Zm-10.657,3.394v-3.983a8.763,8.763,0,0,0,7.1,0v3.983l7.454,1.492a1.781,1.781,0,0,1,1.427,1.743v7.744H226.2a8.881,8.881,0,1,0-17.762,0h-3.553v-7.744a1.776,1.776,0,0,1,1.428-1.741Zm37.3,14.531a5.328,5.328,0,1,1-10.657,0v-3.552a5.328,5.328,0,1,1,10.657,0Zm-12.433,5.275v3.928l-4.6.921a5.27,5.27,0,0,0-2.508,1.264,5.294,5.294,0,0,0-2.506-1.266l-4.6-.918v-3.928a8.8,8.8,0,0,0,1.776-5.275h10.657a8.8,8.8,0,0,0,1.776,5.275Zm-26.643-5.275v-3.552a5.328,5.328,0,1,1,10.657,0v3.552a5.328,5.328,0,1,1-10.657,0Zm-5.677,13.6,7.453-1.492v-3.984a8.752,8.752,0,0,0,7.1,0V410.1l7.454,1.492a1.779,1.779,0,0,1,1.427,1.742v4.191H204.887v-4.191a1.779,1.779,0,0,1,1.428-1.742Zm50.432,0a1.78,1.78,0,0,1,1.426,1.742v4.191H233.306v-4.191a1.775,1.775,0,0,1,1.429-1.74l7.452-1.494v-3.984a8.754,8.754,0,0,0,7.105,0V410.1Zm0-26.644a1.781,1.781,0,0,1,1.426,1.743v7.744h-3.553a8.881,8.881,0,1,0-17.762,0h-3.553v-7.744a1.776,1.776,0,0,1,1.429-1.741l7.452-1.494v-3.983a8.766,8.766,0,0,0,7.105,0v3.983Zm-5.679-17.156v3.553a5.328,5.328,0,1,1-10.657,0v-3.553a5.328,5.328,0,1,1,10.657,0Zm-57.761-16.18,7.832-7.831,4.934,3.839,1-.5a23.155,23.155,0,0,1,2.875-1.2l1.058-.355.779-6.2h11.073l.776,6.2,1.058.356a22.971,22.971,0,0,1,2.875,1.2l1,.5,4.934-3.839,7.832,7.832-3.839,4.934.5,1a22.766,22.766,0,0,1,1.476,3.964,8.878,8.878,0,0,0-2.606,6.283v3.553a8.8,8.8,0,0,0,1.776,5.274v3.929l-4.6.92a5.28,5.28,0,0,0-2.508,1.264,5.293,5.293,0,0,0-2.506-1.265l-.33-.066a17.763,17.763,0,1,0-22.746,0l-.328.066a5.29,5.29,0,0,0-2.509,1.265,5.283,5.283,0,0,0-2.506-1.265l-4.6-.918v-3.929a8.793,8.793,0,0,0,1.776-5.274v-3.553a8.85,8.85,0,0,0-2.609-6.28,23.033,23.033,0,0,1,1.478-3.965l.5-1Zm-9.735,16.18a5.329,5.329,0,0,1,10.658,0v3.553a5.329,5.329,0,1,1-10.658,0Zm-7.1,26.644v-7.744a1.776,1.776,0,0,1,1.428-1.741l7.452-1.494v-3.983a8.766,8.766,0,0,0,7.105,0v3.983l7.454,1.492a1.781,1.781,0,0,1,1.426,1.743v7.744h-3.553a8.881,8.881,0,1,0-17.762,0Zm1.428,17.156,7.452-1.492v-3.984a8.754,8.754,0,0,0,7.105,0V410.1l7.454,1.492a1.779,1.779,0,0,1,1.426,1.742v4.191H176.469v-4.191a1.779,1.779,0,0,1,1.428-1.742Zm0,0" transform="translate(0 0)"/>
    <rect id="Rectángulo_9598" data-name="Rectángulo 9598" width="3.552" height="3.552" transform="translate(272.383 389.103)"/>
    <rect id="Rectángulo_9599" data-name="Rectángulo 9599" width="3.552" height="3.552" transform="translate(272.383 381.998)"/>
    <rect id="Rectángulo_9600" data-name="Rectángulo 9600" width="3.552" height="3.552" transform="translate(272.383 374.893)"/>
    <path id="Trazado_137313" data-name="Trazado 137313" d="M273.506,344.525H262.849v-7l-17.268,12.332,17.268,12.332v-7h8.88v15.986h3.553V355.183a3.556,3.556,0,0,0-3.553-3.553H259.3v3.654l-7.6-5.43,7.6-5.43v3.654h14.209a5.336,5.336,0,0,1,5.329,5.329v65.719a5.335,5.335,0,0,1-5.329,5.329H179.367v14.209h3.553V428.007h90.587a8.892,8.892,0,0,0,8.882-8.882V353.406a8.892,8.892,0,0,0-8.882-8.882Zm0,0" transform="translate(0.653 0.173)"/>
    <rect id="Rectángulo_9601" data-name="Rectángulo 9601" width="3.552" height="3.552" transform="translate(180.021 442.389)"/>
    <rect id="Rectángulo_9602" data-name="Rectángulo 9602" width="3.552" height="3.552" transform="translate(242.188 431.732)"/>
    <rect id="Rectángulo_9603" data-name="Rectángulo 9603" width="51.51" height="3.552" transform="translate(187.125 431.732)"/>
    <rect id="Rectángulo_9604" data-name="Rectángulo 9604" width="3.552" height="3.552" transform="translate(249.293 431.732)"/>
    <rect id="Rectángulo_9605" data-name="Rectángulo 9605" width="3.552" height="3.552" transform="translate(256.398 431.732)"/>
    <rect id="Rectángulo_9606" data-name="Rectángulo 9606" width="72.825" height="3.552" transform="translate(187.125 438.837)"/>
  </g>
</svg>
