<svg xmlns="http://www.w3.org/2000/svg" xmlns:xlink="http://www.w3.org/1999/xlink" width="170" height="155.444" viewBox="0 0 170 155.444">
  <defs>
    <clipPath id="clip-path">
      <rect id="Rectángulo_301145" data-name="Rectángulo 301145" width="129" height="129" fill="#12263f"/>
    </clipPath>
  </defs>
  <g id="Grupo_890256" data-name="Grupo 890256" transform="translate(33.964 22.946)">
    <rect id="Rectángulo_49533" data-name="Rectángulo 49533" width="119.8" height="111.233" transform="translate(16.236 21.265)" fill="#ffde96"/>
    <g id="Grupo_890263" data-name="Grupo 890263" transform="translate(-33.964 -22.946)">
      <g id="Grupo_890263-2" data-name="Grupo 890263" clip-path="url(#clip-path)">
        <path id="Trazado_607241" data-name="Trazado 607241" d="M128.58,13.144v32c-1.621,3.544-4.4,4.768-8.232,4.627-5.479-.2-10.971-.051-16.806-.051v3.332q0,19.525,0,39.05-.024,18.239-.1,36.477H0V25.716a26.615,26.615,0,0,0,2.152-1.75Q11.664,14.5,21.13,4.979c1.589-1.6,3.061-3.316,4.586-4.979h77.719V8.4c6.066,0,11.57.166,17.06-.056,3.9-.158,6.59,1.173,8.085,4.8M99.352,49.721H96.145q-23.7,0-47.407,0c-4.911,0-7.093-2.2-7.1-7.15q-.022-13.137,0-26.274c0-6.147,1.755-7.886,8.007-7.889q23.132-.012,46.265,0h3.4V4.215H29.02V29.1H4.224v95.239H99.352ZM84.96,12.5c-11.989,0-23.977.042-35.965-.036-2.408-.016-3.409.705-3.376,3.26q.17,13.27,0,26.545c-.031,2.632.983,3.473,3.543,3.467,23.881-.061,47.762-.033,71.643-.04,3.281,0,3.732-.469,3.736-3.859q.018-12.7,0-25.4c0-3.606-.322-3.928-3.907-3.931q-17.84-.013-35.68,0M24.83,24.832V7.97L7.919,24.832Z" fill="#12263f"/>
        <rect id="Rectángulo_301140" data-name="Rectángulo 301140" width="3.671" height="3.774" transform="translate(8.595 33.293)" fill="#12263f"/>
        <rect id="Rectángulo_301141" data-name="Rectángulo 301141" width="3.747" height="3.691" transform="translate(16.753 33.328)" fill="#12263f"/>
        <rect id="Rectángulo_301142" data-name="Rectángulo 301142" width="3.755" height="3.678" transform="translate(8.553 41.832)" fill="#12263f"/>
        <rect id="Rectángulo_301143" data-name="Rectángulo 301143" width="3.695" height="3.669" transform="translate(83.06 116.326)" fill="#12263f"/>
        <rect id="Rectángulo_301144" data-name="Rectángulo 301144" width="3.62" height="3.687" transform="translate(91.617 116.306)" fill="#12263f"/>
        <path id="Trazado_607242" data-name="Trazado 607242" d="M108.829,52.857H103.6V37.58l-.182-.043c-.093.269-.2.533-.274.807-1.2,4.58-2.4,9.158-3.565,13.744-.159.627-.418.86-1.083.82a30.655,30.655,0,0,0-3.2,0c-.61.026-.863-.157-1.022-.779-1.193-4.691-2.434-9.369-3.661-14.05a1.283,1.283,0,0,0-.287-.582V52.888c-1.717,0-3.363.007-5.008,0-.571,0-.406-.465-.408-.773q-.024-4.322-.022-8.645,0-5.363.018-10.726c0-.233.027-.467.045-.737h8.645L96.86,44.385h.151q1.624-6.186,3.253-12.391h8.566Z" transform="translate(-36.376 -13.71)" fill="#12263f"/>
        <path id="Trazado_607243" data-name="Trazado 607243" d="M148.557,31.966h6.182v20.9a26.335,26.335,0,0,0-3.554.03,3.684,3.684,0,0,1-4.049-2.068c-1.821-2.942-3.921-5.711-5.906-8.551a1.9,1.9,0,0,0-.617-.611V52.82h-6.132V31.945c1.968,0,3.909-.017,5.848.024.213,0,.464.314.619.536q3.479,4.982,6.935,9.981c.175.252.362.5.672.922Z" transform="translate(-57.63 -13.688)" fill="#12263f"/>
        <path id="Trazado_607244" data-name="Trazado 607244" d="M198.009,40.685v4.42c0,1.308.017,2.617-.015,3.924a1.016,1.016,0,0,1-.317.724,16.844,16.844,0,0,1-14.528,2.606,9.335,9.335,0,0,1-6.76-8.347,13.643,13.643,0,0,1,.631-6.3,9.194,9.194,0,0,1,7.922-6.207,22.01,22.01,0,0,1,6.93.131c3.121.575,4.908,2.556,5.845,5.59-2.03.347-4.009.7-5.994,1.008a.658.658,0,0,1-.519-.316,3.632,3.632,0,0,0-3.7-2.02,3.958,3.958,0,0,0-3.846,2.279,9.637,9.637,0,0,0,0,7.917,3.849,3.849,0,0,0,3.311,2.21,7.513,7.513,0,0,0,4.889-1.142.919.919,0,0,0,.361-.615,13.92,13.92,0,0,0,.017-1.53h-4.383V40.685Z" transform="translate(-75.542 -13.409)" fill="#12263f"/>
        <path id="Trazado_607245" data-name="Trazado 607245" d="M64.724,117.2q14.47,0,28.941,0c2.022,0,2.583.537,2.584,2.538q.009,19.951,0,39.9c0,2.027-.54,2.577-2.547,2.577q-28.882.008-57.764,0c-2.045,0-2.625-.6-2.626-2.661q-.005-19.831,0-39.662c0-2.118.587-2.7,2.71-2.7h28.7M37.073,158.566c1.951,0,3.787-.058,5.617.024a1.785,1.785,0,0,0,1.868-1.073q5.609-9.848,11.307-19.646c1.026-1.772,2.562-1.762,3.6,0,1,1.686,1.956,3.4,2.938,5.09.462.8.94,1.588,1.485,2.507.907-1.568,1.709-2.949,2.507-4.331q3.839-6.648,7.678-13.294c.709-1.222,1.615-1.646,2.534-1.081a4,4,0,0,1,1.239,1.4q6.977,12.036,13.911,24.1c.205.355.439.693.753,1.186V120.879H37.073Zm38.8-26.556L60.6,158.482H91.139L75.869,132.01M48.133,158.566h6.951c.24,0,.521.079.711-.019a2.384,2.384,0,0,0,.958-.725c1-1.637,1.95-3.305,2.9-4.975.687-1.213,1.857-2.444,1.861-3.67s-1.162-2.458-1.842-3.673c-.626-1.118-1.289-2.216-2.011-3.453l-9.524,16.514" transform="translate(-14.275 -50.224)" fill="#12263f"/>
        <path id="Trazado_607246" data-name="Trazado 607246" d="M52.858,143.249a7.858,7.858,0,1,1,7.94-7.8,7.922,7.922,0,0,1-7.94,7.8M52.94,131.2a4.2,4.2,0,0,0-4.261,4.129,4.317,4.317,0,0,0,4.252,4.309,4.243,4.243,0,0,0,4.163-4.24,4.119,4.119,0,0,0-4.154-4.2" transform="translate(-19.297 -54.652)" fill="#12263f"/>
      </g>
    </g>
  </g>
</svg>
