<svg xmlns="http://www.w3.org/2000/svg" width="145.796" height="191.23" viewBox="0 0 145.796 191.23">
  <g id="Grupo_890926" data-name="Grupo 890926" transform="translate(0)">
    <g id="Grupo_890927" data-name="Grupo 890927">
      <path id="Trazado_609554" data-name="Trazado 609554" d="M73,191.21c-15.984-.005-31.969.018-47.953-.014-10.188-.02-15.356-5.072-15.645-15.23-.071-2.5-.154-5.005.018-7.49.318-4.593.213-8.491-5.12-10.8-3.3-1.432-4.257-5.4-4.269-9.052q-.069-22.227,0-44.456C.051,99.459,2,95.58,6.372,93.691c2.734-1.182,3.067-2.85,3.06-5.39q-.1-32.967-.008-65.935C9.443,7.329,16.872.006,31.8.058,50.112.121,68.427.158,86.741,0a11.052,11.052,0,0,1,8.815,3.476q18.69,19.081,37.738,37.812a9.387,9.387,0,0,1,3.054,7.44c-.132,12.985.032,25.973-.052,38.959-.019,2.871.248,4.868,3.451,6.212,4.186,1.756,6,5.635,6.01,10.136q.078,22.229.011,44.456c-.013,4.917-2.088,8.817-6.67,10.784-2.273.976-2.88,2.231-2.794,4.5.15,3.991.075,7.991.029,11.987-.118,10.223-5.223,15.4-15.377,15.437-15.984.056-31.969.015-47.953.009m-.183-98.8c18,0,35.991-.1,53.985.085,3.779.039,4.8-1.072,4.725-4.8-.237-11.659-.273-23.33.013-34.986.1-4.147-1.366-4.947-5.143-4.867-10.992.232-22-.054-32.988.144-3.75.067-4.943-1.239-4.886-4.9.173-10.994-.142-22,.176-32.987.126-4.326-1.351-5.2-5.369-5.149-17.326.213-34.656.076-51.984.1-11.644.013-16.921,5.074-16.98,16.638-.112,21.994.049,43.989-.177,65.981-.042,4.151,1.451,4.861,5.146,4.826,17.826-.165,35.654-.074,53.482-.083m.136,68.024c-14.65,0-29.3-.088-43.95.05-4.761.044-11.122-2.192-13.87.936-2.867,3.264-.83,9.548-.793,14.5.052,7.1,3.448,10.361,10.5,10.413,9.656.071,19.312.018,28.968.018q33.213,0,66.425-.015c7.81-.011,11.107-3.2,11.206-10.714.044-3.329-.255-6.685.074-9.982.4-4.064-.836-5.369-5.122-5.307-17.81.258-35.625.108-53.439.1M93.529,10.191q0,15.207-.014,30.316c0,1.593.489,2.436,2.261,2.428,10.2-.042,20.394-.02,30.951-.02l-33.2-32.724m-50.9,111.264.855-.13c1.169,4.254,2.231,8.542,3.558,12.746.581,1.84.248,4.6,3.571,4.475,2.864-.109,2.787-2.406,3.365-4.2,1.472-4.562,2.869-9.147,4.3-13.723.893,4.5.788,8.8.942,13.1.067,1.878-1.143,4.844,2.491,4.785,3.355-.054,2.107-2.826,2.145-4.528.133-5.986.124-11.977.005-17.963-.034-1.682,1.176-4.315-2.329-4.288-2.484.019-4.833-.427-5.7,3.125-1.187,4.841-3.013,9.525-4.994,15.591-1.934-6.424-3.556-11.421-4.924-16.486-.964-3.568-3.712-1.9-5.733-2.165-2.646-.35-2.285,1.725-2.289,3.346-.016,6.654-.006,13.307-.013,19.961,0,1.679-.248,3.528,2.3,3.488,2.333-.036,2.5-1.624,2.477-3.448-.051-4.564-.017-9.13-.017-13.695m27.221,3.375c0,3.323-.011,6.646.005,9.969.009,1.773-.467,3.817,2.476,3.773,2.847-.043,2.751-2.025,2.478-3.817-.761-4.985.456-7.594,6.285-7.191,3.494.241,6.218-2.048,7.275-5.718a7.374,7.374,0,0,0-2.049-7.746c-1.966-1.944-13.209-3.8-15.3-2.1-2.675,2.176-.716,5.541-1.122,8.35a32.773,32.773,0,0,0-.044,4.479m36.892-3.959a14.913,14.913,0,0,0-.03-2.909c-.434-1.87,1.476-4.645-1.695-5.461-2.932-.755-4.922.651-6.394,3.311-1.761,3.184-3.864,6.181-5.865,9.229-1.2,1.834-2.637,3.812-1.686,5.96,1.03,2.329,3.534,1.144,5.354,1.186,3.217.075,6.531-.5,5.816,4.576-.207,1.471,1.158,1.847,2.406,1.815,1.08-.027,2.16-.528,2.022-1.7a6.262,6.262,0,0,1,2.508-5.9,2,2,0,0,0,.054-1.793c-4-2.05-1.955-5.764-2.49-8.316" fill="#12263f"/>
      <path id="Trazado_609561" data-name="Trazado 609561" d="M74.86,119.977c-.289-2.475-.249-4.544,3.375-4.242,2.763.231,5.195.726,5.318,3.906.136,3.563-2.483,4.021-5.417,4.267-3.248.273-3.64-1.376-3.276-3.931" fill="#12263f"/>
      <path id="Trazado_609562" data-name="Trazado 609562" d="M101.756,118.185c.978,10.285.978,10.285-5.617,9.714,1.185-3.3,3.106-6.036,5.617-9.714" fill="#12263f"/>
    </g>
  </g>
</svg>
