<svg xmlns="http://www.w3.org/2000/svg" xmlns:xlink="http://www.w3.org/1999/xlink" width="361.926" height="254.803" viewBox="0 0 361.926 254.803">
  <defs>
    <clipPath id="clip-path">
      <rect id="Rectángulo_301524" data-name="Rectángulo 301524" width="70.229" height="53.673" fill="none"/>
    </clipPath>
  </defs>
  <g id="Grupo_893393" data-name="Grupo 893393" transform="translate(-1020 -798.932)">
    <rect id="Rectángulo_300679" data-name="Rectángulo 300679" width="346.286" height="184.937" transform="translate(1035.64 820.104)" fill="#fff7ee"/>
    <g id="Grupo_890463" data-name="Grupo 890463" transform="translate(1020 743.979)">
      <g id="Background_Complete" data-name="Background Complete" transform="translate(0 54.953)">
        <g id="Grupo_66249" data-name="Grupo 66249">
          <rect id="Rectángulo_30170" data-name="Rectángulo 30170" width="349.613" height="0.175" transform="translate(0 228.958)" fill="#ebebeb"/>
          <rect id="Rectángulo_30171" data-name="Rectángulo 30171" width="23.16" height="0.175" transform="translate(291.423 240.213)" fill="#ebebeb"/>
          <rect id="Rectángulo_30172" data-name="Rectángulo 30172" width="6.079" height="0.175" transform="translate(225.519 242.111)" fill="#ebebeb"/>
          <rect id="Rectángulo_30173" data-name="Rectángulo 30173" width="13.42" height="0.175" transform="translate(277.303 233.72)" fill="#ebebeb"/>
          <rect id="Rectángulo_30174" data-name="Rectángulo 30174" width="30.202" height="0.175" transform="translate(36.681 234.895)" fill="#ebebeb"/>
          <rect id="Rectángulo_30175" data-name="Rectángulo 30175" width="4.428" height="0.175" transform="translate(73.108 234.895)" fill="#ebebeb"/>
          <rect id="Rectángulo_30176" data-name="Rectángulo 30176" width="65.501" height="0.175" transform="translate(91.928 237.847)" fill="#ebebeb"/>
          <path id="Trazado_132629" data-name="Trazado 132629" d="M177.218,252.727H42.2a4,4,0,0,1-3.991-3.991V58.943a4,4,0,0,1,3.991-3.99h135.02a4,4,0,0,1,3.99,3.99V248.736A4,4,0,0,1,177.218,252.727ZM42.2,55.128a3.82,3.82,0,0,0-3.816,3.816V248.736a3.82,3.82,0,0,0,3.816,3.816h135.02a3.82,3.82,0,0,0,3.816-3.816V58.943a3.82,3.82,0,0,0-3.816-3.816Z" transform="translate(-11.492 -54.953)" fill="#ebebeb"/>
          <path id="Trazado_132630" data-name="Trazado 132630" d="M393.515,252.727H258.5a4,4,0,0,1-3.991-3.991V58.943a4,4,0,0,1,3.991-3.99H393.515a4,4,0,0,1,3.992,3.99V248.736A4,4,0,0,1,393.515,252.727ZM258.5,55.128a3.82,3.82,0,0,0-3.816,3.816V248.736a3.82,3.82,0,0,0,3.816,3.816H393.515a3.821,3.821,0,0,0,3.817-3.816V58.943a3.821,3.821,0,0,0-3.817-3.816Z" transform="translate(-76.548 -54.953)" fill="#ebebeb"/>
        </g>
        <g id="Grupo_66269" data-name="Grupo 66269" transform="translate(33.432 9.523)">
          <g id="Grupo_66250" data-name="Grupo 66250" transform="translate(183.472 6.19)">
            <path id="Trazado_132631" data-name="Trazado 132631" d="M340.777,91.906a3.417,3.417,0,0,0-4.4-3.274,7.318,7.318,0,0,0,.076-1.05,7.237,7.237,0,0,0-8.574-7.116,6.328,6.328,0,0,0-11.734,3.2c-.036,0-.07-.006-.106-.006a5.833,5.833,0,1,0,0,11.665h21.42l0,0A3.417,3.417,0,0,0,340.777,91.906Z" transform="translate(-310.205 -77.425)" fill="#f0f0f0"/>
            <path id="Trazado_132632" data-name="Trazado 132632" d="M331.711,102.586V95.92h-5.437v6.666h-4.427l7.145,6.038,7.146-6.038Z" transform="translate(-313.707 -82.988)" fill="#e0e0e0"/>
          </g>
          <g id="Grupo_66256" data-name="Grupo 66256" transform="translate(101.94 21.884)">
            <path id="Trazado_132635" data-name="Trazado 132635" d="M208.97,154.942V135.9h58.3V154.75" transform="translate(-198.224 -110.708)" fill="none" stroke="#e6e6e6" stroke-miterlimit="10" stroke-width="1"/>
            <line id="Línea_1769" data-name="Línea 1769" y2="36.928" transform="translate(40.76 7.254)" fill="none" stroke="#e6e6e6" stroke-miterlimit="10" stroke-width="1"/>
            <g id="Grupo_66252" data-name="Grupo 66252" transform="translate(30.014)">
              <rect id="Rectángulo_30177" data-name="Rectángulo 30177" width="21.493" height="13.463" rx="1.187" fill="#f0f0f0"/>
              <rect id="Rectángulo_30178" data-name="Rectángulo 30178" width="20.008" height="11.344" rx="0.421" transform="translate(0.742 1.582)" fill="#e0e0e0"/>
            </g>
            <g id="Grupo_66253" data-name="Grupo 66253" transform="translate(0 42.508)">
              <rect id="Rectángulo_30179" data-name="Rectángulo 30179" width="21.493" height="13.463" rx="1.187" fill="#f0f0f0"/>
              <rect id="Rectángulo_30180" data-name="Rectángulo 30180" width="20.008" height="11.344" rx="0.421" transform="translate(0.742 1.582)" fill="#e0e0e0"/>
            </g>
            <g id="Grupo_66254" data-name="Grupo 66254" transform="translate(30.014 42.508)">
              <rect id="Rectángulo_30181" data-name="Rectángulo 30181" width="21.493" height="13.463" rx="1.187" fill="#f0f0f0"/>
              <rect id="Rectángulo_30182" data-name="Rectángulo 30182" width="20.008" height="11.344" rx="0.421" transform="translate(0.742 1.582)" fill="#e0e0e0"/>
            </g>
            <g id="Grupo_66255" data-name="Grupo 66255" transform="translate(58.35 42.508)">
              <rect id="Rectángulo_30183" data-name="Rectángulo 30183" width="21.493" height="13.463" rx="1.187" fill="#f0f0f0"/>
              <rect id="Rectángulo_30184" data-name="Rectángulo 30184" width="20.008" height="11.344" rx="0.421" transform="translate(0.742 1.582)" fill="#e0e0e0"/>
            </g>
            <path id="Rectángulo_30185" data-name="Rectángulo 30185" d="M.806,0H7.922a.805.805,0,0,1,.805.805V7.922a.806.806,0,0,1-.806.806H.805A.805.805,0,0,1,0,7.922V.806A.806.806,0,0,1,.806,0Z" transform="translate(34.589 25.196) rotate(-45)" fill="#e0e0e0" style="isolation: isolate"/>
          </g>
          <g id="Grupo_66259" data-name="Grupo 66259" transform="translate(0.555 37.813)">
            <rect id="Rectángulo_30186" data-name="Rectángulo 30186" width="15.208" height="9.114" rx="0.871" transform="translate(13.704)" fill="#e0e0e0" opacity="0.8"/>
            <rect id="Rectángulo_30187" data-name="Rectángulo 30187" width="12.3" height="6.957" rx="0.871" transform="translate(5.94 19.602)" fill="#e0e0e0"/>
            <rect id="Rectángulo_30188" data-name="Rectángulo 30188" width="12.3" height="6.957" rx="0.871" transform="translate(24.602 19.602)" fill="#e0e0e0"/>
            <g id="Grupo_66257" data-name="Grupo 66257" transform="translate(18.971 34.324)">
              <rect id="Rectángulo_30189" data-name="Rectángulo 30189" width="6.456" height="5.943" rx="0.871" fill="#e0e0e0"/>
              <rect id="Rectángulo_30190" data-name="Rectángulo 30190" width="6.456" height="5.943" rx="0.871" transform="translate(8.199)" fill="#e0e0e0"/>
              <rect id="Rectángulo_30191" data-name="Rectángulo 30191" width="6.456" height="5.943" rx="0.871" transform="translate(16.398)" fill="#e0e0e0"/>
            </g>
            <rect id="Rectángulo_30192" data-name="Rectángulo 30192" width="6.456" height="5.943" rx="0.871" transform="translate(0 34.324)" fill="#e0e0e0"/>
            <rect id="Rectángulo_30193" data-name="Rectángulo 30193" width="6.456" height="5.943" rx="0.871" transform="translate(8.899 34.324)" fill="#e0e0e0"/>
            <g id="Grupo_66258" data-name="Grupo 66258" transform="translate(2.779 9.114)">
              <path id="Trazado_132636" data-name="Trazado 132636" d="M83.76,146.173h.7v-4.895H75.37v-5.594h-.7v5.594H65.58v4.895h.7v-4.2H83.76Z" transform="translate(-56.49 -135.684)" fill="#e0e0e0"/>
              <path id="Trazado_132637" data-name="Trazado 132637" d="M61.67,164.88H52.58v3.5h.7v-2.8H61.67v2.8h.7v-7.691h-.7Z" transform="translate(-52.58 -143.204)" fill="#e0e0e0"/>
              <path id="Trazado_132638" data-name="Trazado 132638" d="M88.67,165.579v-4.895h-.7v4.895H79.58v2.8h.7v-2.1h7.691v2.1h.7v-2.1h7.691v2.1h.7v-2.8Z" transform="translate(-60.701 -143.204)" fill="#e0e0e0"/>
            </g>
          </g>
          <g id="Grupo_66260" data-name="Grupo 66260" transform="translate(212.16 26.705)">
            <path id="Trazado_132639" data-name="Trazado 132639" d="M380.993,120.06v5.023l2.586.244a13.414,13.414,0,0,0,1.928,4.639l-1.661,2.007,3.552,3.552,2.007-1.661a13.427,13.427,0,0,0,4.639,1.929l.244,2.586h5.023l.243-2.587a13.416,13.416,0,0,0,4.64-1.928l2.007,1.661,3.552-3.552-1.661-2.007a13.414,13.414,0,0,0,1.928-4.639l2.587-.244V120.06l-2.587-.243a13.408,13.408,0,0,0-1.928-4.639l1.661-2.007-3.552-3.552-2.007,1.661a13.43,13.43,0,0,0-4.64-1.928l-.243-2.586h-5.023l-.244,2.586a13.426,13.426,0,0,0-4.639,1.928l-2.007-1.661-3.552,3.552,1.661,2.006a13.417,13.417,0,0,0-1.928,4.64Zm15.807-4.288a6.8,6.8,0,1,1-6.8,6.8A6.8,6.8,0,0,1,396.8,115.771Z" transform="translate(-360.184 -106.764)" fill="#f5f5f5"/>
            <path id="Trazado_132640" data-name="Trazado 132640" d="M379.376,168.411a10.511,10.511,0,0,0,3.636-1.512l1.573,1.3,2.783-2.783-1.3-1.573a10.5,10.5,0,0,0,1.512-3.636l2.027-.191v-3.936l-2.027-.191a10.5,10.5,0,0,0-1.512-3.636l1.3-1.573-2.783-2.783-1.573,1.3a10.523,10.523,0,0,0-3.636-1.511l-.191-2.027h-3.937l-.191,2.027a10.513,10.513,0,0,0-3.635,1.511l-1.573-1.3-2.784,2.783,1.3,1.573a10.526,10.526,0,0,0-1.512,3.636l-2.026.191v3.936l2.026.191a10.532,10.532,0,0,0,1.512,3.636l-1.3,1.573,2.784,2.783,1.573-1.3a10.5,10.5,0,0,0,3.635,1.512l.191,2.027h3.937Zm-7.487-10.36a5.328,5.328,0,1,1,5.328,5.329A5.329,5.329,0,0,1,371.889,158.051Z" transform="translate(-355.323 -118.464)" fill="#f5f5f5"/>
            <path id="Trazado_132641" data-name="Trazado 132641" d="M366.5,140.056l1.32,1.094,2.338-2.338-1.094-1.321a8.838,8.838,0,0,0,1.27-3.054l1.7-.16v-3.306l-1.7-.16a8.833,8.833,0,0,0-1.27-3.054l1.094-1.321-2.338-2.338-1.32,1.094a8.838,8.838,0,0,0-3.054-1.27l-.16-1.7h-3.306l-.16,1.7a8.819,8.819,0,0,0-3.054,1.27l-1.321-1.094-2.337,2.338,1.093,1.321a8.833,8.833,0,0,0-1.27,3.054l-1.7.16v3.306l1.7.16a8.852,8.852,0,0,0,1.27,3.054l-1.093,1.321,2.337,2.338,1.321-1.094a8.832,8.832,0,0,0,3.054,1.27l.16,1.7h3.306l.16-1.7A8.838,8.838,0,0,0,366.5,140.056Zm-9.343-7.432a4.476,4.476,0,1,1,4.476,4.476A4.476,4.476,0,0,1,357.162,132.623Z" transform="translate(-351.233 -111.412)" fill="#f5f5f5"/>
          </g>
          <g id="Grupo_66263" data-name="Grupo 66263" transform="translate(226.845 178.624)">
            <g id="Grupo_66261" data-name="Grupo 66261" transform="translate(0)">
              <rect id="Rectángulo_30194" data-name="Rectángulo 30194" width="46.952" height="30.538" fill="#f5f5f5"/>
            </g>
            <rect id="Rectángulo_30195" data-name="Rectángulo 30195" width="43.516" height="23.285" transform="translate(1.718 5.726)" fill="#e0e0e0"/>
            <g id="Grupo_66262" data-name="Grupo 66262" transform="translate(5.264 9.205)">
              <rect id="Rectángulo_30196" data-name="Rectángulo 30196" width="32.19" height="1.002" fill="#f5f5f5"/>
              <rect id="Rectángulo_30197" data-name="Rectángulo 30197" width="15.445" height="1.002" transform="translate(0 3.068)" fill="#f5f5f5"/>
              <rect id="Rectángulo_30198" data-name="Rectángulo 30198" width="19.453" height="1.002" transform="translate(0 6.136)" fill="#f5f5f5"/>
              <rect id="Rectángulo_30199" data-name="Rectángulo 30199" width="6.856" height="1.002" transform="translate(0 9.203)" fill="#f5f5f5"/>
              <rect id="Rectángulo_30200" data-name="Rectángulo 30200" width="4.44" height="1.002" transform="translate(0 12.271)" fill="#f5f5f5"/>
            </g>
          </g>
          <g id="Grupo_66268" data-name="Grupo 66268" transform="translate(0 178.451)">
            <rect id="Rectángulo_30201" data-name="Rectángulo 30201" width="33.409" height="20.607" transform="matrix(1, -0.005, 0.005, 1, 0, 0.152)" fill="#ebebeb"/>
            <g id="Grupo_66267" data-name="Grupo 66267" transform="translate(6.022 5.181)">
              <g id="Grupo_66264" data-name="Grupo 66264" transform="translate(0 0.037)">
                <path id="Trazado_132642" data-name="Trazado 132642" d="M63.219,341.606a.7.7,0,0,1-.412-.135l-6.1-4.453a.7.7,0,0,1,0-1.125l6.055-4.509a.7.7,0,1,1,.835,1.122L58.3,336.448l5.33,3.895a.7.7,0,0,1-.413,1.264Z" transform="translate(-56.425 -331.246)" fill="#fafafa"/>
              </g>
              <g id="Grupo_66265" data-name="Grupo 66265" transform="translate(13.964)">
                <path id="Trazado_132643" data-name="Trazado 132643" d="M77.137,341.554a.7.7,0,0,1-.419-1.26l5.295-3.943-5.33-3.893a.7.7,0,1,1,.825-1.129l6.1,4.453a.7.7,0,0,1,0,1.125l-6.055,4.509A.7.7,0,0,1,77.137,341.554Z" transform="translate(-76.396 -331.194)" fill="#fafafa"/>
              </g>
              <g id="Grupo_66266" data-name="Grupo 66266" transform="translate(8.459 0.01)">
                <path id="Trazado_132644" data-name="Trazado 132644" d="M69.223,341.584a.7.7,0,0,1-.66-.93l3.14-8.977a.7.7,0,0,1,1.32.461l-3.14,8.977A.7.7,0,0,1,69.223,341.584Z" transform="translate(-68.523 -331.208)" fill="#fafafa"/>
              </g>
            </g>
          </g>
          <g id="Grupo_890464" data-name="Grupo 890464" transform="translate(-466.432 -1294.278)">
            <g id="Grupo_890459" data-name="Grupo 890459" transform="translate(518 1289.9)">
              <g id="Grupo_890458" data-name="Grupo 890458" clip-path="url(#clip-path)">
                <path id="Trazado_608246" data-name="Trazado 608246" d="M96.2,73.16s-3.286-2-3.344-3.175" transform="translate(-26.33 -19.845)" fill="none" stroke="#263238" stroke-linecap="round" stroke-linejoin="round" stroke-width="1"/>
                <path id="Trazado_608247" data-name="Trazado 608247" d="M2.223,2.581V2.223h.358" transform="translate(-0.63 -0.63)" fill="none" stroke="#263238" stroke-linecap="round" stroke-linejoin="round" stroke-width="1"/>
                <line id="Línea_2249" data-name="Línea 2249" x2="60.61" transform="translate(4.053 1.593)" fill="none" stroke="#263238" stroke-linecap="round" stroke-linejoin="round" stroke-width="1" stroke-dasharray="0.978 2.934"/>
                <path id="Trazado_608248" data-name="Trazado 608248" d="M91.723,2.223h.358v.358" transform="translate(-26.009 -0.63)" fill="none" stroke="#263238" stroke-linecap="round" stroke-linejoin="round" stroke-width="1"/>
                <line id="Línea_2250" data-name="Línea 2250" y2="39.046" transform="translate(66.073 4.1)" fill="none" stroke="#263238" stroke-linecap="round" stroke-linejoin="round" stroke-width="1" stroke-dasharray="1 3"/>
                <path id="Trazado_608249" data-name="Trazado 608249" d="M92.081,61.723v.358h-.358" transform="translate(-26.009 -17.502)" fill="none" stroke="#263238" stroke-linecap="round" stroke-linejoin="round" stroke-width="1"/>
                <line id="Línea_2251" data-name="Línea 2251" x1="60.61" transform="translate(3.002 44.579)" fill="none" stroke="#263238" stroke-linecap="round" stroke-linejoin="round" stroke-width="1" stroke-dasharray="0.978 2.934"/>
                <path id="Trazado_608250" data-name="Trazado 608250" d="M2.581,62.081H2.223v-.358" transform="translate(-0.63 -17.502)" fill="none" stroke="#263238" stroke-linecap="round" stroke-linejoin="round" stroke-width="1"/>
                <line id="Línea_2252" data-name="Línea 2252" y1="39.046" transform="translate(1.593 3.026)" fill="none" stroke="#263238" stroke-linecap="round" stroke-linejoin="round" stroke-width="1" stroke-dasharray="1 3"/>
                <path id="Trazado_608251" data-name="Trazado 608251" d="M47.866,1.8A1.063,1.063,0,1,1,46.8.74,1.063,1.063,0,0,1,47.866,1.8" transform="translate(-12.97 -0.21)" fill="#26aab7"/>
                <path id="Trazado_608252" data-name="Trazado 608252" d="M47.866,1.8A1.063,1.063,0,1,1,46.8.74,1.063,1.063,0,0,1,47.866,1.8Z" transform="translate(-12.97 -0.21)" fill="none" stroke="#263238" stroke-linecap="round" stroke-linejoin="round" stroke-width="1"/>
                <path id="Trazado_608253" data-name="Trazado 608253" d="M2.866,31.8A1.063,1.063,0,1,1,1.8,30.739,1.063,1.063,0,0,1,2.866,31.8" transform="translate(-0.21 -8.716)" fill="#26aab7"/>
                <path id="Trazado_608254" data-name="Trazado 608254" d="M2.866,31.8A1.063,1.063,0,1,1,1.8,30.739,1.063,1.063,0,0,1,2.866,31.8Z" transform="translate(-0.21 -8.716)" fill="none" stroke="#263238" stroke-linecap="round" stroke-linejoin="round" stroke-width="1"/>
                <path id="Trazado_608255" data-name="Trazado 608255" d="M47.866,61.8A1.063,1.063,0,1,1,46.8,60.739,1.063,1.063,0,0,1,47.866,61.8" transform="translate(-12.97 -17.223)" fill="#26aab7"/>
                <path id="Trazado_608256" data-name="Trazado 608256" d="M47.866,61.8A1.063,1.063,0,1,1,46.8,60.739,1.063,1.063,0,0,1,47.866,61.8Z" transform="translate(-12.97 -17.223)" fill="none" stroke="#263238" stroke-linecap="round" stroke-linejoin="round" stroke-width="1"/>
                <path id="Trazado_608257" data-name="Trazado 608257" d="M92.866,31.8A1.063,1.063,0,1,1,91.8,30.739,1.063,1.063,0,0,1,92.866,31.8" transform="translate(-25.73 -8.716)" fill="#26aab7"/>
                <path id="Trazado_608258" data-name="Trazado 608258" d="M92.866,31.8A1.063,1.063,0,1,1,91.8,30.739,1.063,1.063,0,0,1,92.866,31.8Z" transform="translate(-25.73 -8.716)" fill="none" stroke="#263238" stroke-linecap="round" stroke-linejoin="round" stroke-width="1"/>
                <rect id="Rectángulo_301514" data-name="Rectángulo 301514" width="2.469" height="2.469" transform="translate(64.838 43.345)" fill="#26aab7"/>
                <rect id="Rectángulo_301515" data-name="Rectángulo 301515" width="2.469" height="2.469" transform="translate(64.838 43.345)" fill="none" stroke="#263238" stroke-linecap="round" stroke-linejoin="round" stroke-width="1"/>
                <rect id="Rectángulo_301516" data-name="Rectángulo 301516" width="2.469" height="2.469" transform="translate(64.838 0.358)" fill="#26aab7"/>
                <rect id="Rectángulo_301517" data-name="Rectángulo 301517" width="2.469" height="2.469" transform="translate(64.838 0.358)" fill="none" stroke="#263238" stroke-linecap="round" stroke-linejoin="round" stroke-width="1"/>
                <rect id="Rectángulo_301518" data-name="Rectángulo 301518" width="2.469" height="2.469" transform="translate(0.358 43.345)" fill="#26aab7"/>
                <rect id="Rectángulo_301519" data-name="Rectángulo 301519" width="2.469" height="2.469" transform="translate(0.358 43.345)" fill="none" stroke="#263238" stroke-linecap="round" stroke-linejoin="round" stroke-width="1"/>
                <rect id="Rectángulo_301520" data-name="Rectángulo 301520" width="2.469" height="2.469" transform="translate(0.358 0.358)" fill="#26aab7"/>
                <rect id="Rectángulo_301521" data-name="Rectángulo 301521" width="2.469" height="2.469" transform="translate(0.358 0.358)" fill="none" stroke="#263238" stroke-linecap="round" stroke-linejoin="round" stroke-width="1"/>
                <rect id="Rectángulo_301522" data-name="Rectángulo 301522" width="56.119" height="35.657" transform="translate(5.871 5.395)" fill="#fff"/>
                <rect id="Rectángulo_301523" data-name="Rectángulo 301523" width="56.119" height="35.657" transform="translate(5.871 5.395)" fill="none" stroke="#263238" stroke-linecap="round" stroke-linejoin="round" stroke-width="1"/>
                <path id="Trazado_608259" data-name="Trazado 608259" d="M64.314,36.717l-6.239,6.239L41.2,26.078l-7.1,7.1L22.773,21.856,8.195,36.433V47.249H64.314Z" transform="translate(-2.324 -6.197)" fill="#b2ebf2"/>
                <path id="Trazado_608260" data-name="Trazado 608260" d="M64.314,36.717l-6.239,6.239L41.2,26.078l-7.1,7.1L22.773,21.856,8.195,36.433V47.249H64.314Z" transform="translate(-2.324 -6.197)" fill="none" stroke="#263238" stroke-linecap="round" stroke-linejoin="round" stroke-width="1"/>
                <path id="Trazado_608261" data-name="Trazado 608261" d="M72.691,20.088a3.962,3.962,0,1,1-3.962-3.962,3.962,3.962,0,0,1,3.962,3.962" transform="translate(-18.365 -4.573)" fill="#b2ebf2"/>
                <path id="Trazado_608262" data-name="Trazado 608262" d="M72.691,20.088a3.962,3.962,0,1,1-3.962-3.962A3.962,3.962,0,0,1,72.691,20.088Z" transform="translate(-18.365 -4.573)" fill="none" stroke="#263238" stroke-linecap="round" stroke-linejoin="round" stroke-width="1"/>
              </g>
            </g>
          </g>
        </g>
      </g>
      <g id="Ladder" transform="translate(212.834 267.105)">
        <g id="Grupo_66275" data-name="Grupo 66275">
          <g id="Grupo_66270" data-name="Grupo 66270" transform="translate(20.977 1.843)">
            <path id="Trazado_132645" data-name="Trazado 132645" d="M334.385,399.625h5.133L346.51,361h-5.133Z" transform="translate(-334.385 -360.998)" fill="#263238"/>
            <path id="Trazado_132646" data-name="Trazado 132646" d="M334.385,399.625h5.133L346.51,361h-5.133Z" transform="translate(-334.385 -360.998)" fill="#fff" opacity="0.2"/>
            <path id="Trazado_132647" data-name="Trazado 132647" d="M334.385,399.625h3.734L345.111,361h-3.734Z" transform="translate(-334.385 -360.998)" fill="#fff" opacity="0.2"/>
          </g>
          <path id="Trazado_132648" data-name="Trazado 132648" d="M313.2,376.456h20.552a1.135,1.135,0,0,0,1.134-1.135h0a1.134,1.134,0,0,0-1.134-1.134H313.2a1.134,1.134,0,0,0-1.134,1.134h0A1.135,1.135,0,0,0,313.2,376.456Z" transform="translate(-306.695 -363.122)" fill="#263238"/>
          <path id="Trazado_132649" data-name="Trazado 132649" d="M309.937,394.95h20.552a1.135,1.135,0,0,0,1.135-1.134h0a1.135,1.135,0,0,0-1.135-1.135H309.937a1.135,1.135,0,0,0-1.135,1.135h0A1.135,1.135,0,0,0,309.937,394.95Z" transform="translate(-305.713 -368.685)" fill="#263238"/>
          <g id="Grupo_66271" data-name="Grupo 66271" transform="translate(0 1.843)">
            <path id="Trazado_132650" data-name="Trazado 132650" d="M304.385,399.625h5.133L316.51,361h-5.133Z" transform="translate(-304.385 -360.998)" fill="#263238"/>
            <path id="Trazado_132651" data-name="Trazado 132651" d="M304.385,399.625h5.133L316.51,361h-5.133Z" transform="translate(-304.385 -360.998)" fill="#fff" opacity="0.2"/>
            <path id="Trazado_132652" data-name="Trazado 132652" d="M304.385,399.625h3.734L315.111,361h-3.734Z" transform="translate(-304.385 -360.998)" fill="#fff" opacity="0.2"/>
          </g>
          <g id="Grupo_66272" data-name="Grupo 66272" transform="translate(35.661 1.843)">
            <path id="Trazado_132653" data-name="Trazado 132653" d="M367.51,399.625h-5.133L355.385,361h5.133Z" transform="translate(-355.385 -360.998)" fill="#263238"/>
            <path id="Trazado_132654" data-name="Trazado 132654" d="M367.51,399.625h-5.133L355.385,361h5.133Z" transform="translate(-355.385 -360.998)" fill="#fff" opacity="0.4"/>
            <path id="Trazado_132655" data-name="Trazado 132655" d="M366.111,399.625h-3.734L355.385,361h3.734Z" transform="translate(-355.385 -360.998)" fill="#fff" opacity="0.2"/>
          </g>
          <path id="Trazado_132656" data-name="Trazado 132656" d="M350.488,376.456H329.937a1.135,1.135,0,0,1-1.135-1.135h0a1.135,1.135,0,0,1,1.135-1.134h20.552a1.135,1.135,0,0,1,1.135,1.134h0A1.135,1.135,0,0,1,350.488,376.456Z" transform="translate(-311.729 -363.122)" fill="#263238"/>
          <path id="Trazado_132657" data-name="Trazado 132657" d="M353.752,394.95H333.2a1.134,1.134,0,0,1-1.134-1.134h0a1.135,1.135,0,0,1,1.134-1.135h20.552a1.135,1.135,0,0,1,1.134,1.135h0A1.134,1.134,0,0,1,353.752,394.95Z" transform="translate(-312.71 -368.685)" fill="#263238"/>
          <path id="Trazado_132658" data-name="Trazado 132658" d="M350.488,376.456H329.937a1.135,1.135,0,0,1-1.135-1.135h0a1.135,1.135,0,0,1,1.135-1.134h20.552a1.135,1.135,0,0,1,1.135,1.134h0A1.135,1.135,0,0,1,350.488,376.456Z" transform="translate(-311.729 -363.122)" fill="#fff" opacity="0.2"/>
          <path id="Trazado_132659" data-name="Trazado 132659" d="M353.752,394.95H333.2a1.134,1.134,0,0,1-1.134-1.134h0a1.135,1.135,0,0,1,1.134-1.135h20.552a1.135,1.135,0,0,1,1.134,1.135h0A1.134,1.134,0,0,1,353.752,394.95Z" transform="translate(-312.71 -368.685)" fill="#fff" opacity="0.2"/>
          <g id="Grupo_66273" data-name="Grupo 66273" transform="translate(14.684 1.843)">
            <path id="Trazado_132660" data-name="Trazado 132660" d="M337.51,399.625h-5.133L325.385,361h5.133Z" transform="translate(-325.385 -360.998)" fill="#263238"/>
            <path id="Trazado_132661" data-name="Trazado 132661" d="M337.51,399.625h-5.133L325.385,361h5.133Z" transform="translate(-325.385 -360.998)" fill="#fff" opacity="0.4"/>
            <path id="Trazado_132662" data-name="Trazado 132662" d="M336.111,399.625h-3.734L325.385,361h3.734Z" transform="translate(-325.385 -360.998)" fill="#fff" opacity="0.2"/>
          </g>
          <g id="Grupo_66274" data-name="Grupo 66274" transform="translate(4.841)">
            <rect id="Rectángulo_30202" data-name="Rectángulo 30202" width="38.788" height="3.685" rx="1.187" fill="#263238"/>
            <rect id="Rectángulo_30203" data-name="Rectángulo 30203" width="15.775" height="3.685" rx="1.187" fill="#fff" opacity="0.2"/>
          </g>
        </g>
      </g>
      <g id="interface" transform="translate(88.944 276.534)">
        <g id="Grupo_66278" data-name="Grupo 66278" transform="translate(0 0)">
          <g id="Grupo_66276" data-name="Grupo 66276">
            <rect id="Rectángulo_30204" data-name="Rectángulo 30204" width="46.952" height="30.538" fill="#12263f"/>
          </g>
          <rect id="Rectángulo_30206" data-name="Rectángulo 30206" width="43.516" height="23.285" transform="translate(1.718 5.726)" fill="#d2e1f1"/>
          <g id="Grupo_66277" data-name="Grupo 66277" transform="translate(5.264 9.205)">
            <rect id="Rectángulo_30207" data-name="Rectángulo 30207" width="32.19" height="1.002" fill="#fff"/>
            <rect id="Rectángulo_30208" data-name="Rectángulo 30208" width="15.445" height="1.002" transform="translate(0 3.068)" fill="#fff"/>
            <rect id="Rectángulo_30209" data-name="Rectángulo 30209" width="19.453" height="1.002" transform="translate(0 6.136)" fill="#fff"/>
            <rect id="Rectángulo_30210" data-name="Rectángulo 30210" width="6.856" height="1.002" transform="translate(0 9.203)" fill="#fff"/>
            <rect id="Rectángulo_30211" data-name="Rectángulo 30211" width="4.44" height="1.002" transform="translate(0 12.271)" fill="#fff"/>
          </g>
        </g>
      </g>
      <g id="Monitor" transform="translate(80.088 131.469)">
        <g id="Grupo_66296" data-name="Grupo 66296">
          <g id="Grupo_66279" data-name="Grupo 66279" transform="translate(75.606 125.293)">
            <path id="Trazado_132663" data-name="Trazado 132663" d="M260.891,394.382H222.667l6.473-50.812h25.279Z" transform="translate(-222.667 -343.57)" fill="#12263f"/>
            <path id="Trazado_132665" data-name="Trazado 132665" d="M259.339,367.247,229,359.62l2.044-16.049h25.275Z" transform="translate(-224.572 -343.57)" opacity="0.1" style="isolation: isolate"/>
          </g>
          <g id="Grupo_66280" data-name="Grupo 66280">
            <path id="Trazado_132666" data-name="Trazado 132666" d="M299.364,164.382H119.149a4.612,4.612,0,0,0-4.611,4.611V291a4.612,4.612,0,0,0,4.611,4.611H299.364A4.612,4.612,0,0,0,303.975,291v-122A4.612,4.612,0,0,0,299.364,164.382Z" transform="translate(-114.538 -164.382)" fill="#12263f"/>
          </g>
          <rect id="Rectángulo_30212" data-name="Rectángulo 30212" width="177.303" height="117.645" transform="translate(6.068 4.516)" fill="#d2e1f1"/>
          <g id="Grupo_66281" data-name="Grupo 66281" transform="translate(61.893 172.287)">
            <rect id="Rectángulo_30213" data-name="Rectángulo 30213" width="65.65" height="3.756" rx="1.037" fill="#12263f"/>
          </g>
          <g id="Grupo_66291" data-name="Grupo 66291" transform="translate(6.068 4.628)">
            <rect id="Rectángulo_30215" data-name="Rectángulo 30215" width="177.303" height="17.535" opacity="0.2" style="isolation: isolate"/>
            <rect id="Rectángulo_30216" data-name="Rectángulo 30216" width="75.98" height="99.79" transform="translate(0 17.743)" fill="#fff" opacity="0.4"/>
            <g id="Grupo_66285" data-name="Grupo 66285" transform="translate(82.604 5.504)">
              <rect id="Rectángulo_30217" data-name="Rectángulo 30217" width="66.303" height="38.334" transform="translate(1.108 1.108)" fill="none" stroke="#fff" stroke-miterlimit="10" stroke-width="1" stroke-dasharray="5"/>
              <g id="Grupo_66282" data-name="Grupo 66282">
                <rect id="Rectángulo_30218" data-name="Rectángulo 30218" width="2.217" height="2.217" transform="translate(66.303)" fill="#407bff" stroke="#fff" stroke-miterlimit="10" stroke-width="1"/>
                <rect id="Rectángulo_30219" data-name="Rectángulo 30219" width="2.217" height="2.217" transform="translate(66.303 38.334)" fill="#407bff" stroke="#fff" stroke-miterlimit="10" stroke-width="1"/>
                <rect id="Rectángulo_30220" data-name="Rectángulo 30220" width="2.217" height="2.217" fill="#407bff" stroke="#fff" stroke-miterlimit="10" stroke-width="1"/>
                <rect id="Rectángulo_30221" data-name="Rectángulo 30221" width="2.217" height="2.217" transform="translate(0 38.334)" fill="#407bff" stroke="#fff" stroke-miterlimit="10" stroke-width="1"/>
              </g>
              <g id="Grupo_66283" data-name="Grupo 66283" transform="translate(33.152)">
                <rect id="Rectángulo_30222" data-name="Rectángulo 30222" width="2.217" height="2.217" fill="#407bff" stroke="#fff" stroke-miterlimit="10" stroke-width="1"/>
                <rect id="Rectángulo_30223" data-name="Rectángulo 30223" width="2.217" height="2.217" transform="translate(0 38.334)" fill="#407bff" stroke="#fff" stroke-miterlimit="10" stroke-width="1"/>
              </g>
              <g id="Grupo_66284" data-name="Grupo 66284" transform="translate(0 19.167)">
                <rect id="Rectángulo_30224" data-name="Rectángulo 30224" width="2.217" height="2.217" transform="translate(66.303)" fill="#407bff" stroke="#fff" stroke-miterlimit="10" stroke-width="1"/>
                <rect id="Rectángulo_30225" data-name="Rectángulo 30225" width="2.217" height="2.217" fill="#407bff" stroke="#fff" stroke-miterlimit="10" stroke-width="1"/>
              </g>
            </g>
            <path id="Rectángulo_30226" data-name="Rectángulo 30226" d="M1.893,0H16.978a1.894,1.894,0,0,1,1.894,1.894v3.2a1.894,1.894,0,0,1-1.894,1.894H1.893A1.893,1.893,0,0,1,0,5.089v-3.2A1.893,1.893,0,0,1,1.893,0Z" transform="translate(126.447 19.488)" fill="#fff" opacity="0.7"/>
            <path id="Rectángulo_30227" data-name="Rectángulo 30227" d="M1.893,0H16.978a1.894,1.894,0,0,1,1.894,1.894v3.2a1.893,1.893,0,0,1-1.893,1.893H1.894A1.894,1.894,0,0,1,0,5.089v-3.2A1.893,1.893,0,0,1,1.893,0Z" transform="translate(98.478 19.488)" fill="#fff" opacity="0.7"/>
            <path id="Rectángulo_30228" data-name="Rectángulo 30228" d="M1.894,0H16.978a1.894,1.894,0,0,1,1.894,1.894v3.2a1.893,1.893,0,0,1-1.893,1.893H1.894A1.894,1.894,0,0,1,0,5.089v-3.2A1.894,1.894,0,0,1,1.894,0Z" transform="translate(62.469 104.506)" fill="#fff" opacity="0.7"/>
            <g id="Grupo_66286" data-name="Grupo 66286" transform="translate(165.604 6.235)">
              <line id="Línea_1770" data-name="Línea 1770" x2="5.901" fill="none" stroke="#fff" stroke-linecap="round" stroke-linejoin="round" stroke-width="1.5"/>
              <line id="Línea_1771" data-name="Línea 1771" x2="5.901" transform="translate(0 2.797)" fill="none" stroke="#fff" stroke-linecap="round" stroke-linejoin="round" stroke-width="1.5"/>
              <line id="Línea_1772" data-name="Línea 1772" x2="5.901" transform="translate(0 5.594)" fill="none" stroke="#fff" stroke-linecap="round" stroke-linejoin="round" stroke-width="1.5"/>
            </g>
            <rect id="Rectángulo_30229" data-name="Rectángulo 30229" width="59.471" height="59.471" transform="translate(12.02 33.211)" fill="#fff" opacity="0.5"/>
            <g id="Grupo_66287" data-name="Grupo 66287" transform="translate(35.807 36.967)">
              <line id="Línea_1773" data-name="Línea 1773" y2="51.296" transform="translate(1.108 1.108)" fill="none" stroke="#12263f" stroke-miterlimit="10" stroke-width="1"/>
              <path id="Trazado_132668" data-name="Trazado 132668" d="M201.659,276.75h0A25.647,25.647,0,0,1,176.011,251.1h0a25.647,25.647,0,0,1,25.648-25.648h0" transform="translate(-174.903 -224.346)" fill="none" stroke="#12263f" stroke-miterlimit="10" stroke-width="1"/>
              <rect id="Rectángulo_30230" data-name="Rectángulo 30230" width="2.217" height="2.217" transform="translate(25.648)" fill="#fff" stroke="#12263f" stroke-miterlimit="10" stroke-width="1"/>
              <rect id="Rectángulo_30231" data-name="Rectángulo 30231" width="2.217" height="2.217" transform="translate(25.648 51.295)" fill="#fff" stroke="#12263f" stroke-miterlimit="10" stroke-width="1"/>
              <rect id="Rectángulo_30232" data-name="Rectángulo 30232" width="2.217" height="2.217" transform="translate(0 25.648)" fill="#fff" stroke="#12263f" stroke-miterlimit="10" stroke-width="1"/>
              <path id="Trazado_132669" data-name="Trazado 132669" d="M176.339,225.208a.575.575,0,1,1-.575-.575A.575.575,0,0,1,176.339,225.208Z" transform="translate(-174.655 -224.099)" fill="#fff" stroke="#12263f" stroke-miterlimit="10" stroke-width="1"/>
              <path id="Trazado_132670" data-name="Trazado 132670" d="M176.339,298.568a.575.575,0,1,1-.575-.574A.575.575,0,0,1,176.339,298.568Z" transform="translate(-174.655 -246.164)" fill="#fff" stroke="#12263f" stroke-miterlimit="10" stroke-width="1"/>
            </g>
            <path id="Trazado_132671" data-name="Trazado 132671" d="M306.947,317.193h-18a5.2,5.2,0,0,1-5.2-5.2h0a5.2,5.2,0,0,1,5.2-5.2h18a5.2,5.2,0,0,1,5.2,5.2h0A5.2,5.2,0,0,1,306.947,317.193Z" transform="translate(-171.498 -211.842)" fill="#fff" opacity="0.7"/>
            <path id="Trazado_132672" data-name="Trazado 132672" d="M315.138,257.24H259.522a1.137,1.137,0,0,1-1.137-1.137h0a1.137,1.137,0,0,1,1.137-1.137h55.616a1.137,1.137,0,0,1,1.137,1.137h0A1.137,1.137,0,0,1,315.138,257.24Z" transform="translate(-163.872 -196.255)" fill="#fff" opacity="0.7"/>
            <path id="Trazado_132673" data-name="Trazado 132673" d="M315.138,269.117H259.522a1.137,1.137,0,0,1-1.137-1.137h0a1.137,1.137,0,0,1,1.137-1.138h55.616a1.137,1.137,0,0,1,1.137,1.138h0A1.137,1.137,0,0,1,315.138,269.117Z" transform="translate(-163.872 -199.827)" fill="#fff" opacity="0.7"/>
            <path id="Trazado_132674" data-name="Trazado 132674" d="M324.162,280.993h-34.64a1.137,1.137,0,0,1-1.137-1.137h0a1.137,1.137,0,0,1,1.137-1.137h34.64a1.137,1.137,0,0,1,1.137,1.137h0A1.137,1.137,0,0,1,324.162,280.993Z" transform="translate(-172.895 -203.4)" fill="#fff" opacity="0.7"/>
            <g id="Grupo_66288" data-name="Grupo 66288" transform="translate(5.6 4.861)">
              <rect id="Rectángulo_30233" data-name="Rectángulo 30233" width="3.929" height="3.929" opacity="0.4" style="isolation: isolate"/>
              <path id="Rectángulo_30234" data-name="Rectángulo 30234" d="M1.439,0h1.05a1.44,1.44,0,0,1,1.44,1.44v1.05A1.439,1.439,0,0,1,2.489,3.929H1.44A1.44,1.44,0,0,1,0,2.489V1.439A1.439,1.439,0,0,1,1.439,0Z" transform="translate(7.639)" opacity="0.4" style="isolation: isolate"/>
              <path id="Rectángulo_30235" data-name="Rectángulo 30235" d="M1.964,0h0A1.964,1.964,0,0,1,3.929,1.964v0A1.964,1.964,0,0,1,1.965,3.929h0A1.964,1.964,0,0,1,0,1.964v0A1.964,1.964,0,0,1,1.964,0Z" transform="translate(15.279)" opacity="0.4" style="isolation: isolate"/>
            </g>
            <g id="Grupo_66290" data-name="Grupo 66290" transform="translate(8.011 96.154)">
              <g id="Grupo_66289" data-name="Grupo 66289">
                <path id="Trazado_132675" data-name="Trazado 132675" d="M144.31,314.1v-1.531l-.789-.074a4.084,4.084,0,0,0-.588-1.415l.507-.612-1.083-1.082-.612.506a4.081,4.081,0,0,0-1.414-.588l-.074-.788h-1.531l-.074.788a4.079,4.079,0,0,0-1.415.588l-.612-.506-1.082,1.082.506.612a4.085,4.085,0,0,0-.588,1.415l-.788.074V314.1l.788.074a4.081,4.081,0,0,0,.588,1.414l-.506.612,1.082,1.083.612-.507a4.079,4.079,0,0,0,1.415.588l.074.789h1.531l.074-.789a4.081,4.081,0,0,0,1.414-.588l.612.507,1.083-1.083-.507-.612a4.081,4.081,0,0,0,.588-1.414Zm-4.818,1.307a2.073,2.073,0,1,1,2.073-2.072A2.073,2.073,0,0,1,139.491,315.407Z" transform="translate(-134.673 -308.516)" fill="#fff" opacity="0.9"/>
                <path id="Trazado_132676" data-name="Trazado 132676" d="M154.082,320.8v-1.2l-.618-.059a3.2,3.2,0,0,0-.461-1.108l.4-.48-.848-.848-.48.4a3.211,3.211,0,0,0-1.108-.461l-.058-.617h-1.2l-.058.617a3.211,3.211,0,0,0-1.108.461l-.48-.4-.848.848.4.48a3.2,3.2,0,0,0-.461,1.108l-.618.059v1.2l.618.058a3.2,3.2,0,0,0,.461,1.108l-.4.479.848.849.48-.4a3.2,3.2,0,0,0,1.108.461l.058.618h1.2l.058-.618a3.2,3.2,0,0,0,1.108-.461l.48.4.848-.849-.4-.479a3.2,3.2,0,0,0,.461-1.108Zm-3.776,1.024a1.624,1.624,0,1,1,1.624-1.624A1.624,1.624,0,0,1,150.306,321.825Z" transform="translate(-138.239 -310.895)" fill="#fff" opacity="0.6"/>
                <path id="Trazado_132677" data-name="Trazado 132677" d="M145.726,325.973v-1.008l-.519-.049a2.687,2.687,0,0,0-.387-.931l.334-.4-.713-.712-.4.334a2.687,2.687,0,0,0-.931-.387l-.049-.519h-1.008l-.049.519a2.69,2.69,0,0,0-.931.387l-.4-.334-.713.712.334.4a2.686,2.686,0,0,0-.387.931l-.52.049v1.008l.519.049a2.686,2.686,0,0,0,.387.931l-.334.4.713.712.4-.333a2.7,2.7,0,0,0,.931.387l.049.519h1.008l.049-.519a2.7,2.7,0,0,0,.931-.387l.4.333.713-.712-.334-.4a2.687,2.687,0,0,0,.387-.931Zm-3.172.861a1.365,1.365,0,1,1,1.364-1.364A1.365,1.365,0,0,1,142.555,326.834Z" transform="translate(-136.09 -312.661)" fill="#fff" opacity="0.4"/>
              </g>
            </g>
          </g>
          <g id="Grupo_66293" data-name="Grupo 66293" transform="translate(155.675 10.845)">
            <g id="Grupo_66292" data-name="Grupo 66292" transform="translate(0 0)">
              <path id="Trazado_132678" data-name="Trazado 132678" d="M337.177,179.892l2.967,7.928,4.961-4.961Z" transform="translate(-337.177 -179.892)" fill="#12263f"/>
              <rect id="Rectángulo_30236" data-name="Rectángulo 30236" width="1.563" height="3.474" transform="translate(3.666 4.772) rotate(-45)" fill="#12263f"/>
            </g>
          </g>
          <g id="Grupo_66294" data-name="Grupo 66294" transform="translate(33.396 33.408)">
            <path id="Trazado_132680" data-name="Trazado 132680" d="M163.113,217.934l7.459,2.791-3.91-3.911a.762.762,0,0,1-.916-.117.772.772,0,1,1,1.092-1.091.762.762,0,0,1,.117.915l3.911,3.911-2.791-7.46-2.47.548-.1-.892-.468-.468L162.3,214.9l.468.468.892.1Z" transform="translate(-162.3 -212.16)" fill="#263238"/>
            <path id="Trazado_132681" data-name="Trazado 132681" d="M163.113,217.934l7.459,2.791-3.91-3.911a.762.762,0,0,1-.916-.117.772.772,0,1,1,1.092-1.091.762.762,0,0,1,.117.915l3.911,3.911-2.791-7.46-2.47.548-.1-.892-.468-.468L162.3,214.9l.468.468.892.1Z" transform="translate(-162.3 -212.16)" fill="#fff" opacity="0.2"/>
          </g>
        </g>
      </g>
      <g id="Character_2" data-name="Character 2" transform="translate(243.393 129.139)">
        <g id="Grupo_66305" data-name="Grupo 66305">
          <g id="Grupo_66298" data-name="Grupo 66298" transform="translate(54.777 32.799)">
            <path id="Trazado_132686" data-name="Trazado 132686" d="M437.249,207.958c2.48,2.865,15.108,27.19,12.667,32.869s-22.675-.868-22.675-.868l1.209-8.014s7.863.276,8.615-.469-10.637-12.12-10.637-12.12Z" transform="translate(-426.429 -207.958)" fill="#1565c0"/>
          </g>
          <path id="Trazado_132688" data-name="Trazado 132688" d="M448.79,245.058c-.007,0-.014.007-.021.014-.126.063-.266.126-.406.182a.489.489,0,0,1-.056.021,3.11,3.11,0,0,1-.385.133,8.483,8.483,0,0,1-1.748.364c-.168.021-.336.035-.51.049-.252.021-.5.035-.762.042-.217.007-.44.014-.664.014-6.782.007-16.649-3.181-16.649-3.181l1.21-8.02s8.852.748,9.607,0a.093.093,0,0,0,.021-.035c.14-.294-.839-1.287-2.286-2.552l-.014-.014c-2.224-2.734-6.678-7.286-8.517-9.146l5.118-5.468,3.895-.42S445.224,230.962,448.79,245.058Z" transform="translate(-372.001 -177.89)" opacity="0.2" style="isolation: isolate"/>
          <g id="Grupo_66299" data-name="Grupo 66299" transform="translate(38.353 31.079)">
            <path id="Trazado_132689" data-name="Trazado 132689" d="M404.671,206.42c-1.4,1.017-2.091,2.457-1.54,3.217l36.949,50.941c.551.76,2.134.552,3.535-.464s2.091-2.457,1.54-3.217l-36.948-50.941C407.655,205.2,406.072,205.4,404.671,206.42Z" transform="translate(-402.941 -205.499)" fill="#263238"/>
            <path id="Trazado_132690" data-name="Trazado 132690" d="M408.206,205.958,445.155,256.9c.55.759-.141,2.2-1.538,3.214s-2.983,1.222-3.533.464l-36.949-50.941a1.59,1.59,0,0,1,.135-1.7,4.093,4.093,0,0,1,.7-.915,5.483,5.483,0,0,1,.7-.6C406.071,205.407,407.656,205.2,408.206,205.958Z" transform="translate(-402.942 -205.499)" fill="#fff" opacity="0.7"/>
            <path id="Trazado_132691" data-name="Trazado 132691" d="M445.294,257.555c.55.759-.141,2.2-1.538,3.214s-2.983,1.222-3.533.464c-.3-.419.459-1.051.9-1.97L403.409,208.6a4.094,4.094,0,0,1,.7-.915l36.953,50.947a5.524,5.524,0,0,1,.7-.61C443.159,257,444.744,256.8,445.294,257.555Z" transform="translate(-403.081 -206.155)" opacity="0.3" style="isolation: isolate"/>
          </g>
          <g id="Grupo_66300" data-name="Grupo 66300" transform="translate(34.272 29.183)">
            <path id="Trazado_132692" data-name="Trazado 132692" d="M398.339,204.192c-1.183,1.264-1.587,2.809-.9,3.45l45.939,43.009c.685.642,2.2.138,3.384-1.126s1.587-2.809.9-3.451l-45.939-43.009C401.037,202.423,399.522,202.927,398.339,204.192Z" transform="translate(-397.104 -202.786)" fill="#407bff"/>
            <path id="Trazado_132693" data-name="Trazado 132693" d="M401.722,203.066l45.939,43.009c.684.641.28,2.188-.9,3.449s-2.7,1.766-3.381,1.125l-45.94-43.009a1.59,1.59,0,0,1-.189-1.69,4.1,4.1,0,0,1,.515-1.031,5.633,5.633,0,0,1,.575-.727C399.521,202.931,401.038,202.426,401.722,203.066Z" transform="translate(-397.105 -202.787)" fill="#fff" opacity="0.7"/>
            <path id="Trazado_132694" data-name="Trazado 132694" d="M447.723,246.991c.684.64.28,2.188-.9,3.449s-2.7,1.766-3.381,1.125c-.378-.353.251-1.119.511-2.105l-46.64-42.594a4.1,4.1,0,0,1,.515-1.031l45.945,43.014a5.546,5.546,0,0,1,.57-.731C445.523,246.856,447.039,246.351,447.723,246.991Z" transform="translate(-397.167 -203.703)" opacity="0.3" style="isolation: isolate"/>
          </g>
          <path id="Trazado_132695" data-name="Trazado 132695" d="M409.005,368.34l-3.5.056c-3.559-16.719-6.076-37.409-7.643-53.015-.245-2.447-.469-4.762-.664-6.922-.091-1.028-.182-2.014-.266-2.965-.42-4.692-.706-8.412-.881-10.712-.126-1.678-.189-2.6-.189-2.6h12.656L408.4,295.4l-.392,10.642-.042,1.217-.266,7.027-.441,11.964C411.6,343.1,409.005,368.34,409.005,368.34Z" transform="translate(-362.458 -200.491)" fill="#ebb376"/>
          <path id="Trazado_132696" data-name="Trazado 132696" d="M444.113,367.571l-3.447.65c-6.9-17.25-13.383-39.338-17.6-54.77-.65-2.391-1.252-4.629-1.79-6.657-.028-.1-.049-.2-.077-.3-1.063-4.028-1.881-7.237-2.391-9.272-.392-1.594-.608-2.468-.608-2.468l12.474-2.154.706,5.244,1.042,7.705.2,1.51.706,5.251,1.895,14.082C442.372,342.252,444.113,367.571,444.113,367.571Z" transform="translate(-369.177 -200.617)" fill="#ebb376"/>
          <path id="Trazado_132697" data-name="Trazado 132697" d="M432.684,307.538l-11.146,1.245c-.028-.1-.049-.2-.077-.3-1.063-4.028-1.881-7.237-2.391-9.272l12.572.622Z" transform="translate(-369.439 -202.605)" opacity="0.2" style="isolation: isolate"/>
          <path id="Trazado_132698" data-name="Trazado 132698" d="M408.478,296.522l-.392,10.642-.042,1.217-10.768,1.2c-.091-1.028-.182-2.014-.266-2.965-.42-4.692-.706-8.412-.881-10.712Z" transform="translate(-362.539 -201.61)" opacity="0.2" style="isolation: isolate"/>
          <path id="Trazado_132699" data-name="Trazado 132699" d="M399.736,412.744a6.874,6.874,0,0,1,2.192-1.192h0s2.384-2.365,3.532-9.486l3.121-.814a2.659,2.659,0,0,1,2.84,1.109,1.5,1.5,0,0,1,.2.41,18.187,18.187,0,0,1,.334,2.314A64.338,64.338,0,0,1,412,412.9h-.564l-.224-4.91c-.084-1.666-1.359.289-1.724,2.083s-1.141,3.705-4.795,3.795C400.429,413.955,398.66,413.789,399.736,412.744Z" transform="translate(-363.531 -233.274)" fill="#1565c0"/>
          <path id="Trazado_132700" data-name="Trazado 132700" d="M413.869,400.989c.2-1.666.269-4.564.269-4.564l-6.935.769a13.378,13.378,0,0,1,.147,5.769C410.843,402.047,413.869,400.989,413.869,400.989Z" transform="translate(-365.869 -231.845)" fill="#1565c0"/>
          <path id="Trazado_132701" data-name="Trazado 132701" d="M440.1,412.744a6.868,6.868,0,0,1,2.192-1.192h0s2.384-2.365,3.532-9.486l3.121-.814a2.66,2.66,0,0,1,2.84,1.109,1.523,1.523,0,0,1,.2.41,18.165,18.165,0,0,1,.334,2.314,64.34,64.34,0,0,1,.045,7.819h-.564l-.224-4.91c-.083-1.666-1.359.289-1.724,2.083s-1.141,3.705-4.795,3.795C440.788,413.955,439.019,413.789,440.1,412.744Z" transform="translate(-375.67 -233.274)" fill="#1565c0"/>
          <path id="Trazado_132702" data-name="Trazado 132702" d="M454.227,400.989c.2-1.666.269-4.564.269-4.564l-6.936.769a13.372,13.372,0,0,1,.148,5.769C451.2,402.047,454.227,400.989,454.227,400.989Z" transform="translate(-378.008 -231.845)" fill="#1565c0"/>
          <path id="Trazado_132703" data-name="Trazado 132703" d="M425.959,287.291l-13.194,1.685-.51.063-2.713-9.943-.713,10.656-14.138-.741c-6.3-36.968,4.468-45.7,4.468-45.7l19.18,3.86c8.687,14.764,6.62,31.927,6.62,31.927Z" transform="translate(-361.511 -185.792)" fill="#ffd947"/>
          <g id="Grupo_66301" data-name="Grupo 66301" transform="translate(43.408)">
            <path id="Trazado_132704" data-name="Trazado 132704" d="M413.047,176.309c0,1.451-.644,2.628-1.438,2.628s-1.438-1.177-1.438-2.628.644-2.628,1.438-2.628S413.047,174.858,413.047,176.309Z" transform="translate(-410.17 -164.849)" fill="none" stroke="#263238" stroke-linecap="round" stroke-linejoin="round" stroke-width="0.5"/>
            <path id="Trazado_132705" data-name="Trazado 132705" d="M423.136,182.392a.993.993,0,0,1-.166.122,7.646,7.646,0,0,1-2.679,1.31c-2.833.654-4.769.266-6.032-1.016h-.006c-1.769-1.923-2.212-5.329-1.961-9.438a15.434,15.434,0,0,1,.9-4.8c.007-.013.007-.06.013-.073.025-.052.045-.123.07-.175a5.61,5.61,0,0,1,4.122-3.423,11.369,11.369,0,0,1,2.429-.273C427.834,164.545,429.277,177.816,423.136,182.392Z" transform="translate(-410.789 -162.126)" fill="#ebb376"/>
            <path id="Trazado_132706" data-name="Trazado 132706" d="M423.844,189.938a7.455,7.455,0,0,1-2.679,1.2c-2.833.654-4.769.173-6.031-1.128a7.994,7.994,0,0,0,5.083-.417A4.166,4.166,0,0,1,423.844,189.938Z" transform="translate(-411.663 -169.551)" opacity="0.2" style="isolation: isolate"/>
            <path id="Trazado_132707" data-name="Trazado 132707" d="M425.231,196.482c.494,2.282-2.461,3.211-2.461,3.211-4.833-2.063-5.73-4.634-5.73-4.634,4.032-2.1,2.865-8.051,2.865-8.051l.821.4,5.757,1.126s-1.6,3.065-1.81,3.764c0,.006-.006.013-.006.02C423.584,195.976,425.231,196.482,425.231,196.482Z" transform="translate(-412.236 -168.858)" fill="#ebb376"/>
            <path id="Trazado_132708" data-name="Trazado 132708" d="M413.594,167.623a8.424,8.424,0,0,0,4.883,8.032s2.286,5.836,5.652,5.919c4.589.112,8.633-6.418,7.043-13.067C429.111,159.883,416.046,159.182,413.594,167.623Z" transform="translate(-411.197 -161.231)" fill="#263238"/>
            <path id="Trazado_132709" data-name="Trazado 132709" d="M416.725,178.44c0-.877.706-2.349,2.068-2.149,1.41.207,2.192,3.683-1.273,4.46C417.023,180.862,416.721,180.268,416.725,178.44Z" transform="translate(-412.142 -165.628)" fill="#ebb376"/>
            <path id="Trazado_132710" data-name="Trazado 132710" d="M422.626,161.471s-5.36-1.356-8.323.8c-3.46,2.517-4.772,5.12-.675,9.162,0,0,9-2.917,11.992-2.3a32.387,32.387,0,0,1,5.131,1.49C431.38,164.68,425.619,160.256,422.626,161.471Z" transform="translate(-410.445 -161.05)" fill="#263238"/>
            <path id="Trazado_132711" data-name="Trazado 132711" d="M416.382,172.594s1.432,6.48-.8,12c0,0,12.725,4.415,17.151,2.017s.368-10.449.184-15.09-2.2-11.5-8.938-9.962S416.382,172.594,416.382,172.594Z" transform="translate(-411.798 -161.136)" fill="#263238"/>
            <line id="Línea_1774" data-name="Línea 1774" x2="5.376" transform="translate(0 11.045)" fill="none" stroke="#263238" stroke-linecap="round" stroke-linejoin="round" stroke-width="0.5"/>
          </g>
          <path id="Trazado_132712" data-name="Trazado 132712" d="M420,297.87l-.51.063-2.713-9.943s5.818-9.936,4-15.11C421.038,273.244,427.3,282.536,420,297.87Z" transform="translate(-368.75 -194.686)" opacity="0.2" style="isolation: isolate"/>
          <g id="Grupo_66302" data-name="Grupo 66302" transform="translate(33.729 26.242)">
            <path id="Trazado_132713" data-name="Trazado 132713" d="M402.958,199.46s6.4-2.282,16.044.5,10,6.892,10,6.892a97.279,97.279,0,0,0-7.073,29.532l-25.132-.94S393.8,213.316,402.958,199.46Z" transform="translate(-396.327 -198.58)" fill="#1565c0"/>
          </g>
          <path id="Trazado_132715" data-name="Trazado 132715" d="M402.61,225.2a17.755,17.755,0,0,1-6.272,10.307,74.973,74.973,0,0,1,.7-11.251Z" transform="translate(-362.6 -180.062)" opacity="0.2" style="isolation: isolate"/>
          <path id="Trazado_132716" data-name="Trazado 132716" d="M360.336,194.806l-3.168-4.7s-.487-2.041-1.1-2.507a44.091,44.091,0,0,0-7.433-3.037c-.731.012-.731,4.741,0,5.545a18.772,18.772,0,0,0,5.575,2.7c1.005.175.518,0,.518,0l2.8,5.588Z" transform="translate(-348.089 -168.122)" fill="#ebb376"/>
          <g id="Grupo_66303" data-name="Grupo 66303" transform="translate(6.763 23.281)">
            <path id="Trazado_132717" data-name="Trazado 132717" d="M391.358,198.187A138.125,138.125,0,0,0,371.764,208.3l-10.224-13.95s-2.761.857-3.778,5.652c0,0,5.253,20.008,12.076,21.991s21.171-5.779,21.171-5.779S395.175,205.782,391.358,198.187Z" transform="translate(-357.762 -194.346)" fill="#1565c0"/>
          </g>
          <g id="Grupo_66304" data-name="Grupo 66304" transform="translate(46.828 26.241)">
            <path id="Trazado_132719" data-name="Trazado 132719" d="M415.06,198.582s2.231,15.967,9.3,16.612,10.235-11.151,9.036-12.583S423.093,198.475,415.06,198.582Z" transform="translate(-415.06 -198.579)" fill="#263238"/>
            <path id="Trazado_132720" data-name="Trazado 132720" d="M415.06,198.582s2.231,15.967,9.3,16.612,10.235-11.151,9.036-12.583S423.093,198.475,415.06,198.582Z" transform="translate(-415.06 -198.579)" fill="#7d6eb2" opacity="0.3" style="isolation: isolate"/>
          </g>
        </g>
      </g>
      <g id="Character_1" data-name="Character 1" transform="translate(14.896 114.142)">
        <g id="_Group_" data-name="&lt;Group&gt;" transform="translate(0 0)">
          <path id="Trazado_132721" data-name="Trazado 132721" d="M55.362,403.507H60.54l.428-11.994H55.784Z" transform="translate(-31.547 -215.37)" fill="#b97964"/>
          <path id="Trazado_132722" data-name="Trazado 132722" d="M60.451,407.809h-6.29a.455.455,0,0,0-.441.356L52.7,412.775a.764.764,0,0,0,.589.906.754.754,0,0,0,.168.017c2.035-.034,3.518-.159,6.073-.159,1.574,0,6.323.165,8.5.165s2.457-2.147,1.568-2.345c-3.991-.87-7-2.075-8.273-3.221A1.25,1.25,0,0,0,60.451,407.809Z" transform="translate(-30.741 -220.271)" fill="#ffd947"/>
          <path id="Trazado_132723" data-name="Trazado 132723" d="M64.262,408.351a.125.125,0,0,1-.092-.106.112.112,0,0,1,.059-.118c.185-.119,1.857-1.146,2.431-.85a.369.369,0,0,1,.21.343.723.723,0,0,1-.257.659,1.549,1.549,0,0,1-.994.264A6.221,6.221,0,0,1,64.262,408.351Zm.356-.171a2.514,2.514,0,0,0,1.844-.092.506.506,0,0,0,.165-.441c-.007-.1-.046-.145-.079-.145a.276.276,0,0,0-.158-.033A5.023,5.023,0,0,0,64.617,408.18Z" transform="translate(-34.196 -220.095)" fill="#407bff"/>
          <path id="Trazado_132724" data-name="Trazado 132724" d="M64.229,407.873a.13.13,0,0,1-.059-.112c.007-.072.132-1.561.731-2.048a.657.657,0,0,1,.52-.158.4.4,0,0,1,.4.322c.106.547-.929,1.687-1.462,1.976H64.3A.109.109,0,0,1,64.229,407.873Zm.83-2.015a2.9,2.9,0,0,0-.613,1.62c.534-.4,1.192-1.264,1.126-1.6-.007-.033-.02-.125-.178-.125h-.059A.424.424,0,0,0,65.059,405.858Z" transform="translate(-34.196 -219.592)" fill="#407bff"/>
          <path id="Trazado_132725" data-name="Trazado 132725" d="M55.869,391.522h5.184l-.224,6.185H55.645Z" transform="translate(-31.632 -215.373)" opacity="0.2" style="isolation: isolate"/>
          <path id="Trazado_132726" data-name="Trazado 132726" d="M93.494,404.266l5.344.564,1-11.525-5.343-.565Z" transform="translate(-43.016 -215.739)" fill="#b97964"/>
          <path id="Trazado_132727" data-name="Trazado 132727" d="M98.6,407.574h-6.29a.454.454,0,0,0-.441.355L90.85,412.54a.763.763,0,0,0,.589.905.752.752,0,0,0,.168.017c2.035-.033,3.518-.158,6.073-.158,1.574,0,6.323.164,8.5.164s2.457-2.147,1.568-2.344c-3.991-.869-7-2.075-8.273-3.221A1.25,1.25,0,0,0,98.6,407.574Z" transform="translate(-42.216 -220.201)" fill="#ffd947"/>
          <path id="Trazado_132728" data-name="Trazado 132728" d="M102.413,408.115a.124.124,0,0,1-.092-.1.113.113,0,0,1,.059-.119c.185-.118,1.857-1.146,2.431-.85a.368.368,0,0,1,.21.343.723.723,0,0,1-.257.659,1.544,1.544,0,0,1-.994.263A6.177,6.177,0,0,1,102.413,408.115Zm.356-.171a2.517,2.517,0,0,0,1.844-.092.507.507,0,0,0,.165-.442c-.007-.1-.046-.145-.079-.145a.289.289,0,0,0-.158-.033A5.036,5.036,0,0,0,102.768,407.944Z" transform="translate(-45.67 -220.025)" fill="#407bff"/>
          <path id="Trazado_132729" data-name="Trazado 132729" d="M102.38,407.638a.131.131,0,0,1-.059-.112c.007-.073.132-1.561.731-2.049a.659.659,0,0,1,.52-.158.4.4,0,0,1,.4.323c.106.547-.929,1.686-1.462,1.976h-.059A.11.11,0,0,1,102.38,407.638Zm.83-2.015a2.9,2.9,0,0,0-.613,1.62c.534-.4,1.192-1.265,1.126-1.6-.007-.033-.02-.125-.178-.125h-.059A.416.416,0,0,0,103.21,405.623Z" transform="translate(-45.671 -219.521)" fill="#407bff"/>
          <path id="Trazado_132730" data-name="Trazado 132730" d="M94.7,392.741l5.343.565-.522,5.944-5.344-.565Z" transform="translate(-43.223 -215.739)" opacity="0.2" style="isolation: isolate"/>
          <path id="Trazado_132731" data-name="Trazado 132731" d="M57.185,241.05H84.667c2.614,14.269,10.793,64.763,4.925,109.753l-9.3-1.154s.861-59.727-7.353-81.807c-.945,11.817-2.067,24.39-3.041,31.081-2.391,16.467-7.509,52.454-7.509,52.454H52.913s1.937-34.447,2.833-50.63C56.724,283.178,57.148,244.658,57.185,241.05Z" transform="translate(-30.81 -170.115)" fill="#12263f"/>
          <g id="Grupo_66306" data-name="Grupo 66306" transform="translate(48.33 177.954)">
            <path id="Trazado_132732" data-name="Trazado 132732" d="M101.937,399l-11.515-1.713.352-3.189,11.979,1.572Z" transform="translate(-90.422 -394.103)" fill="#727997"/>
          </g>
          <g id="Grupo_66307" data-name="Grupo 66307" transform="translate(21.543 177.783)">
            <path id="Trazado_132733" data-name="Trazado 132733" d="M63.284,397.415H52.112v-3.339l11.593-.217Z" transform="translate(-52.112 -393.858)" fill="#727997"/>
          </g>
          <path id="Trazado_132734" data-name="Trazado 132734" d="M81.55,275.164a73.667,73.667,0,0,1,3.07,11.889c.768-10.515-2.305-21.668-2.305-21.668Z" transform="translate(-39.424 -177.434)" opacity="0.2" style="isolation: isolate"/>
          <path id="Trazado_132735" data-name="Trazado 132735" d="M57.642,247.89l-.627,3.319s19.229,2.49,31.193,2.421l-.415-2.282Z" transform="translate(-32.044 -172.172)" fill="#7d6eb2"/>
          <path id="Trazado_132736" data-name="Trazado 132736" d="M113.737,205.717s6.654,20.97,11.2,22.342,16.116-15.935,16.116-15.935,10.367-.1,10.831-.808-2.694-8.008-3.452-8.021-9.784,3.4-10.134,3.965-10.708,10.474-11.213,10.195-4.421-12.757-4.421-12.757Z" transform="translate(-49.105 -158.759)" fill="#b97964"/>
          <path id="Trazado_132737" data-name="Trazado 132737" d="M154.7,214.29a2.226,2.226,0,0,0,.249-.064c-.045-.026-.083-.051-.122-.077A.854.854,0,0,1,154.7,214.29Z" transform="translate(-61.424 -162.024)" fill="#b97964"/>
          <g id="Grupo_66308" data-name="Grupo 66308" transform="translate(60.857 32.609)">
            <path id="Trazado_132738" data-name="Trazado 132738" d="M108.338,198.166l.811,1.494,3.787,7,.785,1.443,10.62-3.691s-4.413-16.488-5.946-18.174Z" transform="translate(-108.338 -186.237)" fill="#ffd947"/>
          </g>
          <path id="Trazado_132740" data-name="Trazado 132740" d="M109.5,203.761l3.787,7c2.337-4.6,1.66-10.888,1.66-10.888Z" transform="translate(-47.83 -157.729)" opacity="0.2" style="isolation: isolate"/>
          <g id="Grupo_66309" data-name="Grupo 66309" transform="translate(24.971 24.729)">
            <path id="Trazado_132741" data-name="Trazado 132741" d="M102.958,182.846a22.531,22.531,0,0,0-15.995-7.763c-10.411-.489-13.68.547-17.485,3.943-5.558,4.962-12.463,47.72-12.463,47.72a96.553,96.553,0,0,0,31.2,3.393s.125-11.868,3.88-19.869A222.192,222.192,0,0,0,102.958,182.846Z" transform="translate(-57.015 -174.969)" fill="#ffd947"/>
            <path id="Trazado_132744" data-name="Trazado 132744" d="M107.066,200.615l2.075.207L107.619,202Z" transform="translate(-72.069 -182.682)" fill="#fff" opacity="0.4" style="isolation: isolate"/>
          </g>
          <path id="Trazado_132745" data-name="Trazado 132745" d="M95.468,171.979c1.125,3.217,5.314,4.685,7.512,4.871a3.734,3.734,0,0,0,3.982-2.159s-2.505-1.247-2.258-2.656a6.617,6.617,0,0,1,1.034-2.391,13.806,13.806,0,0,1,.859-1.182l-4.019-8.616C101.676,163.605,98.929,170.776,95.468,171.979Z" transform="translate(-43.61 -145.69)" fill="#b97964"/>
          <path id="Trazado_132746" data-name="Trazado 132746" d="M105.117,165.57a6.478,6.478,0,0,0,2.289,8.187,6.617,6.617,0,0,1,1.034-2.391Z" transform="translate(-46.313 -147.412)" opacity="0.2" style="isolation: isolate"/>
          <g id="Grupo_66312" data-name="Grupo 66312" transform="translate(53.051)">
            <g id="Grupo_66310" data-name="Grupo 66310" transform="translate(12.73 6.488)">
              <path id="Trazado_132747" data-name="Trazado 132747" d="M121.886,149.355s1.286,7.1-2.422,9.953-4.084-10.428-4.084-10.428Z" transform="translate(-115.38 -148.88)" fill="#b97964"/>
              <path id="Trazado_132748" data-name="Trazado 132748" d="M121.886,149.355s1.286,7.1-2.422,9.953-4.084-10.428-4.084-10.428Z" transform="translate(-115.38 -148.88)" opacity="0.4" style="isolation: isolate"/>
            </g>
            <path id="Trazado_132749" data-name="Trazado 132749" d="M105.019,165.181a6.477,6.477,0,0,0,7.5,2.3,7.32,7.32,0,0,0,4.343-4.163c1.74-4.411,2.133-15.182-2.572-14.78-3.855.329-7.636-.864-9.6,2.472a6.97,6.97,0,0,0-.966,3.118C103.3,159.24,102.813,162.225,105.019,165.181Z" transform="translate(-99.035 -142.286)" fill="#b97964"/>
            <path id="Trazado_132750" data-name="Trazado 132750" d="M114.606,159.837c-.087.406.11.778.385.816s.536-.269.6-.681-.116-.779-.385-.816S114.668,159.419,114.606,159.837Z" transform="translate(-102.411 -145.482)" fill="#263238"/>
            <path id="Trazado_132751" data-name="Trazado 132751" d="M121.291,160.784c-.087.406.116.78.385.817s.536-.27.6-.681-.116-.779-.385-.816S121.348,160.392,121.291,160.784Z" transform="translate(-104.422 -145.767)" fill="#263238"/>
            <path id="Trazado_132752" data-name="Trazado 132752" d="M118.891,161.068a14.853,14.853,0,0,0,1.473,3.818,2.416,2.416,0,0,1-2.04.089Z" transform="translate(-103.536 -146.058)" fill="#a24e3f"/>
            <path id="Trazado_132753" data-name="Trazado 132753" d="M112.774,157.174a.257.257,0,0,0,.249-.062,1.978,1.978,0,0,1,1.669-.593.244.244,0,0,0,.1-.476h0a2.431,2.431,0,0,0-2.114.72.245.245,0,0,0-.011.345l0,0A.378.378,0,0,0,112.774,157.174Z" transform="translate(-101.815 -144.539)" fill="#263238"/>
            <path id="Trazado_132754" data-name="Trazado 132754" d="M123.828,158.364a.238.238,0,0,0,.142.03.244.244,0,0,0,.162-.3v0a2.431,2.431,0,0,0-1.554-1.612.243.243,0,0,0-.3.171h0a.25.25,0,0,0,.171.3h0a1.975,1.975,0,0,1,1.211,1.3A.252.252,0,0,0,123.828,158.364Z" transform="translate(-104.722 -144.673)" fill="#263238"/>
            <path id="Trazado_132755" data-name="Trazado 132755" d="M113.684,166.918a3.076,3.076,0,0,0,2.611,1.779" transform="translate(-102.14 -147.818)" fill="none" stroke="#263238" stroke-linecap="round" stroke-linejoin="round" stroke-width="0.5"/>
            <g id="Grupo_66311" data-name="Grupo 66311" transform="translate(1.867 6.035)">
              <path id="Trazado_132756" data-name="Trazado 132756" d="M107.29,148.233l.064,2.277a1.685,1.685,0,0,0-1.04,2.034c.55,1.961-.8,4.8-2.361,5.832,0,0,.032-.824-.678-.694s-.918,4.418.241,6.583a12.393,12.393,0,0,1-3.209-6.866c-.678-4.247-.561-6.938.041-8.968Z" transform="translate(-99.845 -148.233)" fill="#b97964"/>
              <path id="Trazado_132757" data-name="Trazado 132757" d="M107.29,148.233l.064,2.277a1.685,1.685,0,0,0-1.04,2.034c.55,1.961-.8,4.8-2.361,5.832,0,0,.032-.824-.678-.694s-.918,4.418.241,6.583a12.393,12.393,0,0,1-3.209-6.866c-.678-4.247-.561-6.938.041-8.968Z" transform="translate(-99.845 -148.233)" opacity="0.4" style="isolation: isolate"/>
            </g>
            <path id="Trazado_132758" data-name="Trazado 132758" d="M99.093,148.371a23.631,23.631,0,0,0,7.458-.457c7.048-1.4,10.044,1.191,10.044,1.191a4.437,4.437,0,0,0,1.465-3.467c-.208-2.03-3.023-2.376-3.023-2.376a5.493,5.493,0,0,0-2.716-2.974c-1.867-.692-3.738,1.038-3.738,1.038s-2.331-2.247-5.041-1.609a4.07,4.07,0,0,0-3.254,3.96s-3.181.325-3.112,1.961S99.093,148.371,99.093,148.371Z" transform="translate(-97.174 -139.602)" fill="#263238"/>
            <ellipse id="Elipse_4103" data-name="Elipse 4103" cx="2.284" cy="2.633" rx="2.284" ry="2.633" transform="translate(10.452 12.061)" fill="none" stroke="#263238" stroke-linecap="round" stroke-linejoin="round" stroke-width="0.5"/>
            <path id="Trazado_132759" data-name="Trazado 132759" d="M124.91,160.043a2.307,2.307,0,1,1-2.284-2.633A2.477,2.477,0,0,1,124.91,160.043Z" transform="translate(-104.143 -144.958)" fill="none" stroke="#263238" stroke-linecap="round" stroke-linejoin="round" stroke-width="0.5"/>
            <path id="Trazado_132760" data-name="Trazado 132760" d="M118.654,160.988s.736-.464,1.181.075" transform="translate(-103.635 -145.978)" fill="none" stroke="#263238" stroke-linecap="round" stroke-linejoin="round" stroke-width="0.5"/>
            <path id="Trazado_132761" data-name="Trazado 132761" d="M109.689,160.379l-4.011-.535a1.97,1.97,0,0,0-1.47.4l-.175.136" transform="translate(-99.237 -145.685)" fill="none" stroke="#263238" stroke-linecap="round" stroke-linejoin="round" stroke-width="0.5"/>
            <path id="Trazado_132762" data-name="Trazado 132762" d="M99.81,160.754a4.88,4.88,0,0,0,2.424,2.835c1.529.767,2.62-.524,2.472-2.14-.145-1.435-1.1-3.608-2.775-3.687A2.179,2.179,0,0,0,99.81,160.754Z" transform="translate(-97.93 -145.063)" fill="#b97964"/>
          </g>
          <path id="Trazado_132763" data-name="Trazado 132763" d="M63.322,208.767c6.6-2.74,11.814-14.062,11.814-14.062l-3.749-2.267-5.09,4.093c-.153.556-.307,1.124-.46,1.7-.683,2.593-1.354,5.357-1.986,8.154C63.673,207.177,63.494,207.975,63.322,208.767Z" transform="translate(-33.941 -155.493)" opacity="0.2" style="isolation: isolate"/>
          <path id="Trazado_132764" data-name="Trazado 132764" d="M115.308,215.709l11.387-4.182.323.968-11.387,4.057Z" transform="translate(-49.577 -161.235)" fill="#7d6eb2"/>
          <g id="Grupo_66314" data-name="Grupo 66314" transform="translate(0 78.019)">
            <rect id="Rectángulo_30237" data-name="Rectángulo 30237" width="33.409" height="20.607" transform="translate(3.228 0) rotate(9.013)" fill="#727997"/>
            <g id="Grupo_66313" data-name="Grupo 66313" transform="translate(8.206 7.748)">
              <path id="Trazado_132765" data-name="Trazado 132765" d="M39.742,262.261l-6.7,3.474,5.3,5.377" transform="translate(-33.04 -262.261)" fill="none" stroke="#fff" stroke-linecap="round" stroke-linejoin="round" stroke-width="2"/>
              <path id="Trazado_132766" data-name="Trazado 132766" d="M51.789,272.884l6.7-3.474-5.3-5.377" transform="translate(-38.679 -262.794)" fill="none" stroke="#fff" stroke-linecap="round" stroke-linejoin="round" stroke-width="2"/>
              <line id="Línea_1775" data-name="Línea 1775" y1="8.353" x2="4.546" transform="translate(7.633 0.869)" fill="none" stroke="#fff" stroke-linecap="round" stroke-linejoin="round" stroke-width="2"/>
            </g>
          </g>
          <path id="Trazado_132767" data-name="Trazado 132767" d="M60.654,183.375S48.22,195.859,46.521,198.287s-4.939,29.323-4.939,29.323-.683.237-.742.818-.11,8.135,0,8.484,5.835,3.882,6.677,3.042,2.021-9.394,2.021-9.394l-3.017-2.951s3.514-19.81,5.707-23.016,11.257-10.075,11.257-10.075Z" transform="translate(-27.16 -152.768)" fill="#b97964"/>
          <g id="Grupo_66315" data-name="Grupo 66315" transform="translate(22.86 25.582)">
            <path id="Trazado_132768" data-name="Trazado 132768" d="M74.191,176.188c1.812,3.838.434,11.92-2.905,14.773a98.014,98.014,0,0,1-11.179,8.022L54,190.994s6.489-6.336,10.418-9.986A17.785,17.785,0,0,1,74.191,176.188Z" transform="translate(-53.997 -176.188)" fill="#ffd947"/>
          </g>
          <path id="Trazado_132770" data-name="Trazado 132770" d="M53.672,196.626l-.755,1.029,6.374,8.33.9-.645Z" transform="translate(-30.812 -156.753)" fill="#7d6eb2"/>
        </g>
      </g>
    </g>
    <g id="Grupo_54795" data-name="Grupo 54795" transform="translate(1230 838.267)">
      <g id="Grupo_54766" data-name="Grupo 54766">
        <rect id="Rectángulo_29427" data-name="Rectángulo 29427" width="62.044" height="24.12" transform="translate(0.086 0.086)" fill="#fafafa"/>
        <path id="Trazado_117066" data-name="Trazado 117066" d="M430.9,285.3H368.679V261.007H430.9Zm-62.045-.172h61.872V261.179H368.851Z" transform="translate(-368.679 -261.007)" fill="#222221"/>
      </g>
      <g id="Grupo_54767" data-name="Grupo 54767" transform="translate(0.086 0.086)">
        <rect id="Rectángulo_29428" data-name="Rectángulo 29428" width="62.044" height="5.169" fill="#263238"/>
      </g>
      <g id="Grupo_54776" data-name="Grupo 54776" transform="translate(3.364 11.524)">
        <g id="Grupo_54771" data-name="Grupo 54771">
          <g id="Grupo_54768" data-name="Grupo 54768" transform="translate(0.219 0.182)">
            <rect id="Rectángulo_29429" data-name="Rectángulo 29429" width="6.13" height="6.13" fill="#f5f5f5"/>
          </g>
          <g id="Grupo_54770" data-name="Grupo 54770">
            <g id="Grupo_54769" data-name="Grupo 54769">
              <path id="Trazado_117067" data-name="Trazado 117067" d="M379.906,284.032a2.929,2.929,0,0,1-.035-.472c-.011-.348-.025-.766-.041-1.263-.029-1.078-.064-2.59-.079-4.394l.155.155-6.129.025c-.04.039.339-.34.179-.179h0v.832c0,.276,0,.549,0,.82q0,.81,0,1.585c-.006,1.025-.012,1.994-.018,2.891l-.155-.155c1.8.015,3.317.05,4.394.079l1.263.041a2.922,2.922,0,0,1,.472.035,14.988,14.988,0,0,1-1.636.077c-1.067.029-2.62.063-4.494.079h-.154v-.157c-.005-.9-.012-1.867-.018-2.891q0-.774,0-1.585V277.9h0c-.161.16.219-.22.18-.181l6.129.024h.157v.154c-.016,1.873-.05,3.426-.079,4.494A14.955,14.955,0,0,1,379.906,284.032Z" transform="translate(-373.557 -277.72)" fill="#263238"/>
            </g>
          </g>
        </g>
        <g id="Grupo_54775" data-name="Grupo 54775" transform="translate(0.216 0.179)">
          <g id="Grupo_54772" data-name="Grupo 54772" transform="translate(0.003 0.003)">
            <line id="Línea_1592" data-name="Línea 1592" x1="6.13" y2="6.13" fill="#fafafa"/>
          </g>
          <g id="Grupo_54774" data-name="Grupo 54774">
            <g id="Grupo_54773" data-name="Grupo 54773">
              <path id="Trazado_117068" data-name="Trazado 117068" d="M373.874,284.113a52.448,52.448,0,0,1,6.13-6.13,52.3,52.3,0,0,1-6.13,6.13Z" transform="translate(-373.871 -277.98)" fill="#e8505b"/>
            </g>
          </g>
        </g>
      </g>
      <g id="Grupo_54778" data-name="Grupo 54778" transform="translate(11.559 11.706)">
        <g id="Grupo_54777" data-name="Grupo 54777">
          <rect id="Rectángulo_29430" data-name="Rectángulo 29430" width="6.13" height="6.13" fill="#263238"/>
        </g>
      </g>
      <g id="Grupo_54780" data-name="Grupo 54780" transform="translate(19.536 11.706)">
        <g id="Grupo_54779" data-name="Grupo 54779">
          <rect id="Rectángulo_29431" data-name="Rectángulo 29431" width="6.13" height="6.13" fill="#455a64"/>
        </g>
      </g>
      <g id="Grupo_54782" data-name="Grupo 54782" transform="translate(27.512 11.706)">
        <g id="Grupo_54781" data-name="Grupo 54781">
          <rect id="Rectángulo_29432" data-name="Rectángulo 29432" width="6.13" height="6.13" fill="#26aab7"/>
        </g>
      </g>
      <g id="Grupo_54784" data-name="Grupo 54784" transform="translate(35.489 11.706)">
        <g id="Grupo_54783" data-name="Grupo 54783">
          <rect id="Rectángulo_29433" data-name="Rectángulo 29433" width="6.13" height="6.13" fill="#e8505b"/>
        </g>
      </g>
      <g id="Grupo_54786" data-name="Grupo 54786" transform="translate(35.489 11.706)" opacity="0.5">
        <g id="Grupo_54785" data-name="Grupo 54785">
          <rect id="Rectángulo_29434" data-name="Rectángulo 29434" width="6.13" height="6.13" fill="#ffd947"/>
        </g>
      </g>
      <g id="Grupo_54788" data-name="Grupo 54788" transform="translate(43.465 11.706)">
        <g id="Grupo_54787" data-name="Grupo 54787">
          <rect id="Rectángulo_29435" data-name="Rectángulo 29435" width="6.13" height="6.13" fill="#1565c0"/>
        </g>
      </g>
      <g id="Grupo_54792" data-name="Grupo 54792" transform="translate(51.442 11.706)">
        <g id="Grupo_54791" data-name="Grupo 54791">
          <rect id="Rectángulo_29437" data-name="Rectángulo 29437" width="6.13" height="6.13" fill="#167377"/>
        </g>
      </g>
    </g>
  </g>
</svg>
