<svg id="Grupo_890908" data-name="Grupo 890908" xmlns="http://www.w3.org/2000/svg" xmlns:xlink="http://www.w3.org/1999/xlink" width="82" height="82" viewBox="0 0 82 82">
  <defs>
    <clipPath id="clip-path">
      <rect id="Rectángulo_297825" data-name="Rectángulo 297825" width="82" height="82" fill="#12263f"/>
    </clipPath>
  </defs>
  <g id="Grupo_885896" data-name="Grupo 885896" clip-path="url(#clip-path)">
    <path id="Trazado_601741" data-name="Trazado 601741" d="M28.186,82a2.119,2.119,0,0,1-.869-2q.02-12.13.008-24.26V54.683H2.054C.337,54.683,0,54.342,0,52.624q0-25.3,0-50.6C0,.372.37,0,2.013,0H52.695c1.613,0,1.987.365,1.987,1.965q0,12.09,0,24.18v1.169h1.06q12.09,0,24.18-.007A2.19,2.19,0,0,1,82,28.186V82ZM79.218,30.154H30.161v49.1H79.218ZM2.755,49.539,49.512,2.782H2.755ZM29.635,27.266h22.2V5.066l-22.2,22.2M27.249,51.88V29.78l-22.1,22.1Z" transform="translate(0 -0.001)" fill="#12263f"/>
    <path id="Trazado_601742" data-name="Trazado 601742" d="M388.395,46.04c.36-.32.6-.565.874-.771a1.355,1.355,0,0,1,1.819.057,1.254,1.254,0,0,1,.108,1.8,32.92,32.92,0,0,1-3.007,2.978,1.794,1.794,0,0,1-1.466.087,18.346,18.346,0,0,1-2.366-1.149c-.9-.463-1.221-1.1-.959-1.853.251-.725.936-.987,1.923-.74a.958.958,0,0,0,.223,0c-.3-2.689-3.333-5.768-6.513-6.558.054.253.11.464.142.678a1.273,1.273,0,0,1-.794,1.5,1.243,1.243,0,0,1-1.678-.5,20.444,20.444,0,0,1-1.468-3.006,1.736,1.736,0,0,1,.317-1.43,33.771,33.771,0,0,1,2.575-2.624,1.362,1.362,0,0,1,2.058-.088,1.392,1.392,0,0,1-.093,2.006c-.172.2-.355.386-.621.674a12.509,12.509,0,0,1,5.667,3.214,12.2,12.2,0,0,1,3.258,5.724" transform="translate(-314.974 -28.538)" fill="#12263f"/>
    <path id="Trazado_601743" data-name="Trazado 601743" d="M265.3,247.468q0,7.885,0,15.769c0,1.695-.37,2.062-2.072,2.063q-15.689,0-31.378,0c-1.718,0-2.125-.406-2.125-2.112q0-15.689,0-31.378c0-1.633.455-2.085,2.095-2.085H263.2c1.7,0,2.1.409,2.1,2.134q0,7.8,0,15.609m-2.79-14.891H232.567v29.9H262.51Z" transform="translate(-192.859 -192.859)" fill="#12263f"/>
  </g>
</svg>
