<svg id="Grupo_890933" data-name="Grupo 890933" xmlns="http://www.w3.org/2000/svg" xmlns:xlink="http://www.w3.org/1999/xlink" width="145.495" height="191.404" viewBox="0 0 145.495 191.404">
  <defs>
    <clipPath id="clip-path">
      <rect id="Rect치ngulo_302229" data-name="Rect치ngulo 302229" width="145.495" height="191.404" fill="#12263f"/>
    </clipPath>
  </defs>
  <g id="Grupo_890932" data-name="Grupo 890932" clip-path="url(#clip-path)">
    <path id="Trazado_609593" data-name="Trazado 609593" d="M72.619,191.394c-15.656,0-31.313.029-46.969-.01-11.272-.028-16.4-5.247-16.426-16.57,0-2.332-.11-4.67.029-6.994.255-4.257.278-7.88-4.878-9.937C1.066,156.562,0,152.68,0,148.936q.03-22.486.012-44.971c0-4.586,1.91-8.319,6.068-10.05,3.053-1.271,3.188-3.179,3.181-5.8Q9.18,55.137,9.224,22.159C9.225,7.57,16.763.084,31.435.079,49.923.072,68.412.132,86.9,0a10.677,10.677,0,0,1,8.364,3.436Q114.185,22.664,133.4,41.6a8.9,8.9,0,0,1,2.841,7.035c-.117,13.157,0,26.316-.078,39.474-.015,2.622.071,4.534,3.172,5.739,4.254,1.653,6.15,5.422,6.155,9.985.016,14.988-.019,29.977-.015,44.966,0,5-2.152,8.751-6.753,10.657-2.129.883-2.624,2.052-2.558,4.11.123,3.827.048,7.66.031,11.491-.048,11.176-4.787,16.13-16.109,16.244-15.821.159-31.645.04-47.467.04v.051M92.75,112.868c.177-.547-.051-.723-.576-.626l-3.043-.217c-9.279-2.516-11.269,6.611-17.137,11.19,0-3.519-.03-6.27.012-9.02.025-1.669-.7-2.37-2.383-2.382-1.59-.01-2.521.406-2.515,2.2.024,7.321.03,14.642-.027,21.963-.016,1.983.917,2.628,2.75,2.567,1.683-.055,2.334-.833,2.284-2.5a56.839,56.839,0,0,1,.112-5.982,3.639,3.639,0,0,1,2.336-3.032c1.355-.481,1.774,1.164,2.361,2.1a64.868,64.868,0,0,1,3.566,6c1.576,3.233,3.849,4.153,7.58,2.667-2.666-4.252-5.243-8.278-7.721-12.363-.712-1.176-2.161-2.381-.607-3.952,2.777-2.809,4.6-6.543,8.247-8.507q.282,1,.563,2l.516,1.153c2,6.5,4.081,12.978,5.964,19.513.614,2.13,1.677,2.945,3.879,2.938a3.647,3.647,0,0,0,3.967-2.9c2.262-6.957,4.669-13.867,6.947-20.819.312-.951,1.308-2.44-.534-2.841-1.334-.29-3.1-.786-3.936,1.04a33.1,33.1,0,0,0-1.26,3.784c-1.529,4.8-3.053,9.605-4.972,15.643L92.75,112.868m-20.3-20.355c18.142,0,36.285-.087,54.425.076,3.5.032,4.5-.965,4.432-4.47q-.325-17.97,0-35.949c.058-3.334-.955-4.252-4.183-4.2-11.149.17-22.3-.056-33.452.15-4.09.075-5.589-1.236-5.5-5.447.238-11.313.058-22.634.117-33.952C88.3,6.484,88.2,4.976,85.2,4.993c-18.973.108-37.951-.157-56.92.138-8.524.133-14.02,6.4-14.044,15.033-.062,22.635.084,45.273-.132,67.907-.039,4.051,1.484,4.535,4.919,4.507,17.808-.146,35.618-.068,53.428-.065m.244,67.8c-17.824,0-35.649.091-53.471-.075-3.735-.035-5.6.678-5.1,4.891a84.742,84.742,0,0,1,.074,9.487c.032,8.853,3.082,11.87,12.128,11.878q32.982.03,65.965.007c9.495,0,18.991.078,28.484-.032,7.131-.083,10.38-3.425,10.456-10.429.037-3.5-.25-7.021.079-10.488.385-4.064-.886-5.4-5.141-5.34-17.821.238-35.647.1-53.47.1M93.211,9.508c0,10.758.008,20.848-.009,30.938,0,1.471.186,2.633,2.076,2.629,10.377-.021,20.755-.01,31.315-.01L93.211,9.508M39.831,122.349l1.115-.057c1.145,4.1,2.206,8.235,3.478,12.3.492,1.572.249,3.805,2.964,3.938,2.787.137,3.193-1.822,3.774-3.755q2.156-7.165,4.328-14.327a78.361,78.361,0,0,1,.875,14.656c-.016,1.776-.017,3.428,2.4,3.455,2.441.027,2.442-1.624,2.433-3.409-.033-6.158.1-12.32-.063-18.474-.048-1.784,1.406-4.6-2.353-4.863-2.912-.205-4.963.118-5.853,3.595-1.236,4.832-3.1,9.5-4.993,15.122-1.827-6.252-3.374-11.34-4.79-16.464-.96-3.474-3.711-1.981-5.785-2.173-2.668-.246-2.241,1.879-2.249,3.456-.032,6.657.008,13.315,0,19.973,0,1.557-.073,3.1,2.109,3.192,2.319.1,2.67-1.289,2.635-3.216-.079-4.315-.025-8.633-.025-12.949" fill="#12263f"/>
    <path id="Trazado_609597" data-name="Trazado 609597" d="M92.75,112.868a.966.966,0,0,1-.575-.626c.524-.1.752.078.575.626" fill="#12263f"/>
    <path id="Trazado_609598" data-name="Trazado 609598" d="M88.552,114.968l.516,1.153-.516-1.153" fill="#12263f"/>
    <rect id="Rect치ngulo_302228" data-name="Rect치ngulo 302228" width="85.263" height="35.028" transform="translate(29.7 104.528)" fill="#12263f"/>
    <path id="Trazado_609599" data-name="Trazado 609599" d="M74.519,144.892H65.365c.932-14.638,1.858-29.187,2.788-43.8H81.6c2.661,9.924,5.357,19.975,8.057,30.045.212-.765.44-1.635.693-2.5q3.922-13.343,7.881-26.675a1.484,1.484,0,0,1,1.019-.9c3.909-.06,7.82-.033,11.73-.022a2.338,2.338,0,0,1,.505.151q1.2,21.741,2.4,43.6a4.472,4.472,0,0,1-.825.174c-2.607.012-5.214-.017-7.821.024-.819.013-1.087-.274-1.113-1.082-.161-5.075-.4-10.148-.545-15.223-.162-5.75-.247-11.5-.371-17.254-.008-.344-.06-.688-.11-1.244-3.488,11.479-6.91,22.738-10.35,34.06-2.462,0-4.795.034-7.124-.04a1.35,1.35,0,0,1-.9-.859q-4.113-15.942-8.152-31.9a2.446,2.446,0,0,0-.458-1.02q-.795,17.2-1.591,34.469" fill="#fff"/>
    <path id="Trazado_609600" data-name="Trazado 609600" d="M27.712,144.888V101.576c1.951-.217,3.9-.52,5.862-.634,5.023-.29,10.066-.592,15.044.406,5,1,8.9,3.436,10.137,8.778,1.366,5.887-1.187,11-6.689,13.672-.2.1-.387.22-.656.374.148.156.238.316.375.385a9.117,9.117,0,0,1,4.613,5.712c1.228,3.981,2.319,8.005,3.477,12.008.245.847.528,1.682.846,2.687-3.274,0-6.407.04-9.535-.054-.362-.01-.882-.707-1.023-1.177-.949-3.176-1.816-6.377-2.71-9.569q-.108-.389-.215-.778c-1.182-4.343-2.891-5.684-7.359-5.763-.756-.013-1.512,0-2.419,0v17.267Zm9.8-24.426c1.718,0,3.325.027,4.929-.013a9.372,9.372,0,0,0,1.853-.287,6.116,6.116,0,0,0,4.977-5.465,5.545,5.545,0,0,0-3.047-5.8c-2.813-1.319-5.745-.852-8.712-.61Z" fill="#fff"/>
  </g>
</svg>
