<svg id="Grupo_890931" data-name="Grupo 890931" xmlns="http://www.w3.org/2000/svg" xmlns:xlink="http://www.w3.org/1999/xlink" width="145.783" height="191.242" viewBox="0 0 145.783 191.242">
  <defs>
    <clipPath id="clip-path">
      <rect id="Rect치ngulo_302227" data-name="Rect치ngulo 302227" width="145.783" height="191.242" fill="none"/>
    </clipPath>
  </defs>
  <g id="Grupo_890931-2" data-name="Grupo 890931" clip-path="url(#clip-path)">
    <path id="Trazado_609583" data-name="Trazado 609583" d="M72.586,191.237q-23.484,0-46.969-.005c-11.175-.014-16.2-5.035-16.232-16.14-.006-2.332-.148-4.675.032-6.993.343-4.429.24-8.133-4.936-10.334C.927,156.255,0,152.2,0,148.335Q0,126.348.026,104.362c.012-4.892,1.9-8.874,6.6-10.744,2.6-1.032,2.868-2.683,2.86-5.01-.077-22.319-.071-44.639-.12-66.958C9.336,7.776,17.024.063,30.991.058,49.812.051,68.635.115,87.456,0A9.507,9.507,0,0,1,94.95,2.988q19.3,19.557,38.852,38.86a8.461,8.461,0,0,1,2.643,6.644c-.111,12.991-.015,25.983-.141,38.973-.03,3.039.331,5.127,3.655,6.567,4.175,1.808,5.768,5.818,5.783,10.282q.073,21.987.03,43.973c-.005,5.121-2.172,9.092-6.928,11.14-2.152.926-2.514,2.252-2.489,4.234.055,4.329.062,8.661-.045,12.989-.227,9.2-5.579,14.487-14.753,14.513-16.324.045-32.647.013-48.97.013,0,.02,0,.04,0,.061m.337-98.683c17.808,0,35.616-.086,53.423.07,3.667.033,5.248-.563,5.132-4.823-.322-11.806-.218-23.63.011-35.442.07-3.613-1.2-4.453-4.572-4.4-10.982.185-21.973-.121-32.95.161-4.5.116-5.745-1.524-5.655-5.793.23-10.979-.045-21.969.166-32.949.069-3.558-1.1-4.454-4.551-4.423-17.972.16-35.947.035-53.921.079-9.915.025-15.68,5.911-15.688,15.973-.017,22.3.105,44.6-.058,66.9-.028,3.749,1.012,4.775,4.742,4.736,17.972-.189,35.947-.085,53.921-.094m.255,67.867V160.4c-18.133,0-36.266.082-54.4-.073-3.466-.03-4.753.915-4.491,4.473.291,3.969-.073,7.983.091,11.968.256,6.221,3.546,9.406,9.819,9.415q48.908.066,97.817,0c5.653-.009,8.993-3.218,9.3-8.9.223-4.147-.213-8.338.143-12.467.31-3.585-.888-4.5-4.381-4.469-17.965.16-35.932.074-53.9.074M93.329,9.829c0,10.437,0,20.681,0,30.925,0,1.331.423,2.282,1.954,2.282q15.6,0,31.227,0L93.329,9.829M37.308,125.012h.029c0,3.485-.018,6.969.01,10.453.009,1.125-.119,2.253,1.281,2.913,4.7,2.214,15.372-.826,18.06-5.229,3.188-5.222,2.878-13.1-.683-17.387-2.765-3.328-12.883-5.59-17.262-3.972-1.759.65-1.414,2-1.425,3.268-.03,3.318-.01,6.636-.01,9.954m61.539,4.357c1.351,2.34,2.9,4.695,4.113,7.215a3.6,3.6,0,0,0,5.065,1.743c2.425-1.212-.081-2.679-.68-3.891a39.66,39.66,0,0,0-3.558-5.989c-1.914-2.593-2.1-4.76-.064-7.562,1.94-2.672,4.121-5.388,5.092-8.783-7.4-2.147-6.279,6.183-10.5,7.963-1.409-2.394-2.762-4.67-4.093-6.958a3.568,3.568,0,0,0-4.854-1.168c-2.222,1.1.191,2.471.659,3.577a23.016,23.016,0,0,0,3.092,5.093c2.208,2.833,2.532,5.369.177,8.434-2.07,2.693-3.53,5.854-5.458,9.147,7.951,1.591,6.9-6.387,11.012-8.821M79.6,132.3c-1.37-4.544-2.548-8.117-3.5-11.749-.6-2.278-2.178-2.231-3.86-1.947-2.763.466-1.1,2.328-.779,3.4,1.325,4.434,2.948,8.779,4.312,13.2.571,1.855,1.016,3.352,3.48,3.375,2.355.022,3.127-1.232,3.743-3.136,1.427-4.407,3.04-8.753,4.439-13.168.379-1.2,1.894-2.952-.35-3.686-1.911-.626-3.4.133-4,2.464-.891,3.494-2.118,6.9-3.485,11.245m-11.716-3.48c0-2.655-.011-5.31,0-7.964.01-1.637-.718-2.388-2.41-2.374-1.551.013-2.521.37-2.5,2.192q.072,7.717-.006,15.435c-.016,1.664.642,2.427,2.334,2.426,1.575,0,2.569-.524,2.572-2.246,0-2.49,0-4.979.01-7.469M67.869,112.8c.083-1.59-.312-2.627-2.094-2.647-1.65-.019-2.872.232-2.807,2.327.046,1.463.234,2.546,2.069,2.533,1.633-.011,2.975-.212,2.832-2.213" fill="#12263f"/>
    <rect id="Rect치ngulo_302226" data-name="Rect치ngulo 302226" width="91.368" height="40" transform="translate(29.251 105.059)" fill="#12263f"/>
    <path id="Trazado_609587" data-name="Trazado 609587" d="M90.361,125.012c0-3.318-.019-6.636.01-9.954.012-1.263-.334-2.618,1.426-3.268,4.379-1.618,14.5.644,17.261,3.972,3.561,4.287,3.871,12.165.684,17.387-2.688,4.4-13.36,7.443-18.061,5.229-1.4-.659-1.271-1.788-1.28-2.912-.029-3.485-.011-6.969-.011-10.454Zm8.043-9.175c-2.071-.337-3.219.4-3.146,2.915.125,4.305.1,8.617,0,12.923-.047,2.1.676,2.929,2.856,2.955,5.108.063,8.538-3.487,8.747-9.329.213-5.971-2.872-9.5-8.462-9.464" fill="#dedddd"/>
    <path id="Trazado_609588" data-name="Trazado 609588" d="M46.637,129.37c-4.116,2.434-3.06,10.411-11.012,8.82,1.928-3.293,3.389-6.453,5.458-9.146,2.355-3.066,2.032-5.6-.177-8.434a23.083,23.083,0,0,1-3.092-5.094c-.468-1.106-2.881-2.474-.659-3.576a3.568,3.568,0,0,1,4.854,1.167c1.331,2.289,2.684,4.565,4.093,6.958,4.224-1.779,3.1-10.109,10.5-7.963-.971,3.4-3.152,6.112-5.092,8.784-2.034,2.8-1.849,4.969.065,7.562a39.644,39.644,0,0,1,3.557,5.988c.6,1.213,3.105,2.68.68,3.891a3.6,3.6,0,0,1-5.065-1.742c-1.209-2.52-2.762-4.876-4.113-7.215" fill="#dcdbda"/>
    <path id="Trazado_609589" data-name="Trazado 609589" d="M65.7,132.3c1.367-4.344,2.594-7.752,3.485-11.245.594-2.332,2.085-3.09,4-2.465,2.244.735.729,2.491.35,3.687-1.4,4.415-3.012,8.761-4.439,13.168-.616,1.9-1.388,3.158-3.743,3.136-2.464-.024-2.908-1.52-3.48-3.375-1.364-4.424-2.987-8.768-4.312-13.2-.32-1.072-1.984-2.935.779-3.4,1.682-.284,3.26-.332,3.86,1.947.956,3.632,2.134,7.205,3.5,11.749" fill="#dcdbda"/>
    <path id="Trazado_609590" data-name="Trazado 609590" d="M83.034,128.822c0,2.489,0,4.979-.006,7.468,0,1.723-1,2.246-2.571,2.247-1.693,0-2.35-.762-2.335-2.426q.072-7.717.006-15.435c-.017-1.822.953-2.179,2.505-2.192,1.691-.015,2.419.736,2.41,2.373-.015,2.655,0,5.31-.009,7.965" fill="#dcdbda"/>
    <path id="Trazado_609591" data-name="Trazado 609591" d="M83.027,112.8c.143,2-1.2,2.2-2.832,2.213-1.835.013-2.023-1.07-2.069-2.533-.065-2.1,1.157-2.346,2.807-2.327,1.782.02,2.177,1.057,2.094,2.647" fill="#dcdbda"/>
    <path id="Trazado_609592" data-name="Trazado 609592" d="M98.4,115.837c5.59-.034,8.675,3.493,8.462,9.464-.209,5.842-3.639,9.392-8.747,9.329-2.18-.026-2.9-.856-2.856-2.955.1-4.306.12-8.618,0-12.923-.073-2.515,1.075-3.252,3.146-2.915" fill="#12263f"/>
  </g>
</svg>
