<svg xmlns="http://www.w3.org/2000/svg" width="81.278" height="99.22" viewBox="0 0 81.278 99.22">
  <g id="gmBF8a" transform="translate(-1637.574 -880.475)">
    <g id="Grupo_893354" data-name="Grupo 893354" transform="translate(1637.574 880.475)">
      <path id="Trazado_612526" data-name="Trazado 612526" d="M1710.635,991.968h-37.976a2.2,2.2,0,0,0,.964-2.059c-.025-7.2-.053-14.4,0-21.6a8.251,8.251,0,0,0-3.653-7.365c-.5-.349-.952-.781-1.506-1.242.453-.106.734-.175,1.017-.237a16.3,16.3,0,0,0,12.646-13.128,16.122,16.122,0,0,0-8.05-16.871,21.98,21.98,0,0,0-4.122-1.615,1.333,1.333,0,0,0-1.754.94,1.422,1.422,0,0,0,1.018,1.811c.211.078.432.128.648.192a13.373,13.373,0,1,1-10.472,1.3c1.135-.645,2.464-.942,3.633-1.538a2.126,2.126,0,0,0,1.041-1.3,1.634,1.634,0,0,0-.727-1.3,1.994,1.994,0,0,0-1.474-.021c-1.387.459-2.74,1.024-4.32,1.63l1.6-5.793c6.625,2.6,12.627,1.932,17.8-2.727,5.189-4.676,6.46-10.62,4.571-17.374l4.368-.774c-.258.94-.51,1.67-.65,2.421a1.353,1.353,0,0,0,1.066,1.685,1.368,1.368,0,0,0,1.679-.945,6.165,6.165,0,0,0,.2-.646,13.365,13.365,0,1,1,1.371,10.373,27.953,27.953,0,0,1-1.51-3.647,1.442,1.442,0,1,0-2.8.7,3.789,3.789,0,0,0,.141.562c1.792,5.861,5.607,9.763,11.534,11.3a15.511,15.511,0,0,0,15.7-4.388,41.094,41.094,0,0,0,3.246-4.192,31,31,0,0,1,5.607,13.127,45.567,45.567,0,0,0,2.2,9.392c1.444,3.622,2.829,7.267,4.287,10.884.319.79.162,1.159-.622,1.455-1.356.511-2.68,1.109-4.017,1.67-1.675.7-1.833,1.022-1.573,2.784q.842,5.694,1.638,11.4a2.806,2.806,0,0,1-2.817,3.461c-2.988.276-5.979.53-8.965.827-1.541.153-1.887.567-1.888,2.1,0,5.552.011,11.1-.014,16.657A2.3,2.3,0,0,0,1710.635,991.968Zm-9.028-64.629c-10.4.048-17.964,8.677-16.706,18.357a16.2,16.2,0,0,0,19.11,13.824,28.052,28.052,0,0,0,5.391-2.043,1.293,1.293,0,0,0,.639-1.881,1.347,1.347,0,0,0-1.692-.764,3.992,3.992,0,0,0-.864.428,13.023,13.023,0,0,1-9.367,1.341,13.329,13.329,0,1,1,16.026-10.908,24.505,24.505,0,0,1-1.72,4.785c-.495,1.182.045,2.45,1.186,2.288a2.3,2.3,0,0,0,1.446-1.063c2.977-5.394,3.081-10.884,0-16.223A15.609,15.609,0,0,0,1701.606,927.339Zm-.625-16.3a10.57,10.57,0,0,0-6.675,2.445c-.867.721-1.038,1.564-.484,2.255s1.422.686,2.3,0a7.578,7.578,0,0,1,9.79-.006c.9.691,1.744.695,2.3.01s.385-1.551-.467-2.26A10.617,10.617,0,0,0,1700.982,911.041ZM1665.672,946.8c-1.029,0-2.058-.014-3.087,0s-1.6.535-1.625,1.389a1.462,1.462,0,0,0,1.632,1.5q3.135.036,6.271,0a1.48,1.48,0,0,0,1.594-1.46,1.447,1.447,0,0,0-1.6-1.427C1667.8,946.782,1666.734,946.8,1665.672,946.8Zm35.349,2.138c1.03,0,2.06.023,3.088-.007a1.513,1.513,0,0,0,1.628-1.435c.018-.86-.637-1.45-1.674-1.457q-3.04-.02-6.081,0a1.458,1.458,0,1,0-.05,2.892C1698.962,948.959,1699.992,948.935,1701.022,948.936Zm-27.376-7.652a1.4,1.4,0,0,0-1.9-1.387,10.8,10.8,0,0,0-2.145,1.069,1.381,1.381,0,0,0,.007,2.343c1.108.708,1.933-.2,2.842-.565A1.576,1.576,0,0,0,1673.645,941.284Zm-10.413.624c-.07-.141-.143-.585-.39-.728a15.152,15.152,0,0,0-2.733-1.327,1.067,1.067,0,0,0-1.4.855,1.994,1.994,0,0,0,.407,1.592,7.314,7.314,0,0,0,2.375,1.206C1662.408,943.8,1663.246,943.057,1663.233,941.908Zm45.3.2h.009c0-.289.019-.58,0-.867a1.431,1.431,0,0,0-2.858-.1,9.789,9.789,0,0,0,.078,2.205,1.282,1.282,0,0,0,1.464,1.11,1.307,1.307,0,0,0,1.3-1.2A8.78,8.78,0,0,0,1708.537,942.113Zm-12.194.076h.026c0-.289.015-.579,0-.867-.057-.955-.564-1.489-1.408-1.5a1.4,1.4,0,0,0-1.469,1.45,11.1,11.1,0,0,0-.013,1.829,1.432,1.432,0,0,0,2.864-.043C1696.364,942.768,1696.343,942.477,1696.343,942.188Zm12.213-35.489a1.452,1.452,0,0,0-1.452-1.48,1.488,1.488,0,0,0-1.427,1.425,1.44,1.44,0,0,0,1.472,1.458A1.39,1.39,0,0,0,1708.556,906.7Zm-12.2-.058a1.439,1.439,0,1,0-2.877.061,1.433,1.433,0,0,0,1.523,1.4A1.4,1.4,0,0,0,1696.359,906.642Z" transform="translate(-1649.808 -892.748)" fill="#f3f9ff"/>
      <path id="Trazado_612527" data-name="Trazado 612527" d="M1659.456,979.695a2.024,2.024,0,0,1-1-2.023c.026-7.263-.01-14.527.03-21.79a5.513,5.513,0,0,0-2.359-4.808c-1.292-.958-2.439-2.108-3.682-3.134a2.741,2.741,0,0,0-1.165-.575c-6.054-1.172-10.369-4.552-12.561-10.309s-1.176-11.165,2.612-16.015a4.9,4.9,0,0,0,.954-2.226c.528-2.68,1.2-5.334,1.892-7.978a1.08,1.08,0,0,0-.367-1.37c-5.2-4.394-7.3-9.977-5.65-16.606s6.084-10.641,12.744-12.062a16.047,16.047,0,0,1,16.634,7.222,1.151,1.151,0,0,0,1.473.557c1.864-.363,3.754-.588,5.622-.933a2.1,2.1,0,0,0,1.167-.656c4.356-5.371,9.97-7.561,16.678-6,6.63,1.54,10.765,5.936,12.19,12.6.42,1.967.076,4.094.111,6.148a1.984,1.984,0,0,0,.251,1.125,37.427,37.427,0,0,1,7.589,18.467,39.454,39.454,0,0,0,2.152,7.5c1.125,3.189,2.45,6.307,3.683,9.458.935,2.389.226,4.058-2.139,5.064-1.009.429-2,.906-3.035,1.261-.7.24-.833.621-.732,1.293.5,3.349.935,6.708,1.454,10.054a5.725,5.725,0,0,1-5.407,6.98c-2.7.248-5.394.5-8.206.769v1.173c0,4.939-.014,9.878.013,14.817a1.954,1.954,0,0,1-1.031,2h-.969a2.3,2.3,0,0,1-.932-2.082c.025-5.552.01-11.1.014-16.657,0-1.534.347-1.949,1.888-2.1,2.986-.3,5.977-.551,8.965-.827a2.805,2.805,0,0,0,2.816-3.46q-.789-5.7-1.637-11.4c-.26-1.761-.1-2.08,1.573-2.784,1.337-.562,2.66-1.159,4.017-1.67.784-.3.941-.665.622-1.455-1.458-3.616-2.842-7.262-4.287-10.884a45.575,45.575,0,0,1-2.2-9.392,31,31,0,0,0-5.607-13.127,41.077,41.077,0,0,1-3.245,4.192,15.511,15.511,0,0,1-15.7,4.389c-5.927-1.539-9.742-5.441-11.534-11.3a3.757,3.757,0,0,1-.141-.562,1.442,1.442,0,1,1,2.8-.7,27.965,27.965,0,0,0,1.51,3.647,13.3,13.3,0,1,0-1.371-10.373,6.192,6.192,0,0,1-.2.646,1.368,1.368,0,0,1-1.679.945,1.353,1.353,0,0,1-1.066-1.685c.14-.751.393-1.481.65-2.421l-4.368.774c1.889,6.753.619,12.7-4.57,17.374-5.171,4.66-11.174,5.329-17.8,2.727l-1.6,5.792c1.581-.606,2.933-1.171,4.32-1.63a2,2,0,0,1,1.474.021,1.635,1.635,0,0,1,.728,1.3,2.126,2.126,0,0,1-1.042,1.3c-1.169.6-2.5.892-3.633,1.538a13.233,13.233,0,0,0-6.045,15.425,13.338,13.338,0,1,0,16.517-16.726c-.216-.064-.437-.114-.648-.192a1.422,1.422,0,0,1-1.018-1.811,1.333,1.333,0,0,1,1.754-.94,21.964,21.964,0,0,1,4.122,1.615,16.122,16.122,0,0,1,8.05,16.871,16.3,16.3,0,0,1-12.646,13.128c-.282.062-.563.131-1.017.238.554.461,1,.893,1.506,1.242a8.251,8.251,0,0,1,3.653,7.365c-.057,7.2-.029,14.4,0,21.6a2.2,2.2,0,0,1-.964,2.059Zm7.754-82.862a13.346,13.346,0,1,0-13.34,13.28A13.353,13.353,0,0,0,1667.21,896.833Z" transform="translate(-1637.574 -880.475)" fill="#12263f"/>
      <path id="Trazado_612528" data-name="Trazado 612528" d="M1834.541,1058.719a15.609,15.609,0,0,1,13.447,8.141c3.085,5.339,2.981,10.829,0,16.223a2.3,2.3,0,0,1-1.446,1.063c-1.141.162-1.68-1.106-1.186-2.288a24.5,24.5,0,0,0,1.72-4.785,13.316,13.316,0,1,0-16.026,10.908,13.023,13.023,0,0,0,9.367-1.341,3.99,3.99,0,0,1,.864-.428,1.347,1.347,0,0,1,1.692.764,1.293,1.293,0,0,1-.639,1.881,28.048,28.048,0,0,1-5.391,2.043,16.2,16.2,0,0,1-19.11-13.824C1816.576,1067.4,1824.138,1058.767,1834.541,1058.719Z" transform="translate(-1782.742 -1024.129)" fill="#12263f"/>
      <path id="Trazado_612529" data-name="Trazado 612529" d="M1870.215,974.732a10.627,10.627,0,0,1,6.771,2.446c.853.709,1.026,1.577.467,2.26s-1.407.681-2.3-.01a7.577,7.577,0,0,0-9.79.006c-.882.686-1.753.686-2.3,0s-.383-1.534.484-2.255A10.58,10.58,0,0,1,1870.215,974.732Z" transform="translate(-1819.042 -956.44)" fill="#12263f"/>
      <path id="Trazado_612530" data-name="Trazado 612530" d="M1699.75,1158.969c1.061,0,2.123-.016,3.184.005a1.447,1.447,0,0,1,1.6,1.427,1.48,1.48,0,0,1-1.593,1.46q-3.135.043-6.271,0a1.461,1.461,0,0,1-1.632-1.5c.024-.854.609-1.371,1.625-1.389S1698.721,1158.968,1699.75,1158.969Z" transform="translate(-1683.886 -1104.919)" fill="#12263f"/>
      <path id="Trazado_612531" data-name="Trazado 612531" d="M1881.922,1157.929c-1.03,0-2.06.024-3.088-.007a1.458,1.458,0,1,1,.05-2.892q3.04-.018,6.081,0c1.037.007,1.692.6,1.674,1.457a1.514,1.514,0,0,1-1.628,1.435C1883.982,1157.952,1882.952,1157.929,1881.922,1157.929Z" transform="translate(-1830.709 -1101.742)" fill="#12263f"/>
      <path id="Trazado_612532" data-name="Trazado 612532" d="M1740.917,1124.434a1.577,1.577,0,0,1-1.2,1.46c-.909.363-1.734,1.273-2.842.565a1.381,1.381,0,0,1-.007-2.343,10.794,10.794,0,0,1,2.144-1.069A1.4,1.4,0,0,1,1740.917,1124.434Z" transform="translate(-1717.08 -1075.898)" fill="#12263f"/>
      <path id="Trazado_612533" data-name="Trazado 612533" d="M1687.9,1125.029c.013,1.148-.825,1.9-1.737,1.6a7.312,7.312,0,0,1-2.375-1.206,1.994,1.994,0,0,1-.406-1.592,1.067,1.067,0,0,1,1.4-.855,15.163,15.163,0,0,1,2.733,1.327C1687.756,1124.444,1687.828,1124.888,1687.9,1125.029Z" transform="translate(-1674.474 -1075.869)" fill="#12263f"/>
      <path id="Trazado_612534" data-name="Trazado 612534" d="M1928.238,1125.317a8.78,8.78,0,0,1-.009,1.154,1.307,1.307,0,0,1-1.3,1.2,1.281,1.281,0,0,1-1.464-1.11,9.782,9.782,0,0,1-.078-2.205,1.431,1.431,0,0,1,2.858.1c.022.287,0,.578,0,.867Z" transform="translate(-1869.509 -1075.953)" fill="#12263f"/>
      <path id="Trazado_612535" data-name="Trazado 612535" d="M1865.324,1125.4c0,.289.021.58,0,.866a1.432,1.432,0,0,1-2.863.043,11.05,11.05,0,0,1,.013-1.829,1.4,1.4,0,0,1,1.469-1.45c.844.013,1.351.547,1.408,1.5.017.288,0,.578,0,.867Z" transform="translate(-1818.79 -1075.957)" fill="#12263f"/>
      <path id="Trazado_612536" data-name="Trazado 612536" d="M1928.342,946.22a1.39,1.39,0,0,1-1.407,1.4,1.44,1.44,0,0,1-1.472-1.458,1.488,1.488,0,0,1,1.427-1.425A1.452,1.452,0,0,1,1928.342,946.22Z" transform="translate(-1869.594 -932.269)" fill="#12263f"/>
      <path id="Trazado_612537" data-name="Trazado 612537" d="M1865.505,946.167a1.4,1.4,0,0,1-1.353,1.461,1.432,1.432,0,0,1-1.523-1.4,1.439,1.439,0,1,1,2.876-.061Z" transform="translate(-1818.954 -932.273)" fill="#12263f"/>
      <path id="Trazado_612538" data-name="Trazado 612538" d="M1679.441,909.052a13.346,13.346,0,1,1-13.284-13.416A13.387,13.387,0,0,1,1679.441,909.052Zm-13.4,7.164a10.266,10.266,0,0,0,6.853-2.474,1.468,1.468,0,1,0-1.8-2.273c-3.287,2.492-6.681,2.5-9.947.027-.874-.662-1.652-.65-2.221.034-.593.712-.44,1.531.441,2.252A10.333,10.333,0,0,0,1666.041,916.215Zm7.6-9.644a1.454,1.454,0,0,0-1.433-1.407,1.49,1.49,0,0,0-1.457,1.5,1.457,1.457,0,0,0,1.549,1.385A1.409,1.409,0,0,0,1673.642,906.571Zm-13.668-1.408a1.509,1.509,0,0,0-1.426,1.436,1.46,1.46,0,0,0,1.49,1.449,1.405,1.405,0,0,0,1.4-1.511A1.454,1.454,0,0,0,1659.975,905.164Z" transform="translate(-1649.805 -892.694)" fill="#26aab7"/>
      <path id="Trazado_612539" data-name="Trazado 612539" d="M1690.206,980.05a10.335,10.335,0,0,1-6.676-2.434c-.881-.722-1.034-1.541-.441-2.252.57-.684,1.348-.7,2.221-.034,3.266,2.474,6.66,2.465,9.948-.027a1.468,1.468,0,1,1,1.8,2.273A10.268,10.268,0,0,1,1690.206,980.05Z" transform="translate(-1673.97 -956.529)" fill="#12263f"/>
      <path id="Trazado_612540" data-name="Trazado 612540" d="M1748.406,946.143a1.409,1.409,0,0,1-1.34,1.475,1.457,1.457,0,0,1-1.549-1.385,1.49,1.49,0,0,1,1.457-1.5A1.454,1.454,0,0,1,1748.406,946.143Z" transform="translate(-1724.568 -932.265)" fill="#12263f"/>
      <path id="Trazado_612541" data-name="Trazado 612541" d="M1684.058,944.73a1.454,1.454,0,0,1,1.464,1.374,1.405,1.405,0,0,1-1.4,1.511,1.46,1.46,0,0,1-1.49-1.449A1.509,1.509,0,0,1,1684.058,944.73Z" transform="translate(-1673.888 -932.261)" fill="#12263f"/>
    </g>
  </g>
</svg>
