<svg xmlns="http://www.w3.org/2000/svg" width="82.614" height="82.614" viewBox="0 0 82.614 82.614">
  <g id="xf7CBf" transform="translate(-2020.655 -1928.508)">
    <g id="Grupo_893355" data-name="Grupo 893355" transform="translate(2020.655 1928.508)">
      <path id="Trazado_612542" data-name="Trazado 612542" d="M2020.655,1971.752v-43.244H2083.1v2.459h-59.981v7.264H2043v2.416h-13.391v5.7c.588-.525,1.062-.958,1.546-1.38a5.353,5.353,0,0,1,7.323.023c.383.338.743.7,1.135,1.03a2.916,2.916,0,0,0,3.969-.012c.41-.348.795-.725,1.2-1.079a5.344,5.344,0,0,1,7.2,0c.447.388.865.809,1.324,1.181a2.869,2.869,0,0,0,3.712.013c.482-.386.919-.827,1.387-1.232a5.342,5.342,0,0,1,7.079-.027c.47.4.907.842,1.385,1.234a2.867,2.867,0,0,0,3.713.037c.463-.366.881-.788,1.326-1.177a5.357,5.357,0,0,1,4.711-1.3,6.7,6.7,0,0,1,3.444,2.116,2.722,2.722,0,0,0,2.608.945,5.652,5.652,0,0,0,2.069-1.114,7.6,7.6,0,0,1,3.041-1.9,5.345,5.345,0,0,1,5.016,1.286c.481.431.965.858,1.54,1.369v-5.745h-48.785v-2.434H2100.8v-7.27H2085.52v-2.4h17.749V1955.7h-2.446v-15.017h-3.948v48.573h3.975v-31.024h2.367v52.839h-70.6v-2.4h7.137v-6.466h4.843v-6.462h4.755V1991.8h-26.209v16.933h6.923v2.393h-9.41v-36.95h2.459v15.095h3.941v-48.6h-3.986v31.086Zm65.742,14.636c.1-2.444.11-4.758.3-7.057a35.235,35.235,0,0,1,2.346-10.9.784.784,0,0,0-.191-.7,19.065,19.065,0,0,1-5.086-6.88,30.447,30.447,0,0,1-2.607-11.071c-.015-.257-.123-.688-.273-.73a9.037,9.037,0,0,1-3.356-2.307,2.918,2.918,0,0,0-3.965-.008c-.514.432-.983.921-1.512,1.333a5.118,5.118,0,0,1-5.246.758,5.538,5.538,0,0,1-1.926-1.277c-2.1-2.155-3.866-2.073-5.778-.012a4.77,4.77,0,0,1-.484.427,5.344,5.344,0,0,1-6.9-.013c-.394-.325-.757-.686-1.137-1.027a3,3,0,0,0-4.393,0c-.558.5-1.078,1.23-1.735,1.406-1.778.475-1.81,1.783-1.839,3.173,0,.054,0,.108-.011.161-.766,6.34-2.792,12.077-7.884,16.394a32.542,32.542,0,0,1,2.27,8.995,61.272,61.272,0,0,1,.433,9.37H2029.6v2.917h34.068v2.423h-11.76v3.953h20.114v-4h-5.819v-2.429h28.126v-2.893Zm-2.167,15.85v6.4h16.575v-7.226h-2.916V1999h2.9v-2.447h-5.139v-2.411h5.147v-2.358h-26.215v4.021h4.813v6.432Zm-42.044,6.42h39.536v-4.022h-12.428v-2.426h7.576v-3.965h-29.814v4.018h19.686v2.439h-24.557Zm52.1-41c.042-.085.085-.131.085-.177q.011-9.025,0-18.051a.823.823,0,0,0-.329-.543c-.874-.653-1.818-1.221-2.649-1.923a3.114,3.114,0,0,0-4.585.043c-.958.826-2.024,1.526-3.222,2.417a27.089,27.089,0,0,0,.986,6.521,19.573,19.573,0,0,0,5.054,9.2A8.787,8.787,0,0,0,2094.283,1967.657Zm-53.946-18.228c-1.21-.906-2.268-1.615-3.229-2.437a3.1,3.1,0,0,0-4.583-.011,14.645,14.645,0,0,1-2.311,1.719,1.058,1.058,0,0,0-.688,1.069c.022,5.695.014,11.389.014,17.084v.822a8.9,8.9,0,0,0,4.716-2.485,18.782,18.782,0,0,0,4.763-8.1A27.6,27.6,0,0,0,2040.337,1949.429Zm48.551,34.492h5.46v-13.7l-3.066-.885C2089.431,1974.03,2089.039,1978.923,2088.888,1983.921Zm-59.295-13.7V1983.9h5.448c-.176-5.011-.542-9.91-2.407-14.567Z" transform="translate(-2020.655 -1928.508)" fill="#12263f"/>
      <path id="Trazado_612543" data-name="Trazado 612543" d="M2098.294,1928.508v2.4h15.276v7.27h-55.241v2.434h48.784v5.745c-.574-.51-1.058-.938-1.539-1.369a5.344,5.344,0,0,0-5.016-1.286,7.6,7.6,0,0,0-3.041,1.9,5.651,5.651,0,0,1-2.068,1.114,2.723,2.723,0,0,1-2.609-.945,6.7,6.7,0,0,0-3.444-2.116,5.357,5.357,0,0,0-4.712,1.3c-.445.389-.864.811-1.327,1.177a2.866,2.866,0,0,1-3.712-.037c-.478-.391-.915-.832-1.385-1.234a5.343,5.343,0,0,0-7.08.027c-.468.4-.9.845-1.386,1.232a2.87,2.87,0,0,1-3.713-.013c-.459-.372-.877-.793-1.324-1.181a5.344,5.344,0,0,0-7.2,0c-.4.354-.789.731-1.2,1.079a2.916,2.916,0,0,1-3.969.012c-.392-.327-.751-.692-1.135-1.03a5.353,5.353,0,0,0-7.323-.023c-.484.422-.958.855-1.546,1.38v-5.7h13.391v-2.416h-19.885v-7.264h59.981v-2.459Zm-22.415,7.226v-2.325h-2.316v2.325Zm-7.174-.005h2.32V1933.4h-2.32Zm9.7.01h2.352v-2.32h-2.352Z" transform="translate(-2033.43 -1928.508)" fill="#fb8c00"/>
      <path id="Trazado_612544" data-name="Trazado 612544" d="M2132.8,2076.843h7.935v2.893h-28.126v2.429h5.82v4h-20.114v-3.953h11.76v-2.423h-34.068v-2.917h7.819a61.308,61.308,0,0,0-.433-9.371,32.547,32.547,0,0,0-2.27-8.994c5.092-4.317,7.117-10.054,7.884-16.394.007-.053.01-.107.011-.161.029-1.39.06-2.7,1.839-3.173.657-.176,1.177-.9,1.736-1.406a3,3,0,0,1,4.393,0c.38.341.743.7,1.137,1.027a5.344,5.344,0,0,0,6.9.013,4.744,4.744,0,0,0,.484-.427c1.911-2.061,3.68-2.144,5.778.012a5.539,5.539,0,0,0,1.926,1.277,5.118,5.118,0,0,0,5.246-.758c.529-.412,1-.9,1.512-1.333a2.918,2.918,0,0,1,3.965.009,9.032,9.032,0,0,0,3.356,2.307c.15.042.258.473.273.73a30.433,30.433,0,0,0,2.607,11.071,19.054,19.054,0,0,0,5.086,6.88.786.786,0,0,1,.191.7,35.222,35.222,0,0,0-2.346,10.9C2132.91,2072.085,2132.9,2074.4,2132.8,2076.843Z" transform="translate(-2067.058 -2018.963)" fill="#b2ebf2"/>
      <path id="Trazado_612545" data-name="Trazado 612545" d="M2153.836,2370.275v-3.955h24.556v-2.439h-19.686v-4.018h29.814v3.965h-7.576v2.426h12.428v4.022Z" transform="translate(-2132.304 -2290.125)" fill="#d2e1f1"/>
      <path id="Trazado_612546" data-name="Trazado 612546" d="M2420.593,2058.24a8.788,8.788,0,0,1-4.659-2.512,19.578,19.578,0,0,1-5.054-9.2,27.1,27.1,0,0,1-.986-6.521c1.2-.891,2.264-1.592,3.222-2.417a3.114,3.114,0,0,1,4.585-.043c.832.7,1.775,1.27,2.65,1.923a.822.822,0,0,1,.329.543q.019,9.025,0,18.051C2420.678,2058.109,2420.635,2058.155,2420.593,2058.24Z" transform="translate(-2346.965 -2019.091)" fill="#fb8c00"/>
      <path id="Trazado_612547" data-name="Trazado 612547" d="M2086.339,2039.989a27.593,27.593,0,0,1-1.319,7.656,18.784,18.784,0,0,1-4.763,8.1,8.894,8.894,0,0,1-4.716,2.485v-.822c0-5.695.008-11.389-.013-17.084a1.058,1.058,0,0,1,.688-1.069,14.632,14.632,0,0,0,2.311-1.719,3.1,3.1,0,0,1,4.583.011C2084.071,2038.374,2085.129,2039.083,2086.339,2039.989Z" transform="translate(-2066.657 -2019.068)" fill="#fb8c00"/>
      <path id="Trazado_612548" data-name="Trazado 612548" d="M2442.7,2195.625c.151-5,.543-9.891,2.394-14.586l3.065.885v13.7Z" transform="translate(-2374.471 -2140.212)" fill="#fb8c00"/>
      <path id="Trazado_612549" data-name="Trazado 612549" d="M2075.943,2181.933l3.041-.879c1.865,4.657,2.231,9.556,2.407,14.567h-5.448Z" transform="translate(-2067.005 -2140.225)" fill="#fb8c00"/>
      <path id="Trazado_612550" data-name="Trazado 612550" d="M2271.213,1961.146H2268.9v-2.325h2.316Z" transform="translate(-2228.763 -1953.92)" fill="#12263f"/>
      <path id="Trazado_612551" data-name="Trazado 612551" d="M2238.853,1961.109v-2.326h2.32v2.326Z" transform="translate(-2203.577 -1953.888)" fill="#12263f"/>
      <path id="Trazado_612552" data-name="Trazado 612552" d="M2298.848,1961.205v-2.32h2.352v2.32Z" transform="translate(-2253.872 -1953.974)" fill="#12263f"/>
      <path id="Trazado_612553" data-name="Trazado 612553" d="M2456.774,2337.247h-2.294V2334.9h2.294Z" transform="translate(-2384.343 -2269.198)" fill="#12263f"/>
    </g>
  </g>
</svg>
