<svg xmlns="http://www.w3.org/2000/svg" xmlns:xlink="http://www.w3.org/1999/xlink" width="358.403" height="205.369" viewBox="0 0 358.403 205.369">
  <defs>
    <clipPath id="clip-path">
      <rect id="Rectángulo_57471" data-name="Rectángulo 57471" width="304.549" height="205.369" fill="none"/>
    </clipPath>
    <clipPath id="clip-path-4">
      <rect id="Rectángulo_57458" data-name="Rectángulo 57458" width="55.413" height="23.29" fill="none"/>
    </clipPath>
    <clipPath id="clip-path-5">
      <rect id="Rectángulo_57459" data-name="Rectángulo 57459" width="8.472" height="11.609" fill="none"/>
    </clipPath>
    <clipPath id="clip-path-6">
      <rect id="Rectángulo_57460" data-name="Rectángulo 57460" width="15.872" height="8.947" fill="none"/>
    </clipPath>
    <clipPath id="clip-path-7">
      <rect id="Rectángulo_57461" data-name="Rectángulo 57461" width="30.792" height="19.874" fill="none"/>
    </clipPath>
    <clipPath id="clip-path-8">
      <rect id="Rectángulo_57462" data-name="Rectángulo 57462" width="12.228" height="33.947" fill="none"/>
    </clipPath>
  </defs>
  <g id="Grupo_893420" data-name="Grupo 893420" transform="translate(-180 -11137.864)">
    <rect id="Rectángulo_302505" data-name="Rectángulo 302505" width="358.403" height="169.369" transform="translate(180 11158.555)" fill="#f5fafe"/>
    <g id="Grupo_180275" data-name="Grupo 180275" transform="translate(217.273 11137.864)">
      <g id="Grupo_179253" data-name="Grupo 179253" clip-path="url(#clip-path)">
        <path id="Trazado_227361" data-name="Trazado 227361" d="M399.7,321.758l4.7,2.825-4.779,2.835-4.779,2.835.074-5.66.074-5.659,2.586,1.553" transform="translate(-206.578 -166.861)" fill="#e0e0e0"/>
        <path id="Trazado_227362" data-name="Trazado 227362" d="M19.7,382.994V405H87.385V382.994Z" transform="translate(-10.305 -200.377)" fill="#f5f5f5"/>
        <path id="Trazado_227363" data-name="Trazado 227363" d="M13.74,370.088v6.154h72.9v-6.154H13.74Z" transform="translate(-7.189 -193.625)" fill="#e0e0e0"/>
        <path id="Trazado_227364" data-name="Trazado 227364" d="M88.622,398.252H122.7V376.241h2.367v-6.154H87.2v5.584Z" transform="translate(-45.622 -193.625)" fill="#e0e0e0"/>
        <rect id="Rectángulo_57451" data-name="Rectángulo 57451" width="13.727" height="3.313" transform="translate(18.858 186.166)" fill="#e0e0e0"/>
        <rect id="Rectángulo_57452" data-name="Rectángulo 57452" width="17.626" height="6.996" transform="translate(17.091 193.622)" fill="#fff"/>
        <path id="Trazado_227365" data-name="Trazado 227365" d="M38.695,324.935v22.011h67.689V324.935Z" transform="translate(-20.244 -170.001)" fill="#f5f5f5"/>
        <path id="Trazado_227366" data-name="Trazado 227366" d="M32.738,312.029v6.154h72.9v-6.154h-72.9Z" transform="translate(-17.128 -163.249)" fill="#e0e0e0"/>
        <path id="Trazado_227367" data-name="Trazado 227367" d="M107.62,340.193H141.7V318.182h2.366v-6.154H106.2v5.584Z" transform="translate(-55.562 -163.249)" fill="#e0e0e0"/>
        <rect id="Rectángulo_57453" data-name="Rectángulo 57453" width="13.727" height="3.313" transform="translate(27.917 158.483)" fill="#e0e0e0"/>
        <rect id="Rectángulo_57454" data-name="Rectángulo 57454" width="17.626" height="6.996" transform="translate(26.15 165.939)" fill="#fff"/>
        <g id="Grupo_179233" data-name="Grupo 179233">
          <g id="Grupo_179232" data-name="Grupo 179232" clip-path="url(#clip-path)">
            <path id="Trazado_227368" data-name="Trazado 227368" d="M492.509,211.114H412.8a3.751,3.751,0,0,1-3.751-3.751v-46.55a3.751,3.751,0,0,1,3.751-3.751h79.71a3.751,3.751,0,0,1,3.751,3.751v46.55a3.751,3.751,0,0,1-3.751,3.751" transform="translate(-214.008 -82.172)" fill="#e0e0e0"/>
            <path id="Trazado_227369" data-name="Trazado 227369" d="M499.855,207.993a6.643,6.643,0,1,1-6.643-6.643,6.643,6.643,0,0,1,6.643,6.643" transform="translate(-254.565 -105.343)" fill="#ebebeb"/>
            <path id="Trazado_227370" data-name="Trazado 227370" d="M497.143,214.784v-3.92a.25.25,0,0,1,.372-.217l3.5,1.975a.25.25,0,0,1,0,.436l-3.5,1.945a.25.25,0,0,1-.371-.218" transform="translate(-260.098 -110.19)" fill="#fff"/>
            <path id="Trazado_227371" data-name="Trazado 227371" d="M418.746,256.562v.14h-.657v-.111l.354-.336c.087-.083.1-.135.1-.185,0-.082-.056-.129-.166-.129a.25.25,0,0,0-.208.093l-.116-.089a.411.411,0,0,1,.339-.148c.194,0,.319.1.319.256a.358.358,0,0,1-.148.281l-.238.227Z" transform="translate(-218.72 -133.83)" fill="#fff"/>
            <path id="Trazado_227372" data-name="Trazado 227372" d="M419.69,256.357a.1.1,0,1,1,.1.106.1.1,0,0,1-.1-.106m0,.485a.1.1,0,1,1,.209,0,.1.1,0,1,1-.209,0" transform="translate(-219.576 -134.067)" fill="#fff"/>
            <path id="Trazado_227373" data-name="Trazado 227373" d="M420.609,255.825v.891h-.165v-.752h-.188v-.139Z" transform="translate(-219.871 -133.844)" fill="#fff"/>
            <path id="Trazado_227374" data-name="Trazado 227374" d="M422.146,256.514h-.158v.2h-.161v-.2h-.489V256.4l.439-.574h.177l-.414.548h.292v-.179h.155v.179h.158Z" transform="translate(-220.438 -133.844)" fill="#fff"/>
            <rect id="Rectángulo_57455" data-name="Rectángulo 57455" width="67.544" height="0.358" transform="translate(203.162 122.289)" fill="#fff"/>
            <rect id="Rectángulo_57456" data-name="Rectángulo 57456" width="21.108" height="0.954" transform="translate(203.111 121.916)" fill="#ebebeb"/>
            <path id="Trazado_227375" data-name="Trazado 227375" d="M469.417,255.72a1.028,1.028,0,1,1-1.028-1.028,1.028,1.028,0,0,1,1.028,1.028" transform="translate(-244.517 -133.251)" fill="#ebebeb"/>
            <path id="Trazado_227376" data-name="Trazado 227376" d="M570.526,256.137a.3.3,0,0,1-.326.289c-.242,0-.385-.156-.385-.443a.422.422,0,0,1,.436-.473.446.446,0,0,1,.234.057l-.06.125a.3.3,0,0,0-.17-.043c-.168,0-.274.1-.274.307h0a.306.306,0,0,1,.238-.093.279.279,0,0,1,.307.274m-.16.008c0-.093-.071-.151-.179-.151a.162.162,0,0,0-.181.153c0,.084.067.15.185.15a.155.155,0,0,0,.175-.151" transform="translate(-298.119 -133.679)" fill="#fff"/>
            <path id="Trazado_227377" data-name="Trazado 227377" d="M571.473,256.068a.1.1,0,1,1,.1.106.1.1,0,0,1-.1-.106m0,.485a.1.1,0,1,1,.1.106.1.1,0,0,1-.1-.106" transform="translate(-298.986 -133.916)" fill="#fff"/>
            <path id="Trazado_227378" data-name="Trazado 227378" d="M572.134,255.967c0-.293.161-.458.372-.458s.373.165.373.458-.161.458-.373.458-.372-.165-.372-.458m.578,0c0-.215-.084-.314-.206-.314s-.2.1-.2.314.084.314.2.314.206-.1.206-.314" transform="translate(-299.332 -133.679)" fill="#fff"/>
            <path id="Trazado_227379" data-name="Trazado 227379" d="M573.927,255.967c0-.293.161-.458.372-.458s.373.165.373.458-.161.458-.373.458-.372-.165-.372-.458m.578,0c0-.215-.084-.314-.206-.314s-.2.1-.2.314.084.314.2.314.206-.1.206-.314" transform="translate(-300.27 -133.679)" fill="#fff"/>
            <path id="Trazado_227380" data-name="Trazado 227380" d="M578.164,255.354h-.358v-.913h.911v.358h-.553Z" transform="translate(-302.3 -133.12)" fill="#fff"/>
            <path id="Trazado_227381" data-name="Trazado 227381" d="M578.717,257.838H577.8v-.911h.358v.553h.555Z" transform="translate(-302.299 -134.421)" fill="#fff"/>
            <path id="Trazado_227382" data-name="Trazado 227382" d="M581.737,257.836h-.911v-.358h.553v-.555h.358Z" transform="translate(-303.88 -134.419)" fill="#fff"/>
            <path id="Trazado_227383" data-name="Trazado 227383" d="M581.737,255.352h-.358V254.8h-.555v-.358h.913Z" transform="translate(-303.879 -133.12)" fill="#fff"/>
            <path id="Trazado_227384" data-name="Trazado 227384" d="M558.457,167.968a14.277,14.277,0,0,1,1.837-.1l.1,0v.1c.007.7.015,1.484.024,2.334l0,.3-.215-.214-.245-.245-.623-.626.167,0-.977.859-.185.162,0-.243c.01-.722.035-1.32.055-1.726a2.8,2.8,0,0,1,.053-.608,4.691,4.691,0,0,1,.053.678c.02.412.045.981.055,1.656l-.181-.081.959-.879.085-.078.083.082.626.622.245.245-.211.088c.009-.85.017-1.637.024-2.334l.1.1a18.039,18.039,0,0,1-1.837-.1" transform="translate(-292.118 -87.825)" fill="#fff"/>
            <path id="Trazado_227385" data-name="Trazado 227385" d="M569.513,168.541a6.494,6.494,0,0,1-.445.568c-.3.373-.753.932-1.3,1.553l-.206.232v-.311c0-.365,0-.754-.006-1.157v-.113l.038.09-.814-.792-.212-.206.295,0c.807.011,1.5.053,1.963.081a6.151,6.151,0,0,1,.692.052c-.024.01-.326.02-.8.043s-1.113.056-1.854.058l.082-.2.823.783.038.036v.166c0,.4,0,.792-.005,1.157l-.207-.079c.516-.564.983-1.027,1.333-1.378s.567-.574.592-.585" transform="translate(-296.418 -88.106)" fill="#fff"/>
            <path id="Trazado_227386" data-name="Trazado 227386" d="M570.732,168.674c.027.063-.363.287-.871.5s-.94.335-.966.271.363-.287.871-.5.94-.335.967-.271" transform="translate(-297.637 -88.239)" fill="#fff"/>
            <path id="Trazado_227387" data-name="Trazado 227387" d="M578.11,168.056c0-.013.116-.041.329-.006a1.3,1.3,0,0,1,.774.467,1.381,1.381,0,0,1,.226,1.322,1.408,1.408,0,0,1-2.659,0,1.38,1.38,0,0,1,.225-1.322,1.3,1.3,0,0,1,.774-.467c.213-.035.33-.007.329.006s-.115.027-.306.088a1.3,1.3,0,0,0-.658.479,1.219,1.219,0,0,0-.15,1.138,1.19,1.19,0,0,0,2.229,0,1.219,1.219,0,0,0-.15-1.138,1.3,1.3,0,0,0-.658-.479c-.19-.061-.306-.067-.306-.088" transform="translate(-301.723 -87.912)" fill="#fff"/>
            <path id="Trazado_227388" data-name="Trazado 227388" d="M579.84,170.487c-.048.048-.335-.16-.642-.466l-.036-.036v-.059c0-.437.055-.791.124-.791s.124.354.124.791v.008l-.036-.088c.306.307.514.594.466.642" transform="translate(-303.009 -88.488)" fill="#fff"/>
            <path id="Trazado_227389" data-name="Trazado 227389" d="M469.474,171.656c0,.069-8.963.124-20.017.124s-20.019-.055-20.019-.124,8.961-.124,20.019-.124,20.017.055,20.017.124" transform="translate(-224.676 -89.743)" fill="#fff"/>
            <path id="Trazado_227390" data-name="Trazado 227390" d="M422.01,170.06a1.579,1.579,0,1,1-1.579-1.579,1.578,1.578,0,0,1,1.579,1.579" transform="translate(-219.138 -88.147)" fill="#fff"/>
          </g>
        </g>
        <g id="Grupo_179250" data-name="Grupo 179250">
          <g id="Grupo_179249" data-name="Grupo 179249" clip-path="url(#clip-path)">
            <path id="Trazado_227391" data-name="Trazado 227391" d="M285.308,142.863l-25.255-9.069c1.651,19.713,3.261,39.913-1.982,58.988-.567,2.063-1.066,4.65.575,6.022a5.355,5.355,0,0,0,3.665.81q3.932-.121,7.843-.574c2.775-.322,5.735-.865,7.711-2.84,1.656-1.656,2.325-4.033,2.882-6.308a165.5,165.5,0,0,0,4.561-47.028" transform="translate(-134.736 -69.999)" fill="#263238"/>
            <path id="Trazado_227392" data-name="Trazado 227392" d="M229.022,266.055l2.992-3.927,2.005-10.5,4.555-25.531s2.009-9.606,8.2-12.358l1.313,25.513L235.454,271.31Z" transform="translate(-119.821 -111.827)" fill="#636363"/>
            <path id="Trazado_227393" data-name="Trazado 227393" d="M251.657,196.156l-3.724,4.408-5.678,2.524s-12.5,23.883-12.834,24.106-2.344,7.031-1.227,12.834a100.744,100.744,0,0,1,1.786,18.861c-.112,5.469-7.254,23.436-7.7,27.565s-1.9,20.088-1.9,20.088l63.166-.48a116.4,116.4,0,0,0-2.344-11.908s-.223-15.847-2.567-18.86c0,0,1.786-4.129,1.562-6.473s9.375-14.843,11.272-19.2,9.374-14.285,9.486-21.427-1-13.169-4.576-18.08-10.044-8.258-12.722-10.044l-5.245-6.7Z" transform="translate(-115.3 -101.173)" fill="#636363"/>
            <path id="Trazado_227394" data-name="Trazado 227394" d="M238.743,350.709a1.081,1.081,0,0,1,0-.191c0-.138.011-.323.019-.559.022-.505.054-1.227.094-2.15.078-1.881.19-4.579.329-7.908.057-1.669.116-3.5.141-5.461.013-.982.014-2-.021-3.039a13.832,13.832,0,0,1,.323-3.231,50.413,50.413,0,0,1,2.063-6.629,31.762,31.762,0,0,0,1.091-3.481,14.883,14.883,0,0,0,.244-1.843l.189-1.891c.255-2.537.5-5.014.743-7.406q.181-1.794.355-3.521c.1-1.152.263-2.275.3-3.379a86.56,86.56,0,0,1,1.59-11.635c.646-3.28,1.235-5.919,1.616-7.749.189-.9.337-1.611.44-2.106.05-.231.089-.412.118-.547a.1.1,0,1,1,.025,0c-.023.136-.054.319-.093.552-.093.5-.225,1.207-.394,2.116-.352,1.836-.916,4.481-1.539,7.763a88.9,88.9,0,0,0-1.534,11.617c-.032,1.106-.19,2.229-.29,3.381s-.231,2.327-.35,3.523c-.238,2.394-.485,4.871-.738,7.409q-.1.951-.189,1.891a15.046,15.046,0,0,1-.25,1.872,31.6,31.6,0,0,1-1.1,3.511,50.8,50.8,0,0,0-2.067,6.593,13.679,13.679,0,0,0-.329,3.176c.031,1.05.026,2.067.009,3.051-.034,1.966-.1,3.8-.172,5.465-.143,3.34-.295,6.04-.408,7.906-.061.922-.108,1.643-.141,2.148-.019.236-.033.421-.044.558a1.066,1.066,0,0,1-.024.19" transform="translate(-124.905 -145.34)" fill="#263238"/>
            <path id="Trazado_227395" data-name="Trazado 227395" d="M259.367,231.817a55.424,55.424,0,0,1,6.925-16.4,39.115,39.115,0,0,0,5.7-13.545l.074-9.337.4,1.2,23.748-3.443.717,3.429-15.866,14.36s-7.342,1.426-7.648,1.629-14.054,22.1-14.054,22.1" transform="translate(-135.697 -99.562)" fill="#efbda8"/>
            <path id="Trazado_227396" data-name="Trazado 227396" d="M320.222,207.422a2.318,2.318,0,0,1-.209.332c-.144.213-.357.526-.642.923-.564.8-1.4,1.934-2.465,3.316s-2.355,3.009-3.747,4.844c-.7.918-1.416,1.889-2.145,2.908a6.526,6.526,0,0,1-.6.761,1.447,1.447,0,0,1-.913.476,1.8,1.8,0,0,1-1-.285c-.293-.17-.562-.354-.844-.532l-3.269-2.1c-.527-.336-1.046-.68-1.552-.992a2.566,2.566,0,0,0-1.6-.467,3.19,3.19,0,0,0-1.456.681c-.431.324-.856.657-1.3.926a9.267,9.267,0,0,1-2.649,1.1,9.386,9.386,0,0,1-4.125.1,6.077,6.077,0,0,1-.632-.155,4.409,4.409,0,0,1-.454-.145,2.272,2.272,0,0,1-.363-.148,2.29,2.29,0,0,1,.379.1c.122.041.275.079.457.121s.392.092.631.131a9.6,9.6,0,0,0,4.064-.17,9.2,9.2,0,0,0,2.583-1.108c.431-.267.84-.592,1.279-.927a3.383,3.383,0,0,1,1.559-.732,2.781,2.781,0,0,1,1.744.49c.523.319,1.032.655,1.563.992l3.271,2.1c.561.335,1.1.81,1.688.779a1.2,1.2,0,0,0,.756-.4,6.4,6.4,0,0,0,.574-.73c.732-1.02,1.458-1.99,2.16-2.905,1.4-1.831,2.713-3.444,3.791-4.813s1.938-2.488,2.525-3.266l.679-.895a2.358,2.358,0,0,1,.249-.3" transform="translate(-151.863 -108.52)" fill="#263238"/>
            <path id="Trazado_227397" data-name="Trazado 227397" d="M278.162,247.644a4.461,4.461,0,0,1,.354-.675c.241-.427.606-1.036,1.07-1.78.928-1.488,2.278-3.5,3.893-5.639s3.189-3.983,4.369-5.28c.589-.649,1.076-1.165,1.422-1.513a4.57,4.57,0,0,1,.553-.525,4.384,4.384,0,0,1-.482.59l-1.361,1.564c-1.144,1.325-2.691,3.185-4.3,5.314s-2.979,4.123-3.943,5.584l-1.135,1.736a4.461,4.461,0,0,1-.437.625" transform="translate(-145.53 -121.5)" fill="#263238"/>
            <path id="Trazado_227398" data-name="Trazado 227398" d="M277.57,268.4a.4.4,0,0,1,.093.013l.271.055,1.055.227c.924.2,2.277.494,4.006.842.864.173,1.822.36,2.869.539.524.09,1.067.169,1.638.256s1.152.228,1.748.382c1.193.309,2.442.706,3.745,1.161.651.229,1.316.473,1.99.738q.506.2,1.02.414l.514.227.257.124c.043.022.086.044.13.07a.6.6,0,0,1,.068.043l.036.026a.2.2,0,0,1,.059.109v.014l-.006.019-4.979,15.9,0,.01,0,.009a9.613,9.613,0,0,1-.935,1.452,6.819,6.819,0,0,1-1.258,1.285,2.33,2.33,0,0,1-.581.315l-.591.2-1.174.4-2.315.78-4.469,1.5-.068.023-.052-.049-4.676-4.336-1.111-1.031a13.2,13.2,0,0,1-1.064-1.048,2.672,2.672,0,0,1-.633-1.341,4.81,4.81,0,0,1,.032-1.433c.636-3.653,1.358-6.853,2.01-9.506s1.254-4.748,1.68-6.183c.217-.706.387-1.255.506-1.641l.138-.422a.851.851,0,0,1,.054-.141.8.8,0,0,1-.033.147l-.118.428c-.11.388-.266.941-.467,1.652-.4,1.441-.976,3.543-1.61,6.2s-1.335,5.861-1.953,9.5a4.608,4.608,0,0,0-.027,1.369,2.449,2.449,0,0,0,.59,1.234A13.112,13.112,0,0,0,275,289.949l1.114,1.028L280.8,295.3l-.12-.026,4.467-1.51,2.315-.782,1.173-.4.591-.2a2.1,2.1,0,0,0,.515-.28,6.6,6.6,0,0,0,1.208-1.237,9.348,9.348,0,0,0,.91-1.412l-.008.019,5.01-15.887.092.032a63.4,63.4,0,0,0-7.745-2.744c-.592-.156-1.17-.292-1.731-.391s-1.114-.173-1.637-.268c-1.048-.188-2.005-.384-2.868-.566-1.726-.366-3.076-.68-4-.9l-1.048-.258-.267-.072a.376.376,0,0,1-.089-.03" transform="translate(-142.887 -140.422)" fill="#263238"/>
            <g id="Grupo_179236" data-name="Grupo 179236" transform="translate(108.875 166.225)" opacity="0.3">
              <g id="Grupo_179235" data-name="Grupo 179235">
                <g id="Grupo_179234" data-name="Grupo 179234" clip-path="url(#clip-path-4)">
                  <path id="Trazado_227399" data-name="Trazado 227399" d="M254.668,365.434c-5.523-.835-13.192-3.14-19.486-4.453-2.249-.469-4.191-1.012-6.439-1.481l-.4,1.25a75.406,75.406,0,0,1,18.355,6.546c3.493,1.788,6.953,3.877,10.836,4.447,4.344.638,8.708-.7,12.894-2.02,2.362-.745,4.836-1.56,6.52-3.375a13.74,13.74,0,0,0,2.488-4.571q2.473-6.471,4.319-13.16c-7.5,8.413-17.938,18.5-29.082,16.818" transform="translate(-228.338 -348.616)"/>
                </g>
              </g>
            </g>
            <path id="Trazado_227400" data-name="Trazado 227400" d="M304.9,269.913l-15.866,29.181a4.7,4.7,0,0,0-3.685,4.637,2.773,2.773,0,0,0-3.144.082c-1.2.712-4.57,1.661-6.432,2.655a2.225,2.225,0,0,0-1.1,2.555l4.924,17.893s5.985,0,6.517-1.484l8.2-2.567s5.3-1.4,7.341-4.928,14.274-21.754,14.274-21.754" transform="translate(-143.667 -141.215)" fill="#636363"/>
            <path id="Trazado_227401" data-name="Trazado 227401" d="M315.8,296.184s-.034.063-.11.182l-.34.525-1.332,2.026-5,7.576-3.5,5.339c-1.257,1.939-2.621,4.017-3.983,6.274a9.279,9.279,0,0,1-2.914,2.859,16.911,16.911,0,0,1-3.883,1.848l-8.721,2.733.076-.073a1.337,1.337,0,0,1-.626.637,4.156,4.156,0,0,1-.8.327,11.081,11.081,0,0,1-1.688.356,27.916,27.916,0,0,1-3.518.246h-.093l-.025-.091-2.78-10.1-1.484-5.395c-.238-.9-.5-1.753-.715-2.663a2.353,2.353,0,0,1,1.17-2.41,47.733,47.733,0,0,1,4.9-1.976c.4-.154.8-.314,1.178-.494a9.716,9.716,0,0,1,1.159-.558,2.79,2.79,0,0,1,2.511.283l-.189.091a4.749,4.749,0,0,1,1.067-3.1,5.2,5.2,0,0,1,2.713-1.65l-.075.056,11.516-21.088,3.266-5.942.871-1.566.227-.4c.052-.089.082-.133.082-.133s-.02.049-.067.141l-.212.408-.841,1.583-3.211,5.971L289,299.147l-.023.042-.052.013a4.984,4.984,0,0,0-2.582,1.579,4.516,4.516,0,0,0-1.008,2.95l0,.221-.186-.131a2.567,2.567,0,0,0-2.29-.241,9.694,9.694,0,0,0-1.132.549c-.391.186-.792.347-1.2.5a48,48,0,0,0-4.868,1.966,2.106,2.106,0,0,0-1.047,2.159c.2.856.474,1.752.71,2.635l1.485,5.394c.951,3.459,1.883,6.848,2.776,10.1l-.118-.09a27.707,27.707,0,0,0,3.484-.241,10.855,10.855,0,0,0,1.651-.346,4.009,4.009,0,0,0,.751-.306,1.124,1.124,0,0,0,.518-.509l.022-.057.054-.017,8.723-2.718a16.744,16.744,0,0,0,3.835-1.814A9.088,9.088,0,0,0,301.365,318c1.371-2.258,2.743-4.333,4.008-6.267l3.524-5.324,5.058-7.537,1.365-2.005.357-.514c.081-.115.127-.171.127-.171" transform="translate(-143.531 -141.215)" fill="#263238"/>
            <path id="Trazado_227402" data-name="Trazado 227402" d="M335.013,320.008a1.3,1.3,0,0,1-.09-.28l-.209-.815c-.183-.74-.434-1.759-.741-3-.626-2.536-1.51-6.035-2.549-9.882s-2.042-7.316-2.78-9.822l-.874-2.968-.23-.81a1.293,1.293,0,0,1-.064-.288,1.341,1.341,0,0,1,.112.273l.274.8c.234.692.559,1.7.95,2.946.781,2.494,1.809,5.957,2.851,9.808s1.9,7.359,2.48,9.907c.291,1.274.518,2.307.665,3.023.067.337.122.611.164.826a1.309,1.309,0,0,1,.041.291" transform="translate(-171.33 -152.843)" fill="#fff"/>
            <path id="Trazado_227403" data-name="Trazado 227403" d="M324.921,335.789c-.068.012-1.392-6.9-2.959-15.438s-2.782-15.472-2.714-15.485,1.392,6.9,2.959,15.44,2.782,15.471,2.715,15.483" transform="translate(-167.025 -159.501)" fill="#fff"/>
            <path id="Trazado_227404" data-name="Trazado 227404" d="M264.826,284.777c.039.057-2.286,1.706-5.192,3.682s-5.294,3.534-5.333,3.477,2.286-1.705,5.193-3.682,5.293-3.534,5.332-3.477" transform="translate(-133.047 -148.991)" fill="#fff"/>
            <path id="Trazado_227405" data-name="Trazado 227405" d="M262.3,297.839a1.925,1.925,0,0,1-.343.361c-.231.221-.573.533-1,.911-.856.758-2.061,1.778-3.425,2.864s-2.632,2.03-3.562,2.694c-.465.332-.846.6-1.113.771a.25.25,0,1,1-.057-.078l1.065-.833c.9-.7,2.15-1.664,3.512-2.747s2.583-2.081,3.467-2.8l1.051-.851a1.928,1.928,0,0,1,.406-.288" transform="translate(-132.065 -155.824)" fill="#fff"/>
            <path id="Trazado_227406" data-name="Trazado 227406" d="M243.482,288.425c-.055.041-1.714-2.136-3.7-4.861s-3.559-4.968-3.5-5.008,1.714,2.136,3.7,4.862,3.559,4.967,3.5,5.007" transform="translate(-123.615 -145.736)" fill="#fff"/>
            <path id="Trazado_227407" data-name="Trazado 227407" d="M244.266,310.409a4.548,4.548,0,0,1-.846-.733c-.5-.481-1.153-1.174-1.834-1.979s-1.253-1.571-1.644-2.14a4.552,4.552,0,0,1-.58-.957,5.625,5.625,0,0,1,.721.853c.426.54,1.017,1.283,1.693,2.084s1.309,1.507,1.77,2.018a5.641,5.641,0,0,1,.72.854" transform="translate(-125.229 -159.361)" fill="#fff"/>
            <path id="Trazado_227408" data-name="Trazado 227408" d="M332.139,216.572a9.012,9.012,0,0,1-1.171-.791l-2.757-2c-1.072-.787-2.034-1.512-2.716-2.057a7.16,7.16,0,0,1-1.065-.93,8.964,8.964,0,0,1,1.171.79l2.757,2c1.072.787,2.034,1.512,2.715,2.057a7.137,7.137,0,0,1,1.065.931" transform="translate(-169.737 -110.286)" fill="#fff"/>
            <path id="Trazado_227409" data-name="Trazado 227409" d="M337.771,210.469a77.091,77.091,0,0,1-6.731-5.585,77.131,77.131,0,0,1,6.731,5.585" transform="translate(-173.195 -107.191)" fill="#fff"/>
            <path id="Trazado_227410" data-name="Trazado 227410" d="M292.67,280.006c.067.013-.783,4.75-1.9,10.578s-2.077,10.545-2.144,10.532.783-4.749,1.9-10.579,2.077-10.544,2.144-10.531" transform="translate(-151.004 -146.495)" fill="#fff"/>
            <path id="Trazado_227411" data-name="Trazado 227411" d="M313.554,345.595a1.611,1.611,0,0,1-.414-.194c-.26-.136-.625-.355-1.064-.643a20.542,20.542,0,0,1-5.775-5.773c-.288-.439-.507-.8-.644-1.063a1.631,1.631,0,0,1-.194-.415c.035-.02.374.532.982,1.378a24.736,24.736,0,0,0,5.729,5.728c.847.608,1.4.947,1.378.982" transform="translate(-159.813 -176.578)" fill="#263238"/>
            <path id="Trazado_227412" data-name="Trazado 227412" d="M313.43,334.2a5.508,5.508,0,0,1-1.354.246,16.072,16.072,0,0,1-6.573-.7,5.5,5.5,0,0,1-1.272-.525,11.934,11.934,0,0,1,1.322.357,20.139,20.139,0,0,0,6.509.69,11.989,11.989,0,0,1,1.367-.072" transform="translate(-159.169 -174.334)" fill="#263238"/>
            <path id="Trazado_227413" data-name="Trazado 227413" d="M243.512,240.208a.415.415,0,0,1-.035.114l-.125.324c-.107.286-.289.7-.531,1.225-.487,1.054-1.3,2.524-2.359,4.306a39.274,39.274,0,0,0-3.281,6.458q-.087.24-.173.484l-.14.5-.279,1.019a7.073,7.073,0,0,0-.222,1.055q-.09.538-.182,1.085c-.086.735-.132,1.489-.177,2.252q0,.574,0,1.157a11.494,11.494,0,0,0,.037,1.172,74.2,74.2,0,0,0,1.223,8.8,62.855,62.855,0,0,1,.981,7.217c.1,1.034.049,1.976.062,2.8-.063.823-.1,1.533-.175,2.108-.1.556-.177,1-.234,1.316-.027.137-.049.249-.067.34a.426.426,0,0,1-.031.114.435.435,0,0,1,.006-.119l.042-.345c.045-.321.108-.761.187-1.318.057-.575.082-1.282.133-2.1-.027-.82.009-1.756-.1-2.785a66.265,66.265,0,0,0-1.031-7.188,71.749,71.749,0,0,1-1.246-8.833,11.673,11.673,0,0,1-.037-1.182c0-.391,0-.781,0-1.167.046-.771.093-1.534.183-2.277q.094-.554.187-1.1a7.2,7.2,0,0,1,.228-1.067l.287-1.032.144-.505.177-.488a38.217,38.217,0,0,1,3.346-6.47c1.075-1.77,1.911-3.22,2.423-4.258.255-.519.45-.923.572-1.2l.147-.315a.475.475,0,0,1,.058-.1" transform="translate(-123.346 -125.673)" fill="#263238"/>
            <path id="Trazado_227414" data-name="Trazado 227414" d="M271.943,199.2a.424.424,0,0,1-.059.1l-.192.279c-.169.246-.439.593-.8,1.033-.717.881-1.811,2.112-3.187,3.624l-2.243,2.49c-.8.905-1.652,1.878-2.454,2.974a19.332,19.332,0,0,0-3.085,8.255l-.234-.07a13.778,13.778,0,0,1,1.34-2.071c.257-.351.512-.7.752-1.051.12-.176.236-.353.345-.533l.157-.272.072-.138.035-.069.018-.034c.009-.013-.009.007.029-.046a.144.144,0,0,1,.131-.045.146.146,0,0,1,.1.077l.01.026.014.038.029.076.057.152a2.088,2.088,0,0,1,.1.308,4.564,4.564,0,0,1,.138.627,6.834,6.834,0,0,1,.082,1.258,25.206,25.206,0,0,1-.782,4.68c-.558,2.977-1.577,5.521-2.183,7.709a19.864,19.864,0,0,0-.884,5.291,13.406,13.406,0,0,0,.067,1.461l.043.379a.5.5,0,0,1,.007.131,8.679,8.679,0,0,1-.215-1.97,19.138,19.138,0,0,1,.812-5.339c.589-2.209,1.586-4.745,2.129-7.709a25.388,25.388,0,0,0,.763-4.637,6.574,6.574,0,0,0-.081-1.214,4.219,4.219,0,0,0-.133-.6,1.916,1.916,0,0,0-.095-.292l-.054-.144-.027-.072-.013-.036,0-.009c.04-.021-.1.033.089-.048h0v0c-.081-.039.115.054.092.049l0,.009-.019.036-.037.072-.075.145-.163.281q-.169.278-.352.545c-.244.358-.5.707-.757,1.058a13.67,13.67,0,0,0-1.316,2.028l-.355.743.121-.813a19.405,19.405,0,0,1,3.15-8.349c.818-1.106,1.681-2.074,2.486-2.976s1.572-1.722,2.268-2.471c1.392-1.5,2.5-2.709,3.24-3.57.368-.43.649-.767.83-1l.21-.265a.434.434,0,0,1,.078-.086" transform="translate(-135.587 -104.221)" fill="#263238"/>
            <path id="Trazado_227415" data-name="Trazado 227415" d="M288.046,341.924c.006-.006.064.051.167.163l.443.5a9.587,9.587,0,0,1,.664.822c.244.332.541.7.813,1.141.287.433.6.911.885,1.45.314.525.586,1.119.886,1.738a23.87,23.87,0,0,1,2.118,8.641c.02.687.053,1.34.018,1.951-.006.612-.06,1.179-.113,1.7-.037.519-.131.98-.193,1.388a9.668,9.668,0,0,1-.209,1.036c-.065.258-.118.472-.162.648a.792.792,0,0,1-.073.221.861.861,0,0,1,.024-.233l.116-.656c.057-.283.121-.63.166-1.038s.131-.867.155-1.382c.042-.514.086-1.077.082-1.683.027-.606-.014-1.253-.04-1.933a24.8,24.8,0,0,0-2.1-8.56c-.292-.616-.555-1.207-.859-1.732-.278-.539-.576-1.018-.851-1.454s-.546-.816-.778-1.154-.446-.619-.627-.843l-.406-.528a.844.844,0,0,1-.129-.2" transform="translate(-150.701 -178.889)" fill="#263238"/>
            <path id="Trazado_227416" data-name="Trazado 227416" d="M299.37,282.027a4.47,4.47,0,0,1-.721-.243l-1.942-.715c-1.643-.592-3.934-1.35-6.508-2.035s-4.942-1.16-6.662-1.461l-2.04-.343a4.434,4.434,0,0,1-.747-.147,4.422,4.422,0,0,1,.76.051c.487.047,1.19.136,2.056.266a63.08,63.08,0,0,1,13.2,3.505c.816.317,1.471.588,1.917.79a4.493,4.493,0,0,1,.685.332" transform="translate(-146.885 -144.963)" fill="#263238"/>
            <g id="Grupo_179239" data-name="Grupo 179239" transform="translate(141.687 162.002)" opacity="0.3">
              <g id="Grupo_179238" data-name="Grupo 179238">
                <g id="Grupo_179237" data-name="Grupo 179237" clip-path="url(#clip-path-5)">
                  <path id="Trazado_227417" data-name="Trazado 227417" d="M305.371,348.448a6.53,6.53,0,0,0-1.345-1.718l-6.848-6.971-.023.515c1.525,1.034,1.849,3.13,2.286,4.92s.818,3.7,2.065,5.058a3.3,3.3,0,0,0,1.892,1.094,2,2,0,0,0,1.953-.8,2.211,2.211,0,0,0,.021-2.1" transform="translate(-297.154 -339.759)"/>
                </g>
              </g>
            </g>
            <g id="Grupo_179242" data-name="Grupo 179242" transform="translate(130.686 148.194)" opacity="0.3">
              <g id="Grupo_179241" data-name="Grupo 179241">
                <g id="Grupo_179240" data-name="Grupo 179240" clip-path="url(#clip-path-6)">
                  <path id="Trazado_227418" data-name="Trazado 227418" d="M283.889,316.764a3.152,3.152,0,0,1-4.112-.767l-5.7-5.2c1.63,2.4,2.936,4.829,4.566,7.228a3.788,3.788,0,0,0,1.656,1.6,3.474,3.474,0,0,0,2.388-.26,20.263,20.263,0,0,0,7.261-4.8l-6.065,2.2" transform="translate(-274.082 -310.8)"/>
                </g>
              </g>
            </g>
            <g id="Grupo_179245" data-name="Grupo 179245" transform="translate(133.336 104.837)" opacity="0.3">
              <g id="Grupo_179244" data-name="Grupo 179244">
                <g id="Grupo_179243" data-name="Grupo 179243" clip-path="url(#clip-path-7)">
                  <path id="Trazado_227419" data-name="Trazado 227419" d="M279.64,239.743c5.326-2.555,7.243-9.637,12.528-12.276a9.518,9.518,0,0,1,9.6.772c.915.658,1.931,1.537,3.015,1.226.819-.235,1.292-1.067,1.68-1.826l3.967-7.77L305.23,226a2.847,2.847,0,0,1-1.348,1.051c-1.048.269-1.806-.9-2.774-1.388-3.018-1.5-5.131-3.4-6.813-2.126,0,0-2.929,2.017-4.105,2.228L279.64,239.54" transform="translate(-279.64 -219.869)"/>
                </g>
              </g>
            </g>
            <g id="Grupo_179248" data-name="Grupo 179248" transform="translate(124.11 95.948)" opacity="0.3">
              <g id="Grupo_179247" data-name="Grupo 179247">
                <g id="Grupo_179246" data-name="Grupo 179246" clip-path="url(#clip-path-8)">
                  <path id="Trazado_227420" data-name="Trazado 227420" d="M260.449,235.175a12.436,12.436,0,0,1,1.05-7.119,43.576,43.576,0,0,0,2.781-6.59,13.1,13.1,0,0,0,.194-5.657,6.776,6.776,0,0,1-.229-2.642,4.987,4.987,0,0,1,.718-1.547,34.393,34.393,0,0,1,4.155-5.385l3.325-5.006s.144,5.814.035,6.365a37.608,37.608,0,0,1-1.451,5.07,40.42,40.42,0,0,1-3.778,7.727,61.251,61.251,0,0,0-4.688,8.8Z" transform="translate(-260.291 -201.229)"/>
                </g>
              </g>
            </g>
            <path id="Trazado_227421" data-name="Trazado 227421" d="M283.455,151.156c-6.757-1.595-8.833-4.955-8.914-10.9l-.1-7.559s-7.479-.389-9.223-11.529a110.829,110.829,0,0,1-1.138-21.916c.436-6.68,7.377-18.46,14.032-17.741L296.388,90.4a3.917,3.917,0,0,1,3.5,3.98l-1.419,43.186" transform="translate(-138.082 -42.629)" fill="#efbda8"/>
            <path id="Trazado_227422" data-name="Trazado 227422" d="M270.236,134.512a1.429,1.429,0,0,0,1.374,1.444,1.366,1.366,0,0,0,1.475-1.285,1.429,1.429,0,0,0-1.372-1.445,1.367,1.367,0,0,0-1.477,1.285" transform="translate(-141.383 -69.701)" fill="#263238"/>
            <path id="Trazado_227423" data-name="Trazado 227423" d="M268.357,129.127c.154.138,1.278-.016,2.77.352s2.513,1.029,2.693.973c.087-.023-.057-.239-.5-.539a6.852,6.852,0,0,0-2.135-.9,6.117,6.117,0,0,0-2.226-.161c-.492.073-.678.208-.6.272" transform="translate(-140.392 -67.393)" fill="#263238"/>
            <path id="Trazado_227424" data-name="Trazado 227424" d="M300.241,135.41a1.429,1.429,0,0,0,1.374,1.444,1.367,1.367,0,0,0,1.475-1.285,1.429,1.429,0,0,0-1.373-1.445,1.366,1.366,0,0,0-1.476,1.285" transform="translate(-157.081 -70.171)" fill="#263238"/>
            <path id="Trazado_227425" data-name="Trazado 227425" d="M300.08,129.9c.221.055,1.209-.7,2.822-1.129s2.94-.309,3.08-.462c.07-.07-.18-.21-.764-.274a7.126,7.126,0,0,0-2.508.24,6.372,6.372,0,0,0-2.2,1.03c-.427.338-.534.573-.427.6" transform="translate(-156.977 -66.972)" fill="#263238"/>
            <path id="Trazado_227426" data-name="Trazado 227426" d="M283.99,139.17a10.165,10.165,0,0,0-2.5-.456c-.392-.041-.763-.12-.829-.388a2,2,0,0,1,.265-1.162l1.167-2.986c1.621-4.251,2.8-7.747,2.624-7.811s-1.625,3.33-3.247,7.581q-.585,1.572-1.118,3a2.268,2.268,0,0,0-.207,1.54.985.985,0,0,0,.644.576,2.651,2.651,0,0,0,.666.094,10,10,0,0,0,2.53.009" transform="translate(-146.532 -66.113)" fill="#263238"/>
            <path id="Trazado_227427" data-name="Trazado 227427" d="M285.974,184.8A28.33,28.33,0,0,0,300.9,180.85s-3.78,7.851-14.923,6.785Z" transform="translate(-149.617 -94.618)" fill="#d1967c"/>
            <path id="Trazado_227428" data-name="Trazado 227428" d="M288.533,158.91a4.1,4.1,0,0,1,2.953-1.952,1.76,1.76,0,0,1,1.731.965,2.786,2.786,0,0,1-.247,2.555,2.352,2.352,0,0,1-2.329,1.126,3.937,3.937,0,0,1-1.923-1.253,1.381,1.381,0,0,1-.39-.551.946.946,0,0,1,.122-.806" transform="translate(-150.828 -82.117)" fill="#d1967c"/>
            <path id="Trazado_227429" data-name="Trazado 227429" d="M292.38,155.469c-.25-.015-.257,1.653-1.687,2.834s-3.206.994-3.219,1.227c-.024.1.4.325,1.145.347a4.156,4.156,0,0,0,2.687-.93,3.62,3.62,0,0,0,1.308-2.376c.065-.7-.12-1.111-.234-1.1" transform="translate(-150.402 -81.339)" fill="#263238"/>
            <path id="Trazado_227430" data-name="Trazado 227430" d="M297.482,116.279c.192.4,1.7.053,3.515.093,1.817,0,3.315.385,3.516-.011.089-.189-.2-.555-.827-.9a6.113,6.113,0,0,0-5.358-.062c-.632.33-.932.689-.847.881" transform="translate(-155.631 -60.067)" fill="#263238"/>
            <path id="Trazado_227431" data-name="Trazado 227431" d="M267.337,120.619c.337.348,1.651-.016,3.233-.036,1.581-.065,2.921.229,3.229-.136.135-.177-.077-.527-.663-.856a5.3,5.3,0,0,0-2.629-.567,5.2,5.2,0,0,0-2.577.706c-.558.36-.741.72-.593.89" transform="translate(-139.841 -62.27)" fill="#263238"/>
            <path id="Trazado_227432" data-name="Trazado 227432" d="M328.2,138.581c-2.429-3.926-4.411-13.7-5.256-18.66s-3.472-20.849-7.7-29.2-9.2-11.731-14.077-13.045a11.221,11.221,0,0,0-10.745,2.44c-2.2,1.971-2.956,7.708-2.956,7.708s11.772,2.618,15.737,9.33c4.555,7.711,5.658,11.59,5.658,11.59l1.474,4.218s-1.379,8.164-1.887,12.2.3,7.784,3.623,9.421l6.681,4.722s8.735,5.936,9.137,6.243c1.863,1.423,5.518,6.851,5.518,6.851s-.251-5.8-5.213-13.818" transform="translate(-150.402 -40.402)" fill="#263238"/>
            <path id="Trazado_227433" data-name="Trazado 227433" d="M273.715,88.979s-6.731-.729-9.218,6.872c-1.125,3.439-1.983,13.372-1.983,13.372s-.985-7.885-.622-12.388,2.61-10.193,6.06-13.345c3.355-3.065,6.184-4.5,12.184-4.14a9.628,9.628,0,0,0-4.329,3.238c-.769,1.14-1.1,2.111-2.091,6.39" transform="translate(-136.976 -41.486)" fill="#263238"/>
            <path id="Trazado_227434" data-name="Trazado 227434" d="M331.809,140.944a3.379,3.379,0,0,1,4.944-2.875c1.173.678,2.07,2.041,1.962,4.658-.288,6.978-7.233,5.25-7.238,5.049,0-.124.187-3.946.331-6.832" transform="translate(-173.424 -72.016)" fill="#efbda8"/>
            <path id="Trazado_227435" data-name="Trazado 227435" d="M336.169,147.529c.031-.021.118.091.32.193a1.215,1.215,0,0,0,.907.056,3.011,3.011,0,0,0,1.5-2.641,4.018,4.018,0,0,0-.269-1.755,1.406,1.406,0,0,0-.876-.971.62.62,0,0,0-.731.3c-.1.191-.063.333-.1.343-.02.017-.145-.123-.077-.409a.776.776,0,0,1,.292-.426.919.919,0,0,1,.679-.15,1.709,1.709,0,0,1,1.225,1.134,4.126,4.126,0,0,1,.341,1.962c-.1,1.4-.876,2.69-1.9,2.94a1.3,1.3,0,0,1-1.1-.23c-.209-.181-.24-.339-.215-.35" transform="translate(-175.875 -74.325)" fill="#d1967c"/>
            <path id="Trazado_227436" data-name="Trazado 227436" d="M298.37,77.2c0,.051-.957.024-2.473.225a8.574,8.574,0,0,0-2.547.761,8.4,8.4,0,0,0-2.556,1.991,12.948,12.948,0,0,0-2.828,5.183c-.405,1.476-.454,2.435-.5,2.428a3.114,3.114,0,0,1,.022-.67,12.456,12.456,0,0,1,3.124-7.107,7.917,7.917,0,0,1,5.264-2.76,14.342,14.342,0,0,1,1.827-.089,3.209,3.209,0,0,1,.669.038" transform="translate(-150.392 -40.371)" fill="#455a64"/>
            <path id="Trazado_227437" data-name="Trazado 227437" d="M315.837,122.835a.384.384,0,0,1,.012-.113l.061-.327q.044-.224.1-.529l.1-.728a16.778,16.778,0,0,0-2.478-11.093,18.826,18.826,0,0,0-6.125-5.753,34.98,34.98,0,0,0-3.9-2.039c-1.294-.595-2.587-1.058-3.789-1.6a45.224,45.224,0,0,1-6.08-3.418c-1.655-1.1-2.943-2.059-3.817-2.743-.436-.343-.772-.612-1-.8l-.253-.216c-.056-.05-.083-.077-.081-.08a.4.4,0,0,1,.1.06l.268.2,1.023.764c.891.658,2.193,1.6,3.855,2.672a47.027,47.027,0,0,0,6.078,3.357c1.189.532,2.493.994,3.794,1.588a34.653,34.653,0,0,1,3.927,2.049,18.864,18.864,0,0,1,6.187,5.841,16.588,16.588,0,0,1,2.4,6.53,15.924,15.924,0,0,1-.015,4.7l-.128.728-.128.526-.084.322a.382.382,0,0,1-.037.107" transform="translate(-150.993 -48.863)" fill="#455a64"/>
            <path id="Trazado_227438" data-name="Trazado 227438" d="M320.3,115.423a.4.4,0,0,1-.008-.114c0-.09,0-.2,0-.334,0-.293.033-.724.022-1.28a26.887,26.887,0,0,0-.455-4.675,27.21,27.21,0,0,0-2.159-6.6,26.213,26.213,0,0,0-4.875-6.946,30.929,30.929,0,0,0-6.826-5.075c-2.282-1.3-4.43-2.312-6.218-3.185s-3.241-1.577-4.225-2.1c-.495-.255-.87-.471-1.127-.613l-.289-.166a.4.4,0,0,1-.094-.064.391.391,0,0,1,.107.042l.3.145,1.148.571c1,.5,2.452,1.184,4.257,2.028s3.957,1.846,6.255,3.145a30.645,30.645,0,0,1,6.89,5.1,26.04,26.04,0,0,1,4.9,7.023,26.758,26.758,0,0,1,2.127,6.67,24.98,24.98,0,0,1,.378,4.707c0,.558-.053.989-.069,1.282-.01.134-.021.243-.027.333a.427.427,0,0,1-.018.113" transform="translate(-153.844 -44.087)" fill="#455a64"/>
            <path id="Trazado_227439" data-name="Trazado 227439" d="M346.217,179.253a.835.835,0,0,1-.107-.21l-.262-.622a10.623,10.623,0,0,1-.37-1c-.129-.4-.291-.843-.416-1.353q-.1-.382-.212-.8c-.068-.278-.123-.571-.189-.873-.14-.6-.229-1.256-.341-1.941a41.029,41.029,0,0,1-.341-4.5,69.846,69.846,0,0,1,.407-8.175c.106-1.041.2-1.883.279-2.463.037-.267.067-.487.092-.668a.86.86,0,0,1,.049-.231.892.892,0,0,1,0,.237l-.045.673c-.051.621-.118,1.456-.2,2.469-.164,2.084-.387,4.967-.334,8.155a44.347,44.347,0,0,0,.319,4.473c.1.681.185,1.332.316,1.931.061.3.111.593.174.87s.133.541.2.795c.113.51.263.957.379,1.355s.228.738.329,1.011l.218.637a.845.845,0,0,1,.06.229" transform="translate(-179.961 -81.836)" fill="#455a64"/>
            <path id="Trazado_227440" data-name="Trazado 227440" d="M163.553,338.638s7.583,9.725,10.3,10.5,13.012,3.313,13.012,3.313l33.784,7.81-3.979-14.481-31.992-.437Z" transform="translate(-85.569 -177.171)" fill="#efbda8"/>
            <path id="Trazado_227441" data-name="Trazado 227441" d="M72.4,233.669c2.533,6.279,15.293,35.008,18.251,41.659a3.352,3.352,0,0,0,2.051,1.833l40.157,12.748,39.842,2.978v-1.313l-32.211-9.759-10.174-1.192L115.12,242.946a5.433,5.433,0,0,0-4.059-3.312l-37.866-6.94a.719.719,0,0,0-.8.975" transform="translate(-37.848 -121.736)" fill="#455a64"/>
            <path id="Trazado_227442" data-name="Trazado 227442" d="M235.646,342.559a.486.486,0,0,1-.127,0l-.37-.028-1.422-.129-5.223-.523-7.743-.807-9.485-.952c-3.365-.333-6.575-.586-9.5-.752l-4.154-.262a7.042,7.042,0,0,1-.966-.122,2.088,2.088,0,0,1-.466-.151.824.824,0,0,1-.362-.351,15.378,15.378,0,0,1-.657-1.628l-1.856-4.909-.493-1.339-.123-.351a.064.064,0,1,1,.024-.009l.145.342.536,1.323,1.931,4.882a15.708,15.708,0,0,0,.655,1.589.628.628,0,0,0,.284.276,1.946,1.946,0,0,0,.422.131,6.947,6.947,0,0,0,.938.111c1.3.06,2.69.155,4.153.238,2.928.154,6.145.4,9.512.733l9.483.972,7.739.86,5.215.6,1.417.176.368.052a.491.491,0,0,1,.124.026" transform="translate(-100.8 -172.72)" fill="#263238"/>
            <path id="Trazado_227443" data-name="Trazado 227443" d="M214.869,326.544s.577-3.788,0-4.533-4.637-4.4-4.637-4.4l-2.3-2.165-5.079-.777a1.55,1.55,0,0,0-1.55.713l-.521.836-1.376-.231-1.218-1.759h-3.383l-2.5,2.706v3.654a.69.69,0,0,0,1.218.27c.88-.744.934-2.8.934-2.8l1.5,1.382-1.595,4.874s1.121,1.017,1.934,0,1.962-2.505,1.962-2.505,1.353,3.652,3.653,4.735,7.848,2.071,9,1.814,3.742.212,3.96-1.814" transform="translate(-100.61 -164.401)" fill="#efbda8"/>
            <path id="Trazado_227444" data-name="Trazado 227444" d="M212.7,319.944s-.018.057-.092.136a1.027,1.027,0,0,1-.4.255,2.017,2.017,0,0,1-.739.1c-.292,0-.614-.072-.963-.105a1.687,1.687,0,0,0-1.072.168,4.978,4.978,0,0,0-.889.956,4.024,4.024,0,0,1-2.714,1.476,2.557,2.557,0,0,1-2.264-1.052l-.051-.079.064-.067a25.928,25.928,0,0,0,2.455-2.995c.55-.783.845-1.266.872-1.251a1.539,1.539,0,0,1-.173.366c-.125.23-.318.561-.578.966a21.774,21.774,0,0,1-2.406,3.075l.012-.146a2.341,2.341,0,0,0,2.057.934,3.855,3.855,0,0,0,2.554-1.38,4.861,4.861,0,0,1,.953-.98,1.845,1.845,0,0,1,1.2-.166c.361.047.674.125.95.141a2.053,2.053,0,0,0,.7-.056,1.494,1.494,0,0,0,.52-.3" transform="translate(-106.48 -166.105)" fill="#d1967c"/>
            <path id="Trazado_227445" data-name="Trazado 227445" d="M227.406,329.9c-.028.006-.056-.214-.208-.573a5.514,5.514,0,0,0-.879-1.388c-.439-.545-1.042-1.135-1.59-1.912a4.113,4.113,0,0,1-.632-1.358,3.227,3.227,0,0,1,.027-1.613,3.924,3.924,0,0,1,.727-1.438,1.7,1.7,0,0,1,.611-.512.9.9,0,0,1,.791.023,1.823,1.823,0,0,1,.808,1.109,5.1,5.1,0,0,0,.451,1.04,4.442,4.442,0,0,0,1.078,1.228c.307.242.5.345.49.364a1.733,1.733,0,0,1-.547-.286,4.138,4.138,0,0,1-1.171-1.215,5.056,5.056,0,0,1-.494-1.06,1.636,1.636,0,0,0-.717-.975.667.667,0,0,0-.592-.012,1.48,1.48,0,0,0-.517.447,3.728,3.728,0,0,0-.678,1.35,3.021,3.021,0,0,0-.031,1.494,3.962,3.962,0,0,0,.585,1.286c.519.757,1.11,1.363,1.538,1.93a5,5,0,0,1,.832,1.464,2.079,2.079,0,0,1,.107.447c.015.1.02.158.011.16" transform="translate(-117.197 -167.957)" fill="#d1967c"/>
            <path id="Trazado_227446" data-name="Trazado 227446" d="M201.067,319.926a1.075,1.075,0,0,0-.733.3,4.97,4.97,0,0,0-.909,1.8c-.274.761-.512,1.458-.71,1.954a2.449,2.449,0,0,1-.385.778,3.968,3.968,0,0,1,.219-.835c.154-.508.367-1.213.643-1.981a4.324,4.324,0,0,1,1.025-1.842.953.953,0,0,1,.617-.241c.161.005.238.057.233.07" transform="translate(-103.76 -167.344)" fill="#d1967c"/>
            <path id="Trazado_227447" data-name="Trazado 227447" d="M200.637,319.009c0,.026-.208.073-.557.028a2.553,2.553,0,0,1-1.274-.565h.158l-.312.268a10.888,10.888,0,0,1-1.841,1.405,10.892,10.892,0,0,1,1.68-1.594l.315-.266.08-.067.078.067a2.883,2.883,0,0,0,1.146.595c.32.084.526.095.526.129" transform="translate(-102.968 -166.487)" fill="#d1967c"/>
            <path id="Trazado_227448" data-name="Trazado 227448" d="M216.109,333a2.758,2.758,0,0,1,.36-.863,10.047,10.047,0,0,1,2.959-3.368,2.786,2.786,0,0,1,.81-.468,16.249,16.249,0,0,0-4.128,4.7" transform="translate(-113.063 -171.762)" fill="#d1967c"/>
            <path id="Trazado_227449" data-name="Trazado 227449" d="M156.071,248.544a.591.591,0,0,1,.062.123l.16.371.59,1.434,2.129,5.292,6.936,17.493,6.869,17.523,2.055,5.321.547,1.451.136.38a.582.582,0,0,1,.039.133.589.589,0,0,1-.062-.123l-.16-.37-.59-1.434-2.129-5.292-6.937-17.5-6.869-17.521-2.055-5.321-.547-1.451-.136-.38a.581.581,0,0,1-.039-.133" transform="translate(-81.654 -130.035)" fill="#263238"/>
            <path id="Trazado_227450" data-name="Trazado 227450" d="M133.18,284.137c1.013,1.4,1,3.138-.025,3.881s-2.681.209-3.693-1.192-1-3.138.025-3.881,2.681-.209,3.693,1.192" transform="translate(-67.339 -147.858)" fill="#fff"/>
          </g>
        </g>
        <g id="Grupo_179252" data-name="Grupo 179252">
          <g id="Grupo_179251" data-name="Grupo 179251" clip-path="url(#clip-path)">
            <path id="Trazado_227451" data-name="Trazado 227451" d="M97.524,144.909H3.751A3.751,3.751,0,0,1,0,141.158V85.891A3.751,3.751,0,0,1,3.751,82.14H97.524a3.751,3.751,0,0,1,3.751,3.751v55.267a3.751,3.751,0,0,1-3.751,3.751" transform="translate(0 -42.974)" fill="#263238"/>
            <path id="Trazado_227452" data-name="Trazado 227452" d="M105.45,141.286a7.715,7.715,0,1,1-7.715-7.715,7.715,7.715,0,0,1,7.715,7.715" transform="translate(-47.098 -69.882)" fill="#eeac3a"/>
            <path id="Trazado_227453" data-name="Trazado 227453" d="M102.3,149.171v-4.552a.29.29,0,0,1,.432-.253l4.068,2.293a.29.29,0,0,1,0,.506l-4.068,2.258a.29.29,0,0,1-.431-.253" transform="translate(-53.522 -75.511)" fill="#fff"/>
            <path id="Trazado_227454" data-name="Trazado 227454" d="M11.261,197.688v.163H10.5v-.129l.411-.39c.1-.1.118-.156.118-.214,0-.094-.065-.149-.192-.149a.291.291,0,0,0-.242.108l-.134-.1a.477.477,0,0,1,.393-.171c.225,0,.37.113.37.3a.414.414,0,0,1-.172.327l-.276.263Z" transform="translate(-5.472 -102.964)" fill="#fff"/>
            <path id="Trazado_227455" data-name="Trazado 227455" d="M12.359,197.451a.121.121,0,1,1,.242,0,.121.121,0,1,1-.242,0m0,.563a.121.121,0,1,1,.242,0,.121.121,0,1,1-.242,0" transform="translate(-6.466 -103.239)" fill="#fff"/>
            <path id="Trazado_227456" data-name="Trazado 227456" d="M13.425,196.832v1.034h-.192v-.873h-.219v-.161Z" transform="translate(-6.809 -102.98)" fill="#fff"/>
            <path id="Trazado_227457" data-name="Trazado 227457" d="M15.21,197.632h-.183v.235h-.186v-.235h-.567V197.5l.51-.666h.205l-.48.637h.339v-.208h.18v.208h.183Z" transform="translate(-7.468 -102.98)" fill="#fff"/>
            <rect id="Rectángulo_57464" data-name="Rectángulo 57464" width="78.435" height="0.358" transform="translate(9.431 94.238)" fill="#fff"/>
            <rect id="Rectángulo_57465" data-name="Rectángulo 57465" width="24.511" height="0.954" transform="translate(9.373 93.853)" fill="#eeac3a"/>
            <path id="Trazado_227458" data-name="Trazado 227458" d="M70.1,196.707a1.193,1.193,0,1,1-1.193-1.193,1.194,1.194,0,0,1,1.193,1.193" transform="translate(-35.428 -102.29)" fill="#eeac3a"/>
            <path id="Trazado_227459" data-name="Trazado 227459" d="M187.516,197.194a.345.345,0,0,1-.378.336c-.282,0-.447-.182-.447-.514a.489.489,0,0,1,.506-.549.517.517,0,0,1,.272.066l-.071.145a.355.355,0,0,0-.2-.05c-.195,0-.318.121-.318.356h0a.354.354,0,0,1,.277-.108.323.323,0,0,1,.356.317m-.186.009c0-.108-.081-.175-.207-.175a.188.188,0,0,0-.21.177c0,.1.077.175.215.175a.179.179,0,0,0,.2-.176" transform="translate(-97.674 -102.788)" fill="#fff"/>
            <path id="Trazado_227460" data-name="Trazado 227460" d="M188.618,197.115a.121.121,0,1,1,.242,0,.121.121,0,1,1-.242,0m0,.563a.121.121,0,1,1,.242,0,.121.121,0,1,1-.242,0" transform="translate(-98.682 -103.063)" fill="#fff"/>
            <path id="Trazado_227461" data-name="Trazado 227461" d="M189.385,197c0-.339.186-.532.431-.532s.433.192.433.532-.186.532-.433.532-.431-.192-.431-.532m.67,0c0-.249-.1-.365-.239-.365s-.238.115-.238.365.1.365.238.365.239-.115.239-.365" transform="translate(-99.084 -102.788)" fill="#fff"/>
            <path id="Trazado_227462" data-name="Trazado 227462" d="M191.467,197c0-.339.186-.532.431-.532s.433.192.433.532-.186.532-.433.532-.431-.192-.431-.532m.67,0c0-.249-.1-.365-.239-.365s-.238.115-.238.365.1.365.238.365.239-.115.239-.365" transform="translate(-100.173 -102.788)" fill="#fff"/>
            <path id="Trazado_227463" data-name="Trazado 227463" d="M196.39,196.315h-.358v-1.031h1.029v.358h-.671Z" transform="translate(-102.561 -102.17)" fill="#fff"/>
            <path id="Trazado_227464" data-name="Trazado 227464" d="M197.061,199.139H196.03V198.11h.358v.671h.673Z" transform="translate(-102.56 -103.648)" fill="#fff"/>
            <path id="Trazado_227465" data-name="Trazado 227465" d="M200.506,199.136h-1.029v-.358h.671V198.1h.358Z" transform="translate(-104.364 -103.646)" fill="#fff"/>
            <path id="Trazado_227466" data-name="Trazado 227466" d="M200.506,196.312h-.358v-.671h-.673v-.358h1.031Z" transform="translate(-104.362 -102.17)" fill="#fff"/>
            <path id="Trazado_227467" data-name="Trazado 227467" d="M173.522,94.827a2.626,2.626,0,0,1,.55-.048c.368-.018.914-.041,1.583-.052h.1v.1c.007.8.015,1.717.024,2.71l0,.3-.214-.214-.285-.284-.723-.727.167,0-1.133,1-.184.163,0-.243c.01-.835.035-1.527.055-2a3.9,3.9,0,0,1,.053-.712,6.2,6.2,0,0,1,.053.781c.02.479.045,1.141.055,1.929l-.181-.081,1.116-1.018.085-.078.082.082.727.723.284.284-.211.088c.009-.993.017-1.911.024-2.71l.1.1c-.625-.011-1.146-.034-1.521-.052a4.384,4.384,0,0,1-.612-.048" transform="translate(-90.726 -49.559)" fill="#fff"/>
            <path id="Trazado_227468" data-name="Trazado 227468" d="M186.392,95.494c.025-.01-.173.227-.528.661s-.88,1.073-1.517,1.79l-.205.231v-.31c0-.423,0-.875-.006-1.344V96.39l.038.09-.946-.92-.212-.206.295,0c.932.012,1.732.054,2.27.082s.837.043.813.053-.371.021-.923.043-1.3.055-2.161.056l.082-.2.955.91.038.036v.185c0,.469,0,.921-.006,1.344l-.206-.079c.6-.66,1.142-1.205,1.545-1.614s.651-.667.676-.679" transform="translate(-95.75 -49.888)" fill="#fff"/>
            <path id="Trazado_227469" data-name="Trazado 227469" d="M187.756,95.631a5.432,5.432,0,0,1-2.134.9,5.478,5.478,0,0,1,2.134-.9" transform="translate(-97.114 -50.025)" fill="#fff"/>
            <path id="Trazado_227470" data-name="Trazado 227470" d="M196.344,94.914a.688.688,0,0,1,.381,0,1.5,1.5,0,0,1,.89.543,1.59,1.59,0,0,1,.256,1.521,1.618,1.618,0,0,1-3.053,0,1.593,1.593,0,0,1,.256-1.521,1.506,1.506,0,0,1,.89-.543.688.688,0,0,1,.38,0,3.087,3.087,0,0,1-.357.094,1.514,1.514,0,0,0-.774.556,1.429,1.429,0,0,0-.18,1.337,1.4,1.4,0,0,0,2.622,0,1.428,1.428,0,0,0-.18-1.337,1.512,1.512,0,0,0-.774-.556,3.089,3.089,0,0,1-.357-.094" transform="translate(-101.878 -49.646)" fill="#fff"/>
            <path id="Trazado_227471" data-name="Trazado 227471" d="M198.354,97.731c-.048.048-.375-.2-.731-.555l-.037-.036v-.061c0-.507.056-.919.124-.919s.124.411.124.919v.009L197.8,97c.355.357.6.683.555.731" transform="translate(-103.374 -50.31)" fill="#fff"/>
            <path id="Trazado_227472" data-name="Trazado 227472" d="M70.171,99.111c0,.069-10.408.124-23.245.124s-23.247-.055-23.247-.124,10.406-.124,23.247-.124,23.245.055,23.245.124" transform="translate(-12.389 -51.789)" fill="#fff"/>
            <path id="Trazado_227473" data-name="Trazado 227473" d="M15.053,97.235A1.833,1.833,0,1,1,13.219,95.4a1.833,1.833,0,0,1,1.833,1.833" transform="translate(-5.957 -49.913)" fill="#fff"/>
            <path id="Trazado_227474" data-name="Trazado 227474" d="M523.839,346.7H430.066a3.751,3.751,0,0,1-3.751-3.751V287.68a3.751,3.751,0,0,1,3.751-3.751h93.773a3.751,3.751,0,0,1,3.751,3.751v55.267a3.751,3.751,0,0,1-3.751,3.751" transform="translate(-223.042 -148.548)" fill="#263238"/>
            <path id="Trazado_227475" data-name="Trazado 227475" d="M531.765,343.075a7.715,7.715,0,1,1-7.715-7.715,7.715,7.715,0,0,1,7.715,7.715" transform="translate(-270.14 -175.456)" fill="#4adbd1"/>
            <path id="Trazado_227476" data-name="Trazado 227476" d="M528.616,350.96v-4.552a.29.29,0,0,1,.432-.252l4.068,2.293a.29.29,0,0,1,0,.506l-4.068,2.258a.29.29,0,0,1-.431-.253" transform="translate(-276.564 -181.084)" fill="#fff"/>
            <path id="Trazado_227477" data-name="Trazado 227477" d="M437.576,399.477v.163h-.762v-.129l.411-.39c.1-.1.118-.156.118-.214,0-.095-.065-.149-.192-.149a.292.292,0,0,0-.242.108l-.134-.1a.478.478,0,0,1,.393-.171c.225,0,.37.113.37.3a.414.414,0,0,1-.172.327l-.276.263Z" transform="translate(-228.514 -208.537)" fill="#fff"/>
            <path id="Trazado_227478" data-name="Trazado 227478" d="M438.674,399.24a.121.121,0,1,1,.242,0,.121.121,0,1,1-.242,0m0,.563a.121.121,0,1,1,.242,0,.121.121,0,1,1-.242,0" transform="translate(-229.508 -208.812)" fill="#fff"/>
            <path id="Trazado_227479" data-name="Trazado 227479" d="M439.74,398.621v1.034h-.192v-.873h-.219v-.161Z" transform="translate(-229.851 -208.553)" fill="#fff"/>
            <path id="Trazado_227480" data-name="Trazado 227480" d="M441.525,399.421h-.183v.235h-.186v-.235h-.567v-.133l.509-.666h.206l-.48.637h.339v-.208h.18v.208h.183Z" transform="translate(-230.51 -208.553)" fill="#fff"/>
            <rect id="Rectángulo_57466" data-name="Rectángulo 57466" width="78.436" height="0.358" transform="translate(212.704 190.454)" fill="#fff"/>
            <rect id="Rectángulo_57467" data-name="Rectángulo 57467" width="24.511" height="0.954" transform="translate(212.646 190.069)" fill="#4adbd1"/>
            <path id="Trazado_227481" data-name="Trazado 227481" d="M496.418,398.5a1.193,1.193,0,1,1-1.194-1.193,1.194,1.194,0,0,1,1.194,1.193" transform="translate(-258.47 -207.863)" fill="#4adbd1"/>
            <path id="Trazado_227482" data-name="Trazado 227482" d="M613.831,398.983a.345.345,0,0,1-.378.336c-.282,0-.447-.182-.447-.514a.489.489,0,0,1,.506-.549.517.517,0,0,1,.272.066l-.071.144a.354.354,0,0,0-.2-.05c-.2,0-.318.121-.318.356h0a.352.352,0,0,1,.276-.108.323.323,0,0,1,.356.317m-.186.009c0-.108-.081-.175-.207-.175a.188.188,0,0,0-.21.177c0,.1.077.174.214.174a.18.18,0,0,0,.2-.176" transform="translate(-320.716 -208.361)" fill="#fff"/>
            <path id="Trazado_227483" data-name="Trazado 227483" d="M614.933,398.9a.121.121,0,1,1,.242,0,.121.121,0,1,1-.242,0m0,.563a.121.121,0,1,1,.242,0,.121.121,0,1,1-.242,0" transform="translate(-321.724 -208.636)" fill="#fff"/>
            <path id="Trazado_227484" data-name="Trazado 227484" d="M615.7,398.787c0-.339.186-.532.431-.532s.433.192.433.532-.186.532-.433.532-.431-.192-.431-.532m.67,0c0-.249-.1-.365-.239-.365s-.238.115-.238.365.1.365.238.365.239-.115.239-.365" transform="translate(-322.125 -208.361)" fill="#fff"/>
            <path id="Trazado_227485" data-name="Trazado 227485" d="M617.782,398.787c0-.339.186-.532.431-.532s.433.192.433.532-.186.532-.433.532-.431-.192-.431-.532m.67,0c0-.249-.1-.365-.239-.365s-.237.115-.237.365.1.365.237.365.239-.115.239-.365" transform="translate(-323.215 -208.361)" fill="#fff"/>
            <path id="Trazado_227486" data-name="Trazado 227486" d="M622.7,398.1h-.358v-1.031h1.029v.358H622.7Z" transform="translate(-325.603 -207.743)" fill="#fff"/>
            <path id="Trazado_227487" data-name="Trazado 227487" d="M623.375,400.928h-1.031V399.9h.358v.671h.673Z" transform="translate(-325.602 -209.221)" fill="#fff"/>
            <path id="Trazado_227488" data-name="Trazado 227488" d="M626.821,400.925h-1.029v-.358h.671v-.674h.358Z" transform="translate(-327.405 -209.219)" fill="#fff"/>
            <path id="Trazado_227489" data-name="Trazado 227489" d="M626.821,398.1h-.358v-.671h-.673v-.358h1.031Z" transform="translate(-327.404 -207.743)" fill="#fff"/>
            <path id="Trazado_227490" data-name="Trazado 227490" d="M599.837,296.616a2.626,2.626,0,0,1,.55-.048c.368-.018.914-.041,1.583-.052h.1v.1c.007.8.015,1.717.024,2.71l0,.3-.214-.214-.285-.284-.723-.727.167,0-1.133,1-.184.163,0-.243c.01-.835.035-1.527.055-2a3.952,3.952,0,0,1,.053-.712,6.082,6.082,0,0,1,.053.781c.021.479.045,1.142.055,1.929l-.181-.081,1.116-1.018.085-.078.083.082.727.723.284.284-.211.088c.009-.993.017-1.912.024-2.71l.1.1c-.625-.011-1.146-.034-1.521-.052a4.382,4.382,0,0,1-.612-.048" transform="translate(-313.767 -155.132)" fill="#fff"/>
            <path id="Trazado_227491" data-name="Trazado 227491" d="M612.707,297.283c.025-.011-.173.227-.528.661s-.88,1.073-1.517,1.79l-.205.231v-.31c0-.423,0-.875-.006-1.344v-.132l.038.09-.946-.919-.212-.206.295,0c.932.012,1.732.054,2.27.083s.837.042.813.053-.371.02-.923.042-1.3.055-2.161.057l.082-.2.955.91.038.036v.185c0,.469,0,.921-.006,1.344l-.206-.079c.6-.66,1.142-1.2,1.545-1.614s.651-.667.676-.678" transform="translate(-318.792 -155.461)" fill="#fff"/>
            <path id="Trazado_227492" data-name="Trazado 227492" d="M614.071,297.421a5.438,5.438,0,0,1-2.134.9,5.468,5.468,0,0,1,2.134-.9" transform="translate(-320.156 -155.599)" fill="#fff"/>
            <path id="Trazado_227493" data-name="Trazado 227493" d="M622.659,296.7a.687.687,0,0,1,.38,0,1.5,1.5,0,0,1,.89.543,1.59,1.59,0,0,1,.256,1.521,1.618,1.618,0,0,1-3.053,0,1.593,1.593,0,0,1,.256-1.521,1.5,1.5,0,0,1,.89-.543.688.688,0,0,1,.381,0,3.106,3.106,0,0,1-.357.094,1.514,1.514,0,0,0-.774.556,1.429,1.429,0,0,0-.18,1.337,1.4,1.4,0,0,0,2.622,0,1.428,1.428,0,0,0-.18-1.337,1.512,1.512,0,0,0-.774-.556,3.1,3.1,0,0,1-.357-.094" transform="translate(-324.92 -155.219)" fill="#fff"/>
            <path id="Trazado_227494" data-name="Trazado 227494" d="M624.669,299.52c-.048.048-.375-.2-.731-.555l-.036-.036v-.061c0-.507.056-.919.124-.919s.124.411.124.919v.009l-.036-.088c.355.357.6.683.555.731" transform="translate(-326.416 -155.883)" fill="#fff"/>
            <path id="Trazado_227495" data-name="Trazado 227495" d="M496.486,300.9c0,.069-10.408.124-23.245.124s-23.247-.055-23.247-.124,10.406-.124,23.247-.124,23.245.055,23.245.124" transform="translate(-235.43 -157.362)" fill="#fff"/>
            <path id="Trazado_227496" data-name="Trazado 227496" d="M441.368,299.024a1.833,1.833,0,1,1-1.833-1.833,1.833,1.833,0,0,1,1.833,1.833" transform="translate(-228.999 -155.486)" fill="#fff"/>
            <path id="Trazado_227497" data-name="Trazado 227497" d="M443.66,67.85H374.107a3.751,3.751,0,0,1-3.751-3.751V23.844a3.751,3.751,0,0,1,3.751-3.751H443.66a3.751,3.751,0,0,1,3.751,3.751V64.1a3.751,3.751,0,0,1-3.751,3.751" transform="translate(-193.765 -10.512)" fill="#f5f5f5"/>
            <path id="Trazado_227498" data-name="Trazado 227498" d="M435.18,59.936a11.134,11.134,0,0,0-6.061-2c-3.065.116-5.624,2.262-7.918,4.3l-10.728,9.514a1.449,1.449,0,0,1-2.506-.057l-9.5-10.539c-1.97-2.186-4.222-4.519-7.15-4.8-2.375-.231-4.643.963-6.639,2.27a47.518,47.518,0,0,0-14.21,14.453l-.111,9.975a5.059,5.059,0,0,0,4.589,3.759h67.876a4.649,4.649,0,0,0,4.589-4.21V73.2a32.38,32.38,0,0,0-12.23-13.264" transform="translate(-193.765 -29.464)" fill="#455a64"/>
            <path id="Trazado_227499" data-name="Trazado 227499" d="M378.923,108.008v.123h-.578v-.1l.311-.3c.077-.073.091-.119.091-.163,0-.072-.05-.113-.146-.113a.221.221,0,0,0-.184.082l-.1-.079a.362.362,0,0,1,.3-.13c.17,0,.28.086.28.225a.314.314,0,0,1-.13.248l-.209.2Z" transform="translate(-197.929 -56.157)" fill="#263238"/>
            <path id="Trazado_227500" data-name="Trazado 227500" d="M379.76,107.829a.092.092,0,1,1,.184,0,.092.092,0,1,1-.184,0m0,.427a.092.092,0,1,1,.184,0,.092.092,0,1,1-.184,0" transform="translate(-198.685 -56.366)" fill="#263238"/>
            <path id="Trazado_227501" data-name="Trazado 227501" d="M380.57,107.359v.784h-.146v-.662h-.165v-.122Z" transform="translate(-198.946 -56.169)" fill="#263238"/>
            <path id="Trazado_227502" data-name="Trazado 227502" d="M381.927,107.966h-.139v.178h-.141v-.178h-.43v-.1l.386-.506h.155l-.364.483h.257v-.158h.137v.158h.139Z" transform="translate(-199.447 -56.169)" fill="#263238"/>
            <rect id="Rectángulo_57468" data-name="Rectángulo 57468" width="59.678" height="0.358" transform="translate(183.767 51.44)" fill="#263238"/>
            <rect id="Rectángulo_57469" data-name="Rectángulo 57469" width="18.649" height="0.954" transform="translate(183.722 51.075)" fill="#f4a338"/>
            <path id="Trazado_227503" data-name="Trazado 227503" d="M423.693,107.261a.908.908,0,1,1-.908-.908.908.908,0,0,1,.908.908" transform="translate(-220.72 -55.642)" fill="#f4a338"/>
            <path id="Trazado_227504" data-name="Trazado 227504" d="M513.023,107.633a.262.262,0,0,1-.287.254c-.214,0-.34-.138-.34-.39a.371.371,0,0,1,.384-.417.392.392,0,0,1,.206.051l-.054.11a.268.268,0,0,0-.149-.038c-.148,0-.241.092-.241.27h0a.268.268,0,0,1,.209-.082.245.245,0,0,1,.27.241m-.141.007c0-.082-.062-.134-.157-.134a.143.143,0,0,0-.159.134c0,.074.058.132.163.132a.136.136,0,0,0,.154-.133" transform="translate(-268.079 -56.023)" fill="#263238"/>
            <path id="Trazado_227505" data-name="Trazado 227505" d="M513.863,107.573a.092.092,0,1,1,.184,0,.092.092,0,1,1-.184,0m0,.427a.092.092,0,1,1,.184,0,.092.092,0,1,1-.184,0" transform="translate(-268.846 -56.232)" fill="#263238"/>
            <path id="Trazado_227506" data-name="Trazado 227506" d="M514.447,107.483c0-.257.141-.4.327-.4s.329.146.329.4-.142.4-.329.4-.327-.146-.327-.4m.508,0c0-.189-.073-.277-.182-.277s-.18.088-.18.277.074.277.18.277.182-.087.182-.277" transform="translate(-269.151 -56.023)" fill="#263238"/>
            <path id="Trazado_227507" data-name="Trazado 227507" d="M516.031,107.483c0-.257.141-.4.327-.4s.329.146.329.4-.142.4-.329.4-.327-.146-.327-.4m.508,0c0-.189-.073-.277-.182-.277s-.18.088-.18.277.074.277.18.277.182-.087.182-.277" transform="translate(-269.98 -56.023)" fill="#263238"/>
            <path id="Trazado_227508" data-name="Trazado 227508" d="M519.773,106.916h-.358v-.827h.826v.358h-.468Z" transform="translate(-271.751 -55.504)" fill="#263238"/>
            <path id="Trazado_227509" data-name="Trazado 227509" d="M520.242,109.154h-.827v-.825h.358v.468h.469Z" transform="translate(-271.751 -56.676)" fill="#263238"/>
            <path id="Trazado_227510" data-name="Trazado 227510" d="M522.953,109.152h-.825v-.358h.468v-.47h.358Z" transform="translate(-273.169 -56.674)" fill="#263238"/>
            <path id="Trazado_227511" data-name="Trazado 227511" d="M522.953,106.914H522.6v-.468h-.469v-.358h.827Z" transform="translate(-273.169 -55.504)" fill="#263238"/>
            <path id="Trazado_227512" data-name="Trazado 227512" d="M502.348,29.718a11,11,0,0,1,1.623-.1l.1,0,0,.1c.013.585.022,1.293.024,2.062v.3l-.212-.212-.216-.216-.55-.553.167,0-.864.758-.186.163,0-.244a15.677,15.677,0,0,1,.109-2.062,19.571,19.571,0,0,1,.109,2.062l-.181-.081.847-.778.084-.078.083.082.553.55.216.216-.211.087c0-.769.01-1.477.024-2.062l.1.1a14.338,14.338,0,0,1-1.623-.1" transform="translate(-262.762 -15.494)" fill="#263238"/>
            <path id="Trazado_227513" data-name="Trazado 227513" d="M512.094,30.221a4.76,4.76,0,0,1-.384.5c-.264.331-.662.831-1.151,1.383l-.2.231,0-.311c0-.324,0-.667-.006-1.022v-.1l.038.089-.719-.7-.212-.206.294,0c.717.011,1.333.052,1.741.08a4.6,4.6,0,0,1,.605.052c-.025.01-.294.021-.716.044s-.981.057-1.631.06l.082-.2.728.691.038.036V31c0,.356,0,.7-.006,1.022l-.206-.079c.453-.495.867-.9,1.179-1.207s.507-.507.532-.518" transform="translate(-266.539 -15.74)" fill="#263238"/>
            <path id="Trazado_227514" data-name="Trazado 227514" d="M513.208,30.349c.027.063-.315.267-.763.455s-.833.289-.86.226.315-.267.763-.455.833-.29.86-.226" transform="translate(-267.653 -15.868)" fill="#263238"/>
            <path id="Trazado_227515" data-name="Trazado 227515" d="M519.715,29.8c0-.013.1-.041.292-.011a1.147,1.147,0,0,1,.691.412,1.231,1.231,0,0,1,.2,1.179,1.258,1.258,0,0,1-2.375,0,1.231,1.231,0,0,1,.2-1.18,1.146,1.146,0,0,1,.691-.411c.189-.03.293,0,.292.011s-.1.028-.269.083a1.15,1.15,0,0,0-.575.424,1.068,1.068,0,0,0-.128.995,1.038,1.038,0,0,0,1.944,0,1.066,1.066,0,0,0-.128-.995,1.151,1.151,0,0,0-.575-.424c-.167-.055-.269-.062-.269-.083" transform="translate(-271.25 -15.58)" fill="#263238"/>
            <path id="Trazado_227516" data-name="Trazado 227516" d="M521.24,31.955c-.048.048-.307-.132-.578-.4l-.036-.036v-.058c0-.386.055-.7.124-.7s.124.313.124.7v.007l-.036-.088c.271.271.45.529.4.577" transform="translate(-272.384 -16.093)" fill="#263238"/>
            <path id="Trazado_227517" data-name="Trazado 227517" d="M423.745,32.972c0,.069-7.919.124-17.686.124s-17.687-.055-17.687-.124,7.917-.124,17.687-.124,17.686.055,17.686.124" transform="translate(-203.191 -17.186)" fill="#263238"/>
            <path id="Trazado_227518" data-name="Trazado 227518" d="M381.809,31.578a1.395,1.395,0,1,1-1.395-1.395,1.4,1.4,0,0,1,1.395,1.395" transform="translate(-198.297 -15.791)" fill="#263238"/>
            <path id="Trazado_227519" data-name="Trazado 227519" d="M443.521,67.714c0-.015.215.005.622-.069a3.707,3.707,0,0,0,1.656-.739,3.745,3.745,0,0,0,1.41-2.525c.046-1.174.006-2.548.014-4.083-.01-6.158-.023-15.059-.04-26.058q-.005-4.125-.009-8.634c-.009-.746.017-1.519-.02-2.264a3.661,3.661,0,0,0-2.831-3.191,4.951,4.951,0,0,0-1.169-.091h-1.207l-20.653.011-47.323.01a3.628,3.628,0,0,0-2.693,1.2,3.748,3.748,0,0,0-.94,2.792q0,3.109,0,6.176,0,6.132,0,12.074t0,11.654q0,2.856,0,5.65,0,1.4,0,2.777,0,.69,0,1.377a4.035,4.035,0,0,0,.18,1.313,3.64,3.64,0,0,0,2.824,2.452,7.344,7.344,0,0,0,1.31.059l5.243,0,10.025.006,18,.015,26.056.04,7.084.023,1.842.012c.415,0,.628.013.628.013s-.213.009-.628.013l-1.842.012-7.084.023-26.056.04-18,.015-10.025.006-5.243,0a7.566,7.566,0,0,1-1.349-.062,3.868,3.868,0,0,1-3-2.6,4.274,4.274,0,0,1-.192-1.384q0-.687,0-1.377,0-1.381,0-2.777,0-2.794,0-5.65,0-5.712,0-11.654t0-12.074q0-3.066,0-6.176a4.437,4.437,0,0,1,.2-1.575,3.891,3.891,0,0,1,3.684-2.662l47.323.01,20.653.011h1.207a5.188,5.188,0,0,1,1.213.1,3.862,3.862,0,0,1,2.981,3.37c.038.784.01,1.529.018,2.283q-.005,4.5-.009,8.634c-.016,11-.03,19.9-.04,26.058-.015,1.54.019,2.9-.036,4.092a3.79,3.79,0,0,1-1.454,2.556,3.675,3.675,0,0,1-1.683.725,2.836,2.836,0,0,1-.468.042c-.105,0-.158,0-.158,0" transform="translate(-193.626 -10.376)" fill="#263238"/>
            <path id="Trazado_227520" data-name="Trazado 227520" d="M453.373,49.547a5.122,5.122,0,1,1-5.121-5.121,5.122,5.122,0,0,1,5.121,5.121" transform="translate(-231.839 -23.243)" fill="#455a64"/>
            <path id="Trazado_227521" data-name="Trazado 227521" d="M247.473,28.089a2.512,2.512,0,0,0,1.213-.434,2.3,2.3,0,0,0,.859-1.271,3.712,3.712,0,0,0,.075-1q0-.549,0-1.164c.015-3.314.037-8.07.064-13.937q.014-2.207.03-4.618.009-1.2.017-2.457a6.989,6.989,0,0,0-.041-1.223,2.085,2.085,0,0,0-.547-1.032A1.968,1.968,0,0,0,248.1.4a10.215,10.215,0,0,0-1.294-.027l-2.723.018L238.4.428,213.095.566a2.063,2.063,0,0,0-2,1.9q-.02,1.654-.04,3.286-.033,3.279-.065,6.457c-.045,4.233-.088,8.317-.129,12.207q-.008.73-.016,1.45a2.171,2.171,0,0,0,.314,1.261,1.977,1.977,0,0,0,.973.805,3.431,3.431,0,0,0,1.306.126l5.362-.015,9.624-.02h13.936l3.789.022.986.017a1.976,1.976,0,0,1,.336.021,1.934,1.934,0,0,1-.336.024l-.985.026-3.789.059-13.935.135-9.624.073-5.362.036A3.757,3.757,0,0,1,212,28.3a2.359,2.359,0,0,1-1.167-.958,2.557,2.557,0,0,1-.378-1.471q.006-.72.012-1.45c.033-3.891.068-7.974.1-12.207q.029-3.176.058-6.457.02-1.648.04-3.319a2.5,2.5,0,0,1,2.425-2.3L238.4.03l5.684-.019L246.809,0a10,10,0,0,1,1.362.039A2.328,2.328,0,0,1,249.4.7a2.445,2.445,0,0,1,.637,1.212,7.159,7.159,0,0,1,.042,1.3q-.015,1.252-.03,2.457-.03,2.407-.058,4.617c-.085,5.866-.154,10.622-.2,13.935q-.011.616-.021,1.164a3.814,3.814,0,0,1-.1,1.031,2.371,2.371,0,0,1-.933,1.308,2.161,2.161,0,0,1-.926.355,1.256,1.256,0,0,1-.338.009" transform="translate(-110.105 0)" fill="#5573c6"/>
            <path id="Trazado_227522" data-name="Trazado 227522" d="M249.769,21.735l4.7,2.825L249.7,27.395l-4.779,2.835.074-5.66.074-5.66Z" transform="translate(-128.137 -9.893)" fill="#5573c6"/>
          </g>
        </g>
      </g>
    </g>
  </g>
</svg>
