<svg xmlns="http://www.w3.org/2000/svg" xmlns:xlink="http://www.w3.org/1999/xlink" width="401.617" height="369.023" viewBox="0 0 401.617 369.023">
  <defs>
    <clipPath id="clip-path">
      <rect id="Rectángulo_59599" data-name="Rectángulo 59599" width="401.617" height="369.023" fill="none"/>
    </clipPath>
    <clipPath id="clip-path-2">
      <rect id="Rectángulo_59526" data-name="Rectángulo 59526" width="507.695" height="369.023" fill="none"/>
    </clipPath>
    <clipPath id="clip-path-3">
      <rect id="Rectángulo_59531" data-name="Rectángulo 59531" width="9.114" height="9.214" fill="none"/>
    </clipPath>
    <clipPath id="clip-path-6">
      <rect id="Rectángulo_59535" data-name="Rectángulo 59535" width="11.717" height="11.846" fill="none"/>
    </clipPath>
    <clipPath id="clip-path-9">
      <rect id="Rectángulo_59552" data-name="Rectángulo 59552" width="8.793" height="10.317" fill="none"/>
    </clipPath>
    <clipPath id="clip-path-12">
      <rect id="Rectángulo_59564" data-name="Rectángulo 59564" width="43.865" height="36.045" fill="#f4a338"/>
    </clipPath>
    <clipPath id="clip-path-14">
      <rect id="Rectángulo_59573" data-name="Rectángulo 59573" width="72.282" height="59.725" fill="none"/>
    </clipPath>
    <clipPath id="clip-path-15">
      <rect id="Rectángulo_59574" data-name="Rectángulo 59574" width="67.566" height="31.355" fill="none"/>
    </clipPath>
    <clipPath id="clip-path-16">
      <rect id="Rectángulo_59575" data-name="Rectángulo 59575" width="9.899" height="9.899" fill="none"/>
    </clipPath>
    <clipPath id="clip-path-18">
      <path id="Trazado_236867" data-name="Trazado 236867" d="M183.946,175.005c-1.005,1.218-14.661,11.21-14.661,11.21l2.416,5.27s14.856-6.955,18.074-11.007c.822-1.046,1.96-2.711,3.188-4.61,2.021-3.138,4.305-6.915,5.889-9.565,1.178-1.979,1.97-3.33,1.97-3.33l-8.407-13.261c-1.837,1.411-7.463,24.075-8.468,25.293" transform="translate(-169.285 -149.712)" fill="none"/>
    </clipPath>
    <clipPath id="clip-path-19">
      <rect id="Rectángulo_59586" data-name="Rectángulo 59586" width="5.895" height="19.211" fill="none"/>
    </clipPath>
    <clipPath id="clip-path-21">
      <rect id="Rectángulo_59587" data-name="Rectángulo 59587" width="9.503" height="10.675" fill="none"/>
    </clipPath>
    <clipPath id="clip-path-22">
      <rect id="Rectángulo_59588" data-name="Rectángulo 59588" width="8.119" height="9.967" fill="none"/>
    </clipPath>
    <clipPath id="clip-path-23">
      <rect id="Rectángulo_59589" data-name="Rectángulo 59589" width="12.998" height="8.957" fill="none"/>
    </clipPath>
    <clipPath id="clip-path-24">
      <rect id="Rectángulo_59590" data-name="Rectángulo 59590" width="13.549" height="6.921" fill="none"/>
    </clipPath>
    <clipPath id="clip-path-25">
      <rect id="Rectángulo_59591" data-name="Rectángulo 59591" width="8.885" height="67.176" fill="none"/>
    </clipPath>
    <clipPath id="clip-path-26">
      <rect id="Rectángulo_59592" data-name="Rectángulo 59592" width="12.909" height="2.922" fill="none"/>
    </clipPath>
    <clipPath id="clip-path-27">
      <path id="Trazado_236892" data-name="Trazado 236892" d="M192.065,149.82s5.894,16.027,6.773,45.158h32.018s5.908-35.994-4.246-52.132c0,0-1.115-.069-3.006-.069-6.173,0-20.618.739-31.539,7.043" transform="translate(-192.065 -142.777)" fill="none"/>
    </clipPath>
    <clipPath id="clip-path-28">
      <rect id="Rectángulo_59594" data-name="Rectángulo 59594" width="8.117" height="21.338" fill="none"/>
    </clipPath>
  </defs>
  <g id="Grupo_893422" data-name="Grupo 893422" transform="translate(-180 -12090.081)">
    <rect id="Rectángulo_302517" data-name="Rectángulo 302517" width="328.323" height="266.384" transform="translate(202.677 12155.049)" fill="#f5fafe"/>
    <g id="Grupo_182281" data-name="Grupo 182281" transform="translate(180 12090.081)">
      <g id="Grupo_182280" data-name="Grupo 182280" transform="translate(0)" clip-path="url(#clip-path)">
        <rect id="Rectángulo_59470" data-name="Rectángulo 59470" width="507.695" height="0.254" transform="translate(-53.701 332.485)" fill="#ebebeb"/>
        <rect id="Rectángulo_59471" data-name="Rectángulo 59471" width="33.632" height="0.254" transform="translate(369.492 348.829)" fill="#ebebeb"/>
        <rect id="Rectángulo_59472" data-name="Rectángulo 59472" width="8.827" height="0.253" transform="translate(273.789 351.586)" fill="#ebebeb"/>
        <rect id="Rectángulo_59473" data-name="Rectángulo 59473" width="19.487" height="0.253" transform="translate(348.988 339.401)" fill="#ebebeb"/>
        <rect id="Rectángulo_59474" data-name="Rectángulo 59474" width="43.858" height="0.254" transform="translate(-0.435 341.106)" fill="#ebebeb"/>
        <rect id="Rectángulo_59475" data-name="Rectángulo 59475" width="6.43" height="0.254" transform="translate(52.464 341.106)" fill="#ebebeb"/>
        <rect id="Rectángulo_59476" data-name="Rectángulo 59476" width="95.118" height="0.254" transform="translate(79.793 345.394)" fill="#ebebeb"/>
        <g id="Grupo_182179" data-name="Grupo 182179" transform="translate(-53.701)">
          <g id="Grupo_182178" data-name="Grupo 182178" clip-path="url(#clip-path-2)">
            <rect id="Rectángulo_59477" data-name="Rectángulo 59477" width="103.289" height="207.684" transform="translate(138.114 73.937)" fill="#fafafa"/>
            <rect id="Rectángulo_59478" data-name="Rectángulo 59478" width="108.056" height="10.191" transform="translate(135.731 71.118)" fill="#f0f0f0"/>
            <rect id="Rectángulo_59479" data-name="Rectángulo 59479" width="108.056" height="5.096" transform="translate(135.731 82.437)" fill="#f0f0f0"/>
            <rect id="Rectángulo_59480" data-name="Rectángulo 59480" width="108.056" height="5.096" transform="translate(135.731 90)" fill="#f0f0f0"/>
            <rect id="Rectángulo_59481" data-name="Rectángulo 59481" width="108.056" height="5.095" transform="translate(135.731 97.565)" fill="#f0f0f0"/>
            <rect id="Rectángulo_59482" data-name="Rectángulo 59482" width="108.056" height="5.096" transform="translate(135.731 105.126)" fill="#f0f0f0"/>
            <rect id="Rectángulo_59483" data-name="Rectángulo 59483" width="108.056" height="5.096" transform="translate(135.731 112.689)" fill="#f0f0f0"/>
            <rect id="Rectángulo_59484" data-name="Rectángulo 59484" width="108.056" height="5.096" transform="translate(135.731 120.252)" fill="#f0f0f0"/>
            <rect id="Rectángulo_59485" data-name="Rectángulo 59485" width="108.056" height="5.095" transform="translate(135.731 127.816)" fill="#f0f0f0"/>
            <rect id="Rectángulo_59486" data-name="Rectángulo 59486" width="108.056" height="5.096" transform="translate(135.731 135.378)" fill="#f0f0f0"/>
            <rect id="Rectángulo_59487" data-name="Rectángulo 59487" width="108.056" height="5.096" transform="translate(135.731 142.94)" fill="#f0f0f0"/>
            <rect id="Rectángulo_59488" data-name="Rectángulo 59488" width="108.056" height="5.095" transform="translate(135.731 150.504)" fill="#f0f0f0"/>
            <rect id="Rectángulo_59489" data-name="Rectángulo 59489" width="108.056" height="5.096" transform="translate(135.731 158.067)" fill="#f0f0f0"/>
            <rect id="Rectángulo_59490" data-name="Rectángulo 59490" width="108.056" height="5.096" transform="translate(135.731 165.629)" fill="#f0f0f0"/>
            <rect id="Rectángulo_59491" data-name="Rectángulo 59491" width="108.056" height="5.096" transform="translate(135.731 173.192)" fill="#f0f0f0"/>
            <rect id="Rectángulo_59492" data-name="Rectángulo 59492" width="108.056" height="5.096" transform="translate(135.731 180.755)" fill="#f0f0f0"/>
            <rect id="Rectángulo_59493" data-name="Rectángulo 59493" width="108.056" height="5.096" transform="translate(135.731 188.318)" fill="#f0f0f0"/>
            <rect id="Rectángulo_59494" data-name="Rectángulo 59494" width="108.056" height="5.096" transform="translate(135.731 195.881)" fill="#f0f0f0"/>
            <rect id="Rectángulo_59495" data-name="Rectángulo 59495" width="108.056" height="5.095" transform="translate(135.731 203.444)" fill="#f0f0f0"/>
            <rect id="Rectángulo_59496" data-name="Rectángulo 59496" width="108.056" height="5.096" transform="translate(135.731 211.006)" fill="#f0f0f0"/>
            <rect id="Rectángulo_59497" data-name="Rectángulo 59497" width="108.056" height="5.095" transform="translate(135.731 218.57)" fill="#f0f0f0"/>
            <rect id="Rectángulo_59498" data-name="Rectángulo 59498" width="108.056" height="5.095" transform="translate(135.731 226.133)" fill="#f0f0f0"/>
            <rect id="Rectángulo_59499" data-name="Rectángulo 59499" width="108.056" height="5.096" transform="translate(135.731 233.695)" fill="#f0f0f0"/>
            <rect id="Rectángulo_59500" data-name="Rectángulo 59500" width="108.056" height="5.096" transform="translate(135.731 241.258)" fill="#f0f0f0"/>
            <rect id="Rectángulo_59501" data-name="Rectángulo 59501" width="108.056" height="5.096" transform="translate(135.731 248.82)" fill="#f0f0f0"/>
            <rect id="Rectángulo_59502" data-name="Rectángulo 59502" width="108.056" height="5.096" transform="translate(135.731 256.384)" fill="#f0f0f0"/>
            <rect id="Rectángulo_59503" data-name="Rectángulo 59503" width="108.056" height="5.096" transform="translate(135.731 263.946)" fill="#f0f0f0"/>
            <rect id="Rectángulo_59504" data-name="Rectángulo 59504" width="108.056" height="5.096" transform="translate(135.731 271.509)" fill="#f0f0f0"/>
            <rect id="Rectángulo_59505" data-name="Rectángulo 59505" width="108.056" height="5.096" transform="translate(135.731 279.072)" fill="#f0f0f0"/>
            <rect id="Rectángulo_59506" data-name="Rectángulo 59506" width="103.289" height="207.684" transform="translate(266.292 73.937)" fill="#fafafa"/>
            <rect id="Rectángulo_59507" data-name="Rectángulo 59507" width="108.056" height="10.191" transform="translate(263.908 71.118)" fill="#f0f0f0"/>
            <rect id="Rectángulo_59508" data-name="Rectángulo 59508" width="108.056" height="0.937" transform="translate(263.908 82.438)" fill="#f0f0f0"/>
            <rect id="Rectángulo_59509" data-name="Rectángulo 59509" width="108.056" height="0.937" transform="translate(263.908 84.567)" fill="#f0f0f0"/>
            <rect id="Rectángulo_59510" data-name="Rectángulo 59510" width="108.056" height="0.937" transform="translate(263.908 86.694)" fill="#f0f0f0"/>
            <rect id="Rectángulo_59511" data-name="Rectángulo 59511" width="108.056" height="0.937" transform="translate(263.908 88.822)" fill="#f0f0f0"/>
            <rect id="Rectángulo_59512" data-name="Rectángulo 59512" width="108.056" height="0.937" transform="translate(263.908 90.949)" fill="#f0f0f0"/>
            <rect id="Rectángulo_59513" data-name="Rectángulo 59513" width="108.056" height="0.937" transform="translate(263.908 93.078)" fill="#f0f0f0"/>
            <rect id="Rectángulo_59514" data-name="Rectángulo 59514" width="108.056" height="0.937" transform="translate(263.908 95.206)" fill="#f0f0f0"/>
            <rect id="Rectángulo_59515" data-name="Rectángulo 59515" width="108.056" height="0.937" transform="translate(263.908 97.333)" fill="#f0f0f0"/>
            <rect id="Rectángulo_59516" data-name="Rectángulo 59516" width="108.056" height="0.937" transform="translate(263.908 99.461)" fill="#f0f0f0"/>
            <rect id="Rectángulo_59517" data-name="Rectángulo 59517" width="108.056" height="0.937" transform="translate(263.908 101.59)" fill="#f0f0f0"/>
            <rect id="Rectángulo_59518" data-name="Rectángulo 59518" width="108.056" height="0.937" transform="translate(263.908 103.717)" fill="#f0f0f0"/>
            <rect id="Rectángulo_59519" data-name="Rectángulo 59519" width="108.056" height="0.937" transform="translate(263.908 105.845)" fill="#f0f0f0"/>
            <rect id="Rectángulo_59520" data-name="Rectángulo 59520" width="108.056" height="0.937" transform="translate(263.908 107.972)" fill="#f0f0f0"/>
            <rect id="Rectángulo_59521" data-name="Rectángulo 59521" width="108.056" height="0.937" transform="translate(263.908 110.101)" fill="#f0f0f0"/>
            <rect id="Rectángulo_59522" data-name="Rectángulo 59522" width="108.056" height="0.937" transform="translate(263.908 112.229)" fill="#f0f0f0"/>
            <rect id="Rectángulo_59523" data-name="Rectángulo 59523" width="108.056" height="0.937" transform="translate(263.908 114.356)" fill="#f0f0f0"/>
            <rect id="Rectángulo_59524" data-name="Rectángulo 59524" width="108.056" height="0.937" transform="translate(263.908 116.484)" fill="#f0f0f0"/>
            <rect id="Rectángulo_59525" data-name="Rectángulo 59525" width="108.056" height="0.937" transform="translate(263.908 118.612)" fill="#f0f0f0"/>
            <path id="Trazado_236833" data-name="Trazado 236833" d="M265.636,41.562a15.4,15.4,0,1,1-15.4-15.4,15.4,15.4,0,0,1,15.4,15.4" transform="translate(3.614 0.403)" fill="#f0f0f0"/>
            <path id="Trazado_236834" data-name="Trazado 236834" d="M263.295,41.527a13.1,13.1,0,1,1-13.1-13.1,13.1,13.1,0,0,1,13.1,13.1" transform="translate(3.649 0.438)" fill="#fafafa"/>
            <path id="Trazado_236835" data-name="Trazado 236835" d="M249.484,32.481v9.155L243.417,38.2" transform="translate(3.746 0.5)" fill="#f0f0f0"/>
            <path id="Trazado_236836" data-name="Trazado 236836" d="M249.484,32.481v9.155L243.417,38.2" transform="translate(3.746 0.5)" fill="none" stroke="#e0e0e0" stroke-linecap="round" stroke-linejoin="round" stroke-width="2"/>
          </g>
        </g>
        <g id="Grupo_182205" data-name="Grupo 182205" transform="translate(34.361 36.916)">
          <g id="Grupo_891081" data-name="Grupo 891081">
            <g id="Grupo_182182" data-name="Grupo 182182" transform="translate(167.926 63.41)" opacity="0.5">
              <g id="Grupo_182181" data-name="Grupo 182181" transform="translate(0 0)">
                <g id="Grupo_182283" data-name="Grupo 182283">
                  <path id="Trazado_236837" data-name="Trazado 236837" d="M441.342,308.751H255.819a3.71,3.71,0,0,1-3.71-3.71V102.515a3.71,3.71,0,0,1,3.71-3.71H441.342a3.71,3.71,0,0,1,3.71,3.71V305.041a3.71,3.71,0,0,1-3.71,3.71" transform="translate(-252.109 -98.805)" fill="#afafaf"/>
                </g>
              </g>
            </g>
            <path id="Trazado_236838" data-name="Trazado 236838" d="M435.342,304.751H249.819a3.71,3.71,0,0,1-3.71-3.71V98.515a3.71,3.71,0,0,1,3.71-3.71H435.342a3.71,3.71,0,0,1,3.71,3.71V301.041a3.71,3.71,0,0,1-3.71,3.71" transform="translate(-84.275 -35.456)" fill="#b0c0d2"/>
            <g id="Grupo_182188" data-name="Grupo 182188" transform="translate(6.092 58.447)" opacity="0.5">
              <g id="Grupo_182187" data-name="Grupo 182187" transform="translate(0 0)">
                <g id="Grupo_182282" data-name="Grupo 182282">
                  <path id="Trazado_236840" data-name="Trazado 236840" d="M190.576,273.4H96.438a3.71,3.71,0,0,1-3.71-3.71V97.626a3.709,3.709,0,0,1,3.71-3.709h94.138a3.709,3.709,0,0,1,3.71,3.709V269.69a3.71,3.71,0,0,1-3.71,3.71" transform="translate(-92.728 -93.917)" fill="#12263f"/>
                </g>
              </g>
            </g>
            <path id="Trazado_236841" data-name="Trazado 236841" d="M184.576,267.4H90.438a3.71,3.71,0,0,1-3.71-3.71V91.626a3.709,3.709,0,0,1,3.71-3.709h94.138a3.709,3.709,0,0,1,3.71,3.709V263.69a3.71,3.71,0,0,1-3.71,3.71" transform="translate(-86.728 -35.562)" fill="#b0c0d2"/>
            <path id="Trazado_236843" data-name="Trazado 236843" d="M438.4,59.97H90.639a3.912,3.912,0,0,1-3.911-3.911V40.267a3.911,3.911,0,0,1,3.911-3.911H438.4a3.911,3.911,0,0,1,3.911,3.911V56.059A3.912,3.912,0,0,1,438.4,59.97" transform="translate(-86.728 -36.356)" fill="#12263f"/>
            <g id="Grupo_182194" data-name="Grupo 182194" transform="translate(310.388 7.2)" opacity="0.6" style="isolation: isolate">
              <g id="Grupo_182193" data-name="Grupo 182193">
                <g id="Grupo_182192" data-name="Grupo 182192" clip-path="url(#clip-path-3)">
                  <path id="Trazado_236844" data-name="Trazado 236844" d="M401.526,48.054a4.557,4.557,0,1,1-4.557-4.607,4.582,4.582,0,0,1,4.557,4.607" transform="translate(-392.412 -43.447)" fill="#fff"/>
                </g>
              </g>
            </g>
            <g id="Grupo_182197" data-name="Grupo 182197" transform="translate(324.641 7.2)" opacity="0.6" style="isolation: isolate">
              <g id="Grupo_182196" data-name="Grupo 182196">
                <g id="Grupo_182195" data-name="Grupo 182195" clip-path="url(#clip-path-3)">
                  <path id="Trazado_236845" data-name="Trazado 236845" d="M415.563,48.054a4.557,4.557,0,1,1-4.557-4.607,4.582,4.582,0,0,1,4.557,4.607" transform="translate(-406.449 -43.447)" fill="#fff"/>
                </g>
              </g>
            </g>
            <g id="Grupo_182200" data-name="Grupo 182200" transform="translate(338.895 7.2)" opacity="0.6" style="isolation: isolate">
              <g id="Grupo_182199" data-name="Grupo 182199">
                <g id="Grupo_182198" data-name="Grupo 182198" clip-path="url(#clip-path-3)">
                  <path id="Trazado_236846" data-name="Trazado 236846" d="M429.6,48.054a4.557,4.557,0,1,1-4.557-4.607,4.582,4.582,0,0,1,4.557,4.607" transform="translate(-420.486 -43.447)" fill="#fff"/>
                </g>
              </g>
            </g>
            <g id="Grupo_182203" data-name="Grupo 182203" transform="translate(8.29 5.884)" opacity="0.6" style="isolation: isolate">
              <g id="Grupo_182202" data-name="Grupo 182202">
                <g id="Grupo_182201" data-name="Grupo 182201" clip-path="url(#clip-path-6)">
                  <rect id="Rectángulo_59534" data-name="Rectángulo 59534" width="11.717" height="11.846" transform="translate(0)" fill="#fff"/>
                </g>
              </g>
            </g>
          </g>
        </g>
        <path id="Trazado_609954" data-name="Trazado 609954" d="M0,0H109.5V20.946H0Z" transform="translate(20.087 117.879)" fill="#12263f"/>
        <rect id="Rectángulo_59541" data-name="Rectángulo 59541" width="8.746" height="8.746" transform="translate(27.103 123.979)" fill="#fff"/>
        <path id="Trazado_236847" data-name="Trazado 236847" d="M81.464,126.458l1.63,2.1,3.289-4.237" transform="translate(-52.448 1.913)" fill="none" stroke="#12263f" stroke-linecap="round" stroke-linejoin="round" stroke-width="1.5"/>
        <g id="Grupo_182221" data-name="Grupo 182221" transform="translate(-53.701)">
          <g id="Grupo_182220" data-name="Grupo 182220" clip-path="url(#clip-path-2)">
            <path id="Trazado_236848" data-name="Trazado 236848" d="M174.96,131.393h-8.793v-5.945h8.793Zm-4.4-10.317a3.733,3.733,0,0,0-3.73,3.73h1.015a2.714,2.714,0,1,1,5.428,0h1.015a3.733,3.733,0,0,0-3.73-3.73" transform="translate(2.557 1.863)" fill="#fff"/>
            <path id="Trazado_609953" data-name="Trazado 609953" d="M0,0H109.5V20.946H0Z" transform="translate(57.699 156.596)" fill="#fb8c00"/>
            <rect id="Rectángulo_59545" data-name="Rectángulo 59545" width="8.746" height="8.746" transform="translate(64.715 162.697)" fill="#fff"/>
            <rect id="Rectángulo_59546" data-name="Rectángulo 59546" width="8.793" height="5.945" transform="translate(152.633 166.029)" fill="#fff"/>
            <path id="Trazado_236849" data-name="Trazado 236849" d="M158.437,162.936h-1.015a2.715,2.715,0,0,0-5.429,0h-1.015a3.73,3.73,0,0,1,7.46,0" transform="translate(2.324 2.45)" fill="#fff"/>
            <rect id="Rectángulo_59547" data-name="Rectángulo 59547" width="109.496" height="20.946" transform="translate(74.356 197.134)" fill="#26aab7"/>
            <rect id="Rectángulo_59550" data-name="Rectángulo 59550" width="8.746" height="8.746" transform="translate(81.372 203.234)" fill="#fff"/>
            <path id="Trazado_236850" data-name="Trazado 236850" d="M82.023,204.512l1.63,2.1,3.289-4.236" transform="translate(1.262 3.114)" fill="none" stroke="#4adbd1" stroke-linecap="round" stroke-linejoin="round" stroke-width="1.5"/>
            <g id="Grupo_182219" data-name="Grupo 182219" transform="translate(169.291 202.195)" opacity="0.6" style="isolation: isolate">
              <g id="Grupo_182218" data-name="Grupo 182218">
                <g id="Grupo_182217" data-name="Grupo 182217" clip-path="url(#clip-path-9)">
                  <rect id="Rectángulo_59551" data-name="Rectángulo 59551" width="8.793" height="5.944" transform="translate(0 4.373)" fill="#fff"/>
                  <path id="Trazado_236851" data-name="Trazado 236851" d="M174.842,202.861h-1.015a2.715,2.715,0,1,0-5.429,0h-1.015a3.73,3.73,0,1,1,7.46,0" transform="translate(-166.715 -199.13)" fill="#fff"/>
                </g>
              </g>
            </g>
          </g>
        </g>
        <rect id="Rectángulo_59554" data-name="Rectángulo 59554" width="85.503" height="55.612" transform="translate(278.298 174.305)" fill="#afafaf"/>
        <rect id="Rectángulo_59558" data-name="Rectángulo 59558" width="79.247" height="42.404" transform="translate(281.425 184.733)" fill="#f6f6f6"/>
        <rect id="Rectángulo_59559" data-name="Rectángulo 59559" width="58.62" height="1.825" transform="translate(287.883 191.068)" fill="#fff"/>
        <rect id="Rectángulo_59560" data-name="Rectángulo 59560" width="28.126" height="1.824" transform="translate(287.883 196.656)" fill="#fff"/>
        <rect id="Rectángulo_59561" data-name="Rectángulo 59561" width="35.425" height="1.824" transform="translate(287.883 202.242)" fill="#fff"/>
        <rect id="Rectángulo_59562" data-name="Rectángulo 59562" width="12.485" height="1.824" transform="translate(287.883 207.829)" fill="#fff"/>
        <rect id="Rectángulo_59563" data-name="Rectángulo 59563" width="8.086" height="1.825" transform="translate(287.883 213.415)" fill="#fff"/>
        <g id="Grupo_182234" data-name="Grupo 182234" transform="translate(-53.701)">
          <g id="Grupo_182233" data-name="Grupo 182233" clip-path="url(#clip-path-2)">
            <path id="Trazado_236852" data-name="Trazado 236852" d="M414.3,279.8V310.8a3.494,3.494,0,0,1-2.983,3.464,2.71,2.71,0,0,1-.525.045H370.956a3.508,3.508,0,0,1-3.508-3.508V279.8a3.363,3.363,0,0,1,.357-1.531,3.5,3.5,0,0,1,3.151-1.988h15.609a3.54,3.54,0,0,0,2.067-.67,3.435,3.435,0,0,0,1.274-1.743,3.515,3.515,0,0,1,3.341-2.425h8.313a3.506,3.506,0,0,1,3.341,2.425,3.509,3.509,0,0,0,3.341,2.414h2.548A3.516,3.516,0,0,1,414.3,279.8" transform="translate(5.655 4.177)" fill="#c17d23"/>
            <g id="Grupo_182229" data-name="Grupo 182229" transform="translate(373.103 282.443)" style="isolation: isolate">
              <g id="Grupo_182228" data-name="Grupo 182228">
                <g id="Grupo_182227" data-name="Grupo 182227" clip-path="url(#clip-path-12)">
                  <path id="Trazado_236853" data-name="Trazado 236853" d="M411.313,281.157v33.005l-.045.045H370.955a3.508,3.508,0,0,1-3.508-3.509v-31a3.359,3.359,0,0,1,.357-1.531h40.513a3,3,0,0,1,3,3" transform="translate(-367.448 -278.162)" fill="#f4a338"/>
                </g>
              </g>
            </g>
            <path id="Trazado_236854" data-name="Trazado 236854" d="M320.506,234.718V273.5l-7.575,7.575H285.15V234.718Z" transform="translate(4.388 3.612)" fill="#afafaf"/>
            <path id="Trazado_236856" data-name="Trazado 236856" d="M320.085,272.908H312.51v7.575Z" transform="translate(4.81 4.2)" fill="#e8e8e8"/>
            <rect id="Rectángulo_59566" data-name="Rectángulo 59566" width="26.66" height="1.455" transform="translate(293.946 246.196)" fill="#e8e8e8"/>
            <rect id="Rectángulo_59567" data-name="Rectángulo 59567" width="22.428" height="1.455" transform="translate(293.947 250.651)" fill="#e8e8e8"/>
            <rect id="Rectángulo_59568" data-name="Rectángulo 59568" width="26.66" height="1.454" transform="translate(293.946 255.107)" fill="#e8e8e8"/>
            <rect id="Rectángulo_59569" data-name="Rectángulo 59569" width="9.956" height="1.455" transform="translate(293.947 259.561)" fill="#e8e8e8"/>
            <rect id="Rectángulo_59570" data-name="Rectángulo 59570" width="6.447" height="1.455" transform="translate(293.947 264.017)" fill="#e8e8e8"/>
          </g>
        </g>
        <rect id="Rectángulo_59572" data-name="Rectángulo 59572" width="72.283" height="59.726" transform="translate(222.742 90.317)" fill="#afafaf"/>
        <g id="Grupo_182245" data-name="Grupo 182245" transform="translate(-53.701)">
          <g id="Grupo_182244" data-name="Grupo 182244" clip-path="url(#clip-path-2)">
            <g id="Grupo_182237" data-name="Grupo 182237" transform="translate(276.444 90.318)" opacity="0.6" style="isolation: isolate">
              <g id="Grupo_182236" data-name="Grupo 182236">
                <g id="Grupo_182235" data-name="Grupo 182235" clip-path="url(#clip-path-14)">
                  <path id="Trazado_236857" data-name="Trazado 236857" d="M272.254,148.674h72.283V88.948H272.254Zm69.924-2.358H274.611V91.306h67.567Z" transform="translate(-272.254 -88.949)" fill="#fff"/>
                </g>
              </g>
            </g>
            <g id="Grupo_182240" data-name="Grupo 182240" transform="translate(278.802 116.33)" opacity="0.3" style="isolation: isolate">
              <g id="Grupo_182239" data-name="Grupo 182239">
                <g id="Grupo_182238" data-name="Grupo 182238" clip-path="url(#clip-path-15)">
                  <path id="Trazado_236858" data-name="Trazado 236858" d="M274.576,129.621,295.3,114.567l15.39,15.054,15.391-8.8,16.065,9.892v15.213H274.576Z" transform="translate(-274.576 -114.567)" fill="#fff"/>
                </g>
              </g>
            </g>
            <g id="Grupo_182243" data-name="Grupo 182243" transform="translate(317.711 101.294)" opacity="0.6" style="isolation: isolate">
              <g id="Grupo_182242" data-name="Grupo 182242">
                <g id="Grupo_182241" data-name="Grupo 182241" clip-path="url(#clip-path-16)">
                  <path id="Trazado_236859" data-name="Trazado 236859" d="M322.795,104.709a4.949,4.949,0,1,1-4.95-4.949,4.95,4.95,0,0,1,4.95,4.949" transform="translate(-312.896 -99.759)" fill="#fff"/>
                </g>
              </g>
            </g>
          </g>
        </g>
        <path id="Trazado_236860" data-name="Trazado 236860" d="M348.118,150.213v2.031h-2.031" transform="translate(-48.375 2.312)" fill="none" stroke="#263238" stroke-miterlimit="10" stroke-width="1"/>
        <line id="Línea_1952" data-name="Línea 1952" x1="72.706" transform="translate(221.822 154.556)" fill="none" stroke="#263238" stroke-miterlimit="10" stroke-width="1" stroke-dasharray="4.181 3.136"/>
        <path id="Trazado_236861" data-name="Trazado 236861" d="M269.81,152.244H267.78v-2.031" transform="translate(-49.58 2.312)" fill="none" stroke="#263238" stroke-miterlimit="10" stroke-width="1"/>
        <line id="Línea_1953" data-name="Línea 1953" y1="60.18" transform="translate(218.199 89.409)" fill="none" stroke="#263238" stroke-miterlimit="10" stroke-width="1" stroke-dasharray="3.855 2.891"/>
        <path id="Trazado_236862" data-name="Trazado 236862" d="M267.78,86.639V84.608h2.031" transform="translate(-49.58 1.302)" fill="none" stroke="#263238" stroke-miterlimit="10" stroke-width="1"/>
        <line id="Línea_1954" data-name="Línea 1954" x2="72.706" transform="translate(223.414 85.91)" fill="none" stroke="#263238" stroke-miterlimit="10" stroke-width="1" stroke-dasharray="4.181 3.136"/>
        <path id="Trazado_236863" data-name="Trazado 236863" d="M346.087,84.608h2.031v2.031" transform="translate(-48.375 1.302)" fill="none" stroke="#263238" stroke-miterlimit="10" stroke-width="1"/>
        <line id="Línea_1955" data-name="Línea 1955" y2="60.18" transform="translate(299.743 90.877)" fill="none" stroke="#263238" stroke-miterlimit="10" stroke-width="1" stroke-dasharray="3.855 2.891"/>
        <rect id="Rectángulo_59577" data-name="Rectángulo 59577" width="3.203" height="3.203" transform="translate(298.141 84.309)" fill="#263238"/>
        <rect id="Rectángulo_59578" data-name="Rectángulo 59578" width="3.203" height="3.203" transform="translate(298.141 152.954)" fill="#263238"/>
        <rect id="Rectángulo_59579" data-name="Rectángulo 59579" width="3.203" height="3.203" transform="translate(216.597 152.954)" fill="#263238"/>
        <rect id="Rectángulo_59580" data-name="Rectángulo 59580" width="3.203" height="3.203" transform="translate(216.597 84.309)" fill="#263238"/>
        <rect id="Rectángulo_59581" data-name="Rectángulo 59581" width="3.203" height="3.203" transform="translate(257.282 84.309)" fill="#263238"/>
        <rect id="Rectángulo_59582" data-name="Rectángulo 59582" width="3.203" height="3.203" transform="translate(257.369 152.954)" fill="#263238"/>
        <rect id="Rectángulo_59583" data-name="Rectángulo 59583" width="3.203" height="3.203" transform="translate(298.141 118.631)" fill="#263238"/>
        <rect id="Rectángulo_59584" data-name="Rectángulo 59584" width="3.203" height="3.203" transform="translate(216.597 118.631)" fill="#263238"/>
        <g id="Grupo_182247" data-name="Grupo 182247" transform="translate(-53.701)">
          <g id="Grupo_182246" data-name="Grupo 182246" clip-path="url(#clip-path-2)">
            <path id="Trazado_236864" data-name="Trazado 236864" d="M175.257,181.667l-10.8,8.774s-2.642.055-3.472.927-4.019,7.355-3.566,8.24,5.784,2.632,6.908,1.586,3.076-7.044,3.038-7.685l13.8-9.259Z" transform="translate(2.422 2.796)" fill="#ebb376"/>
            <path id="Trazado_236865" data-name="Trazado 236865" d="M169.284,186.215l2.417,5.27s14.855-6.955,18.074-11.007c.822-1.046,1.96-2.711,3.188-4.61,2.021-3.138,4.305-6.915,5.889-9.565,1.178-1.98,1.97-3.33,1.97-3.33l-8.407-13.261c-1.838,1.411-7.463,24.075-8.468,25.293s-14.662,11.21-14.662,11.21" transform="translate(2.605 2.304)" fill="#e8e8e8"/>
          </g>
        </g>
        <g id="Grupo_182252" data-name="Grupo 182252" transform="translate(118.189 152.016)">
          <g id="Grupo_182251" data-name="Grupo 182251" clip-path="url(#clip-path-18)">
            <g id="Grupo_182250" data-name="Grupo 182250" transform="translate(23.672 6.945)" opacity="0.1" style="isolation: isolate">
              <g id="Grupo_182249" data-name="Grupo 182249">
                <g id="Grupo_182248" data-name="Grupo 182248" clip-path="url(#clip-path-19)">
                  <path id="Trazado_236866" data-name="Trazado 236866" d="M192.6,175.763c2.021-3.138,4.305-6.915,5.889-9.565l-3.909-9.646s-2.122,11.068-1.98,19.211" transform="translate(-192.598 -156.552)"/>
                </g>
              </g>
            </g>
          </g>
        </g>
        <g id="Grupo_182272" data-name="Grupo 182272" transform="translate(-53.701)">
          <g id="Grupo_182271" data-name="Grupo 182271" clip-path="url(#clip-path-2)">
            <path id="Trazado_236868" data-name="Trazado 236868" d="M260.048,132.49l10.647-8.264s.861-2.5,1.946-3.021,8.233-1.574,8.936-.871.734,6.312-.605,7.061-7.648.771-8.246.538l-11.629,8.5Z" transform="translate(4.002 1.848)" fill="#ebb376"/>
            <path id="Trazado_236869" data-name="Trazado 236869" d="M171.525,356.319l6.374,1.125,2.615-8.691,2.385-7.977-7.349-2.567-2.134,9.587Z" transform="translate(2.64 5.205)" fill="#ebb376"/>
            <g id="Grupo_182255" data-name="Grupo 182255" transform="translate(176.019 343.459)" opacity="0.2" style="isolation: isolate">
              <g id="Grupo_182254" data-name="Grupo 182254">
                <g id="Grupo_182253" data-name="Grupo 182253" clip-path="url(#clip-path-21)">
                  <path id="Trazado_236870" data-name="Trazado 236870" d="M173.351,347.993l7.1.935,2.4-8.064-7.342-2.611Z" transform="translate(-173.351 -338.253)"/>
                </g>
              </g>
            </g>
            <path id="Trazado_236871" data-name="Trazado 236871" d="M213.433,356.475h6.472l1.063-8.685.962-8.106-7.683-1.168-.435,9.524Z" transform="translate(3.285 5.21)" fill="#ebb376"/>
            <g id="Grupo_182258" data-name="Grupo 182258" transform="translate(217.096 343.853)" opacity="0.2" style="isolation: isolate">
              <g id="Grupo_182257" data-name="Grupo 182257">
                <g id="Grupo_182256" data-name="Grupo 182256" clip-path="url(#clip-path-22)">
                  <path id="Trazado_236872" data-name="Trazado 236872" d="M213.806,348.609l7.156-.315.962-8.359-7.683-1.294Z" transform="translate(-213.806 -338.642)"/>
                </g>
              </g>
            </g>
            <path id="Trazado_236873" data-name="Trazado 236873" d="M172.76,343.318l10.479,1.847c10.573-26.344,18.1-48.335,23.406-66.583,2.861-9.847,5.129-18.6,6.842-26.373l-.442,28.679v64.688h10.567c25.884-122.862,7.54-151.425,7.54-151.425l-30.966-5.176a140.956,140.956,0,0,0-2.593,17.388l-1.4,10.269L184.09,279.152Z" transform="translate(2.659 2.908)" fill="#12263f"/>
            <path id="Trazado_236874" data-name="Trazado 236874" d="M184.895,341.589l-13-4.309.177,5.529,10.749,3.428Z" transform="translate(2.645 5.191)" fill="#407bff"/>
            <g id="Grupo_182261" data-name="Grupo 182261" transform="translate(174.542 342.47)" opacity="0.6" style="isolation: isolate">
              <g id="Grupo_182260" data-name="Grupo 182260">
                <g id="Grupo_182259" data-name="Grupo 182259" clip-path="url(#clip-path-23)">
                  <path id="Trazado_236875" data-name="Trazado 236875" d="M184.895,341.589l-13-4.309.177,5.529,10.749,3.428Z" transform="translate(-171.897 -337.28)" fill="#fff"/>
                </g>
              </g>
            </g>
            <path id="Trazado_236876" data-name="Trazado 236876" d="M224.414,342.146l-13.549-1.983L212,345.576l11.181,1.508Z" transform="translate(3.245 5.235)" fill="#407bff"/>
            <g id="Grupo_182264" data-name="Grupo 182264" transform="translate(214.11 345.397)" opacity="0.6" style="isolation: isolate">
              <g id="Grupo_182263" data-name="Grupo 182263">
                <g id="Grupo_182262" data-name="Grupo 182262" clip-path="url(#clip-path-24)">
                  <path id="Trazado_236877" data-name="Trazado 236877" d="M224.414,342.146l-13.549-1.983L212,345.576l11.181,1.508Z" transform="translate(-210.865 -340.162)" fill="#fff"/>
                </g>
              </g>
            </g>
            <g id="Grupo_182267" data-name="Grupo 182267" transform="translate(207.878 219.137)" opacity="0.2" style="isolation: isolate">
              <g id="Grupo_182266" data-name="Grupo 182266">
                <g id="Grupo_182265" data-name="Grupo 182265" clip-path="url(#clip-path-25)">
                  <path id="Trazado_236878" data-name="Trazado 236878" d="M204.727,282.992c.488-1.636,1.008-3.244,1.468-4.823,2.593-8.937,4.327-16.975,6.357-24.191v-.019l1.059-13.282s-6.624-14.593-4.146-24.861c-.229.584-4.613,11.77-2.891,22.947a325.534,325.534,0,0,1-1.848,44.229" transform="translate(-204.727 -215.816)"/>
                </g>
              </g>
            </g>
            <path id="Trazado_236879" data-name="Trazado 236879" d="M203.963,136.993a1.5,1.5,0,0,0,.27.148,11.426,11.426,0,0,0,4.219,1.425c4.32.421,7.112-.526,8.734-2.666h.009c2.248-3.188,2.247-8.317,1.085-14.351a23.007,23.007,0,0,0-2.254-6.932c-.011-.017-.02-.087-.032-.106-.048-.071-.09-.174-.138-.244a8.375,8.375,0,0,0-6.761-4.275,16.981,16.981,0,0,0-3.648.065c-11.878,1.421-11.456,21.346-1.484,26.937" transform="translate(3.024 1.692)" fill="#ebb376"/>
            <g id="Grupo_182270" data-name="Grupo 182270" transform="translate(207.258 137.258)" opacity="0.2" style="isolation: isolate">
              <g id="Grupo_182269" data-name="Grupo 182269">
                <g id="Grupo_182268" data-name="Grupo 182268" clip-path="url(#clip-path-26)">
                  <path id="Trazado_236880" data-name="Trazado 236880" d="M204.117,136.752a11.1,11.1,0,0,0,4.2,1.258c4.321.422,7.094-.662,8.712-2.832a11.926,11.926,0,0,1-7.605.362,6.218,6.218,0,0,0-5.3,1.211" transform="translate(-204.117 -135.178)"/>
                </g>
              </g>
            </g>
            <path id="Trazado_236881" data-name="Trazado 236881" d="M203.252,146.5c-1.066,3.318,3.188,5.13,3.188,5.13,7.482-2.361,9.19-6.05,9.19-6.05-5.684-3.711-3.083-12.379-3.083-12.379l-1.278.48-8.718.834s1.926,4.788,2.138,5.857c0,.009.008.019.007.029,1.076,5.587-1.445,6.1-1.445,6.1" transform="translate(3.117 2.05)" fill="#ebb376"/>
            <path id="Trazado_236882" data-name="Trazado 236882" d="M216.119,114.577s1.736,8.234-5.681,12.831c0,0-2.26,9.082-7.228,9.852-6.772,1.051-14.017-7.837-12.945-17.989,1.39-13.164,20.6-16.72,25.854-4.7" transform="translate(2.927 1.65)" fill="#263238"/>
            <path id="Trazado_236883" data-name="Trazado 236883" d="M213.832,124.283c-.172-1.3-1.5-3.341-3.477-2.782-2.048.578-2.535,5.874,2.745,6.356.757.069,1.091-.867.732-3.574" transform="translate(3.215 1.868)" fill="#ebb376"/>
            <path id="Trazado_236884" data-name="Trazado 236884" d="M220.624,354.995H213.4a.659.659,0,0,0-.641.517l-1.484,6.7a1.11,1.11,0,0,0,.856,1.316,1.177,1.177,0,0,0,.245.023c2.957-.048,3.194-.23,6.909-.23,2.287,0,9.186.24,12.344.24s3.569-3.12,2.278-3.407c-5.8-1.263-10.164-3.015-12.02-4.68a1.813,1.813,0,0,0-1.262-.478" transform="translate(3.251 5.463)" fill="#263238"/>
            <path id="Trazado_236885" data-name="Trazado 236885" d="M220.992,356.047a.183.183,0,0,1-.134-.153.162.162,0,0,1,.086-.172c.268-.173,2.7-1.665,3.532-1.235a.536.536,0,0,1,.306.5,1.052,1.052,0,0,1-.373.956,2.242,2.242,0,0,1-1.446.383,8.974,8.974,0,0,1-1.971-.277m.517-.249a3.655,3.655,0,0,0,2.68-.134.738.738,0,0,0,.239-.642c-.009-.143-.067-.21-.115-.21a.419.419,0,0,0-.23-.048,7.3,7.3,0,0,0-2.574,1.034" transform="translate(3.399 5.454)" fill="#407bff"/>
            <path id="Trazado_236886" data-name="Trazado 236886" d="M220.945,356.111a.192.192,0,0,1-.086-.163c.009-.1.191-2.267,1.062-2.975a.955.955,0,0,1,.755-.23.585.585,0,0,1,.575.469c.153.794-1.349,2.45-2.124,2.872h-.086a.162.162,0,0,1-.1.028m1.205-2.928a4.216,4.216,0,0,0-.89,2.354c.775-.584,1.731-1.837,1.636-2.325-.009-.048-.028-.182-.258-.182h-.086a.615.615,0,0,0-.4.153" transform="translate(3.399 5.428)" fill="#407bff"/>
            <path id="Trazado_236887" data-name="Trazado 236887" d="M178.188,354.995h-7.224a.659.659,0,0,0-.641.517l-1.483,6.7a1.11,1.11,0,0,0,.856,1.316,1.17,1.17,0,0,0,.245.023c2.957-.048,3.194-.23,6.908-.23,2.287,0,9.186.24,12.344.24s3.569-3.12,2.278-3.407c-5.8-1.263-10.163-3.015-12.019-4.68a1.816,1.816,0,0,0-1.263-.478" transform="translate(2.598 5.463)" fill="#263238"/>
            <path id="Trazado_236888" data-name="Trazado 236888" d="M178.556,356.047a.183.183,0,0,1-.134-.153.162.162,0,0,1,.086-.172c.268-.173,2.7-1.665,3.532-1.235a.536.536,0,0,1,.306.5,1.052,1.052,0,0,1-.373.956,2.242,2.242,0,0,1-1.446.383,8.975,8.975,0,0,1-1.971-.277m.517-.249a3.655,3.655,0,0,0,2.68-.134.738.738,0,0,0,.239-.642c-.009-.143-.066-.21-.115-.21a.417.417,0,0,0-.229-.048,7.3,7.3,0,0,0-2.574,1.034" transform="translate(2.746 5.454)" fill="#407bff"/>
            <path id="Trazado_236889" data-name="Trazado 236889" d="M178.509,356.111a.192.192,0,0,1-.086-.163c.009-.1.191-2.267,1.062-2.975a.955.955,0,0,1,.755-.23.585.585,0,0,1,.575.469c.152.794-1.349,2.45-2.124,2.872H178.6a.162.162,0,0,1-.1.028m1.205-2.928a4.216,4.216,0,0,0-.889,2.354c.775-.584,1.731-1.837,1.636-2.325-.009-.048-.028-.182-.258-.182h-.086a.616.616,0,0,0-.4.153" transform="translate(2.746 5.428)" fill="#407bff"/>
            <path id="Trazado_236890" data-name="Trazado 236890" d="M230.855,194.978s5.908-35.995-4.245-52.132c0,0-20.278-1.26-34.545,6.975,0,0,5.9,16.025,6.773,45.157Z" transform="translate(2.956 2.197)" fill="#afafaf"/>
          </g>
        </g>
        <g id="Grupo_182277" data-name="Grupo 182277" transform="translate(141.319 144.974)">
          <g id="Grupo_182276" data-name="Grupo 182276" clip-path="url(#clip-path-27)">
            <g id="Grupo_182275" data-name="Grupo 182275" transform="translate(32.606 3.316)" opacity="0.1" style="isolation: isolate">
              <g id="Grupo_182274" data-name="Grupo 182274">
                <g id="Grupo_182273" data-name="Grupo 182273" clip-path="url(#clip-path-28)">
                  <path id="Trazado_236891" data-name="Trazado 236891" d="M232.211,167.381c.437-4.884-.976-9.585-1.219-13.728a39.839,39.839,0,0,1-6.675-7.61s-1.847,14.581,7.895,21.338" transform="translate(-224.177 -146.043)"/>
                </g>
              </g>
            </g>
          </g>
        </g>
        <g id="Grupo_182279" data-name="Grupo 182279" transform="translate(-53.701)">
          <g id="Grupo_182278" data-name="Grupo 182278" clip-path="url(#clip-path-2)">
            <path id="Trazado_236893" data-name="Trazado 236893" d="M223.618,142.99s20.1-2.356,23.118-3.623c1.893-.794,16.664-10.446,16.664-10.446l3.463,5.156S251.75,146.282,249.2,147.684c-5.993,3.292-19.458,7.933-19.458,7.933s-8.136-5.655-6.12-12.627" transform="translate(3.437 1.984)" fill="#f6f6f6"/>
            <path id="Trazado_236894" data-name="Trazado 236894" d="M216.008,120.078s8.353-8.353.476-13.976-15.8,1.713-15.8,1.713-18.855,4.554-14.841,17.086,6.636,13.6.666,20.03-12.071,15.952-5.968,22.036,27.432-.175,33.906-9.364-4.967-28.905,1.557-37.525" transform="translate(2.74 1.6)" fill="#263238"/>
            <path id="Trazado_236895" data-name="Trazado 236895" d="M198.737,194.239l-.128-3.414,32.516.826v3.157Z" transform="translate(3.057 2.937)"/>
            <rect id="Rectángulo_59595" data-name="Rectángulo 59595" width="1.31" height="3.363" transform="translate(210.792 193.993)" fill="#263238"/>
            <rect id="Rectángulo_59596" data-name="Rectángulo 59596" width="1.157" height="3.671" transform="translate(225.956 194.379)" fill="#263238"/>
            <rect id="Rectángulo_59597" data-name="Rectángulo 59597" width="1.106" height="3.932" transform="translate(202.559 193.813)" fill="#263238"/>
          </g>
        </g>
      </g>
    </g>
  </g>
</svg>
