<svg xmlns="http://www.w3.org/2000/svg" xmlns:xlink="http://www.w3.org/1999/xlink" width="93" height="94" viewBox="0 0 93 94">
  <defs>
    <clipPath id="clip-path">
      <rect id="Rectángulo_52831" data-name="Rectángulo 52831" width="52.944" height="52.96" fill="#12263f"/>
    </clipPath>
  </defs>
  <g id="Grupo_179390" data-name="Grupo 179390" transform="translate(0.275 -0.334)">
    <ellipse id="Elipse_4870" data-name="Elipse 4870" cx="46.5" cy="47" rx="46.5" ry="47" transform="translate(-0.275 0.334)" fill="#26aab7"/>
    <g id="Grupo_173679" data-name="Grupo 173679" transform="translate(20.529 48.021)">
      <g id="Grupo_173678" data-name="Grupo 173678" transform="translate(0 -28)" clip-path="url(#clip-path)">
        <path id="Trazado_214819" data-name="Trazado 214819" d="M52.944,52.96H0V27.339H1.71c0-1.478,0-2.882,0-4.286A11.076,11.076,0,0,1,8.556,12.819c.16-.067.317-.141.493-.22A6.892,6.892,0,0,1,7.77,2.227a6.807,6.807,0,0,1,9.746-.333,6.566,6.566,0,0,1,2.116,4.63A6.877,6.877,0,0,1,16.547,12.6a11.186,11.186,0,0,1,4.56,3.11,13.973,13.973,0,0,1,2.021-.308q11.046-.031,22.093-.012a4.235,4.235,0,0,1,4.3,4.284c.007,2.348,0,4.7,0,7.045v.631h3.418ZM45.235,42.681H23.095v-1.7h3.348V37.585c-1.165,0-2.3.006-3.434,0a4.274,4.274,0,0,1-3.99-2.849c-.061-.172-.113-.348-.168-.522-.066,2.133-.108,4.25-.049,6.364a2.4,2.4,0,0,1-1.28,2.277,7.015,7.015,0,0,1-1.188.6,14.046,14.046,0,0,1-8.478.577,16.508,16.508,0,0,1-3.126-1.16A2.266,2.266,0,0,1,3.4,40.577c.06-2.08.03-4.162.01-6.244a1.879,1.879,0,0,1,.68-1.551,5.243,5.243,0,0,1,1.239-.815,14.274,14.274,0,0,1,11.44-.053A3.524,3.524,0,0,1,18.762,33.7V29.077H1.742V46.09H51.212V29.077H49.526c0,1.451.007,2.871,0,4.29a4.157,4.157,0,0,1-3.37,4.1,16.458,16.458,0,0,1-2.548.114c-.579.015-1.159,0-1.722,0v3.442h3.351Zm2.587-11.948v-.566q0-5.1,0-10.193a2.618,2.618,0,0,0-2.872-2.884q-10.779,0-21.558,0A2.622,2.622,0,0,0,20.493,20q0,5.07,0,10.14v.593Zm-29.034-3.4v-.56c0-1.974.023-3.949-.007-5.923a5.244,5.244,0,0,1,1.168-4.085c-.3-.226-.572-.4-.811-.612a9.254,9.254,0,0,0-7.416-2.393,9.191,9.191,0,0,0-8.065,7.455,48.211,48.211,0,0,0-.24,5.74,2.735,2.735,0,0,0,.031.35H5.993V19.69H7.707v7.64ZM1.73,51.216H51.194V47.862H1.73ZM47.87,32.5H20.493c0,.285-.005.532,0,.779a2.569,2.569,0,0,0,2.618,2.6q11.045.017,22.091,0a2.515,2.515,0,0,0,2.486-1.815A11.141,11.141,0,0,0,47.87,32.5M12.829,1.719A5.168,5.168,0,0,0,7.686,6.836a5.123,5.123,0,0,0,10.245.04,5.167,5.167,0,0,0-5.1-5.156M28.213,40.966h11.88V37.6H28.213ZM17.124,34.114a11.338,11.338,0,0,0-.993-.592,11.816,11.816,0,0,0-4.32-1.025,12.113,12.113,0,0,0-5.9,1.1,6.527,6.527,0,0,0-.832.553c2.694,2.242,9.375,2.242,12.041-.039m-.092,2.232a14.787,14.787,0,0,1-11.879-.008c-.12,1.4-.072,1.524,1.176,2.015a12.629,12.629,0,0,0,9.644-.039c1.12-.449,1.225-.686,1.059-1.968M5.16,39.756c-.142,1.375-.078,1.519,1.163,2.011a12.084,12.084,0,0,0,7.252.662,20.958,20.958,0,0,0,2.955-1,1.08,1.08,0,0,0,.528-.645,3.917,3.917,0,0,0,.022-1.042,14.815,14.815,0,0,1-11.92.014" transform="translate(0 0)" fill="#12263f"/>
        <path id="Trazado_214820" data-name="Trazado 214820" d="M203.469,8.179a2.688,2.688,0,0,1-2.143.288,2.57,2.57,0,1,1,3.264-2.085.559.559,0,0,0,.266.651c.873.641,1.737,1.295,2.609,1.947a2.751,2.751,0,0,1,2.322-.263.542.542,0,0,0,.438-.148c.992-.97,1.975-1.949,2.939-2.947a.66.66,0,0,0,.109-.538,2.6,2.6,0,0,1,.975-2.882,2.568,2.568,0,0,1,2.949,0,2.6,2.6,0,0,1,.985,2.88.858.858,0,0,0,.14.581,3.454,3.454,0,0,0,.479.5c.5.534.948,1.153,1.849.728a.961.961,0,0,1,.728.043c.462.223.732.044,1.045-.283.873-.912,1.788-1.784,2.662-2.7a.712.712,0,0,0,.141-.577A2.571,2.571,0,1,1,230.179,2,2.526,2.526,0,0,1,228.25,5.08a6.716,6.716,0,0,1-1.363-.041.842.842,0,0,0-.538.128q-1.477,1.428-2.9,2.906a.711.711,0,0,0-.138.578A2.573,2.573,0,0,1,221.5,11.9a2.517,2.517,0,0,1-3.134-1.9,3.066,3.066,0,0,1,.05-1.306.585.585,0,0,0-.193-.686,4,4,0,0,1-.416-.413c-.505-.562-.974-1.173-1.889-.756a.87.87,0,0,1-.677-.033c-.538-.289-.83,0-1.168.354-.825.86-1.673,1.7-2.527,2.529a.609.609,0,0,0-.206.729,2.476,2.476,0,0,1-.853,2.72,2.563,2.563,0,0,1-2.9.2,2.5,2.5,0,0,1-1.22-2.584.552.552,0,0,0-.267-.651c-.846-.62-1.682-1.253-2.523-1.881a.659.659,0,0,0-.11-.051m24.187-6.435a.89.89,0,0,0-.823.875.849.849,0,1,0,1.7-.051.892.892,0,0,0-.874-.824M215.724,3.452a.89.89,0,0,0-.847.851.849.849,0,1,0,1.7,0,.89.89,0,0,0-.85-.847m-12.812,2.54a.849.849,0,1,0-1.7.035.849.849,0,1,0,1.7-.035m17.955,4.283A.849.849,0,1,0,220,9.444a.891.891,0,0,0,.866.831m-11.974,1.708a.849.849,0,1,0-.847-.851.891.891,0,0,0,.847.851" transform="translate(-178.154 -0.021)" fill="#12263f"/>
        <path id="Trazado_214821" data-name="Trazado 214821" d="M236.3,184.575H238v1.655H215.859v-1.647h1.671v-6.827h5.112v6.775h1.7v-5.057h5.131v5.046h1.717v-8.471H236.3Zm-1.722-6.805h-1.646v6.769h1.646Zm-13.652,1.7h-1.649v5.073h1.649Zm5.166,5.053h1.664v-3.343h-1.664Z" transform="translate(-192.771 -157.221)" fill="#12263f"/>
      </g>
    </g>
  </g>
</svg>
