<svg id="Grupo_891393" data-name="Grupo 891393" xmlns="http://www.w3.org/2000/svg" xmlns:xlink="http://www.w3.org/1999/xlink" width="236.514" height="222" viewBox="0 0 236.514 222">
  <defs>
    <clipPath id="clip-path">
      <rect id="Rectángulo_60363" data-name="Rectángulo 60363" width="236.514" height="222" fill="none"/>
    </clipPath>
    <clipPath id="clip-path-2">
      <rect id="Rectángulo_60303" data-name="Rectángulo 60303" width="236.514" height="221.999" fill="none"/>
    </clipPath>
    <clipPath id="clip-path-3">
      <rect id="Rectángulo_60301" data-name="Rectángulo 60301" width="222.859" height="11.421" fill="none"/>
    </clipPath>
    <clipPath id="clip-path-4">
      <rect id="Rectángulo_60302" data-name="Rectángulo 60302" width="49.227" height="7.956" fill="none"/>
    </clipPath>
    <clipPath id="clip-path-5">
      <rect id="Rectángulo_60305" data-name="Rectángulo 60305" width="164.041" height="129.504" rx="2.41" fill="#f6f6f6"/>
    </clipPath>
    <clipPath id="clip-path-7">
      <rect id="Rectángulo_60306" data-name="Rectángulo 60306" width="5.241" height="1.346" fill="none"/>
    </clipPath>
    <clipPath id="clip-path-8">
      <rect id="Rectángulo_60335" data-name="Rectángulo 60335" width="3.458" height="3.666" fill="#4adbd1"/>
    </clipPath>
    <clipPath id="clip-path-9">
      <rect id="Rectángulo_60341" data-name="Rectángulo 60341" width="3.458" height="3.665" fill="#4adbd1"/>
    </clipPath>
    <clipPath id="clip-path-10">
      <rect id="Rectángulo_60342" data-name="Rectángulo 60342" width="72.65" height="29.481" fill="none"/>
    </clipPath>
    <clipPath id="clip-path-11">
      <rect id="Rectángulo_60356" data-name="Rectángulo 60356" width="66.95" height="27.168" fill="none"/>
    </clipPath>
    <clipPath id="clip-path-14">
      <rect id="Rectángulo_60360" data-name="Rectángulo 60360" width="5.57" height="1.884" fill="none"/>
    </clipPath>
    <clipPath id="clip-path-15">
      <rect id="Rectángulo_60361" data-name="Rectángulo 60361" width="20.507" height="20.507" fill="#4adbd1"/>
    </clipPath>
  </defs>
  <g id="Grupo_183476" data-name="Grupo 183476" clip-path="url(#clip-path)">
    <g id="Grupo_183446" data-name="Grupo 183446" transform="translate(0 0.001)">
      <g id="Grupo_183445" data-name="Grupo 183445" clip-path="url(#clip-path-2)">
        <g id="Grupo_183441" data-name="Grupo 183441" transform="translate(13.655 189.154)" opacity="0.65" style="mix-blend-mode: multiply;isolation: isolate">
          <g id="Grupo_183440" data-name="Grupo 183440">
            <g id="Grupo_183439" data-name="Grupo 183439" clip-path="url(#clip-path-3)">
              <path id="Trazado_238385" data-name="Trazado 238385" d="M228.231,80.125c0,3.155-49.888,5.712-111.431,5.712S5.372,83.279,5.372,80.125,55.26,74.413,116.8,74.413s111.431,2.557,111.431,5.712" transform="translate(-5.372 -74.415)" fill="#c7d4e2"/>
            </g>
          </g>
        </g>
        <g id="Grupo_183444" data-name="Grupo 183444" transform="translate(170.656 213.215)" opacity="0.65" style="mix-blend-mode: multiply;isolation: isolate">
          <g id="Grupo_183443" data-name="Grupo 183443">
            <g id="Grupo_183442" data-name="Grupo 183442" clip-path="url(#clip-path-4)">
              <path id="Trazado_238386" data-name="Trazado 238386" d="M116.363,87.857c0,2.2-11.019,3.978-24.614,3.978s-24.614-1.782-24.614-3.978,11.019-3.978,24.614-3.978,24.614,1.782,24.614,3.978" transform="translate(-67.137 -83.88)" fill="#c7d4e2"/>
            </g>
          </g>
        </g>
        <path id="Trazado_238387" data-name="Trazado 238387" d="M11.376,154.565V30.142A8.937,8.937,0,0,1,20.313,21.2H186.825a8.937,8.937,0,0,1,8.937,8.937V154.565a8.939,8.939,0,0,1-8.937,8.94H20.313a8.939,8.939,0,0,1-8.937-8.94" transform="translate(17.541 32.696)" fill="#12263f"/>
      </g>
    </g>
    <g id="Grupo_183448" data-name="Grupo 183448" transform="translate(40.976 60.298)">
      <g id="Grupo_183447" data-name="Grupo 183447" clip-path="url(#clip-path-5)">
        <rect id="Rectángulo_60304" data-name="Rectángulo 60304" width="202.614" height="185.182" transform="translate(-48.256 21.576) rotate(-24.09)" fill="#f6f6f6"/>
      </g>
    </g>
    <g id="Grupo_183465" data-name="Grupo 183465" transform="translate(0 0.001)">
      <g id="Grupo_183464" data-name="Grupo 183464" clip-path="url(#clip-path-2)">
        <path id="Trazado_238388" data-name="Trazado 238388" d="M15.531,55.147a3.137,3.137,0,1,1,3.137-3.137,3.135,3.135,0,0,1-3.137,3.137" transform="translate(19.111 75.36)" fill="#6f95d4"/>
        <path id="Trazado_238389" data-name="Trazado 238389" d="M19.354,19.165c10.137.862,20.491,1.149,30.325-.43L35.444,27.083Z" transform="translate(29.843 28.888)" fill="#3b5cad"/>
        <path id="Trazado_238390" data-name="Trazado 238390" d="M32.831,17.427c1.106-.63,3.393-1.881,4.54-2.433,1.922,6.619,1.167,8.31-1.124,8.574a12,12,0,0,1-2.257.13,15.155,15.155,0,0,1-5.272-1.116c.112-.6.086-1.853.2-2.456,1.5-.244,3.2-.6,4.692-.844Z" transform="translate(44.281 23.119)" fill="#f7c5b4"/>
        <path id="Trazado_238391" data-name="Trazado 238391" d="M24.293,17.427c-1.106-.63-3.393-1.881-4.54-2.433-1.922,6.619-1.167,8.31,1.124,8.574a11.255,11.255,0,0,0,2.654.173,17.42,17.42,0,0,0,4.875-1.075c-.112-.6-.086-1.937-.2-2.539-1.5-.244-3.2-.6-4.692-.844Z" transform="translate(28.77 23.119)" fill="#f7c5b4"/>
        <path id="Trazado_238392" data-name="Trazado 238392" d="M26.107,34.026c-.005-2.674-.8-7.974-1.019-11.6l-1.21,2.55-4.842-2.57a25.283,25.283,0,0,1,2.758-5.333c2-3.238,4.537-4.919,8.426-6.037a18.576,18.576,0,0,1,5.338-.854h.267a25.982,25.982,0,0,1,5.641.73c3.711.844,6.711,3.617,8.706,6.856a28.791,28.791,0,0,1,2.4,4.5L47.5,24.979l-1.213-2.55c-.267,3.9-.958,7.865-1.263,11.6Z" transform="translate(29.351 15.704)" fill="#afafaf"/>
        <path id="Trazado_238393" data-name="Trazado 238393" d="M26.654,7.884a42.3,42.3,0,0,1-1.012,4.987,6.429,6.429,0,0,1-2.064,1.614s.122,1.988,5.379,2.039c5.17.051,5.5-2.059,5.5-2.059-.5-.28-1.947-.73-2.186-1.594-.112-.4-.8-3.716-.938-4.835Z" transform="translate(36.356 12.156)" fill="#f7c5b4"/>
        <path id="Trazado_238394" data-name="Trazado 238394" d="M34.933,6.632c.437,2.372-.186,7.145-.694,9.031a5.9,5.9,0,0,1-.923,2.181,5.1,5.1,0,0,1-6.759,1.4,4.97,4.97,0,0,1-1.894-2.234,15.992,15.992,0,0,1-1.169-7.519s-.285-6.657,6.525-6.657c0,0,4.181-.16,4.914,3.8" transform="translate(36.134 4.364)" fill="#f7c5b4"/>
        <path id="Trazado_238395" data-name="Trazado 238395" d="M24.237,8.138a.492.492,0,0,1-.686.046,1.1,1.1,0,0,1-.341-.674,3.255,3.255,0,0,1-.056-.752.824.824,0,0,1,.153-.508.475.475,0,0,1,.491-.142.482.482,0,0,1,.328.391Z" transform="translate(35.697 9.386)" fill="#f7c5b4"/>
        <path id="Trazado_238396" data-name="Trazado 238396" d="M27.95,6.5a.558.558,0,0,1,.328-.391.472.472,0,0,1,.488.142.81.81,0,0,1,.155.508,3.255,3.255,0,0,1-.056.752,1.117,1.117,0,0,1-.341.674.491.491,0,0,1-.686-.046A3.8,3.8,0,0,1,27.95,6.5" transform="translate(42.858 9.386)" fill="#f7c5b4"/>
        <path id="Trazado_238397" data-name="Trazado 238397" d="M25.9,7.047a10.834,10.834,0,0,0-.165,1.263,2.143,2.143,0,0,0-.01.58c.043.092.323.142.516.178a.073.073,0,0,1-.01.145l-.01,0c-.214-.043-.44.033-.684-.219-.119-.3,0-.48,0-.7a10.144,10.144,0,0,1,.241-1.3.064.064,0,0,1,.125.033Z" transform="translate(39.293 10.708)" fill="#da806c"/>
        <path id="Trazado_238398" data-name="Trazado 238398" d="M26.071,7.8a1.017,1.017,0,0,1,.267-1.073l.076.094.236-.211.1.076a3.378,3.378,0,0,1,1.967-.595,1.1,1.1,0,0,1,.824.287.408.408,0,0,1-.231.1A5.285,5.285,0,0,0,26.168,7.83s-.074.036-.1-.033" transform="translate(40.118 9.386)" fill="#3c3c3b"/>
        <path id="Trazado_238399" data-name="Trazado 238399" d="M24.574,4.855c-.432.709-2.069,3.889-1.029,6.67a.527.527,0,0,0,.2.292c.216.119.465-.074.628-.259a6.479,6.479,0,0,0,1.337-2.285,4.733,4.733,0,0,0,.2-1.947A4.613,4.613,0,0,0,26.948,9.2a2.466,2.466,0,0,0,.572.531.416.416,0,0,0,.513-.1.573.573,0,0,0,.051-.381,3.65,3.65,0,0,0-.313-1.118,7.89,7.89,0,0,0,2.88,1.973c.336.1.775.125.963-.173a.762.762,0,0,0,.058-.541A2.5,2.5,0,0,0,31.1,8.187a6.046,6.046,0,0,0,2.168,1.774,2.66,2.66,0,0,0,1.426.32c.491-.056,1.037-.292,1.088-.783A7.383,7.383,0,0,0,34.866,5.1c-2.5-3.765-5.709-2.084-6.383-2.171a4.068,4.068,0,0,0-3.909,1.922" transform="translate(35.779 4.059)" fill="#3c3c3b"/>
        <path id="Trazado_238400" data-name="Trazado 238400" d="M27.661,5.243A4.85,4.85,0,0,0,28.185,8.2c.056.1.132.219.249.236a.268.268,0,0,0,.254-.137.822.822,0,0,0,.092-.29,5.372,5.372,0,0,0-.058-3.1.517.517,0,0,0-.125-.193.4.4,0,0,0-.252-.079.706.706,0,0,0-.694.7" transform="translate(42.577 7.159)" fill="#3c3c3b"/>
        <g id="Grupo_183451" data-name="Grupo 183451" transform="translate(62.691 23.589)" style="mix-blend-mode: multiply;isolation: isolate">
          <g id="Grupo_183450" data-name="Grupo 183450">
            <g id="Grupo_183449" data-name="Grupo 183449" clip-path="url(#clip-path-7)">
              <path id="Trazado_238401" data-name="Trazado 238401" d="M29.9,9.28a5.038,5.038,0,0,1-5.241.018s2.727,3,5.241-.018" transform="translate(-24.663 -9.28)" fill="#f7c5b4"/>
            </g>
          </g>
        </g>
        <path id="Trazado_238402" data-name="Trazado 238402" d="M27.363,7.8A1.017,1.017,0,0,0,27.1,6.724c-.025.031-.051.064-.079.094-.076-.071-.155-.14-.234-.211l-.1.076a3.378,3.378,0,0,0-1.967-.595,1.1,1.1,0,0,0-.824.287.408.408,0,0,0,.231.1A5.285,5.285,0,0,1,27.267,7.83s.074.036.1-.033" transform="translate(36.838 9.386)" fill="#3c3c3b"/>
        <path id="Trazado_238403" data-name="Trazado 238403" d="M27.1,8.1a1.587,1.587,0,0,1-1.551.73.083.083,0,0,1-.071-.094.084.084,0,0,1,.079-.071,2.189,2.189,0,0,0,1.423-.656.074.074,0,0,1,.107,0A.077.077,0,0,1,27.1,8.1" transform="translate(39.289 12.317)" fill="#da806c"/>
        <path id="Trazado_238404" data-name="Trazado 238404" d="M27.444,7.505c0,.29-.178.524-.394.524a.473.473,0,0,1-.4-.524c0-.29.178-.526.4-.526s.394.236.394.526" transform="translate(41.097 10.761)" fill="#3c3c3b"/>
        <path id="Trazado_238405" data-name="Trazado 238405" d="M25.064,7.5c0,.29-.178.526-.394.526s-.4-.236-.4-.526.178-.526.4-.526.394.236.394.526" transform="translate(37.427 10.759)" fill="#3c3c3b"/>
        <path id="Trazado_238406" data-name="Trazado 238406" d="M41.777,29.977H22.964A1.878,1.878,0,0,1,21.088,28.1V16.027a1.876,1.876,0,0,1,1.876-1.876H41.777a1.875,1.875,0,0,1,1.876,1.876V28.1a1.876,1.876,0,0,1-1.876,1.876" transform="translate(32.516 21.819)" fill="#4adbd1"/>
        <path id="Trazado_238407" data-name="Trazado 238407" d="M23.338,31.273c8.358-.236,17.265-.724,25.1-3.64a11.106,11.106,0,0,0,3.5-1.873,4.537,4.537,0,0,0,1.683-3.467,4.5,4.5,0,0,0-3.088-3.777,9.854,9.854,0,0,0-5.109-.163c-7.687,1.378-14.975,6.3-22.514,8.892Z" transform="translate(35.319 27.905)" fill="#dee4f0"/>
        <path id="Trazado_238408" data-name="Trazado 238408" d="M29.654,22.046c-1.782-.13-3.49-.376-5.275-.371a11.761,11.761,0,0,0-3.724.442,3.814,3.814,0,0,0-1.457.829,1.979,1.979,0,0,0-.646,1.439,2.288,2.288,0,0,0,1.266,1.8,5.823,5.823,0,0,0,2.308.608,18.109,18.109,0,0,0,7.923-1.042Z" transform="translate(28.607 33.421)" fill="#003a70"/>
        <path id="Trazado_238409" data-name="Trazado 238409" d="M40.8,18.63c-2.992,1.19-5.892,2.565-8.772,4.006a62.269,62.269,0,0,1-8.945,3.625,95.52,95.52,0,0,0,8.8-3.932,69.8,69.8,0,0,1,8.917-3.7" transform="translate(35.599 28.726)" fill="#003a70"/>
        <path id="Trazado_238410" data-name="Trazado 238410" d="M45.786,31.015c-8.358-.211-17.4-.666-25.246-3.559a11.142,11.142,0,0,1-3.5-1.863,4.526,4.526,0,0,1-1.693-3.465,4.5,4.5,0,0,1,3.076-3.785,9.864,9.864,0,0,1,5.112-.18c7.692,1.357,14.883,6.4,22.425,8.96Z" transform="translate(23.655 27.625)" fill="#dee4f0"/>
        <path id="Trazado_238411" data-name="Trazado 238411" d="M20.575,18.565a73.091,73.091,0,0,1,8.714,3.663c2.814,1.416,5.666,2.74,8.6,3.9a64.744,64.744,0,0,1-8.744-3.592c-2.814-1.418-5.653-2.763-8.566-3.968" transform="translate(31.725 28.625)" fill="#003a70"/>
        <path id="Trazado_238412" data-name="Trazado 238412" d="M27.318,25.55a17.551,17.551,0,0,0,7.788,1.024,5.832,5.832,0,0,0,2.308-.615,2.285,2.285,0,0,0,1.261-1.81,1.983,1.983,0,0,0-.651-1.436,3.833,3.833,0,0,0-1.459-.824,11.779,11.779,0,0,0-3.726-.43q-2.677,0-5.351.2Z" transform="translate(42.122 33.089)" fill="#003a70"/>
        <path id="Trazado_238413" data-name="Trazado 238413" d="M19.776,17.05a7.95,7.95,0,0,1,.984-.374c.361-.01.7.031,1.047.036a9.447,9.447,0,0,0-2.031.338" transform="translate(30.493 25.71)" fill="#da806c"/>
        <path id="Trazado_238414" data-name="Trazado 238414" d="M28.016,16.335c2.949.7,1.617,3.963,1.617,3.963a.936.936,0,0,1-1.057,1.251.574.574,0,0,0-.323.752,3.236,3.236,0,0,1-1.035.153,4.064,4.064,0,0,1-1.106-.153.572.572,0,0,0-.323-.752A.935.935,0,0,1,24.734,20.3s-1.291-3.1,1.617-3.963a3.2,3.2,0,0,1,1.665,0" transform="translate(37.698 25.024)" fill="#fff"/>
        <path id="Trazado_238415" data-name="Trazado 238415" d="M25.7,17.525a.523.523,0,0,1,.348-.244,1.157,1.157,0,0,1,.437.023,4.351,4.351,0,0,1,.506.132.646.646,0,0,1,.336.2.568.568,0,0,1,.092.386,1.067,1.067,0,0,1-.125.475.64.64,0,0,1-.374.3.935.935,0,0,1-.806-.29,1.112,1.112,0,0,1-.458-.717.933.933,0,0,1,.043-.267" transform="translate(39.561 26.626)" fill="#12263f"/>
        <path id="Trazado_238416" data-name="Trazado 238416" d="M26.513,17.656a.521.521,0,0,0-.285-.315,1.187,1.187,0,0,0-.432-.071,4.489,4.489,0,0,0-.524.018.672.672,0,0,0-.371.119.578.578,0,0,0-.173.358,1.033,1.033,0,0,0,.018.491.636.636,0,0,0,.3.379.945.945,0,0,0,.852-.109,1.1,1.1,0,0,0,.6-.6.871.871,0,0,0,.018-.269" transform="translate(38.098 26.626)" fill="#12263f"/>
        <path id="Trazado_238417" data-name="Trazado 238417" d="M25.751,17.682a.279.279,0,0,1,.089.076,1.407,1.407,0,0,1,.234.529.225.225,0,0,1-.018.2.113.113,0,0,1-.119.013.422.422,0,0,0-.117-.048.34.34,0,0,0-.137.033.188.188,0,0,1-.208-.015.243.243,0,0,1-.058-.18.65.65,0,0,1,.048-.2,2.316,2.316,0,0,1,.153-.32s.081-.114.135-.086" transform="translate(39.188 27.257)" fill="#12263f"/>
        <path id="Trazado_238418" data-name="Trazado 238418" d="M32.667,17.05a9.447,9.447,0,0,0-2.031-.338c.348-.005.686-.046,1.047-.036a7.949,7.949,0,0,1,.984.374" transform="translate(47.239 25.71)" fill="#da806c"/>
        <rect id="Rectángulo_60307" data-name="Rectángulo 60307" width="38.538" height="34.306" transform="translate(102.697 119.984)" fill="#f4a338"/>
        <path id="Trazado_238419" data-name="Trazado 238419" d="M42.046,53.385a15.086,15.086,0,1,1,30.173,0V60.93" transform="translate(64.832 59.054)" fill="none" stroke="#12263f" stroke-miterlimit="10" stroke-width="0.923"/>
        <path id="Trazado_238420" data-name="Trazado 238420" d="M55.5,58.264a4.677,4.677,0,1,1-4.677-4.677A4.678,4.678,0,0,1,55.5,58.264" transform="translate(71.146 82.627)" fill="#12263f"/>
        <path id="Trazado_238421" data-name="Trazado 238421" d="M53.205,54.471a3.251,3.251,0,1,1-3.251-3.251,3.252,3.252,0,0,1,3.251,3.251" transform="translate(72.013 78.977)" fill="#12263f"/>
        <line id="Línea_1988" data-name="Línea 1988" y2="53.719" transform="translate(147.491 16.786)" fill="none" stroke="#407cca" stroke-miterlimit="10" stroke-width="0.123"/>
        <line id="Línea_1989" data-name="Línea 1989" y2="49.898" transform="translate(104.55 15.714)" fill="none" stroke="#407cca" stroke-miterlimit="10" stroke-width="0.119"/>
        <path id="Trazado_238422" data-name="Trazado 238422" d="M46.709,31.464H80.436a2.147,2.147,0,0,0,0-4.293H46.709a2.147,2.147,0,0,0,0,4.293" transform="translate(68.715 41.895)" fill="#12263f"/>
        <rect id="Rectángulo_60309" data-name="Rectángulo 60309" width="3.315" height="3.627" transform="translate(145.833 73.358)" fill="#727997"/>
        <rect id="Rectángulo_60310" data-name="Rectángulo 60310" width="2.486" height="2.9" transform="translate(141.275 73.36)" fill="#727997"/>
        <rect id="Rectángulo_60311" data-name="Rectángulo 60311" width="2.59" height="2.9" transform="translate(136.405 73.36)" fill="#727997"/>
        <rect id="Rectángulo_60313" data-name="Rectángulo 60313" width="3.315" height="0.724" transform="translate(145.833 76.26)" fill="#12263f"/>
        <rect id="Rectángulo_60314" data-name="Rectángulo 60314" width="2.486" height="0.6" transform="translate(141.275 75.661)" fill="#12263f"/>
        <rect id="Rectángulo_60315" data-name="Rectángulo 60315" width="2.59" height="0.6" transform="translate(136.405 75.661)" fill="#12263f"/>
        <path id="Trazado_238423" data-name="Trazado 238423" d="M38.24,34.432A11.037,11.037,0,1,0,49.277,23.395,11.037,11.037,0,0,0,38.24,34.432" transform="translate(58.963 36.073)" fill="#12263f"/>
        <path id="Trazado_238424" data-name="Trazado 238424" d="M38.866,33.468a9.447,9.447,0,1,0,9.448-9.448,9.446,9.446,0,0,0-9.448,9.448" transform="translate(59.929 37.037)" fill="#727997"/>
        <path id="Trazado_238425" data-name="Trazado 238425" d="M40.437,29.25a2.495,2.495,0,1,0,2.494-2.494,2.493,2.493,0,0,0-2.494,2.494" transform="translate(62.351 41.255)" fill="#fff"/>
        <path id="Trazado_238426" data-name="Trazado 238426" d="M39.87,12.856c2.649-2.773,8.531-2.893,11.543-.519,2.923-6.706,12.1-9.774,18.467-6.179C71.106,2.77,76.418-1.348,84.1.429c5.175,1.2,9.809,6.195,8.454,11.332,3.576-.519,7.189,1.939,8.576,5.277A12.041,12.041,0,0,1,100.1,27.452H41.368s-8.7-7.051-1.5-14.6" transform="translate(57.079 0.001)" fill="#636363"/>
        <rect id="Rectángulo_60316" data-name="Rectángulo 60316" width="21.553" height="0.73" transform="translate(45.991 108.899)" fill="#407cca"/>
        <rect id="Rectángulo_60317" data-name="Rectángulo 60317" width="21.553" height="0.73" transform="translate(45.991 111.774)" fill="#407cca"/>
        <rect id="Rectángulo_60318" data-name="Rectángulo 60318" width="21.553" height="0.73" transform="translate(45.991 114.534)" fill="#407cca"/>
        <rect id="Rectángulo_60319" data-name="Rectángulo 60319" width="11.35" height="0.73" transform="translate(45.991 117.272)" fill="#407cca"/>
        <rect id="Rectángulo_60320" data-name="Rectángulo 60320" width="76.232" height="46.139" transform="translate(11.825 158.939)" fill="#26aab7"/>
        <path id="Trazado_238427" data-name="Trazado 238427" d="M4.652,76.513,42.768,53.458,80.884,76.513Z" transform="translate(7.173 82.428)" fill="#26aab7"/>
        <rect id="Rectángulo_60321" data-name="Rectángulo 60321" width="51.982" height="59.072" transform="translate(24.58 142.119)" fill="#fff"/>
        <rect id="Rectángulo_60322" data-name="Rectángulo 60322" width="44.702" height="1.571" transform="translate(28.218 150.902)" fill="#407cca"/>
        <rect id="Rectángulo_60323" data-name="Rectángulo 60323" width="44.702" height="1.571" transform="translate(28.218 154.722)" fill="#407cca"/>
        <rect id="Rectángulo_60324" data-name="Rectángulo 60324" width="44.702" height="1.571" transform="translate(28.218 158.749)" fill="#407cca"/>
        <rect id="Rectángulo_60325" data-name="Rectángulo 60325" width="20.249" height="1.571" transform="translate(28.218 163.052)" fill="#407cca"/>
        <rect id="Rectángulo_60326" data-name="Rectángulo 60326" width="44.702" height="1.571" transform="translate(28.218 169.486)" fill="#407cca"/>
        <rect id="Rectángulo_60327" data-name="Rectángulo 60327" width="44.702" height="1.571" transform="translate(28.218 173.306)" fill="#407cca"/>
        <rect id="Rectángulo_60328" data-name="Rectángulo 60328" width="44.702" height="1.571" transform="translate(28.218 177.333)" fill="#407cca"/>
        <rect id="Rectángulo_60329" data-name="Rectángulo 60329" width="20.249" height="1.571" transform="translate(28.218 181.636)" fill="#407cca"/>
        <path id="Trazado_238428" data-name="Trazado 238428" d="M4.652,94.672,42.768,71.6,80.884,94.672Z" transform="translate(7.173 110.407)" fill="#b2ebf2"/>
        <path id="Trazado_238429" data-name="Trazado 238429" d="M4.652,62.528,42.768,85.6,4.652,108.667Z" transform="translate(7.173 96.413)" fill="#b2ebf2"/>
        <path id="Trazado_238430" data-name="Trazado 238430" d="M57.763,62.528,19.647,85.6l38.116,23.071Z" transform="translate(30.294 96.413)" fill="#b2ebf2"/>
        <path id="Trazado_238431" data-name="Trazado 238431" d="M33.841,90.942A16.92,16.92,0,1,1,16.922,74.023,16.921,16.921,0,0,1,33.841,90.942" transform="translate(0 114.138)" fill="#4adbd1"/>
        <path id="Trazado_238432" data-name="Trazado 238432" d="M12.611,76.347,22.822,89.316H16.889v8.968H8.335V89.453H2.4Z" transform="translate(3.704 117.722)" fill="#fff"/>
        <rect id="Rectángulo_60330" data-name="Rectángulo 60330" width="44.865" height="0.73" transform="translate(152.889 131.466)" fill="#407cca"/>
        <rect id="Rectángulo_60331" data-name="Rectángulo 60331" width="44.865" height="0.73" transform="translate(152.889 134.341)" fill="#407cca"/>
        <rect id="Rectángulo_60332" data-name="Rectángulo 60332" width="44.865" height="0.73" transform="translate(152.889 137.102)" fill="#407cca"/>
        <rect id="Rectángulo_60333" data-name="Rectángulo 60333" width="45.137" height="0.73" transform="translate(152.887 139.842)" fill="#407cca"/>
        <g id="Grupo_183454" data-name="Grupo 183454" transform="translate(152.889 125.984)" opacity="0.9">
          <g id="Grupo_183453" data-name="Grupo 183453">
            <g id="Grupo_183452" data-name="Grupo 183452" clip-path="url(#clip-path-8)">
              <rect id="Rectángulo_60334" data-name="Rectángulo 60334" width="3.46" height="3.665" transform="translate(-0.002 -0.001)" fill="#4adbd1"/>
            </g>
          </g>
        </g>
        <rect id="Rectángulo_60336" data-name="Rectángulo 60336" width="44.865" height="0.73" transform="translate(152.889 150.218)" fill="#407cca"/>
        <rect id="Rectángulo_60337" data-name="Rectángulo 60337" width="44.865" height="0.73" transform="translate(152.889 153.093)" fill="#407cca"/>
        <rect id="Rectángulo_60338" data-name="Rectángulo 60338" width="44.865" height="0.73" transform="translate(152.889 155.853)" fill="#407cca"/>
        <rect id="Rectángulo_60339" data-name="Rectángulo 60339" width="45.137" height="0.73" transform="translate(152.887 158.594)" fill="#407cca"/>
        <g id="Grupo_183457" data-name="Grupo 183457" transform="translate(152.889 144.736)" opacity="0.9">
          <g id="Grupo_183456" data-name="Grupo 183456">
            <g id="Grupo_183455" data-name="Grupo 183455" clip-path="url(#clip-path-9)">
              <rect id="Rectángulo_60340" data-name="Rectángulo 60340" width="3.46" height="3.665" transform="translate(-0.002 -0.001)" fill="#4adbd1"/>
            </g>
          </g>
        </g>
        <g id="Grupo_183460" data-name="Grupo 183460" transform="translate(13.413 72.658)" style="mix-blend-mode: multiply;isolation: isolate">
          <g id="Grupo_183459" data-name="Grupo 183459">
            <g id="Grupo_183458" data-name="Grupo 183458" clip-path="url(#clip-path-10)">
              <path id="Trazado_238433" data-name="Trazado 238433" d="M74.995,58.065H8.21a2.941,2.941,0,0,1-2.933-2.933V31.517A2.941,2.941,0,0,1,8.21,28.584H74.995a2.941,2.941,0,0,1,2.933,2.933V55.132a2.941,2.941,0,0,1-2.933,2.933" transform="translate(-5.276 -28.584)" fill="#c7d4e2"/>
            </g>
          </g>
        </g>
        <path id="Trazado_238434" data-name="Trazado 238434" d="M74.569,57.3H7.784a2.941,2.941,0,0,1-2.933-2.933V32.013A2.943,2.943,0,0,1,7.784,29.08H74.569A2.943,2.943,0,0,1,77.5,32.013V54.367A2.941,2.941,0,0,1,74.569,57.3" transform="translate(7.48 44.839)" fill="#fff"/>
        <path id="Trazado_238435" data-name="Trazado 238435" d="M24.377,41.516a8.913,8.913,0,0,0-8.854-6.07,8.9,8.9,0,0,0-8.866,6.063Z" transform="translate(10.265 54.655)" fill="#1565c0"/>
        <path id="Trazado_238436" data-name="Trazado 238436" d="M16.935,35.836a4.227,4.227,0,1,1-4.227-4.227,4.227,4.227,0,0,1,4.227,4.227" transform="translate(13.077 48.738)" fill="#1565c0"/>
        <rect id="Rectángulo_60343" data-name="Rectángulo 60343" width="44.865" height="0.73" transform="translate(36.96 83.805)" fill="#407cca"/>
        <rect id="Rectángulo_60344" data-name="Rectángulo 60344" width="44.865" height="0.73" transform="translate(36.96 86.68)" fill="#407cca"/>
        <rect id="Rectángulo_60345" data-name="Rectángulo 60345" width="44.865" height="0.73" transform="translate(36.96 89.44)" fill="#407cca"/>
        <rect id="Rectángulo_60346" data-name="Rectángulo 60346" width="23.627" height="0.73" transform="translate(36.957 92.181)" fill="#407cca"/>
        <rect id="Rectángulo_60347" data-name="Rectángulo 60347" width="44.865" height="0.73" transform="translate(36.96 83.805)" fill="#407cca"/>
        <rect id="Rectángulo_60348" data-name="Rectángulo 60348" width="44.865" height="0.73" transform="translate(36.96 86.68)" fill="#407cca"/>
        <rect id="Rectángulo_60349" data-name="Rectángulo 60349" width="44.865" height="0.73" transform="translate(36.96 89.44)" fill="#407cca"/>
        <rect id="Rectángulo_60350" data-name="Rectángulo 60350" width="23.627" height="0.73" transform="translate(36.957 92.181)" fill="#407cca"/>
        <path id="Trazado_238437" data-name="Trazado 238437" d="M57.479,43.863l1.607,1.665a12.616,12.616,0,0,1,9.636-4.044,13.828,13.828,0,0,1,9.4,4.044l1.665-1.665s-10.351-10.468-22.305,0" transform="translate(88.629 60.46)" fill="#6f95d4"/>
        <path id="Trazado_238438" data-name="Trazado 238438" d="M58.578,44.169l1.784,1.784s5.234-5.948,13.144,0l1.607-1.784s-7.374-7.435-16.535,0" transform="translate(90.323 63.009)" fill="#6f95d4"/>
        <path id="Trazado_238439" data-name="Trazado 238439" d="M61.474,46.409s3.569-3.627,7.138,0l1.784-1.9a8.143,8.143,0,0,0-10.648,0Z" transform="translate(92.127 65.527)" fill="#6f95d4"/>
        <path id="Trazado_238440" data-name="Trazado 238440" d="M65.045,46.2a1.993,1.993,0,1,1-1.993-1.993A1.993,1.993,0,0,1,65.045,46.2" transform="translate(94.149 68.171)" fill="#6f95d4"/>
        <rect id="Rectángulo_60351" data-name="Rectángulo 60351" width="44.865" height="0.73" transform="translate(120.95 170.558)" fill="#407cca"/>
        <rect id="Rectángulo_60352" data-name="Rectángulo 60352" width="44.865" height="0.73" transform="translate(120.95 173.436)" fill="#407cca"/>
        <rect id="Rectángulo_60353" data-name="Rectángulo 60353" width="44.865" height="0.73" transform="translate(120.95 176.194)" fill="#407cca"/>
        <rect id="Rectángulo_60354" data-name="Rectángulo 60354" width="45.137" height="0.73" transform="translate(120.948 178.934)" fill="#407cca"/>
        <circle id="Elipse_6341" data-name="Elipse 6341" cx="6.68" cy="6.68" r="6.68" transform="translate(103.858 168.393)" fill="none" stroke="#12263f" stroke-miterlimit="10" stroke-width="0.52"/>
        <line id="Línea_1990" data-name="Línea 1990" x1="9.42" y2="9.42" transform="translate(105.828 170.401)" fill="none" stroke="#12263f" stroke-miterlimit="10" stroke-width="0.52"/>
        <rect id="Rectángulo_60355" data-name="Rectángulo 60355" width="70.752" height="19.334" rx="1.631" transform="translate(98.858 165.406)" fill="none" stroke="#407cca" stroke-miterlimit="10" stroke-width="0.115"/>
        <g id="Grupo_183463" data-name="Grupo 183463" transform="translate(164.404 67.052)" style="mix-blend-mode: multiply;isolation: isolate">
          <g id="Grupo_183462" data-name="Grupo 183462">
            <g id="Grupo_183461" data-name="Grupo 183461" clip-path="url(#clip-path-11)">
              <path id="Trazado_238441" data-name="Trazado 238441" d="M128.693,53.547H67.608a2.94,2.94,0,0,1-2.931-2.933v-21.3a2.94,2.94,0,0,1,2.931-2.933h61.085a2.943,2.943,0,0,1,2.933,2.933v21.3a2.943,2.943,0,0,1-2.933,2.933" transform="translate(-64.677 -26.378)" fill="#c7d4e2"/>
            </g>
          </g>
        </g>
        <path id="Trazado_238442" data-name="Trazado 238442" d="M128.3,52.841H67.216a2.94,2.94,0,0,1-2.931-2.933V29.768a2.94,2.94,0,0,1,2.931-2.931H128.3a2.941,2.941,0,0,1,2.933,2.931v20.14a2.941,2.941,0,0,1-2.933,2.933" transform="translate(99.123 41.38)" fill="#fff"/>
        <path id="Trazado_238443" data-name="Trazado 238443" d="M65.014,31.615h66.22V29.459a2.631,2.631,0,0,0-2.623-2.623h-61.7a2.633,2.633,0,0,0-2.623,2.623v2.156Z" transform="translate(99.121 41.379)" fill="#373f51"/>
      </g>
    </g>
    <text id="_" data-name=" ******" transform="translate(193.547 88.456)" fill="#407cca" font-size="6" font-family="SegoeUI, Segoe UI"><tspan x="0" y="0" xml:space="preserve" letter-spacing="0.1em"> *</tspan><tspan y="0" letter-spacing="0.099em">****</tspan><tspan y="0">*</tspan></text>
    <text id="_2" data-name=" *****" transform="translate(193.547 84.551)" fill="#407cca" font-size="7" font-family="SegoeUI, Segoe UI"><tspan x="0" y="0" xml:space="preserve" letter-spacing="0.1em"> *</tspan><tspan y="0" letter-spacing="0.099em">***</tspan><tspan y="0">*</tspan></text>
    <g id="Grupo_183467" data-name="Grupo 183467" transform="translate(0 0.001)">
      <g id="Grupo_183466" data-name="Grupo 183466" clip-path="url(#clip-path-2)">
        <rect id="Rectángulo_60358" data-name="Rectángulo 60358" width="59.949" height="15.511" transform="translate(167.287 75.094)" fill="none" stroke="#407cca" stroke-miterlimit="10" stroke-width="0.052"/>
      </g>
    </g>
    <text id="LOGIN" transform="translate(173.01 79.458)" fill="#12263f" font-size="3" font-family="SegoeUI, Segoe UI"><tspan x="0" y="0" letter-spacing="-0.038em">L</tspan><tspan y="0">OGIN</tspan></text>
    <text id="PASSWORD" transform="translate(173.01 86.229)" fill="#12263f" font-size="4" font-family="SegoeUI, Segoe UI"><tspan x="0" y="0" letter-spacing="-0.084em">P</tspan><tspan y="0">ASSWORD</tspan></text>
    <g id="Grupo_183475" data-name="Grupo 183475" transform="translate(0 0.001)">
      <g id="Grupo_183474" data-name="Grupo 183474" clip-path="url(#clip-path-2)">
        <path id="Trazado_238444" data-name="Trazado 238444" d="M81.909,59.365A21.978,21.978,0,0,0,85.3,49.652a72.729,72.729,0,0,0,.29-10.913,5.507,5.507,0,0,1-1.258-1.4c-.145-.244-.259-.582-.061-.783a.521.521,0,0,1,.371-.122,3.544,3.544,0,0,1,1.258.526,4.156,4.156,0,0,0,2.041.175l2.064-.17a.849.849,0,0,1,.358.023.435.435,0,0,1,.191.633l-.43,1.118a56.818,56.818,0,0,1-1.406,18.993,18.916,18.916,0,0,1-3.129,6.276" transform="translate(126.298 56.178)" fill="#f7c5b4"/>
        <path id="Trazado_238445" data-name="Trazado 238445" d="M77.127,59.38a21.979,21.979,0,0,1-3.391-9.713,72.72,72.72,0,0,1-.29-10.913,5.507,5.507,0,0,0,1.258-1.4c.145-.244.259-.582.058-.783a.513.513,0,0,0-.369-.119,3.436,3.436,0,0,0-1.258.526,4.189,4.189,0,0,1-2.041.173c-.689-.056-1.375-.112-2.064-.17a.849.849,0,0,0-.358.025.432.432,0,0,0-.191.63l.43,1.118a56.818,56.818,0,0,0,1.406,18.993,18.953,18.953,0,0,0,3.129,6.279" transform="translate(105.485 56.206)" fill="#f7c5b4"/>
        <path id="Trazado_238446" data-name="Trazado 238446" d="M93.58,58.084c1.164,3.376,2.372,16.993,2.623,20.595,1.042,14.888.643,20.1.076,34.186-.142,3.538-.3,8.106-.442,11.645H91.353c-2.283-13.953-5.974-43.772-7.107-57.885,0,0-4.619,43.721-6.858,57.679H72.82c-.153-3.538-.241-8.091-.394-11.627-.351-8.063-.183-15.023-.127-23.1.043-6.029-.2-13.185.46-19.181.4-3.592.641-8.93,1.792-12.311Z" transform="translate(111.343 89.561)" fill="#12263f"/>
        <path id="Trazado_238447" data-name="Trazado 238447" d="M79.76,84.233a2.421,2.421,0,0,0,.62,2.181,5.216,5.216,0,0,0,2.062,1.07,9.487,9.487,0,0,0,4.682.735c.4-.074.846-.262.938-.669a1.2,1.2,0,0,0-.447-1.017,15.316,15.316,0,0,0-3.386-2.318Z" transform="translate(122.952 129.853)" fill="#003a70"/>
        <path id="Trazado_238448" data-name="Trazado 238448" d="M79.295,84.152a2.436,2.436,0,0,1-.62,2.184A5.243,5.243,0,0,1,76.613,87.4a9.487,9.487,0,0,1-4.682.735c-.4-.074-.846-.262-.938-.669a1.2,1.2,0,0,1,.447-1.017,15.317,15.317,0,0,1,3.386-2.318Z" transform="translate(109.441 129.728)" fill="#003a70"/>
        <path id="Trazado_238449" data-name="Trazado 238449" d="M80.65,47.9a5.384,5.384,0,0,1-2.252.114,4.3,4.3,0,0,1-1.309-.516,8.753,8.753,0,0,1-2.928-2.567l-4.034,5.147a13.446,13.446,0,0,0,2.379,4.146,9.481,9.481,0,0,0,4.176,2.717A158.55,158.55,0,0,1,77.767,78.37s3.012.214,7.542.521c.361.023.732.041,1.111.053l.719-.008h.282l.719.008c.376-.013.75-.031,1.111-.053,4.53-.308,7.542-.521,7.542-.521-.249-9.967.305-12.819,1.083-21.431a9.475,9.475,0,0,0,4.179-2.717,13.5,13.5,0,0,0,2.379-4.146L100.4,44.928A8.778,8.778,0,0,1,97.472,47.5a4.33,4.33,0,0,1-1.309.516,6.837,6.837,0,0,1-2.534-.214Z" transform="translate(108.129 69.275)" fill="#636363"/>
        <path id="Trazado_238450" data-name="Trazado 238450" d="M83.27,43.793q.214,1.525.43,3.053a4.561,4.561,0,0,0,.3,1.34c.287.531,2.788,1.276,3.251,1.523,0,0-1.962,1.713-6.665,1.967s-6.317-1.868-6.317-1.868c.455-.262,2.773-1.169,3.045-1.706a4.721,4.721,0,0,0,.257-1.35q.168-1.533.338-3.063" transform="translate(114.513 67.365)" fill="#f7c5b4"/>
        <path id="Trazado_238451" data-name="Trazado 238451" d="M85.073,41.668a25.519,25.519,0,0,1-.508,8.223,5.38,5.38,0,0,1-.811,2,4.641,4.641,0,0,1-6.129,1.365,4.549,4.549,0,0,1-1.754-2.006,14.583,14.583,0,0,1-1.164-6.825s-.348-6.05,5.846-6.144c0,0,3.8-.2,4.52,3.391" transform="translate(115.137 59.017)" fill="#f7c5b4"/>
        <path id="Trazado_238452" data-name="Trazado 238452" d="M75.357,42.942a.445.445,0,0,1-.623.051,1.009,1.009,0,0,1-.32-.61,2.918,2.918,0,0,1-.061-.681.757.757,0,0,1,.132-.465.437.437,0,0,1,.445-.135.431.431,0,0,1,.3.351Z" transform="translate(114.645 63.351)" fill="#f7c5b4"/>
        <path id="Trazado_238453" data-name="Trazado 238453" d="M78.862,41.3a.512.512,0,0,1,.292-.361.436.436,0,0,1,.447.125.726.726,0,0,1,.145.46,2.8,2.8,0,0,1-.041.684,1,1,0,0,1-.3.618.448.448,0,0,1-.625-.033,3.49,3.49,0,0,1,.081-1.492" transform="translate(121.404 63.09)" fill="#f7c5b4"/>
        <path id="Trazado_238454" data-name="Trazado 238454" d="M76.823,41.6a4.238,4.238,0,0,1-.023,2.489,6.171,6.171,0,0,1-1.243,2.178c-.15.175-.386.361-.592.252a.527.527,0,0,1-.2-.275,4.488,4.488,0,0,1,.343-4.014A4.043,4.043,0,0,1,76,39.458a3.913,3.913,0,0,1,2.575-1.251c1.045-.076,2.257.071,3.157-.468a1.035,1.035,0,0,1-.2.785,5.22,5.22,0,0,0,3.686-.163,5.674,5.674,0,0,1-.475,1.614,1.575,1.575,0,0,0,1.179.407,4.652,4.652,0,0,0,1.251-.275c-.178,1.037-.483,2.285-1.421,2.761a5.908,5.908,0,0,1-5.384-.1,1.617,1.617,0,0,0,.587.691,4.247,4.247,0,0,1-2.242-.5,9.65,9.65,0,0,1-1.894-1.342" transform="translate(114.786 58.192)" fill="#3c3c3b"/>
        <g id="Grupo_183470" data-name="Grupo 183470" transform="translate(192.309 111.924)" style="mix-blend-mode: multiply;isolation: isolate">
          <g id="Grupo_183469" data-name="Grupo 183469">
            <g id="Grupo_183468" data-name="Grupo 183468" clip-path="url(#clip-path-14)">
              <path id="Trazado_238455" data-name="Trazado 238455" d="M81.224,44.04a4.329,4.329,0,0,1-2.534.966,4.043,4.043,0,0,1-3.035-.974,2.647,2.647,0,0,0,2.88,1.884,2.461,2.461,0,0,0,2.689-1.876" transform="translate(-75.654 -44.03)" fill="#f7c5b4"/>
            </g>
          </g>
        </g>
        <path id="Trazado_238456" data-name="Trazado 238456" d="M76.508,41.745a.493.493,0,1,1-.5-.486.494.494,0,0,1,.5.486" transform="translate(116.45 63.618)" fill="#3c3c3b"/>
        <path id="Trazado_238457" data-name="Trazado 238457" d="M77.527,41.76a.493.493,0,1,0,.486-.5.494.494,0,0,0-.486.5" transform="translate(119.541 63.618)" fill="#3c3c3b"/>
        <path id="Trazado_238458" data-name="Trazado 238458" d="M77.257,42.046a1.2,1.2,0,0,1-.084-.935.2.2,0,0,0,.292.013c.031-.033.051-.081.092-.1a.262.262,0,0,1,.109-.02,1.464,1.464,0,0,0,.458-.178,2.109,2.109,0,0,1,2.064.163.9.9,0,0,1-.61.183c-.841.094-1.378.788-2.217.907,0,0-.084.013-.1-.028" transform="translate(118.904 62.64)" fill="#3c3c3b"/>
        <path id="Trazado_238459" data-name="Trazado 238459" d="M77.906,43.484a1.3,1.3,0,0,1-1.675-.829.05.05,0,0,1,.031-.064.055.055,0,0,1,.064.031,1.348,1.348,0,0,0,1.556.773.05.05,0,0,1,.056.033.051.051,0,0,1-.031.056" transform="translate(117.538 65.671)" fill="#da806c"/>
        <path id="Trazado_238460" data-name="Trazado 238460" d="M78.583,40.213A4.6,4.6,0,0,0,79.117,43c.056.1.13.206.241.219a.256.256,0,0,0,.236-.132.745.745,0,0,0,.081-.275,5.061,5.061,0,0,0-.1-2.926.455.455,0,0,0-.122-.178.369.369,0,0,0-.236-.074.667.667,0,0,0-.646.674" transform="translate(121.114 61.115)" fill="#3c3c3b"/>
        <path id="Trazado_238461" data-name="Trazado 238461" d="M76.924,41.453l-.074,1.474a3.131,3.131,0,0,0-.043.7c.025.208.315.208.536.219h.015a.074.074,0,0,1,.069.079.073.073,0,0,1-.074.071c-.234,0-.6.053-.732-.3a2.507,2.507,0,0,1-.01-.778l.178-1.5a.069.069,0,0,1,.076-.061.067.067,0,0,1,.058.071Z" transform="translate(118.083 63.78)" fill="#da806c"/>
        <path id="Trazado_238462" data-name="Trazado 238462" d="M78.159,42.052a1.2,1.2,0,0,0,.084-.935.2.2,0,0,1-.292.013c-.031-.033-.051-.081-.092-.1A.262.262,0,0,0,77.75,41a1.44,1.44,0,0,1-.458-.178,2.109,2.109,0,0,0-2.064.163.9.9,0,0,0,.608.183c.844.094,1.38.788,2.219.907,0,0,.084.013.1-.028" transform="translate(115.996 62.649)" fill="#3c3c3b"/>
        <path id="Trazado_238463" data-name="Trazado 238463" d="M80.553,49.381c2.046.488,1.121,2.748,1.121,2.748a.648.648,0,0,1-.732.867.4.4,0,0,0-.224.521,2.23,2.23,0,0,1-.717.107,2.78,2.78,0,0,1-.768-.107A.4.4,0,0,0,79.01,53a.648.648,0,0,1-.732-.867s-.895-2.15,1.121-2.748a2.2,2.2,0,0,1,1.154,0" transform="translate(120.394 76.028)" fill="#fff"/>
        <path id="Trazado_238464" data-name="Trazado 238464" d="M78.947,50.2a.359.359,0,0,1,.242-.168.76.76,0,0,1,.3.015,2.734,2.734,0,0,1,.351.092.447.447,0,0,1,.234.137.39.39,0,0,1,.064.267.743.743,0,0,1-.086.33.452.452,0,0,1-.259.211.659.659,0,0,1-.559-.2.779.779,0,0,1-.318-.5.633.633,0,0,1,.031-.186" transform="translate(121.685 77.138)" fill="#003a70"/>
        <path id="Trazado_238465" data-name="Trazado 238465" d="M79.511,50.3a.359.359,0,0,0-.2-.219.8.8,0,0,0-.3-.048,2.5,2.5,0,0,0-.363.013.459.459,0,0,0-.257.081.419.419,0,0,0-.119.249.724.724,0,0,0,.013.338.443.443,0,0,0,.208.264.652.652,0,0,0,.587-.076.754.754,0,0,0,.417-.417.612.612,0,0,0,.013-.186" transform="translate(120.671 77.138)" fill="#003a70"/>
        <path id="Trazado_238466" data-name="Trazado 238466" d="M78.983,50.314a.2.2,0,0,1,.061.053.939.939,0,0,1,.163.366c.01.046.018.1-.013.135a.074.074,0,0,1-.081.01.274.274,0,0,0-.081-.033.244.244,0,0,0-.094.023.135.135,0,0,1-.147-.01.177.177,0,0,1-.038-.127.362.362,0,0,1,.033-.135,1.489,1.489,0,0,1,.1-.224s.058-.076.094-.058" transform="translate(121.428 77.575)" fill="#003a70"/>
        <g id="Grupo_183473" data-name="Grupo 183473" transform="translate(72.783 96.733)" opacity="0.9">
          <g id="Grupo_183472" data-name="Grupo 183472">
            <g id="Grupo_183471" data-name="Grupo 183471" clip-path="url(#clip-path-15)">
              <path id="Trazado_238467" data-name="Trazado 238467" d="M49.14,48.309A10.254,10.254,0,1,1,38.886,38.055,10.254,10.254,0,0,1,49.14,48.309" transform="translate(-28.634 -38.055)" fill="#4adbd1"/>
            </g>
          </g>
        </g>
        <path id="Trazado_238468" data-name="Trazado 238468" d="M34.19,51.135h-.17a1.3,1.3,0,0,1-1.289-1.167l-.925-9.321a1.294,1.294,0,0,1,1.289-1.423h1.817a1.3,1.3,0,0,1,1.291,1.4l-.722,9.321a1.3,1.3,0,0,1-1.291,1.195" transform="translate(49.032 60.48)" fill="#fff"/>
        <path id="Trazado_238469" data-name="Trazado 238469" d="M34.935,45.582a1.412,1.412,0,1,1-1.411-1.411,1.411,1.411,0,0,1,1.411,1.411" transform="translate(49.513 68.108)" fill="#fff"/>
      </g>
    </g>
  </g>
</svg>
