<svg xmlns="http://www.w3.org/2000/svg" xmlns:xlink="http://www.w3.org/1999/xlink" width="380.809" height="225.789" viewBox="0 0 380.809 225.789">
  <defs>
    <clipPath id="clip-path">
      <rect id="Rectángulo_58880" data-name="Rectángulo 58880" width="350.809" height="225.789" fill="none"/>
    </clipPath>
    <clipPath id="clip-path-4">
      <rect id="Rectángulo_58851" data-name="Rectángulo 58851" width="60.359" height="28.364" fill="none"/>
    </clipPath>
    <clipPath id="clip-path-5">
      <rect id="Rectángulo_58852" data-name="Rectángulo 58852" width="9.505" height="9.505" fill="none"/>
    </clipPath>
    <clipPath id="clip-path-11">
      <rect id="Rectángulo_58876" data-name="Rectángulo 58876" width="29.994" height="28.852" fill="none"/>
    </clipPath>
    <clipPath id="clip-path-12">
      <rect id="Rectángulo_58877" data-name="Rectángulo 58877" width="26.828" height="17.697" fill="none"/>
    </clipPath>
    <clipPath id="clip-path-13">
      <rect id="Rectángulo_58878" data-name="Rectángulo 58878" width="10.98" height="32.588" fill="none"/>
    </clipPath>
  </defs>
  <g id="Grupo_893424" data-name="Grupo 893424" transform="translate(-180 -13206.305)">
    <rect id="Rectángulo_302518" data-name="Rectángulo 302518" width="367" height="196.699" transform="translate(180 13212.653)" fill="#f5fafe"/>
    <g id="Grupo_891084" data-name="Grupo 891084" transform="translate(210 13206.305)">
      <g id="Grupo_181221" data-name="Grupo 181221" clip-path="url(#clip-path)">
        <g id="Grupo_181187" data-name="Grupo 181187">
          <g id="Grupo_181186" data-name="Grupo 181186" clip-path="url(#clip-path)">
            <path id="Trazado_234423" data-name="Trazado 234423" d="M188.532,29.181a28.937,28.937,0,0,1,7.058-3.067l1.454-6.986,11.8-.207,1.7,6.93a28.912,28.912,0,0,1,7.162,2.817l5.965-3.911,8.493,8.2-3.7,6.1a28.9,28.9,0,0,1,3.067,7.06l6.986,1.454.207,11.8-6.93,1.7a28.934,28.934,0,0,1-2.817,7.161l3.91,5.966-8.2,8.493-6.1-3.7a28.921,28.921,0,0,1-7.059,3.067l-1.454,6.986-11.8.207-1.7-6.93a28.927,28.927,0,0,1-7.161-2.817l-5.966,3.91-8.493-8.2,3.7-6.1a28.923,28.923,0,0,1-3.067-7.059L168.6,60.6,168.4,48.8l6.93-1.7a28.948,28.948,0,0,1,2.817-7.161l-3.91-5.966,8.2-8.493ZM194.824,44.9a12.664,12.664,0,1,0,17.907-.315,12.664,12.664,0,0,0-17.907.315" transform="translate(-77.488 -8.706)" fill="#e0e0e0"/>
            <path id="Trazado_234424" data-name="Trazado 234424" d="M95.647,6.512a18.353,18.353,0,0,1,4.479-1.947l.923-4.434L108.539,0l1.078,4.4a18.334,18.334,0,0,1,4.545,1.788L117.947,3.7l5.39,5.2-2.346,3.87a18.37,18.37,0,0,1,1.946,4.48l4.433.923.132,7.49-4.4,1.079a18.372,18.372,0,0,1-1.788,4.544L123.8,35.08l-5.2,5.39-3.87-2.347a18.357,18.357,0,0,1-4.48,1.946l-.923,4.434-7.49.131-1.079-4.4a18.373,18.373,0,0,1-4.544-1.788L92.422,40.93l-5.389-5.2,2.346-3.87a18.363,18.363,0,0,1-1.947-4.48L83,26.453l-.131-7.49,4.4-1.079a18.352,18.352,0,0,1,1.788-4.544L86.572,9.554l5.2-5.389ZM99.64,16.49A8.037,8.037,0,1,0,111,16.29a8.036,8.036,0,0,0-11.364.2" transform="translate(-38.132)" fill="#f5f5f5"/>
            <path id="Trazado_234425" data-name="Trazado 234425" d="M576.34,183.384a19.3,19.3,0,0,1,4.71-2.047l.97-4.662,7.876-.138,1.134,4.624a19.287,19.287,0,0,1,4.779,1.88l3.981-2.609,5.667,5.472-2.467,4.069a19.29,19.29,0,0,1,2.046,4.711l4.661.97.139,7.876-4.624,1.134a19.323,19.323,0,0,1-1.88,4.778l2.609,3.981-5.471,5.667-4.069-2.468a19.293,19.293,0,0,1-4.71,2.047l-.971,4.662-7.875.138-1.134-4.624a19.3,19.3,0,0,1-4.779-1.88l-3.981,2.61-5.667-5.472,2.467-4.069a19.286,19.286,0,0,1-2.047-4.71l-4.661-.97-.138-7.876,4.624-1.134a19.294,19.294,0,0,1,1.88-4.778l-2.609-3.981,5.471-5.667Zm4.2,10.492a8.45,8.45,0,1,0,11.948-.21,8.45,8.45,0,0,0-11.948.21" transform="translate(-259.025 -81.235)" fill="#f5f5f5"/>
            <path id="Trazado_234426" data-name="Trazado 234426" d="M26.878,113.166A20.978,20.978,0,0,1,32,110.941l1.055-5.069,8.563-.15,1.232,5.028a20.958,20.958,0,0,1,5.2,2.044l4.328-2.837,6.161,5.95-2.682,4.424a20.974,20.974,0,0,1,2.225,5.121l5.068,1.054.15,8.563L58.267,136.3a20.991,20.991,0,0,1-2.044,5.2l2.836,4.328-5.949,6.162L48.686,149.3a20.961,20.961,0,0,1-5.121,2.225L42.51,156.6l-8.563.151-1.232-5.028a20.975,20.975,0,0,1-5.2-2.044l-4.328,2.837-6.162-5.949,2.682-4.425a20.982,20.982,0,0,1-2.225-5.121l-5.068-1.055-.15-8.563,5.028-1.233a21,21,0,0,1,2.044-5.195L16.5,116.645l5.949-6.162Zm4.565,11.407a9.187,9.187,0,1,0,12.991-.228,9.187,9.187,0,0,0-12.991.228" transform="translate(-5.646 -48.649)" fill="#e0e0e0"/>
          </g>
        </g>
        <g id="Grupo_181195" data-name="Grupo 181195">
          <g id="Grupo_181194" data-name="Grupo 181194" clip-path="url(#clip-path)">
            <path id="Trazado_234427" data-name="Trazado 234427" d="M333.569,253.16H103.75a7.863,7.863,0,0,1-7.864-7.863V98.646a7.864,7.864,0,0,1,7.864-7.864h229.82a7.864,7.864,0,0,1,7.864,7.864V245.3a7.863,7.863,0,0,1-7.864,7.863" transform="translate(-44.123 -41.774)" fill="#455a64"/>
            <path id="Trazado_234428" data-name="Trazado 234428" d="M334.533,386.352H87.717a9.608,9.608,0,0,1-9.608-9.608v-4.6H344.141v4.6a9.608,9.608,0,0,1-9.608,9.608" transform="translate(-35.943 -171.245)" fill="#455a64"/>
            <path id="Trazado_234429" data-name="Trazado 234429" d="M278.472,369.324l3.3,5.251h46.453l3.065-5.251Z" transform="translate(-128.141 -169.948)" fill="#263238"/>
            <path id="Trazado_234430" data-name="Trazado 234430" d="M337.779,243.376H118.7a1.767,1.767,0,0,1-1.767-1.767V113.1a1.767,1.767,0,0,1,1.767-1.767H337.779a1.767,1.767,0,0,1,1.766,1.767V241.61a1.766,1.766,0,0,1-1.766,1.766" transform="translate(-53.808 -51.23)" fill="#ebebeb"/>
            <path id="Trazado_234431" data-name="Trazado 234431" d="M339.1,251.981H116.493l.238-122.37H339.1Z" transform="translate(-53.605 -59.642)" fill="#fff"/>
            <path id="Trazado_234432" data-name="Trazado 234432" d="M147.724,119.263a1.778,1.778,0,1,1-1.778-1.778,1.778,1.778,0,0,1,1.778,1.778" transform="translate(-66.341 -54.062)" fill="#263238"/>
            <path id="Trazado_234433" data-name="Trazado 234433" d="M127.764,119.263a1.778,1.778,0,1,1-1.778-1.778,1.778,1.778,0,0,1,1.778,1.778" transform="translate(-57.155 -54.062)" fill="#263238"/>
            <path id="Trazado_234434" data-name="Trazado 234434" d="M137.345,119.263a1.778,1.778,0,1,1-1.778-1.778,1.777,1.777,0,0,1,1.778,1.778" transform="translate(-61.564 -54.062)" fill="#263238"/>
            <path id="Trazado_234435" data-name="Trazado 234435" d="M339.323,369.189c0,.088-54.5.159-121.713.159-67.237,0-121.725-.071-121.725-.159s54.488-.159,121.725-.159c67.213,0,121.713.071,121.713.159" transform="translate(-44.122 -169.812)" fill="#263238"/>
            <path id="Trazado_234436" data-name="Trazado 234436" d="M466.576,328.04h-3.239a.27.27,0,1,1,0-.54h2.969v-2.969a.27.27,0,0,1,.54,0v3.239a.27.27,0,0,1-.27.27" transform="translate(-213.084 -149.212)" fill="#e0e0e0"/>
            <path id="Trazado_234437" data-name="Trazado 234437" d="M414.1,330.8h-6.3a.27.27,0,1,1,0-.54h6.3a.27.27,0,0,1,0,.54m-12.594,0h-6.3a.27.27,0,1,1,0-.54h6.3a.27.27,0,0,1,0,.54m-12.595,0h-6.3a.27.27,0,0,1,0-.54h6.3a.27.27,0,1,1,0,.54m-12.594,0h-6.3a.27.27,0,1,1,0-.54h6.3a.27.27,0,1,1,0,.54" transform="translate(-170.142 -151.972)" fill="#e0e0e0"/>
            <path id="Trazado_234438" data-name="Trazado 234438" d="M355.591,328.04h-3.239a.27.27,0,0,1-.27-.27v-3.239a.27.27,0,0,1,.54,0V327.5h2.969a.27.27,0,0,1,0,.54" transform="translate(-162.014 -149.212)" fill="#e0e0e0"/>
            <path id="Trazado_234439" data-name="Trazado 234439" d="M352.352,283.524a.27.27,0,0,1-.27-.27V276.5a.27.27,0,0,1,.54,0v6.75a.27.27,0,0,1-.27.27m0-13.5a.27.27,0,0,1-.27-.27V263a.27.27,0,1,1,.54,0v6.751a.27.27,0,0,1-.27.27m0-13.5a.27.27,0,0,1-.27-.27V249.5a.27.27,0,1,1,.54,0v6.751a.27.27,0,0,1-.27.27" transform="translate(-162.014 -114.685)" fill="#e0e0e0"/>
            <path id="Trazado_234440" data-name="Trazado 234440" d="M352.352,234.5a.27.27,0,0,1-.27-.27v-3.239a.27.27,0,0,1,.27-.27h3.239a.27.27,0,0,1,0,.54h-2.969v2.969a.27.27,0,0,1-.27.27" transform="translate(-162.014 -106.17)" fill="#e0e0e0"/>
            <path id="Trazado_234441" data-name="Trazado 234441" d="M414.1,231.264h-6.3a.27.27,0,1,1,0-.54h6.3a.27.27,0,0,1,0,.54m-12.594,0h-6.3a.27.27,0,1,1,0-.54h6.3a.27.27,0,0,1,0,.54m-12.595,0h-6.3a.27.27,0,0,1,0-.54h6.3a.27.27,0,0,1,0,.54m-12.594,0h-6.3a.27.27,0,0,1,0-.54h6.3a.27.27,0,0,1,0,.54" transform="translate(-170.142 -106.17)" fill="#e0e0e0"/>
            <path id="Trazado_234442" data-name="Trazado 234442" d="M466.576,234.5a.27.27,0,0,1-.27-.27v-2.969h-2.969a.27.27,0,1,1,0-.54h3.239a.27.27,0,0,1,.27.27v3.239a.27.27,0,0,1-.27.27" transform="translate(-213.084 -106.17)" fill="#e0e0e0"/>
            <path id="Trazado_234443" data-name="Trazado 234443" d="M469.337,283.524a.27.27,0,0,1-.27-.27V276.5a.27.27,0,0,1,.54,0v6.751a.27.27,0,0,1-.27.27m0-13.5a.27.27,0,0,1-.27-.27V263a.27.27,0,1,1,.54,0v6.751a.27.27,0,0,1-.27.27m0-13.5a.27.27,0,0,1-.27-.27V249.5a.27.27,0,1,1,.54,0v6.751a.27.27,0,0,1-.27.27" transform="translate(-215.845 -114.685)" fill="#e0e0e0"/>
            <path id="Trazado_234444" data-name="Trazado 234444" d="M352.106,27.3a9.408,9.408,0,0,0,.207,8.737c.728,1.277,1.809,2.617,1.416,4.041s-2.094,2.181-2.434,3.6c-.4,1.674,1.264,3.1,1.628,4.772a3.43,3.43,0,0,1-2.218,3.837,13.384,13.384,0,0,0,7.2-.256l.671-2.925a2.415,2.415,0,0,0,1.419,2.63,5.593,5.593,0,0,0,3.2.29A17.094,17.094,0,0,0,375.6,43.511" transform="translate(-161.38 -12.563)" fill="#263238"/>
            <path id="Trazado_234445" data-name="Trazado 234445" d="M382.543,16.914a33.493,33.493,0,0,1-2.537-2.474c-1.542-2.019-1.629-5.072-3.681-6.576-1.461-1.07-3.46-.986-5.263-.722s-3.688.656-5.4.065c-1.258-.433-2.295-1.361-3.552-1.8a8.076,8.076,0,0,0-5.562.533,11.524,11.524,0,0,0-4.792,3.288,6.239,6.239,0,0,0-1.329,5.471,18.123,18.123,0,0,1,.9,2.688,19.4,19.4,0,0,1-.3,3.109,4.942,4.942,0,0,0,3.676,4.862l19.449,9.8c3-.251,8.631-4.328,9.723-7.128s.73-8.952-1.325-11.121" transform="translate(-161.163 -2.351)" fill="#263238"/>
            <path id="Trazado_234446" data-name="Trazado 234446" d="M356.945,28.577c-1.161-3.766-.417-9.218,3.42-10.245l12.621-1.525a2.3,2.3,0,0,1,2.772,1.442l9.59,26.975a.5.5,0,0,0,.763-.079.162.162,0,0,1,.279.136c-.422,2.506.072,8.354-7.486,8.852-1.689.111-5.007.245-5.95-1.325l-1.793-4.3c-.871-2.217-1.217-3.13-1.21-3.109,0,0-5.028,1.033-8.332-4.72-1.644-2.861-3.384-7.917-4.674-12.1" transform="translate(-164.021 -7.698)" fill="#ae7461"/>
            <path id="Trazado_234447" data-name="Trazado 234447" d="M364.656,46.827a.84.84,0,0,0,1.064.5.812.812,0,0,0,.548-1.021.84.84,0,0,0-1.064-.5.812.812,0,0,0-.548,1.022" transform="translate(-167.781 -21.057)" fill="#263238"/>
            <path id="Trazado_234448" data-name="Trazado 234448" d="M378.824,41.489a.839.839,0,0,0,1.064.5.811.811,0,0,0,.547-1.021.841.841,0,0,0-1.063-.5.812.812,0,0,0-.548,1.022" transform="translate(-174.301 -18.601)" fill="#263238"/>
            <path id="Trazado_234449" data-name="Trazado 234449" d="M360.667,41.679c.148.1.65-.683,1.6-.975.945-.308,1.807.043,1.871-.125.034-.076-.148-.282-.527-.444a2.259,2.259,0,0,0-2.771.878c-.216.351-.245.624-.174.667" transform="translate(-165.948 -18.39)" fill="#263238"/>
            <path id="Trazado_234450" data-name="Trazado 234450" d="M376.171,36.2c.165.078.628-.757,1.6-1.169s1.908-.2,1.962-.369c.028-.079-.18-.258-.593-.367a2.577,2.577,0,0,0-1.635.139,2.523,2.523,0,0,0-1.211,1.088c-.2.373-.205.645-.126.678" transform="translate(-173.077 -15.747)" fill="#263238"/>
            <path id="Trazado_234451" data-name="Trazado 234451" d="M373.4,44.745a6.081,6.081,0,0,0-1.478.282c-.226.061-.448.1-.54-.036a1.167,1.167,0,0,1-.1-.7q.01-.9.019-1.891a30.123,30.123,0,0,0-.186-4.855,30.289,30.289,0,0,0-.207,4.862c0,.66.007,1.289.011,1.891a1.325,1.325,0,0,0,.208.891.581.581,0,0,0,.478.179,1.587,1.587,0,0,0,.389-.091,5.985,5.985,0,0,0,1.4-.536" transform="translate(-170.679 -17.279)" fill="#263238"/>
            <path id="Trazado_234452" data-name="Trazado 234452" d="M381.465,65.27a16.978,16.978,0,0,0,7.439-5.358s-.448,5.1-6.844,6.892Z" transform="translate(-175.534 -27.569)" fill="#6f4439"/>
            <path id="Trazado_234453" data-name="Trazado 234453" d="M377.784,53.748a1.658,1.658,0,0,1,1.374-.812,1.49,1.49,0,0,1,1.1.4.939.939,0,0,1,.22,1.059,1.112,1.112,0,0,1-1.141.469,3.422,3.422,0,0,1-1.248-.516,1,1,0,0,1-.294-.228.3.3,0,0,1-.045-.334" transform="translate(-173.81 -24.358)" fill="#6f4439"/>
            <path id="Trazado_234454" data-name="Trazado 234454" d="M379.344,51.108c-.142.045.205.964-.34,1.919s-1.568,1.231-1.526,1.362c.009.063.287.094.708-.054a2.487,2.487,0,0,0,1.294-1.085,2.133,2.133,0,0,0,.226-1.586c-.111-.4-.3-.586-.361-.556" transform="translate(-173.699 -23.517)" fill="#263238"/>
            <path id="Trazado_234455" data-name="Trazado 234455" d="M373.259,31.217c.2.162.92-.415,1.9-.867.97-.472,1.867-.659,1.873-.922,0-.123-.25-.242-.672-.262a3.476,3.476,0,0,0-1.59.351,3.514,3.514,0,0,0-1.282,1.011c-.253.34-.32.609-.226.688" transform="translate(-171.74 -13.42)" fill="#263238"/>
            <path id="Trazado_234456" data-name="Trazado 234456" d="M358.746,37.019c.248.146.957-.266,1.873-.524.909-.283,1.732-.324,1.856-.58.052-.122-.124-.288-.513-.384a3.242,3.242,0,0,0-1.614.086,3.192,3.192,0,0,0-1.391.8c-.27.292-.322.525-.211.6" transform="translate(-165.055 -16.32)" fill="#263238"/>
            <path id="Trazado_234457" data-name="Trazado 234457" d="M377.468,15.9a5.4,5.4,0,0,0-3.25-.459,61.1,61.1,0,0,0-14.137,2.787,2.429,2.429,0,0,0,2.05,2.352,11.032,11.032,0,0,0,3.416-.084,4.26,4.26,0,0,1,3.244.744c.9.808,1.1,2.173,1.962,3.026,1.477,1.467,4.237.859,5.705,2.334,1.11,1.115,1,2.915,1.467,4.418a5.7,5.7,0,0,0,3.624,3.664,5.816,5.816,0,0,0,4.138-.256L379.4,18.766a5.562,5.562,0,0,0-1.933-2.861" transform="translate(-165.69 -7.085)" fill="#263238"/>
            <path id="Trazado_234458" data-name="Trazado 234458" d="M408.25,22.385c-1.148-.336-2.455-.479-3.262-1.355-1.175-1.277-.79-3.613-2.214-4.608-1.3-.908-3.369.149-4.631-.81-.985-.748-.8-1.909-1.412-2.688a2.647,2.647,0,0,0-3.061-.426l-2.264,13.369c.938,3.682,1.13,5.787,2.789,7.415a17.564,17.564,0,0,1,2.624,2.77,3.609,3.609,0,0,1,.386,3.624c4.337-1.654,7.235-5.681,9.87-9.5l2.788-4.036a3.1,3.1,0,0,0,.644-1.369c.127-1.189-1.11-2.055-2.257-2.391" transform="translate(-180.109 -5.612)" fill="#263238"/>
            <path id="Trazado_234459" data-name="Trazado 234459" d="M391.733,27.735a2.2,2.2,0,0,1-.407.3,4.246,4.246,0,0,1-1.346.525,4.469,4.469,0,0,1-2.274-.111,4.325,4.325,0,0,1-2.338-1.859,4.445,4.445,0,0,1-.612-1.656,7.177,7.177,0,0,1,.051-1.91,6.75,6.75,0,0,0,.049-1.979,2.258,2.258,0,0,0-1.052-1.654,4.179,4.179,0,0,0-2.163-.067,2.113,2.113,0,0,1-1.2-.233,2.035,2.035,0,0,1-.8-.952,12.933,12.933,0,0,1-.541-2.387,2.581,2.581,0,0,0-.492-1.063,1.627,1.627,0,0,0-1-.556,4.655,4.655,0,0,0-2.38.441,5.043,5.043,0,0,1-2.452.391,4.453,4.453,0,0,1-2.223-.889,7.265,7.265,0,0,1-1.48-1.731,10.168,10.168,0,0,0-1.288-1.671,4.568,4.568,0,0,0-1.676-1.006,5.23,5.23,0,0,0-5.845,1.831,6.355,6.355,0,0,0-1.039,1.98,8.363,8.363,0,0,0-.33,1.887.471.471,0,0,1-.011-.127c0-.084-.01-.209,0-.373a6.035,6.035,0,0,1,.239-1.417,6.313,6.313,0,0,1,1.019-2.041,5.474,5.474,0,0,1,2.391-1.848,5.53,5.53,0,0,1,3.645-.1,4.787,4.787,0,0,1,1.769,1.046,10.329,10.329,0,0,1,1.328,1.7,7.055,7.055,0,0,0,1.433,1.668,4.2,4.2,0,0,0,2.095.83,4.78,4.78,0,0,0,2.332-.381,4.883,4.883,0,0,1,2.519-.454,1.9,1.9,0,0,1,1.157.647,2.833,2.833,0,0,1,.546,1.17,13.119,13.119,0,0,0,.523,2.345,1.782,1.782,0,0,0,.692.836,1.853,1.853,0,0,0,1.056.2c.374-.017.752-.086,1.14-.1a2.194,2.194,0,0,1,1.149.207A2.487,2.487,0,0,1,385.089,21a6.918,6.918,0,0,1-.06,2.048,7.015,7.015,0,0,0-.067,1.853,4.274,4.274,0,0,0,.57,1.588,4.185,4.185,0,0,0,2.224,1.817,4.414,4.414,0,0,0,2.206.15,5.043,5.043,0,0,0,1.772-.719" transform="translate(-165.142 -4.232)" fill="#455a64"/>
            <path id="Trazado_234460" data-name="Trazado 234460" d="M400.807,16.469a.96.96,0,0,1,.3.274,1.633,1.633,0,0,1,.3,1.114,1.747,1.747,0,0,1-.273.811,1.86,1.86,0,0,1-.782.659,2.307,2.307,0,0,1-2.375-.287,3.044,3.044,0,0,1-.894-1.124,4.265,4.265,0,0,1-.351-1.51,9.386,9.386,0,0,0-.381-3.271,2.1,2.1,0,0,0-1.156-1.2,2.347,2.347,0,0,0-1.743.249,5.714,5.714,0,0,1-1.9.67,1.733,1.733,0,0,1-1.038-.27,2.434,2.434,0,0,1-.736-.77,8.04,8.04,0,0,1-.717-1.917,4.436,4.436,0,0,0-.9-1.664,4.764,4.764,0,0,0-3.14-1.613,6.85,6.85,0,0,0-3.21.716,9.558,9.558,0,0,1-2.843.839,6.1,6.1,0,0,1-2.425-.283,5.972,5.972,0,0,1-1.642-.822,4.322,4.322,0,0,1-1.118-1.081,8.376,8.376,0,0,0,1.178,1,6.086,6.086,0,0,0,1.629.765,6.015,6.015,0,0,0,2.362.237,9.479,9.479,0,0,0,2.776-.856,7.031,7.031,0,0,1,3.316-.756,5,5,0,0,1,3.317,1.687,4.686,4.686,0,0,1,.957,1.754,7.918,7.918,0,0,0,.69,1.855,1.705,1.705,0,0,0,1.534.918,5.581,5.581,0,0,0,1.8-.643,2.594,2.594,0,0,1,1.936-.251,2.343,2.343,0,0,1,1.3,1.337,4.476,4.476,0,0,1,.344,1.727c.019.566,0,1.109.032,1.628a4.054,4.054,0,0,0,.317,1.44,2.865,2.865,0,0,0,.822,1.061,2.146,2.146,0,0,0,2.2.3,1.736,1.736,0,0,0,.737-.593,1.66,1.66,0,0,0,.275-.75,1.628,1.628,0,0,0-.245-1.074c-.145-.214-.263-.294-.253-.306" transform="translate(-172 -2.757)" fill="#263238"/>
            <path id="Trazado_234461" data-name="Trazado 234461" d="M344.322,49.455a1.8,1.8,0,0,0,.524,1.079,1.583,1.583,0,0,0,1.282.463,1.685,1.685,0,0,0,1.339-1.143,1.52,1.52,0,0,0-.049-1.039,3.14,3.14,0,0,0-.654-.974,6.7,6.7,0,0,1-1.727-2.1,3.7,3.7,0,0,1,.144-3,4.412,4.412,0,0,1,.983-1.3,6.5,6.5,0,0,1,1.39-.918,8.754,8.754,0,0,0,1.376-.834,2.136,2.136,0,0,0,.8-1.227,2.579,2.579,0,0,0-.171-1.42,5.132,5.132,0,0,0-.71-1.229,10.611,10.611,0,0,1-1.518-2.25,4.056,4.056,0,0,1-.2-2.37,5.306,5.306,0,0,1,.826-1.787,10,10,0,0,0,.738-1.263,3.079,3.079,0,0,0,.274-1.2s.01.027.016.081a1.283,1.283,0,0,1,.012.243,2.463,2.463,0,0,1-.207.914,9.182,9.182,0,0,1-.707,1.3,5.252,5.252,0,0,0-.767,1.746,3.888,3.888,0,0,0,.221,2.247,10.678,10.678,0,0,0,1.51,2.188,5.315,5.315,0,0,1,.751,1.283,2.823,2.823,0,0,1,.189,1.563A2.4,2.4,0,0,1,349.1,39.9a8.87,8.87,0,0,1-1.419.864,6.28,6.28,0,0,0-1.336.878,4.149,4.149,0,0,0-.926,1.216,3.46,3.46,0,0,0-.15,2.794,6.613,6.613,0,0,0,1.661,2.037,3.309,3.309,0,0,1,.685,1.051,1.715,1.715,0,0,1,.036,1.171,1.846,1.846,0,0,1-1.5,1.234,1.741,1.741,0,0,1-1.81-1.364.963.963,0,0,1-.011-.327" transform="translate(-158.439 -12.401)" fill="#263238"/>
            <path id="Trazado_234462" data-name="Trazado 234462" d="M409.275,218.259H348a2.48,2.48,0,0,1-2.48-2.479V167.56a2.48,2.48,0,0,1,2.48-2.48h61.274a2.48,2.48,0,0,1,2.479,2.48v48.219a2.48,2.48,0,0,1-2.479,2.479" transform="translate(-158.995 -75.963)" fill="#f5f5f5"/>
            <path id="Trazado_234463" data-name="Trazado 234463" d="M409.154,218.139a3.928,3.928,0,0,0,.6-.09,2.478,2.478,0,0,0,1.413-.987,2.449,2.449,0,0,0,.426-1.2c.018-.476,0-1.007,0-1.577,0-1.143-.008-2.461-.013-3.944-.011-5.94-.026-14.527-.045-25.134-.005-5.307-.011-11.118-.017-17.357a3.325,3.325,0,0,0-.114-1.127,2.364,2.364,0,0,0-1.55-1.533,3.711,3.711,0,0,0-1.159-.1l-4.911,0-10.252.006-45.646.011a2.345,2.345,0,0,0-2.2,1.534,3.852,3.852,0,0,0-.145,1.44v1.5q0,3,0,5.957,0,5.914,0,11.647c0,7.636-.005,15-.009,22.017q0,2.631,0,5.2v1.277a2.354,2.354,0,0,0,2.256,2.34l9.665.012,17.357.017,25.133.045,6.833.026,1.777.014c.4,0,.605.015.605.015s-.205.01-.605.015l-1.777.014-6.833.026-25.133.045-17.357.017-9.675,0a2.6,2.6,0,0,1-2.156-1.312,2.635,2.635,0,0,1-.342-1.273q0-.636,0-1.278,0-2.564,0-5.2c0-7.016-.005-14.382-.008-22.017q0-5.727,0-11.647,0-2.958,0-5.957v-1.5a4.082,4.082,0,0,1,.164-1.537,2.625,2.625,0,0,1,2.462-1.718l45.646.011,10.252.006,4.911,0a3.906,3.906,0,0,1,1.229.117,2.6,2.6,0,0,1,1.7,1.689,3.576,3.576,0,0,1,.124,1.2c-.006,6.239-.012,12.05-.017,17.357-.019,10.608-.034,19.194-.044,25.134,0,1.483-.009,2.8-.013,3.944-.007.572.005,1.1-.017,1.583a2.489,2.489,0,0,1-1.9,2.213,1.991,1.991,0,0,1-.6.062" transform="translate(-158.874 -75.843)" fill="#263238"/>
            <rect id="Rectángulo_58850" data-name="Rectángulo 58850" width="45.368" height="60.36" transform="matrix(0.004, -1, 1, 0.004, 189.537, 138.647)" fill="#455a64"/>
            <g id="Grupo_181190" data-name="Grupo 181190" transform="translate(189.537 110.535)" opacity="0.2">
              <g id="Grupo_181189" data-name="Grupo 181189">
                <g id="Grupo_181188" data-name="Grupo 181188" clip-path="url(#clip-path-4)">
                  <path id="Trazado_234464" data-name="Trazado 234464" d="M351.1,232.867l21.2-28.112,12.985,17.7,8.9-9.395,17.277,20.061Z" transform="translate(-351.097 -204.755)"/>
                </g>
              </g>
            </g>
            <g id="Grupo_181193" data-name="Grupo 181193" transform="translate(219.849 102.386)" opacity="0.2">
              <g id="Grupo_181192" data-name="Grupo 181192">
                <g id="Grupo_181191" data-name="Grupo 181191" clip-path="url(#clip-path-5)">
                  <path id="Trazado_234465" data-name="Trazado 234465" d="M416.752,194.432a4.753,4.753,0,1,1-4.733-4.772,4.753,4.753,0,0,1,4.733,4.772" transform="translate(-407.247 -189.66)"/>
                </g>
              </g>
            </g>
            <path id="Trazado_234466" data-name="Trazado 234466" d="M352.478,79.114s-.331-.665,1.554-2.78S368.937,69.4,368.937,69.4s5.063,6.122,9.768,1.918a12.379,12.379,0,0,0,3.962-6.769s11.493-.645,11.736.109l3.077,14.449-5.4.031Z" transform="translate(-162.186 -29.586)" fill="#f4a338"/>
            <path id="Trazado_234467" data-name="Trazado 234467" d="M403.239,123.932l20.009-19.983-2.55-10.93,10.763-3.166s3.188,15.263,2.761,17.95c-.825,5.2-25.378,20.064-25.378,20.064Z" transform="translate(-185.554 -41.347)" fill="#ae7461"/>
            <path id="Trazado_234468" data-name="Trazado 234468" d="M429.133,64.57a14.543,14.543,0,0,1,8.744,4.321c4.147,4.27,9.107,15.466,9.107,15.466l-14.055,3.425Z" transform="translate(-197.469 -29.712)" fill="#f4a338"/>
            <path id="Trazado_234469" data-name="Trazado 234469" d="M390.285,155.166l-5.616,3.506s-2.831,4.712-3.234,5.893a32.843,32.843,0,0,0-.8,4.139s1.223,1.117,1.723-.606l.575-1.32-.485,3.067s1.24.961,1.848-.672a19.8,19.8,0,0,0,.872-3.184l1.92-2.638-1.936,6.307s-.368,1.27.763,1.158c.447-.044,1.447-2.265,1.447-2.265s.819,1.066,1.5.106,3.344-4.723,3.344-4.723,3.583-4.429,3.6-4.547c0-.023,2.634-2.473,2.634-2.473l-5.6-3.934-2.426,2.061a.434.434,0,0,1-.128.123" transform="translate(-175.154 -70.396)" fill="#ae7461"/>
            <path id="Trazado_234470" data-name="Trazado 234470" d="M384.027,176.837a2.083,2.083,0,0,0,.083-.355l.182-.974.256-1.447.147-.856a4.612,4.612,0,0,1,.277-.876,15.717,15.717,0,0,1,1.631-2.813c.24-.342.444-.612.584-.8a2.249,2.249,0,0,0,.211-.3,2.1,2.1,0,0,0-.247.268c-.151.179-.366.442-.616.779a14.163,14.163,0,0,0-1.673,2.817,4.6,4.6,0,0,0-.282.9c-.049.3-.095.583-.14.857-.086.541-.164,1.032-.231,1.453-.059.4-.107.729-.145.981a2.119,2.119,0,0,0-.037.363" transform="translate(-176.712 -77.5)" fill="#6f4439"/>
            <path id="Trazado_234471" data-name="Trazado 234471" d="M395.708,171.773a.839.839,0,0,0-.13.185c-.078.123-.186.3-.319.525-.266.448-.627,1.071-1.022,1.769l0,0,0,0-.05.124c-.315.771-.593,1.472-.789,1.982-.1.255-.175.462-.226.606a.93.93,0,0,0-.068.228.915.915,0,0,0,.111-.211c.064-.139.153-.341.261-.592.217-.5.507-1.2.821-1.969l.051-.124,0,.007c.395-.7.744-1.33.991-1.787.124-.229.221-.415.287-.544a.856.856,0,0,0,.091-.207" transform="translate(-180.887 -79.043)" fill="#6f4439"/>
            <path id="Trazado_234472" data-name="Trazado 234472" d="M339.336,87.321c.026.057.05.116.071.174a3.089,3.089,0,0,1,.17.838,2.715,2.715,0,0,0,.019.4,1.514,1.514,0,0,0,.111.238,4.052,4.052,0,0,1,.147,1.668,3.192,3.192,0,0,0,.309,1.787,1.178,1.178,0,0,0,1.57.484.8.8,0,0,0,.6.877,1.161,1.161,0,0,0,1.07-.332,2.16,2.16,0,0,0,.536-1.025.886.886,0,0,0,.883.857,1.366,1.366,0,0,0,1.121-.688,3.142,3.142,0,0,0,.387-1.309,15.511,15.511,0,0,1,.277-1.752s.576.092.838.117c.356.034.077.008.077.008a3.729,3.729,0,0,0,.551-.957c.367-.755.647-1.234.927-1.919.21-.513.347-1.026.029-1.36-.764-.8-2.259.832-2.259.832-.211-.57-1.948-.662-2.286.1-.138-.418-.085-.66-.424-.941a1.4,1.4,0,0,0-1.231-.31,1,1,0,0,0-.747.965,1.65,1.65,0,0,0-2.99.493.671.671,0,0,0-.041.227.282.282,0,0,0,.036.1c.077.145.179.274.247.426" transform="translate(-156.018 -39.146)" fill="#ae7461"/>
            <path id="Trazado_234473" data-name="Trazado 234473" d="M335.009,87.354a1.318,1.318,0,0,0-1.042.347,2.156,2.156,0,0,0-.326,1.445c.524.1.8.118,1.32.218.11.021.2-.007.294.058.242.172.2.75.3,1.031a1.008,1.008,0,0,0,1.273.544,1.353,1.353,0,0,0,.817-1.205,2.09,2.09,0,0,0-.533-1.41,2.922,2.922,0,0,0-2.1-1.027" transform="translate(-153.524 -40.196)" fill="#ae7461"/>
            <path id="Trazado_234474" data-name="Trazado 234474" d="M344.124,86.7a17.348,17.348,0,0,1,0,3.5,17.377,17.377,0,0,1-.356,3.486,17.344,17.344,0,0,1,0-3.5,17.366,17.366,0,0,1,.356-3.486" transform="translate(-158.153 -39.896)" fill="#6f4439"/>
            <path id="Trazado_234475" data-name="Trazado 234475" d="M348.659,87.337a9.872,9.872,0,0,1,.068,3.18,9.881,9.881,0,0,1-.611,3.121,25.874,25.874,0,0,1,.256-3.152,25.881,25.881,0,0,1,.287-3.149" transform="translate(-160.177 -40.189)" fill="#6f4439"/>
            <path id="Trazado_234476" data-name="Trazado 234476" d="M353,87.337a7.385,7.385,0,0,1-.043,2.627,10.333,10.333,0,0,1-.5,2.575,9.3,9.3,0,0,1,.145-2.618,14.54,14.54,0,0,1,.4-2.584" transform="translate(-162.167 -40.189)" fill="#6f4439"/>
            <path id="Trazado_234477" data-name="Trazado 234477" d="M337.582,87.863c0-.042.252-.1.614.067a1.97,1.97,0,0,1,.964,1.128,3.953,3.953,0,0,1,.24,1.443c-.043.435-.358.56-.366.5-.028-.039.143-.189.114-.512a7.072,7.072,0,0,0-.321-1.31,2.137,2.137,0,0,0-.755-1.035c-.273-.192-.495-.232-.49-.286" transform="translate(-155.341 -40.41)" fill="#6f4439"/>
          </g>
        </g>
        <g id="Grupo_181197" data-name="Grupo 181197">
          <g id="Grupo_181196" data-name="Grupo 181196" clip-path="url(#clip-path)">
            <path id="Trazado_234478" data-name="Trazado 234478" d="M253.114,292.158H176.932a4.67,4.67,0,0,1-4.67-4.67V249.283a4.67,4.67,0,0,1,4.67-4.67h76.182a4.67,4.67,0,0,1,4.67,4.67v38.206a4.67,4.67,0,0,1-4.67,4.67" transform="translate(-79.268 -112.561)" fill="#fff"/>
            <path id="Trazado_234479" data-name="Trazado 234479" d="M252.993,292.038c0-.014.227,0,.661-.067a4.574,4.574,0,0,0,1.808-.678,4.627,4.627,0,0,0,1.908-2.435,5.424,5.424,0,0,0,.243-1.988q0-1.086-.007-2.311c-.011-6.536-.026-15.984-.045-27.658q0-2.19,0-4.482,0-1.146,0-2.317a7.314,7.314,0,0,0-.213-2.312,4.59,4.59,0,0,0-3.352-3.072,5.266,5.266,0,0,0-1.215-.112h-1.259l-2.552,0-21.92.013-50.228.011a4.573,4.573,0,0,0-2.964,1.1,4.477,4.477,0,0,0-1.516,2.752,11.768,11.768,0,0,0-.056,1.624q0,.822,0,1.642v3.266q0,6.508,0,12.816t0,12.369q0,3.032,0,6c.007.49-.016,1,.015,1.469a4.438,4.438,0,0,0,.313,1.387,4.542,4.542,0,0,0,1.781,2.14,4.625,4.625,0,0,0,2.668.71h2.84l5.565,0,10.641.007,19.1.017,27.656.045,7.519.026,1.955.013c.441,0,.666.015.666.015s-.226.01-.666.015l-1.955.013-7.519.026-27.656.045-19.1.017-10.641.007-5.565,0h-2.84a4.882,4.882,0,0,1-2.807-.748,4.8,4.8,0,0,1-1.885-2.262,4.689,4.689,0,0,1-.333-1.467c-.032-.508-.009-.988-.017-1.487q0-2.965,0-6,0-6.062,0-12.369t0-12.816q0-1.628,0-3.266v-1.642a11.962,11.962,0,0,1,.058-1.665,4.758,4.758,0,0,1,1.61-2.923,4.852,4.852,0,0,1,3.147-1.173l50.228.011,21.92.013,2.552,0h1.259a5.538,5.538,0,0,1,1.264.119,4.812,4.812,0,0,1,3.51,3.227,7.507,7.507,0,0,1,.219,2.377q0,1.171,0,2.317,0,2.292,0,4.482c-.019,11.673-.034,21.122-.045,27.658q0,1.224-.006,2.311a5.5,5.5,0,0,1-.261,2.015,4.677,4.677,0,0,1-1.957,2.456,4.524,4.524,0,0,1-1.834.659,3.41,3.41,0,0,1-.5.037c-.112,0-.168,0-.168,0" transform="translate(-79.147 -112.441)" fill="#263238"/>
            <rect id="Rectángulo_58854" data-name="Rectángulo 58854" width="12.704" height="2.396" transform="translate(102.118 140.086)" fill="#4adbd1"/>
            <rect id="Rectángulo_58855" data-name="Rectángulo 58855" width="12.704" height="2.396" transform="translate(102.118 169.447)" fill="#4adbd1"/>
            <rect id="Rectángulo_58856" data-name="Rectángulo 58856" width="21.871" height="2.396" transform="translate(102.118 146.025)" fill="#e0e0e0"/>
            <rect id="Rectángulo_58857" data-name="Rectángulo 58857" width="9.667" height="2.396" transform="translate(127.863 146.025)" fill="#4adbd1"/>
            <rect id="Rectángulo_58858" data-name="Rectángulo 58858" width="6.356" height="2.396" transform="translate(159.978 146.025)" fill="#263238"/>
            <rect id="Rectángulo_58859" data-name="Rectángulo 58859" width="16.832" height="2.396" transform="translate(140.928 146.025)" fill="#455a64"/>
            <rect id="Rectángulo_58860" data-name="Rectángulo 58860" width="21.871" height="2.396" transform="translate(144.463 151.692)" fill="#e0e0e0"/>
            <rect id="Rectángulo_58861" data-name="Rectángulo 58861" width="9.666" height="2.396" transform="translate(130.921 151.692)" fill="#455a64"/>
            <rect id="Rectángulo_58862" data-name="Rectángulo 58862" width="6.356" height="2.396" transform="translate(102.118 151.692)" fill="#263238"/>
            <rect id="Rectángulo_58863" data-name="Rectángulo 58863" width="16.832" height="2.396" transform="translate(110.692 151.692)" fill="#4adbd1"/>
            <rect id="Rectángulo_58864" data-name="Rectángulo 58864" width="21.871" height="2.396" transform="translate(102.118 157.51)" fill="#e0e0e0"/>
            <rect id="Rectángulo_58865" data-name="Rectángulo 58865" width="9.667" height="2.396" transform="translate(127.863 157.51)" fill="#263238"/>
            <rect id="Rectángulo_58866" data-name="Rectángulo 58866" width="6.356" height="2.396" transform="translate(159.978 157.51)" fill="#263238"/>
            <rect id="Rectángulo_58867" data-name="Rectángulo 58867" width="6.356" height="2.396" transform="translate(122.895 163.44)" fill="#4adbd1"/>
            <rect id="Rectángulo_58868" data-name="Rectángulo 58868" width="16.832" height="2.396" transform="translate(140.928 157.51)" fill="#455a64"/>
            <rect id="Rectángulo_58869" data-name="Rectángulo 58869" width="16.832" height="2.396" transform="translate(101.659 163.44)" fill="#455a64"/>
          </g>
        </g>
        <g id="Grupo_181199" data-name="Grupo 181199">
          <g id="Grupo_181198" data-name="Grupo 181198" clip-path="url(#clip-path)">
            <path id="Trazado_234480" data-name="Trazado 234480" d="M444.865,309.729H418.239a4.374,4.374,0,0,1-4.374-4.374v-25.6a4.373,4.373,0,0,1,4.374-4.373h26.627a4.374,4.374,0,0,1,4.374,4.373v25.6a4.374,4.374,0,0,1-4.374,4.374" transform="translate(-190.444 -126.717)" fill="#fafafa"/>
            <path id="Trazado_234481" data-name="Trazado 234481" d="M444.748,309.609a5.908,5.908,0,0,0,1.311-.23,4.493,4.493,0,0,0,1.406-.772,4.31,4.31,0,0,0,1.577-3.014c.033-.452.007-.946.012-1.451q-.006-1.525-.012-3.3c-.006-2.373-.013-5.072-.021-8.056s-.011-6.254-.017-9.763q0-1.316,0-2.676a8.728,8.728,0,0,0-.055-1.35,4,4,0,0,0-.41-1.282,4.228,4.228,0,0,0-1.938-1.9,4.093,4.093,0,0,0-1.345-.395c-.465-.048-.962-.028-1.454-.031l-25.675.011a4.231,4.231,0,0,0-4.231,4.112q0,3.325-.009,6.547c0,4.3-.005,8.438-.008,12.384q0,2.96-.006,5.767c.007.464-.017.941.016,1.381a4.47,4.47,0,0,0,.31,1.29,4.282,4.282,0,0,0,4.053,2.617l2.492,0,4.685.009,14.137.045,3.844.026,1,.014c.225,0,.341.015.341.015s-.116.01-.341.015l-1,.014-3.844.026-14.137.045-4.685.009-2.492,0a4.515,4.515,0,0,1-4.275-2.75,4.71,4.71,0,0,1-.331-1.363c-.036-.478-.012-.93-.021-1.4q0-2.8-.006-5.767c0-3.947-.005-8.089-.008-12.384q0-3.223,0-6.555a4.511,4.511,0,0,1,4.51-4.385l25.675.011c.493.005.979-.016,1.484.036a4.338,4.338,0,0,1,1.425.421,4.473,4.473,0,0,1,2.048,2.015,5.317,5.317,0,0,1,.485,2.743q0,1.36,0,2.676c-.007,3.509-.012,6.778-.017,9.763s-.015,5.683-.021,8.056q-.006,1.777-.011,3.3c-.01.51.013.989-.025,1.461a4.536,4.536,0,0,1-.313,1.3,4.322,4.322,0,0,1-3.762,2.708c-.226.007-.341,0-.341,0" transform="translate(-190.326 -126.597)" fill="#263238"/>
            <path id="Trazado_234482" data-name="Trazado 234482" d="M428.331,290.371h19.287l.032,6.46h-.923q-.453-3.467-2.6-4.691a8,8,0,0,0-3.6-.737V308.28a3.261,3.261,0,0,0,.618,2.348,3.969,3.969,0,0,0,2.573.579v.813H432.3v-.813a3.765,3.765,0,0,0,2.5-.587,3.262,3.262,0,0,0,.618-2.34V291.4a8.2,8.2,0,0,0-3.6.737q-2.3,1.255-2.6,4.691H428.3Z" transform="translate(-197.086 -133.617)" fill="#263238"/>
          </g>
        </g>
        <g id="Grupo_181201" data-name="Grupo 181201">
          <g id="Grupo_181200" data-name="Grupo 181200" clip-path="url(#clip-path)">
            <path id="Trazado_234483" data-name="Trazado 234483" d="M490.505,176.184v64.595a3.473,3.473,0,0,0,3.473,3.473H535.62a3.473,3.473,0,0,0,3.473-3.473V176.184a3.473,3.473,0,0,0-3.473-3.473H493.978a3.473,3.473,0,0,0-3.473,3.473" transform="translate(-225.71 -79.474)" fill="#fff"/>
            <path id="Trazado_234484" data-name="Trazado 234484" d="M490.4,176.087s0-.051,0-.153a2.607,2.607,0,0,1,.041-.451,3.443,3.443,0,0,1,.721-1.612,3.491,3.491,0,0,1,2.521-1.289c1.145-.023,2.458-.014,3.941-.022l25.105-.045,8.319-.009,4.425,0a3.6,3.6,0,0,1,3.506,2.665,4.1,4.1,0,0,1,.124,1.192q0,.59,0,1.183,0,1.189,0,2.4,0,2.415,0,4.905,0,4.979.005,10.24c0,14.014.008,29.421.011,45.592a3.64,3.64,0,0,1-1.283,2.765,3.558,3.558,0,0,1-1.375.722,5.36,5.36,0,0,1-1.526.132h-5.95l-11.633,0-21.991-.008h-1.31a3.977,3.977,0,0,1-1.323-.186,3.585,3.585,0,0,1-2.425-2.915,10.613,10.613,0,0,1-.038-1.283q0-1.263,0-2.508,0-4.98.007-9.659c.006-6.232.012-12.037.017-17.338.019-10.6.034-19.17.045-25.1.011-2.959.02-5.259.026-6.825.006-.776.01-1.369.013-1.775s.015-.6.015-.6.01.2.015.6.008,1,.013,1.775c.007,1.566.015,3.866.026,6.825.011,5.933.026,14.508.045,25.1.005,5.3.011,11.106.017,17.338q0,4.674.007,9.659,0,1.245,0,2.508a10.444,10.444,0,0,0,.037,1.248,3.329,3.329,0,0,0,2.256,2.706,3.7,3.7,0,0,0,1.242.172h1.31l21.991-.008,11.633,0h5.95a5.11,5.11,0,0,0,1.452-.122,3.271,3.271,0,0,0,1.268-.666,3.358,3.358,0,0,0,1.183-2.55c0-16.171.008-31.578.011-45.592q0-5.255.006-10.24,0-2.489,0-4.905,0-1.208,0-2.4,0-.594,0-1.183a3.859,3.859,0,0,0-.115-1.133,3.37,3.37,0,0,0-3.281-2.5l-4.425,0-8.319-.009-25.105-.045c-1.481,0-2.8-.018-3.937,0a3.435,3.435,0,0,0-2.482,1.241,3.481,3.481,0,0,0-.737,1.581c-.074.392-.053.6-.07.6" transform="translate(-225.603 -79.377)" fill="#263238"/>
            <path id="Trazado_234485" data-name="Trazado 234485" d="M514.425,243.083h-.153a1.324,1.324,0,0,1-1.324-1.324V197.034a1.323,1.323,0,0,1,1.324-1.324h.153a1.324,1.324,0,0,1,1.324,1.324v44.725a1.324,1.324,0,0,1-1.324,1.324" transform="translate(-236.038 -90.058)" fill="#e0e0e0"/>
            <path id="Trazado_234486" data-name="Trazado 234486" d="M514.286,242.941a1.438,1.438,0,0,0,.882-.383c.578-.438.344-1.5.379-2.716-.013-2.5-.03-6.085-.051-10.509-.01-4.442-.022-9.724-.034-15.586,0-2.933-.007-6.012-.01-9.2q0-2.394,0-4.868,0-1.236,0-2.49a2.237,2.237,0,0,0-.038-.584,1.127,1.127,0,0,0-.258-.483,1.208,1.208,0,0,0-1.017-.389,1.169,1.169,0,0,0-.95.491,1.145,1.145,0,0,0-.2.509c-.023.171-.009.4-.013.605q0,1.254,0,2.491,0,2.473,0,4.869c0,3.192-.006,6.271-.01,9.206-.013,5.863-.025,11.145-.035,15.587-.022,4.425-.039,8.01-.051,10.509q-.007.926-.014,1.648a1.289,1.289,0,0,0,.508,1.01,1.311,1.311,0,0,0,.669.265c.165.016.252.014.252.022a1.311,1.311,0,0,1-.254.011,1.294,1.294,0,0,1-.705-.246,1.357,1.357,0,0,1-.565-1.061c0-.48-.01-1.032-.016-1.65-.012-2.5-.03-6.084-.051-10.509-.01-4.442-.022-9.724-.035-15.587,0-2.935-.007-6.014-.01-9.206q0-2.394,0-4.869,0-1.236,0-2.491a6.1,6.1,0,0,1,.016-.649,1.458,1.458,0,0,1,.258-.651,1.491,1.491,0,0,1,1.214-.627,1.537,1.537,0,0,1,1.258.5,1.453,1.453,0,0,1,.33.617,2.547,2.547,0,0,1,.049.665q0,1.254,0,2.49,0,2.473,0,4.868c0,3.192-.006,6.27-.009,9.2-.013,5.863-.025,11.144-.034,15.586-.022,4.424-.039,8.01-.051,10.509q-.009.927-.015,1.649a1.388,1.388,0,0,1-.445,1.114,1.185,1.185,0,0,1-.926.335" transform="translate(-235.899 -89.916)" fill="#263238"/>
            <path id="Trazado_234487" data-name="Trazado 234487" d="M534.39,243.083h-.153a1.324,1.324,0,0,1-1.324-1.324V197.034a1.324,1.324,0,0,1,1.324-1.324h.153a1.324,1.324,0,0,1,1.324,1.324v44.725a1.324,1.324,0,0,1-1.324,1.324" transform="translate(-245.225 -90.058)" fill="#e0e0e0"/>
            <path id="Trazado_234488" data-name="Trazado 234488" d="M534.252,242.941a1.438,1.438,0,0,0,.882-.383c.578-.438.344-1.5.379-2.716-.012-2.5-.03-6.085-.051-10.509-.01-4.442-.022-9.724-.035-15.586,0-2.933-.006-6.012-.01-9.2q0-2.394,0-4.868,0-1.236,0-2.49a2.222,2.222,0,0,0-.038-.584,1.125,1.125,0,0,0-.258-.483,1.208,1.208,0,0,0-1.017-.389,1.169,1.169,0,0,0-.95.491,1.143,1.143,0,0,0-.2.509c-.022.171-.009.4-.013.605q0,1.254,0,2.491,0,2.473,0,4.869c0,3.192-.006,6.271-.01,9.206-.013,5.863-.025,11.145-.035,15.587-.022,4.425-.039,8.01-.051,10.509q-.007.926-.013,1.648a1.29,1.29,0,0,0,.507,1.01,1.312,1.312,0,0,0,.669.265c.165.016.252.014.252.022a1.311,1.311,0,0,1-.254.011,1.294,1.294,0,0,1-.705-.246,1.357,1.357,0,0,1-.565-1.061c0-.48-.01-1.032-.016-1.65-.012-2.5-.03-6.084-.051-10.509-.01-4.442-.022-9.724-.034-15.587,0-2.935-.006-6.014-.01-9.206q0-2.394,0-4.869,0-1.236,0-2.491a6.081,6.081,0,0,1,.016-.649,1.459,1.459,0,0,1,.258-.651,1.491,1.491,0,0,1,1.214-.627,1.536,1.536,0,0,1,1.258.5,1.459,1.459,0,0,1,.33.617,2.537,2.537,0,0,1,.048.665q0,1.254,0,2.49,0,2.473,0,4.868c0,3.192-.006,6.27-.009,9.2-.013,5.863-.025,11.144-.035,15.586-.021,4.424-.039,8.01-.051,10.509q-.009.927-.015,1.649a1.386,1.386,0,0,1-.445,1.114,1.185,1.185,0,0,1-.926.335" transform="translate(-245.086 -89.916)" fill="#263238"/>
            <path id="Trazado_234489" data-name="Trazado 234489" d="M554.355,243.083H554.2a1.324,1.324,0,0,1-1.324-1.324V197.034a1.324,1.324,0,0,1,1.324-1.324h.153a1.324,1.324,0,0,1,1.324,1.324v44.725a1.324,1.324,0,0,1-1.324,1.324" transform="translate(-254.412 -90.058)" fill="#e0e0e0"/>
            <path id="Trazado_234490" data-name="Trazado 234490" d="M554.216,242.941a1.438,1.438,0,0,0,.882-.383c.578-.438.344-1.5.379-2.716-.012-2.5-.03-6.085-.051-10.509-.01-4.442-.022-9.724-.035-15.586,0-2.933-.007-6.012-.01-9.2q0-2.394,0-4.868,0-1.236,0-2.49a2.244,2.244,0,0,0-.039-.584,1.125,1.125,0,0,0-.258-.483,1.208,1.208,0,0,0-1.017-.389,1.169,1.169,0,0,0-.95.491,1.142,1.142,0,0,0-.2.509c-.023.171-.009.4-.013.605q0,1.254,0,2.491,0,2.473,0,4.869c0,3.192-.007,6.271-.01,9.206-.013,5.863-.025,11.145-.035,15.587-.022,4.425-.039,8.01-.051,10.509q-.007.926-.014,1.648a1.291,1.291,0,0,0,.507,1.01,1.311,1.311,0,0,0,.669.265c.165.016.252.014.251.022a1.31,1.31,0,0,1-.254.011,1.291,1.291,0,0,1-.7-.246,1.356,1.356,0,0,1-.565-1.061c0-.48-.01-1.032-.016-1.65-.012-2.5-.03-6.084-.051-10.509-.01-4.442-.022-9.724-.035-15.587,0-2.935-.006-6.014-.01-9.206q0-2.394,0-4.869,0-1.236,0-2.491a6.128,6.128,0,0,1,.016-.649,1.461,1.461,0,0,1,.258-.651,1.492,1.492,0,0,1,1.214-.627,1.538,1.538,0,0,1,1.258.5,1.464,1.464,0,0,1,.33.617,2.55,2.55,0,0,1,.048.665q0,1.254,0,2.49,0,2.473,0,4.868c0,3.192-.006,6.27-.009,9.2-.013,5.863-.025,11.144-.035,15.586-.022,4.424-.039,8.01-.051,10.509q-.008.927-.015,1.649a1.387,1.387,0,0,1-.445,1.114,1.185,1.185,0,0,1-.926.335" transform="translate(-254.273 -89.916)" fill="#263238"/>
            <path id="Trazado_234491" data-name="Trazado 234491" d="M512.45,232.194h-.513a2.724,2.724,0,0,1,0-5.449h.513a2.724,2.724,0,1,1,0,5.449" transform="translate(-234.319 -104.339)" fill="#12263f"/>
            <path id="Trazado_234492" data-name="Trazado 234492" d="M533.719,251.221h-.513a2.724,2.724,0,1,1,0-5.449h.513a2.724,2.724,0,0,1,0,5.449" transform="translate(-244.106 -113.094)" fill="#12263f"/>
            <path id="Trazado_234493" data-name="Trazado 234493" d="M552.96,215.361h-.513a2.724,2.724,0,0,1-2.725-2.724h0a2.725,2.725,0,0,1,2.725-2.724h.513a2.724,2.724,0,0,1,0,5.449" transform="translate(-252.959 -96.593)" fill="#12263f"/>
          </g>
        </g>
        <g id="Grupo_181209" data-name="Grupo 181209">
          <g id="Grupo_181208" data-name="Grupo 181208" clip-path="url(#clip-path)">
            <path id="Trazado_234494" data-name="Trazado 234494" d="M540.583,101.5H482.858a4.5,4.5,0,0,1-4.5-4.5V39.28a4.5,4.5,0,0,1,4.5-4.5h57.725a4.5,4.5,0,0,1,4.5,4.5V97a4.5,4.5,0,0,1-4.5,4.5" transform="translate(-220.122 -16.005)" fill="#fff"/>
            <path id="Trazado_234495" data-name="Trazado 234495" d="M540.462,101.383c0-.014.228,0,.664-.069a4.467,4.467,0,0,0,3.621-3.219,6.84,6.84,0,0,0,.164-2.01q0-1.091-.006-2.32c-.011-6.562-.026-16.049-.045-27.77-.005-5.862-.011-12.284-.017-19.176q0-2.585,0-5.257c-.007-.887.013-1.8-.016-2.685a4.365,4.365,0,0,0-3.148-3.915,10.59,10.59,0,0,0-2.761-.173l-5.74,0-50.431.011a4.366,4.366,0,0,0-4.344,3.969c-.039,2.183-.011,4.4-.021,6.569q0,6.535,0,12.868c0,8.436-.005,16.574-.008,24.325q0,5.814-.006,11.327,0,1.377,0,2.734a4.519,4.519,0,0,0,.613,2.517,4.139,4.139,0,0,0,.813,1,4.076,4.076,0,0,0,1.06.717,5.02,5.02,0,0,0,2.488.436l19.177.017,27.768.045,7.55.026,1.963.013c.442,0,.669.015.669.015s-.227.01-.669.015l-1.963.013-7.55.026-27.768.045-19.177.017a5.262,5.262,0,0,1-2.591-.456,4.3,4.3,0,0,1-1.118-.754,4.4,4.4,0,0,1-.859-1.054,4.77,4.77,0,0,1-.649-2.639q0-1.357,0-2.734,0-5.508-.006-11.327c0-7.752-.005-15.889-.008-24.325q0-6.327,0-12.868c.009-2.184-.021-4.361.02-6.594a4.648,4.648,0,0,1,4.624-4.226l50.431.011,5.74,0h1.411a4.9,4.9,0,0,1,1.42.185,4.614,4.614,0,0,1,3.322,4.141c.029.919.007,1.806.013,2.7q0,2.671,0,5.257c-.007,6.893-.012,13.314-.017,19.176-.019,11.721-.034,21.208-.045,27.77q0,1.229-.007,2.32a6.9,6.9,0,0,1-.18,2.032,4.551,4.551,0,0,1-1.865,2.538,4.468,4.468,0,0,1-1.832.686,3.345,3.345,0,0,1-.5.039c-.112,0-.168,0-.168,0" transform="translate(-220.001 -15.886)" fill="#263238"/>
            <path id="Trazado_234502" data-name="Trazado 234502" d="M506.813,115.287a5.963,5.963,0,1,1-5.963-5.963,5.963,5.963,0,0,1,5.963,5.963" transform="translate(-227.727 -50.306)" fill="#ff725e"/>
            <path id="Trazado_234503" data-name="Trazado 234503" d="M541.037,115.287a5.963,5.963,0,1,1-5.963-5.963,5.963,5.963,0,0,1,5.963,5.963" transform="translate(-243.475 -50.306)" fill="#5573c6"/>
            <path id="Trazado_234577" data-name="Trazado 234577" d="M554.663,122.1a12.776,12.776,0,1,1-12.775-12.775A12.775,12.775,0,0,1,554.663,122.1" transform="translate(-250.212 -82.996)" fill="#373f51"/>
            <path id="Trazado_234504" data-name="Trazado 234504" d="M575.262,115.287a5.963,5.963,0,1,1-5.963-5.963,5.963,5.963,0,0,1,5.963,5.963" transform="translate(-259.224 -50.306)" fill="#f4a338"/>
            <g id="Grupo_181204" data-name="Grupo 181204" transform="translate(267.16 59.018)" opacity="0">
              <g id="Grupo_181203" data-name="Grupo 181203" transform="translate(0 0)">
                <g id="Grupo_181223" data-name="Grupo 181223">
                  <path id="Trazado_234505" data-name="Trazado 234505" d="M506.813,115.287a5.963,5.963,0,1,1-5.963-5.963,5.963,5.963,0,0,1,5.963,5.963" transform="translate(-494.887 -109.324)" fill="#4adbd1"/>
                </g>
              </g>
            </g>
            <path id="Trazado_234507" data-name="Trazado 234507" d="M506.687,115.183a12.838,12.838,0,0,0-.242-1.442,5.943,5.943,0,0,0-2.176-3.215,5.839,5.839,0,0,0-5.529-.816,5.843,5.843,0,0,0-2.7,2.034,5.8,5.8,0,0,0,0,6.877,5.837,5.837,0,0,0,2.7,2.034,5.839,5.839,0,0,0,5.53-.816,5.943,5.943,0,0,0,2.176-3.214,12.816,12.816,0,0,0,.242-1.442,4.618,4.618,0,0,1-.131,1.47,6.016,6.016,0,0,1-4.709,4.508,6.09,6.09,0,0,1-3.2-.249,6.1,6.1,0,0,1-2.841-2.118,6.064,6.064,0,0,1,0-7.22,6.093,6.093,0,0,1,2.841-2.118,6.09,6.09,0,0,1,3.2-.249,6.016,6.016,0,0,1,4.709,4.508,4.618,4.618,0,0,1,.131,1.47" transform="translate(-227.601 -50.203)" fill="#263238"/>
            <path id="Trazado_234508" data-name="Trazado 234508" d="M540.911,115.183a12.8,12.8,0,0,0-.242-1.442,5.943,5.943,0,0,0-2.176-3.215,5.84,5.84,0,0,0-5.529-.816,5.843,5.843,0,0,0-2.7,2.034,5.8,5.8,0,0,0,0,6.877,5.837,5.837,0,0,0,2.7,2.034,5.839,5.839,0,0,0,5.53-.816,5.944,5.944,0,0,0,2.176-3.214,12.78,12.78,0,0,0,.242-1.442,4.62,4.62,0,0,1-.131,1.47,6.016,6.016,0,0,1-4.709,4.508,6.09,6.09,0,0,1-3.2-.249,6.1,6.1,0,0,1-2.841-2.118,6.064,6.064,0,0,1,0-7.22,6.092,6.092,0,0,1,2.841-2.118,6.089,6.089,0,0,1,3.2-.249,5.994,5.994,0,0,1,2.548,1.155,5.934,5.934,0,0,1,2.161,3.352,4.62,4.62,0,0,1,.131,1.47" transform="translate(-243.349 -50.203)" fill="#263238"/>
            <path id="Trazado_234578" data-name="Trazado 234578" d="M554.706,122.134a27.531,27.531,0,0,0-.519-3.089,12.733,12.733,0,0,0-4.662-6.888,12.513,12.513,0,0,0-11.847-1.748,12.521,12.521,0,0,0-5.785,4.357,12.422,12.422,0,0,0,0,14.735,12.506,12.506,0,0,0,5.787,4.358,12.51,12.51,0,0,0,11.848-1.749,12.734,12.734,0,0,0,4.661-6.887,27.484,27.484,0,0,0,.519-3.089,9.9,9.9,0,0,1-.28,3.15,12.89,12.89,0,0,1-10.09,9.658,13.048,13.048,0,0,1-6.858-.534,13.062,13.062,0,0,1-6.088-4.539,12.994,12.994,0,0,1,0-15.47,13.053,13.053,0,0,1,6.086-4.538,13.046,13.046,0,0,1,6.858-.534,12.89,12.89,0,0,1,10.09,9.658,9.9,9.9,0,0,1,.28,3.15" transform="translate(-250.254 -83.032)" fill="#263238"/>
            <path id="Trazado_234509" data-name="Trazado 234509" d="M575.116,115.183a12.8,12.8,0,0,0-.242-1.442,5.943,5.943,0,0,0-2.176-3.215,5.84,5.84,0,0,0-5.529-.816,5.843,5.843,0,0,0-2.7,2.034,5.8,5.8,0,0,0,0,6.877,5.837,5.837,0,0,0,2.7,2.034,5.839,5.839,0,0,0,5.53-.816,5.94,5.94,0,0,0,2.176-3.214,12.78,12.78,0,0,0,.242-1.442,4.617,4.617,0,0,1-.131,1.47,5.936,5.936,0,0,1-2.161,3.352,6,6,0,0,1-2.548,1.155,6.09,6.09,0,0,1-3.2-.249,6.1,6.1,0,0,1-2.841-2.118,6.064,6.064,0,0,1,0-7.22,6.093,6.093,0,0,1,2.841-2.118,6.089,6.089,0,0,1,3.2-.249,5.994,5.994,0,0,1,2.548,1.155,5.934,5.934,0,0,1,2.161,3.352,4.618,4.618,0,0,1,.131,1.47" transform="translate(-259.089 -50.203)" fill="#263238"/>
          </g>
        </g>
        <g id="Grupo_181220" data-name="Grupo 181220">
          <g id="Grupo_181219" data-name="Grupo 181219" clip-path="url(#clip-path)">
            <path id="Trazado_234510" data-name="Trazado 234510" d="M84.6,148.509a2.645,2.645,0,0,0,2.118,1.366,6.484,6.484,0,0,0,.936-.213c.29.2.155,1.23-.07,1.5a5.554,5.554,0,0,1-.689.629,3.422,3.422,0,0,0,3.022.067,5.308,5.308,0,0,1-3.407,4.052,1.863,1.863,0,0,1-1.7-.072,2.143,2.143,0,0,1-.666-1.372,23.235,23.235,0,0,1-.407-5.71Z" transform="translate(-38.516 -68.338)" fill="#263238"/>
            <path id="Trazado_234511" data-name="Trazado 234511" d="M42.245,153.894l-1.509,24.463c-.256,4.16.217,10.323,6.812,10.429,5.729-.34,7.507-5.66,7.743-9.543.111-1.841.208-3.377.233-3.566,0,0,6.263-.2,7.094-6.338.4-2.965.729-9.14.962-14.73a11.533,11.533,0,0,0-10.123-11.92l-.593-.073c-6.44-.411-10.385,4.828-10.618,11.277" transform="translate(-18.721 -65.616)" fill="#ffc09d"/>
            <path id="Trazado_234512" data-name="Trazado 234512" d="M61.609,201.006a14.955,14.955,0,0,1-7.711-3.347s1.4,4.728,7.6,4.927Z" transform="translate(-24.802 -90.955)" fill="#ff9b6c"/>
            <path id="Trazado_234513" data-name="Trazado 234513" d="M59.79,166.847c-.128.119-.812-.489-1.843-.567-1.029-.094-1.827.39-1.929.252-.05-.062.089-.283.437-.5a2.583,2.583,0,0,1,1.556-.36,2.5,2.5,0,0,1,1.455.612c.3.274.387.514.324.567" transform="translate(-25.773 -76.229)" fill="#263238"/>
            <path id="Trazado_234514" data-name="Trazado 234514" d="M61.674,172.733a.837.837,0,0,1-.9.74.8.8,0,0,1-.764-.854.837.837,0,0,1,.9-.74.8.8,0,0,1,.764.854" transform="translate(-27.611 -79.091)" fill="#263238"/>
            <path id="Trazado_234515" data-name="Trazado 234515" d="M67.149,174.646a6.308,6.308,0,0,1,1.568-.089c.244,0,.478-.015.539-.175a1.234,1.234,0,0,0-.073-.734q-.233-.917-.488-1.924a31.769,31.769,0,0,1-1.012-5,31.81,31.81,0,0,1,1.412,4.906q.239,1.011.457,1.931a1.41,1.41,0,0,1,.009.962.609.609,0,0,1-.439.3,1.679,1.679,0,0,1-.417.007,6.207,6.207,0,0,1-1.555-.189" transform="translate(-30.899 -76.72)" fill="#263238"/>
            <path id="Trazado_234516" data-name="Trazado 234516" d="M60.511,160.944c-.133.212-.925-.082-1.913-.178-.985-.118-1.826,0-1.907-.236-.035-.112.15-.3.513-.45a3.244,3.244,0,0,1,2.91.315c.32.226.456.447.4.548" transform="translate(-26.085 -73.566)" fill="#263238"/>
            <path id="Trazado_234517" data-name="Trazado 234517" d="M77.7,163.888c-.118.181-.913-.066-1.888-.144-.974-.1-1.791.007-1.885-.193-.04-.1.128-.255.476-.387A3.428,3.428,0,0,1,75.862,163a3.531,3.531,0,0,1,1.418.424c.327.192.475.379.422.466" transform="translate(-34.017 -74.998)" fill="#263238"/>
            <path id="Trazado_234518" data-name="Trazado 234518" d="M39.321,171.025c-.1-.058-4.069-1.767-4.45,2.451s3.932,3.73,3.95,3.61.5-6.061.5-6.061" transform="translate(-16.035 -78.519)" fill="#ffc09d"/>
            <path id="Trazado_234519" data-name="Trazado 234519" d="M38.6,176.5c-.017-.015-.078.045-.207.091a.74.74,0,0,1-.551-.038,1.826,1.826,0,0,1-.694-1.708,2.44,2.44,0,0,1,.3-1.033.852.852,0,0,1,.6-.514.376.376,0,0,1,.415.24c.046.123.011.205.033.214s.1-.063.079-.24a.468.468,0,0,0-.142-.279.554.554,0,0,0-.4-.144,1.037,1.037,0,0,0-.826.584,2.508,2.508,0,0,0-.361,1.153,1.915,1.915,0,0,0,.907,1.918.789.789,0,0,0,.682-.051c.14-.092.171-.185.157-.194" transform="translate(-16.955 -79.65)" fill="#ff9b6c"/>
            <path id="Trazado_234520" data-name="Trazado 234520" d="M33.062,147.541c.954-1.447,1.247-3.216,1.81-4.855s1.574-3.317,3.234-3.818l.036.018a4.454,4.454,0,0,1,4.452.639,5.788,5.788,0,0,1,4.589-4.283,14.327,14.327,0,0,1,7.61.977,15.714,15.714,0,0,1,4.8,4.122,20.741,20.741,0,0,1,2.028,2.72l1.581,5.849-1.746,2.941c-.105.2-.214.4-.344.6v-.014l-1.56,6.137c-.006-1.739.224-7.614.218-9.354a9.689,9.689,0,0,1-6.739-3.524c-.9-1.1-1.576-2.448-2.813-3.138-1.594-.889-3.571-.4-5.323.117l.076-.062a7.749,7.749,0,0,0-2.471,1.605,24.077,24.077,0,0,1-1.543,10.128c-.186.484-.676,1.476-1.169,1.639-.967.32-1.175-.659-1.721-1.2a2.517,2.517,0,0,0-1.705-.51,37.964,37.964,0,0,1-.944-4.443,3.861,3.861,0,0,1-1.78.031q.305-.64.61-1.28a2.016,2.016,0,0,1-.776.307.688.688,0,0,1-.7-.349c-.145-.332.092-.695.292-1" transform="translate(-15.059 -62.154)" fill="#263238"/>
            <path id="Trazado_234521" data-name="Trazado 234521" d="M46.4,144.81a5.255,5.255,0,0,0-.646.535,4.43,4.43,0,0,0-1.047,2,7.762,7.762,0,0,0-.235,1.559c-.03.568-.015,1.178,0,1.82a16.121,16.121,0,0,1-.053,2.024,7.079,7.079,0,0,1-.191,1.06,2.23,2.23,0,0,1-.486,1.013.932.932,0,0,1-.884.249,1.386,1.386,0,0,1-.761-.48,3.2,3.2,0,0,1-.517-1.6l.128.022a5.176,5.176,0,0,1-.814,1.255,1.837,1.837,0,0,1-1.231.594,1.184,1.184,0,0,1-.63-.143,1.026,1.026,0,0,1-.411-.446,1.055,1.055,0,0,1-.1-.553.761.761,0,0,1,.221-.47l.063.062a3.983,3.983,0,0,1-1.373.928,3.549,3.549,0,0,1-.418.139.687.687,0,0,1-.149.029.754.754,0,0,1,.142-.052c.093-.033.232-.082.407-.159a4.1,4.1,0,0,0,1.327-.945l.063.062a.792.792,0,0,0-.086.914.928.928,0,0,0,.372.4,1.076,1.076,0,0,0,.571.122,1.724,1.724,0,0,0,1.144-.566,5.117,5.117,0,0,0,.784-1.228l.1-.193.03.215a3.1,3.1,0,0,0,.492,1.526,1.248,1.248,0,0,0,.681.43.785.785,0,0,0,.751-.211,2.106,2.106,0,0,0,.449-.948,7.075,7.075,0,0,0,.189-1.038,16.468,16.468,0,0,0,.061-2.007c-.008-.642-.02-1.255.016-1.83a7.755,7.755,0,0,1,.256-1.578,4.366,4.366,0,0,1,1.105-2.013,2.5,2.5,0,0,1,.686-.5" transform="translate(-16.962 -66.636)" fill="#455a64"/>
            <path id="Trazado_234522" data-name="Trazado 234522" d="M73.51,148.94s-.016.016-.051.04l-.16.1a2.055,2.055,0,0,1-.269.154,3.221,3.221,0,0,1-.384.179,5.473,5.473,0,0,1-2.662.345,7,7,0,0,1-3.653-1.557,12.1,12.1,0,0,1-3.014-3.841c-.412-.768-.74-1.552-1.108-2.278a8.155,8.155,0,0,0-1.285-1.944,4.207,4.207,0,0,0-1.723-1.166,3,3,0,0,0-.931-.154,3.3,3.3,0,0,0-.866.123,3.569,3.569,0,0,0-2.063,1.579,4.256,4.256,0,0,0-.364.909.2.2,0,0,1,.008-.065c.01-.051.023-.112.038-.187a3.122,3.122,0,0,1,.268-.685,3.516,3.516,0,0,1,.736-.9,3.615,3.615,0,0,1,1.347-.747,3.411,3.411,0,0,1,.893-.136,3.124,3.124,0,0,1,.97.152,4.325,4.325,0,0,1,1.783,1.188,8.245,8.245,0,0,1,1.314,1.971c.372.732.7,1.513,1.109,2.274a12.114,12.114,0,0,0,2.97,3.8,6.945,6.945,0,0,0,3.581,1.559,5.561,5.561,0,0,0,2.63-.3,8.728,8.728,0,0,0,.886-.426" transform="translate(-25.298 -63.83)" fill="#455a64"/>
            <path id="Trazado_234523" data-name="Trazado 234523" d="M77.188,168.425c-.128.119-.812-.489-1.843-.568-1.029-.094-1.827.39-1.929.252-.05-.062.089-.283.436-.5a2.589,2.589,0,0,1,1.556-.36,2.5,2.5,0,0,1,1.455.612c.3.274.387.514.324.567" transform="translate(-33.779 -76.956)" fill="#263238"/>
            <path id="Trazado_234524" data-name="Trazado 234524" d="M77.207,174.256a.836.836,0,0,1-.9.739.8.8,0,0,1-.764-.853.837.837,0,0,1,.9-.74.8.8,0,0,1,.764.854" transform="translate(-34.759 -79.792)" fill="#263238"/>
            <path id="Trazado_234525" data-name="Trazado 234525" d="M64.671,185.508c0,.036-.242.107-.646.056a2.472,2.472,0,0,1-2.108-2.1c-.052-.4.018-.65.054-.646s.054.243.154.6a2.693,2.693,0,0,0,1.942,1.938c.361.1.6.106.6.153" transform="translate(-28.483 -84.123)" fill="#263238"/>
            <path id="Trazado_234526" data-name="Trazado 234526" d="M101.775,212.7,85.539,227.057,69.864,214.408,68.68,231.024l9.721,7.783c4.022,1.567,8.4,2.343,11.595-.56l17.988-18.23Z" transform="translate(-31.604 -97.873)" fill="#1565c0"/>
            <path id="Trazado_234527" data-name="Trazado 234527" d="M6.544,213.986a12.768,12.768,0,0,1,5.968-9.54c.817-.48,7.564-3.425,7.564-3.425l2.007-2.874L34.4,206l1.553,1.418,1.266-3.044,1.5,2.279-.634-.1.177,1.163.764,5.048.542,14.463c-.007-.154.23,5.082.083,7.5-.557,9.116-2.11,32.348-2.66,33.985a2.976,2.976,0,0,1-2.6,2.087l-32.2-9.064c-1.818-.154-3.474-5.1-.757-6.688Z" transform="translate(0 -91.179)" fill="#1565c0"/>
            <g id="Grupo_181212" data-name="Grupo 181212" transform="translate(9.12 127.203)" opacity="0.3">
              <g id="Grupo_181211" data-name="Grupo 181211">
                <g id="Grupo_181210" data-name="Grupo 181210" clip-path="url(#clip-path-11)">
                  <path id="Trazado_234528" data-name="Trazado 234528" d="M16.894,235.631s13.409,25,18,27.464,11.995.9,11.995.9v-2.027Z" transform="translate(-16.894 -235.631)"/>
                </g>
              </g>
            </g>
            <path id="Trazado_234529" data-name="Trazado 234529" d="M24.617,215.178c1.859.838,19.063,23.447,19.063,23.447l24.354-.2,1.584,11.4s-25.533,3.694-31.487,2.393S14.763,225.6,13.7,223.892c-1.69-2.716-.249-7.016,2.364-9.3" transform="translate(-5.968 -98.747)" fill="#1565c0"/>
            <path id="Trazado_234530" data-name="Trazado 234530" d="M16.012,214.593s-.086.1-.263.269a8.552,8.552,0,0,0-.735.819,9.573,9.573,0,0,0-1.831,3.772,6.526,6.526,0,0,0-.039,3.012A9.725,9.725,0,0,0,14.9,225.61c1.494,2.152,3.227,4.58,5.19,7.228s4.152,5.522,6.609,8.52c1.229,1.5,2.524,3.027,3.913,4.552a44.143,44.143,0,0,0,4.54,4.436,9.079,9.079,0,0,0,2.768,1.675l.192.062.205.029.411.057c.275.033.547.089.828.1l1.692.075c2.276.026,4.6-.111,6.967-.268,4.728-.353,9.612-.883,14.6-1.506q3.409-.427,6.732-.895l-.118.158c-.541-3.9-1.069-7.71-1.581-11.4l.136.117-24.354.179h-.057l-.035-.045c-5.567-7.31-10.222-13.271-13.532-17.363-1.656-2.045-2.978-3.623-3.914-4.663-.466-.521-.838-.906-1.1-1.149a4.183,4.183,0,0,0-.423-.341,1.747,1.747,0,0,1,.446.315,14.957,14.957,0,0,1,1.13,1.129c.954,1.026,2.292,2.592,3.964,4.626,3.342,4.07,8.024,10.011,13.613,17.308l-.092-.045,24.354-.224h.12l.016.119c.514,3.685,1.045,7.492,1.588,11.394l.019.138-.138.02q-3.322.472-6.737.9c-5,.624-9.883,1.151-14.619,1.5-2.37.155-4.7.29-6.991.262l-1.71-.078c-.283-.017-.565-.073-.847-.108l-.422-.059-.21-.03-.207-.066a9.281,9.281,0,0,1-2.86-1.728,44.34,44.34,0,0,1-4.559-4.471c-1.39-1.533-2.684-3.068-3.911-4.571-2.452-3.009-4.632-5.893-6.588-8.549s-3.677-5.1-5.159-7.257c-.369-.542-.726-1.063-1.059-1.575a4.887,4.887,0,0,1-.7-1.626,6.622,6.622,0,0,1,.063-3.068,9.464,9.464,0,0,1,1.893-3.783,7.677,7.677,0,0,1,.759-.8c.185-.168.283-.248.283-.248" transform="translate(-5.918 -98.747)" fill="#263238"/>
            <path id="Trazado_234531" data-name="Trazado 234531" d="M37.191,203.471c.12.276,11.372,7.838,11.372,7.838l2.713-2.6,1.446,1.161" transform="translate(-17.114 -93.629)" fill="#274cb2"/>
            <path id="Trazado_234532" data-name="Trazado 234532" d="M52.721,209.865a2.043,2.043,0,0,1-.407-.27l-1.09-.827.109,0L48.65,211.4l-.073.072-.086-.058-3.4-2.282c-2.222-1.5-4.22-2.885-5.651-3.91a14.027,14.027,0,0,1-2.245-1.752l8.053,5.429,3.39,2.3-.159.013,2.745-2.572.054-.051.055.046,1.042.886a2.044,2.044,0,0,1,.352.339" transform="translate(-17.112 -93.629)" fill="#263238"/>
            <path id="Trazado_234533" data-name="Trazado 234533" d="M71.363,219.143a4.88,4.88,0,0,1,.138.839c.071.542.16,1.327.26,2.3.2,1.943.432,4.634.6,7.611s.235,5.679.242,7.633c0,.978,0,1.768-.019,2.314a4.9,4.9,0,0,1-.051.849,4.884,4.884,0,0,1-.058-.848c-.018-.6-.042-1.373-.07-2.311-.057-1.952-.157-4.646-.324-7.621s-.369-5.663-.518-7.61c-.069-.936-.126-1.712-.171-2.306a4.908,4.908,0,0,1-.029-.85" transform="translate(-32.834 -100.841)" fill="#263238"/>
            <path id="Trazado_234534" data-name="Trazado 234534" d="M6.5,300.177a111.884,111.884,0,0,0,22.383-3.953" transform="translate(-2.992 -136.31)" fill="#274cb2"/>
            <path id="Trazado_234535" data-name="Trazado 234535" d="M28.885,296.221a5.4,5.4,0,0,1-.848.292c-.551.172-1.353.4-2.349.666-1.993.531-4.769,1.179-7.869,1.728s-5.932.889-7.986,1.072c-1.027.093-1.859.153-2.435.18a5.466,5.466,0,0,1-.9.016,5.434,5.434,0,0,1,.887-.125l2.423-.268c2.045-.234,4.865-.607,7.957-1.151s5.868-1.163,7.869-1.644l2.369-.578a5.419,5.419,0,0,1,.877-.186" transform="translate(-2.992 -136.307)" fill="#263238"/>
            <path id="Trazado_234536" data-name="Trazado 234536" d="M40.669,372.7,25.3,367.439S14.788,381.3,11.852,380.6l9.124-30.174,24.29,7.21Z" transform="translate(-5.454 -161.253)" fill="#1565c0"/>
            <path id="Trazado_234537" data-name="Trazado 234537" d="M42.336,364.3a1.287,1.287,0,0,0-1.148-1.277,1.238,1.238,0,0,0-1.276,1.127,1.358,1.358,0,0,0,1.223,1.346c.632-.028,1.322-.7,1.2-1.32" transform="translate(-18.365 -167.045)" fill="#e0e0e0"/>
            <path id="Trazado_234538" data-name="Trazado 234538" d="M20.348,350.035l2.354.7-8.959,28.964s-.992,1.167-1.892.728Z" transform="translate(-5.454 -161.072)" fill="#e0e0e0"/>
            <path id="Trazado_234539" data-name="Trazado 234539" d="M35.986,380.156c-.146-.049.01-.807-.245-1.675-.232-.875-.757-1.442-.658-1.56.07-.127.884.359,1.174,1.415s-.146,1.892-.272,1.819" transform="translate(-16.138 -173.435)" fill="#263238"/>
            <path id="Trazado_234540" data-name="Trazado 234540" d="M31.1,385.811c-.153-.009-.211-.723-.682-1.412-.451-.7-1.087-1.033-1.036-1.177.019-.146.912.014,1.483.881s.377,1.748.236,1.709" transform="translate(-13.518 -176.321)" fill="#263238"/>
            <path id="Trazado_234541" data-name="Trazado 234541" d="M24.543,389.2c.009-.144.807-.126,1.5.5s.805,1.408.663,1.434c-.146.046-.444-.532-1.02-1.034s-1.173-.746-1.143-.9" transform="translate(-11.293 -179.062)" fill="#263238"/>
            <path id="Trazado_234542" data-name="Trazado 234542" d="M43.484,381.713c-.116-.1.292-.717.487-1.567.213-.846.129-1.578.279-1.617.132-.053.486.745.242,1.743s-.914,1.549-1.008,1.441" transform="translate(-20 -174.182)" fill="#263238"/>
            <path id="Trazado_234543" data-name="Trazado 234543" d="M48.52,314.092c.592-.164,26.627,27.766,27.219,32.381s-.355,8.64-3.432,11.243S34.2,351.8,34.2,351.8l3.314-14.675-12.663-4.26,11.317-20.71Z" transform="translate(-11.435 -143.64)" fill="#263238"/>
            <g id="Grupo_181215" data-name="Grupo 181215" transform="translate(17.249 175.283)" opacity="0.3">
              <g id="Grupo_181214" data-name="Grupo 181214">
                <g id="Grupo_181213" data-name="Grupo 181213" clip-path="url(#clip-path-12)">
                  <path id="Trazado_234544" data-name="Trazado 234544" d="M57.946,326.052l.834.9s-14.923,15.655-19.5,15.441l-7.327-2.482,24.79-15.213Z" transform="translate(-31.951 -324.694)"/>
                </g>
              </g>
            </g>
            <path id="Trazado_234545" data-name="Trazado 234545" d="M48.147,359.114c-.022.075,5.414,1.739,12.139,3.715s12.2,3.518,12.221,3.443-5.412-1.739-12.14-3.716-12.2-3.518-12.219-3.443" transform="translate(-22.155 -165.248)" fill="#455a64"/>
            <path id="Trazado_234546" data-name="Trazado 234546" d="M85.022,365.178,80.443,379.7S93.67,389.236,93.085,392L64.6,384.136l6.206-22.925Z" transform="translate(-29.727 -166.214)" fill="#1565c0"/>
            <path id="Trazado_234547" data-name="Trazado 234547" d="M77.263,388.666a1.206,1.206,0,0,0-1.171,1.105,1.16,1.16,0,0,0,1.085,1.17,1.273,1.273,0,0,0,1.234-1.177,1.2,1.2,0,0,0-1.264-1.092" transform="translate(-35.014 -178.843)" fill="#e0e0e0"/>
            <path id="Trazado_234548" data-name="Trazado 234548" d="M64.257,402.884l.6-2.222L92.2,408.4s1.116.9.726,1.756Z" transform="translate(-29.568 -184.368)" fill="#e0e0e0"/>
            <path id="Trazado_234549" data-name="Trazado 234549" d="M92.292,395.157c-.043.138-.756.009-1.563.267-.815.237-1.334.742-1.447.652-.121-.063.316-.837,1.3-1.132s1.776.094,1.71.213" transform="translate(-41.075 -181.685)" fill="#263238"/>
            <path id="Trazado_234550" data-name="Trazado 234550" d="M97.7,399.14c-.005.144-.673.214-1.308.672-.648.439-.943,1.042-1.08,1-.137-.015-.008-.856.792-1.41s1.629-.394,1.6-.26" transform="translate(-43.837 -183.607)" fill="#263238"/>
            <path id="Trazado_234551" data-name="Trazado 234551" d="M101.028,404.937c-.134-.005-.136-.754.431-1.417s1.3-.787,1.329-.655c.047.136-.488.429-.946.98s-.672,1.116-.814,1.092" transform="translate(-46.455 -185.36)" fill="#263238"/>
            <path id="Trazado_234552" data-name="Trazado 234552" d="M93.568,388.256c-.093.111-.679-.258-1.479-.421-.8-.18-1.482-.085-1.522-.225-.053-.122.687-.472,1.628-.267s1.472.822,1.373.912" transform="translate(-41.674 -178.211)" fill="#263238"/>
            <g id="Grupo_181218" data-name="Grupo 181218" transform="translate(35.713 178.823)" opacity="0.3">
              <g id="Grupo_181217" data-name="Grupo 181217">
                <g id="Grupo_181216" data-name="Grupo 181216" clip-path="url(#clip-path-13)">
                  <path id="Trazado_234553" data-name="Trazado 234553" d="M66.155,363.508l1.937-7.613-1.443-.672,8.8-23.972,1.681,1.462-6.92,21.96-2.476,9.166Z" transform="translate(-66.155 -331.252)"/>
                </g>
              </g>
            </g>
            <path id="Trazado_234554" data-name="Trazado 234554" d="M3.338,299.663s52.053-18.133,53-18.487a10.431,10.431,0,0,1,1.3-.329,12.357,12.357,0,0,1,9.908,2.124,9.09,9.09,0,0,1,3.7,9.093c-1.42,9.941-14.124,43.874-14.124,43.874l-17.577-5.285c-.1-.03-.2-.32-.144-.231.144.231,8.919-28.037,8.7-27.705-.236.355-17.739,14.476-25.014,17.076a16.129,16.129,0,0,1-18.425-5.5c-1.7-2.384-3.148-9.1-1.324-14.629" transform="translate(-1.146 -129.112)" fill="#263238"/>
            <path id="Trazado_234555" data-name="Trazado 234555" d="M3.3,299.556s-.062.182-.175.552a14.963,14.963,0,0,0-.406,1.664,20.923,20.923,0,0,0-.094,6.564,17.724,17.724,0,0,0,1.232,4.6A7.805,7.805,0,0,0,4.5,314.12c.264.374.553.738.855,1.106A15.223,15.223,0,0,0,7.5,317.259a16.25,16.25,0,0,0,5.819,2.917,16.356,16.356,0,0,0,7.292.274l.952-.205c.317-.076.627-.187.945-.28a16.577,16.577,0,0,0,1.872-.715c.616-.276,1.214-.6,1.832-.908l1.815-1.028c2.415-1.435,4.842-3.066,7.318-4.806s4.991-3.608,7.55-5.576q1.921-1.474,3.86-3.04l.966-.8c.082-.07.158-.128.245-.209l.127-.119.063-.06c-.1-.023.262.008-.211-.058-.01-.1,0-.019-.009-.029-.046.192-.109.4-.166.6l-.729,2.433c-1.994,6.52-4.124,13.366-6.393,20.454q-.433,1.326-.87,2.664c-.149.444-.3.893-.462,1.326-.012.04-.061.135-.043.114.457.192.146-.279-.061.124a.391.391,0,0,0,.022.07.823.823,0,0,0,.046.1.36.36,0,0,0,.208.188l.17.051.68.2,5.487,1.651,11.225,3.376.134.04.048-.131,1.83-4.971c2.807-7.731,5.475-15.307,7.858-22.689,1.185-3.693,2.326-7.329,3.271-10.943.25-.9.441-1.811.663-2.708s.356-1.812.514-2.715a9.261,9.261,0,0,0-4.142-9.365,12.123,12.123,0,0,0-4.77-1.947,12.9,12.9,0,0,0-5,.1l-1.2.306-1.147.4-2.264.792-16.649,5.829L12.1,296.43l-6.535,2.307-1.694.605c-.38.138-.57.213-.57.213s.2-.062.592-.192l1.714-.584,6.569-2.264,24.114-8.359,16.637-5.782,2.261-.787,1.144-.4L57.5,280.9a12.64,12.64,0,0,1,4.9-.094,11.847,11.847,0,0,1,4.663,1.909,8.986,8.986,0,0,1,4.018,9.107c-.159.892-.3,1.8-.513,2.691s-.412,1.8-.663,2.7c-.946,3.6-2.088,7.237-3.274,10.926-2.386,7.375-5.054,14.948-7.86,22.677l-1.828,4.968.182-.09-11.226-3.374-5.487-1.649-.68-.2-.17-.051c-.018-.015-.056.12-.011.018.025-.031,0-.011.006-.023a.285.285,0,0,1-.032-.047.452.452,0,0,1-.029-.062c-.036,0,.063-.036-.076,0,.01-.022-.458.143.057.114a.86.86,0,0,0,.1-.207c.17-.449.316-.894.466-1.34l.869-2.668c2.265-7.092,4.389-13.939,6.376-20.464l.728-2.436c.058-.205.117-.4.169-.616,0-.035.013.016,0-.106-.463-.06-.161-.016-.264-.018l-.052.046-.1.094c-.066.063-.155.133-.233.2l-.961.794q-1.933,1.566-3.851,3.042Q38.9,309.683,35.2,312.31c-2.469,1.743-4.889,3.375-7.293,4.811L26.1,318.148c-.613.3-1.208.631-1.817.905a16.343,16.343,0,0,1-1.847.71c-.313.092-.619.2-.932.279l-.94.2a16.167,16.167,0,0,1-7.2-.25A16.109,16.109,0,0,1,7.6,317.131a15.115,15.115,0,0,1-2.128-2c-.3-.361-.588-.723-.85-1.088a7.666,7.666,0,0,1-.632-1.158,17.711,17.711,0,0,1-1.248-4.56,21.262,21.262,0,0,1,.039-6.538c.14-.737.262-1.3.375-1.661s.149-.566.149-.566" transform="translate(-1.112 -129.005)" fill="#455a64"/>
            <path id="Trazado_234556" data-name="Trazado 234556" d="M95.006,307.166a7.191,7.191,0,0,0-1.449.81,22.1,22.1,0,0,0-3.142,2.489,19.5,19.5,0,0,0-2.611,3.044,11.721,11.721,0,0,0-.642,1.033,1.384,1.384,0,0,0-.187.406c.04.024.378-.511.992-1.321a24.978,24.978,0,0,1,2.645-2.956,29.593,29.593,0,0,1,3.06-2.529,14.463,14.463,0,0,0,1.336-.976" transform="translate(-40.021 -141.344)" fill="#455a64"/>
            <path id="Trazado_234557" data-name="Trazado 234557" d="M88.876,303.54a6.1,6.1,0,0,0-.619,1.329,23.943,23.943,0,0,0-1.532,6.888,6.1,6.1,0,0,0,0,1.466,9.762,9.762,0,0,0,.2-1.447c.109-.892.292-2.12.588-3.458s.653-2.527.932-3.382a9.7,9.7,0,0,0,.43-1.4" transform="translate(-39.89 -139.676)" fill="#455a64"/>
            <path id="Trazado_234558" data-name="Trazado 234558" d="M127.588,241.667l6.661-13.459a2.7,2.7,0,0,1,2.417-1.494H153.4a.816.816,0,0,1,.725,1.2L142.8,248.886a1.827,1.827,0,0,1-1.608.955H123.832Z" transform="translate(-56.982 -104.324)" fill="#455a64"/>
            <path id="Trazado_234559" data-name="Trazado 234559" d="M158.715,228.807a1.38,1.38,0,0,1-.335.027l-.958.016H153.9l-11.618-.1a3.345,3.345,0,0,0-1.545.371,2.878,2.878,0,0,0-1.027,1.127c-.486.919-.9,1.879-1.319,2.754l-2.22,4.693-1.522,3.153-.428.851a1.366,1.366,0,0,1-.168.288,1.294,1.294,0,0,1,.111-.314l.375-.875,1.431-3.194,2.159-4.721c.421-.887.81-1.82,1.314-2.783a3.174,3.174,0,0,1,1.138-1.245,3.631,3.631,0,0,1,1.689-.415c4.558.03,8.656.128,11.635.19l3.524.1.958.042a1.372,1.372,0,0,1,.334.036" transform="translate(-61.683 -105.119)" fill="#263238"/>
            <path id="Trazado_234560" data-name="Trazado 234560" d="M159.7,234.53a.545.545,0,0,1,.251.832.8.8,0,0,1-.886.333.62.62,0,0,1-.462-.441.764.764,0,0,1,.511-.766,1.213,1.213,0,0,1,.585.041" transform="translate(-72.98 -107.894)" fill="#fff"/>
            <path id="Trazado_234561" data-name="Trazado 234561" d="M111.84,255.06l1.154-1.177s1.695-2.444,2.388-3.208a52.191,52.191,0,0,1,4.853-3.437s2-2.694,2.313-2.694,1.283.172,1.02,1.425a19.089,19.089,0,0,1-1.1,3.614l8.884.193a1.89,1.89,0,0,1,1.447.687c.232.294.329.617-.087.823a43.276,43.276,0,0,1-4.7,1.375l1.686-.431a2.443,2.443,0,0,1-.705,2.357,5.76,5.76,0,0,0-1.135.9,4.975,4.975,0,0,1-.514,2.124c-.462.611-5.467,3.165-5.467,3.165a20.961,20.961,0,0,1-4.816.861,8.32,8.32,0,0,0-3.464.882c-.182.049-1.759-7.458-1.759-7.458" transform="translate(-51.464 -112.529)" fill="#ffc09d"/>
            <path id="Trazado_234562" data-name="Trazado 234562" d="M128.841,253.856a18.427,18.427,0,0,1-2.5.277,9.826,9.826,0,0,1-2.516.123,10.758,10.758,0,0,1,2.484-.433,7.166,7.166,0,0,1,2.527.033" transform="translate(-56.981 -116.764)" fill="#ff9b6c"/>
            <path id="Trazado_234563" data-name="Trazado 234563" d="M130.915,260.208a13.137,13.137,0,0,1,3.629-.765c1.015-.128,1.935-.219,2.6-.292a4.852,4.852,0,0,1,1.083-.082,3.141,3.141,0,0,1-1.05.3c-.661.13-1.58.255-2.593.383-2.03.231-3.648.527-3.669.456" transform="translate(-60.241 -119.206)" fill="#ff9b6c"/>
            <path id="Trazado_234564" data-name="Trazado 234564" d="M130.915,265.7c0-.092,1.3-.131,2.858-.4s2.8-.653,2.831-.566a10.73,10.73,0,0,1-5.689.967" transform="translate(-60.242 -121.812)" fill="#ff9b6c"/>
            <path id="Trazado_234565" data-name="Trazado 234565" d="M131.622,271.152c-.086.014-.215-.332-.288-.774s-.063-.81.022-.824.215.332.288.773.063.81-.022.824" transform="translate(-60.412 -124.038)" fill="#ff9b6c"/>
            <path id="Trazado_234566" data-name="Trazado 234566" d="M129.933,264.321c-.089-.007-.135-.294-.288-.6s-.343-.519-.294-.593.387.068.577.457.089.746.005.732" transform="translate(-59.519 -121.074)" fill="#ff9b6c"/>
            <path id="Trazado_234567" data-name="Trazado 234567" d="M128.179,257.447c-.088.009-.179-.175-.286-.384s-.2-.393-.138-.457.286.052.419.318.09.517.005.524" transform="translate(-58.779 -118.071)" fill="#ff9b6c"/>
            <path id="Trazado_234568" data-name="Trazado 234568" d="M132.932,202.009a8.606,8.606,0,0,1,1.508-4.135c3.434-4.222,2.291-7.986,2.291-7.986,1.189-1.314,3.165.256,3.552,3.264a54.031,54.031,0,0,1-.328,13.536c-.085.34-3.642,1.849-3.642,1.849l-4.746-5.545Z" transform="translate(-60.542 -87.164)" fill="#ffc09d"/>
            <path id="Trazado_234569" data-name="Trazado 234569" d="M228.3,186.2H148.264a4.669,4.669,0,0,1-4.67-4.67V147.265a4.669,4.669,0,0,1,4.67-4.67H228.3a4.67,4.67,0,0,1,4.67,4.67v34.266a4.67,4.67,0,0,1-4.67,4.67" transform="translate(-66.076 -65.616)" fill="#fff"/>
            <path id="Trazado_234570" data-name="Trazado 234570" d="M228.179,186.081c0-.014.227,0,.661-.067a4.563,4.563,0,0,0,1.807-.677,4.625,4.625,0,0,0,1.909-2.433,5.425,5.425,0,0,0,.245-1.986q0-1.086-.006-2.309c-.011-6.532-.026-15.973-.045-27.639q0-1.094,0-2.214,0-.56,0-1.126a7.433,7.433,0,0,0-.051-1.122A4.56,4.56,0,0,0,230.071,143a4.969,4.969,0,0,0-2.306-.412l-2.46,0-5.056,0-21.906.013-50.195.011a4.573,4.573,0,0,0-2.962,1.1,4.479,4.479,0,0,0-1.517,2.749,11.57,11.57,0,0,0-.057,1.622v4.9q0,6.5,0,12.807t0,12.361q0,1.514,0,3.013a4.673,4.673,0,0,0,.761,2.752,4.562,4.562,0,0,0,2.213,1.74,7.651,7.651,0,0,0,2.831.283l41,.03,27.638.045,7.514.026,1.954.014c.44,0,.666.015.666.015s-.226.01-.666.015l-1.954.014-7.514.026-27.638.045-41,.03c-.484,0-.961.01-1.456-.009a4.542,4.542,0,0,1-1.466-.288,4.825,4.825,0,0,1-2.342-1.839,4.938,4.938,0,0,1-.808-2.9q0-1.5,0-3.013,0-6.058,0-12.361t0-12.807q0-1.626,0-3.264V148.09a11.779,11.779,0,0,1,.059-1.664,4.759,4.759,0,0,1,1.611-2.92,4.851,4.851,0,0,1,3.146-1.171l50.195.011,21.906.013,5.056,0,2.46,0a5.185,5.185,0,0,1,2.4.437,4.772,4.772,0,0,1,2.74,3.677,7.754,7.754,0,0,1,.051,1.151q0,.566,0,1.126,0,1.12,0,2.214c-.019,11.666-.034,21.108-.045,27.639q0,1.224-.006,2.309a5.5,5.5,0,0,1-.262,2.013,4.677,4.677,0,0,1-1.958,2.454,4.516,4.516,0,0,1-1.833.658,3.388,3.388,0,0,1-.5.037c-.112,0-.168,0-.168,0" transform="translate(-65.956 -65.497)" fill="#263238"/>
            <path id="Trazado_234571" data-name="Trazado 234571" d="M183.774,175.356v5.751l13.549,5.811.114-5.506-7.57-3.378,7.57-3.231v-5.335Z" transform="translate(-84.565 -77.983)" fill="#ebebeb"/>
            <path id="Trazado_234572" data-name="Trazado 234572" d="M257.223,181.888v-5.751l-13.668-5.811-.116,5.506,7.637,3.378-7.637,3.231v5.335Z" transform="translate(-112.021 -78.377)" fill="#ebebeb"/>
            <path id="Trazado_234573" data-name="Trazado 234573" d="M221.237,160.673c0,.143-7.959,26.994-7.734,26.947s5.927,0,5.927,0l7.849-26.943Z" transform="translate(-98.243 -73.935)" fill="#ebebeb"/>
            <path id="Trazado_234574" data-name="Trazado 234574" d="M157.6,151.8a1.887,1.887,0,1,1-1.883-1.768A1.829,1.829,0,0,1,157.6,151.8" transform="translate(-70.788 -69.039)" fill="#e0e0e0"/>
            <path id="Trazado_234575" data-name="Trazado 234575" d="M167.182,151.8a1.887,1.887,0,1,1-1.883-1.768,1.828,1.828,0,0,1,1.883,1.768" transform="translate(-75.197 -69.039)" fill="#e0e0e0"/>
            <path id="Trazado_234576" data-name="Trazado 234576" d="M176.764,151.8a1.887,1.887,0,1,1-1.883-1.768,1.828,1.828,0,0,1,1.883,1.768" transform="translate(-79.607 -69.039)" fill="#e0e0e0"/>
          </g>
        </g>
      </g>
    </g>
  </g>
</svg>
