<svg xmlns="http://www.w3.org/2000/svg" xmlns:xlink="http://www.w3.org/1999/xlink" width="304.497" height="221.905" viewBox="0 0 304.497 221.905">
  <defs>
    <clipPath id="clip-path">
      <rect id="Rectángulo_58051" data-name="Rectángulo 58051" width="292.318" height="221.905" fill="none"/>
    </clipPath>
    <clipPath id="clip-path-2">
      <rect id="Rectángulo_58011" data-name="Rectángulo 58011" width="292.318" height="288.613" fill="none"/>
    </clipPath>
    <clipPath id="clip-path-4">
      <rect id="Rectángulo_58022" data-name="Rectángulo 58022" width="24.363" height="11.471" fill="none"/>
    </clipPath>
    <clipPath id="clip-path-5">
      <rect id="Rectángulo_58023" data-name="Rectángulo 58023" width="3.837" height="3.837" fill="none"/>
    </clipPath>
    <linearGradient id="linear-gradient" x1="0.5" x2="0.5" y2="1" gradientUnits="objectBoundingBox">
      <stop offset="0" stop-color="#4adbd1"/>
      <stop offset="1" stop-color="#5573c6"/>
    </linearGradient>
    <clipPath id="clip-path-6">
      <rect id="Rectángulo_58035" data-name="Rectángulo 58035" width="3.47" height="3.47" fill="none"/>
    </clipPath>
    <clipPath id="clip-path-8">
      <rect id="Rectángulo_59564" data-name="Rectángulo 59564" width="29.006" height="23.835" fill="#f4a338"/>
    </clipPath>
  </defs>
  <g id="Grupo_888580" data-name="Grupo 888580" transform="translate(-1003.75 -1495.388)">
    <g id="Grupo_181180" data-name="Grupo 181180" transform="translate(1015.93 1495.388)">
      <g id="Grupo_180166" data-name="Grupo 180166" clip-path="url(#clip-path)">
        <g id="Grupo_180096" data-name="Grupo 180096">
          <g id="Grupo_180095" data-name="Grupo 180095" clip-path="url(#clip-path-2)">
            <path id="Trazado_231172" data-name="Trazado 231172" d="M31.527,97.68l-2.923,0a2.25,2.25,0,0,0-.88.1,1.378,1.378,0,0,0-.7.617,1.462,1.462,0,0,0-.164.467,2.965,2.965,0,0,0-.022.516c0,.176,0,.355,0,.537a2.5,2.5,0,0,1-.035.555,1.469,1.469,0,0,1-.652.939,1.364,1.364,0,0,1-.573.2c-.209.019-.411.006-.62.01h-2.62l-5.943,0H14.358a1.63,1.63,0,0,1-.424-.041,1.407,1.407,0,0,1-.728-.449,1.492,1.492,0,0,1-.355-.791,3.317,3.317,0,0,1-.016-.438v-.437a2.33,2.33,0,0,0-.087-.86,1.406,1.406,0,0,0-.523-.682,1.362,1.362,0,0,0-.841-.232H4.639a4.65,4.65,0,0,0-1.967.372,4.6,4.6,0,0,0-1.636,1.221,4.5,4.5,0,0,0-.926,1.863c-.045.171-.058.349-.09.524-.008.149-.016.3-.021.447v29.194c0,.391,0,.771,0,1.164,0,1.179,0,2.382,0,3.58V174a4.674,4.674,0,0,0,.18,1.415,4.468,4.468,0,0,0,1.736,2.39,4.645,4.645,0,0,0,2.863.785l3.043,0,6.024,0,11.779.008,5.739,0c.946-.005,1.9.015,2.825-.012a4.449,4.449,0,0,0,2.533-.978,4.763,4.763,0,0,0,.914-1.01,4.427,4.427,0,0,0,.561-1.232,4.669,4.669,0,0,0,.168-1.338q0-.682,0-1.362,0-2.715,0-5.368c.008-14.141.015-26.877.021-37.573s.019-19.351.025-25.334q0-1.122,0-2.117a4.617,4.617,0,0,0-.328-1.809,4.473,4.473,0,0,0-.847-1.333,4.5,4.5,0,0,0-2.7-1.421,3.512,3.512,0,0,0-.455-.041c-.1-.007-.154-.012-.154-.012s-.207,0-.612.007l-1.8.005" transform="translate(0 -27.155)" fill="#fafafa"/>
            <path id="Trazado_231173" data-name="Trazado 231173" d="M383.2,97.68l-2.923,0a2.25,2.25,0,0,0-.88.1,1.379,1.379,0,0,0-.7.617,1.464,1.464,0,0,0-.164.467,3.052,3.052,0,0,0-.022.516c0,.176,0,.355,0,.537a2.5,2.5,0,0,1-.035.555,1.469,1.469,0,0,1-.652.939,1.364,1.364,0,0,1-.573.2c-.209.019-.411.006-.62.01h-2.62l-5.943,0h-2.042a1.631,1.631,0,0,1-.424-.041,1.408,1.408,0,0,1-.728-.449,1.492,1.492,0,0,1-.355-.791,3.32,3.32,0,0,1-.016-.438v-.437a2.332,2.332,0,0,0-.087-.86,1.406,1.406,0,0,0-.523-.682,1.362,1.362,0,0,0-.841-.232h-6.744a4.651,4.651,0,0,0-1.967.372,4.6,4.6,0,0,0-1.636,1.221,4.5,4.5,0,0,0-.926,1.863c-.046.171-.058.349-.089.524-.008.149-.016.3-.021.447v29.194c0,.391,0,.771,0,1.164,0,1.179,0,2.382,0,3.58V174a4.649,4.649,0,0,0,.181,1.415,4.471,4.471,0,0,0,1.736,2.39,4.645,4.645,0,0,0,2.863.785l3.043,0,6.024,0,11.779.008,5.74,0c.946-.005,1.894.015,2.824-.012a4.449,4.449,0,0,0,2.533-.978,4.764,4.764,0,0,0,.914-1.01,4.426,4.426,0,0,0,.561-1.232,4.668,4.668,0,0,0,.169-1.338v-1.362q0-2.715,0-5.368c.008-14.141.015-26.877.021-37.573s.019-19.351.025-25.334q0-1.122,0-2.117a4.617,4.617,0,0,0-.328-1.809,4.476,4.476,0,0,0-.847-1.333,4.5,4.5,0,0,0-2.7-1.421,3.5,3.5,0,0,0-.455-.041c-.1-.007-.154-.012-.154-.012s-.207,0-.612.007l-1.8.005" transform="translate(-97.778 -27.155)" fill="#fafafa"/>
          </g>
        </g>
        <g id="Grupo_180152" data-name="Grupo 180152">
          <g id="Grupo_180151" data-name="Grupo 180151" clip-path="url(#clip-path-2)">
            <path id="Trazado_231174" data-name="Trazado 231174" d="M79.223,55.664l-4.663.007a3.573,3.573,0,0,0-1.4.152,2.2,2.2,0,0,0-1.11.984,2.369,2.369,0,0,0-.261.746,4.832,4.832,0,0,0-.035.823c0,.282,0,.567,0,.857a4.014,4.014,0,0,1-.056.886,2.35,2.35,0,0,1-1.04,1.5,2.195,2.195,0,0,1-.915.323c-.333.03-.655.009-.988.015l-4.179,0-9.479,0H51.836a2.573,2.573,0,0,1-.676-.066A2.249,2.249,0,0,1,50,61.177a2.384,2.384,0,0,1-.567-1.262,5.176,5.176,0,0,1-.025-.7v-.7a3.727,3.727,0,0,0-.141-1.372,2.241,2.241,0,0,0-.832-1.087,2.174,2.174,0,0,0-1.342-.37H36.334a7.415,7.415,0,0,0-3.137.593,7.332,7.332,0,0,0-2.61,1.948A7.158,7.158,0,0,0,29.11,61.2c-.073.273-.094.557-.144.835-.012.238-.025.474-.032.713V177.4a7.446,7.446,0,0,0,.287,2.256,7.129,7.129,0,0,0,2.77,3.813,7.408,7.408,0,0,0,4.566,1.252l4.853,0,9.61.007,18.788.012,9.155.006c1.509-.009,3.022.024,4.506-.019a7.093,7.093,0,0,0,4.041-1.561,7.581,7.581,0,0,0,1.458-1.611,7.054,7.054,0,0,0,.895-1.964,7.46,7.46,0,0,0,.269-2.133q0-1.089,0-2.172,0-4.332,0-8.563c.013-22.557.025-42.872.034-59.934s.031-30.867.04-40.411q0-1.789.005-3.376a7.345,7.345,0,0,0-.524-2.886A7.106,7.106,0,0,0,88.342,58a7.182,7.182,0,0,0-4.3-2.266,5.946,5.946,0,0,0-.726-.066c-.163-.009-.245-.017-.245-.017s-.331.006-.978.009l-2.867.009" transform="translate(-8.045 -15.471)" fill="#fafafa"/>
            <path id="Trazado_231175" data-name="Trazado 231175" d="M83.173,55.746s.082,0,.245.007a5.4,5.4,0,0,1,.726.056,6.737,6.737,0,0,1,2.687.928,6.875,6.875,0,0,1,1.634,1.324A7.176,7.176,0,0,1,89.829,60.2a7.417,7.417,0,0,1,.536,2.908q0,1.585,0,3.376c.006,9.544.014,23.351.025,40.411s.006,37.377.009,59.934q0,4.23,0,8.562v2.172a7.66,7.66,0,0,1-.275,2.185,7.209,7.209,0,0,1-.915,2.018,7.745,7.745,0,0,1-1.492,1.656,7.253,7.253,0,0,1-4.136,1.606c-1.5.043-2.993.011-4.5.02l-9.122,0-18.721-.009-9.574-.005-4.836,0a7.573,7.573,0,0,1-4.665-1.288,7.341,7.341,0,0,1-2.839-3.922,7.91,7.91,0,0,1-.3-2.424q0-1.209,0-2.414,0-4.822,0-9.578,0-9.51,0-18.726c.005-12.276.009-24.118.013-35.4s.012-22,.015-32.032q.005-7.524.009-14.517,0-.873,0-1.737c0-.289.025-.58.04-.869.051-.284.073-.575.147-.853a7.323,7.323,0,0,1,1.506-3.035,7.268,7.268,0,0,1,5.84-2.588l6.244.007,3,0h1.471a2.3,2.3,0,0,1,1.41.394,2.372,2.372,0,0,1,.876,1.151,3.836,3.836,0,0,1,.146,1.414q0,.35,0,.7a5.2,5.2,0,0,0,.022.683,2.26,2.26,0,0,0,.534,1.2,2.112,2.112,0,0,0,1.095.679,2.438,2.438,0,0,0,.645.064h.66l2.585,0,9.445.014,4.164.007c.328-.006.663.015.975-.012a2.1,2.1,0,0,0,.877-.308,2.269,2.269,0,0,0,1-1.442,3.99,3.99,0,0,0,.056-.87q0-.434,0-.857a4.884,4.884,0,0,1,.038-.835,2.412,2.412,0,0,1,.27-.767,2.256,2.256,0,0,1,1.144-1.011A3.591,3.591,0,0,1,74.7,55.71l4.646.013,2.858.012c.643,0,.973.011.973.011s-.33.006-.973.01l-2.858.008-4.646.007a3.547,3.547,0,0,0-1.4.152,2.2,2.2,0,0,0-1.107.985,2.356,2.356,0,0,0-.26.745,4.759,4.759,0,0,0-.034.823q0,.422,0,.857a4.065,4.065,0,0,1-.056.887,2.352,2.352,0,0,1-1.037,1.5,2.182,2.182,0,0,1-.912.323c-.331.03-.652.009-.985.015l-4.164,0-9.445,0H52.055a2.558,2.558,0,0,1-.674-.066,2.232,2.232,0,0,1-1.157-.716,2.387,2.387,0,0,1-.565-1.262,5.177,5.177,0,0,1-.025-.7v-.7a3.742,3.742,0,0,0-.14-1.372,2.241,2.241,0,0,0-.83-1.087,2.162,2.162,0,0,0-1.336-.37H36.609a7.124,7.124,0,0,0-5.725,2.541A7.169,7.169,0,0,0,29.412,61.3c-.074.273-.094.557-.144.835-.014.284-.035.566-.039.853q0,.864,0,1.737,0,6.985,0,14.517c0,10.032,0,20.751,0,32.032s0,23.122,0,35.4q0,9.207,0,18.726,0,4.754,0,9.578,0,1.205,0,2.414a7.682,7.682,0,0,0,.291,2.367,7.134,7.134,0,0,0,2.76,3.812,7.357,7.357,0,0,0,4.551,1.252l4.835,0,9.575.006,18.72.012,9.122.007c1.5-.009,3.011.024,4.489-.019a7.053,7.053,0,0,0,4.026-1.561,7.573,7.573,0,0,0,1.453-1.611,7.046,7.046,0,0,0,.892-1.964,7.486,7.486,0,0,0,.268-2.133q0-1.089,0-2.172,0-4.331,0-8.562c.012-22.557.024-42.873.033-59.934s.031-30.867.04-40.411q0-1.789.005-3.376a7.351,7.351,0,0,0-.523-2.885A7.1,7.1,0,0,0,88.428,58.1a7.149,7.149,0,0,0-4.287-2.266,5.732,5.732,0,0,0-.723-.066c-.162-.01-.245-.018-.245-.018" transform="translate(-8.071 -15.471)" fill="#263238"/>
            <path id="Trazado_231176" data-name="Trazado 231176" d="M103.906,71.837c0,.031-1.183.066-2.643.078s-2.645,0-2.645-.034,1.183-.066,2.643-.078,2.645,0,2.645.034" transform="translate(-27.419 -19.963)" fill="#263238"/>
            <path id="Trazado_231177" data-name="Trazado 231177" d="M103.921,73.711c0,.031-1.183.066-2.644.078s-2.644,0-2.645-.034,1.183-.066,2.644-.078,2.645,0,2.645.034" transform="translate(-27.423 -20.484)" fill="#263238"/>
            <path id="Trazado_231178" data-name="Trazado 231178" d="M103.936,75.585c0,.031-1.183.066-2.644.078s-2.644,0-2.645-.034,1.183-.066,2.644-.078,2.645,0,2.645.034" transform="translate(-27.427 -21.005)" fill="#263238"/>
            <path id="Trazado_231179" data-name="Trazado 231179" d="M39.3,76.034a.851.851,0,0,1,.11-.007l.306-.01,1.129-.027-.032.032c0-.251-.008-.524-.013-.819,0-.152-.013-.3,0-.471a.433.433,0,0,1,.378-.348c.182,0,.342-.012.54,0a.439.439,0,0,1,.37.436c0,.382.009.78.013,1.194l-.052-.051,1.424-.014L43.425,76c-.006-.574-.011-1.167-.016-1.775l0-.453a.462.462,0,0,0-.2-.336l-.623-.614-.6-.593-.291-.287c-.1-.1-.178-.2-.295-.22a.385.385,0,0,0-.326.063c-.087.073-.178.176-.266.261l-.511.515c-.321.334-.656.639-.9.928a1.007,1.007,0,0,0-.071.531c0,.176,0,.344,0,.5,0,.308,0,.578,0,.809,0,.206,0,.377-.007.517a1.653,1.653,0,0,1-.006.186,1.309,1.309,0,0,1-.01-.171c0-.138-.008-.305-.014-.509-.006-.233-.012-.5-.019-.815,0-.161-.006-.332-.009-.512,0-.091,0-.184,0-.28a.593.593,0,0,1,.079-.3c.264-.323.578-.609.9-.952l.507-.519c.092-.09.167-.179.275-.273a.485.485,0,0,1,.413-.081.762.762,0,0,1,.342.245l.292.286.6.591.624.613a1.2,1.2,0,0,1,.159.172.474.474,0,0,1,.075.24c0,.151,0,.3,0,.454.005.608.009,1.2.014,1.775v.054H43.48l-1.424.009H42v-.052q0-.621-.006-1.194a.343.343,0,0,0-.287-.346c-.164-.009-.357,0-.517,0a.349.349,0,0,0-.307.277c-.014.144,0,.31-.007.456,0,.295,0,.568,0,.819v.032h-.032L39.7,76.045l-.3-.005a.583.583,0,0,1-.1-.006" transform="translate(-10.912 -19.91)" fill="#263238"/>
            <path id="Trazado_231180" data-name="Trazado 231180" d="M79.314,143.237c0,.205-5.665.371-12.65.371s-12.652-.166-12.652-.371,5.664-.371,12.652-.371,12.65.166,12.65.371" transform="translate(-15.017 -39.722)" fill="#263238"/>
            <rect id="Rectángulo_58012" data-name="Rectángulo 58012" width="24.563" height="32.68" transform="translate(35.278 94.938) rotate(-89.681)" fill="#afafaf"/>
            <path id="Trazado_231181" data-name="Trazado 231181" d="M48.863,125.644l11.5-15.2,7.017,9.592,4.824-5.08,9.339,10.874Z" transform="translate(-13.586 -30.706)" fill="#636363"/>
            <path id="Trazado_231182" data-name="Trazado 231182" d="M76.773,106.931a2.573,2.573,0,1,1-2.559-2.587,2.573,2.573,0,0,1,2.559,2.587" transform="translate(-19.915 -29.011)" fill="#636363"/>
            <path id="Trazado_231185" data-name="Trazado 231185" d="M85.421,155.759c0,.205-10.044.371-22.432.371s-22.434-.166-22.434-.371,10.042-.371,22.434-.371,22.432.166,22.432.371" transform="translate(-11.276 -43.203)" fill="#263238"/>
            <path id="Trazado_231186" data-name="Trazado 231186" d="M85.421,164.422c0,.205-10.044.371-22.432.371s-22.434-.166-22.434-.371,10.042-.371,22.434-.371,22.432.166,22.432.371" transform="translate(-11.276 -45.612)" fill="#263238"/>
            <path id="Trazado_231187" data-name="Trazado 231187" d="M85.421,173.084c0,.205-10.044.371-22.432.371s-22.434-.166-22.434-.371,10.042-.371,22.434-.371,22.432.166,22.432.371" transform="translate(-11.276 -48.02)" fill="#263238"/>
            <path id="Trazado_231188" data-name="Trazado 231188" d="M85.421,181.746c0,.205-10.044.371-22.432.371s-22.434-.166-22.434-.371,10.042-.371,22.434-.371,22.432.166,22.432.371" transform="translate(-11.276 -50.428)" fill="#263238"/>
            <path id="Trazado_231189" data-name="Trazado 231189" d="M85.421,190.409c0,.205-10.044.371-22.432.371s-22.434-.166-22.434-.371,10.042-.371,22.434-.371,22.432.166,22.432.371" transform="translate(-11.276 -52.837)" fill="#263238"/>
            <path id="Trazado_231190" data-name="Trazado 231190" d="M79.414,198.318a19.166,19.166,0,0,1-3.772.263c-2.331.067-5.55.108-9.105.108s-6.776-.041-9.107-.108a19.154,19.154,0,0,1-3.772-.263,19.078,19.078,0,0,1,3.772-.263c2.331-.067,5.55-.108,9.107-.108s6.775.041,9.105.108a19.09,19.09,0,0,1,3.772.263" transform="translate(-14.919 -55.036)" fill="#263238"/>
            <path id="Trazado_231191" data-name="Trazado 231191" d="M139.187,41.118l-5.182.008a3.947,3.947,0,0,0-1.56.169,2.45,2.45,0,0,0-1.234,1.1,2.633,2.633,0,0,0-.29.831,5.353,5.353,0,0,0-.038.918q0,.471,0,.956a4.5,4.5,0,0,1-.061.988,2.624,2.624,0,0,1-1.157,1.67,2.455,2.455,0,0,1-1.017.36c-.37.032-.727.009-1.1.017l-4.644,0-10.533,0h-3.618a2.869,2.869,0,0,1-.752-.074,2.489,2.489,0,0,1-1.291-.8,2.666,2.666,0,0,1-.63-1.408,5.9,5.9,0,0,1-.027-.779q0-.388,0-.778a4.155,4.155,0,0,0-.156-1.53,2.5,2.5,0,0,0-.926-1.213,2.408,2.408,0,0,0-1.491-.412H91.527a7.948,7.948,0,0,0-6.386,2.834A8.007,8.007,0,0,0,83.5,47.3c-.081.3-.1.622-.159.932-.014.265-.028.529-.036.8V176.893a8.325,8.325,0,0,0,.318,2.517,7.959,7.959,0,0,0,3.079,4.252,8.21,8.21,0,0,0,5.074,1.4l5.393,0,10.679.007,20.879.014,10.173.007c1.676-.009,3.359.027,5.008-.021a7.87,7.87,0,0,0,4.49-1.741,8.465,8.465,0,0,0,1.621-1.8,7.9,7.9,0,0,0,.993-2.191,8.317,8.317,0,0,0,.3-2.38q0-1.214,0-2.422,0-4.831,0-9.549c.014-25.158.027-47.815.038-66.844s.034-34.426.045-45.069q0-2,.006-3.766a8.229,8.229,0,0,0-.583-3.218,7.955,7.955,0,0,0-1.5-2.372,7.97,7.97,0,0,0-4.781-2.527,6.446,6.446,0,0,0-.807-.074c-.181-.011-.273-.019-.273-.019s-.367.007-1.086.011l-3.186.009" transform="translate(-23.162 -11.427)" fill="#fafafa"/>
            <path id="Trazado_231192" data-name="Trazado 231192" d="M143.447,40.981s.092,0,.274.008a5.921,5.921,0,0,1,.81.063,7.523,7.523,0,0,1,3,1.035,7.648,7.648,0,0,1,1.823,1.476,7.986,7.986,0,0,1,1.521,2.385,8.262,8.262,0,0,1,.6,3.243q0,1.77,0,3.766c.007,10.644.016,26.043.027,45.069s.007,41.686.011,66.844q0,4.717,0,9.549v2.422a8.564,8.564,0,0,1-.306,2.437,8.08,8.08,0,0,1-1.021,2.251,8.644,8.644,0,0,1-1.663,1.847,8.09,8.09,0,0,1-4.613,1.79c-1.675.049-3.338.012-5.021.022l-10.173,0-20.879-.011-10.679-.006-5.393,0a8.441,8.441,0,0,1-5.2-1.437,8.184,8.184,0,0,1-3.167-4.374,8.8,8.8,0,0,1-.334-2.7q0-1.349,0-2.694,0-5.377,0-10.681,0-10.606.006-20.884c.005-13.691.009-26.9.014-39.479S83.1,78.379,83.1,67.19q0-8.391.009-16.189,0-.975,0-1.938c0-.322.027-.648.045-.969.056-.318.081-.642.164-.952A8.169,8.169,0,0,1,85,43.756a8.1,8.1,0,0,1,6.514-2.886l6.963.008,3.35,0,1.641,0a2.559,2.559,0,0,1,1.572.439,2.641,2.641,0,0,1,.978,1.284,4.271,4.271,0,0,1,.162,1.577q0,.391,0,.778a5.759,5.759,0,0,0,.025.762,2.525,2.525,0,0,0,.6,1.337,2.355,2.355,0,0,0,1.22.758,2.721,2.721,0,0,0,.721.071h.736l2.884,0,10.533.015,4.644.008c.367-.007.74.017,1.088-.014a2.349,2.349,0,0,0,.978-.344,2.526,2.526,0,0,0,1.119-1.609,4.406,4.406,0,0,0,.063-.97q0-.485,0-.956a5.343,5.343,0,0,1,.042-.931,2.677,2.677,0,0,1,.3-.856,2.521,2.521,0,0,1,1.276-1.128,4,4,0,0,1,1.586-.169l5.182.014,3.187.013c.718,0,1.085.012,1.085.012s-.368.007-1.085.011L139.175,41l-5.182.008a3.929,3.929,0,0,0-1.559.17,2.444,2.444,0,0,0-1.235,1.1,2.633,2.633,0,0,0-.29.831,5.415,5.415,0,0,0-.038.918q0,.471,0,.956a4.505,4.505,0,0,1-.061.988,2.621,2.621,0,0,1-1.157,1.67,2.451,2.451,0,0,1-1.017.36c-.37.032-.727.009-1.1.017l-4.644,0-10.533,0h-3.619a2.835,2.835,0,0,1-.752-.074,2.489,2.489,0,0,1-1.291-.8,2.668,2.668,0,0,1-.63-1.407,5.908,5.908,0,0,1-.027-.78c0-.258,0-.517,0-.778a4.155,4.155,0,0,0-.156-1.53,2.491,2.491,0,0,0-.926-1.213,2.414,2.414,0,0,0-1.491-.412H91.515a7.948,7.948,0,0,0-6.386,2.834,8.011,8.011,0,0,0-1.642,3.316c-.081.3-.1.62-.159.931-.017.316-.039.631-.043.952q0,.964,0,1.938,0,7.79,0,16.189c0,11.189,0,23.144,0,35.725s0,25.788,0,39.479q0,10.27,0,20.884,0,5.3,0,10.682,0,1.344,0,2.693a8.568,8.568,0,0,0,.325,2.639,7.954,7.954,0,0,0,3.078,4.252,8.211,8.211,0,0,0,5.074,1.4l5.393,0,10.679.007,20.879.014,10.173.007c1.676-.009,3.359.027,5.008-.021a7.868,7.868,0,0,0,4.49-1.741,8.464,8.464,0,0,0,1.621-1.8,7.875,7.875,0,0,0,.993-2.191,8.315,8.315,0,0,0,.3-2.38q0-1.214,0-2.422,0-4.831,0-9.549c.014-25.158.027-47.815.038-66.844s.034-34.426.044-45.069q0-2,.006-3.766a8.226,8.226,0,0,0-.583-3.218,7.94,7.94,0,0,0-1.5-2.372,7.97,7.97,0,0,0-4.781-2.527A6.446,6.446,0,0,0,143.72,41c-.181-.011-.273-.019-.273-.019" transform="translate(-23.094 -11.363)" fill="#263238"/>
            <path id="Trazado_231193" data-name="Trazado 231193" d="M166.57,58.928c0,.035-1.32.073-2.949.087s-2.949,0-2.949-.038,1.32-.074,2.948-.087,2.949,0,2.949.038" transform="translate(-44.672 -16.372)" fill="#263238"/>
            <path id="Trazado_231194" data-name="Trazado 231194" d="M166.587,61.019c0,.035-1.32.073-2.949.087s-2.95,0-2.95-.038,1.32-.074,2.949-.087,2.95,0,2.95.038" transform="translate(-44.677 -16.953)" fill="#263238"/>
            <path id="Trazado_231195" data-name="Trazado 231195" d="M166.6,63.109c0,.035-1.32.073-2.948.087s-2.949,0-2.949-.038,1.32-.074,2.949-.087,2.949,0,2.949.038" transform="translate(-44.682 -17.535)" fill="#263238"/>
            <path id="Trazado_231196" data-name="Trazado 231196" d="M94.518,63.609a.936.936,0,0,1,.123-.008l.341-.012,1.26-.03-.035.036q-.007-.419-.014-.913c0-.17-.014-.33,0-.526a.484.484,0,0,1,.422-.388c.2,0,.381-.013.6,0a.488.488,0,0,1,.413.486q.008.639.015,1.332l-.058-.057,1.588-.017-.06.061c-.006-.64-.012-1.3-.018-1.979l0-.5a.51.51,0,0,0-.223-.375l-.695-.685-.67-.661-.324-.321c-.112-.108-.2-.219-.329-.245a.427.427,0,0,0-.365.069c-.1.082-.2.2-.3.291l-.57.575c-.358.372-.731.712-1,1.034a1.118,1.118,0,0,0-.08.593c0,.2,0,.383,0,.56q0,.514-.005.9c0,.23-.005.421-.007.577a1.893,1.893,0,0,1-.007.208,1.507,1.507,0,0,1-.011-.191c0-.153-.009-.341-.016-.567q-.009-.39-.02-.909-.005-.27-.011-.57c0-.1,0-.206-.005-.313a.654.654,0,0,1,.088-.332c.293-.36.644-.679,1.006-1.063l.565-.579c.1-.1.186-.2.307-.3a.541.541,0,0,1,.461-.091.86.86,0,0,1,.381.273c.108.105.217.212.326.32l.672.658.7.683a1.259,1.259,0,0,1,.178.193.516.516,0,0,1,.083.268q0,.251.005.506c.005.678.01,1.34.014,1.98v.061h-.061l-1.588.01H97.53v-.058c0-.461-.005-.906-.007-1.331a.383.383,0,0,0-.321-.386c-.183-.01-.4,0-.576,0a.389.389,0,0,0-.342.309c-.015.16,0,.346-.007.508q0,.494,0,.913v.035h-.035l-1.28-.009-.334-.005a.653.653,0,0,1-.11-.007" transform="translate(-26.262 -16.313)" fill="#263238"/>
            <path id="Trazado_231197" data-name="Trazado 231197" d="M134.922,74.9a5.325,5.325,0,1,1-5.324-5.325,5.325,5.325,0,0,1,5.324,5.325" transform="translate(-34.552 -19.345)" fill="#4adbd1"/>
            <path id="Trazado_231198" data-name="Trazado 231198" d="M132.771,79.052h-3.653V78.6a1.827,1.827,0,0,1,3.653,0Z" transform="translate(-35.899 -21.346)" fill="#fff"/>
            <path id="Trazado_231199" data-name="Trazado 231199" d="M132.308,75.054a1.074,1.074,0,1,1-1.074-1.074,1.074,1.074,0,0,1,1.074,1.074" transform="translate(-36.189 -20.569)" fill="#fff"/>
            <path id="Trazado_231200" data-name="Trazado 231200" d="M139.143,96.288c0,.229-6.317.414-14.109.414s-14.11-.186-14.11-.414,6.316-.414,14.11-.414,14.109.185,14.109.414" transform="translate(-30.841 -26.656)" fill="#263238"/>
            <rect id="Rectángulo_58015" data-name="Rectángulo 58015" width="18.312" height="24.363" transform="translate(65.306 101.964) rotate(-89.681)" fill="#afafaf"/>
            <path id="Trazado_231201" data-name="Trazado 231201" d="M90.456,136.866l8.573-11.335,5.231,7.15,3.6-3.787L114.819,137Z" transform="translate(-25.15 -34.902)" fill="#636363"/>
            <path id="Trazado_231202" data-name="Trazado 231202" d="M111.264,122.915a1.919,1.919,0,1,1-1.908-1.929,1.919,1.919,0,0,1,1.908,1.929" transform="translate(-29.868 -33.638)" fill="#636363"/>
            <rect id="Rectángulo_58018" data-name="Rectángulo 58018" width="42.332" height="56.321" transform="matrix(0.006, -1, 1, 0.006, 65.085, 149.945)" fill="#afafaf"/>
            <path id="Trazado_231205" data-name="Trazado 231205" d="M90.149,197.6l19.818-26.2,12.094,16.53,8.313-8.755,16.1,18.742Z" transform="translate(-25.065 -47.654)" fill="#636363"/>
            <path id="Trazado_231206" data-name="Trazado 231206" d="M138.251,165.348a4.435,4.435,0,1,1-4.41-4.46,4.435,4.435,0,0,1,4.41,4.46" transform="translate(-35.973 -44.732)" fill="#636363"/>
            <rect id="Rectángulo_58021" data-name="Rectángulo 58021" width="18.312" height="24.363" transform="translate(97.47 101.964) rotate(-89.681)" fill="#afafaf"/>
            <path id="Trazado_231209" data-name="Trazado 231209" d="M135.006,136.866l8.573-11.335,5.231,7.15,3.6-3.787L159.369,137Z" transform="translate(-37.536 -34.902)" fill="#e8505b"/>
            <path id="Trazado_231210" data-name="Trazado 231210" d="M155.814,122.915a1.919,1.919,0,1,1-1.908-1.929,1.919,1.919,0,0,1,1.908,1.929" transform="translate(-42.255 -33.638)" fill="#e8505b"/>
            <g id="Grupo_180117" data-name="Grupo 180117" transform="translate(97.47 90.629)" opacity="0.2">
              <g id="Grupo_180116" data-name="Grupo 180116">
                <g id="Grupo_180115" data-name="Grupo 180115" clip-path="url(#clip-path-4)">
                  <path id="Trazado_231211" data-name="Trazado 231211" d="M135.006,136.866l8.573-11.335,5.231,7.15,3.6-3.787L159.369,137Z" transform="translate(-135.006 -125.531)"/>
                </g>
              </g>
            </g>
            <g id="Grupo_180120" data-name="Grupo 180120" transform="translate(109.723 87.348)" opacity="0.2">
              <g id="Grupo_180119" data-name="Grupo 180119">
                <g id="Grupo_180118" data-name="Grupo 180118" clip-path="url(#clip-path-5)">
                  <path id="Trazado_231212" data-name="Trazado 231212" d="M155.814,122.915a1.919,1.919,0,1,1-1.908-1.929,1.919,1.919,0,0,1,1.908,1.929" transform="translate(-151.978 -120.986)"/>
                </g>
              </g>
            </g>
            <path id="Trazado_231213" data-name="Trazado 231213" d="M350.97,51.007l-4.646.007a3.547,3.547,0,0,0-1.4.152,2.194,2.194,0,0,0-1.107.984,2.349,2.349,0,0,0-.26.746,4.838,4.838,0,0,0-.035.823q0,.422,0,.857a4.023,4.023,0,0,1-.056.887,2.347,2.347,0,0,1-1.037,1.5,2.176,2.176,0,0,1-.911.323c-.331.03-.652.009-.986.015l-4.164,0-9.445,0h-3.244a2.552,2.552,0,0,1-.674-.066,2.234,2.234,0,0,1-1.157-.716,2.387,2.387,0,0,1-.565-1.262,5.288,5.288,0,0,1-.024-.7q0-.348,0-.7a3.711,3.711,0,0,0-.14-1.372,2.24,2.24,0,0,0-.83-1.087,2.163,2.163,0,0,0-1.337-.37H308.237a7.122,7.122,0,0,0-5.725,2.541,7.177,7.177,0,0,0-1.473,2.972c-.072.273-.093.557-.142.835-.012.238-.025.474-.032.713V172.747A7.45,7.45,0,0,0,301.15,175a7.131,7.131,0,0,0,2.76,3.812,7.359,7.359,0,0,0,4.55,1.252l4.836,0,9.575.006,18.721.012,9.121.006c1.5-.009,3.011.024,4.49-.019a7.051,7.051,0,0,0,4.026-1.561,7.541,7.541,0,0,0,1.453-1.611,7.065,7.065,0,0,0,.891-1.964,7.487,7.487,0,0,0,.269-2.133q0-1.089,0-2.172,0-4.332,0-8.562c.012-22.557.024-42.873.033-59.934s.03-30.867.04-40.411q0-1.789.006-3.376a7.37,7.37,0,0,0-.523-2.886,7.11,7.11,0,0,0-1.346-2.126,7.139,7.139,0,0,0-4.286-2.266,5.808,5.808,0,0,0-.723-.067c-.163-.009-.245-.017-.245-.017s-.329.006-.973.01l-2.857.008" transform="translate(-83.65 -14.177)" fill="#fafafa"/>
            <rect id="Rectángulo_58024" data-name="Rectángulo 58024" width="40.317" height="8.235" transform="translate(227.249 85.407)" fill="#ebebeb"/>
            <path id="Trazado_231214" data-name="Trazado 231214" d="M354.907,50.884s.082,0,.245.007a5.4,5.4,0,0,1,.726.056,6.749,6.749,0,0,1,2.687.928A6.878,6.878,0,0,1,360.2,53.2a7.176,7.176,0,0,1,1.364,2.138,7.429,7.429,0,0,1,.536,2.908q0,1.587,0,3.376c.006,9.544.014,23.351.024,40.411s.006,37.377.009,59.934q0,4.23,0,8.562V172.7a7.659,7.659,0,0,1-.275,2.185,7.212,7.212,0,0,1-.915,2.018,7.746,7.746,0,0,1-1.492,1.656,7.254,7.254,0,0,1-4.136,1.606c-1.5.043-2.993.011-4.5.02l-9.122,0-18.721-.009-9.574-.005-4.836,0a7.57,7.57,0,0,1-4.665-1.288,7.341,7.341,0,0,1-2.84-3.922,7.907,7.907,0,0,1-.3-2.423q0-1.21,0-2.415,0-4.822,0-9.578,0-9.51.005-18.726c0-12.276.009-24.118.013-35.4s.011-22,.016-32.031q0-7.524.009-14.517,0-.873,0-1.737c0-.289.025-.58.04-.869.051-.284.073-.575.147-.853a7.325,7.325,0,0,1,1.507-3.035,7.268,7.268,0,0,1,5.84-2.588l6.244.007,3,0h1.471a2.3,2.3,0,0,1,1.41.394,2.368,2.368,0,0,1,.876,1.151,3.838,3.838,0,0,1,.146,1.415c0,.233,0,.465,0,.7a5.2,5.2,0,0,0,.022.683,2.26,2.26,0,0,0,.534,1.2,2.112,2.112,0,0,0,1.095.679,2.408,2.408,0,0,0,.645.064h.66l2.585,0,9.445.014,4.164.006c.329-.005.664.015.975-.012a2.109,2.109,0,0,0,.877-.308,2.272,2.272,0,0,0,1-1.443,3.99,3.99,0,0,0,.056-.87q0-.434,0-.857a4.889,4.889,0,0,1,.038-.835,2.42,2.42,0,0,1,.27-.767A2.256,2.256,0,0,1,345.008,51a3.6,3.6,0,0,1,1.422-.152l4.646.013,2.858.012c.643,0,.973.011.973.011s-.33.006-.973.009l-2.858.009-4.646.007a3.547,3.547,0,0,0-1.4.152,2.2,2.2,0,0,0-1.107.985,2.354,2.354,0,0,0-.26.745,4.744,4.744,0,0,0-.034.823q0,.422,0,.857a4.057,4.057,0,0,1-.056.886,2.349,2.349,0,0,1-1.037,1.5,2.183,2.183,0,0,1-.911.323c-.332.03-.653.009-.986.015l-4.164,0-9.445,0h-3.245a2.559,2.559,0,0,1-.674-.066,2.228,2.228,0,0,1-1.157-.716,2.382,2.382,0,0,1-.565-1.262,5.286,5.286,0,0,1-.025-.7v-.7a3.747,3.747,0,0,0-.14-1.372,2.241,2.241,0,0,0-.83-1.087,2.162,2.162,0,0,0-1.336-.37H308.343a7.122,7.122,0,0,0-5.725,2.541,7.177,7.177,0,0,0-1.472,2.972c-.072.273-.093.557-.143.835-.014.284-.035.566-.039.853q0,.864,0,1.737,0,6.985,0,14.517c0,10.032,0,20.751,0,32.031s0,23.122,0,35.4q0,9.208,0,18.726,0,4.754,0,9.578v2.415a7.678,7.678,0,0,0,.29,2.366,7.133,7.133,0,0,0,2.761,3.812,7.356,7.356,0,0,0,4.55,1.252l4.836,0,9.575.006,18.72.012,9.122.007c1.5-.009,3.011.024,4.489-.019a7.053,7.053,0,0,0,4.026-1.561,7.554,7.554,0,0,0,1.453-1.611,7.046,7.046,0,0,0,.892-1.964,7.487,7.487,0,0,0,.268-2.133q0-1.089,0-2.172,0-4.332,0-8.562c.013-22.557.024-42.873.033-59.934s.031-30.867.04-40.411q0-1.789.005-3.376a7.35,7.35,0,0,0-.523-2.885,7.115,7.115,0,0,0-1.345-2.127,6.851,6.851,0,0,0-1.618-1.323,6.781,6.781,0,0,0-2.669-.942,5.63,5.63,0,0,0-.723-.066c-.162-.01-.245-.018-.245-.018" transform="translate(-83.622 -14.12)" fill="#263238"/>
            <path id="Trazado_231215" data-name="Trazado 231215" d="M375.64,66.975c0,.031-1.183.066-2.643.078s-2.645,0-2.645-.034,1.183-.066,2.643-.078,2.645,0,2.645.034" transform="translate(-102.97 -18.611)" fill="#263238"/>
            <path id="Trazado_231216" data-name="Trazado 231216" d="M375.656,68.849c0,.031-1.183.066-2.644.078s-2.644,0-2.645-.034,1.183-.066,2.644-.078,2.645,0,2.645.034" transform="translate(-102.975 -19.132)" fill="#263238"/>
            <path id="Trazado_231217" data-name="Trazado 231217" d="M375.671,70.723c0,.031-1.183.066-2.644.078s-2.644,0-2.644-.034,1.183-.066,2.643-.078,2.645,0,2.645.034" transform="translate(-102.979 -19.653)" fill="#263238"/>
            <path id="Trazado_231218" data-name="Trazado 231218" d="M311.036,71.172a.85.85,0,0,1,.11-.007l.306-.01,1.129-.027-.032.032c0-.251-.008-.524-.013-.819,0-.152-.013-.3,0-.471a.432.432,0,0,1,.378-.348c.182,0,.342-.012.54,0a.439.439,0,0,1,.37.436c0,.382.009.78.013,1.194l-.052-.052,1.424-.014-.054.055c-.006-.574-.011-1.167-.016-1.775l0-.453a.461.461,0,0,0-.2-.336l-.622-.614-.6-.593-.291-.287c-.1-.1-.178-.2-.294-.22a.382.382,0,0,0-.326.063c-.087.073-.178.176-.266.261l-.511.516c-.321.334-.656.639-.9.927a1.009,1.009,0,0,0-.071.532c0,.176,0,.344,0,.5,0,.308,0,.578-.005.809,0,.206,0,.377-.007.517a1.642,1.642,0,0,1-.007.186,1.32,1.32,0,0,1-.01-.171c0-.138-.008-.306-.014-.509q-.009-.35-.019-.815c0-.161-.006-.332-.009-.512,0-.091,0-.184,0-.28a.593.593,0,0,1,.079-.3c.264-.323.578-.609.9-.952l.507-.519c.092-.09.167-.179.275-.273a.485.485,0,0,1,.413-.081.767.767,0,0,1,.342.244l.292.287.6.591.625.613a1.2,1.2,0,0,1,.159.172.474.474,0,0,1,.075.24c0,.15,0,.3,0,.454.005.608.009,1.2.014,1.775v.054h-.054l-1.424.009h-.052V71.15q0-.621-.006-1.194a.344.344,0,0,0-.288-.346c-.164-.009-.357,0-.517,0a.348.348,0,0,0-.307.277c-.014.144,0,.31-.006.456v.85h-.032l-1.147-.008-.3-.005a.583.583,0,0,1-.1-.006" transform="translate(-86.463 -18.558)" fill="#263238"/>
            <rect id="Rectángulo_58025" data-name="Rectángulo 58025" width="40.317" height="8.235" transform="translate(227.334 97.69)" fill="#ebebeb"/>
            <rect id="Rectángulo_58026" data-name="Rectángulo 58026" width="40.317" height="8.235" transform="translate(227.334 109.639)" fill="#ebebeb"/>
            <path id="Trazado_231219" data-name="Trazado 231219" d="M347.924,182.764H327.687a4.117,4.117,0,0,1,0-8.235h20.237a4.117,4.117,0,1,1,0,8.235" transform="translate(-89.963 -48.525)" fill="#12263f"/>
            <path id="Trazado_231220" data-name="Trazado 231220" d="M350.929,106.367c0,.205-5.664.371-12.65.371s-12.652-.166-12.652-.371,5.664-.371,12.652-.371,12.65.166,12.65.371" transform="translate(-90.535 -29.47)" fill="#263238"/>
            <path id="Trazado_231221" data-name="Trazado 231221" d="M302.968,39.2l-5.182.008a3.942,3.942,0,0,0-1.559.17,2.445,2.445,0,0,0-1.235,1.1,2.63,2.63,0,0,0-.29.832,5.409,5.409,0,0,0-.038.918q0,.471,0,.956a4.543,4.543,0,0,1-.062.988,2.621,2.621,0,0,1-1.157,1.67,2.455,2.455,0,0,1-1.017.36c-.37.032-.727.009-1.1.017l-4.644,0-10.534,0h-3.619a2.835,2.835,0,0,1-.752-.074,2.485,2.485,0,0,1-1.291-.8,2.666,2.666,0,0,1-.63-1.407,5.915,5.915,0,0,1-.027-.78c0-.258,0-.518,0-.778a4.155,4.155,0,0,0-.156-1.53,2.5,2.5,0,0,0-.926-1.213,2.412,2.412,0,0,0-1.491-.412H255.309a7.948,7.948,0,0,0-6.386,2.834,8.007,8.007,0,0,0-1.642,3.315c-.08.3-.1.622-.159.932-.014.265-.028.529-.036.8V174.973a8.307,8.307,0,0,0,.319,2.518,7.953,7.953,0,0,0,3.078,4.252,8.21,8.21,0,0,0,5.074,1.4l5.393,0,10.679.007,20.879.014,10.173.007c1.676-.009,3.359.027,5.008-.021a7.868,7.868,0,0,0,4.49-1.741,8.462,8.462,0,0,0,1.621-1.8,7.869,7.869,0,0,0,.993-2.191,8.317,8.317,0,0,0,.3-2.38q0-1.214,0-2.422,0-4.831,0-9.549c.014-25.158.027-47.814.038-66.843s.034-34.426.045-45.07q0-2,.006-3.766a8.229,8.229,0,0,0-.583-3.218,7.966,7.966,0,0,0-1.5-2.372,7.97,7.97,0,0,0-4.781-2.527,6.443,6.443,0,0,0-.807-.074c-.181-.011-.273-.019-.273-.019s-.367.007-1.086.011l-3.186.009" transform="translate(-68.698 -10.893)" fill="#fafafa"/>
            <path id="Trazado_231222" data-name="Trazado 231222" d="M307.228,39.29s.092,0,.274.008a5.9,5.9,0,0,1,.809.063,7.522,7.522,0,0,1,3,1.035,7.644,7.644,0,0,1,1.822,1.476,7.987,7.987,0,0,1,1.522,2.385,8.287,8.287,0,0,1,.6,3.243q0,1.77,0,3.766c.007,10.644.016,26.043.028,45.069s.006,41.686.011,66.844q0,4.717,0,9.549,0,1.207,0,2.422a8.564,8.564,0,0,1-.305,2.437,8.079,8.079,0,0,1-1.021,2.251,8.642,8.642,0,0,1-1.663,1.847,8.089,8.089,0,0,1-4.613,1.79c-1.676.049-3.338.012-5.021.022l-10.173,0-20.879-.011-10.679-.006-5.393,0a8.44,8.44,0,0,1-5.2-1.437,8.18,8.18,0,0,1-3.167-4.374,8.8,8.8,0,0,1-.334-2.7q0-1.349,0-2.694,0-5.377,0-10.681,0-10.606.006-20.884c0-13.691.009-26.9.014-39.479s.012-24.536.018-35.725q0-8.391.009-16.189,0-.975,0-1.938c0-.322.027-.648.045-.969.056-.318.081-.642.164-.952a8.161,8.161,0,0,1,1.68-3.385A8.105,8.105,0,0,1,255.3,39.18l6.963.008,3.35,0,1.641,0a2.554,2.554,0,0,1,1.572.439,2.645,2.645,0,0,1,.978,1.284,4.287,4.287,0,0,1,.162,1.577c0,.261,0,.52,0,.778a5.761,5.761,0,0,0,.025.762,2.524,2.524,0,0,0,.6,1.337,2.36,2.36,0,0,0,1.221.758,2.751,2.751,0,0,0,.721.071h.736l2.883,0,10.533.015,4.644.008c.367-.007.74.017,1.088-.014a2.349,2.349,0,0,0,.978-.344A2.526,2.526,0,0,0,294.5,44.26a4.405,4.405,0,0,0,.063-.97q0-.485,0-.956a5.489,5.489,0,0,1,.042-.931,2.694,2.694,0,0,1,.3-.856,2.519,2.519,0,0,1,1.276-1.128,4,4,0,0,1,1.586-.169l5.182.014,3.186.013c.718,0,1.086.012,1.086.012s-.367.007-1.086.011l-3.186.009-5.182.008a3.93,3.93,0,0,0-1.559.17,2.444,2.444,0,0,0-1.235,1.1,2.617,2.617,0,0,0-.29.831,5.339,5.339,0,0,0-.038.918q0,.471,0,.956a4.459,4.459,0,0,1-.062.988,2.622,2.622,0,0,1-1.156,1.67,2.455,2.455,0,0,1-1.017.36c-.37.032-.728.009-1.1.017l-4.644,0-10.533,0h-3.619a2.835,2.835,0,0,1-.752-.074,2.489,2.489,0,0,1-1.291-.8,2.663,2.663,0,0,1-.63-1.407,6.024,6.024,0,0,1-.027-.78v-.778a4.155,4.155,0,0,0-.156-1.53,2.5,2.5,0,0,0-.926-1.213,2.414,2.414,0,0,0-1.491-.412H255.3a7.948,7.948,0,0,0-6.386,2.834,8.01,8.01,0,0,0-1.642,3.316c-.081.3-.1.62-.16.931-.016.316-.039.631-.043.952V49.31q0,7.79,0,16.189c0,11.189,0,23.144,0,35.725s0,25.788,0,39.479q0,10.27,0,20.884,0,5.3,0,10.682,0,1.344,0,2.693a8.589,8.589,0,0,0,.324,2.639,7.955,7.955,0,0,0,3.079,4.252,8.209,8.209,0,0,0,5.074,1.4l5.393,0,10.679.007,20.879.014,10.173.007c1.676-.009,3.359.027,5.008-.021a7.87,7.87,0,0,0,4.49-1.741,8.442,8.442,0,0,0,1.62-1.8,7.858,7.858,0,0,0,.994-2.191,8.315,8.315,0,0,0,.3-2.38q0-1.214,0-2.422,0-4.831,0-9.549c.014-25.158.027-47.814.038-66.844s.034-34.425.044-45.069q0-2,.006-3.766a8.214,8.214,0,0,0-.583-3.218,7.939,7.939,0,0,0-1.5-2.372,7.97,7.97,0,0,0-4.781-2.527,6.44,6.44,0,0,0-.807-.074c-.181-.011-.273-.02-.273-.02" transform="translate(-68.63 -10.893)" fill="#263238"/>
            <path id="Trazado_231223" data-name="Trazado 231223" d="M330.351,57.237c0,.035-1.32.073-2.948.087s-2.949,0-2.95-.038,1.32-.074,2.949-.087,2.949,0,2.949.038" transform="translate(-90.209 -15.902)" fill="#263238"/>
            <path id="Trazado_231224" data-name="Trazado 231224" d="M330.369,59.327c0,.035-1.32.073-2.949.087s-2.949,0-2.949-.038,1.32-.074,2.949-.087,2.949,0,2.949.038" transform="translate(-90.214 -16.483)" fill="#263238"/>
            <path id="Trazado_231225" data-name="Trazado 231225" d="M330.386,61.417c0,.035-1.32.073-2.949.087s-2.949,0-2.949-.038,1.32-.074,2.949-.087,2.949,0,2.949.038" transform="translate(-90.219 -17.064)" fill="#263238"/>
            <path id="Trazado_231226" data-name="Trazado 231226" d="M258.3,61.917a.934.934,0,0,1,.123-.008l.341-.012,1.259-.03-.035.035q-.007-.419-.014-.913c0-.17-.015-.33,0-.526a.484.484,0,0,1,.422-.388c.2,0,.381-.013.6,0a.489.489,0,0,1,.413.486q.008.639.015,1.332l-.058-.057,1.589-.017-.061.061c-.006-.64-.012-1.3-.018-1.979l0-.5a.508.508,0,0,0-.223-.375l-.695-.684-.67-.661-.324-.321c-.112-.108-.2-.219-.329-.245a.426.426,0,0,0-.365.069c-.1.082-.2.2-.3.291l-.57.575c-.359.372-.732.712-1,1.034a1.125,1.125,0,0,0-.08.593c0,.2,0,.384,0,.56,0,.343,0,.644-.005.9,0,.231-.005.421-.007.577a1.96,1.96,0,0,1-.008.208,1.5,1.5,0,0,1-.011-.191c0-.154-.009-.341-.016-.568q-.009-.39-.021-.909c0-.18-.007-.37-.01-.57,0-.1,0-.206-.005-.313a.657.657,0,0,1,.088-.332c.293-.36.644-.679,1.006-1.063l.565-.579c.1-.1.186-.2.307-.3a.541.541,0,0,1,.461-.091.859.859,0,0,1,.381.273l.326.32.672.658.7.683a1.288,1.288,0,0,1,.178.193.515.515,0,0,1,.083.268q0,.251.005.506c.005.678.01,1.34.014,1.98v.061h-.061l-1.589.01h-.058v-.058c0-.461-.005-.905-.007-1.331a.383.383,0,0,0-.321-.386c-.183-.01-.4,0-.576,0a.389.389,0,0,0-.342.309c-.016.16,0,.346-.007.508q0,.494,0,.913v.035h-.035l-1.28-.009-.334-.006a.651.651,0,0,1-.11-.007" transform="translate(-71.798 -15.842)" fill="#263238"/>
            <path id="Trazado_231227" data-name="Trazado 231227" d="M303.724,99.918A13.338,13.338,0,1,1,290.385,86.58a13.338,13.338,0,0,1,13.338,13.338" transform="translate(-77.028 -24.072)" fill="#1565c0"/>
            <path id="Trazado_231228" data-name="Trazado 231228" d="M298.335,110.311h-9.151v-1.125a4.575,4.575,0,1,1,9.151,0Z" transform="translate(-80.403 -29.085)" fill="#fff"/>
            <path id="Trazado_231229" data-name="Trazado 231229" d="M297.175,100.293a2.69,2.69,0,1,1-2.69-2.69,2.69,2.69,0,0,1,2.69,2.69" transform="translate(-81.129 -27.137)" fill="#fff"/>
            <rect id="Rectángulo_58027" data-name="Rectángulo 58027" width="44.965" height="9.184" transform="translate(189.58 104.464)" fill="#ebebeb"/>
            <rect id="Rectángulo_58028" data-name="Rectángulo 58028" width="44.965" height="9.184" transform="translate(189.58 117.79)" fill="#ebebeb"/>
            <path id="Trazado_231230" data-name="Trazado 231230" d="M299.441,197.617h-22.57a4.592,4.592,0,0,1,0-9.184h22.57a4.592,4.592,0,1,1,0,9.184" transform="translate(-75.703 -52.391)" fill="url(#linear-gradient)"/>
            <path id="Trazado_231231" data-name="Trazado 231231" d="M302.924,136.867c0,.229-6.317.414-14.109.414s-14.11-.185-14.11-.414,6.316-.414,14.11-.414,14.109.186,14.109.414" transform="translate(-76.377 -37.939)" fill="#263238"/>
            <path id="Trazado_231232" data-name="Trazado 231232" d="M270.29,153.209H268.3a.352.352,0,0,1-.352-.352,1.324,1.324,0,0,1,1.323-1.324h.044a1.323,1.323,0,0,1,1.323,1.324.352.352,0,0,1-.352.352" transform="translate(-74.5 -42.131)" fill="#e0e0e0"/>
            <path id="Trazado_231233" data-name="Trazado 231233" d="M270.3,150.263a.791.791,0,1,1-.791-.791.792.792,0,0,1,.791.791" transform="translate(-74.713 -41.558)" fill="#e0e0e0"/>
            <rect id="Rectángulo_58029" data-name="Rectángulo 58029" width="2.371" height="1.676" transform="translate(193.612 122.528)" fill="#e0e0e0"/>
            <path id="Trazado_231234" data-name="Trazado 231234" d="M270.694,169.445H269.9v-.516a.671.671,0,0,0-1.342,0v.516h-.8v-.516a1.466,1.466,0,0,1,2.933,0Z" transform="translate(-74.447 -46.56)" fill="#e0e0e0"/>
            <path id="Trazado_231235" data-name="Trazado 231235" d="M226.48.158,218.762.17a5.884,5.884,0,0,0-2.323.252A3.647,3.647,0,0,0,214.6,2.056a3.924,3.924,0,0,0-.432,1.237,7.958,7.958,0,0,0-.057,1.367q0,.7,0,1.422a6.649,6.649,0,0,1-.092,1.471,3.9,3.9,0,0,1-1.722,2.485,3.644,3.644,0,0,1-1.514.536c-.55.048-1.084.014-1.636.025l-6.917,0-15.688,0h-5.39a4.225,4.225,0,0,1-1.12-.11,3.708,3.708,0,0,1-1.923-1.188,3.964,3.964,0,0,1-.939-2.1,8.833,8.833,0,0,1-.04-1.16q0-.576,0-1.157A6.174,6.174,0,0,0,176.9,2.62a3.716,3.716,0,0,0-1.379-1.8A3.587,3.587,0,0,0,173.3.2H155.5a12.254,12.254,0,0,0-5.192.985,12.129,12.129,0,0,0-4.319,3.233,11.9,11.9,0,0,0-2.445,4.934c-.121.453-.154.924-.238,1.387-.02.393-.041.788-.053,1.184v77.3c0,1.035,0,2.041,0,3.081,0,3.121,0,6.3,0,9.477V202.235a12.371,12.371,0,0,0,.475,3.746,11.835,11.835,0,0,0,4.585,6.328,12.233,12.233,0,0,0,7.557,2.079l8.033.005,15.9.01,31.1.021,15.152.01c2.5-.014,5,.04,7.457-.031a11.715,11.715,0,0,0,6.687-2.591,12.551,12.551,0,0,0,2.414-2.674,11.709,11.709,0,0,0,1.48-3.261,12.384,12.384,0,0,0,.445-3.541q0-1.807,0-3.605,0-7.19.006-14.213c.021-37.443.04-71.164.056-99.486s.051-51.236.066-67.078q.005-2.971.009-5.6a12.206,12.206,0,0,0-.869-4.79,11.8,11.8,0,0,0-2.234-3.53,11.387,11.387,0,0,0-2.687-2.2A11.276,11.276,0,0,0,234.451.268a9.5,9.5,0,0,0-1.2-.11c-.27-.017-.406-.03-.406-.03s-.548.012-1.617.017L226.48.158" transform="translate(-39.829 -0.036)" fill="#fafafa"/>
            <path id="Trazado_231236" data-name="Trazado 231236" d="M232.959.165s.136,0,.406.012a8.723,8.723,0,0,1,1.2.093,11.172,11.172,0,0,1,4.452,1.537A11.384,11.384,0,0,1,241.727,4a11.86,11.86,0,0,1,2.26,3.543,12.294,12.294,0,0,1,.889,4.818q0,2.628.007,5.595c.009,15.813.022,38.689.04,66.954s.011,61.927.017,99.3V202a12.667,12.667,0,0,1-.455,3.62,12,12,0,0,1-1.515,3.345,12.842,12.842,0,0,1-2.472,2.743,12.007,12.007,0,0,1-6.853,2.66c-2.489.072-4.959.018-7.459.033l-15.113-.007-31.016-.016-15.864-.009-8.012,0a12.541,12.541,0,0,1-7.729-2.134,12.149,12.149,0,0,1-4.7-6.5,13.064,13.064,0,0,1-.5-4.015q0-2,0-4,0-7.988,0-15.868,0-15.757.009-31.025c.007-20.34.014-39.959.021-58.65s.018-36.45.026-53.072q.008-12.466.014-24.051,0-1.447,0-2.879c.006-.478.04-.962.066-1.44.084-.471.121-.952.243-1.414a12.136,12.136,0,0,1,2.5-5.028A12.358,12.358,0,0,1,150.535,1a12.456,12.456,0,0,1,5.275-1l10.344.012,4.977.006,2.438,0a3.8,3.8,0,0,1,2.336.653,3.926,3.926,0,0,1,1.452,1.907,6.357,6.357,0,0,1,.24,2.344q0,.58,0,1.155a8.6,8.6,0,0,0,.037,1.131A3.753,3.753,0,0,0,178.52,9.2a3.5,3.5,0,0,0,1.814,1.126,4.028,4.028,0,0,0,1.069.105H182.5l4.283.006,15.648.023,6.9.012c.544-.01,1.1.025,1.616-.021a3.483,3.483,0,0,0,1.453-.51,3.755,3.755,0,0,0,1.663-2.391,6.553,6.553,0,0,0,.093-1.441q0-.72,0-1.419a8.12,8.12,0,0,1,.063-1.384,4.016,4.016,0,0,1,.448-1.271A3.744,3.744,0,0,1,216.558.359a5.94,5.94,0,0,1,2.357-.251l7.7.02,4.734.019c1.066.006,1.613.018,1.613.018s-.547.012-1.613.017L226.612.2l-7.7.012A5.869,5.869,0,0,0,216.6.459a3.637,3.637,0,0,0-1.834,1.631,3.909,3.909,0,0,0-.43,1.235,7.938,7.938,0,0,0-.057,1.364q0,.7,0,1.419a6.717,6.717,0,0,1-.092,1.468,3.89,3.89,0,0,1-1.718,2.481,3.625,3.625,0,0,1-1.51.534c-.549.048-1.08.014-1.632.025l-6.9,0-15.648.005H181.4a4.263,4.263,0,0,1-1.117-.109,3.7,3.7,0,0,1-1.918-1.187,3.953,3.953,0,0,1-.936-2.091,8.8,8.8,0,0,1-.04-1.158q0-.575,0-1.155a6.169,6.169,0,0,0-.231-2.273,3.712,3.712,0,0,0-1.375-1.8,3.572,3.572,0,0,0-2.215-.612H155.81a12.213,12.213,0,0,0-5.178.983,12.114,12.114,0,0,0-4.308,3.226,11.89,11.89,0,0,0-2.439,4.926c-.12.451-.155.922-.236,1.384-.025.47-.058.937-.064,1.413q0,1.433,0,2.879,0,11.571.005,24.051c0,16.622,0,34.381.005,53.072s0,38.31,0,58.65q0,15.256,0,31.025,0,7.878,0,15.869,0,2,0,4a12.728,12.728,0,0,0,.482,3.92,11.813,11.813,0,0,0,4.573,6.316,12.2,12.2,0,0,0,7.538,2.074l8.012.005,15.864.01,31.016.02,15.114.011c2.49-.014,4.989.04,7.438-.031a11.683,11.683,0,0,0,6.67-2.586,12.534,12.534,0,0,0,2.407-2.67,11.676,11.676,0,0,0,1.476-3.255,12.368,12.368,0,0,0,.445-3.535q0-1.8,0-3.6,0-7.177.006-14.186c.02-37.374.04-71.033.055-99.3s.051-51.142.067-66.954q0-2.964.008-5.595a12.167,12.167,0,0,0-.866-4.779,11.8,11.8,0,0,0-2.229-3.524,11.337,11.337,0,0,0-2.681-2.193A11.238,11.238,0,0,0,234.564.3a9.424,9.424,0,0,0-1.2-.11c-.269-.017-.406-.03-.406-.03" transform="translate(-39.829 0)" fill="#263238"/>
            <path id="Trazado_231237" data-name="Trazado 231237" d="M267.31,26.826c0,.051-1.961.108-4.38.129s-4.382-.005-4.382-.056,1.96-.108,4.38-.129,4.381.005,4.382.056" transform="translate(-71.885 -7.441)" fill="#263238"/>
            <path id="Trazado_231238" data-name="Trazado 231238" d="M267.336,29.931c0,.051-1.961.108-4.38.129s-4.381-.005-4.382-.056,1.96-.108,4.38-.129,4.381.005,4.382.056" transform="translate(-71.892 -8.304)" fill="#263238"/>
            <path id="Trazado_231239" data-name="Trazado 231239" d="M267.361,33.036c0,.051-1.961.108-4.379.129s-4.382-.005-4.382-.056,1.96-.108,4.38-.129,4.381.005,4.382.056" transform="translate(-71.899 -9.168)" fill="#263238"/>
            <path id="Trazado_231240" data-name="Trazado 231240" d="M160.271,33.78a1.527,1.527,0,0,1,.182-.012l.507-.017,1.871-.045-.051.053c-.007-.414-.014-.868-.022-1.357,0-.252-.022-.489,0-.78a.72.72,0,0,1,.628-.577c.3-.006.567-.019.894,0a.726.726,0,0,1,.613.722c.007.632.015,1.294.023,1.979l-.087-.085,2.36-.025-.09.092c-.009-.951-.017-1.933-.027-2.941q0-.377-.006-.749a.762.762,0,0,0-.332-.557L165.7,28.46l-.995-.982L164.227,27c-.165-.16-.3-.325-.488-.365a.632.632,0,0,0-.541.1c-.144.121-.3.291-.44.432l-.847.854c-.532.553-1.087,1.058-1.491,1.536a1.675,1.675,0,0,0-.118.881q0,.439,0,.832-.005.765-.009,1.339c0,.342-.007.625-.009.857,0,.2-.007.3-.012.308a2.258,2.258,0,0,1-.016-.284c-.007-.228-.014-.506-.024-.843q-.013-.579-.031-1.35-.007-.4-.015-.848c0-.151-.005-.305-.007-.464a.98.98,0,0,1,.13-.494c.437-.535.958-1.009,1.494-1.578l.84-.861c.151-.149.275-.3.455-.451a.8.8,0,0,1,.684-.135,1.27,1.27,0,0,1,.567.405l.484.474,1,.979,1.034,1.015a1.925,1.925,0,0,1,.264.285.771.771,0,0,1,.123.4q0,.374.007.752c.008,1.007.016,1.99.023,2.941v.091h-.091l-2.36.015h-.086v-.086c0-.685-.007-1.346-.011-1.979a.568.568,0,0,0-.476-.573c-.271-.014-.591-.005-.856,0a.578.578,0,0,0-.509.459c-.023.237-.006.514-.01.754v1.41h-.051l-1.9-.013-.5-.009a.883.883,0,0,1-.163-.009" transform="translate(-44.535 -7.353)" fill="#263238"/>
            <path id="Trazado_231241" data-name="Trazado 231241" d="M231.833,68.066H161.777a6.346,6.346,0,0,1-6.347-6.346V59.362a6.348,6.348,0,0,1,6.347-6.348h70.056a6.348,6.348,0,0,1,6.347,6.348V61.72a6.346,6.346,0,0,1-6.347,6.346" transform="translate(-43.215 -14.74)" fill="#f5f5f5"/>
            <path id="Trazado_231242" data-name="Trazado 231242" d="M231.773,68.007s.162-.018.475-.039a6.8,6.8,0,0,0,1.366-.266,6.557,6.557,0,0,0,1.99-1.047,6.229,6.229,0,0,0,1.887-2.393,6.06,6.06,0,0,0,.5-1.754,16.115,16.115,0,0,0,.057-2.027,13.612,13.612,0,0,0-.1-2.2,6.263,6.263,0,0,0-5-5.108,17.309,17.309,0,0,0-2.877-.11l-3.058.005-65.3.045a6.205,6.205,0,0,0-6.172,5.679c-.052.749-.014,1.542-.026,2.307a7.189,7.189,0,0,0,.235,2.238,6.241,6.241,0,0,0,2.564,3.507,5.971,5.971,0,0,0,2,.855,9.139,9.139,0,0,0,2.177.164h4.382l8.486.005,29.355.033,19.79.049,5.381.028,1.4.016c.315.006.477.015.477.015s-.162.012-.477.016l-1.4.016-5.381.029-19.79.048-29.355.034-8.486.005H162.5a9.436,9.436,0,0,1-2.245-.169,6.281,6.281,0,0,1-2.1-.9,6.544,6.544,0,0,1-2.691-3.676,7.512,7.512,0,0,1-.247-2.321c.012-.776-.027-1.532.026-2.332a6.511,6.511,0,0,1,6.477-5.961l65.3.045q1.567,0,3.058.005a17.386,17.386,0,0,1,2.914.123,6.433,6.433,0,0,1,5.119,5.275,13.694,13.694,0,0,1,.087,2.231,16.025,16.025,0,0,1-.071,2.045,6.167,6.167,0,0,1-.521,1.785,6.284,6.284,0,0,1-1.941,2.416,6.516,6.516,0,0,1-2.028,1.034A6.428,6.428,0,0,1,232.25,68c-.315.011-.477.008-.477.008" transform="translate(-43.155 -14.681)" fill="#263238"/>
            <path id="Trazado_231243" data-name="Trazado 231243" d="M260.866,61.841c-.03,0-.027-.243-.144-.651a2.719,2.719,0,0,0-1-1.43,2.594,2.594,0,1,0,0,4.161,2.721,2.721,0,0,0,1-1.429c.117-.409.114-.653.144-.651.011,0,.018.06.022.175a2.033,2.033,0,0,1-.049.5,2.714,2.714,0,0,1-.984,1.573,2.825,2.825,0,0,1-2.693.441,2.859,2.859,0,0,1,0-5.389,2.827,2.827,0,0,1,2.693.44,2.712,2.712,0,0,1,.983,1.574,2.008,2.008,0,0,1,.05.5c0,.116-.012.175-.022.175" transform="translate(-70.971 -16.399)" fill="#263238"/>
            <path id="Trazado_231244" data-name="Trazado 231244" d="M264.161,68.434a5.384,5.384,0,0,1-1.334-1.217,5.42,5.42,0,0,1-1.108-1.426,10.6,10.6,0,0,1,2.442,2.643" transform="translate(-72.765 -18.291)" fill="#263238"/>
            <path id="Trazado_231245" data-name="Trazado 231245" d="M170.335,61.206H168.86v-.384h3.4v.384h-1.476v3.816h-.444Z" transform="translate(-46.949 -16.91)" fill="#e0e0e0"/>
            <path id="Trazado_231246" data-name="Trazado 231246" d="M176.588,63.969h-2.64a1.169,1.169,0,0,0,1.242,1.1,1.243,1.243,0,0,0,.967-.414l.24.276a1.669,1.669,0,0,1-2.874-1.092,1.52,1.52,0,0,1,1.542-1.6,1.5,1.5,0,0,1,1.53,1.6c0,.036-.006.084-.006.132m-2.64-.318h2.238a1.121,1.121,0,0,0-2.238,0" transform="translate(-48.245 -17.303)" fill="#e0e0e0"/>
            <path id="Trazado_231247" data-name="Trazado 231247" d="M180.683,65.424l-1-1.32-1.009,1.32h-.479l1.248-1.62-1.188-1.536h.48l.948,1.236.948-1.236h.468L179.909,63.8l1.26,1.62Z" transform="translate(-49.544 -17.313)" fill="#e0e0e0"/>
            <path id="Trazado_231248" data-name="Trazado 231248" d="M184.768,64.967a1.014,1.014,0,0,1-.666.222.836.836,0,0,1-.924-.918V62.362h-.564V62h.564v-.69h.426V62h.96v.36h-.96v1.884a.505.505,0,0,0,.547.576.706.706,0,0,0,.468-.162Z" transform="translate(-50.773 -17.047)" fill="#e0e0e0"/>
            <path id="Trazado_231249" data-name="Trazado 231249" d="M223.2,93.659c0,.085-6.057.154-13.526.154s-13.527-.069-13.527-.154,6.055-.154,13.527-.154,13.526.069,13.526.154" transform="translate(-54.534 -25.998)" fill="#e8505b"/>
            <path id="Trazado_231250" data-name="Trazado 231250" d="M244.767,101.349c0,.085-10.886.154-24.311.154s-24.314-.069-24.314-.154,10.884-.154,24.314-.154,24.311.069,24.311.154" transform="translate(-54.534 -28.136)" fill="#263238"/>
            <path id="Trazado_231251" data-name="Trazado 231251" d="M244.2,106.841c0,.085-10.758.154-24.026.154s-24.027-.069-24.027-.154,10.755-.154,24.027-.154,24.026.069,24.026.154" transform="translate(-54.534 -29.663)" fill="#263238"/>
            <path id="Trazado_231252" data-name="Trazado 231252" d="M224.515,112.08c0,.086-6.352.154-14.185.154s-14.187-.069-14.187-.154,6.35-.153,14.187-.153,14.185.069,14.185.153" transform="translate(-54.534 -31.119)" fill="#263238"/>
            <path id="Trazado_231253" data-name="Trazado 231253" d="M223.2,135.456c0,.085-6.057.154-13.526.154s-13.527-.069-13.527-.154,6.055-.154,13.527-.154,13.526.069,13.526.154" transform="translate(-54.534 -37.619)" fill="#e8505b"/>
            <path id="Trazado_231254" data-name="Trazado 231254" d="M244.767,143.147c0,.085-10.886.154-24.311.154s-24.314-.069-24.314-.154,10.884-.154,24.314-.154,24.311.069,24.311.154" transform="translate(-54.534 -39.757)" fill="#263238"/>
            <path id="Trazado_231255" data-name="Trazado 231255" d="M244.2,148.639c0,.085-10.758.154-24.026.154s-24.027-.069-24.027-.154,10.755-.154,24.027-.154,24.026.069,24.026.154" transform="translate(-54.534 -41.284)" fill="#263238"/>
            <path id="Trazado_231256" data-name="Trazado 231256" d="M224.515,153.878c0,.085-6.352.154-14.185.154s-14.187-.069-14.187-.154,6.35-.154,14.187-.154,14.185.069,14.185.154" transform="translate(-54.534 -42.74)" fill="#263238"/>
            <path id="Trazado_231257" data-name="Trazado 231257" d="M223.2,177.254c0,.085-6.057.154-13.526.154s-13.527-.069-13.527-.154,6.055-.154,13.527-.154,13.526.069,13.526.154" transform="translate(-54.534 -49.24)" fill="#e8505b"/>
            <path id="Trazado_231258" data-name="Trazado 231258" d="M244.767,184.945c0,.085-10.886.155-24.311.155s-24.314-.069-24.314-.155,10.884-.154,24.314-.154,24.311.069,24.311.154" transform="translate(-54.534 -51.378)" fill="#263238"/>
            <path id="Trazado_231259" data-name="Trazado 231259" d="M244.2,190.437c0,.085-10.758.154-24.026.154s-24.027-.069-24.027-.154,10.755-.154,24.027-.154,24.026.069,24.026.154" transform="translate(-54.534 -52.905)" fill="#263238"/>
            <path id="Trazado_231260" data-name="Trazado 231260" d="M224.515,195.676c0,.085-6.352.155-14.185.155s-14.187-.069-14.187-.155,6.35-.154,14.187-.154,14.185.069,14.185.154" transform="translate(-54.534 -54.362)" fill="#263238"/>
            <path id="Trazado_231261" data-name="Trazado 231261" d="M223.2,219.052c0,.085-6.057.154-13.526.154s-13.527-.069-13.527-.154,6.055-.154,13.527-.154,13.526.069,13.526.154" transform="translate(-54.534 -60.861)" fill="#e8505b"/>
            <path id="Trazado_231262" data-name="Trazado 231262" d="M244.767,226.743c0,.085-10.886.154-24.311.154s-24.314-.069-24.314-.154,10.884-.154,24.314-.154,24.311.069,24.311.154" transform="translate(-54.534 -62.999)" fill="#263238"/>
            <path id="Trazado_231263" data-name="Trazado 231263" d="M244.2,232.235c0,.085-10.758.154-24.026.154s-24.027-.069-24.027-.154,10.755-.154,24.027-.154,24.026.069,24.026.154" transform="translate(-54.534 -64.526)" fill="#263238"/>
            <path id="Trazado_231264" data-name="Trazado 231264" d="M224.515,237.474c0,.085-6.352.154-14.185.154s-14.187-.069-14.187-.154,6.35-.154,14.187-.154,14.185.069,14.185.154" transform="translate(-54.534 -65.983)" fill="#263238"/>
            <path id="Trazado_231265" data-name="Trazado 231265" d="M223.2,260.557c0,.085-6.057.154-13.526.154s-13.527-.069-13.527-.154,6.055-.154,13.527-.154,13.526.069,13.526.154" transform="translate(-54.534 -72.401)" fill="#e8505b"/>
            <path id="Trazado_231266" data-name="Trazado 231266" d="M244.767,268.247c0,.085-10.886.154-24.311.154s-24.314-.069-24.314-.154,10.884-.154,24.314-.154,24.311.069,24.311.154" transform="translate(-54.534 -74.539)" fill="#263238"/>
            <path id="Trazado_231267" data-name="Trazado 231267" d="M244.2,273.739c0,.085-10.758.154-24.026.154s-24.027-.069-24.027-.154,10.755-.154,24.027-.154,24.026.069,24.026.154" transform="translate(-54.534 -76.066)" fill="#263238"/>
            <path id="Trazado_231268" data-name="Trazado 231268" d="M224.515,278.979c0,.085-6.352.154-14.185.154s-14.187-.069-14.187-.154,6.35-.154,14.187-.154,14.185.069,14.185.154" transform="translate(-54.534 -77.523)" fill="#263238"/>
            <rect id="Rectángulo_58030" data-name="Rectángulo 58030" width="16.563" height="22.036" transform="translate(112.545 84) rotate(-89.681)" fill="#afafaf"/>
            <path id="Trazado_231269" data-name="Trazado 231269" d="M155.886,112.4l7.754-10.252,4.732,6.467,3.253-3.425,6.3,7.332Z" transform="translate(-43.342 -28.401)" fill="#636363"/>
            <path id="Trazado_231270" data-name="Trazado 231270" d="M174.707,99.782a1.735,1.735,0,1,1-1.726-1.744,1.735,1.735,0,0,1,1.726,1.744" transform="translate(-47.61 -27.258)" fill="#636363"/>
            <rect id="Rectángulo_58033" data-name="Rectángulo 58033" width="16.563" height="22.036" transform="translate(112.545 113.793) rotate(-89.681)" fill="#afafaf"/>
            <path id="Trazado_231273" data-name="Trazado 231273" d="M155.886,153.667l7.754-10.253,4.732,6.468,3.253-3.426,6.3,7.333Z" transform="translate(-43.342 -39.874)" fill="#636363"/>
            <path id="Trazado_231274" data-name="Trazado 231274" d="M174.707,141.048a1.735,1.735,0,1,1-1.726-1.745,1.735,1.735,0,0,1,1.726,1.745" transform="translate(-47.61 -38.731)" fill="#e8505b"/>
            <g id="Grupo_180132" data-name="Grupo 180132" transform="translate(123.627 100.572)" opacity="0.2">
              <g id="Grupo_180131" data-name="Grupo 180131">
                <g id="Grupo_180130" data-name="Grupo 180130" clip-path="url(#clip-path-6)">
                  <path id="Trazado_231276" data-name="Trazado 231276" d="M174.707,141.048a1.735,1.735,0,1,1-1.726-1.745,1.735,1.735,0,0,1,1.726,1.745" transform="translate(-171.236 -139.303)"/>
                </g>
              </g>
            </g>
            <rect id="Rectángulo_58036" data-name="Rectángulo 58036" width="16.563" height="22.036" transform="translate(112.545 143.585) rotate(-89.681)" fill="#afafaf"/>
            <path id="Trazado_231277" data-name="Trazado 231277" d="M155.886,194.933l7.754-10.252,4.732,6.467,3.253-3.425,6.3,7.332Z" transform="translate(-43.342 -51.348)" fill="#636363"/>
            <path id="Trazado_231278" data-name="Trazado 231278" d="M174.707,182.314a1.735,1.735,0,1,1-1.726-1.745,1.735,1.735,0,0,1,1.726,1.745" transform="translate(-47.61 -50.204)" fill="#636363"/>
            <rect id="Rectángulo_58039" data-name="Rectángulo 58039" width="16.563" height="22.036" transform="translate(112.545 173.378) rotate(-89.681)" fill="#afafaf"/>
            <path id="Trazado_231281" data-name="Trazado 231281" d="M155.886,236.2l7.754-10.253,4.732,6.468,3.253-3.426,6.3,7.333Z" transform="translate(-43.342 -62.821)" fill="#636363"/>
            <path id="Trazado_231282" data-name="Trazado 231282" d="M174.707,223.58a1.735,1.735,0,1,1-1.726-1.745,1.735,1.735,0,0,1,1.726,1.745" transform="translate(-47.61 -61.678)" fill="#636363"/>
            <rect id="Rectángulo_58042" data-name="Rectángulo 58042" width="16.563" height="22.036" transform="translate(112.545 203.026) rotate(-89.681)" fill="#afafaf"/>
            <path id="Trazado_231285" data-name="Trazado 231285" d="M155.886,277.264l7.754-10.252,4.732,6.467,3.253-3.425,6.3,7.332Z" transform="translate(-43.342 -74.238)" fill="#636363"/>
            <path id="Trazado_231286" data-name="Trazado 231286" d="M174.707,264.645a1.735,1.735,0,1,1-1.726-1.744,1.735,1.735,0,0,1,1.726,1.744" transform="translate(-47.61 -73.095)" fill="#636363"/>
            <path id="Trazado_231289" data-name="Trazado 231289" d="M390.27,51.07a7.857,7.857,0,1,1-7.858-7.857,7.858,7.858,0,0,1,7.858,7.857" transform="translate(-104.139 -12.015)" fill="#afafaf"/>
            <path id="Trazado_231290" data-name="Trazado 231290" d="M383.629,55.667a.359.359,0,0,1-.229-.082l-2.645-2.177a.361.361,0,1,1,.458-.557l2.366,1.946,3.356-4.108a.361.361,0,1,1,.558.457l-3.585,4.388a.363.363,0,0,1-.244.131h-.035" transform="translate(-105.826 -14.056)" fill="#fff"/>
            <path id="Trazado_231291" data-name="Trazado 231291" d="M345.11,35.03a10.77,10.77,0,1,1-10.77-10.77,10.77,10.77,0,0,1,10.77,10.77" transform="translate(-89.963 -6.745)" fill="#f4a338"/>
            <path id="Trazado_231292" data-name="Trazado 231292" d="M335.92,41.471a.724.724,0,0,1-.459-.165l-3.624-2.984a.722.722,0,1,1,.918-1.115l3.065,2.523,4.457-5.454a.722.722,0,0,1,1.118.913l-4.916,6.015a.718.718,0,0,1-.487.261c-.024,0-.048,0-.072,0" transform="translate(-92.189 -9.457)" fill="#fff"/>
          </g>
        </g>
        <g id="Grupo_180154" data-name="Grupo 180154">
          <g id="Grupo_180153" data-name="Grupo 180153" clip-path="url(#clip-path-2)">
            <g id="Grupo_891396" data-name="Grupo 891396" transform="translate(228.624 112.137)">
              <path id="Trazado_231293" data-name="Trazado 231293" d="M260.4,219.511a11.859,11.859,0,0,1-8.385-13.734c-.109.293-.21.59-.3.9a11.861,11.861,0,1,0,22.819,6.486c.087-.306.157-.612.219-.918a11.86,11.86,0,0,1-14.355,7.271" transform="translate(-251.262 -196.117)" fill="#263238"/>
              <path id="Trazado_231294" data-name="Trazado 231294" d="M267.263,183.14a11.86,11.86,0,0,1,8.385,13.734c.108-.293.21-.59.3-.9a11.861,11.861,0,0,0-22.819-6.486c-.087.306-.157.612-.219.918a11.86,11.86,0,0,1,14.355-7.271" transform="translate(-252.28 -180.712)" fill="#455a64"/>
              <path id="Trazado_231295" data-name="Trazado 231295" d="M275.775,195.643s.008-.065.033-.19l.117-.552.089-.406c.026-.15.039-.317.062-.5a8.657,8.657,0,0,0,.1-1.244,11.33,11.33,0,0,0-.407-3.382,11.847,11.847,0,0,0-6.144-7.507,11,11,0,0,0-1.386-.572c-.242-.077-.481-.171-.731-.238l-.76-.174c-.128-.027-.255-.064-.385-.083l-.395-.049c-.264-.03-.528-.073-.8-.093a12.466,12.466,0,0,0-1.635.014,12.247,12.247,0,0,0-1.661.23c-.276.062-.548.148-.825.221a6,6,0,0,0-.816.277,10.755,10.755,0,0,0-3.076,1.723,11.4,11.4,0,0,0-2.5,2.657,11.656,11.656,0,0,0-2.031,7.141,11.4,11.4,0,0,0,.731,3.578,10.764,10.764,0,0,0,1.709,3.084,6,6,0,0,0,.549.665c.2.208.383.424.585.622a12.284,12.284,0,0,0,1.292,1.069,12.49,12.49,0,0,0,1.383.873c.239.124.487.227.727.34l.361.166c.121.053.248.088.371.132l.738.252c.247.074.5.121.747.182a10.992,10.992,0,0,0,1.479.242,11.846,11.846,0,0,0,9.175-3.154,11.317,11.317,0,0,0,2.125-2.662,8.66,8.66,0,0,0,.573-1.108c.075-.164.151-.314.209-.455l.138-.391.19-.531c.044-.119.072-.179.072-.179s-.014.064-.052.185l-.172.538-.129.4c-.055.143-.128.294-.2.461a8.422,8.422,0,0,1-.56,1.123,11.235,11.235,0,0,1-2.115,2.7,11.929,11.929,0,0,1-9.266,3.237,11.124,11.124,0,0,1-1.5-.24c-.25-.061-.507-.108-.758-.182l-.75-.253c-.125-.045-.254-.08-.377-.133l-.367-.167c-.244-.114-.5-.218-.739-.344A13.058,13.058,0,0,1,256.065,201c-.206-.2-.4-.42-.6-.631a6.2,6.2,0,0,1-.559-.674,10.957,10.957,0,0,1-1.741-3.132,11.583,11.583,0,0,1-.746-3.637,11.837,11.837,0,0,1,2.065-7.26,11.576,11.576,0,0,1,2.547-2.7,10.935,10.935,0,0,1,3.128-1.747,6.073,6.073,0,0,1,.83-.28c.281-.074.558-.161.838-.223a12.388,12.388,0,0,1,1.687-.23,12.58,12.58,0,0,1,1.661-.01c.272.02.541.065.809.1l.4.051c.132.02.261.058.391.085l.771.179c.253.068.5.164.74.244a11.035,11.035,0,0,1,1.4.585,11.927,11.927,0,0,1,6.178,7.626,11.231,11.231,0,0,1,.376,3.413,8.4,8.4,0,0,1-.114,1.25c-.026.18-.043.347-.072.5l-.1.405-.137.549c-.032.123-.053.185-.053.185" transform="translate(-251.975 -180.455)" fill="#263238"/>
              <path id="Trazado_231296" data-name="Trazado 231296" d="M301.836,233.886c.15.1,11.382,10.461,15.517,14.335a1.8,1.8,0,1,0,2.462-2.633L304.4,231.347Z" transform="translate(-282.543 -211.933)" fill="#263238"/>
            </g>
          </g>
        </g>
      </g>
    </g>
    <g id="Grupo_888578" data-name="Grupo 888578" transform="translate(1061.308 1522.382)">
      <rect id="Rectángulo_299819" data-name="Rectángulo 299819" width="49.117" height="12.684" transform="translate(2.601)" fill="#1565c0"/>
      <path id="Trazado_605119" data-name="Trazado 605119" d="M31.065,141.858,28.006,150.3H25.654l-1.9-5.239L21.795,150.3H19.442L16.4,141.858H18.7l1.992,5.709,2.07-5.709h2.071l2.008,5.709,2.054-5.709Z" transform="translate(-11.182 -139.832)" fill="#fff"/>
      <path id="Trazado_605120" data-name="Trazado 605120" d="M48.2,141.858,45.145,150.3H42.792l-1.9-5.239L38.933,150.3H36.581l-3.043-8.439h2.305l1.992,5.709,2.07-5.709h2.071l2.008,5.709,2.055-5.709Z" transform="translate(-13.826 -139.832)" fill="#fff"/>
      <path id="Trazado_605121" data-name="Trazado 605121" d="M65.342,141.858,62.284,150.3H59.931l-1.9-5.239L56.072,150.3H53.719l-3.043-8.439h2.305l1.992,5.709,2.07-5.709h2.07l2.008,5.709,2.055-5.709Z" transform="translate(-16.471 -139.832)" fill="#fff"/>
      <line id="Línea_2084" data-name="Línea 2084" x2="5.202" transform="translate(0)" fill="none" stroke="#38356e" stroke-miterlimit="10" stroke-width="1"/>
      <line id="Línea_2085" data-name="Línea 2085" x2="5.202" transform="translate(0 12.683)" fill="none" stroke="#38356e" stroke-miterlimit="10" stroke-width="1"/>
      <line id="Línea_2086" data-name="Línea 2086" y2="12.684" transform="translate(2.601)" fill="none" stroke="#38356e" stroke-miterlimit="10" stroke-width="1"/>
    </g>
    <g id="Grupo_888579" data-name="Grupo 888579" transform="translate(1003.75 1553.252)">
      <path id="Trazado_605122" data-name="Trazado 605122" d="M94.825,99.89H10.377a1.709,1.709,0,0,1-1.71-1.709V45.908a1.709,1.709,0,0,1,1.71-1.709H94.825a1.709,1.709,0,0,1,1.709,1.709V98.181a1.709,1.709,0,0,1-1.709,1.709" transform="translate(-1.943 -37.523)" fill="#12263f"/>
      <path id="Trazado_605123" data-name="Trazado 605123" d="M10.229,98.439V51.38a1.347,1.347,0,0,1,1.347-1.347H94.325a1.347,1.347,0,0,1,1.348,1.347v47.06a1.347,1.347,0,0,1-1.348,1.347H11.576a1.347,1.347,0,0,1-1.347-1.347" transform="translate(-2.294 -38.831)" fill="#fff"/>
      <path id="Trazado_605124" data-name="Trazado 605124" d="M118.995,46.8a1.113,1.113,0,1,1-1.112-1.112,1.112,1.112,0,0,1,1.112,1.112" transform="translate(-26.182 -37.856)" fill="#fff"/>
      <path id="Trazado_605125" data-name="Trazado 605125" d="M114.256,46.8a1.113,1.113,0,1,1-1.112-1.112,1.112,1.112,0,0,1,1.112,1.112" transform="translate(-25.12 -37.856)" fill="#fff"/>
      <path id="Trazado_605126" data-name="Trazado 605126" d="M109.517,46.8a1.113,1.113,0,1,1-1.112-1.112,1.112,1.112,0,0,1,1.112,1.112" transform="translate(-24.057 -37.856)" fill="#fff"/>
      <path id="Trazado_605127" data-name="Trazado 605127" d="M23.17,60.213a4.5,4.5,0,1,1-4.5-4.5,4.5,4.5,0,0,1,4.5,4.5" transform="translate(-3.178 -40.104)" fill="#1565c0"/>
      <rect id="Rectángulo_299820" data-name="Rectángulo 299820" width="67.078" height="2.125" transform="translate(22.059 15.645)" fill="#e8e8e8"/>
      <rect id="Rectángulo_299821" data-name="Rectángulo 299821" width="45.653" height="2.125" transform="translate(22.059 19.045)" fill="#e8e8e8"/>
      <rect id="Rectángulo_299822" data-name="Rectángulo 299822" width="23.74" height="2.125" transform="translate(22.059 22.656)" fill="#e8e8e8"/>
      <path id="Trazado_605128" data-name="Trazado 605128" d="M23.17,78.68a4.5,4.5,0,1,1-4.5-4.5,4.5,4.5,0,0,1,4.5,4.5" transform="translate(-3.178 -44.246)" fill="#fb8c00"/>
      <rect id="Rectángulo_299823" data-name="Rectángulo 299823" width="67.078" height="2.125" transform="translate(22.059 29.971)" fill="#e8e8e8"/>
      <rect id="Rectángulo_299824" data-name="Rectángulo 299824" width="45.653" height="2.125" transform="translate(22.059 33.372)" fill="#e8e8e8"/>
      <rect id="Rectángulo_299825" data-name="Rectángulo 299825" width="23.74" height="2.125" transform="translate(22.059 36.982)" fill="#e8e8e8"/>
      <path id="Trazado_605129" data-name="Trazado 605129" d="M23.17,97.147a4.5,4.5,0,1,1-4.5-4.5,4.5,4.5,0,0,1,4.5,4.5" transform="translate(-3.178 -48.386)" fill="#26aab7"/>
      <rect id="Rectángulo_299826" data-name="Rectángulo 299826" width="67.078" height="2.125" transform="translate(22.059 44.298)" fill="#e8e8e8"/>
      <rect id="Rectángulo_299827" data-name="Rectángulo 299827" width="45.653" height="2.125" transform="translate(22.059 47.698)" fill="#e8e8e8"/>
      <rect id="Rectángulo_299828" data-name="Rectángulo 299828" width="23.74" height="2.125" transform="translate(22.059 51.308)" fill="#e8e8e8"/>
      <path id="Trazado_605130" data-name="Trazado 605130" d="M126.966,121.336V122.5H125.8" transform="translate(-28.207 -54.818)" fill="none" stroke="#38356e" stroke-linejoin="round" stroke-width="0.5"/>
      <line id="Línea_2087" data-name="Línea 2087" x1="91.076" transform="translate(4.213 67.681)" fill="none" stroke="#38356e" stroke-linejoin="round" stroke-width="0.5" stroke-dasharray="2.972 2.972"/>
      <path id="Trazado_605131" data-name="Trazado 605131" d="M3.609,122.5H2.445v-1.164" transform="translate(-0.548 -54.818)" fill="none" stroke="#38356e" stroke-linejoin="round" stroke-width="0.5"/>
      <line id="Línea_2088" data-name="Línea 2088" y1="59.932" transform="translate(1.897 4.236)" fill="none" stroke="#12263f" stroke-linejoin="round" stroke-width="0.5" stroke-dasharray="3.03 3.03"/>
      <path id="Trazado_605132" data-name="Trazado 605132" d="M2.445,39.2V38.038H3.609" transform="translate(-0.548 -36.141)" fill="none" stroke="#38356e" stroke-linejoin="round" stroke-width="0.5"/>
      <line id="Línea_2089" data-name="Línea 2089" x2="91.076" transform="translate(5.366 1.897)" fill="none" stroke="#38356e" stroke-linejoin="round" stroke-width="0.5" stroke-dasharray="2.972 2.972"/>
      <path id="Trazado_605133" data-name="Trazado 605133" d="M125.8,38.038h1.164V39.2" transform="translate(-28.207 -36.141)" fill="none" stroke="#38356e" stroke-linejoin="round" stroke-width="0.5"/>
      <line id="Línea_2090" data-name="Línea 2090" y2="59.932" transform="translate(98.759 5.411)" fill="none" stroke="#38356e" stroke-linejoin="round" stroke-width="0.5" stroke-dasharray="3.03 3.03"/>
      <rect id="Rectángulo_299829" data-name="Rectángulo 299829" width="3.794" height="3.794" fill="#12263f"/>
      <rect id="Rectángulo_299830" data-name="Rectángulo 299830" width="3.794" height="3.794" transform="translate(96.862)" fill="#12263f"/>
      <rect id="Rectángulo_299831" data-name="Rectángulo 299831" width="3.794" height="3.794" transform="translate(96.862 65.784)" fill="#12263f"/>
      <rect id="Rectángulo_299832" data-name="Rectángulo 299832" width="3.794" height="3.794" transform="translate(0.582 65.784)" fill="#12263f"/>
      <path id="Trazado_605134" data-name="Trazado 605134" d="M84.209,102.9V101.74h1.164" transform="translate(-18.881 -50.425)" fill="none" stroke="#38356e" stroke-linejoin="round" stroke-width="0.5"/>
    </g>
    <path id="Trazado_236852" data-name="Trazado 236852" d="M398.428,276.966v20.5a2.31,2.31,0,0,1-1.973,2.29,1.788,1.788,0,0,1-.347.03h-26.34a2.319,2.319,0,0,1-2.32-2.32v-20.5a2.224,2.224,0,0,1,.236-1.013,2.312,2.312,0,0,1,2.084-1.315h10.321a2.34,2.34,0,0,0,1.367-.443,2.271,2.271,0,0,0,.843-1.153,2.324,2.324,0,0,1,2.209-1.6h5.5a2.318,2.318,0,0,1,2.209,1.6,2.321,2.321,0,0,0,2.209,1.6h1.685a2.325,2.325,0,0,1,2.32,2.327" transform="translate(906.546 1310.365)" fill="#c17d23"/>
    <g id="Grupo_182229" data-name="Grupo 182229" transform="translate(1273.995 1586.318)" style="isolation: isolate">
      <g id="Grupo_182228" data-name="Grupo 182228">
        <g id="Grupo_182227" data-name="Grupo 182227" clip-path="url(#clip-path-8)">
          <path id="Trazado_236853" data-name="Trazado 236853" d="M396.454,280.143v21.825l-.03.03H369.767a2.32,2.32,0,0,1-2.32-2.321v-20.5a2.221,2.221,0,0,1,.236-1.012h26.79a1.981,1.981,0,0,1,1.981,1.981" transform="translate(-367.448 -278.162)" fill="#f4a338"/>
        </g>
      </g>
    </g>
  </g>
</svg>
